<svg xmlns="http://www.w3.org/2000/svg" viewBox="0 0 42.14697 60"><title>alo_icon_system_activity-medium</title><path d="M21.07349,12.5a6.25,6.25,0,1,1,6.25-6.25A6.257,6.257,0,0,1,21.07349,12.5Zm0-9.5a3.25,3.25,0,1,0,3.25,3.25A3.25376,3.25376,0,0,0,21.07349,3Z"/><path d="M21.07349,60a8.63474,8.63474,0,0,1-8.625-8.625V32.14746L1.82739,21.52686A6.25037,6.25037,0,0,1,10.66724,12.688l5.43359,5.43359h9.94531l5.43359-5.43311a6.2502,6.2502,0,1,1,8.83984,8.83838L29.69849,32.14795V51.375A8.63474,8.63474,0,0,1,21.07349,60ZM6.24731,13.85986a3.248,3.248,0,0,0-2.29883,5.5459L15.009,30.46533a1.49976,1.49976,0,0,1,.43945,1.06055V51.375a5.625,5.625,0,0,0,11.25,0V31.52637a1.49976,1.49976,0,0,1,.43945-1.06055L38.19849,19.40576a3.25034,3.25034,0,1,0-4.59766-4.5957l-5.873,5.87207a1.50061,1.50061,0,0,1-1.06055.43945H15.47974a1.50061,1.50061,0,0,1-1.06055-.43945l-5.873-5.87256A3.24278,3.24278,0,0,0,6.24731,13.85986Z"/></svg>