<svg xmlns="http://www.w3.org/2000/svg" viewBox="0 0 60 60"><title>alo_icon_system_email-medium</title><path d="M29.81738,45.35059a15.74976,15.74976,0,1,1,15.75-15.74951A15.76775,15.76775,0,0,1,29.81738,45.35059Zm0-28.49951a12.74976,12.74976,0,1,0,12.75,12.75A12.76457,12.76457,0,0,0,29.81738,16.85107Z"/><path d="M44.06738,35.3125a1.50039,1.50039,0,0,1-1.5-1.5V15.35107a1.5,1.5,0,0,1,3,0V33.8125A1.50039,1.50039,0,0,1,44.06738,35.3125Z"/><path d="M30,60A30.00751,30.00751,0,0,1,18.32227,2.3584,29.99014,29.99014,0,0,1,60,30a1.5,1.5,0,0,1-3,0A27.00752,27.00752,0,0,0,5.12109,19.49121a27.0162,27.0162,0,0,0,35.38867,35.3877,1.50017,1.50017,0,1,1,1.168,2.76367A29.82929,29.82929,0,0,1,30,60Z"/><path d="M45.74512,38.835a1.49514,1.49514,0,0,1-1.06055-.43945,6.4359,6.4359,0,0,1-1.89844-4.583,1.5,1.5,0,0,1,3,0,3.46009,3.46009,0,0,0,1.01953,2.46191A1.5,1.5,0,0,1,45.74512,38.835Z"/><path d="M50.14746,40.6582a7.68222,7.68222,0,0,1-5.46289-2.26172,1.50053,1.50053,0,0,1,2.12109-2.123,4.69446,4.69446,0,0,0,3.3418,1.38477,1.5,1.5,0,0,1,0,3Z"/><path d="M50.14746,40.6582a1.5,1.5,0,0,1,0-3,6.242,6.242,0,0,0,4.44238-1.83984,1.49984,1.49984,0,1,1,2.12109,2.12109A9.2218,9.2218,0,0,1,50.14746,40.6582Z"/><path d="M55.65039,38.37891a1.5,1.5,0,0,1-1.06055-2.56055A8.17843,8.17843,0,0,0,57,30a1.5,1.5,0,0,1,3,0,11.15423,11.15423,0,0,1-3.28906,7.93945A1.49514,1.49514,0,0,1,55.65039,38.37891Z"/></svg>