<svg xmlns="http://www.w3.org/2000/svg" viewBox="0 0 50.5 60.00097"><title>alo_icon_system_position-medium</title><path d="M39.498,41.001a1.49939,1.49939,0,0,1-1.48633-1.31348l-4.75-38a1.49992,1.49992,0,0,1,2.97656-.373l4.75,38a1.49962,1.49962,0,0,1-1.30225,1.6748A1.52993,1.52993,0,0,1,39.498,41.001Z"/><path d="M11.002,41.001a1.52993,1.52993,0,0,1-.188-.01172,1.49962,1.49962,0,0,1-1.30225-1.6748l4.75-38a1.49992,1.49992,0,0,1,2.97656.373l-4.75,38A1.49939,1.49939,0,0,1,11.002,41.001Z"/><path d="M25.25,60.001a1.50007,1.50007,0,0,1-1.5-1.5v-19a1.5,1.5,0,0,1,3,0v19A1.50007,1.50007,0,0,1,25.25,60.001Z"/><path d="M39.5,3.001H11a1.5,1.5,0,0,1,0-3H39.5a1.5,1.5,0,0,1,0,3Z"/><path d="M49,41.001H1.5a1.5,1.5,0,0,1,0-3H49a1.5,1.5,0,0,1,0,3Z"/></svg>