<svg id="Elements" xmlns="http://www.w3.org/2000/svg" viewBox="0 0 75 75"><title>alo_service</title><path d="M37.5,53.5a16,16,0,1,1,16-16A16.01833,16.01833,0,0,1,37.5,53.5Zm0-30a14,14,0,1,0,14,14A14.01573,14.01573,0,0,0,37.5,23.5Z"/><path d="M43.5,37a0.99942,0.99942,0,0,1-1-1,5,5,0,0,0-10,0,1,1,0,0,1-2,0,7,7,0,0,1,14,0A0.99942,0.99942,0,0,1,43.5,37Z"/><path d="M41.25,46h-7.5A4.7554,4.7554,0,0,1,29,41.25V36a0.99942,0.99942,0,0,1,1-1H45a0.99942,0.99942,0,0,1,1,1v5.25A4.7554,4.7554,0,0,1,41.25,46ZM31,37v4.25A2.7528,2.7528,0,0,0,33.75,44h7.5A2.7528,2.7528,0,0,0,44,41.25V37H31Z"/><path d="M33,41.5a0.99676,0.99676,0,0,1-.707-0.293l-3-3A0.99989,0.99989,0,0,1,30.707,36.793l3,3A1,1,0,0,1,33,41.5Z"/><path d="M37.5,46a0.99676,0.99676,0,0,1-.707-0.293l-4.5-4.5A0.99989,0.99989,0,0,1,33.707,39.793l4.5,4.5A1,1,0,0,1,37.5,46Z"/><path d="M44.53027,44.03125a0.99676,0.99676,0,0,1-.707-0.293L41.293,41.207A0.99989,0.99989,0,0,1,42.707,39.793l2.53027,2.53125A1,1,0,0,1,44.53027,44.03125Z"/><path d="M42,41.5a0.99676,0.99676,0,0,1-.707-0.293l-4.5-4.5A0.99989,0.99989,0,0,1,38.207,35.293l4.5,4.5A1,1,0,0,1,42,41.5Z"/><path d="M30.46875,44.03125a1,1,0,0,1-.707-1.707L32.293,39.793A0.99989,0.99989,0,0,1,33.707,41.207l-2.53125,2.53125A0.99676,0.99676,0,0,1,30.46875,44.03125Z"/><path d="M33,41.5a1,1,0,0,1-.707-1.707l4.5-4.5A0.99989,0.99989,0,0,1,38.207,36.707l-4.5,4.5A0.99676,0.99676,0,0,1,33,41.5Z"/><path d="M37.5,46a1,1,0,0,1-.707-1.707l4.5-4.5A0.99989,0.99989,0,0,1,42.707,41.207l-4.5,4.5A0.99676,0.99676,0,0,1,37.5,46Z"/><path d="M42,41.5a1,1,0,0,1-.707-1.707l3-3A0.99989,0.99989,0,0,1,45.707,38.207l-3,3A0.99676,0.99676,0,0,1,42,41.5Z"/></svg>