<svg id="Elements" xmlns="http://www.w3.org/2000/svg" viewBox="0 0 75 75"><title>alo_service</title><path d="M37.5,53.5a16,16,0,1,1,16-16A16.01833,16.01833,0,0,1,37.5,53.5Zm0-30a14,14,0,1,0,14,14A14.01573,14.01573,0,0,0,37.5,23.5Z"/><path d="M40.75,35a3,3,0,1,1,3-3A3.00328,3.00328,0,0,1,40.75,35Zm0-4a1,1,0,1,0,1,1A1.0013,1.0013,0,0,0,40.75,31Z"/><path d="M34.25,35a3,3,0,1,1,3-3A3.00328,3.00328,0,0,1,34.25,35Zm0-4a1,1,0,1,0,1,1A1.0013,1.0013,0,0,0,34.25,31Z"/><path d="M40.75,46a2.878,2.878,0,0,1-2.875-2.875V40h-0.75v3.125a2.875,2.875,0,0,1-5.75,0V40H31.25a2.25,2.25,0,0,1,0-4.5h12.5a2.25,2.25,0,0,1,0,4.5H43.625v3.125A2.878,2.878,0,0,1,40.75,46Zm-4.625-8h2.75a1,1,0,0,1,1,1v4.125a0.875,0.875,0,0,0,1.75,0V39a1,1,0,0,1,1-1H43.75a0.25,0.25,0,0,0,0-.5H31.25a0.25,0.25,0,0,0,0,.5h1.125a1,1,0,0,1,1,1v4.125a0.875,0.875,0,0,0,1.75,0V39A1,1,0,0,1,36.125,38Z"/></svg>