<svg xmlns="http://www.w3.org/2000/svg" viewBox="0 0 60 60"><title>alo_icon_system_editions-medium</title><path d="M1.5,55.25A1.49976,1.49976,0,0,1,0,53.75V1.5a1.5,1.5,0,0,1,3,0V53.75A1.49976,1.49976,0,0,1,1.5,55.25Z"/><path d="M58.5,55.25a1.49976,1.49976,0,0,1-1.5-1.5V1.5a1.5,1.5,0,0,1,3,0V53.75A1.49976,1.49976,0,0,1,58.5,55.25Z"/><path d="M25.25,3H1.5a1.5,1.5,0,0,1,0-3H25.25a1.5,1.5,0,0,1,0,3Z"/><path d="M20.49951,21.999h-9.499a1.49976,1.49976,0,0,1-1.5-1.5V11a1.49976,1.49976,0,0,1,1.5-1.5h9.499a1.49976,1.49976,0,0,1,1.5,1.5v9.499A1.49976,1.49976,0,0,1,20.49951,21.999Zm-7.999-3h6.499V12.5h-6.499Z"/><path d="M15.75,36.251H11a1.5,1.5,0,0,1,0-3h4.75a1.5,1.5,0,0,1,0,3Z"/><path d="M20.5,45.75H11a1.5,1.5,0,0,1,0-3h9.5a1.5,1.5,0,0,1,0,3Z"/><path d="M48.99951,45.75h-9.499a1.49976,1.49976,0,0,1-1.5-1.5V34.751a1.49976,1.49976,0,0,1,1.5-1.5h9.499a1.49976,1.49976,0,0,1,1.5,1.5V44.25A1.49976,1.49976,0,0,1,48.99951,45.75Zm-7.999-3h6.499V36.251h-6.499Z"/><path d="M58.5,3H34.75a1.5,1.5,0,0,1,0-3H58.5a1.5,1.5,0,0,1,0,3Z"/><path d="M30,7.75a1.49976,1.49976,0,0,1-1.5-1.5A6.257,6.257,0,0,1,34.75,0a1.5,1.5,0,0,1,0,3A3.25376,3.25376,0,0,0,31.5,6.25,1.49976,1.49976,0,0,1,30,7.75Z"/><path d="M30,7.75a1.49976,1.49976,0,0,1-1.5-1.5A3.25376,3.25376,0,0,0,25.25,3a1.5,1.5,0,0,1,0-3A6.257,6.257,0,0,1,31.5,6.25,1.49976,1.49976,0,0,1,30,7.75Z"/><path d="M25.25,55.25H1.5a1.5,1.5,0,0,1,0-3H25.25a1.5,1.5,0,0,1,0,3Z"/><path d="M58.5,55.25H34.75a1.5,1.5,0,0,1,0-3H58.5a1.5,1.5,0,0,1,0,3Z"/><path d="M30,60a1.49976,1.49976,0,0,1-1.5-1.5,6.257,6.257,0,0,1,6.25-6.25,1.5,1.5,0,0,1,0,3A3.25376,3.25376,0,0,0,31.5,58.5,1.49976,1.49976,0,0,1,30,60Z"/><path d="M30,60a1.49976,1.49976,0,0,1-1.5-1.5,3.25376,3.25376,0,0,0-3.25-3.25,1.5,1.5,0,0,1,0-3A6.257,6.257,0,0,1,31.5,58.5,1.49976,1.49976,0,0,1,30,60Z"/><path d="M30,60a1.49976,1.49976,0,0,1-1.5-1.5V6.25a1.5,1.5,0,0,1,3,0V58.5A1.49976,1.49976,0,0,1,30,60Z"/><path d="M49,12.5H39.5a1.5,1.5,0,0,1,0-3H49a1.5,1.5,0,0,1,0,3Z"/><path d="M49,21.999H39.5a1.5,1.5,0,0,1,0-3H49a1.5,1.5,0,0,1,0,3Z"/></svg>