<svg xmlns="http://www.w3.org/2000/svg" viewBox="0 0 60 60"><title>alo_icon_system_journal-medium</title><path d="M49,55.25a1.49976,1.49976,0,0,1-1.5-1.5V1.5a1.5,1.5,0,0,1,3,0V53.75A1.49976,1.49976,0,0,1,49,55.25Z"/><path d="M53.75,60H6.25a1.5,1.5,0,0,1,0-3h47.5a1.5,1.5,0,0,1,0,3Z"/><path d="M34.75,12.5H29.0498a1.5,1.5,0,0,1,0-3H34.75a1.5,1.5,0,0,1,0,3Z"/><path d="M20.0249,50.5h-9.5a1.49976,1.49976,0,0,1-1.5-1.5V39.5a1.49976,1.49976,0,0,1,1.5-1.5h9.5a1.49976,1.49976,0,0,1,1.5,1.5V49A1.49976,1.49976,0,0,1,20.0249,50.5Zm-8-3h6.5V41h-6.5Z"/><path d="M20.0249,31.5h-9.5a1.49976,1.49976,0,0,1-1.5-1.5V11a1.49976,1.49976,0,0,1,1.5-1.5h9.5a1.49976,1.49976,0,0,1,1.5,1.5V30A1.49976,1.49976,0,0,1,20.0249,31.5Zm-8-3h6.5v-16h-6.5Z"/><path d="M34.75,31.5H29.0498a1.5,1.5,0,0,1,0-3H34.75a1.5,1.5,0,0,1,0,3Z"/><path d="M39.9751,22H29.0498a1.5,1.5,0,0,1,0-3H39.9751a1.5,1.5,0,0,1,0,3Z"/><path d="M39.9751,41H29.0498a1.5,1.5,0,0,1,0-3H39.9751a1.5,1.5,0,0,1,0,3Z"/><path d="M39.9751,50.5H29.0498a1.5,1.5,0,0,1,0-3H39.9751a1.5,1.5,0,0,1,0,3Z"/><path d="M49,3H1.5a1.5,1.5,0,0,1,0-3H49a1.5,1.5,0,0,1,0,3Z"/><path d="M53.75,60a6.257,6.257,0,0,1-6.25-6.25,1.5,1.5,0,0,1,3,0,3.25,3.25,0,0,0,6.5,0v-46H49a1.5,1.5,0,0,1,0-3h9.5A1.49976,1.49976,0,0,1,60,6.25v47.5A6.257,6.257,0,0,1,53.75,60Z"/><path d="M6.25,60A6.257,6.257,0,0,1,0,53.75a1.5,1.5,0,0,1,3,0A3.25376,3.25376,0,0,0,6.25,57a1.5,1.5,0,0,1,0,3Z"/><path d="M1.5,55.25A1.49976,1.49976,0,0,1,0,53.75V1.5a1.5,1.5,0,0,1,3,0V53.75A1.49976,1.49976,0,0,1,1.5,55.25Z"/></svg>