<svg id="Elements" xmlns="http://www.w3.org/2000/svg" viewBox="0 0 75 75"><title>alo_service</title><path d="M37.5,53.5a16,16,0,1,1,16-16A16.01833,16.01833,0,0,1,37.5,53.5Zm0-30a14,14,0,1,0,14,14A14.01573,14.01573,0,0,0,37.5,23.5Z"/><path d="M44.23828,46a0.99942,0.99942,0,0,1-1-1V43.75a0.24581,0.24581,0,0,0-.07324-0.17676l-4.48242-4.48242a2.25272,2.25272,0,0,1,0-3.18164L43.165,31.42676A0.24581,0.24581,0,0,0,43.23828,31.25V30a1,1,0,0,1,2,0v1.25a2.23615,2.23615,0,0,1-.65918,1.59082l-4.48242,4.48242a0.24991,0.24991,0,0,0,0,.35352l4.48242,4.48242A2.23615,2.23615,0,0,1,45.23828,43.75V45A0.99942,0.99942,0,0,1,44.23828,46Z"/><path d="M31.13184,46a0.99942,0.99942,0,0,1-1-1V43.75a2.24259,2.24259,0,0,1,.65625-1.58984l4.48438-4.4834a0.24991,0.24991,0,0,0,0-.35352L30.79,32.84082a2.24025,2.24025,0,0,1-.6582-1.59082V30a1,1,0,0,1,2,0v1.25a0.24391,0.24391,0,0,0,.07422.17773l4.48047,4.48145a2.25272,2.25272,0,0,1,0,3.18164L32.2041,43.57324a0.24543,0.24543,0,0,0-.07227.17676V45A0.99942,0.99942,0,0,1,31.13184,46Z"/><path d="M40.18457,46a0.99942,0.99942,0,0,1-1-1V43a1,1,0,0,1,2,0v2A0.99942,0.99942,0,0,1,40.18457,46Z"/><path d="M35.18457,46a0.99942,0.99942,0,0,1-1-1V43a1,1,0,0,1,2,0v2A0.99942,0.99942,0,0,1,35.18457,46Z"/><path d="M37.68457,46a0.99942,0.99942,0,0,1-1-1V41.75a1,1,0,0,1,2,0V45A0.99942,0.99942,0,0,1,37.68457,46Z"/><path d="M45.18457,31h-15a1,1,0,1,1,0-2h15A1,1,0,0,1,45.18457,31Z"/><path d="M45.18457,46h-15a1,1,0,1,1,0-2h15A1,1,0,0,1,45.18457,46Z"/></svg>