<svg xmlns="http://www.w3.org/2000/svg" viewBox="0 0 60 60"><title>alo_icon_system_editorial-medium</title><path d="M15.748,12.5a1.49991,1.49991,0,0,1-.19873-2.98633l35.1499-4.75a1.49982,1.49982,0,1,1,.40137,2.97266l-35.1499,4.75A1.4225,1.4225,0,0,1,15.748,12.5Z"/><path d="M50.90186,45.75a1.4225,1.4225,0,0,1-.20264-.01367l-35.1499-4.75a1.49982,1.49982,0,1,1,.40137-2.97266l35.1499,4.75A1.49991,1.49991,0,0,1,50.90186,45.75Z"/><path d="M36.64795,21.40625a1.49993,1.49993,0,0,1-.18408-2.98828l14.25-1.78125a1.49986,1.49986,0,1,1,.37207,2.97656l-14.25,1.78125A1.52993,1.52993,0,0,1,36.64795,21.40625Z"/><path d="M50.90186,33.875a1.52993,1.52993,0,0,1-.188-.01172l-14.25-1.78125a1.49986,1.49986,0,1,1,.37207-2.97656l14.25,1.78125a1.49993,1.49993,0,0,1-.18408,2.98828Z"/><path d="M15.75,41a15.75,15.75,0,0,1,0-31.5,1.50007,1.50007,0,0,1,1.5,1.5V39.5A1.50007,1.50007,0,0,1,15.75,41Zm-1.5-28.41211a12.75073,12.75073,0,0,0,0,25.32422Z"/><path d="M58.5,26.75H50.8999a1.5,1.5,0,0,1,0-3H58.5a1.5,1.5,0,0,1,0,3Z"/><path d="M30,60H20.5A1.50007,1.50007,0,0,1,19,58.5V40.17871a1.5,1.5,0,0,1,3,0V57h6.5V41.53613a1.5,1.5,0,0,1,3,0V58.5A1.50007,1.50007,0,0,1,30,60Z"/><path d="M50.8999,50.5a1.50007,1.50007,0,0,1-1.5-1.5V1.5a1.5,1.5,0,0,1,3,0V49A1.50007,1.50007,0,0,1,50.8999,50.5Z"/></svg>