<svg id="Elements" xmlns="http://www.w3.org/2000/svg" viewBox="0 0 75 75"><title>alo_service</title><g id="_Group_" data-name="&lt;Group&gt;"><path d="M37.50537,42.02393a4.52736,4.52736,0,0,1-1.90234-.41748,0.99973,0.99973,0,0,1,.83789-1.81543,2.5179,2.5179,0,0,0,3.3501-3.3501,0.99994,0.99994,0,0,1,1.81543-.83887A4.50978,4.50978,0,0,1,37.50537,42.02393Z"/><path d="M34.30176,39.978a0.99931,0.99931,0,0,1-.9082-0.58057,4.51762,4.51762,0,0,1,6.00439-6.00391,0.99994,0.99994,0,0,1-.83887,1.81543,2.51774,2.51774,0,0,0-3.3501,3.34961A1.00006,1.00006,0,0,1,34.30176,39.978Z"/><path d="M36.02148,41.69873a0.992,0.992,0,0,1-.41895-0.09229,4.35122,4.35122,0,0,1-2.209-2.209,0.99994,0.99994,0,1,1,1.81543-.83887A2.35582,2.35582,0,0,0,36.44141,39.791,1,1,0,0,1,36.02148,41.69873Z"/><path d="M40.69922,37.02148a1.00047,1.00047,0,0,1-.90869-0.58105,2.35494,2.35494,0,0,0-1.231-1.231,1,1,0,0,1,.83789-1.81592,4.35122,4.35122,0,0,1,2.209,2.209A1.00026,1.00026,0,0,1,40.69922,37.02148Z"/><path d="M38.97949,35.30127a0.99994,0.99994,0,0,1-.582-1.81348l6.02148-4.30127a0.99968,0.99968,0,1,1,1.16211,1.627l-6.02148,4.30176A0.9957,0.9957,0,0,1,38.97949,35.30127Z"/><path d="M40.69775,37.02148a1.0004,1.0004,0,0,1-.813-1.58105l4.30176-6.02148a0.99968,0.99968,0,1,1,1.627,1.16211l-4.30127,6.02148A0.99763,0.99763,0,0,1,40.69775,37.02148Z"/><path d="M29.999,46a1,1,0,0,1-.813-1.58105l4.30127-6.022a1.00008,1.00008,0,1,1,1.62793,1.16211l-4.30127,6.022A0.99917,0.99917,0,0,1,29.999,46Z"/><path d="M30.001,46a1,1,0,0,1-.582-1.814l6.022-4.30127A1.00008,1.00008,0,0,1,36.603,41.5127l-6.022,4.30127A0.9957,0.9957,0,0,1,30.001,46Z"/><path d="M37.5,53.5a16,16,0,1,1,16-16A16.01833,16.01833,0,0,1,37.5,53.5Zm0-30a14,14,0,1,0,14,14A14.01573,14.01573,0,0,0,37.5,23.5Z"/></g></svg>