<svg xmlns="http://www.w3.org/2000/svg" viewBox="0 0 60 60"><title>alo_icon_system_filters-medium</title><path d="M52.7998,25.7998a1.50007,1.50007,0,0,1-1.5-1.5,21.2998,21.2998,0,1,0-42.59961,0,1.5,1.5,0,0,1-3,0,24.2998,24.2998,0,1,1,48.59961,0A1.50007,1.50007,0,0,1,52.7998,25.7998Z"/><path d="M44.25,60H15.75A15.76785,15.76785,0,0,1,0,44.25V24.2998a1.50007,1.50007,0,0,1,1.5-1.5h57a1.50007,1.50007,0,0,1,1.5,1.5V44.25A15.76785,15.76785,0,0,1,44.25,60ZM3,25.7998V44.25A12.76457,12.76457,0,0,0,15.75,57h28.5A12.76457,12.76457,0,0,0,57,44.25V25.7998Z"/><path d="M12.90039,42.8999a1.49514,1.49514,0,0,1-1.06055-.43945L.43945,31.06055a1.49984,1.49984,0,0,1,2.12109-2.12109l11.40039,11.3999a1.5,1.5,0,0,1-1.06055,2.56055Z"/><path d="M30,60a1.49514,1.49514,0,0,1-1.06055-.43945L11.83984,42.46045a1.49984,1.49984,0,0,1,2.12109-2.12109l17.09961,17.1001A1.5,1.5,0,0,1,30,60Z"/><path d="M56.7168,52.51709a1.49514,1.49514,0,0,1-1.06055-.43945l-9.61719-9.61719a1.49984,1.49984,0,0,1,2.12109-2.12109l9.61719,9.61719a1.5,1.5,0,0,1-1.06055,2.56055Z"/><path d="M47.09961,42.8999a1.49514,1.49514,0,0,1-1.06055-.43945L28.93945,25.36035a1.49984,1.49984,0,0,1,2.12109-2.12109l17.09961,17.1001a1.5,1.5,0,0,1-1.06055,2.56055Z"/><path d="M3.28223,52.51709a1.5,1.5,0,0,1-1.06055-2.56055l9.61816-9.61719a1.49984,1.49984,0,0,1,2.12109,2.12109L4.34277,52.07764A1.49514,1.49514,0,0,1,3.28223,52.51709Z"/><path d="M12.90039,42.8999a1.5,1.5,0,0,1-1.06055-2.56055l17.09961-17.1001a1.49984,1.49984,0,0,1,2.12109,2.12109L13.96094,42.46045A1.49514,1.49514,0,0,1,12.90039,42.8999Z"/><path d="M30,60a1.5,1.5,0,0,1-1.06055-2.56055l17.09961-17.1001a1.49984,1.49984,0,0,1,2.12109,2.12109L31.06055,59.56055A1.49514,1.49514,0,0,1,30,60Z"/><path d="M47.09961,42.8999a1.5,1.5,0,0,1-1.06055-2.56055l11.40039-11.3999a1.49984,1.49984,0,0,1,2.12109,2.12109L48.16016,42.46045A1.49514,1.49514,0,0,1,47.09961,42.8999Z"/></svg>