<svg id="Elements" xmlns="http://www.w3.org/2000/svg" viewBox="0 0 75 75"><title>alo_service</title><path d="M37.5,53.5a16,16,0,1,1,16-16A16.01833,16.01833,0,0,1,37.5,53.5Zm0-30a14,14,0,1,0,14,14A14.01573,14.01573,0,0,0,37.5,23.5Z"/><path d="M36.14941,39.63672a2.49973,2.49973,0,0,1-1.76758-4.26758l4.03906-4.03906a4.02512,4.02512,0,1,1,5.69238,5.69238l-1.50293,1.50391a1.02932,1.02932,0,0,1-1.41406,0l-1.4502-1.4502L37.917,38.9043A2.48093,2.48093,0,0,1,36.14941,39.63672Zm5.11816-7.48633a2.013,2.013,0,0,0-1.43262.59375L35.7959,36.7832a0.49995,0.49995,0,0,0,.70605.708l2.53711-2.53613a0.99964,0.99964,0,0,1,1.41406,0l1.4502,1.4502,0.7959-.79687A2.02588,2.02588,0,0,0,41.26758,32.15039Z"/><path d="M35.20605,45.09668a2.003,2.003,0,0,1-1.41895-.58594l-2.85254-2.85352a2.00635,2.00635,0,0,1,.001-2.84082l1.7041-1.7041a0.99989,0.99989,0,0,1,1.41406,1.41406l-1.70508,1.70508L35.2002,43.0957,36.918,41.39063A0.99989,0.99989,0,0,1,38.332,42.80469L36.627,44.50977A2.00681,2.00681,0,0,1,35.20605,45.09668Z"/><path d="M40.043,45.09863a1.99036,1.99036,0,0,1-1.4209-.58984l-7.73633-7.73535a4.02547,4.02547,0,0,1,5.69336-5.69238L38.332,32.834A0.99989,0.99989,0,0,1,36.918,34.248L35.165,32.49512a2.07423,2.07423,0,0,0-2.86523,0,2.02875,2.02875,0,0,0,0,2.86426l7.7373,7.73633,2.86426-2.85254-1.70508-1.7168a0.99989,0.99989,0,0,1,1.41406-1.41406l1.70508,1.70508a2.00988,2.00988,0,0,1,0,2.83984l-2.85254,2.85254A1.98954,1.98954,0,0,1,40.043,45.09863Z"/></svg>