<svg id="Elements" xmlns="http://www.w3.org/2000/svg" viewBox="0 0 75 75"><title>alo_service</title><path d="M37.5,53.5a16,16,0,1,1,16-16A16.01833,16.01833,0,0,1,37.5,53.5Zm0-30a14,14,0,1,0,14,14A14.01573,14.01573,0,0,0,37.5,23.5Z"/><path d="M36.27588,41.9375a0.99676,0.99676,0,0,1-.707-0.293l-1.55176-1.55176a0.99989,0.99989,0,0,1,1.41406-1.41406l0.84473,0.84473,3.293-3.293a0.99989,0.99989,0,0,1,1.41406,1.41406l-4,4A0.99676,0.99676,0,0,1,36.27588,41.9375Z"/><path d="M42.5,45.5h-10a2.25277,2.25277,0,0,1-2.25-2.25v-10A2.25277,2.25277,0,0,1,32.5,31H35a1,1,0,0,1,0,2H32.5a0.25048,0.25048,0,0,0-.25.25v10a0.25048,0.25048,0,0,0,.25.25h10a0.25048,0.25048,0,0,0,.25-0.25v-10A0.25048,0.25048,0,0,0,42.5,33H40a1,1,0,0,1,0-2h2.5a2.25277,2.25277,0,0,1,2.25,2.25v10A2.25277,2.25277,0,0,1,42.5,45.5Z"/><path d="M37.5,35.5A3.5,3.5,0,1,1,41,32,3.50425,3.50425,0,0,1,37.5,35.5Zm0-5A1.5,1.5,0,1,0,39,32,1.50164,1.50164,0,0,0,37.5,30.5Z"/></svg>