<svg xmlns="http://www.w3.org/2000/svg" viewBox="0 0 60 60"><title>alo_icon_system_print-medium</title><path d="M44.25,60H1.5A1.50007,1.50007,0,0,1,0,58.5V8.625A8.63474,8.63474,0,0,1,8.625,0h42.75a1.5,1.5,0,0,1,0,3H8.625A5.63146,5.63146,0,0,0,3,8.625V57H42.75V8.625a1.5,1.5,0,0,1,3,0V58.5A1.50007,1.50007,0,0,1,44.25,60Z"/><path d="M51.375,17.25A8.625,8.625,0,1,1,60,8.625,8.63474,8.63474,0,0,1,51.375,17.25Zm0-14.25A5.625,5.625,0,1,0,57,8.625,5.63146,5.63146,0,0,0,51.375,3Z"/><path d="M33.5625,45.75H12.1875a1.5,1.5,0,0,1,0-3h21.375a1.5,1.5,0,0,1,0,3Z"/><path d="M33.5625,31.5H12.1875a1.5,1.5,0,0,1,0-3h21.375a1.5,1.5,0,0,1,0,3Z"/><path d="M33.5625,17.25H12.1875a1.5,1.5,0,0,1,0-3h21.375a1.5,1.5,0,0,1,0,3Z"/></svg>