<svg id="Elements" xmlns="http://www.w3.org/2000/svg" viewBox="0 0 75 75"><title>alo_service</title><path d="M37.5,53.5a16,16,0,1,1,16-16A16.01833,16.01833,0,0,1,37.5,53.5Zm0-30a14,14,0,1,0,14,14A14.01573,14.01573,0,0,0,37.5,23.5Z"/><path d="M37.5,45.5a7.875,7.875,0,1,1,7.875-7.875A7.8833,7.8833,0,0,1,37.5,45.5Zm0-13.75a5.875,5.875,0,1,0,5.875,5.875A5.88195,5.88195,0,0,0,37.5,31.75Z"/><path d="M37.5,31.75a0.99942,0.99942,0,0,1-1-1V29.5a1,1,0,0,1,2,0v1.25A0.99942,0.99942,0,0,1,37.5,31.75Z"/><path d="M37.5,38.625a0.99942,0.99942,0,0,1-1-1v-4.25a1,1,0,0,1,2,0v4.25A0.99942,0.99942,0,0,1,37.5,38.625Z"/><path d="M44.375,45.5a0.99676,0.99676,0,0,1-.707-0.293L41.6543,43.19336a0.99989,0.99989,0,0,1,1.41406-1.41406L45.082,43.793A1,1,0,0,1,44.375,45.5Z"/><path d="M30.625,45.5a1,1,0,0,1-.707-1.707l2.01367-2.01367a0.99989,0.99989,0,1,1,1.41406,1.41406L31.332,45.207A0.99676,0.99676,0,0,1,30.625,45.5Z"/><path d="M43.249,34.8623a1.00012,1.00012,0,0,1-.06543-1.998,0.87047,0.87047,0,1,0-.92285-0.92285,1.01292,1.01292,0,0,1-1.06445.93164,1.00009,1.00009,0,0,1-.93164-1.06445,2.87073,2.87073,0,1,1,3.05176,3.05176C43.29395,34.86133,43.27148,34.8623,43.249,34.8623Z"/><path d="M31.751,34.8623c-0.02246,0-.04492-0.001-0.06738-0.002a2.87073,2.87073,0,1,1,3.05176-3.05176,1.00009,1.00009,0,0,1-.93164,1.06445,1.01136,1.01136,0,0,1-1.06445-.93164,0.87047,0.87047,0,1,0-.92285.92285A1.00012,1.00012,0,0,1,31.751,34.8623Z"/></svg>