<svg xmlns="http://www.w3.org/2000/svg" viewBox="0 0 60 60"><title>alo_icon_system_favorite-medium</title><path d="M52.7998,60A7.15183,7.15183,0,0,1,47.709,57.8916L33.83887,44.02148a5.4486,5.4486,0,0,0-7.67773,0L12.291,57.8916A7.2002,7.2002,0,0,1,0,52.7998V1.5A1.50039,1.50039,0,0,1,1.5,0h57A1.50039,1.50039,0,0,1,60,1.5V52.7998A7.209,7.209,0,0,1,52.7998,60ZM30,39.43945a8.36959,8.36959,0,0,1,5.96094,2.46094L49.83008,55.77051A4.20052,4.20052,0,0,0,57,52.7998V3H3V52.7998a4.20052,4.20052,0,0,0,7.16992,2.9707L24.04,41.90039A8.369,8.369,0,0,1,30,39.43945Z"/><path d="M30,32.6875a1.50039,1.50039,0,0,1-1.5-1.5V9.8125a1.5,1.5,0,0,1,3,0v21.375A1.50039,1.50039,0,0,1,30,32.6875Z"/><path d="M39.25488,27.34375a1.49035,1.49035,0,0,1-.749-.20117L19.99414,16.45508a1.49982,1.49982,0,1,1,1.5-2.59766l18.51172,10.6875a1.5,1.5,0,0,1-.751,2.79883Z"/><path d="M20.74512,27.34375a1.5,1.5,0,0,1-.751-2.79883l18.51172-10.6875a1.49982,1.49982,0,0,1,1.5,2.59766L21.49414,27.14258A1.49035,1.49035,0,0,1,20.74512,27.34375Z"/></svg>