<svg xmlns="http://www.w3.org/2000/svg" viewBox="0 0 60 60"><title>alo_icon_system_cancelled-medium</title><path d="M58.5,14.40039H1.5a1.5,1.5,0,0,1,0-3h57a1.5,1.5,0,0,1,0,3Z"/><path d="M52.7998,28.65039H7.2002a1.5,1.5,0,0,1,0-3H52.7998a1.5,1.5,0,0,1,0,3Z"/><path d="M30,60a1.50039,1.50039,0,0,1-1.5-1.5V12.90039a1.5,1.5,0,1,1,3,0V58.5A1.50039,1.50039,0,0,1,30,60Z"/><path d="M18.59961,60a1.50039,1.50039,0,0,1-1.5-1.5V12.90039a1.5,1.5,0,0,1,3,0V58.5A1.50039,1.50039,0,0,1,18.59961,60Z"/><path d="M41.40039,60a1.50039,1.50039,0,0,1-1.5-1.5V12.90039a1.5,1.5,0,0,1,3,0V58.5A1.50039,1.50039,0,0,1,41.40039,60Z"/><path d="M52.7998,45.75H7.2002a1.5,1.5,0,1,1,0-3H52.7998a1.5,1.5,0,0,1,0,3Z"/><path d="M44.25,14.40039a1.50039,1.50039,0,0,1-1.5-1.5V4.34961A1.35118,1.35118,0,0,0,41.40039,3H18.59961A1.35118,1.35118,0,0,0,17.25,4.34961v8.55078a1.5,1.5,0,0,1-3,0V4.34961A4.35447,4.35447,0,0,1,18.59961,0H41.40039A4.35447,4.35447,0,0,1,45.75,4.34961v8.55078A1.50039,1.50039,0,0,1,44.25,14.40039Z"/><path d="M45.6748,60H14.3252a8.63474,8.63474,0,0,1-8.625-8.625V12.90039a1.5,1.5,0,0,1,3,0V51.375A5.63146,5.63146,0,0,0,14.3252,57H45.6748a5.63146,5.63146,0,0,0,5.625-5.625V12.90039a1.5,1.5,0,1,1,3,0V51.375A8.63474,8.63474,0,0,1,45.6748,60Z"/></svg>