<svg xmlns="http://www.w3.org/2000/svg" viewBox="0 0 60 60.00049"><title>alo_icon_system_time-medium</title><path d="M22.87549,52.87549a22.87524,22.87524,0,1,1,22.875-22.875A22.90106,22.90106,0,0,1,22.87549,52.87549Zm0-42.75049a19.87524,19.87524,0,1,0,19.875,19.87549A19.89788,19.89788,0,0,0,22.87549,10.125Z"/><path d="M58.5,31.50049H44.25049a1.5,1.5,0,0,1,0-3H58.5a1.5,1.5,0,0,1,0,3Z"/><path d="M8.626,15.60059a1.49976,1.49976,0,0,1-1.5-1.5V1.5a1.5,1.5,0,1,1,3,0V14.10059A1.49976,1.49976,0,0,1,8.626,15.60059Z"/><path d="M37.12646,15.60059a1.49976,1.49976,0,0,1-1.5-1.5V1.5a1.5,1.5,0,0,1,3,0V14.10059A1.49976,1.49976,0,0,1,37.12646,15.60059Z"/><path d="M37.12646,60.00049a1.50007,1.50007,0,0,1-1.5-1.5V45.90088a1.5,1.5,0,0,1,3,0V58.50049A1.50007,1.50007,0,0,1,37.12646,60.00049Z"/><path d="M8.626,60.00049a1.50007,1.50007,0,0,1-1.5-1.5V45.90088a1.5,1.5,0,1,1,3,0V58.50049A1.50007,1.50007,0,0,1,8.626,60.00049Z"/><path d="M22.877,31.50049a1.5,1.5,0,0,1-.75146-2.79883l12.34082-7.125a1.49982,1.49982,0,1,1,1.5,2.59766l-12.34082,7.125A1.48991,1.48991,0,0,1,22.877,31.50049Z"/><path d="M22.874,31.50049a1.49063,1.49063,0,0,1-.82861-.251l-5.93457-3.94238a1.5001,1.5001,0,0,1,1.66016-2.499L23.70557,28.751a1.5,1.5,0,0,1-.83154,2.74951Z"/></svg>