<svg id="Elements" xmlns="http://www.w3.org/2000/svg" viewBox="0 0 75 75"><title>alo_service</title><path d="M37.5,53.5a16,16,0,1,1,16-16A16.01833,16.01833,0,0,1,37.5,53.5Zm0-30a14,14,0,1,0,14,14A14.01573,14.01573,0,0,0,37.5,23.5Z"/><path d="M37.5,46A8.5,8.5,0,1,1,46,37.5,8.50982,8.50982,0,0,1,37.5,46Zm0-15A6.5,6.5,0,1,0,44,37.5,6.50753,6.50753,0,0,0,37.5,31Z"/><path d="M47.5,38.5H40a1,1,0,0,1,0-2h7.5A1,1,0,0,1,47.5,38.5Z"/><path d="M35,38.5H27.5a1,1,0,0,1,0-2H35A1,1,0,0,1,35,38.5Z"/><path d="M44.57129,45.57129a0.99676,0.99676,0,0,1-.707-0.293L38.56055,39.9751A0.99989,0.99989,0,0,1,39.97461,38.561l5.30371,5.30322A1,1,0,0,1,44.57129,45.57129Z"/><path d="M35.73242,36.73242a0.99676,0.99676,0,0,1-.707-0.293l-5.30371-5.30322a0.99989,0.99989,0,0,1,1.41406-1.41406l5.30371,5.30322A1,1,0,0,1,35.73242,36.73242Z"/><path d="M37.5,48.5a0.99974,0.99974,0,0,1-1-1V40a1,1,0,0,1,2,0v7.5A0.99974,0.99974,0,0,1,37.5,48.5Z"/><path d="M37.5,36a0.99974,0.99974,0,0,1-1-1V27.5a1,1,0,0,1,2,0V35A0.99974,0.99974,0,0,1,37.5,36Z"/><path d="M30.42871,45.57129a1,1,0,0,1-.707-1.707L35.02539,38.561a0.99989,0.99989,0,0,1,1.41406,1.41406l-5.30371,5.30322A0.99676,0.99676,0,0,1,30.42871,45.57129Z"/><path d="M39.26758,36.73242a1,1,0,0,1-.707-1.707l5.30371-5.30322a0.99989,0.99989,0,0,1,1.41406,1.41406l-5.30371,5.30322A0.99676,0.99676,0,0,1,39.26758,36.73242Z"/><path d="M40,38.5a0.99974,0.99974,0,0,1-1-1,1.49441,1.49441,0,0,0-.43945-1.061,0.99955,0.99955,0,1,1,1.41406-1.41309A3.47765,3.47765,0,0,1,41,37.5,0.99974,0.99974,0,0,1,40,38.5Z"/><path d="M37.5,41a3.47663,3.47663,0,0,1-2.47461-1.0249A0.99989,0.99989,0,0,1,36.43945,38.561,1.4903,1.4903,0,0,0,37.5,39,1,1,0,0,1,37.5,41Z"/><path d="M39.26758,40.26807a0.99951,0.99951,0,0,1-.707-1.70654A1.4947,1.4947,0,0,0,39,37.5a1,1,0,0,1,2,0,3.47878,3.47878,0,0,1-1.02539,2.47461A0.99358,0.99358,0,0,1,39.26758,40.26807Z"/><path d="M35.73242,40.26807a0.99829,0.99829,0,0,1-.707-0.29248A3.47684,3.47684,0,0,1,34,37.5a1,1,0,0,1,2,0,1.48909,1.48909,0,0,0,.43945,1.06055A1.00049,1.00049,0,0,1,35.73242,40.26807Z"/><path d="M39.26758,36.73242a0.99523,0.99523,0,0,1-.707-0.29346A1.4903,1.4903,0,0,0,37.5,36a1,1,0,0,1,0-2,3.4722,3.4722,0,0,1,2.47461,1.02588A0.99951,0.99951,0,0,1,39.26758,36.73242Z"/><path d="M35,38.5a0.99974,0.99974,0,0,1-1-1,3.47571,3.47571,0,0,1,1.02539-2.4751,1.00024,1.00024,0,0,1,1.41406,1.415A1.488,1.488,0,0,0,36,37.5,0.99974,0.99974,0,0,1,35,38.5Z"/><path d="M37.5,41a1,1,0,0,1,0-2,1.4903,1.4903,0,0,0,1.06055-.439,0.99989,0.99989,0,0,1,1.41406,1.41406A3.47663,3.47663,0,0,1,37.5,41Z"/><path d="M35.73242,36.73242a0.99951,0.99951,0,0,1-.707-1.70654A3.4722,3.4722,0,0,1,37.5,34a1,1,0,0,1,0,2,1.4903,1.4903,0,0,0-1.06055.439A0.99358,0.99358,0,0,1,35.73242,36.73242Z"/></svg>