<svg xmlns="http://www.w3.org/2000/svg" viewBox="0 0 60 60"><title>alo_icon_system_list-medium</title><path d="M58.5,25.7998H1.5a1.5,1.5,0,0,1,0-3h57a1.5,1.5,0,0,1,0,3Z"/><path d="M58.5,37.2002H1.5a1.5,1.5,0,0,1,0-3h57a1.5,1.5,0,0,1,0,3Z"/><path d="M58.5,14.3999H1.5a1.5,1.5,0,0,1,0-3h57a1.5,1.5,0,0,1,0,3Z"/><path d="M58.5,3H1.5a1.5,1.5,0,0,1,0-3h57a1.5,1.5,0,0,1,0,3Z"/><path d="M58.5,48.6001H1.5a1.5,1.5,0,0,1,0-3h57a1.5,1.5,0,0,1,0,3Z"/><path d="M58.5,60H1.5a1.5,1.5,0,0,1,0-3h57a1.5,1.5,0,0,1,0,3Z"/></svg>