<svg id="Elements" xmlns="http://www.w3.org/2000/svg" viewBox="0 0 75 75"><title>alo_service</title><path d="M37.5,53.5a16,16,0,1,1,16-16A16.01833,16.01833,0,0,1,37.5,53.5Zm0-30a14,14,0,1,0,14,14A14.01573,14.01573,0,0,0,37.5,23.5Z"/><path d="M31.18262,46a0.99791,0.99791,0,0,1-.7627-0.35352A5.94391,5.94391,0,0,1,29,41.80664a6.01458,6.01458,0,0,1,2.99707-5.1709A3.95708,3.95708,0,0,0,34,33.19336a3.89036,3.89036,0,0,0-.94531-2.5459,0.99971,0.99971,0,1,1,1.52344-1.29492A5.94219,5.94219,0,0,1,36,33.19336a6.014,6.014,0,0,1-2.99707,5.1709A3.95708,3.95708,0,0,0,31,41.80664a3.89573,3.89573,0,0,0,.94531,2.54688A1,1,0,0,1,31.18262,46Z"/><path d="M36.18262,46a0.99791,0.99791,0,0,1-.7627-0.35352A5.94391,5.94391,0,0,1,34,41.80664a6.01458,6.01458,0,0,1,2.99707-5.1709A3.95708,3.95708,0,0,0,39,33.19336a3.89036,3.89036,0,0,0-.94531-2.5459,0.99971,0.99971,0,1,1,1.52344-1.29492A5.94219,5.94219,0,0,1,41,33.19336a6.014,6.014,0,0,1-2.99707,5.1709A3.95708,3.95708,0,0,0,36,41.80664a3.89573,3.89573,0,0,0,.94531,2.54688A1,1,0,0,1,36.18262,46Z"/><path d="M41.18262,46a0.99791,0.99791,0,0,1-.7627-0.35352A5.94391,5.94391,0,0,1,39,41.80664a6.01458,6.01458,0,0,1,2.99707-5.1709A3.95708,3.95708,0,0,0,44,33.19336a3.89036,3.89036,0,0,0-.94531-2.5459,0.99971,0.99971,0,1,1,1.52344-1.29492A5.94219,5.94219,0,0,1,46,33.19336a6.014,6.014,0,0,1-2.99707,5.1709A3.95708,3.95708,0,0,0,41,41.80664a3.89573,3.89573,0,0,0,.94531,2.54688A1,1,0,0,1,41.18262,46Z"/></svg>