<svg xmlns="http://www.w3.org/2000/svg" viewBox="0 0 60 60"><title>alo_icon_system_duration-medium</title><path d="M54.90234,60a1.50039,1.50039,0,0,1-1.5-1.5V53.75a3.22313,3.22313,0,0,0-.95117-2.29687L35.41895,34.41895a6.24772,6.24772,0,0,1,0-8.83789L52.45117,8.54785A3.22705,3.22705,0,0,0,53.40234,6.25V1.5a1.5,1.5,0,0,1,3,0V6.25a6.20915,6.20915,0,0,1-1.83008,4.41992L37.54,27.70215a3.24882,3.24882,0,0,0,0,4.5957l17.03223,17.0332A6.20523,6.20523,0,0,1,56.40234,53.75V58.5A1.50039,1.50039,0,0,1,54.90234,60Z"/><path d="M5.09766,60a1.50039,1.50039,0,0,1-1.5-1.5V53.75a6.20453,6.20453,0,0,1,1.83008-4.41895l17.0332-17.0332a3.25413,3.25413,0,0,0,0-4.5957L5.42773,10.66895A6.20453,6.20453,0,0,1,3.59766,6.25V1.5a1.5,1.5,0,0,1,3,0V6.25a3.22873,3.22873,0,0,0,.95117,2.29785L24.582,25.58105a6.25658,6.25658,0,0,1,0,8.83789L7.54883,51.45215A3.22873,3.22873,0,0,0,6.59766,53.75V58.5A1.50039,1.50039,0,0,1,5.09766,60Z"/><path d="M39.5,60A1.50039,1.50039,0,0,1,38,58.5V49a1.5,1.5,0,0,1,3,0v9.5A1.50039,1.50039,0,0,1,39.5,60Z"/><path d="M20.5,60A1.50039,1.50039,0,0,1,19,58.5V49a1.5,1.5,0,0,1,3,0v9.5A1.50039,1.50039,0,0,1,20.5,60Z"/><path d="M30,60a1.50039,1.50039,0,0,1-1.5-1.5V44.25a1.5,1.5,0,0,1,3,0V58.5A1.50039,1.50039,0,0,1,30,60Z"/><path d="M58.5,3H1.5a1.5,1.5,0,0,1,0-3h57a1.5,1.5,0,0,1,0,3Z"/><path d="M58.5,60H1.5a1.5,1.5,0,0,1,0-3h57a1.5,1.5,0,0,1,0,3Z"/></svg>