<svg id="Elements" xmlns="http://www.w3.org/2000/svg" viewBox="0 0 75 75"><title>alo_service</title><path d="M37.5,53.5a16,16,0,1,1,16-16A16.01833,16.01833,0,0,1,37.5,53.5Zm0-30a14,14,0,1,0,14,14A14.01573,14.01573,0,0,0,37.5,23.5Z"/><path d="M37.5,53.5a0.99974,0.99974,0,0,1-1-1V30a1,1,0,0,1,2,0V52.5A0.99974,0.99974,0,0,1,37.5,53.5Z"/><path d="M45,38.5a0.99676,0.99676,0,0,1-.707-0.293l-6.793-6.793-6.793,6.793A0.99989,0.99989,0,0,1,29.293,36.793l7.5-7.5a0.99964,0.99964,0,0,1,1.41406,0l7.5,7.5A1,1,0,0,1,45,38.5Z"/></svg>