<svg id="Elements" xmlns="http://www.w3.org/2000/svg" viewBox="0 0 75 75"><title>alo_service</title><path d="M42.5,41a1,1,0,0,1-1-1V35a4,4,0,0,0-8,0v5a1,1,0,0,1-2,0V35a6,6,0,0,1,12,0v5A1,1,0,0,1,42.5,41Z"/><path d="M42.5,43.5h-10a2.25,2.25,0,0,1,0-4.5h10A2.25,2.25,0,0,1,42.5,43.5ZM32.5,41a0.25,0.25,0,0,0,0,.5h10a0.25,0.25,0,0,0,0-.5h-10Z"/><path d="M37.5,46a3.50445,3.50445,0,0,1-3.50049-3.50049,1,1,0,0,1,2,0,1.50049,1.50049,0,0,0,3.001,0,1,1,0,0,1,2,0A3.50445,3.50445,0,0,1,37.5,46Z"/><path d="M39.99951,36a1,1,0,0,1-1-1A1.50143,1.50143,0,0,0,37.5,33.50049a1,1,0,0,1,0-2A3.50341,3.50341,0,0,1,40.99951,35,1,1,0,0,1,39.99951,36Z"/><path d="M37.5,53.5a16,16,0,1,1,16-16A16.01833,16.01833,0,0,1,37.5,53.5Zm0-30a14,14,0,1,0,14,14A14.01573,14.01573,0,0,0,37.5,23.5Z"/></svg>