<svg id="Elements" xmlns="http://www.w3.org/2000/svg" viewBox="0 0 75 75"><title>alo_service</title><path d="M37.5,53.5a16,16,0,1,1,16-16A16.01833,16.01833,0,0,1,37.5,53.5Zm0-30a14,14,0,1,0,14,14A14.01573,14.01573,0,0,0,37.5,23.5Z"/><path d="M37.40381,45.79a8.5,8.5,0,1,1,8.5-8.5A8.50982,8.50982,0,0,1,37.40381,45.79Zm0-15a6.5,6.5,0,1,0,6.5,6.5A6.50753,6.50753,0,0,0,37.40381,30.79Z"/><path d="M44.90381,40.50684a0.99974,0.99974,0,0,1-1-1V29.79a1,1,0,1,1,2,0v9.7168A0.99974,0.99974,0,0,1,44.90381,40.50684Z"/><path d="M45.78711,42.36035a0.99482,0.99482,0,0,1-.70654-0.293A3.59424,3.59424,0,0,1,44.019,39.50684a1,1,0,0,1,2,0,1.61066,1.61066,0,0,0,.47461,1.14648A0.99951,0.99951,0,0,1,45.78711,42.36035Z"/><path d="M48.104,43.32031a4.24943,4.24943,0,0,1-3.02393-1.25293,0.99989,0.99989,0,0,1,1.41406-1.41406,2.26394,2.26394,0,0,0,1.60986.667A1,1,0,0,1,48.104,43.32031Z"/><path d="M48.104,43.32031a1,1,0,0,1,0-2,3.07676,3.07676,0,0,0,2.18945-.90723,0.99989,0.99989,0,0,1,1.41406,1.41406A5.0631,5.0631,0,0,1,48.104,43.32031Z"/><path d="M51.00049,42.12012a1.00024,1.00024,0,0,1-.70752-1.707A4.094,4.094,0,0,0,51.5,37.5a1,1,0,0,1,2,0,6.08347,6.08347,0,0,1-1.792,4.32715A0.99787,0.99787,0,0,1,51.00049,42.12012Z"/></svg>