<svg xmlns="http://www.w3.org/2000/svg" viewBox="0 0 60 60"><title>alo_icon_system_stacks-medium</title><path d="M10.0498,60a1.49514,1.49514,0,0,1-1.06055-.43945l-8.5498-8.5498a1.49984,1.49984,0,0,1,2.12109-2.12109l8.5498,8.5498A1.5,1.5,0,0,1,10.0498,60Z"/><path d="M1.5,60A1.5,1.5,0,0,1,.43945,57.43945l8.5498-8.5498a1.49984,1.49984,0,0,1,2.12109,2.12109l-8.5498,8.5498A1.49514,1.49514,0,0,1,1.5,60Z"/><path d="M32.8501,60h-14.25a1.5,1.5,0,0,1,0-3h14.25a1.5,1.5,0,0,1,0,3Z"/><path d="M47.1001,51.4502h-28.5a1.5,1.5,0,0,1,0-3h28.5a1.5,1.5,0,0,1,0,3Z"/><path d="M56.21973,42.8999H3.77979A3.78442,3.78442,0,0,1,0,39.11963V3.78027A3.78442,3.78442,0,0,1,3.77979,0H56.21973a3.78442,3.78442,0,0,1,3.77979,3.78027V39.11963A3.78442,3.78442,0,0,1,56.21973,42.8999ZM3.77979,3A.78083.78083,0,0,0,3,3.78027V39.11963a.78083.78083,0,0,0,.77979.78027H56.21973a.78083.78083,0,0,0,.77979-.78027V3.78027A.78083.78083,0,0,0,56.21973,3Z"/><path d="M24.2998,22.9502A7.2002,7.2002,0,1,1,31.5,15.75,7.20823,7.20823,0,0,1,24.2998,22.9502Zm0-11.40039A4.2002,4.2002,0,1,0,28.5,15.75,4.20463,4.20463,0,0,0,24.2998,11.5498Z"/><path d="M25.97021,42.8999a1.49514,1.49514,0,0,1-1.06055-.43945L10.05029,27.60156,2.56055,35.09131A1.49984,1.49984,0,0,1,.43945,32.97021l8.55029-8.55029a1.49945,1.49945,0,0,1,2.12109,0L27.03076,40.33936a1.5,1.5,0,0,1-1.06055,2.56055Z"/><path d="M25.97021,42.8999a1.5,1.5,0,0,1-1.06055-2.56055l23.98-23.98047a1.544,1.544,0,0,1,2.12109,0l8.5498,8.5498a1.49984,1.49984,0,1,1-2.12109,2.12109L49.9502,19.54053,27.03076,42.46045A1.49514,1.49514,0,0,1,25.97021,42.8999Z"/></svg>