<svg xmlns="http://www.w3.org/2000/svg" viewBox="0 0 60 60"><title>alo_icon_system_articles-medium</title><path d="M44.25,60H15.75A6.257,6.257,0,0,1,9.5,53.75v-19a6.257,6.257,0,0,1,6.25-6.25h28.5a6.257,6.257,0,0,1,6.25,6.25v19A6.257,6.257,0,0,1,44.25,60ZM15.75,31.5a3.25376,3.25376,0,0,0-3.25,3.25v19A3.25376,3.25376,0,0,0,15.75,57h28.5a3.25376,3.25376,0,0,0,3.25-3.25v-19a3.25376,3.25376,0,0,0-3.25-3.25Z"/><path d="M44.25,31.5H15.75a1.49976,1.49976,0,0,1-1.5-1.5V1.5A1.49976,1.49976,0,0,1,15.75,0h28.5a1.49976,1.49976,0,0,1,1.5,1.5V30A1.49976,1.49976,0,0,1,44.25,31.5Zm-27-3h25.5V3H17.25Z"/><path d="M30,11.5498H24.2998a1.5,1.5,0,0,1,0-3H30a1.5,1.5,0,0,1,0,3Z"/><path d="M35.7002,20.1001H24.2998a1.5,1.5,0,0,1,0-3H35.7002a1.5,1.5,0,0,1,0,3Z"/><path d="M58.5,41A1.49976,1.49976,0,0,1,57,39.5V30a1.5,1.5,0,0,1,3,0v9.5A1.49976,1.49976,0,0,1,58.5,41Z"/><path d="M11,36.25H1.5A1.49976,1.49976,0,0,1,0,34.75v-9.5a1.49976,1.49976,0,0,1,1.5-1.5H6.25a1.5,1.5,0,0,1,0,3H3v6.5h8a1.5,1.5,0,0,1,0,3Z"/><path d="M58.5,36.25H49a1.5,1.5,0,0,1,0-3h9.5a1.5,1.5,0,0,1,0,3Z"/><path d="M31.4248,49.0752H28.5752a1.5,1.5,0,1,1,0-3H31.4248a1.5,1.5,0,1,1,0,3Z"/><path d="M30,40.0498a1.49976,1.49976,0,0,1-1.5-1.5V30a1.5,1.5,0,0,1,3,0v8.5498A1.49976,1.49976,0,0,1,30,40.0498Z"/><path d="M38.83545,39.96338a1.50022,1.50022,0,0,1-1.48242-1.2832l-1.2373-8.46338a1.50012,1.50012,0,1,1,2.96875-.43359l1.2373,8.46338a1.49934,1.49934,0,0,1-1.48633,1.7168Z"/><path d="M21.16455,39.96338a1.49934,1.49934,0,0,1-1.48633-1.7168l1.2373-8.46338a1.50012,1.50012,0,0,1,2.96875.43359L22.647,38.68018A1.50066,1.50066,0,0,1,21.16455,39.96338Z"/><path d="M21.4502,49.0752H18.6001a1.5,1.5,0,0,1,0-3h2.8501a1.5,1.5,0,0,1,0,3Z"/><path d="M41.3999,49.0752H38.5498a1.5,1.5,0,0,1,0-3h2.8501a1.5,1.5,0,0,1,0,3Z"/></svg>