<svg xmlns="http://www.w3.org/2000/svg" viewBox="0 0 60 60"><title>alo_icon_system_stream-medium</title><path d="M37.59961,42.8999H22.40039a5.30628,5.30628,0,0,1-5.30078-5.2998V22.3999a5.30628,5.30628,0,0,1,5.30078-5.2998H37.59961a5.30628,5.30628,0,0,1,5.30078,5.2998V37.6001A5.30628,5.30628,0,0,1,37.59961,42.8999ZM22.40039,20.1001a2.303,2.303,0,0,0-2.30078,2.2998V37.6001a2.303,2.303,0,0,0,2.30078,2.2998H37.59961a2.303,2.303,0,0,0,2.30078-2.2998V22.3999a2.303,2.303,0,0,0-2.30078-2.2998Z"/><path d="M37.59961,10.6001H22.40039A5.30669,5.30669,0,0,1,17.09961,5.2998V1.5a1.5,1.5,0,0,1,3,0V5.2998A2.3031,2.3031,0,0,0,22.40039,7.6001H37.59961A2.3031,2.3031,0,0,0,39.90039,5.2998V1.5a1.5,1.5,0,0,1,3,0V5.2998A5.30669,5.30669,0,0,1,37.59961,10.6001Z"/><path d="M41.40039,60a1.50007,1.50007,0,0,1-1.5-1.5V54.7002a2.3031,2.3031,0,0,0-2.30078-2.30029H22.40039a2.3031,2.3031,0,0,0-2.30078,2.30029V58.5a1.5,1.5,0,0,1-3,0V54.7002a5.30669,5.30669,0,0,1,5.30078-5.30029H37.59961a5.30669,5.30669,0,0,1,5.30078,5.30029V58.5A1.50007,1.50007,0,0,1,41.40039,60Z"/><path d="M58.5,60H1.5A1.50007,1.50007,0,0,1,0,58.5V1.5A1.50007,1.50007,0,0,1,1.5,0h57A1.50007,1.50007,0,0,1,60,1.5v57A1.50007,1.50007,0,0,1,58.5,60ZM3,57H57V3H3Z"/><path d="M10.0498,8.7002a1.50007,1.50007,0,0,1-1.5-1.5V1.5a1.5,1.5,0,0,1,3,0V7.2002A1.50007,1.50007,0,0,1,10.0498,8.7002Z"/><path d="M10.0498,60a1.50007,1.50007,0,0,1-1.5-1.5V52.7998a1.5,1.5,0,0,1,3,0V58.5A1.50007,1.50007,0,0,1,10.0498,60Z"/><path d="M10.0498,42.8999a1.50007,1.50007,0,0,1-1.5-1.5V35.7002a1.5,1.5,0,0,1,3,0V41.3999A1.50007,1.50007,0,0,1,10.0498,42.8999Z"/><path d="M10.0498,25.7998a1.50007,1.50007,0,0,1-1.5-1.5V18.6001a1.5,1.5,0,0,1,3,0V24.2998A1.50007,1.50007,0,0,1,10.0498,25.7998Z"/><path d="M49.9502,8.7002a1.50007,1.50007,0,0,1-1.5-1.5V1.5a1.5,1.5,0,0,1,3,0V7.2002A1.50007,1.50007,0,0,1,49.9502,8.7002Z"/><path d="M49.9502,60a1.50007,1.50007,0,0,1-1.5-1.5V52.7998a1.5,1.5,0,0,1,3,0V58.5A1.50007,1.50007,0,0,1,49.9502,60Z"/><path d="M49.9502,42.8999a1.50007,1.50007,0,0,1-1.5-1.5V35.7002a1.5,1.5,0,0,1,3,0V41.3999A1.50007,1.50007,0,0,1,49.9502,42.8999Z"/><path d="M49.9502,25.7998a1.50007,1.50007,0,0,1-1.5-1.5V18.6001a1.5,1.5,0,0,1,3,0V24.2998A1.50007,1.50007,0,0,1,49.9502,25.7998Z"/><path d="M23.03516,42.8999a1.5,1.5,0,0,1-1.06055-2.56055L32.42383,29.88965a1.49945,1.49945,0,0,1,2.12109,0l7.916,7.91455a1.49984,1.49984,0,0,1-2.12109,2.12109l-6.85547-6.854L24.0957,42.46045A1.49514,1.49514,0,0,1,23.03516,42.8999Z"/><path d="M18.85449,30.0752a1.5,1.5,0,0,1,0-3,8.4846,8.4846,0,0,0,8.47559-8.4751,1.5,1.5,0,0,1,3,0A11.48788,11.48788,0,0,1,18.85449,30.0752Z"/></svg>