<svg xmlns="http://www.w3.org/2000/svg" viewBox="0 0 60 60"><title>alo_service-carpooling-medium</title><path d="M54.9375,50.5H5.0625A5.06851,5.06851,0,0,1,0,45.4375V31.90039a8.63474,8.63474,0,0,1,8.625-8.625h42.75A8.63474,8.63474,0,0,1,60,31.90039V45.4375A5.06851,5.06851,0,0,1,54.9375,50.5ZM8.625,26.27539A5.63146,5.63146,0,0,0,3,31.90039V45.4375A2.0646,2.0646,0,0,0,5.0625,47.5h49.875A2.0646,2.0646,0,0,0,57,45.4375V31.90039a5.63146,5.63146,0,0,0-5.625-5.625Z"/><path d="M51.375,26.27539a1.50007,1.50007,0,0,1-1.5-1.5,8.63474,8.63474,0,0,1,8.625-8.625,1.5,1.5,0,0,1,0,3,5.63146,5.63146,0,0,0-5.625,5.625A1.50007,1.50007,0,0,1,51.375,26.27539Z"/><path d="M8.625,26.27539a1.50007,1.50007,0,0,1-1.5-1.5,5.63146,5.63146,0,0,0-5.625-5.625,1.5,1.5,0,0,1,0-3,8.63474,8.63474,0,0,1,8.625,8.625A1.50007,1.50007,0,0,1,8.625,26.27539Z"/><path d="M47.8125,26.27539a1.50007,1.50007,0,0,1-1.5-1.5V8.625A5.63146,5.63146,0,0,0,40.6875,3H19.3125a5.63146,5.63146,0,0,0-5.625,5.625V24.77539a1.5,1.5,0,0,1-3,0V8.625A8.63474,8.63474,0,0,1,19.3125,0h21.375a8.63474,8.63474,0,0,1,8.625,8.625V24.77539A1.50007,1.50007,0,0,1,47.8125,26.27539Z"/><path d="M46.625,60a6.257,6.257,0,0,1-6.25-6.25V49a1.5,1.5,0,0,1,3,0v4.75a3.25,3.25,0,0,0,6.5,0V49a1.5,1.5,0,0,1,3,0v4.75A6.257,6.257,0,0,1,46.625,60Z"/><path d="M13.375,60a6.257,6.257,0,0,1-6.25-6.25V49a1.5,1.5,0,0,1,3,0v4.75a3.25,3.25,0,0,0,6.5,0V49a1.5,1.5,0,0,1,3,0v4.75A6.257,6.257,0,0,1,13.375,60Z"/><path d="M24.2998,26.27539a1.50007,1.50007,0,0,1-1.5-1.5v-9.5a1.5,1.5,0,0,1,3,0v9.5A1.50007,1.50007,0,0,1,24.2998,26.27539Z"/><path d="M35.7002,26.27539a1.50007,1.50007,0,0,1-1.5-1.5v-9.5a1.5,1.5,0,1,1,3,0v9.5A1.50007,1.50007,0,0,1,35.7002,26.27539Z"/><path d="M46.625,42.66211a5.7749,5.7749,0,1,1,5.7749-5.77441A5.78161,5.78161,0,0,1,46.625,42.66211Zm0-8.5498a2.7749,2.7749,0,1,0,2.7749,2.77539A2.77822,2.77822,0,0,0,46.625,34.1123Z"/><path d="M13.375,42.66211a5.7749,5.7749,0,1,1,5.7749-5.77441A5.78161,5.78161,0,0,1,13.375,42.66211Zm0-8.5498a2.7749,2.7749,0,1,0,2.7749,2.77539A2.77822,2.77822,0,0,0,13.375,34.1123Z"/></svg>