<svg xmlns="http://www.w3.org/2000/svg" viewBox="0 0 60 60"><title>alo_icon_system_reminder-medium</title><path d="M30,60A27.625,27.625,0,1,1,57.625,32.375,27.65636,27.65636,0,0,1,30,60ZM30,7.75A24.625,24.625,0,1,0,54.625,32.375,24.65308,24.65308,0,0,0,30,7.75Z"/><path d="M30,7.75a1.50039,1.50039,0,0,1-1.5-1.5V1.5a1.5,1.5,0,0,1,3,0V6.25A1.50039,1.50039,0,0,1,30,7.75Z"/><path d="M30,33.875a1.50039,1.50039,0,0,1-1.5-1.5V16.22461a1.5,1.5,0,0,1,3,0V32.375A1.50039,1.50039,0,0,1,30,33.875Z"/><path d="M56.125,60a1.49514,1.49514,0,0,1-1.06055-.43945L47.41211,51.9082a1.49984,1.49984,0,0,1,2.12109-2.12109l7.65234,7.65234A1.5,1.5,0,0,1,56.125,60Z"/><path d="M3.875,60a1.5,1.5,0,0,1-1.06055-2.56055l7.65234-7.65234a1.49984,1.49984,0,0,1,2.12109,2.12109L4.93555,59.56055A1.49514,1.49514,0,0,1,3.875,60Z"/><path d="M51.84863,19.57715A1.50022,1.50022,0,0,1,51.75,16.58008a5.60831,5.60831,0,1,0-5.95605-5.9541,1.5,1.5,0,0,1-2.99316-.20312,8.60876,8.60876,0,1,1,9.15039,9.15137Q51.8999,19.57715,51.84863,19.57715Z"/><path d="M8.15137,19.57715q-.05127,0-.10254-.00293a8.60873,8.60873,0,1,1,9.15039-9.15137,1.49845,1.49845,0,0,1-1.39453,1.59766A1.48224,1.48224,0,0,1,14.20605,10.626,5.60872,5.60872,0,1,0,8.25,16.58008a1.50022,1.50022,0,0,1-.09863,2.99707Z"/></svg>