<svg id="Elements" xmlns="http://www.w3.org/2000/svg" viewBox="0 0 75 75"><title>alo_service</title><path d="M37.5,53.5a16,16,0,1,1,16-16A16.01833,16.01833,0,0,1,37.5,53.5Zm0-30a14,14,0,1,0,14,14A14.01573,14.01573,0,0,0,37.5,23.5Z"/><path d="M43.52441,48.00537a0.99974,0.99974,0,0,1-1-1,3.07443,3.07443,0,0,0-.24219-1.20508A0.99975,0.99975,0,1,1,44.124,45.022a5.06367,5.06367,0,0,1,.40039,1.9834A0.99974,0.99974,0,0,1,43.52441,48.00537Z"/><path d="M43.2041,46.41113a0.99691,0.99691,0,0,1-.86621-0.49951,1.04272,1.04272,0,0,0-.63672-0.48828,1.00011,1.00011,0,0,1,.51563-1.93262,3.02429,3.02429,0,0,1,1.85156,1.41992A0.99934,0.99934,0,0,1,43.2041,46.41113Z"/><path d="M42.02539,51.62549a1.00024,1.00024,0,0,1-.707-1.70752,4.091,4.091,0,0,0,1.20605-2.9126,1,1,0,0,1,2,0,6.0804,6.0804,0,0,1-1.792,4.32764A0.99829,0.99829,0,0,1,42.02539,51.62549Z"/><path d="M37.5,53.5a1,1,0,0,1,0-2,5.36348,5.36348,0,0,0,3.81836-1.58154,0.99989,0.99989,0,0,1,1.41406,1.41406A7.34982,7.34982,0,0,1,37.5,53.5Z"/><path d="M41.959,45.457c-4.52832,0-12.4248-7.89648-12.4248-12.42529A4.32052,4.32052,0,0,1,30.80762,29.958V29.95752l0.94727-.94678a1.72167,1.72167,0,0,1,1.33789-.5542,1.8809,1.8809,0,0,1,1.33789.55469l3.47852,3.478a1.897,1.897,0,0,1,.001,2.67529l-0.52051.52051a3.48881,3.48881,0,0,0,1.917,1.917l0.51953-.52a1.8375,1.8375,0,0,1,1.33789-.5542,1.8809,1.8809,0,0,1,1.33789.55469l3.47852,3.478a1.897,1.897,0,0,1,.001,2.67529l-0.94824.94824A4.32069,4.32069,0,0,1,41.959,45.457Zm-9.7373-14.085a2.33334,2.33334,0,0,0-.6875,1.65967c0,3.41016,7.01465,10.42529,10.4248,10.42529a2.33279,2.33279,0,0,0,1.66016-.6875l0.87109-.87109-3.32617-3.32568-0.87109.87109a0.99988,0.99988,0,0,1-.93359.2666,5.48937,5.48937,0,0,1-4.07812-4.07861,0.999,0.999,0,0,1,.2666-0.93408l0.87109-.87061-3.32617-3.32568Zm8.86621,7.12451h0ZM33.0166,30.42529h0Z"/></svg>