<svg id="Elements" xmlns="http://www.w3.org/2000/svg" viewBox="0 0 75 75"><title>alo_service</title><path d="M36.75732,37.71387c0,2.30469-1.28857,3.76465-3.396,3.76465-2.12646,0-3.415-1.46-3.415-3.76465,0-2.31641,1.32031-3.76367,3.415-3.76367C35.4624,33.9502,36.75732,35.40332,36.75732,37.71387Zm-5.68115,0c0,1.66992.85693,2.749,2.28516,2.749,1.40283,0,2.26611-1.0791,2.26611-2.749,0-1.68164-.86963-2.748-2.26611-2.748C31.9585,34.96582,31.07617,36.03223,31.07617,37.71387Z"/><path d="M38.80762,41.30078V34.12793h1.00928l3.7832,5.1543h0.08252v-5.1543h1.07275v7.17285H43.75244l-3.7832-5.1543H39.88037v5.1543H38.80762Z"/><path d="M37.5,53.5a16,16,0,1,1,16-16A16.01833,16.01833,0,0,1,37.5,53.5Zm0-30a14,14,0,1,0,14,14A14.01573,14.01573,0,0,0,37.5,23.5Z"/></svg>