<svg id="Elements" xmlns="http://www.w3.org/2000/svg" viewBox="0 0 75 75"><title>alo_service</title><path d="M34.374,37.71387c0,2.30469-1.28857,3.76465-3.396,3.76465-2.12646,0-3.415-1.46-3.415-3.76465,0-2.31641,1.32031-3.76367,3.415-3.76367C33.0791,33.9502,34.374,35.40332,34.374,37.71387Zm-5.68115,0c0,1.66992.85693,2.749,2.28516,2.749,1.40283,0,2.26611-1.0791,2.26611-2.749,0-1.68164-.86963-2.748-2.26611-2.748C29.5752,34.96582,28.69287,36.03223,28.69287,37.71387Z"/><path d="M36.42432,41.30078V34.12793h4.55127v0.9834H37.52881v2.24121h3.15479v0.958H37.52881v2.99023H36.42432Z"/><path d="M42.95605,41.30078V34.12793h4.55127v0.9834H44.06055v2.24121h3.15479v0.958H44.06055v2.99023H42.95605Z"/><path d="M37.5,53.5a16,16,0,1,1,16-16A16.01833,16.01833,0,0,1,37.5,53.5Zm0-30a14,14,0,1,0,14,14A14.01573,14.01573,0,0,0,37.5,23.5Z"/></svg>