<svg xmlns="http://www.w3.org/2000/svg" viewBox="0 0 60 60"><title>alo_icon_system_free-medium</title><path d="M58.5,60a1.49514,1.49514,0,0,1-1.06055-.43945l-57-57A1.49984,1.49984,0,0,1,2.56055.43945l57,57A1.5,1.5,0,0,1,58.5,60Z"/><path d="M58.5,45.75H1.5A1.50007,1.50007,0,0,1,0,44.25V15.75a1.50007,1.50007,0,0,1,1.5-1.5h57a1.50007,1.50007,0,0,1,1.5,1.5v28.5A1.50007,1.50007,0,0,1,58.5,45.75ZM3,42.75H57V17.25H3Z"/><path d="M44.25,45.75a1.50007,1.50007,0,0,1-1.5-1.5A15.76785,15.76785,0,0,1,58.5,28.5a1.5,1.5,0,0,1,0,3A12.76457,12.76457,0,0,0,45.75,44.25,1.50007,1.50007,0,0,1,44.25,45.75Z"/><path d="M58.5,31.5A15.76785,15.76785,0,0,1,42.75,15.75a1.5,1.5,0,0,1,3,0A12.76457,12.76457,0,0,0,58.5,28.5a1.5,1.5,0,0,1,0,3Z"/><path d="M1.5,31.5a1.5,1.5,0,0,1,0-3A12.76457,12.76457,0,0,0,14.25,15.75a1.5,1.5,0,0,1,3,0A15.76785,15.76785,0,0,1,1.5,31.5Z"/><path d="M15.75,45.75a1.50007,1.50007,0,0,1-1.5-1.5A12.76457,12.76457,0,0,0,1.5,31.5a1.5,1.5,0,0,1,0-3A15.76785,15.76785,0,0,1,17.25,44.25,1.50007,1.50007,0,0,1,15.75,45.75Z"/><path d="M30,38.625A8.625,8.625,0,1,1,38.625,30,8.63474,8.63474,0,0,1,30,38.625Zm0-14.25A5.625,5.625,0,1,0,35.625,30,5.63146,5.63146,0,0,0,30,24.375Z"/></svg>