<svg id="Elements" xmlns="http://www.w3.org/2000/svg" viewBox="0 0 75 75"><title>alo_service</title><path d="M37.5,53.5a16,16,0,1,1,16-16A16.01833,16.01833,0,0,1,37.5,53.5Zm0-30a14,14,0,1,0,14,14A14.01573,14.01573,0,0,0,37.5,23.5Z"/><path d="M37.5,46a3,3,0,1,1,3-3A3.00328,3.00328,0,0,1,37.5,46Zm0-4a1,1,0,1,0,1,1A1.0013,1.0013,0,0,0,37.5,42Z"/><path d="M37.5,42a1,1,0,0,1-1-1V39.47363a2.58171,2.58171,0,0,1,2.5791-2.5791,2.15994,2.15994,0,0,0,2.15771-2.15771,3.73682,3.73682,0,0,0-7.47363,0,1,1,0,0,1-2,0,5.73682,5.73682,0,0,1,11.47363,0,4.16254,4.16254,0,0,1-4.15771,4.15771,0.57973,0.57973,0,0,0-.5791.5791V41A1,1,0,0,1,37.5,42Z"/></svg>