<svg id="Elements" xmlns="http://www.w3.org/2000/svg" viewBox="0 0 75 75"><title>alo_service</title><path d="M43,46H32a3.00328,3.00328,0,0,1-3-3V33.5a3.00328,3.00328,0,0,1,3-3H43a3.00328,3.00328,0,0,1,3,3V43A3.00328,3.00328,0,0,1,43,46ZM32,32.5a1.0013,1.0013,0,0,0-1,1V43a1.0013,1.0013,0,0,0,1,1H43a1.0013,1.0013,0,0,0,1-1V33.5a1.0013,1.0013,0,0,0-1-1H32Z"/><path d="M33.75293,32.5a1,1,0,0,1-1-1V30a1,1,0,0,1,2,0v1.5A1,1,0,0,1,33.75293,32.5Z"/><path d="M41.25293,32.5a1,1,0,0,1-1-1V30a1,1,0,0,1,2,0v1.5A1,1,0,0,1,41.25293,32.5Z"/><path d="M45,37H30a1,1,0,0,1,0-2H45A1,1,0,0,1,45,37Z"/><path d="M45,40H30a1,1,0,0,1,0-2H45A1,1,0,0,1,45,40Z"/><path d="M45,43H30a1,1,0,0,1,0-2H45A1,1,0,0,1,45,43Z"/><path d="M37.5,53.5a16,16,0,1,1,16-16A16.01833,16.01833,0,0,1,37.5,53.5Zm0-30a14,14,0,1,0,14,14A14.01573,14.01573,0,0,0,37.5,23.5Z"/></svg>