<svg xmlns="http://www.w3.org/2000/svg" viewBox="0 0 60 60.00156"><title>alo_icon_system_images-medium</title><path d="M52.7998,60.00156H7.2002A7.20865,7.20865,0,0,1,0,52.80136V18.60165a7.20833,7.20833,0,0,1,7.2002-7.2002H52.7998A7.20833,7.20833,0,0,1,60,18.60165V52.80136A7.20865,7.20865,0,0,1,52.7998,60.00156ZM7.2002,14.40146A4.20505,4.20505,0,0,0,3,18.60165V52.80136a4.20474,4.20474,0,0,0,4.2002,4.2002H52.7998A4.20474,4.20474,0,0,0,57,52.80136V18.60165a4.20505,4.20505,0,0,0-4.2002-4.2002Z"/><path d="M19.9248,14.40195a1.50031,1.50031,0,0,1-.75146-2.79932L37.5957.96738a7.19853,7.19853,0,0,1,9.835,2.63525l4.93555,8.54883a1.49982,1.49982,0,1,1-2.59766,1.5l-4.936-8.54883A4.1997,4.1997,0,0,0,39.0957,3.565L20.67334,14.20029A1.4905,1.4905,0,0,1,19.9248,14.40195Z"/><path d="M15.75,37.20175a7.2,7.2,0,1,1,7.2002-7.2002A7.20854,7.20854,0,0,1,15.75,37.20175Zm0-11.3999a4.2,4.2,0,1,0,4.2002,4.19971A4.20422,4.20422,0,0,0,15.75,25.80185Z"/><path d="M10.54,60.00156A1.5,1.5,0,0,1,9.47949,57.441L40.33936,26.58017a1.49945,1.49945,0,0,1,2.12109,0l17.1001,17.09912a1.49984,1.49984,0,1,1-2.12109,2.12109L41.3999,29.76181,11.60059,59.5621A1.49514,1.49514,0,0,1,10.54,60.00156Z"/></svg>