<svg xmlns="http://www.w3.org/2000/svg" viewBox="0 0 60 60"><title>alo_icon_system_expenses-medium</title><path d="M44.25,17.25a8.625,8.625,0,1,1,8.625-8.625A8.63474,8.63474,0,0,1,44.25,17.25ZM44.25,3a5.625,5.625,0,1,0,5.625,5.625A5.63146,5.63146,0,0,0,44.25,3Z"/><path d="M12.8999,21.52539a7.2002,7.2002,0,1,1,7.2002-7.2002A7.20854,7.20854,0,0,1,12.8999,21.52539Zm0-11.40039a4.2002,4.2002,0,1,0,4.2002,4.2002A4.20432,4.20432,0,0,0,12.8999,10.125Z"/><path d="M58.5,60H1.5A1.50007,1.50007,0,0,1,0,58.5V30a1.50007,1.50007,0,0,1,1.5-1.5h57A1.50007,1.50007,0,0,1,60,30V58.5A1.50007,1.50007,0,0,1,58.5,60ZM3,57H57V31.5H3Z"/><path d="M44.25,60a1.50007,1.50007,0,0,1-1.5-1.5A15.76785,15.76785,0,0,1,58.5,42.75a1.5,1.5,0,0,1,0,3A12.76457,12.76457,0,0,0,45.75,58.5,1.50007,1.50007,0,0,1,44.25,60Z"/><path d="M58.5,45.75A15.76785,15.76785,0,0,1,42.75,30a1.5,1.5,0,0,1,3,0A12.76457,12.76457,0,0,0,58.5,42.75a1.5,1.5,0,0,1,0,3Z"/><path d="M1.5,45.75a1.5,1.5,0,0,1,0-3A12.76457,12.76457,0,0,0,14.25,30a1.5,1.5,0,0,1,3,0A15.76785,15.76785,0,0,1,1.5,45.75Z"/><path d="M15.75,60a1.50007,1.50007,0,0,1-1.5-1.5A12.76457,12.76457,0,0,0,1.5,45.75a1.5,1.5,0,0,1,0-3A15.76785,15.76785,0,0,1,17.25,58.5,1.50007,1.50007,0,0,1,15.75,60Z"/><path d="M30,52.875a8.625,8.625,0,1,1,8.625-8.625A8.63474,8.63474,0,0,1,30,52.875Zm0-14.25a5.625,5.625,0,1,0,5.625,5.625A5.63146,5.63146,0,0,0,30,38.625Z"/></svg>