<svg xmlns="http://www.w3.org/2000/svg" viewBox="0 0 60 60"><title>alo_service-views-medium</title><path d="M39.5,60a11,11,0,1,1,11-11A11.01245,11.01245,0,0,1,39.5,60Zm0-19a8,8,0,1,0,8,8A8.00917,8.00917,0,0,0,39.5,41Z"/><path d="M11,60A11,11,0,1,1,22,49,11.01245,11.01245,0,0,1,11,60Zm0-19a8,8,0,1,0,8,8A8.00917,8.00917,0,0,0,11,41Z"/><path d="M30,50.5A1.50007,1.50007,0,0,1,28.5,49,3.25,3.25,0,0,0,22,49a1.5,1.5,0,0,1-3,0,6.25,6.25,0,0,1,12.5,0A1.50007,1.50007,0,0,1,30,50.5Z"/><path d="M1.5,50.5A1.50007,1.50007,0,0,1,0,49V6.25a6.25,6.25,0,0,1,12.5,0,1.5,1.5,0,0,1-3,0,3.25,3.25,0,0,0-6.5,0V49A1.50007,1.50007,0,0,1,1.5,50.5Z"/><path d="M49,50.5A1.50007,1.50007,0,0,1,47.5,49V6.25a6.25,6.25,0,0,1,12.5,0,1.5,1.5,0,0,1-3,0,3.25,3.25,0,0,0-6.5,0V49A1.50007,1.50007,0,0,1,49,50.5Z"/></svg>