<svg xmlns="http://www.w3.org/2000/svg" viewBox="0 0 60 60"><title>alo_icon_system_phone-medium</title><path d="M30,60A30.00732,30.00732,0,0,1,18.32227,2.3584,30.01659,30.01659,0,0,1,57.64258,41.67773a1.50017,1.50017,0,1,1-2.76367-1.168A27.0075,27.0075,0,0,0,5.12109,19.49121,26.991,26.991,0,0,0,30,57a1.5,1.5,0,0,1,0,3Z"/><path d="M41.44727,49.56055a1.50039,1.50039,0,0,1-1.5-1.5,6.24439,6.24439,0,0,0-.49316-2.44531,1.50017,1.50017,0,1,1,2.76367-1.168,9.22015,9.22015,0,0,1,.72949,3.61328A1.50039,1.50039,0,0,1,41.44727,49.56055Z"/><path d="M40.83691,46.53125a1.49692,1.49692,0,0,1-1.2998-.75A2.37172,2.37172,0,0,0,38.084,44.667a1.50043,1.50043,0,1,1,.77734-2.89844,5.35568,5.35568,0,0,1,3.27344,2.5127,1.50011,1.50011,0,0,1-1.29785,2.25Z"/><path d="M38.59766,56.43848a1.5,1.5,0,0,1-1.06055-2.56055,8.17618,8.17618,0,0,0,2.41016-5.81738,1.5,1.5,0,0,1,3,0A11.15366,11.15366,0,0,1,39.6582,55.999,1.49514,1.49514,0,0,1,38.59766,56.43848Z"/><path d="M30,60a1.5,1.5,0,0,1,0-3,10.58913,10.58913,0,0,0,7.53711-3.12207A1.49984,1.49984,0,0,1,39.6582,55.999,13.569,13.569,0,0,1,30,60Z"/><path d="M38.47266,44.71777c-8.33789,0-23.47852-15.14014-23.47852-23.478a7.887,7.887,0,0,1,2.32617-5.61426l1.21387-1.21387a4.08137,4.08137,0,0,1,5.76367-.00049l5.47656,5.47705a4.08048,4.08048,0,0,1,0,5.76367l-.58691.58643a7.13734,7.13734,0,0,0,4.28711,4.28613l.58594-.58594a4.07516,4.07516,0,0,1,5.76367,0L45.30078,35.415a4.08048,4.08048,0,0,1,0,5.76367l-1.21387,1.21387A7.88842,7.88842,0,0,1,38.47266,44.71777ZM21.416,16.21875a1.072,1.072,0,0,0-.76074.31445l-1.21387,1.21387a4.90517,4.90517,0,0,0-1.44727,3.49268c0,6.69824,13.78027,20.478,20.47852,20.478a4.90857,4.90857,0,0,0,3.49316-1.44629l1.21387-1.21387a1.078,1.078,0,0,0,0-1.52148l-5.47656-5.47656a1.07626,1.07626,0,0,0-1.52148,0l-1.21387,1.21387a1.50071,1.50071,0,0,1-1.39941.40039A10.13438,10.13438,0,0,1,26.03809,26.145a1.50133,1.50133,0,0,1,.40039-1.40088l1.21484-1.21387a1.07685,1.07685,0,0,0,0-1.521l-5.47656-5.47656A1.07352,1.07352,0,0,0,21.416,16.21875Z"/></svg>