<svg xmlns="http://www.w3.org/2000/svg" viewBox="0 0 60 60"><title>alo_icon_system_view-medium</title><path d="M22.875,45.75A22.87463,22.87463,0,0,1,6.7002,6.7002,22.87463,22.87463,0,1,1,39.0498,39.0498h0A22.725,22.725,0,0,1,22.875,45.75Zm0-42.75A19.87495,19.87495,0,0,0,8.82129,36.92871a19.87482,19.87482,0,0,0,28.10742,0h0A19.875,19.875,0,0,0,22.875,3Z"/><path d="M14.814,32.43555a1.49514,1.49514,0,0,1-1.06055-.43945,12.91424,12.91424,0,0,1,0-18.24316A1.49984,1.49984,0,0,1,15.87451,15.874a9.9118,9.9118,0,0,0,0,14.001A1.5,1.5,0,0,1,14.814,32.43555Z"/><path d="M48.4248,60a1.49976,1.49976,0,0,1-1.06055-.43945L31.0127,43.209a1.49984,1.49984,0,1,1,2.12109-2.12109l15.291,15.291,7.9541-7.95508-15.29053-15.291a1.49984,1.49984,0,0,1,2.12109-2.12109L59.56055,47.36328a1.49945,1.49945,0,0,1,0,2.12109L49.48535,59.56055A1.49976,1.49976,0,0,1,48.4248,60Z"/></svg>