<svg xmlns="http://www.w3.org/2000/svg" viewBox="0 0 60 60"><title>alo_icon_system_location-medium</title><path d="M8.625,60a1.50007,1.50007,0,0,1-1.5-1.5V1.5a1.5,1.5,0,0,1,3,0v57A1.50007,1.50007,0,0,1,8.625,60Z"/><path d="M15.75,60H1.5a1.5,1.5,0,0,1,0-3H15.75a1.5,1.5,0,0,1,0,3Z"/><path d="M44.25,38.625H8.625a1.50007,1.50007,0,0,1-1.5-1.5V8.625a1.49976,1.49976,0,0,1,1.5-1.5H44.25a1.49976,1.49976,0,0,1,1.06055.43945l14.25,14.25a1.49945,1.49945,0,0,1,0,2.12109l-14.25,14.25A1.49976,1.49976,0,0,1,44.25,38.625Zm-34.125-3H43.62891l12.75-12.75-12.75-12.75H10.125Z"/></svg>