<svg xmlns="http://www.w3.org/2000/svg" viewBox="0 0 60 60"><title>alo_icon_system_monthly-medium</title><path d="M7.2002,14.3999A7.2,7.2,0,1,1,14.3999,7.2002,7.20823,7.20823,0,0,1,7.2002,14.3999ZM7.2002,3A4.2,4.2,0,1,0,11.3999,7.2002,4.20505,4.20505,0,0,0,7.2002,3Z"/><path d="M7.2002,60a7.2,7.2,0,1,1,7.19971-7.2002A7.20833,7.20833,0,0,1,7.2002,60Zm0-11.3999A4.2,4.2,0,1,0,11.3999,52.7998,4.20463,4.20463,0,0,0,7.2002,48.6001Z"/><path d="M7.2002,37.2002A7.2002,7.2002,0,1,1,14.3999,30,7.20833,7.20833,0,0,1,7.2002,37.2002Zm0-11.40039A4.2002,4.2002,0,1,0,11.3999,30,4.20505,4.20505,0,0,0,7.2002,25.7998Z"/><path d="M52.7998,14.3999A7.2,7.2,0,1,1,60,7.2002,7.20813,7.20813,0,0,1,52.7998,14.3999ZM52.7998,3A4.2,4.2,0,1,0,57,7.2002,4.20463,4.20463,0,0,0,52.7998,3Z"/><path d="M52.7998,60A7.2,7.2,0,1,1,60,52.7998,7.20823,7.20823,0,0,1,52.7998,60Zm0-11.3999A4.2,4.2,0,1,0,57,52.7998,4.20422,4.20422,0,0,0,52.7998,48.6001Z"/><path d="M52.7998,37.2002A7.2002,7.2002,0,1,1,60,30,7.20823,7.20823,0,0,1,52.7998,37.2002Zm0-11.40039A4.2002,4.2002,0,1,0,57,30,4.20463,4.20463,0,0,0,52.7998,25.7998Z"/><path d="M30,14.3999A7.2,7.2,0,1,1,37.2002,7.2002,7.20823,7.20823,0,0,1,30,14.3999ZM30,3a4.2,4.2,0,1,0,4.2002,4.2002A4.20505,4.20505,0,0,0,30,3Z"/><path d="M30,60a7.2,7.2,0,1,1,7.2002-7.2002A7.20833,7.20833,0,0,1,30,60Zm0-11.3999a4.2,4.2,0,1,0,4.2002,4.19971A4.20463,4.20463,0,0,0,30,48.6001Z"/><path d="M30,37.2002A7.2002,7.2002,0,1,1,37.2002,30,7.20833,7.20833,0,0,1,30,37.2002ZM30,25.7998A4.2002,4.2002,0,1,0,34.2002,30,4.20505,4.20505,0,0,0,30,25.7998Z"/></svg>