<svg id="Elements" xmlns="http://www.w3.org/2000/svg" viewBox="0 0 75 75"><title>alo_service</title><path d="M32.875,46a1,1,0,0,1-1-1V30a1,1,0,0,1,2,0V45A1,1,0,0,1,32.875,46Z"/><path d="M34.75,46H31a1,1,0,0,1,0-2h3.75A1,1,0,0,1,34.75,46Z"/><path d="M42.25,40.375H32.875a1,1,0,0,1-1-1v-7.5a1,1,0,0,1,1-1H42.25a1.00013,1.00013,0,0,1,.707.293l3.75,3.75a0.99964,0.99964,0,0,1,0,1.41406l-3.75,3.75A1.00013,1.00013,0,0,1,42.25,40.375Zm-8.375-2h7.96094l2.75-2.75-2.75-2.75H33.875v5.5Z"/><path d="M37.5,53.5a16,16,0,1,1,16-16A16.01833,16.01833,0,0,1,37.5,53.5Zm0-30a14,14,0,1,0,14,14A14.01573,14.01573,0,0,0,37.5,23.5Z"/></svg>