<svg id="Elements" xmlns="http://www.w3.org/2000/svg" viewBox="0 0 75 75"><title>alo_service</title><path d="M37.5,44.125A6.625,6.625,0,1,1,44.125,37.5,6.63245,6.63245,0,0,1,37.5,44.125Zm0-11.25A4.625,4.625,0,1,0,42.125,37.5,4.63048,4.63048,0,0,0,37.5,32.875Z"/><path d="M46.875,38.5h-3.75a1,1,0,0,1,0-2h3.75A1,1,0,0,1,46.875,38.5Z"/><path d="M33.751,34.31592a0.99974,0.99974,0,0,1-1-1V30a1,1,0,0,1,2,0v3.31592A0.99974,0.99974,0,0,1,33.751,34.31592Z"/><path d="M41.251,34.31592a0.99974,0.99974,0,0,1-1-1V30a1,1,0,0,1,2,0v3.31592A0.99974,0.99974,0,0,1,41.251,34.31592Z"/><path d="M41.251,46a0.99974,0.99974,0,0,1-1-1V41.68408a1,1,0,0,1,2,0V45A0.99974,0.99974,0,0,1,41.251,46Z"/><path d="M33.751,46a0.99974,0.99974,0,0,1-1-1V41.68408a1,1,0,0,1,2,0V45A0.99974,0.99974,0,0,1,33.751,46Z"/><path d="M37.501,38.5A1,1,0,0,1,37,36.63379l3.248-1.875a1.00016,1.00016,0,0,1,1,1.73242L38,38.36621A0.99445,0.99445,0,0,1,37.501,38.5Z"/><path d="M37.499,38.5a0.9991,0.9991,0,0,1-.55273-0.167l-1.56152-1.0376a1.00025,1.00025,0,0,1,1.10742-1.666l1.56152,1.0376A1.00017,1.00017,0,0,1,37.499,38.5Z"/><path d="M37.5,53.5a16,16,0,1,1,16-16A16.01833,16.01833,0,0,1,37.5,53.5Zm0-30a14,14,0,1,0,14,14A14.01573,14.01573,0,0,0,37.5,23.5Z"/></svg>