<svg xmlns="http://www.w3.org/2000/svg" viewBox="0 0 60 60"><title>alo_icon_system_photo-medium</title><path d="M51.375,60H8.625A8.63474,8.63474,0,0,1,0,51.375v-19A8.63474,8.63474,0,0,1,8.625,23.75h42.75A8.63474,8.63474,0,0,1,60,32.375v19A8.63474,8.63474,0,0,1,51.375,60ZM8.625,26.75A5.63146,5.63146,0,0,0,3,32.375v19A5.63146,5.63146,0,0,0,8.625,57h42.75A5.63146,5.63146,0,0,0,57,51.375v-19a5.63146,5.63146,0,0,0-5.625-5.625Z"/><path d="M30,52.875a11,11,0,1,1,11-11A11.01245,11.01245,0,0,1,30,52.875Zm0-19a8,8,0,1,0,8,8A8.00917,8.00917,0,0,0,30,33.875Z"/><path d="M39.5,17.25h-19a1.49976,1.49976,0,0,1-1.5-1.5V1.5A1.49976,1.49976,0,0,1,20.5,0h19A1.49976,1.49976,0,0,1,41,1.5V15.75A1.49976,1.49976,0,0,1,39.5,17.25Zm-17.5-3H38V3H22Z"/><path d="M30,26.75a1.49976,1.49976,0,0,1-1.5-1.5v-9.5a1.5,1.5,0,0,1,3,0v9.5A1.49976,1.49976,0,0,1,30,26.75Z"/></svg>