<svg id="Elements" xmlns="http://www.w3.org/2000/svg" viewBox="0 0 75 75"><title>alo_service</title><g id="_Group_" data-name="&lt;Group&gt;"><g id="_Group_2" data-name="&lt;Group&gt;"><path d="M41.64453,45.5H31.10547a0.99974,0.99974,0,0,1-1-1V30.65381a0.99974,0.99974,0,0,1,1-1h4.53906a1,1,0,0,1,0,2H32.10547V43.5h8.53906V31.65381h-2a1,1,0,0,1,0-2h3a0.99974,0.99974,0,0,1,1,1V44.5A0.99974,0.99974,0,0,1,41.64453,45.5Z"/><path d="M38.64453,40.5h-3a0.99974,0.99974,0,0,1-1-1v-10a0.99974,0.99974,0,0,1,1-1h3a0.99974,0.99974,0,0,1,1,1v10A0.99974,0.99974,0,0,1,38.64453,40.5Zm-2-2h1v-8h-1v8Z"/><path d="M44.89453,38.57666h-3.25a0.99974,0.99974,0,0,1-1-1V32.96143a0.99974,0.99974,0,0,1,1-1h3.25a0.99974,0.99974,0,0,1,1,1v4.61523A0.99974,0.99974,0,0,1,44.89453,38.57666Zm-2.25-2h1.25V33.96143h-1.25v2.61523Z"/><path d="M44.89453,43.19141h-3.25a0.99974,0.99974,0,0,1-1-1V37.57666a0.99974,0.99974,0,0,1,1-1h3.25a0.99974,0.99974,0,0,1,1,1v4.61475A0.99974,0.99974,0,0,1,44.89453,43.19141Zm-2.25-2h1.25V38.57666h-1.25v2.61475Z"/></g><path d="M37.5,53.5a16,16,0,1,1,16-16A16.01833,16.01833,0,0,1,37.5,53.5Zm0-30a14,14,0,1,0,14,14A14.01573,14.01573,0,0,0,37.5,23.5Z"/></g></svg>