<svg id="Elements" xmlns="http://www.w3.org/2000/svg" viewBox="0 0 75 75"><title>alo_service</title><path d="M37.5,53.5a16,16,0,1,1,16-16A16.01833,16.01833,0,0,1,37.5,53.5Zm0-30a14,14,0,1,0,14,14A14.01573,14.01573,0,0,0,37.5,23.5Z"/><path d="M43.75,46H31.25a0.99942,0.99942,0,0,1-1-1V30a0.99974,0.99974,0,0,1,1-1h12.5a0.99974,0.99974,0,0,1,1,1V45A0.99942,0.99942,0,0,1,43.75,46Zm-11.5-2h10.5V31H32.25V44Z"/><path d="M40,38.5H35a1,1,0,0,1,0-2h5A1,1,0,0,1,40,38.5Z"/><path d="M40,42.5H35a1,1,0,0,1,0-2h5A1,1,0,0,1,40,42.5Z"/><path d="M40,34.5H35a1,1,0,0,1,0-2h5A1,1,0,0,1,40,34.5Z"/></svg>