<svg xmlns="http://www.w3.org/2000/svg" viewBox="0 0 60 60"><title>alo_icon_system_join-medium</title><path d="M39.5,12.5a6.25,6.25,0,1,1,6.25-6.25A6.257,6.257,0,0,1,39.5,12.5Zm0-9.5a3.25,3.25,0,1,0,3.25,3.25A3.25376,3.25376,0,0,0,39.5,3Z"/><path d="M20.5,12.5a6.25,6.25,0,1,1,6.25-6.25A6.257,6.257,0,0,1,20.5,12.5Zm0-9.5a3.25,3.25,0,1,0,3.25,3.25A3.25376,3.25376,0,0,0,20.5,3Z"/><path d="M42.34961,60a8.63474,8.63474,0,0,1-8.625-8.625V29.59961h-7.4502V51.375a8.625,8.625,0,1,1-17.25,0V29.59961H6.25a6.25,6.25,0,0,1,0-12.5h47.5a6.25,6.25,0,0,1,0,12.5H50.97461V51.375A8.63474,8.63474,0,0,1,42.34961,60ZM24.77441,26.59961h10.4502a1.50039,1.50039,0,0,1,1.5,1.5V51.375a5.625,5.625,0,0,0,11.25,0V28.09961a1.50039,1.50039,0,0,1,1.5-1.5H53.75a3.25,3.25,0,0,0,0-6.5H6.25a3.25,3.25,0,0,0,0,6.5h4.27441a1.50039,1.50039,0,0,1,1.5,1.5V51.375a5.625,5.625,0,0,0,11.25,0V28.09961A1.50039,1.50039,0,0,1,24.77441,26.59961Z"/></svg>