<svg id="Elements" xmlns="http://www.w3.org/2000/svg" viewBox="0 0 75 75"><title>alo_service</title><path d="M37.5,53.5a16,16,0,1,1,16-16A16.01833,16.01833,0,0,1,37.5,53.5Zm0-30a14,14,0,1,0,14,14A14.01573,14.01573,0,0,0,37.5,23.5Z"/><path d="M23.57471,44.04492a0.99991,0.99991,0,0,1-.32568-1.94531,10.47761,10.47761,0,0,0,7.07422-9.894,10.35336,10.35336,0,0,0-2.19092-6.38281,1,1,0,0,1,1.582-1.22363,12.33463,12.33463,0,0,1,2.60889,7.60645,12.477,12.477,0,0,1-8.42285,11.78467A1,1,0,0,1,23.57471,44.04492Z"/><path d="M28.67627,32.32324a15.97571,15.97571,0,0,1-4.79785-.73633A1,1,0,1,1,24.479,29.6792,13.98025,13.98025,0,0,0,41.10889,22.731a1,1,0,0,1,1.77637.91895A15.9557,15.9557,0,0,1,28.67627,32.32324Z"/><path d="M38.14014,53.46777a0.97863,0.97863,0,0,1-.17529-0.01562,0.99931,0.99931,0,0,1-.81055-1.1582,13.53945,13.53945,0,0,0-.3374-6.34668,0.99977,0.99977,0,1,1,1.91992-.55859A15.53452,15.53452,0,0,1,39.124,52.6416,1.00044,1.00044,0,0,1,38.14014,53.46777Z"/><path d="M36.41846,43.459a1.0009,1.0009,0,0,1-.87012-0.50488,14.0425,14.0425,0,0,0-12.166-7.10107c-0.10986,0-.21826.0083-0.32666,0.01563l-0.271.01563a0.99987,0.99987,0,1,1-.082-1.998l0.21729-.01318c0.15332-.01025.30664-0.02,0.4624-0.02a16.04667,16.04667,0,0,1,13.9043,8.11084A1.00017,1.00017,0,0,1,36.41846,43.459Z"/><path d="M47.09766,50.01465a0.99608,0.99608,0,0,1-.75732-0.34668,18.64186,18.64186,0,0,1-4.5332-11.87256,1.00017,1.00017,0,0,1,.98438-1.01562,1.03343,1.03343,0,0,1,1.01563.98438A16.64272,16.64272,0,0,0,47.854,48.36133,0.99975,0.99975,0,0,1,47.09766,50.01465Z"/><path d="M44.09082,31.91162a1.00127,1.00127,0,0,1-.92578-1.377,18.73469,18.73469,0,0,1,3.17529-5.20361A1.00013,1.00013,0,1,1,47.854,26.63867a16.73111,16.73111,0,0,0-2.83643,4.64893A0.99978,0.99978,0,0,1,44.09082,31.91162Z"/><path d="M37.20166,46.78418a2.75205,2.75205,0,0,1-1.23486-5.21777,0.99991,0.99991,0,0,1,.90137,1.78516,0.75234,0.75234,0,0,0,.3335,1.43262,0.92471,0.92471,0,0,0,.24707-0.06055A0.99972,0.99972,0,1,1,38.105,46.6123,2.7138,2.7138,0,0,1,37.20166,46.78418Z"/><path d="M37.77734,46.668a1.00011,1.00011,0,0,1-.32959-1.94434,0.74581,0.74581,0,0,0,.51855-0.7041,0.76551,0.76551,0,0,0-.76465-0.76465,0.7492,0.7492,0,0,0-.332.0957,0.9997,0.9997,0,1,1-.9043-1.7832,2.72357,2.72357,0,0,1,1.23633-.3125,2.7533,2.7533,0,0,1,.90527,5.35742A0.99855,0.99855,0,0,1,37.77734,46.668Z"/><path d="M42.80762,38.78027c-0.02686,0-.0542-0.002-0.08154-0.00391a4.52041,4.52041,0,0,1,.36426-9.02686,4.47018,4.47018,0,0,1,1.28662.20313,1.00015,1.00015,0,1,1-.57129,1.917,2.47638,2.47638,0,0,0-.71533-0.12012,2.53243,2.53243,0,0,0-2.52979,2.5293,2.50437,2.50437,0,0,0,2.32666,2.50439A1.00018,1.00018,0,0,1,42.80762,38.78027Z"/><path d="M43.09033,38.80762a2.31441,2.31441,0,0,1-.30908-0.02441,1.02533,1.02533,0,0,1-.94287-1.08154,0.98127,0.98127,0,0,1,1.05029-.91846l0.16113,0.01855H43.062a2.53132,2.53132,0,0,0,2.55762-2.52295,2.50493,2.50493,0,0,0-1.81348-2.40918,1,1,0,0,1,.57031-1.917A4.51947,4.51947,0,0,1,43.09033,38.80762Z"/></svg>