<svg xmlns="http://www.w3.org/2000/svg" viewBox="0 0 60 60"><title>alo_icon_system_new-medium</title><path d="M53.75,40.998a1.50007,1.50007,0,0,1-1.5-1.5V25.25a22.25,22.25,0,0,0-44.5,0V39.498a1.5,1.5,0,0,1-3,0V25.25a25.25,25.25,0,0,1,50.5,0V39.498A1.50007,1.50007,0,0,1,53.75,40.998Z"/><path d="M44.25,26.75a1.50007,1.50007,0,0,1-1.5-1.5A12.76457,12.76457,0,0,0,30,12.5a1.5,1.5,0,0,1,0-3A15.76785,15.76785,0,0,1,45.75,25.25,1.50007,1.50007,0,0,1,44.25,26.75Z"/><path d="M53.75,50.498H6.25a6.25,6.25,0,0,1,0-12.5h47.5a6.25,6.25,0,0,1,0,12.5Zm-47.5-9.5a3.25,3.25,0,0,0,0,6.5h47.5a3.25,3.25,0,0,0,0-6.5Z"/><path d="M30,60A11.01453,11.01453,0,0,1,18.998,48.998a1.5,1.5,0,0,1,3,0,8.002,8.002,0,0,0,16.00391,0,1.5,1.5,0,0,1,3,0A11.01453,11.01453,0,0,1,30,60Z"/></svg>