<svg xmlns="http://www.w3.org/2000/svg" viewBox="0 0 60 60"><title>alo_icon_system_calendar-medium</title><path d="M52.7998,60H7.2002A7.20833,7.20833,0,0,1,0,52.7998V12.8999A7.20823,7.20823,0,0,1,7.2002,5.7002H52.7998A7.20823,7.20823,0,0,1,60,12.8999V52.7998A7.20833,7.20833,0,0,1,52.7998,60ZM7.2002,8.7002A4.20463,4.20463,0,0,0,3,12.8999V52.7998A4.20505,4.20505,0,0,0,7.2002,57H52.7998A4.20505,4.20505,0,0,0,57,52.7998V12.8999A4.20463,4.20463,0,0,0,52.7998,8.7002Z"/><path d="M15.76123,8.7002a1.49976,1.49976,0,0,1-1.5-1.5V1.5a1.5,1.5,0,0,1,3,0V7.2002A1.49976,1.49976,0,0,1,15.76123,8.7002Z"/><path d="M44.26123,8.7002a1.49976,1.49976,0,0,1-1.5-1.5V1.5a1.5,1.5,0,0,1,3,0V7.2002A1.49976,1.49976,0,0,1,44.26123,8.7002Z"/><path d="M58.5,25.7998H1.5a1.5,1.5,0,0,1,0-3h57a1.5,1.5,0,0,1,0,3Z"/><path d="M58.5,37.2002H1.5a1.5,1.5,0,0,1,0-3h57a1.5,1.5,0,0,1,0,3Z"/><path d="M58.5,48.6001H1.5a1.5,1.5,0,0,1,0-3h57a1.5,1.5,0,0,1,0,3Z"/></svg>