<svg xmlns="http://www.w3.org/2000/svg" viewBox="0 0 39 60"><title>alo_icon_system_help-medium</title><path d="M25.5,33a1.5,1.5,0,0,1,0-3A10.5118,10.5118,0,0,0,36,19.5a1.5,1.5,0,0,1,3,0A13.51508,13.51508,0,0,1,25.5,33Z"/><path d="M37.5,21A1.50007,1.50007,0,0,1,36,19.5a16.5,16.5,0,0,0-33,0,1.5,1.5,0,0,1-3,0,19.5,19.5,0,0,1,39,0A1.50007,1.50007,0,0,1,37.5,21Z"/><path d="M19.5,40.72461a1.50039,1.50039,0,0,1-1.5-1.5V37.5A7.5082,7.5082,0,0,1,25.5,30a1.5,1.5,0,0,1,0,3A4.50492,4.50492,0,0,0,21,37.5v1.72461A1.50039,1.50039,0,0,1,19.5,40.72461Z"/><path d="M19.5,60a7.2002,7.2002,0,1,1,7.2002-7.2002A7.209,7.209,0,0,1,19.5,60Zm0-11.40039a4.2002,4.2002,0,1,0,4.2002,4.2002A4.20442,4.20442,0,0,0,19.5,48.59961Z"/></svg>