<svg xmlns="http://www.w3.org/2000/svg" viewBox="0 0 60 60"><title>alo_icon_system_settings-medium</title><path d="M40.25488,41.75488a1.49514,1.49514,0,0,1-1.06055-.43945L18.68457,20.80518a1.49984,1.49984,0,0,1,2.12109-2.12109L41.31543,39.19434a1.5,1.5,0,0,1-1.06055,2.56055Z"/><path d="M23.73926,37.76074a1.5,1.5,0,0,1-1.06055-2.56055L43.18945,14.68945a1.49984,1.49984,0,0,1,2.12109,2.12109L24.7998,37.32129A1.49514,1.49514,0,0,1,23.73926,37.76074Z"/><path d="M12.1875,24.375A12.1875,12.1875,0,1,1,24.375,12.1875,12.20161,12.20161,0,0,1,12.1875,24.375Zm0-21.375a9.1875,9.1875,0,1,0,9.1875,9.1875A9.1977,9.1977,0,0,0,12.1875,3Z"/><path d="M40.25488,56.86963a1.49514,1.49514,0,0,1-1.06055-.43945A12.18741,12.18741,0,0,1,56.42969,39.19434a1.49984,1.49984,0,0,1-2.12109,2.12109A9.18773,9.18773,0,0,0,41.31543,54.30908a1.5,1.5,0,0,1-1.06055,2.56055Z"/><path d="M58.5,44.88525a1.49514,1.49514,0,0,1-1.06055-.43945l-3.13086-3.13037a1.49984,1.49984,0,0,1,2.12109-2.12109l3.13086,3.13037A1.5,1.5,0,0,1,58.5,44.88525Z"/><path d="M43.38574,60a1.49514,1.49514,0,0,1-1.06055-.43945l-3.12988-3.13086a1.49984,1.49984,0,1,1,2.12109-2.12109l3.12988,3.13086A1.49976,1.49976,0,0,1,43.38574,60Z"/><path d="M58.5,17.25H44.25a1.50007,1.50007,0,0,1-1.5-1.5V1.5A1.50007,1.50007,0,0,1,44.25,0H58.5A1.50007,1.50007,0,0,1,60,1.5V15.75A1.50007,1.50007,0,0,1,58.5,17.25Zm-12.75-3H57V3H45.75Z"/><path d="M8.625,60A8.625,8.625,0,0,1,2.52637,45.27637L12.60254,35.2002A8.62477,8.62477,0,1,1,24.7998,47.39746L14.72363,57.47363A8.56683,8.56683,0,0,1,8.625,60ZM18.70117,35.67676a5.60708,5.60708,0,0,0-3.97754,1.64453L4.64746,47.39746a5.62509,5.62509,0,0,0,7.95508,7.95508L22.67871,45.27637a5.62207,5.62207,0,0,0-3.97754-9.59961Z"/></svg>