<svg xmlns="http://www.w3.org/2000/svg" viewBox="0 0 60 60"><title>alo_icon_system_weekly-medium</title><path d="M58.5,8.7002H28.5752a1.5,1.5,0,0,1,0-3H58.5a1.5,1.5,0,0,1,0,3Z"/><path d="M7.2002,14.3999a7.2,7.2,0,1,1,7.2002-7.19971A7.20854,7.20854,0,0,1,7.2002,14.3999ZM7.2002,3a4.2,4.2,0,1,0,4.2002,4.2002A4.20474,4.20474,0,0,0,7.2002,3Z"/><path d="M58.5,54.2998H28.5752a1.5,1.5,0,1,1,0-3H58.5a1.5,1.5,0,0,1,0,3Z"/><path d="M7.2002,60a7.2,7.2,0,1,1,7.2002-7.2002A7.20865,7.20865,0,0,1,7.2002,60Zm0-11.3999a4.2,4.2,0,1,0,4.2002,4.19971A4.20432,4.20432,0,0,0,7.2002,48.6001Z"/><path d="M58.5,31.5H28.5752a1.5,1.5,0,1,1,0-3H58.5a1.5,1.5,0,0,1,0,3Z"/><path d="M7.2002,37.2002A7.2002,7.2002,0,1,1,14.40039,30,7.20865,7.20865,0,0,1,7.2002,37.2002Zm0-11.40039A4.2002,4.2002,0,1,0,11.40039,30,4.20474,4.20474,0,0,0,7.2002,25.7998Z"/></svg>