<svg xmlns="http://www.w3.org/2000/svg" viewBox="0 0 56.24099 59.99941"><title>alo_icon_system_host-medium</title><path d="M28.12266,59.99941A37.07532,37.07532,0,0,1,.381,47.45741,1.50022,1.50022,0,1,1,2.628,45.46913a33.95077,33.95077,0,0,0,50.98926,0,1.50022,1.50022,0,0,1,2.24707,1.98828A37.08077,37.08077,0,0,1,28.12266,59.99941Z"/><path d="M28.24864,33.8578h-.252a11.57832,11.57832,0,0,1-8.80518-3.6333c-4.68652-5.18066-4.30078-14.13525-4.07129-16.75732v-.06934C15.70469.65859,25.63243.017,27.6168.017h.45557a12.41121,12.41121,0,0,1,8.69238,2.94727c2.61279,2.32959,4.03711,5.81787,4.23291,10.36914l.00146.19141H40.9625c.63135,3.12939.21143,11.9126-3.86572,16.65137A11.09605,11.09605,0,0,1,28.24864,33.8578ZM27.6168,3.017c-8.36719,0-9.38525,7.99854-9.498,10.44971l.00146.05811c0,.04346-.00781.16064-.01172.2041-.144,1.64844-.66357,10.09326,3.28955,14.46289a8.56445,8.56445,0,0,0,6.59863,2.666h.252a8.15128,8.15128,0,0,0,6.58643-2.65234c3.875-4.50439,3.439-12.93457,3.22217-14.26709a1.5056,1.5056,0,0,1-.05811-.41357v-.127c-.1582-3.646-1.24561-6.4248-3.23047-8.19434a9.47094,9.47094,0,0,0-6.53857-2.19043c-.03564.00244-.07178.00391-.10742.00391Z"/><path d="M17.0001,37.62636a1.49995,1.49995,0,0,1-.97656-2.63867,15.895,15.895,0,0,0,4.3457-5.12109,1.49977,1.49977,0,0,1,2.74121,1.21777A18.62512,18.62512,0,0,1,17.97569,37.265,1.491,1.491,0,0,1,17.0001,37.62636Z"/><path d="M39.24522,37.62636a1.491,1.491,0,0,1-.97559-.36133,18.71323,18.71323,0,0,1-5.11328-6.13672,1.5,1.5,0,1,1,2.73535-1.23193,15.95179,15.95179,0,0,0,4.33008,5.09033,1.50045,1.50045,0,0,1-.97656,2.63965Z"/><path d="M54.73789,47.9828a1.48022,1.48022,0,0,1-1.48828-1.36523l2.98682-.26953A1.51587,1.51587,0,0,1,54.858,47.97792C54.818,47.98183,54.77793,47.9828,54.73789,47.9828Z"/><path d="M1.506,47.96327c-.03906,0-.07812-.001-.11768-.00488A1.49918,1.49918,0,0,1,.00889,46.34706c.40771-5.23926,2.95752-6.90723,5.0249-7.38477A46.05918,46.05918,0,0,0,16.28086,34.81a1.50153,1.50153,0,0,1,1.97363.49414,11.8821,11.8821,0,0,0,19.73633,0A1.5008,1.5008,0,0,1,39.964,34.81a46.18744,46.18744,0,0,0,11.26611,4.15723c2.04883.47266,4.59863,2.14063,5.00635,7.37988a1.50011,1.50011,0,0,1-2.99121.23242c-.21387-2.749-1.125-4.32812-2.70752-4.69336A51.07418,51.07418,0,0,1,39.69883,38.056a14.912,14.912,0,0,1-23.15186,0,50.974,50.974,0,0,1-10.8208,3.8252C4.1251,42.25136,3.214,43.83046,3.0001,46.57948A1.50067,1.50067,0,0,1,1.506,47.96327Z"/><path d="M1.50059,47.99257c-.05078,0-.10205-.00293-.15332-.00781A1.49226,1.49226,0,0,1,.0045,46.3871a1.51876,1.51876,0,0,1,1.61279-1.39941A1.48354,1.48354,0,0,1,3.0001,46.57851c-.002.02539-.00684.07129-.01025.09668A1.51006,1.51006,0,0,1,1.50059,47.99257Z"/></svg>