<svg xmlns="http://www.w3.org/2000/svg" viewBox="0 0 60 60"><title>alo_icon_system_upcoming-medium</title><path d="M58.5,29.125H34.75a1.5,1.5,0,0,1,0-3H58.5a1.5,1.5,0,0,1,0,3Z"/><path d="M30,24.375a1.49976,1.49976,0,0,1-1.5-1.5V8.625a1.5,1.5,0,0,1,3,0v14.25A1.49976,1.49976,0,0,1,30,24.375Z"/><path d="M44.25,29.125a1.49976,1.49976,0,0,1-1.5-1.5V3.875a1.5,1.5,0,0,1,3,0v23.75A1.49976,1.49976,0,0,1,44.25,29.125Z"/><path d="M15.75,17.25H1.5a1.5,1.5,0,0,1,0-3H15.75a1.5,1.5,0,0,1,0,3Z"/><path d="M1.5,24.375a1.49976,1.49976,0,0,1-1.5-1.5V8.625a1.5,1.5,0,0,1,3,0v14.25A1.49976,1.49976,0,0,1,1.5,24.375Z"/><path d="M15.75,24.375a1.49976,1.49976,0,0,1-1.5-1.5V8.625a1.5,1.5,0,0,1,3,0v14.25A1.49976,1.49976,0,0,1,15.75,24.375Z"/><path d="M30,24.375H15.75a1.5,1.5,0,0,1,0-3H30a1.5,1.5,0,0,1,0,3Z"/><path d="M30,10.125H15.75a1.5,1.5,0,0,1,0-3H30a1.5,1.5,0,0,1,0,3Z"/><path d="M58.5,31.5A1.49976,1.49976,0,0,1,57,30V1.5a1.5,1.5,0,0,1,3,0V30A1.49976,1.49976,0,0,1,58.5,31.5Z"/><path d="M34.75,29.125a6.257,6.257,0,0,1-6.25-6.25,1.5,1.5,0,0,1,3,0,3.25376,3.25376,0,0,0,3.25,3.25,1.5,1.5,0,0,1,0,3Z"/><path d="M58.5,5.375H34.75a1.5,1.5,0,0,1,0-3H58.5a1.5,1.5,0,0,1,0,3Z"/><path d="M30,10.125a1.49976,1.49976,0,0,1-1.5-1.5,6.257,6.257,0,0,1,6.25-6.25,1.5,1.5,0,0,1,0,3,3.25376,3.25376,0,0,0-3.25,3.25A1.49976,1.49976,0,0,1,30,10.125Z"/><path d="M22.875,60a1.49976,1.49976,0,0,1-1.5-1.5V22.875a1.5,1.5,0,0,1,3,0V58.5A1.49976,1.49976,0,0,1,22.875,60Z"/><path d="M41.87646,60a1.49831,1.49831,0,0,1-1.24951-.668l-19-28.5A1.5,1.5,0,0,1,24.123,29.168l19,28.5A1.5,1.5,0,0,1,41.87646,60Z"/><path d="M3.87354,60A1.5,1.5,0,0,1,2.627,57.668l19-28.5A1.5,1.5,0,0,1,24.123,30.832l-19,28.5A1.49831,1.49831,0,0,1,3.87354,60Z"/></svg>