<svg xmlns="http://www.w3.org/2000/svg" viewBox="0 0 60 53.14844"><title>alo_icon_system_meet-medium</title><path d="M46.73242,31.97559a1.49976,1.49976,0,0,1-1.06055-.43945L36.1626,22.02637l-5.73877,5.73926a5.5222,5.5222,0,1,1-7.80957-7.80957L37.814,4.75586A12.996,12.996,0,1,1,56.19336,23.13477L47.793,31.53613A1.49976,1.49976,0,0,1,46.73242,31.97559ZM36.1626,18.40527a1.49976,1.49976,0,0,1,1.06055.43945l9.50928,9.50977,7.33984-7.34082A9.99634,9.99634,0,0,0,39.93506,6.877h0L24.73535,22.07715a2.52149,2.52149,0,0,0,0,3.56738,2.58277,2.58277,0,0,0,3.56738,0l6.79932-6.7998A1.49976,1.49976,0,0,1,36.1626,18.40527ZM38.87451,5.81641h0Z"/><path d="M23.97168,53.14844a5.333,5.333,0,0,1-5.332-5.333c0-.0293.00049-.06055.001-.08984a5.32338,5.32338,0,0,1-5.4165-5.417,5.36631,5.36631,0,0,1-3.86133-1.56152,5.33119,5.33119,0,0,1,.00049-7.54l3.7915-3.793a1.50019,1.50019,0,0,1,2.12207,2.12109l-3.792,3.793a2.33111,2.33111,0,0,0-.00049,3.29785,2.38752,2.38752,0,0,0,3.29736,0l3.793-3.792a1.49984,1.49984,0,1,1,2.12109,2.12109l-3.79248,3.792a2.33245,2.33245,0,0,0,3.29834,3.29883l3.79248-3.793A1.49984,1.49984,0,1,1,26.11523,42.374l-3.79248,3.793a2.3317,2.3317,0,0,0,0,3.29785,2.38717,2.38717,0,0,0,3.29785,0l3.793-3.792a1.49984,1.49984,0,0,1,2.12109,2.12109l-3.79248,3.792A5.29391,5.29391,0,0,1,23.97168,53.14844Z"/><path d="M36.97656,53.14844a5.29588,5.29588,0,0,1-3.771-1.5625L3.80664,22.18652A12.996,12.996,0,1,1,22.186,3.80762l9.34863,9.34863a1.49984,1.49984,0,0,1-2.12109,2.12109L20.06494,5.92871A9.99634,9.99634,0,0,0,5.92773,20.06543L35.32715,49.46484a2.38717,2.38717,0,0,0,3.29785,0,2.33111,2.33111,0,0,0,.00049-3.29785L34.833,42.374a1.49984,1.49984,0,0,1,2.12109-2.12109l3.79248,3.793a2.33228,2.33228,0,1,0,3.29785-3.29883l-3.792-3.792A1.49984,1.49984,0,0,1,42.37354,34.834L46.166,38.626a2.38717,2.38717,0,0,0,3.29785,0,2.33111,2.33111,0,0,0,.00049-3.29785l-3.79248-3.793A1.49984,1.49984,0,0,1,47.793,29.41406l3.79248,3.793a5.33252,5.33252,0,0,1-3.77,9.10254c-.03076,0-.061-.001-.09131-.001A5.31642,5.31642,0,0,1,46.1665,46.167a5.3842,5.3842,0,0,1-3.85889,1.55859c.00049.0293.001.06055.001.08984a5.33388,5.33388,0,0,1-5.332,5.333Z"/></svg>