<svg xmlns="http://www.w3.org/2000/svg" viewBox="0 0 60 60"><title>alo_icon_system_web-medium</title><path d="M30,60A30,30,0,1,1,60,30,30.03406,30.03406,0,0,1,30,60ZM30,3A27,27,0,1,0,57,30,27.03078,27.03078,0,0,0,30,3Z"/><path d="M3.542,42.03516a1.49988,1.49988,0,0,1-.48828-2.918A20.30447,20.30447,0,0,0,16.76465,19.94092,20.07416,20.07416,0,0,0,12.51855,7.56836a1.49987,1.49987,0,1,1,2.373-1.835,23.04216,23.04216,0,0,1,4.873,14.20752A23.30452,23.30452,0,0,1,4.03027,41.95313,1.49431,1.49431,0,0,1,3.542,42.03516Z"/><path d="M13.23535,19.76465a29.915,29.915,0,0,1-8.99609-1.38184,1.49983,1.49983,0,1,1,.90039-2.86133,26.94162,26.94162,0,0,0,8.0957,1.24316A26.9298,26.9298,0,0,0,37.21289,2.12256,1.49988,1.49988,0,1,1,39.877,3.50146,29.91961,29.91961,0,0,1,13.23535,19.76465Z"/><path d="M48.23633,53.37891a1.49553,1.49553,0,0,1-1.13574-.51953A35.02972,35.02972,0,0,1,38.584,30.55566a1.501,1.501,0,0,1,1.47656-1.52393A1.52479,1.52479,0,0,1,41.584,30.50781a32.02591,32.02591,0,0,0,7.78613,20.39063,1.5,1.5,0,0,1-1.13379,2.48047Z"/><path d="M42.52246,18.98145A1.50059,1.50059,0,0,1,41.13379,16.916a35.19052,35.19052,0,0,1,5.9668-9.77539,1.49967,1.49967,0,1,1,2.26953,1.96094,32.21062,32.21062,0,0,0-5.457,8.94434A1.5011,1.5011,0,0,1,42.52246,18.98145Z"/><path d="M40.085,32.03223q-.06152,0-.123-.00586a8.18892,8.18892,0,0,1,.65918-16.35254,8.0204,8.0204,0,0,1,2.3291.36914,1.5,1.5,0,1,1-.85352,2.876,5.1417,5.1417,0,0,0-1.47559-.24512A5.21146,5.21146,0,0,0,35.416,23.87988a5.15516,5.15516,0,0,0,4.78809,5.15674,1.50026,1.50026,0,0,1-.11914,2.99561Z"/><path d="M40.62109,32.08594a3.83417,3.83417,0,0,1-.53125-.04395l-.127-.01562a1.49977,1.49977,0,1,1,.24219-2.98975c.09668.00781.19238.02.28711.03271.04492.00635.08887.01416.13379.01611a5.21053,5.21053,0,0,0,5.20117-5.20557,5.15867,5.15867,0,0,0-3.73145-4.96143,1.49979,1.49979,0,0,1,.85547-2.875,8.18783,8.18783,0,0,1-2.33008,16.04248Z"/><path d="M31.21777,59.93848a1.49915,1.49915,0,0,1-1.47949-1.75977,26.98846,26.98846,0,0,0,.43848-4.708,27.03078,27.03078,0,0,0-27-27c-.21973,0-.43457.01563-.65039.03076-.167.01123-.333.02246-.501.0293a1.49988,1.49988,0,1,1-.127-2.99707c.14258-.00586.2832-.01611.42383-.02539.2832-.01953.56641-.0376.85449-.0376a30.03406,30.03406,0,0,1,30,30,29.9638,29.9638,0,0,1-.4834,5.22754A1.50116,1.50116,0,0,1,31.21777,59.93848Z"/></svg>