<svg id="Elements" xmlns="http://www.w3.org/2000/svg" viewBox="0 0 75 75"><title>alo_service</title><path d="M37.5,53.5a16,16,0,1,1,16-16A16.01833,16.01833,0,0,1,37.5,53.5Zm0-30a14,14,0,1,0,14,14A14.01573,14.01573,0,0,0,37.5,23.5Z"/><path d="M37.5,35a3,3,0,1,1,3-3A3.00328,3.00328,0,0,1,37.5,35Zm0-4a1,1,0,1,0,1,1A1.001,1.001,0,0,0,37.5,31Z"/><path d="M37.5,46a2.87835,2.87835,0,0,1-2.875-2.875V40.31592l-2.61816-2.61768a2.2501,2.2501,0,0,1,3.18262-3.18164l1.252,1.25244h2.11621l1.25293-1.25244a2.23412,2.23412,0,0,1,1.59082-.65918h0.002a2.24976,2.24976,0,0,1,1.58887,3.84082L40.375,40.31592V43.125A2.87835,2.87835,0,0,1,37.5,46ZM33.59863,35.85742a0.24976,0.24976,0,0,0-.17676.42725L36.332,39.19434a1.00013,1.00013,0,0,1,.293.707V43.125a0.875,0.875,0,0,0,1.75,0V39.90186a1.00013,1.00013,0,0,1,.293-0.707l2.91016-2.91064a0.24932,0.24932,0,0,0,0-.353,0.24262,0.24262,0,0,0-.17578-0.07373h-0.001a0.24581,0.24581,0,0,0-.17676.07324l-1.5459,1.54541a0.99928,0.99928,0,0,1-.707.293H36.02734a0.99928,0.99928,0,0,1-.707-0.293l-1.54492-1.54541A0.25,0.25,0,0,0,33.59863,35.85742Z"/></svg>