<svg xmlns="http://www.w3.org/2000/svg" viewBox="0 0 60 60"><title>alo_icon_system_cards-medium</title><path d="M22.875,25.7998H1.5a1.5,1.5,0,0,1,0-3H22.875a1.5,1.5,0,0,1,0,3Z"/><path d="M22.875,37.2002H1.5a1.5,1.5,0,0,1,0-3H22.875a1.5,1.5,0,0,1,0,3Z"/><path d="M22.875,3H1.5a1.5,1.5,0,0,1,0-3H22.875a1.5,1.5,0,0,1,0,3Z"/><path d="M22.875,60H1.5a1.5,1.5,0,0,1,0-3H22.875a1.5,1.5,0,0,1,0,3Z"/><path d="M58.5,25.7998H37.125a1.5,1.5,0,0,1,0-3H58.5a1.5,1.5,0,0,1,0,3Z"/><path d="M58.5,37.2002H37.125a1.5,1.5,0,0,1,0-3H58.5a1.5,1.5,0,0,1,0,3Z"/><path d="M58.5,3H37.125a1.5,1.5,0,0,1,0-3H58.5a1.5,1.5,0,0,1,0,3Z"/><path d="M58.5,60H37.125a1.5,1.5,0,0,1,0-3H58.5a1.5,1.5,0,0,1,0,3Z"/><path d="M1.5,25.7998a1.50007,1.50007,0,0,1-1.5-1.5V1.5a1.5,1.5,0,0,1,3,0V24.2998A1.50007,1.50007,0,0,1,1.5,25.7998Z"/><path d="M22.875,25.7998a1.50007,1.50007,0,0,1-1.5-1.5V1.5a1.5,1.5,0,0,1,3,0V24.2998A1.50007,1.50007,0,0,1,22.875,25.7998Z"/><path d="M37.125,25.7998a1.50007,1.50007,0,0,1-1.5-1.5V1.5a1.5,1.5,0,0,1,3,0V24.2998A1.50007,1.50007,0,0,1,37.125,25.7998Z"/><path d="M58.5,25.7998a1.50007,1.50007,0,0,1-1.5-1.5V1.5a1.5,1.5,0,0,1,3,0V24.2998A1.50007,1.50007,0,0,1,58.5,25.7998Z"/><path d="M1.5,60A1.50007,1.50007,0,0,1,0,58.5V35.7002a1.5,1.5,0,0,1,3,0V58.5A1.50007,1.50007,0,0,1,1.5,60Z"/><path d="M22.875,60a1.50007,1.50007,0,0,1-1.5-1.5V35.7002a1.5,1.5,0,0,1,3,0V58.5A1.50007,1.50007,0,0,1,22.875,60Z"/><path d="M37.125,60a1.50007,1.50007,0,0,1-1.5-1.5V35.7002a1.5,1.5,0,0,1,3,0V58.5A1.50007,1.50007,0,0,1,37.125,60Z"/><path d="M58.5,60A1.50007,1.50007,0,0,1,57,58.5V35.7002a1.5,1.5,0,0,1,3,0V58.5A1.50007,1.50007,0,0,1,58.5,60Z"/></svg>