<svg id="Elements" xmlns="http://www.w3.org/2000/svg" viewBox="0 0 75 75"><title>alo_service</title><path d="M37.5,53.5a16,16,0,1,1,16-16A16.01833,16.01833,0,0,1,37.5,53.5Zm0-30a14,14,0,1,0,14,14A14.01573,14.01573,0,0,0,37.5,23.5Z"/><path d="M42.5,45h-10A3.50425,3.50425,0,0,1,29,41.5V37.75a3.50425,3.50425,0,0,1,3.5-3.5h10a3.50425,3.50425,0,0,1,3.5,3.5V41.5A3.50425,3.50425,0,0,1,42.5,45Zm-10-8.75a1.50164,1.50164,0,0,0-1.5,1.5V41.5A1.50164,1.50164,0,0,0,32.5,43h10A1.50164,1.50164,0,0,0,44,41.5V37.75a1.50164,1.50164,0,0,0-1.5-1.5h-10Z"/><path d="M37.5,43.125a3.5,3.5,0,1,1,3.5-3.5A3.50425,3.50425,0,0,1,37.5,43.125Zm0-5a1.5,1.5,0,1,0,1.5,1.5A1.50164,1.50164,0,0,0,37.5,38.125Z"/><path d="M40,33.75H35a0.99974,0.99974,0,0,1-1-1V29a0.99974,0.99974,0,0,1,1-1h5a0.99974,0.99974,0,0,1,1,1v3.75A0.99974,0.99974,0,0,1,40,33.75Zm-4-2h3V30H36v1.75Z"/><path d="M37.5,36.25a0.99974,0.99974,0,0,1-1-1v-2.5a1,1,0,0,1,2,0v2.5A0.99974,0.99974,0,0,1,37.5,36.25Z"/></svg>