<svg xmlns="http://www.w3.org/2000/svg" viewBox="0 0 60 60"><title>alo_icon_system_navigation-medium</title><path d="M30,52.875A22.875,22.875,0,1,1,52.875,30,22.901,22.901,0,0,1,30,52.875Zm0-42.75A19.875,19.875,0,1,0,49.875,30,19.89767,19.89767,0,0,0,30,10.125Z"/><path d="M58.5,31.5H37.125a1.5,1.5,0,0,1,0-3H58.5a1.5,1.5,0,0,1,0,3Z"/><path d="M22.875,31.5H1.5a1.5,1.5,0,0,1,0-3H22.875a1.5,1.5,0,0,1,0,3Z"/><path d="M50.15332,51.65234a1.49514,1.49514,0,0,1-1.06055-.43945L33.97656,36.09863a1.49984,1.49984,0,0,1,2.12109-2.12109L51.21387,49.0918a1.5,1.5,0,0,1-1.06055,2.56055Z"/><path d="M24.96289,26.4624a1.49514,1.49514,0,0,1-1.06055-.43945L8.78613,10.9082a1.49984,1.49984,0,0,1,2.12109-2.12109L26.02344,23.90186a1.5,1.5,0,0,1-1.06055,2.56055Z"/><path d="M30,60a1.50007,1.50007,0,0,1-1.5-1.5V37.125a1.5,1.5,0,0,1,3,0V58.5A1.50007,1.50007,0,0,1,30,60Z"/><path d="M30,24.375a1.50007,1.50007,0,0,1-1.5-1.5V1.5a1.5,1.5,0,0,1,3,0V22.875A1.50007,1.50007,0,0,1,30,24.375Z"/><path d="M9.84668,51.65234A1.5,1.5,0,0,1,8.78613,49.0918L23.90234,33.97754a1.49984,1.49984,0,0,1,2.12109,2.12109L10.90723,51.21289A1.49514,1.49514,0,0,1,9.84668,51.65234Z"/><path d="M35.03711,26.4624a1.5,1.5,0,0,1-1.06055-2.56055L49.09277,8.78711a1.49984,1.49984,0,0,1,2.12109,2.12109L36.09766,26.02295A1.49514,1.49514,0,0,1,35.03711,26.4624Z"/><path d="M37.125,31.5a1.50007,1.50007,0,0,1-1.5-1.5,5.58364,5.58364,0,0,0-1.64844-3.97656,1.50019,1.50019,0,0,1,2.12109-2.12207A8.56741,8.56741,0,0,1,38.625,30,1.50007,1.50007,0,0,1,37.125,31.5Z"/><path d="M30,38.625a8.56394,8.56394,0,0,1-6.09863-2.52686,1.50019,1.50019,0,0,1,2.123-2.12012A5.581,5.581,0,0,0,30,35.625a1.5,1.5,0,0,1,0,3Z"/><path d="M35.03711,36.53809a1.5,1.5,0,0,1-1.06055-2.561A5.58309,5.58309,0,0,0,35.625,30a1.5,1.5,0,0,1,3,0,8.566,8.566,0,0,1-2.52734,6.09912A1.49667,1.49667,0,0,1,35.03711,36.53809Z"/><path d="M24.96289,36.53809a1.49667,1.49667,0,0,1-1.06055-.439A8.566,8.566,0,0,1,21.375,30a1.5,1.5,0,0,1,3,0,5.58309,5.58309,0,0,0,1.64844,3.97705,1.5,1.5,0,0,1-1.06055,2.561Z"/><path d="M35.03711,26.4624a1.49417,1.49417,0,0,1-1.06152-.43994A5.57947,5.57947,0,0,0,30,24.375a1.5,1.5,0,0,1,0-3,8.56072,8.56072,0,0,1,6.09863,2.52734,1.50024,1.50024,0,0,1-1.06152,2.56006Z"/><path d="M22.875,31.5a1.50007,1.50007,0,0,1-1.5-1.5,8.56741,8.56741,0,0,1,2.52734-6.09863,1.50019,1.50019,0,0,1,2.12109,2.12207A5.58364,5.58364,0,0,0,24.375,30,1.50007,1.50007,0,0,1,22.875,31.5Z"/><path d="M30,38.625a1.5,1.5,0,0,1,0-3,5.581,5.581,0,0,0,3.97559-1.647,1.50019,1.50019,0,0,1,2.123,2.12012A8.56394,8.56394,0,0,1,30,38.625Z"/><path d="M24.96289,26.4624a1.50024,1.50024,0,0,1-1.06152-2.56006A8.56072,8.56072,0,0,1,30,21.375a1.5,1.5,0,0,1,0,3,5.57947,5.57947,0,0,0-3.97559,1.64746A1.49788,1.49788,0,0,1,24.96289,26.4624Z"/></svg>