<svg id="Elements" xmlns="http://www.w3.org/2000/svg" viewBox="0 0 75 75"><title>alo_activities</title><path d="M36,31.8335H31a1,1,0,0,1,0-2h5A1,1,0,0,1,36,31.8335Z"/><path d="M36,35.1665H31a1,1,0,0,1,0-2h5A1,1,0,0,1,36,35.1665Z"/><path d="M33.667,38.5H31a1,1,0,0,1,0-2h2.667A1,1,0,0,1,33.667,38.5Z"/><path d="M33.084,46.79736a0.99829,0.99829,0,0,1-.707-0.29248L30.49512,44.624a1.00022,1.00022,0,0,1,0-1.41455l14.416-14.4165a0.99964,0.99964,0,0,1,1.41406,0L48.207,30.67432a0.99964,0.99964,0,0,1,0,1.41406l-14.416,14.416A0.99676,0.99676,0,0,1,33.084,46.79736ZM32.61621,43.9165L33.084,44.3833l13.002-13.002-0.46777-.46729Z"/><path d="M40.833,45.1665H34.71484a1,1,0,0,1,0-2H39.833V38.04785a1,1,0,0,1,2,0V44.1665A0.99974,0.99974,0,0,1,40.833,45.1665Z"/><path d="M31.45215,45.1665H27.5a0.99974,0.99974,0,0,1-1-1V27.5a0.99974,0.99974,0,0,1,1-1H40.833a0.99974,0.99974,0,0,1,1,1v6.78516a1,1,0,0,1-2,0V28.5H28.5V43.1665h2.95215A1,1,0,1,1,31.45215,45.1665Z"/><path d="M29.5,48.5a1,1,0,0,1-.707-1.707l2.64258-2.64307A0.99989,0.99989,0,0,1,32.84961,45.564L30.207,48.207A0.99676,0.99676,0,0,1,29.5,48.5Z"/></svg>