<svg id="Elements" xmlns="http://www.w3.org/2000/svg" viewBox="0 0 75 75"><title>alo_activities</title><g id="_Group_" data-name="&lt;Group&gt;"><path d="M37.5,45.167A7.667,7.667,0,1,1,45.167,37.5,7.67575,7.67575,0,0,1,37.5,45.167Zm0-13.334A5.667,5.667,0,1,0,43.167,37.5,5.67314,5.67314,0,0,0,37.5,31.833Z"/><path d="M35.14941,40.85059a0.99991,0.99991,0,0,1-.99219-0.88281,19.43761,19.43761,0,0,1,0-4.93457,1.00005,1.00005,0,0,1,1.98633.23438,17.43759,17.43759,0,0,0,0,4.46582,1.00038,1.00038,0,0,1-.876,1.11035A0.97,0.97,0,0,1,35.14941,40.85059Z"/><path d="M36.1084,45.01855a0.9997,0.9997,0,0,1-.94531-0.67383,20.93145,20.93145,0,0,1-1.00586-4.37793,0.99994,0.99994,0,0,1,1.98633-.23242,18.93379,18.93379,0,0,0,.91016,3.958A1,1,0,0,1,36.1084,45.01855Z"/><path d="M35.15137,36.15039a0.95425,0.95425,0,0,1-.11719-0.00684,0.99949,0.99949,0,0,1-.877-1.10937,20.86486,20.86486,0,0,1,1.00586-4.37891,1,1,0,1,1,1.89063.65234,18.88114,18.88114,0,0,0-.91016,3.959A1,1,0,0,1,35.15137,36.15039Z"/><path d="M38.8916,45.01855a1,1,0,0,1-.94531-1.32617,18.93379,18.93379,0,0,0,.91016-3.958,0.99994,0.99994,0,0,1,1.98633.23242,20.93145,20.93145,0,0,1-1.00586,4.37793A0.9997,0.9997,0,0,1,38.8916,45.01855Z"/><path d="M39.85059,40.85059a0.97,0.97,0,0,1-.11816-0.00684,1.00038,1.00038,0,0,1-.876-1.11035,17.43759,17.43759,0,0,0,0-4.46582,1.00005,1.00005,0,0,1,1.98633-.23437,19.43761,19.43761,0,0,1,0,4.93457A0.99991,0.99991,0,0,1,39.85059,40.85059Z"/><path d="M39.84863,36.15039a1,1,0,0,1-.99219-0.88379,18.88114,18.88114,0,0,0-.91016-3.959,1,1,0,1,1,1.89063-.65234,20.86486,20.86486,0,0,1,1.00586,4.37891,0.99949,0.99949,0,0,1-.877,1.10938A0.95425,0.95425,0,0,1,39.84863,36.15039Z"/><path d="M44.01953,37.1084a1.00288,1.00288,0,0,1-.32617-0.05469,18.90384,18.90384,0,0,0-3.96-.91016,0.99994,0.99994,0,0,1,.23242-1.98633,20.90155,20.90155,0,0,1,4.37988,1.00586A1,1,0,0,1,44.01953,37.1084Z"/><path d="M39.85059,36.15039a0.97,0.97,0,0,1-.11816-0.00684,17.25539,17.25539,0,0,0-4.46484,0,1.00005,1.00005,0,0,1-.23437-1.98633,19.311,19.311,0,0,1,4.93359,0A1,1,0,0,1,39.85059,36.15039Z"/><path d="M30.98145,37.1084a1,1,0,0,1-.32617-1.94531,20.86486,20.86486,0,0,1,4.37891-1.00586,0.99994,0.99994,0,1,1,.23242,1.98633,18.88114,18.88114,0,0,0-3.959.91016A1.00288,1.00288,0,0,1,30.98145,37.1084Z"/><path d="M37.5,41a21.12869,21.12869,0,0,1-2.46484-.15625,0.99983,0.99983,0,1,1,.23047-1.98633,17.46038,17.46038,0,0,0,4.46875,0,0.99983,0.99983,0,1,1,.23047,1.98633A21.12869,21.12869,0,0,1,37.5,41Z"/><path d="M39.84863,40.85059a1,1,0,0,1-.11621-1.99316,18.996,18.996,0,0,0,3.96094-.91113,1,1,0,1,1,.65234,1.89063,20.99027,20.99027,0,0,1-4.37891,1.00684A0.97,0.97,0,0,1,39.84863,40.85059Z"/><path d="M35.15137,40.85059a0.97,0.97,0,0,1-.11816-0.00684,20.95325,20.95325,0,0,1-4.37793-1.00684,1,1,0,1,1,.65234-1.89062,18.97311,18.97311,0,0,0,3.96.91113A1,1,0,0,1,35.15137,40.85059Z"/><path d="M37.5,31.833a0.99942,0.99942,0,0,1-1-1V27.5a1,1,0,0,1,2,0v3.333A0.99942,0.99942,0,0,1,37.5,31.833Z"/><path d="M37.5,48.5a0.99942,0.99942,0,0,1-1-1V47.083a1,1,0,0,1,2,0V47.5A0.99942,0.99942,0,0,1,37.5,48.5Z"/><path d="M44.27637,31.72363a1,1,0,0,1-.707-1.707l0.29492-.29492a0.99989,0.99989,0,0,1,1.41406,1.41406l-0.29492.29492A0.99676,0.99676,0,0,1,44.27637,31.72363Z"/><path d="M30.42871,45.57129a1,1,0,0,1-.707-1.707l0.29492-.29492a0.99989,0.99989,0,0,1,1.41406,1.41406l-0.29492.29492A0.99676,0.99676,0,0,1,30.42871,45.57129Z"/><path d="M47.5,38.5H47.083a1,1,0,0,1,0-2H47.5A1,1,0,0,1,47.5,38.5Z"/><path d="M27.917,38.5H27.5a1,1,0,0,1,0-2h0.417A1,1,0,1,1,27.917,38.5Z"/><path d="M44.57129,45.57129a0.99676,0.99676,0,0,1-.707-0.293l-0.29492-.29492a0.99989,0.99989,0,0,1,1.41406-1.41406l0.29492,0.29492A1,1,0,0,1,44.57129,45.57129Z"/><path d="M30.72363,31.72363a0.99676,0.99676,0,0,1-.707-0.293l-0.29492-.29492a0.99989,0.99989,0,0,1,1.41406-1.41406l0.29492,0.29492A1,1,0,0,1,30.72363,31.72363Z"/></g></svg>