<svg id="Elements" xmlns="http://www.w3.org/2000/svg" viewBox="0 0 75 75"><title>alo_activities</title><g id="_Group_" data-name="&lt;Group&gt;"><path d="M27.5,48.5a0.99942,0.99942,0,0,1-1-1V29.167a1,1,0,0,1,2,0V47.5A0.99942,0.99942,0,0,1,27.5,48.5Z"/><path d="M45.833,28.5H29.167a1,1,0,0,1,0-2H45.833A1,1,0,0,1,45.833,28.5Z"/><path d="M32.667,31.833h-2a1,1,0,0,1,0-2h2A1,1,0,0,1,32.667,31.833Z"/><path d="M41,35.167H37.667a0.99942,0.99942,0,0,1-1-1V30.833a0.99942,0.99942,0,0,1,1-1H41a0.99942,0.99942,0,0,1,1,1v3.334A0.99942,0.99942,0,0,1,41,35.167Zm-2.333-2H40V31.833H38.667v1.334Z"/><path d="M41,45.167H37.667a0.99942,0.99942,0,0,1-1-1V37.5a0.99942,0.99942,0,0,1,1-1H41a0.99942,0.99942,0,0,1,1,1v6.667A0.99942,0.99942,0,0,1,41,45.167Zm-2.333-2H40V38.5H38.667v4.667Z"/><path d="M32.667,38.5h-2a1,1,0,0,1,0-2h2A1,1,0,0,1,32.667,38.5Z"/><path d="M34.5,35.167H30.667a1,1,0,0,1,0-2H34.5A1,1,0,0,1,34.5,35.167Z"/><path d="M34.5,41.833H30.667a1,1,0,0,1,0-2H34.5A1,1,0,0,1,34.5,41.833Z"/><path d="M34.5,45.167H30.667a1,1,0,0,1,0-2H34.5A1,1,0,0,1,34.5,45.167Z"/><path d="M44.167,48.5H27.5a1,1,0,0,1,0-2H44.167A1,1,0,0,1,44.167,48.5Z"/><path d="M47.5,46.833H44.167a1,1,0,0,1,0-2H46.5V29.167a0.6665,0.6665,0,1,0-1.333,0,1,1,0,1,1-2,0,2.6665,2.6665,0,1,1,5.333,0V45.833A0.99942,0.99942,0,0,1,47.5,46.833Z"/><path d="M27.5,30.167a0.99942,0.99942,0,0,1-1-1A2.66986,2.66986,0,0,1,29.167,26.5a1,1,0,1,1,0,2,0.66726,0.66726,0,0,0-.667.667A0.99942,0.99942,0,0,1,27.5,30.167Z"/><path d="M44.167,48.5a0.99942,0.99942,0,0,1-1-1V29.167a1,1,0,0,1,2,0V47.5A0.99942,0.99942,0,0,1,44.167,48.5Z"/></g></svg>