<svg id="Elements" xmlns="http://www.w3.org/2000/svg" viewBox="0 0 75 75"><title>alo_activities</title><g id="_Group_" data-name="&lt;Group&gt;"><path d="M33.333,38.32227a4.30351,4.30351,0,0,1-3.06348-1.26855,0.99989,0.99989,0,0,1,1.41406-1.41406,2.38987,2.38987,0,0,0,3.30078-.001,0.99989,0.99989,0,1,1,1.41211,1.416A4.30663,4.30663,0,0,1,33.333,38.32227Z"/><path d="M33.333,42.47852a1.00134,1.00134,0,0,1-.22168-0.02441A8.452,8.452,0,0,1,26.5,34.167V28.333A1.83506,1.83506,0,0,1,28.333,26.5h10a1.83527,1.83527,0,0,1,1.834,1.833v5.834a8.452,8.452,0,0,1-6.6123,8.28711A1.00134,1.00134,0,0,1,33.333,42.47852ZM28.5,28.5v5.667a6.45941,6.45941,0,0,0,4.833,6.28223A6.46027,6.46027,0,0,0,38.167,34.167V28.5H28.5Zm9.833,0h0Z"/><path d="M44.02344,43.4873a0.99593,0.99593,0,0,1-.708-0.29395,2.38935,2.38935,0,0,0-3.29883.001,0.99989,0.99989,0,0,1-1.41406-1.41406,4.33215,4.33215,0,0,1,6.12891.001A1,1,0,0,1,44.02344,43.4873Z"/><path d="M41.667,48.5a1.00134,1.00134,0,0,1-.22168-0.02441A8.48763,8.48763,0,0,1,34.8418,40.415a1.001,1.001,0,0,1,.97363-1.02637,1.02627,1.02627,0,0,1,1.02637.97363,6.48754,6.48754,0,0,0,4.8252,6.1084A6.46025,6.46025,0,0,0,46.5,40.18848v-5.667H39.167a1,1,0,0,1,0-2h7.5a1.83506,1.83506,0,0,1,1.833,1.833v5.834a8.452,8.452,0,0,1-6.61133,8.28711A1.00134,1.00134,0,0,1,41.667,48.5Zm5-13.97852h0Z"/><path d="M31.167,33.73926a0.99942,0.99942,0,0,1-1-1v-1.5a1,1,0,0,1,2,0v1.5A0.99942,0.99942,0,0,1,31.167,33.73926Z"/><path d="M35.5,33.73926a0.99942,0.99942,0,0,1-1-1v-1.5a1,1,0,1,1,2,0v1.5A0.99942,0.99942,0,0,1,35.5,33.73926Z"/><path d="M39.5,39.76074a0.99942,0.99942,0,0,1-1-1v-1.5a1,1,0,0,1,2,0v1.5A0.99942,0.99942,0,0,1,39.5,39.76074Z"/><path d="M43.833,39.76074a0.99942,0.99942,0,0,1-1-1v-1.5a1,1,0,0,1,2,0v1.5A0.99942,0.99942,0,0,1,43.833,39.76074Z"/></g></svg>