<svg id="Elements" xmlns="http://www.w3.org/2000/svg" viewBox="0 0 75 75"><title>alo_activities</title><path d="M41.25,45.1665c-4.18848,0-7.25-7.5083-7.25-11.4165a7.25,7.25,0,0,1,14.5,0C48.5,37.6582,45.43848,45.1665,41.25,45.1665Zm0-16.6665A5.25574,5.25574,0,0,0,36,33.75c0,3.293,2.69873,9.4165,5.25,9.4165S46.5,37.043,46.5,33.75A5.25574,5.25574,0,0,0,41.25,28.5Z"/><path d="M41.25,48.5a1,1,0,0,1-1-1V44.1665a1,1,0,0,1,2,0V47.5A1,1,0,0,1,41.25,48.5Z"/><path d="M31.6665,42.94434C28.45166,42.94434,26.5,37.42676,26.5,35a5.16464,5.16464,0,0,1,9.42725-2.918,0.99993,0.99993,0,1,1-1.64941,1.13086A3.16476,3.16476,0,0,0,28.5,35c0,2.20557,1.7998,5.94434,3.1665,5.94434,0.95313,0,2.28027-1.94287,2.89746-4.24268a1,1,0,0,1,1.93164.51855C35.9248,39.34619,34.26514,42.94434,31.6665,42.94434Z"/><path d="M31.667,45.1665a1,1,0,0,1-1-1V41.94434a1,1,0,0,1,2,0V44.1665A1,1,0,0,1,31.667,45.1665Z"/></svg>