<svg id="Elements" xmlns="http://www.w3.org/2000/svg" viewBox="0 0 75 75"><title>alo_activities</title><g id="_Group_" data-name="&lt;Group&gt;"><path d="M37.5,41.38672a6.77344,6.77344,0,1,1,6.77344-6.77344A6.78051,6.78051,0,0,1,37.5,41.38672Zm0-11.54687a4.77344,4.77344,0,1,0,4.77344,4.77344A4.77916,4.77916,0,0,0,37.5,29.83984Z"/><path d="M37.5,47.16016a0.99942,0.99942,0,0,1-1-1V37.5a1,1,0,0,1,2,0v8.66016A0.99942,0.99942,0,0,1,37.5,47.16016Z"/><path d="M40.001,34.16992a1,1,0,0,1-.501-1.86621L47,27.97363a1.00016,1.00016,0,1,1,1,1.73242l-7.5,4.33008A0.99445,0.99445,0,0,1,40.001,34.16992Z"/><path d="M34.999,34.16992a0.99445,0.99445,0,0,1-.499-0.13379L27,29.70605a1.00016,1.00016,0,0,1,1-1.73242l7.5,4.33008A1,1,0,0,1,34.999,34.16992Z"/></g></svg>