<svg id="Elements" xmlns="http://www.w3.org/2000/svg" viewBox="0 0 75 75"><title>alo_activities</title><path d="M47.5,48.5H35.85449a0.99974,0.99974,0,0,1-1-1A6.82275,6.82275,0,0,1,48.5,47.5,0.99974,0.99974,0,0,1,47.5,48.5Zm-10.541-2h9.43652A4.82328,4.82328,0,0,0,36.959,46.5Z"/><path d="M35.85449,48.5a0.99676,0.99676,0,0,1-.707-0.293l-8.35449-8.355A0.99989,0.99989,0,0,1,28.207,38.438l8.35449,8.355A1,1,0,0,1,35.85449,48.5Z"/><path d="M40.21,36.145a0.99676,0.99676,0,0,1-.707-0.293l-4.35547-4.355a0.99964,0.99964,0,0,1,0-1.41406l3.29-3.29a0.99964,0.99964,0,0,1,1.41406,0l4.35547,4.355a0.99964,0.99964,0,0,1,0,1.41406l-3.29,3.29A0.99676,0.99676,0,0,1,40.21,36.145ZM37.26855,30.79L40.21,33.731l1.876-1.876-2.94141-2.94092Z"/><path d="M41.67676,42.67773a1.00061,1.00061,0,0,1-.97461-0.78076l-1.46777-6.53271a0.99992,0.99992,0,0,1,1.95117-.43848l1.46777,6.53271A1.00069,1.00069,0,0,1,41.67676,42.67773Z"/><path d="M37.957,39.80713a1,1,0,0,1-.21875-1.97559l2.92676-.65771a1,1,0,0,1,.43945,1.95117l-2.92676.65771A1.012,1.012,0,0,1,37.957,39.80713Z"/><path d="M27.5,40.145a1,1,0,0,1-.707-1.707l8.35449-8.355a0.99989,0.99989,0,0,1,1.41406,1.41406l-8.35449,8.355A0.99676,0.99676,0,0,1,27.5,40.145Z"/></svg>