<svg xmlns="http://www.w3.org/2000/svg" viewBox="0 0 80 80"><title>alo_icon_activity_seminar-small</title><path d="M40,80A40,40,0,1,1,80,40,40.04552,40.04552,0,0,1,40,80ZM40,3A37,37,0,1,0,77,40,37.04192,37.04192,0,0,0,40,3Z"/><path d="M59.25,52.83594H20.75a1.50007,1.50007,0,0,1-1.5-1.5V22.46143a1.49976,1.49976,0,0,1,1.5-1.5h38.5a1.49976,1.49976,0,0,1,1.5,1.5V51.33594A1.50007,1.50007,0,0,1,59.25,52.83594Zm-37-3h35.5V23.96143H22.25Z"/><path d="M40,62.46094a1.50007,1.50007,0,0,1-1.5-1.5v-9.625a1.5,1.5,0,0,1,3,0v9.625A1.50007,1.50007,0,0,1,40,62.46094Z"/><path d="M46.4165,62.46094H33.5835a1.5,1.5,0,0,1,0-3h12.833a1.5,1.5,0,0,1,0,3Z"/><path d="M55.49414,59.69043a1.49514,1.49514,0,0,1-1.06055-.43945L38.66309,43.48047a1.49984,1.49984,0,0,1,2.12109-2.12109L56.55469,57.12988a1.5,1.5,0,0,1-1.06055,2.56055Z"/><path d="M40.9624,31.66113h-12.833a1.5,1.5,0,0,1,0-3h12.833a1.5,1.5,0,0,1,0,3Z"/><path d="M34.5459,39.36133h-6.4165a1.5,1.5,0,0,1,0-3h6.4165a1.5,1.5,0,0,1,0,3Z"/></svg>