<svg xmlns="http://www.w3.org/2000/svg" viewBox="0 0 80 80"><title>alo_icon_activity_communication-small</title><path d="M40,80A40,40,0,1,1,80,40,40.0452,40.0452,0,0,1,40,80ZM40,3A37,37,0,1,0,77,40,37.04192,37.04192,0,0,0,40,3Z"/><path d="M44.8125,62.0332h-9.625a1.5,1.5,0,0,1,0-3h9.625a1.5,1.5,0,0,1,0,3Z"/><path d="M40,40.99512a5.3501,5.3501,0,1,1,5.3501-5.3501A5.356,5.356,0,0,1,40,40.99512Zm0-7.7002a2.3501,2.3501,0,1,0,2.3501,2.3501A2.35269,2.35269,0,0,0,40,33.29492Z"/><path d="M48.167,45.312a1.5,1.5,0,0,1-1.06055-2.56055,10.05058,10.05058,0,0,0,0-14.21289,1.49984,1.49984,0,0,1,2.12109-2.12109,13.04948,13.04948,0,0,1,0,18.45508A1.49514,1.49514,0,0,1,48.167,45.312Z"/><path d="M31.833,45.312a1.49514,1.49514,0,0,1-1.06055-.43945,13.04948,13.04948,0,0,1,0-18.45508,1.49984,1.49984,0,1,1,2.12109,2.12109,10.05058,10.05058,0,0,0,0,14.21289A1.5,1.5,0,0,1,31.833,45.312Z"/><path d="M53.61182,50.75684a1.5,1.5,0,0,1-1.06055-2.56055,17.7506,17.7506,0,0,0,0-25.10254,1.49984,1.49984,0,0,1,2.12109-2.12109,20.74951,20.74951,0,0,1,0,29.34473A1.49514,1.49514,0,0,1,53.61182,50.75684Z"/><path d="M26.38818,50.75684a1.49514,1.49514,0,0,1-1.06055-.43945,20.74951,20.74951,0,0,1,0-29.34473,1.49984,1.49984,0,0,1,2.12109,2.12109,17.7506,17.7506,0,0,0,0,25.10254,1.5,1.5,0,0,1-1.06055,2.56055Z"/><path d="M40,62.0332a1.49976,1.49976,0,0,1-1.5-1.5V40.45752a1.5,1.5,0,0,1,3,0V60.5332A1.49976,1.49976,0,0,1,40,62.0332Z"/></svg>