<svg xmlns="http://www.w3.org/2000/svg" viewBox="0 0 80 80"><title>alo_icon_activity_photography-small</title><path d="M40,80A40,40,0,1,1,80,40,40.04552,40.04552,0,0,1,40,80ZM40,3A37,37,0,1,0,77,40,37.04161,37.04161,0,0,0,40,3Z"/><path d="M54.11621,59.4668H28.4502a7.92623,7.92623,0,0,1-7.917-7.917v-9.625a7.92581,7.92581,0,0,1,7.917-7.9165h25.666a7.92581,7.92581,0,0,1,7.917,7.9165v9.625A7.92623,7.92623,0,0,1,54.11621,59.4668ZM28.4502,37.0083a4.92253,4.92253,0,0,0-4.917,4.9165v9.625a4.92263,4.92263,0,0,0,4.917,4.917h25.666a4.92263,4.92263,0,0,0,4.917-4.917v-9.625a4.92253,4.92253,0,0,0-4.917-4.9165Z"/><path d="M44.49121,52.0874a5.34985,5.34985,0,1,1,5.35059-5.3501A5.35556,5.35556,0,0,1,44.49121,52.0874Zm0-7.69971A2.34985,2.34985,0,1,0,46.8418,46.7373,2.35217,2.35217,0,0,0,44.49121,44.3877Z"/><path d="M33.2627,37.0083a1.50007,1.50007,0,0,1-1.5-1.5V27.1665a1.5,1.5,0,1,1,3,0v8.3418A1.50007,1.50007,0,0,1,33.2627,37.0083Z"/><path d="M28.4502,48.2373h-6.417a1.5,1.5,0,1,1,0-3h6.417a1.5,1.5,0,0,1,0,3Z"/><path d="M39.67871,28.6665H26.8457a1.50007,1.50007,0,0,1-1.5-1.5V19.4668a1.50007,1.50007,0,0,1,1.5-1.5h12.833a1.50007,1.50007,0,0,1,1.5,1.5V27.1665A1.50007,1.50007,0,0,1,39.67871,28.6665Zm-11.333-3h9.833V20.9668h-9.833Z"/></svg>