<svg xmlns="http://www.w3.org/2000/svg" viewBox="0 0 80 80"><title>alo_icon_activity_fitness-small</title><path d="M40,80A40,40,0,1,1,80,40,40.04552,40.04552,0,0,1,40,80ZM40,3A37,37,0,1,0,77,40,37.04192,37.04192,0,0,0,40,3Z"/><path d="M59.25,41.5H20.75a1.5,1.5,0,0,1,0-3h38.5a1.5,1.5,0,0,1,0,3Z"/><path d="M23.31689,47.917a1.50007,1.50007,0,0,1-1.5-1.5V33.5835a1.5,1.5,0,0,1,3,0V46.417A1.50007,1.50007,0,0,1,23.31689,47.917Z"/><path d="M56.68311,47.917a1.50007,1.50007,0,0,1-1.5-1.5V33.5835a1.5,1.5,0,0,1,3,0V46.417A1.50007,1.50007,0,0,1,56.68311,47.917Z"/><path d="M48.9834,54.333a1.50007,1.50007,0,0,1-1.5-1.5V27.1665a1.5,1.5,0,0,1,3,0V52.833A1.50007,1.50007,0,0,1,48.9834,54.333Z"/><path d="M31.0166,54.333a1.50007,1.50007,0,0,1-1.5-1.5V27.1665a1.5,1.5,0,1,1,3,0V52.833A1.50007,1.50007,0,0,1,31.0166,54.333Z"/></svg>