<svg xmlns="http://www.w3.org/2000/svg" viewBox="0 0 80 80"><title>alo_icon_activity_writing-small</title><path d="M40,80A40,40,0,1,1,80,40,40.0452,40.0452,0,0,1,40,80ZM40,3A37,37,0,1,0,77,40,37.04192,37.04192,0,0,0,40,3Z"/><path d="M30.5542,56.39063a1.49514,1.49514,0,0,1-1.06055-.43945l-5.44482-5.44482a1.49945,1.49945,0,0,1,0-2.12109l28.6958-28.6958a1.49945,1.49945,0,0,1,2.12109,0l5.44482,5.44482a1.49945,1.49945,0,0,1,0,2.12109l-28.6958,28.6958A1.49514,1.49514,0,0,1,30.5542,56.39063ZM27.23047,49.4458l3.32373,3.32373L57.12891,26.19482l-3.32373-3.32373Z"/><path d="M51.99023,34.95459a1.49514,1.49514,0,0,1-1.06055-.43945l-5.44482-5.44482A1.49984,1.49984,0,0,1,47.606,26.94922L53.05078,32.394a1.5,1.5,0,0,1-1.06055,2.56055Z"/><path d="M20.75,60.75a1.5,1.5,0,0,1-1.06055-2.56055L26.771,51.10791A1.49984,1.49984,0,0,1,28.89209,53.229l-7.08154,7.08154A1.49514,1.49514,0,0,1,20.75,60.75Z"/></svg>