<svg xmlns="http://www.w3.org/2000/svg" viewBox="0 0 80 80"><title>alo_icon_activity_resources-small</title><path d="M40,80A40,40,0,1,1,80,40,40.0452,40.0452,0,0,1,40,80ZM40,3A37,37,0,1,0,77,40,37.04192,37.04192,0,0,0,40,3Z"/><path d="M59.25,58.18311H20.75a1.49976,1.49976,0,0,1-1.5-1.5V31.0166a14.34956,14.34956,0,0,1,14.333-14.3335H46.4165A14.35,14.35,0,0,1,60.75,31.0166v25.6665A1.49976,1.49976,0,0,1,59.25,58.18311Zm-37-3h35.5V31.0166a11.34607,11.34607,0,0,0-11.3335-11.3335H33.583A11.346,11.346,0,0,0,22.25,31.0166Z"/><path d="M33.583,35.7251H20.75a1.5,1.5,0,0,1,0-3H33.583a1.5,1.5,0,0,1,0,3Z"/><path d="M59.25,35.7251H46.4165a1.5,1.5,0,0,1,0-3H59.25a1.5,1.5,0,0,1,0,3Z"/><path d="M40,48.55811a7.92581,7.92581,0,0,1-7.917-7.9165V34.2251a1.5,1.5,0,0,1,3,0v6.4165a4.91675,4.91675,0,0,0,9.8335,0V34.2251a1.5,1.5,0,0,1,3,0v6.4165A7.92539,7.92539,0,0,1,40,48.55811Z"/></svg>