<svg xmlns="http://www.w3.org/2000/svg" viewBox="0 0 80 80"><title>alo_icon_activity_exhibition-small</title><path d="M40,80A40,40,0,1,1,80,40,40.0452,40.0452,0,0,1,40,80ZM40,3A37,37,0,1,0,77,40,37.04192,37.04192,0,0,0,40,3Z"/><path d="M58.99268,58.18311H20.82617a1.5,1.5,0,0,1,0-3h38.1665a1.5,1.5,0,0,1,0,3Z"/><path d="M55.99316,41.50049H24.00684a1.5,1.5,0,0,1,0-3H55.99316a1.5,1.5,0,0,1,0,3Z"/><path d="M55.335,32.73877H24.48438a1.5,1.5,0,0,1,0-3H55.335a1.5,1.5,0,0,1,0,3Z"/><path d="M55.334,32.73877a1.49594,1.49594,0,0,1-.96826-.355L38.94043,19.32861a1.50016,1.50016,0,0,1,1.93848-2.29L56.3042,30.09375a1.5,1.5,0,0,1-.97021,2.645Z"/><path d="M24.48535,32.73877a1.5,1.5,0,0,1-.97021-2.645L38.94043,17.03857a1.50016,1.50016,0,1,1,1.93848,2.29L25.45361,32.38379A1.495,1.495,0,0,1,24.48535,32.73877Z"/><path d="M39.90967,58.18311a1.49976,1.49976,0,0,1-1.5-1.5V40.00049a1.5,1.5,0,0,1,3,0V56.68311A1.49976,1.49976,0,0,1,39.90967,58.18311Z"/><path d="M29.75391,58.18311a1.49976,1.49976,0,0,1-1.5-1.5V40.00049a1.5,1.5,0,0,1,3,0V56.68311A1.49976,1.49976,0,0,1,29.75391,58.18311Z"/><path d="M50.06494,58.18311a1.49976,1.49976,0,0,1-1.5-1.5V40.00049a1.5,1.5,0,0,1,3,0V56.68311A1.49976,1.49976,0,0,1,50.06494,58.18311Z"/><path d="M59.25,44.75732a1.49976,1.49976,0,0,1-1.5-1.5,1.75879,1.75879,0,0,0-1.75684-1.75684,1.5,1.5,0,0,1,0-3A4.76207,4.76207,0,0,1,60.75,43.25732,1.49976,1.49976,0,0,1,59.25,44.75732Z"/><path d="M20.75,44.75732a1.49976,1.49976,0,0,1-1.5-1.5,4.76207,4.76207,0,0,1,4.75684-4.75684,1.5,1.5,0,1,1,0,3A1.75879,1.75879,0,0,0,22.25,43.25732,1.49976,1.49976,0,0,1,20.75,44.75732Z"/></svg>