<svg id="Elements" xmlns="http://www.w3.org/2000/svg" viewBox="0 0 75 75"><title>alo_activities</title><path d="M44.1665,40.80957a1.00121,1.00121,0,0,1-.93994-0.65869L40.333,32.19922a0.9997,0.9997,0,1,1,1.87891-.68359l2.894,7.95166a0.99938,0.99938,0,0,1-.59766,1.28125A0.9869,0.9869,0,0,1,44.1665,40.80957Z"/><path d="M44.1665,44.14258A4.3335,4.3335,0,1,1,48.5,39.80908,4.33811,4.33811,0,0,1,44.1665,44.14258Zm0-6.667A2.3335,2.3335,0,1,0,46.5,39.80908,2.33582,2.33582,0,0,0,44.1665,37.47559Z"/><path d="M30.8335,44.14258a4.3335,4.3335,0,1,1,4.333-4.3335A4.33821,4.33821,0,0,1,30.8335,44.14258Zm0-6.667a2.3335,2.3335,0,1,0,2.333,2.3335A2.33623,2.33623,0,0,0,30.8335,37.47559Z"/><path d="M36.8335,40.80908h-6a1,1,0,1,1,0-2h6A1,1,0,0,1,36.8335,40.80908Z"/><path d="M36.83447,40.80908a1,1,0,0,1-.59961-1.80078l5.76465-4.30957a0.99981,0.99981,0,0,1,1.19727,1.60156l-5.76465,4.30957A0.99555,0.99555,0,0,1,36.83447,40.80908Z"/><path d="M35.75391,36.84424a1.00073,1.00073,0,0,1-.93994-0.65869l-1.2002-3.29883a0.99987,0.99987,0,0,1,1.87891-.68457l1.20117,3.2998A1.001,1.001,0,0,1,35.75391,36.84424Z"/><path d="M35.75293,36.84375a1,1,0,0,1-.1543-1.98779l6.59277-1.03467a0.99992,0.99992,0,1,1,.31055,1.97559l-6.59277,1.03467A1.00464,1.00464,0,0,1,35.75293,36.84375Z"/><path d="M36.21973,33.54443h-3.3335a1,1,0,0,1,0-2h3.3335A1,1,0,1,1,36.21973,33.54443Z"/><path d="M44.939,32.85742h-3.6665a1,1,0,0,1,0-2H44.939A1,1,0,1,1,44.939,32.85742Z"/></svg>