<svg xmlns="http://www.w3.org/2000/svg" viewBox="0 0 80 80"><title>alo_activities-recipes-small</title><path d="M40,80A40,40,0,1,1,80,40,40.04552,40.04552,0,0,1,40,80ZM40,3A37,37,0,1,0,77,40,37.04161,37.04161,0,0,0,40,3Z"/><path d="M50.34814,60.75H29.65186a3.98989,3.98989,0,0,1-3.98535-3.98535V40a1.50007,1.50007,0,0,1,1.5-1.5h25.667a1.50007,1.50007,0,0,1,1.5,1.5V56.76465A3.98989,3.98989,0,0,1,50.34814,60.75ZM28.6665,41.5V56.76465a.99846.99846,0,0,0,.98535.98535H50.34814a.99846.99846,0,0,0,.98535-.98535V41.5Z"/><path d="M27.1665,44.708H20.75a1.5,1.5,0,0,1,0-3h6.4165a1.5,1.5,0,1,1,0,3Z"/><path d="M59.25,44.708H52.8335a1.5,1.5,0,0,1,0-3H59.25a1.5,1.5,0,0,1,0,3Z"/><path d="M27.38574,31.876a1.49687,1.49687,0,0,1-1.29883-.75,7.91647,7.91647,0,1,1,13.71143-7.917,1.49942,1.49942,0,0,1-.54883,2.04883l-11.11377,6.417A1.49936,1.49936,0,0,1,27.38574,31.876Zm5.54883-9.624a4.91442,4.91442,0,0,0-4.79736,5.958L36.248,23.52734A4.93881,4.93881,0,0,0,32.93457,22.252Z"/><path d="M32.94336,41.5a1.49828,1.49828,0,0,1-1.30029-.75l-5.55615-9.624a1.49982,1.49982,0,0,1,2.59766-1.5l5.55615,9.624a1.50011,1.50011,0,0,1-1.29736,2.25Z"/><path d="M51.40039,34.1582a4.55235,4.55235,0,0,1-2.293-.59668,5.224,5.224,0,0,1-2.42627-4.3418,10.33347,10.33347,0,0,1,5.36914-9.2998,4.85754,4.85754,0,0,1,7.40088,4.27246,9.76286,9.76286,0,0,1-1.38184,5.40234,9.75673,9.75673,0,0,1-3.98779,3.89746A6.07468,6.07468,0,0,1,51.40039,34.1582ZM54.72949,22.249a3.20036,3.20036,0,0,0-1.34912.35938,7.35834,7.35834,0,0,0-3.70508,6.418,2.38877,2.38877,0,0,0,.93213,1.9375,2.381,2.381,0,0,0,2.14453-.16113,7.35523,7.35523,0,0,0,3.70508-6.417,2.38877,2.38877,0,0,0-.93213-1.9375A1.57187,1.57187,0,0,0,54.72949,22.249Z"/><path d="M45.38867,41.5a1.50011,1.50011,0,0,1-1.29736-2.25l4.46826-7.7373a1.49982,1.49982,0,0,1,2.59766,1.5L46.689,40.75A1.49828,1.49828,0,0,1,45.38867,41.5Z"/></svg>