<svg id="Elements" xmlns="http://www.w3.org/2000/svg" viewBox="0 0 75 75"><title>alo_activities</title><path d="M42.5,48.5a6,6,0,1,1,6-6A6.00656,6.00656,0,0,1,42.5,48.5Zm0-10a4,4,0,1,0,4,4A4.00427,4.00427,0,0,0,42.5,38.5Z"/><path d="M38.34473,46.27832a1,1,0,0,1-.501-1.86621c0.10645-.061.21387-0.12061,0.32227-0.17773a0.99988,0.99988,0,1,1,.92969,1.77051c-0.085.04443-.16895,0.09131-0.252,0.13965A0.99445,0.99445,0,0,1,38.34473,46.27832Z"/><path d="M46.36816,46.11963a0.99367,0.99367,0,0,1-.46387-0.11475,7.29551,7.29551,0,0,0-1.74609-.64746,1.00016,1.00016,0,1,1,.44922-1.94922,9.26348,9.26348,0,0,1,2.22656.82617A0.99982,0.99982,0,0,1,46.36816,46.11963Z"/><path d="M44.38379,45.38281a1.02112,1.02112,0,0,1-.22559-0.02539,7.31478,7.31478,0,0,0-3.31641,0,1.00016,1.00016,0,1,1-.44922-1.94922,9.36365,9.36365,0,0,1,4.21484,0A1.00007,1.00007,0,0,1,44.38379,45.38281Z"/><path d="M38.63184,46.11963a0.99982,0.99982,0,0,1-.46582-1.88525,9.26348,9.26348,0,0,1,2.22656-.82617,1.00016,1.00016,0,1,1,.44922,1.94922,7.29551,7.29551,0,0,0-1.74609.64746A0.99367,0.99367,0,0,1,38.63184,46.11963Z"/><path d="M46.65527,46.27832a0.99445,0.99445,0,0,1-.499-0.13379c-0.083-.04834-0.167-0.09521-0.252-0.13965a0.99988,0.99988,0,1,1,.92969-1.77051c0.1084,0.05713.21582,0.1167,0.32227,0.17773A1,1,0,0,1,46.65527,46.27832Z"/><path d="M46.37012,40.88037a0.99993,0.99993,0,0,1-.46973-1.8833c0.08594-.0459.17188-0.09277,0.25586-0.1416a1.00016,1.00016,0,1,1,1,1.73242c-0.10547.06055-.21094,0.11914-0.31836,0.17578A0.99678,0.99678,0,0,1,46.37012,40.88037Z"/><path d="M44.38184,41.61719a0.9999,0.9999,0,0,1-.22461-1.97412,7.28922,7.28922,0,0,0,1.74707-.64795,0.99988,0.99988,0,1,1,.92969,1.77051,9.271,9.271,0,0,1-2.22559.82568A1.002,1.002,0,0,1,44.38184,41.61719Z"/><path d="M40.61816,41.61719a1.002,1.002,0,0,1-.22656-0.02588,9.271,9.271,0,0,1-2.22559-.82568,0.99988,0.99988,0,1,1,.92969-1.77051,7.28922,7.28922,0,0,0,1.74707.64795A0.9999,0.9999,0,0,1,40.61816,41.61719Z"/><path d="M38.62988,40.88037a0.991,0.991,0,0,1-.46777-0.1167c-0.10742-.05664-0.21289-0.11523-0.31836-0.17578a1.00016,1.00016,0,1,1,1-1.73242c0.084,0.04883.16992,0.0957,0.25586,0.1416A0.99993,0.99993,0,0,1,38.62988,40.88037Z"/><path d="M42.5,41.8335a9.41041,9.41041,0,0,1-2.10742-.2417,1.00016,1.00016,0,1,1,.44922-1.94922,7.31478,7.31478,0,0,0,3.31641,0,1.00016,1.00016,0,0,1,.44922,1.94922A9.41041,9.41041,0,0,1,42.5,41.8335Z"/><path d="M30.833,43.5a4.33325,4.33325,0,1,1,4.334-4.3335A4.33779,4.33779,0,0,1,30.833,43.5Zm0-6.6665a2.33325,2.33325,0,1,0,2.334,2.333A2.33571,2.33571,0,0,0,30.833,36.8335Z"/><path d="M27.94824,41.8335A0.99964,0.99964,0,0,1,27.084,40.332a4.349,4.349,0,0,1,3.749-2.16553,1,1,0,0,1,0,2A2.34341,2.34341,0,0,0,28.81445,41.335,1.00035,1.00035,0,0,1,27.94824,41.8335Z"/><path d="M30.833,40.1665a1,1,0,1,1,0-2A2.34113,2.34113,0,0,0,32.85156,36.999,0.9998,0.9998,0,1,1,34.582,38.001,4.34661,4.34661,0,0,1,30.833,40.1665Z"/><path d="M37.5,35.165a4.33179,4.33179,0,1,1,3.06445-1.26758A4.32167,4.32167,0,0,1,37.5,35.165Zm0-6.66406a2.33228,2.33228,0,1,0,1.65039.68213A2.32828,2.32828,0,0,0,37.5,28.501Z"/><path d="M38.36133,35.05127a1.00256,1.00256,0,0,1-.96777-1.25781A2.33915,2.33915,0,0,0,36.793,31.541,1.00024,1.00024,0,0,1,38.207,30.126a4.3496,4.3496,0,0,1,1.12012,4.18213A1.00166,1.00166,0,0,1,38.36133,35.05127Z"/><path d="M37.5,31.8335a0.99676,0.99676,0,0,1-.707-0.293,4.34521,4.34521,0,0,1-1.11914-4.18311,0.99976,0.99976,0,1,1,1.93164.5166,2.33885,2.33885,0,0,0,.60156,2.25244A1,1,0,0,1,37.5,31.8335Z"/></svg>