<svg xmlns="http://www.w3.org/2000/svg" viewBox="0 0 80 80"><title>alo_icon_activity_theater-small</title><path d="M40,80A40,40,0,1,1,80,40,40.04552,40.04552,0,0,1,40,80ZM40,3A37,37,0,1,0,77,40,37.04161,37.04161,0,0,0,40,3Z"/><path d="M31.97949,43.4043a7.8763,7.8763,0,0,1-3.08154-.62207,1.5,1.5,0,0,1,1.167-2.76367,4.96609,4.96609,0,0,0,3.82861,0,1.5,1.5,0,1,1,1.167,2.76367A7.86862,7.86862,0,0,1,31.97949,43.4043Z"/><path d="M31.979,51.72461a1.5245,1.5245,0,0,1-.332-.03711A15.84578,15.84578,0,0,1,19.25,36.15039V24.9209a3.10789,3.10789,0,0,1,3.10449-3.10449H41.604a3.10779,3.10779,0,0,1,3.104,3.10449l.00049,11.22949A15.84641,15.84641,0,0,1,32.311,51.6875,1.5245,1.5245,0,0,1,31.979,51.72461Zm-9.62451-26.9082a.10461.10461,0,0,0-.10449.10449V36.15039a12.85816,12.85816,0,0,0,9.729,12.53125A12.8583,12.8583,0,0,0,41.7085,36.15039L41.708,24.9209a.10451.10451,0,0,0-.104-.10449Z"/><path d="M50.51807,53.5752a1.49172,1.49172,0,0,1-.58447-.11914,4.97632,4.97632,0,0,0-3.82568,0A1.49965,1.49965,0,1,1,44.938,50.69434a7.98281,7.98281,0,0,1,6.16553,0,1.49976,1.49976,0,0,1-.58545,2.88086Z"/><path d="M48.02051,63.31641a1.5245,1.5245,0,0,1-.332-.03711A15.90874,15.90874,0,0,1,35.30908,48.167a1.5,1.5,0,0,1,2.999-.08008,12.91012,12.91012,0,0,0,9.7124,12.18652A12.85918,12.85918,0,0,0,57.75,47.74121V36.5127a.10461.10461,0,0,0-.10449-.10449H43.208a1.5,1.5,0,0,1,0-3h14.4375A3.10789,3.10789,0,0,1,60.75,36.5127V47.74121A15.84568,15.84568,0,0,1,48.35254,63.2793,1.5245,1.5245,0,0,1,48.02051,63.31641Z"/><path d="M27.80859,34.90234a1.50007,1.50007,0,0,1-1.5-1.5v-2.8877a1.5,1.5,0,0,1,3,0v2.8877A1.50007,1.50007,0,0,1,27.80859,34.90234Z"/><path d="M36.1499,34.90234a1.50007,1.50007,0,0,1-1.5-1.5v-2.8877a1.5,1.5,0,0,1,3,0v2.8877A1.50007,1.50007,0,0,1,36.1499,34.90234Z"/><path d="M43.8501,46.49414a1.50007,1.50007,0,0,1-1.5-1.5v-2.8877a1.5,1.5,0,0,1,3,0v2.8877A1.50007,1.50007,0,0,1,43.8501,46.49414Z"/><path d="M52.19141,46.49414a1.50007,1.50007,0,0,1-1.5-1.5v-2.8877a1.5,1.5,0,0,1,3,0v2.8877A1.50007,1.50007,0,0,1,52.19141,46.49414Z"/></svg>