<svg id="Elements" xmlns="http://www.w3.org/2000/svg" viewBox="0 0 75 75"><title>alo_activities</title><path d="M47.499,48.5a0.9943,0.9943,0,0,1-.59961-0.20068,7.44679,7.44679,0,0,0-8.79883,0,0.99981,0.99981,0,1,1-1.20117-1.59863,9.333,9.333,0,0,1,11.20117,0A0.99977,0.99977,0,0,1,47.499,48.5Z"/><path d="M37.499,48.5a0.9943,0.9943,0,0,1-.59961-0.20068,7.44679,7.44679,0,0,0-8.79883,0,0.99981,0.99981,0,1,1-1.20117-1.59863,9.333,9.333,0,0,1,11.20117,0A0.99977,0.99977,0,0,1,37.499,48.5Z"/><path d="M47.499,30.1665a0.9943,0.9943,0,0,1-.59961-0.20068,7.44679,7.44679,0,0,0-8.79883,0,0.99981,0.99981,0,1,1-1.20117-1.59863,9.333,9.333,0,0,1,11.20117,0A0.99977,0.99977,0,0,1,47.499,30.1665Z"/><path d="M44.28711,35.73877a0.999,0.999,0,0,1-.32129-0.05371,4.60537,4.60537,0,0,0-2.93164,0,0.99981,0.99981,0,1,1-.64258-1.89355,6.60228,6.60228,0,0,1,4.2168,0A1.0001,1.0001,0,0,1,44.28711,35.73877Z"/><path d="M40.71289,39.07227a1.00044,1.00044,0,0,1-.32227-1.94727A6.53,6.53,0,0,1,42.5,36.77783a1,1,0,0,1,0,2,4.5344,4.5344,0,0,0-1.46484.24072A1.00478,1.00478,0,0,1,40.71289,39.07227Z"/><path d="M34.28711,32.40527a0.999,0.999,0,0,1-.32129-0.05371,4.60537,4.60537,0,0,0-2.93164,0A0.99981,0.99981,0,1,1,30.3916,30.458a6.60228,6.60228,0,0,1,4.2168,0A1.0001,1.0001,0,0,1,34.28711,32.40527Z"/><path d="M34.28711,39.07227a1.00478,1.00478,0,0,1-.32227-0.05371,4.5994,4.5994,0,0,0-2.92969,0,1.00012,1.00012,0,0,1-.64453-1.89355,6.60823,6.60823,0,0,1,4.21875,0A1.00044,1.00044,0,0,1,34.28711,39.07227Z"/><path d="M34.28711,35.73877a0.999,0.999,0,0,1-.32129-0.05371,4.60537,4.60537,0,0,0-2.93164,0,0.99981,0.99981,0,1,1-.64258-1.89355,6.60228,6.60228,0,0,1,4.2168,0A1.0001,1.0001,0,0,1,34.28711,35.73877Z"/><path d="M44.28711,32.40576a1.00478,1.00478,0,0,1-.32227-0.05371,4.5994,4.5994,0,0,0-2.92969,0,1.00012,1.00012,0,0,1-.64453-1.89355,6.60823,6.60823,0,0,1,4.21875,0A1.00044,1.00044,0,0,1,44.28711,32.40576Z"/><path d="M37.499,30.1665a0.9943,0.9943,0,0,1-.59961-0.20068,7.44679,7.44679,0,0,0-8.79883,0,0.99981,0.99981,0,1,1-1.20117-1.59863,9.333,9.333,0,0,1,11.20117,0A0.99977,0.99977,0,0,1,37.499,30.1665Z"/><path d="M37.5,48.5a0.99974,0.99974,0,0,1-1-1V29.1665a1,1,0,0,1,2,0V47.5A0.99974,0.99974,0,0,1,37.5,48.5Z"/><path d="M47.5,48.5a0.99974,0.99974,0,0,1-1-1V29.1665a1,1,0,0,1,2,0V47.5A0.99974,0.99974,0,0,1,47.5,48.5Z"/><path d="M27.5,48.5a0.99974,0.99974,0,0,1-1-1V29.1665a1,1,0,0,1,2,0V47.5A0.99974,0.99974,0,0,1,27.5,48.5Z"/></svg>