<svg id="Elements" xmlns="http://www.w3.org/2000/svg" viewBox="0 0 75 75"><title>alo_activities</title><g id="_Group_" data-name="&lt;Group&gt;"><path d="M36.6665,31.833h-8.333A1.83516,1.83516,0,0,1,26.5,30V27.5a1,1,0,0,1,2,0v2.333h8V27.5a1,1,0,0,1,2,0V30A1.83516,1.83516,0,0,1,36.6665,31.833Z"/><path d="M32.5,48.5a0.99974,0.99974,0,0,1-1-1V30.833a1,1,0,1,1,2,0V47.5A0.99974,0.99974,0,0,1,32.5,48.5Z"/><path d="M34.1665,31.833a0.99974,0.99974,0,0,1-1-1V27.5a1,1,0,0,1,2,0v3.333A0.99974,0.99974,0,0,1,34.1665,31.833Z"/><path d="M30.8335,31.833a0.99974,0.99974,0,0,1-1-1V27.5a1,1,0,0,1,2,0v3.333A0.99974,0.99974,0,0,1,30.8335,31.833Z"/><path d="M45.8335,48.5h-6.667a0.99974,0.99974,0,0,1-1-1v-10a0.99974,0.99974,0,0,1,1-1H47.5a1,1,0,0,1,0,2H46.8335v9A0.99974,0.99974,0,0,1,45.8335,48.5Zm-5.667-2h4.667v-8h-4.667v8Z"/><path d="M36.5,45.167a0.99974,0.99974,0,0,1-1-1v-5a0.99974,0.99974,0,0,1,1-1h2.6665a1,1,0,0,1,0,2H37.5v4A0.99974,0.99974,0,0,1,36.5,45.167Z"/><path d="M42.50244,34.1875a0.99676,0.99676,0,0,1-.707-0.293l-2.35693-2.35645a0.99964,0.99964,0,0,1,0-1.41406l2.35693-2.35742a0.99989,0.99989,0,0,1,1.41406,1.41406l-1.6499,1.65039,0.94287,0.94238,1.6499-1.64941a0.99989,0.99989,0,0,1,1.41406,1.41406l-2.35693,2.35645A0.99676,0.99676,0,0,1,42.50244,34.1875Z"/><path d="M44.85938,31.83105a1,1,0,0,1-.707-1.707,2.337,2.337,0,0,0,.68018-1.623,2.33261,2.33261,0,0,0-1.623.67969,0.99989,0.99989,0,0,1-1.41406-1.41406A4.34371,4.34371,0,0,1,45.978,26.64746a0.99864,0.99864,0,0,1,.7085.708,4.34741,4.34741,0,0,1-1.12012,4.18262A0.99676,0.99676,0,0,1,44.85938,31.83105Z"/><path d="M37.78857,36.54492a1,1,0,0,1-.707-1.707l3.53564-3.53613a0.99989,0.99989,0,1,1,1.41406,1.41406L38.49561,36.252A0.99676,0.99676,0,0,1,37.78857,36.54492Z"/></g></svg>