<svg xmlns="http://www.w3.org/2000/svg" viewBox="0 0 80 80"><title>alo_activities-music-small</title><path d="M40,80A40,40,0,1,1,80,40,40.04583,40.04583,0,0,1,40,80ZM40,3A37,37,0,1,0,77,40,37.04129,37.04129,0,0,0,40,3Z"/><path d="M36.792,52.4082a9.21031,9.21031,0,0,1-9.2002-9.2002,1.5,1.5,0,0,1,3,0,6.207,6.207,0,0,0,6.2002,6.2002,1.5,1.5,0,0,1,0,3Z"/><path d="M36.792,60.75A17.5415,17.5415,0,1,1,54.333,43.208,17.56165,17.56165,0,0,1,36.792,60.75Zm0-32.083A14.5415,14.5415,0,1,0,51.333,43.208,14.55816,14.55816,0,0,0,36.792,28.667Z"/><path d="M55.39063,29.95313a5.3541,5.3541,0,1,1,4.6416-2.67773h0a5.31872,5.31872,0,0,1-3.248,2.49316A5.4,5.4,0,0,1,55.39063,29.95313Zm.0127-7.70312a2.34995,2.34995,0,1,0,2.03125,3.52539h0A2.351,2.351,0,0,0,55.40332,22.25Z"/><path d="M43.84863,46.10547a1.50011,1.50011,0,0,1-1.29785-2.25l9.625-16.6709a1.49982,1.49982,0,0,1,2.59766,1.5l-9.625,16.6709A1.49808,1.49808,0,0,1,43.84863,46.10547Z"/></svg>