<svg xmlns="http://www.w3.org/2000/svg" viewBox="0 0 80 80"><title>alo_icon_activity_coffee-small</title><path d="M40,80A40,40,0,1,1,80,40,40.0452,40.0452,0,0,1,40,80ZM40,3A37,37,0,1,0,77,40,37.04192,37.04192,0,0,0,40,3Z"/><path d="M37.73926,59.4668A17.883,17.883,0,0,1,19.87646,41.604V36.57764a1.49976,1.49976,0,0,1,1.5-1.5h32.7251a1.49976,1.49976,0,0,1,1.5,1.5V41.604A17.88288,17.88288,0,0,1,37.73926,59.4668ZM22.87646,38.07764V41.604a14.86255,14.86255,0,1,0,29.7251,0V38.07764Z"/><path d="M54.10156,52.25439a8.13073,8.13073,0,0,1-3.0249-.62354,1.49985,1.49985,0,0,1,1.0918-2.79395,5.25665,5.25665,0,0,0,1.93311.41748,5.58813,5.58813,0,1,0,0-11.17627,1.5,1.5,0,0,1,0-3,8.58813,8.58813,0,1,1,0,17.17627Z"/><path d="M32.606,38.07764a5.77759,5.77759,0,1,1,0-11.55518,2.77783,2.77783,0,0,0,0-5.55566,1.5,1.5,0,0,1,0-3,5.77783,5.77783,0,0,1,0,11.55566,2.77759,2.77759,0,1,0,0,5.55518,1.5,1.5,0,0,1,0,3Z"/><path d="M45.439,38.07764a5.77759,5.77759,0,1,1,0-11.55518,2.77783,2.77783,0,1,0,0-5.55566,1.5,1.5,0,0,1,0-3,5.77783,5.77783,0,1,1,0,11.55566,2.77759,2.77759,0,1,0,0,5.55518,1.5,1.5,0,0,1,0,3Z"/></svg>