<svg xmlns="http://www.w3.org/2000/svg" viewBox="0 0 80 80"><title>alo_icon_activity_celebration-small</title><path d="M40,80A40,40,0,1,1,80,40,40.04552,40.04552,0,0,1,40,80ZM40,3A37,37,0,1,0,77,40,37.04161,37.04161,0,0,0,40,3Z"/><path d="M45.93457,55.6167c-7.81738,0-13.53125-14.17432-13.53125-21.55225a13.53174,13.53174,0,0,1,27.06348,0C59.4668,41.44238,53.752,55.6167,45.93457,55.6167Zm0-32.0835A10.54326,10.54326,0,0,0,35.40332,34.06445a28.84867,28.84867,0,0,0,3.35449,11.8252c2.22559,4.27539,4.84082,6.72705,7.17676,6.72705s4.95215-2.45166,7.17773-6.72705a28.84867,28.84867,0,0,0,3.35449-11.8252A10.54347,10.54347,0,0,0,45.93457,23.5332Z"/><path d="M45.93457,62.03369a1.50007,1.50007,0,0,1-1.5-1.5v-6.417a1.5,1.5,0,0,1,3,0v6.417A1.50007,1.50007,0,0,1,45.93457,62.03369Z"/><path d="M27.4873,51.33887c-5.5,0-9.52051-9.77832-9.52051-14.86816a9.51712,9.51712,0,0,1,17.37207-5.37744,1.50009,1.50009,0,1,1-2.47461,1.69629A6.517,6.517,0,0,0,20.9668,36.4707c0,4.126,3.4541,11.86816,6.52051,11.86816,2.04688,0,4.73242-3.80518,5.9873-8.48193a1.50043,1.50043,0,0,1,2.89844.77734C35.30566,44.61035,32.2334,51.33887,27.4873,51.33887Z"/><path d="M27.4873,55.6167a1.50007,1.50007,0,0,1-1.5-1.5V49.83887a1.5,1.5,0,0,1,3,0V54.1167A1.50007,1.50007,0,0,1,27.4873,55.6167Z"/></svg>