<svg xmlns="http://www.w3.org/2000/svg" viewBox="0 0 80 80"><title>alo_icon_activity_snowshoeing-small</title><path d="M40,80A40,40,0,1,1,80,40,40.04552,40.04552,0,0,1,40,80ZM40,3A37,37,0,1,0,77,40,37.04161,37.04161,0,0,0,40,3Z"/><path d="M54.1167,52.0918a1.50007,1.50007,0,0,1-1.5-1.5,4.91675,4.91675,0,1,0-9.8335,0,1.5,1.5,0,0,1-3,0,7.91675,7.91675,0,1,1,15.8335,0A1.50007,1.50007,0,0,1,54.1167,52.0918Z"/><path d="M44.49756,46.53809a1.49667,1.49667,0,0,1-1.19531-.59277l-6.42187-8.45508A1.49983,1.49983,0,0,1,39.269,35.67578l6.42188,8.45508a1.5,1.5,0,0,1-1.19336,2.40723Z"/><path d="M28.4502,55.29883a1.50007,1.50007,0,0,1-1.5-1.5V19.4668a1.50007,1.50007,0,0,1,1.5-1.5h9.62451a1.50007,1.50007,0,0,1,1.5,1.5V36.583a1.5,1.5,0,0,1-3,0V20.9668H29.9502v32.832A1.50007,1.50007,0,0,1,28.4502,55.29883Z"/><path d="M38.07471,38.083H28.4502a1.5,1.5,0,1,1,0-3h9.62451a1.5,1.5,0,0,1,0,3Z"/><path d="M60.5332,55.29883h-38.5a1.5,1.5,0,0,1,0-3h38.5a1.5,1.5,0,0,1,0,3Z"/><path d="M26.04395,59.4668a1.50007,1.50007,0,0,1-1.5-1.5v-4.168a1.5,1.5,0,0,1,3,0v4.168A1.50007,1.50007,0,0,1,26.04395,59.4668Z"/><path d="M33.66357,59.4668a1.50007,1.50007,0,0,1-1.5-1.5v-4.168a1.5,1.5,0,0,1,3,0v4.168A1.50007,1.50007,0,0,1,33.66357,59.4668Z"/><path d="M41.2832,59.4668a1.50007,1.50007,0,0,1-1.5-1.5v-4.168a1.5,1.5,0,0,1,3,0v4.168A1.50007,1.50007,0,0,1,41.2832,59.4668Z"/><path d="M41.2832,55.29883a1.50007,1.50007,0,0,1-1.5-1.5v-3.207a1.5,1.5,0,0,1,3,0v3.207A1.50007,1.50007,0,0,1,41.2832,55.29883Z"/><path d="M54.1167,55.29883a1.50007,1.50007,0,0,1-1.5-1.5v-3.207a1.5,1.5,0,1,1,3,0v3.207A1.50007,1.50007,0,0,1,54.1167,55.29883Z"/><path d="M48.90332,59.4668a1.50007,1.50007,0,0,1-1.5-1.5v-4.168a1.5,1.5,0,1,1,3,0v4.168A1.50007,1.50007,0,0,1,48.90332,59.4668Z"/><path d="M56.52295,59.4668a1.50007,1.50007,0,0,1-1.5-1.5v-4.168a1.5,1.5,0,0,1,3,0v4.168A1.50007,1.50007,0,0,1,56.52295,59.4668Z"/><path d="M36.3877,45.4082a1.5,1.5,0,0,1-.9082-2.69434l4.59863-3.49316a1.49983,1.49983,0,1,1,1.81445,2.38867l-4.59863,3.49316A1.49248,1.49248,0,0,1,36.3877,45.4082Z"/></svg>