<svg id="Elements" xmlns="http://www.w3.org/2000/svg" viewBox="0 0 75 75"><title>alo_activities</title><path d="M45,48.5H30A3.50425,3.50425,0,0,1,26.5,45V38.3335a3.50425,3.50425,0,0,1,3.5-3.5H45a3.50425,3.50425,0,0,1,3.5,3.5V45A3.50425,3.50425,0,0,1,45,48.5ZM30,36.8335a1.50164,1.50164,0,0,0-1.5,1.5V45A1.50164,1.50164,0,0,0,30,46.5H45A1.50164,1.50164,0,0,0,46.5,45V38.3335a1.50164,1.50164,0,0,0-1.5-1.5H30Z"/><path d="M39.1665,46A4.33325,4.33325,0,1,1,43.5,41.6665,4.33811,4.33811,0,0,1,39.1665,46Zm0-6.6665A2.33325,2.33325,0,1,0,41.5,41.6665,2.3354,2.3354,0,0,0,39.1665,39.3335Z"/><path d="M33.3335,36.8335a1,1,0,0,1-1-1V32.5a1,1,0,0,1,2,0v3.3335A1,1,0,0,1,33.3335,36.8335Z"/><path d="M30.8335,42.6665H27.5a1,1,0,0,1,0-2h3.3335A1,1,0,0,1,30.8335,42.6665Z"/><path d="M36.6665,33.5H30a1,1,0,0,1-1-1v-5a1,1,0,0,1,1-1h6.6665a1,1,0,0,1,1,1v5A1,1,0,0,1,36.6665,33.5ZM31,31.5h4.6665v-3H31v3Z"/></svg>