<svg xmlns="http://www.w3.org/2000/svg" viewBox="0 0 80 80"><title>alo_activities-groceries-small</title><path d="M40,80A40,40,0,1,1,80,40,40.04583,40.04583,0,0,1,40,80ZM40,3A37,37,0,1,0,77,40,37.04129,37.04129,0,0,0,40,3Z"/><path d="M52.2207,58.18359H27.7793A8.53889,8.53889,0,0,1,19.25,49.6543V31.0166a1.50039,1.50039,0,0,1,1.5-1.5h38.5a1.50039,1.50039,0,0,1,1.5,1.5V49.6543A8.53889,8.53889,0,0,1,52.2207,58.18359ZM22.25,32.5166V49.6543a5.53561,5.53561,0,0,0,5.5293,5.5293H52.2207A5.53561,5.53561,0,0,0,57.75,49.6543V32.5166Z"/><path d="M49.47949,32.5166a1.501,1.501,0,0,1-1.49023-1.34277C47.2998,24.623,43.86523,19.68359,40,19.68359S32.7002,24.623,32.01172,31.17383a1.50045,1.50045,0,1,1-2.98437-.31445C29.8916,22.64551,34.50586,16.68359,40,16.68359c5.49316,0,10.1084,5.96191,10.97363,14.17578a1.50168,1.50168,0,0,1-1.335,1.64941C49.585,32.51367,49.53223,32.5166,49.47949,32.5166Z"/></svg>