<svg id="Elements" xmlns="http://www.w3.org/2000/svg" viewBox="0 0 75 75"><title>alo_activities</title><g id="_Group_" data-name="&lt;Group&gt;"><path d="M27.5,48.5a1,1,0,0,1-1-1V29.167A2.66976,2.66976,0,0,1,29.1665,26.5h16.667A2.66976,2.66976,0,0,1,48.5,29.167V42.5a2.66976,2.66976,0,0,1-2.6665,2.667H31.24756L28.207,48.207A0.99978,0.99978,0,0,1,27.5,48.5Zm1.6665-20a0.66715,0.66715,0,0,0-.6665.667V45.08594l1.62646-1.626a1.00013,1.00013,0,0,1,.707-0.293h15A0.66715,0.66715,0,0,0,46.5,42.5V29.167a0.66715,0.66715,0,0,0-.6665-0.667H29.1665Z"/><g id="_Group_2" data-name="&lt;Group&gt;"><path d="M40.75,39.333a1,1,0,0,1-.707-1.707l1.793-1.793L40.043,34.04A0.99989,0.99989,0,0,1,41.457,32.626l2.5,2.5a0.99964,0.99964,0,0,1,0,1.41406l-2.5,2.5A0.99676,0.99676,0,0,1,40.75,39.333Z"/><path d="M34.25,39.333a0.99676,0.99676,0,0,1-.707-0.293l-2.5-2.5a0.99964,0.99964,0,0,1,0-1.41406l2.5-2.5A0.99989,0.99989,0,0,1,34.957,34.04l-1.793,1.793,1.793,1.793A1,1,0,0,1,34.25,39.333Z"/></g><path d="M43.25,36.833H31.75a1,1,0,0,1,0-2h11.5A1,1,0,0,1,43.25,36.833Z"/></g></svg>