<svg id="Elements" xmlns="http://www.w3.org/2000/svg" viewBox="0 0 75 75"><title>alo_activities</title><g id="_Group_" data-name="&lt;Group&gt;"><path d="M31.6665,48.5a4.33835,4.33835,0,0,1-4.3335-4.29785L26.50244,31.7334A5.16551,5.16551,0,1,1,36.833,31.667L35.99756,44.2334A4.32056,4.32056,0,0,1,31.6665,48.5Zm0-20A3.17041,3.17041,0,0,0,28.5,31.667l0.83057,12.43359C29.332,44.123,29.333,44.14453,29.333,44.167a2.3335,2.3335,0,0,0,4.667,0l0.83545-12.56641A3.16086,3.16086,0,0,0,31.6665,28.5Z"/><path d="M43.3335,48.5A4.33835,4.33835,0,0,1,39,44.20215L38.16943,31.7334A5.16551,5.16551,0,1,1,48.5,31.667L47.66455,44.2334A4.32056,4.32056,0,0,1,43.3335,48.5Zm0-20a3.17041,3.17041,0,0,0-3.1665,3.167l0.83057,12.43359C40.999,44.123,41,44.14453,41,44.167a2.3335,2.3335,0,0,0,4.667,0l0.83545-12.56641A3.16086,3.16086,0,0,0,43.3335,28.5Z"/><path d="M35.44434,38.5H27.88867a1,1,0,0,1,0-2h7.55566A1,1,0,0,1,35.44434,38.5Z"/><path d="M35.64453,35.5H27.689a1,1,0,1,1,0-2h7.95557A1,1,0,0,1,35.64453,35.5Z"/><path d="M47.11133,38.5H39.55566a1,1,0,0,1,0-2h7.55566A1,1,0,0,1,47.11133,38.5Z"/><path d="M47.311,35.5H39.35547a1,1,0,0,1,0-2H47.311A1,1,0,0,1,47.311,35.5Z"/><path d="M31.6665,41.5a0.99974,0.99974,0,0,1-1-1v-6a1,1,0,0,1,2,0v6A0.99974,0.99974,0,0,1,31.6665,41.5Z"/><path d="M43.333,41.5a0.99974,0.99974,0,0,1-1-1v-6a1,1,0,0,1,2,0v6A0.99974,0.99974,0,0,1,43.333,41.5Z"/></g></svg>