<svg id="Elements" xmlns="http://www.w3.org/2000/svg" viewBox="0 0 75 75"><title>alo_activities</title><path d="M30.833,48.5a0.99974,0.99974,0,0,1-1-1v-20a0.99974,0.99974,0,0,1,1-1H47.5a1,1,0,0,1,0,2H31.833v19A0.99974,0.99974,0,0,1,30.833,48.5Z"/><path d="M37.667,31.8335H34a1,1,0,0,1,0-2h3.667A1,1,0,0,1,37.667,31.8335Z"/><path d="M37.667,38.5H34a1,1,0,0,1,0-2h3.667A1,1,0,0,1,37.667,38.5Z"/><path d="M41,35.1665H34a1,1,0,0,1,0-2h7A1,1,0,0,1,41,35.1665Z"/><path d="M41,41.8335H34a1,1,0,0,1,0-2h7A1,1,0,0,1,41,41.8335Z"/><path d="M41,45.1665H34a1,1,0,0,1,0-2h7A1,1,0,0,1,41,45.1665Z"/><path d="M44.167,48.5H27.5a1,1,0,0,1,0-2H43.167v-19a1,1,0,0,1,2,0v20A0.99974,0.99974,0,0,1,44.167,48.5Z"/></svg>