<svg xmlns="http://www.w3.org/2000/svg" viewBox="0 0 80 80"><title>alo_icon_activity_dance-small</title><path d="M40,80A40,40,0,1,1,80,40,40.04552,40.04552,0,0,1,40,80ZM40,3A37,37,0,1,0,77,40,37.04161,37.04161,0,0,0,40,3Z"/><path d="M40,58.18359a17.542,17.542,0,1,1,17.5415-17.542A17.56154,17.56154,0,0,1,40,58.18359Zm0-32.084a14.542,14.542,0,1,0,14.5415,14.542A14.55826,14.55826,0,0,0,40,26.09961Z"/><path d="M40,26.09961a1.50007,1.50007,0,0,1-1.5-1.5v-6.416a1.5,1.5,0,0,1,3,0v6.416A1.50007,1.50007,0,0,1,40,26.09961Z"/><path d="M45.1333,47.27539a1.50007,1.50007,0,0,1-1.5-1.5V35.50879a1.5,1.5,0,0,1,3,0v10.2666A1.50007,1.50007,0,0,1,45.1333,47.27539Z"/><path d="M45.1333,37.00879a1.50007,1.50007,0,0,1-1.5-1.5V25.4541a1.5,1.5,0,1,1,3,0V35.50879A1.50007,1.50007,0,0,1,45.1333,37.00879Z"/><path d="M45.1333,57.3291a1.50007,1.50007,0,0,1-1.5-1.5V45.77539a1.5,1.5,0,0,1,3,0V55.8291A1.50007,1.50007,0,0,1,45.1333,57.3291Z"/><path d="M34.8667,37.00879a1.50007,1.50007,0,0,1-1.5-1.5V25.4541a1.5,1.5,0,1,1,3,0V35.50879A1.50007,1.50007,0,0,1,34.8667,37.00879Z"/><path d="M34.8667,57.3291a1.50007,1.50007,0,0,1-1.5-1.5V45.77539a1.5,1.5,0,0,1,3,0V55.8291A1.50007,1.50007,0,0,1,34.8667,57.3291Z"/><path d="M34.8667,47.27539a1.50007,1.50007,0,0,1-1.5-1.5V35.50879a1.5,1.5,0,0,1,3,0v10.2666A1.50007,1.50007,0,0,1,34.8667,47.27539Z"/><path d="M45.1333,47.27539H34.8667a1.5,1.5,0,0,1,0-3H45.1333a1.5,1.5,0,0,1,0,3Z"/><path d="M55.187,47.27539H45.1333a1.5,1.5,0,0,1,0-3H55.187a1.5,1.5,0,0,1,0,3Z"/><path d="M34.8667,47.27539H24.813a1.5,1.5,0,0,1,0-3H34.8667a1.5,1.5,0,0,1,0,3Z"/><path d="M34.8667,37.00879H24.813a1.5,1.5,0,0,1,0-3H34.8667a1.5,1.5,0,0,1,0,3Z"/><path d="M55.187,37.00879H45.1333a1.5,1.5,0,0,1,0-3H55.187a1.5,1.5,0,0,1,0,3Z"/><path d="M45.1333,37.00879H34.8667a1.5,1.5,0,0,1,0-3H45.1333a1.5,1.5,0,0,1,0,3Z"/></svg>