<svg id="Elements" xmlns="http://www.w3.org/2000/svg" viewBox="0 0 75 75"><title>alo_activities</title><path d="M44.1665,48.5a4.33811,4.33811,0,0,1-4.333-4.3335V37.5a4.33325,4.33325,0,1,1,8.6665,0v6.6665A4.33821,4.33821,0,0,1,44.1665,48.5Zm0-13.3335A2.33582,2.33582,0,0,0,41.8335,37.5v6.6665a2.33325,2.33325,0,1,0,4.6665,0V37.5A2.33623,2.33623,0,0,0,44.1665,35.1665Z"/><path d="M44.1665,40.1665a1,1,0,0,1-1-1v-7.083a1,1,0,0,1,2,0v7.083A1,1,0,0,1,44.1665,40.1665Z"/><path d="M47.5,40.1665H40.8335a1,1,0,0,1,0-2H47.5A1,1,0,0,1,47.5,40.1665Z"/><path d="M31.25,41.8335A4.75551,4.75551,0,0,1,26.5,37.083V31.6665a1,1,0,0,1,2,0V37.083a2.75024,2.75024,0,1,0,5.50049,0V32.0835a1,1,0,0,1,2,0V37.083A4.75561,4.75561,0,0,1,31.25,41.8335Z"/><path d="M44.1665,33.0835a1,1,0,0,1-1-1,3.58325,3.58325,0,1,0-7.1665,0,1,1,0,0,1-2,0,5.58325,5.58325,0,1,1,11.1665,0A1,1,0,0,1,44.1665,33.0835Z"/></svg>