<svg xmlns="http://www.w3.org/2000/svg" viewBox="0 0 80 80"><title>alo_icon_activity_crafts-small</title><path d="M40,80A40,40,0,1,1,80,40,40.04552,40.04552,0,0,1,40,80ZM40,3A37,37,0,1,0,77,40,37.04161,37.04161,0,0,0,40,3Z"/><path d="M44.49121,35.0835a7.91675,7.91675,0,1,1,7.916-7.917A7.92623,7.92623,0,0,1,44.49121,35.0835Zm0-12.8335a4.91675,4.91675,0,1,0,4.916,4.9165A4.92253,4.92253,0,0,0,44.49121,22.25Z"/><path d="M31.6582,47.9165a1.50007,1.50007,0,0,1-1.5-1.5,4.71383,4.71383,0,0,1,4.708-4.7085A1.71013,1.71013,0,0,0,36.57422,40a7.92581,7.92581,0,0,1,7.917-7.9165,1.5,1.5,0,0,1,0,3A4.92253,4.92253,0,0,0,39.57422,40a4.71341,4.71341,0,0,1-4.708,4.708,1.71055,1.71055,0,0,0-1.708,1.7085A1.50007,1.50007,0,0,1,31.6582,47.9165Z"/><path d="M36.06445,60.74658a8.7825,8.7825,0,0,1-2.24414-.2915,1.4987,1.4987,0,0,1-1.06738-1.06738,8.65982,8.65982,0,0,1,10.627-10.62549,1.49861,1.49861,0,0,1,1.06641,1.06641,8.64383,8.64383,0,0,1-8.38184,10.918ZM35.4873,57.7207a5.64773,5.64773,0,0,0,6.22559-6.22461A5.64773,5.64773,0,0,0,35.4873,57.7207Z"/><path d="M42.99609,51.7124a1.5,1.5,0,0,1-1.06055-2.56055L58.18945,32.89795A1.49984,1.49984,0,1,1,60.31055,35.019L44.05664,51.27295A1.49514,1.49514,0,0,1,42.99609,51.7124Z"/><path d="M55.5166,51.27295a1.49094,1.49094,0,0,1-.749-.20166L29.585,36.53174a1.49982,1.49982,0,1,1,1.5-2.59766L56.26758,48.47363a1.50031,1.50031,0,0,1-.751,2.79932Z"/><path d="M25.502,38.019A10.99279,10.99279,0,0,1,20,36.55469a1.49953,1.49953,0,0,1-.54883-2.04883l4.8125-8.33545a1.50008,1.50008,0,0,1,2.04883-.54883A11.14834,11.14834,0,0,1,31.835,35.228a1.49912,1.49912,0,0,1-.75391,1.30615A11.22729,11.22729,0,0,1,25.502,38.019Zm-2.63379-3.43213a8.016,8.016,0,0,0,5.917-.249,8.01383,8.01383,0,0,0-2.74316-5.248Z"/></svg>