<svg id="Elements" xmlns="http://www.w3.org/2000/svg" viewBox="0 0 75 75"><title>alo_activities</title><path d="M39.333,35.1665a2.6665,2.6665,0,0,1,0-5.333,0.66675,0.66675,0,1,0,0-1.3335,1,1,0,0,1,0-2,2.66675,2.66675,0,1,1,0,5.3335,0.6665,0.6665,0,0,0,0,1.333A1,1,0,0,1,39.333,35.1665Z"/><path d="M34,35.1665a2.6665,2.6665,0,1,1,0-5.333A0.66675,0.66675,0,1,0,34,28.5a1,1,0,0,1,0-2,2.66675,2.66675,0,1,1,0,5.3335,0.6665,0.6665,0,1,0,0,1.333A1,1,0,0,1,34,35.1665Z"/><path d="M36,48.5A9.51081,9.51081,0,0,1,26.5,39V37.90918a0.99974,0.99974,0,0,1,1-1h17a0.99974,0.99974,0,0,1,1,1V39A9.51081,9.51081,0,0,1,36,48.5Zm-7.5-9.59082V39a7.5,7.5,0,0,0,15,0V38.90918h-15Z"/><path d="M44.5,44.90918a3.946,3.946,0,0,1-1.79687-.43994,0.99969,0.99969,0,1,1,.90234-1.78418A1.99507,1.99507,0,1,0,44.5,38.90918a1,1,0,0,1,0-2A4,4,0,0,1,44.5,44.90918Z"/></svg>