<svg xmlns="http://www.w3.org/2000/svg" viewBox="0 0 80 80"><title>alo_icon_activity_computer-small</title><path d="M40,80A40,40,0,1,1,80,40,40.04552,40.04552,0,0,1,40,80ZM40,3A37,37,0,1,0,77,40,37.04161,37.04161,0,0,0,40,3Z"/><path d="M52.833,60.75a7.925,7.925,0,0,1-7.916-7.9165V40A7.9165,7.9165,0,1,1,60.75,40V52.8335A7.92581,7.92581,0,0,1,52.833,60.75Zm0-25.6665A4.9217,4.9217,0,0,0,47.917,40V52.8335a4.9165,4.9165,0,1,0,9.833,0V40A4.92253,4.92253,0,0,0,52.833,35.0835Z"/><path d="M52.833,35.0835a1.50007,1.50007,0,0,1-1.5-1.5V29.57275a1.5,1.5,0,0,1,3,0V33.5835A1.50007,1.50007,0,0,1,52.833,35.0835Z"/><path d="M59.25,44.7085H46.417a1.5,1.5,0,0,1,0-3H59.25a1.5,1.5,0,0,1,0,3Z"/><path d="M27.96875,47.9165A8.72894,8.72894,0,0,1,19.25,39.19727V28.771a1.5,1.5,0,1,1,3,0V39.19727a5.71924,5.71924,0,1,0,11.43848,0V29.57275a1.5,1.5,0,0,1,3,0v9.62451A8.72977,8.72977,0,0,1,27.96875,47.9165Z"/><path d="M52.833,31.07275a1.50007,1.50007,0,0,1-1.5-1.5,7.32275,7.32275,0,1,0-14.64551,0,1.5,1.5,0,1,1-3,0,10.32275,10.32275,0,1,1,20.64551,0A1.50007,1.50007,0,0,1,52.833,31.07275Z"/></svg>