<svg xmlns="http://www.w3.org/2000/svg" viewBox="0 0 80 80"><title>alo_icon_activity_cinema-small</title><path d="M40,80A40,40,0,1,1,80,40,40.04552,40.04552,0,0,1,40,80ZM40,3A37,37,0,1,0,77,40,37.04192,37.04192,0,0,0,40,3Z"/><path d="M44.57227,55.61621H28.4502a7.92539,7.92539,0,0,1-7.917-7.916v-6.417a7.92581,7.92581,0,0,1,7.917-7.9165H44.57227a7.92539,7.92539,0,0,1,7.9165,7.9165v6.417A7.925,7.925,0,0,1,44.57227,55.61621ZM28.4502,36.3667a4.92222,4.92222,0,0,0-4.917,4.9165v6.417a4.9218,4.9218,0,0,0,4.917,4.916H44.57227a4.9217,4.9217,0,0,0,4.9165-4.916v-6.417a4.92211,4.92211,0,0,0-4.9165-4.9165Z"/><path d="M28.44971,36.3667a7.91675,7.91675,0,1,1,7.917-7.9165A7.92539,7.92539,0,0,1,28.44971,36.3667Zm0-12.8335a4.91675,4.91675,0,1,0,4.917,4.917A4.92222,4.92222,0,0,0,28.44971,23.5332Z"/><path d="M44.57227,36.3667a7.91675,7.91675,0,1,1,7.9165-7.9165A7.92539,7.92539,0,0,1,44.57227,36.3667Zm0-12.8335a4.91675,4.91675,0,1,0,4.9165,4.917A4.92222,4.92222,0,0,0,44.57227,23.5332Z"/><path d="M59.39893,54.40234a3.08247,3.08247,0,0,1-2.19531-.91016l-6.80518-6.80566a3.10441,3.10441,0,0,1,.00049-4.39062l6.80518-6.80518a3.10618,3.10618,0,0,1,4.38965,0,1.49976,1.49976,0,0,1,.43945,1.06055V52.43164a1.50014,1.50014,0,0,1-.439,1.06055A3.08247,3.08247,0,0,1,59.39893,54.40234Zm1.13428-1.9707h0Zm-1.5-14.52783L52.51953,44.418a.1169.1169,0,0,0,.00049.14746L59.0332,51.0791Z"/><path d="M36.51123,62.0332a1.50007,1.50007,0,0,1-1.5-1.5v-6.417a1.5,1.5,0,0,1,3,0v6.417A1.50007,1.50007,0,0,1,36.51123,62.0332Z"/><path d="M50.989,44.49163" style="fill:none;stroke:#000;stroke-linecap:round;stroke-linejoin:round;stroke-width:3px"/><path d="M44.57237,44.49163" style="fill:none;stroke:#000;stroke-linecap:round;stroke-linejoin:round;stroke-width:3px"/><path d="M38.11523,45.99121H31.05713a1.5,1.5,0,0,1,0-3h7.05811a1.5,1.5,0,1,1,0,3Z"/></svg>