<svg xmlns="http://www.w3.org/2000/svg" viewBox="0 0 80 80"><title>alo_icon_activity_meals-small</title><path d="M40,80A40,40,0,1,1,80,40,40.04552,40.04552,0,0,1,40,80ZM40,3A37,37,0,1,0,77,40,37.04161,37.04161,0,0,0,40,3Z"/><path d="M31.6084,41.00635c-.02051,0-.042-.00049-.0625-.00146a1.50023,1.50023,0,0,1-1.083-.52979L19.60449,27.6416a1.49958,1.49958,0,0,1,.085-2.0293l5.92285-5.92285a1.49856,1.49856,0,0,1,2.0293-.08447l12.833,10.85889a1.49884,1.49884,0,0,1,.0918,2.20557l-7.89746,7.89746A1.50026,1.50026,0,0,1,31.6084,41.00635ZM22.78613,26.75781,31.7002,37.293l5.59277-5.5918L26.75781,22.78662Z"/><path d="M47.00879,54.03711a1.50017,1.50017,0,0,1-1.06055-.43945l-8.292-8.29248a1.49945,1.49945,0,0,1,0-2.12109l20.5332-20.5332a1.5,1.5,0,0,1,2.44141,1.647L48.38965,53.12354a1.50162,1.50162,0,0,1-1.09473.88623A1.54254,1.54254,0,0,1,47.00879,54.03711Zm-6.1709-9.79248,5.65918,5.65967L54.85156,30.231Z"/><path d="M59.25,60.75a1.49514,1.49514,0,0,1-1.06055-.43945L47.5957,49.71729a1.49984,1.49984,0,0,1,2.12109-2.12109L60.31055,58.18945A1.5,1.5,0,0,1,59.25,60.75Z"/><path d="M41.48047,42.981a1.49514,1.49514,0,0,1-1.06055-.43945l-5.92285-5.92334a1.49984,1.49984,0,0,1,2.12109-2.12109L42.541,40.42041A1.5,1.5,0,0,1,41.48047,42.981Z"/><path d="M23.71094,60.75a1.5,1.5,0,0,1-1.06055-2.56055L37.65625,43.18408a1.49984,1.49984,0,0,1,2.12109,2.12109L24.77148,60.31055A1.49514,1.49514,0,0,1,23.71094,60.75Z"/></svg>