<svg xmlns="http://www.w3.org/2000/svg" viewBox="0 0 80 80"><title>alo_icon_activity_games-small</title><path d="M40,80A40,40,0,1,1,80,40,40.0452,40.0452,0,0,1,40,80ZM40,3A37,37,0,1,0,77,40,37.04192,37.04192,0,0,0,40,3Z"/><path d="M48.55078,60.46436a4.03991,4.03991,0,0,1-2.87549-1.19141L37.81836,51.416a4.07046,4.07046,0,0,1,0-5.751l7.85693-7.85693a4.07223,4.07223,0,0,1,5.751-.00049L59.2832,45.665a4.07267,4.07267,0,0,1,.00049,5.751l-7.85742,7.85693A4.03991,4.03991,0,0,1,48.55078,60.46436Zm0-20.84668a1.06314,1.06314,0,0,0-.75439.312l-7.85693,7.85645a1.068,1.068,0,0,0,0,1.50879l7.85693,7.85693a1.068,1.068,0,0,0,1.50879,0l7.85693-7.85693a1.06845,1.06845,0,0,0-.00049-1.50879L49.30518,39.9292A1.06468,1.06468,0,0,0,48.55078,39.61768Z"/><path d="M29.10547,42.77637a4.0689,4.0689,0,0,1-3.52881-2.03223L20.021,31.12158a4.07176,4.07176,0,0,1,1.48828-5.55518l9.62256-5.55566A4.073,4.073,0,0,1,36.687,21.499l5.55566,9.623a4.07121,4.07121,0,0,1-1.48828,5.55518l-9.62256,5.55518A4.03744,4.03744,0,0,1,29.10547,42.77637Zm4.05811-20.31006a1.06332,1.06332,0,0,0-.53223.14258l-9.62207,5.55518a1.06815,1.06815,0,0,0-.39014,1.45752l5.55518,9.62256a1.06959,1.06959,0,0,0,1.45752.39063l9.62256-5.55566v-.00049a1.0669,1.0669,0,0,0,.39014-1.45654l-5.55518-9.623A1.06817,1.06817,0,0,0,33.16357,22.46631Z"/><path d="M48.55078,60.71973a1.49976,1.49976,0,0,1-1.5-1.5V37.86133a1.5,1.5,0,1,1,3,0v21.3584A1.49976,1.49976,0,0,1,48.55078,60.71973Z"/><path d="M41.44824,35.38623a1.48871,1.48871,0,0,1-.38916-.05176L20.42822,29.80664a1.49984,1.49984,0,1,1,.77637-2.89746L41.83545,32.437a1.50022,1.50022,0,0,1-.38721,2.94922Z"/></svg>