<svg xmlns="http://www.w3.org/2000/svg" viewBox="0 0 80 80"><title>alo_icon_activity_story-small</title><path d="M40,80A40,40,0,1,1,80,40,40.04552,40.04552,0,0,1,40,80ZM40,3A37,37,0,1,0,77,40,37.04161,37.04161,0,0,0,40,3Z"/><path d="M43.84961,41.5H36.15039a1.5,1.5,0,1,1,0-3h7.69922a1.5,1.5,0,1,1,0,3Z"/><path d="M43.84961,31.875H36.15039a1.5,1.5,0,1,1,0-3h7.69922a1.5,1.5,0,1,1,0,3Z"/><path d="M43.84961,51.125H36.15039a1.5,1.5,0,1,1,0-3h7.69922a1.5,1.5,0,1,1,0,3Z"/><path d="M27.167,60.75a1.50007,1.50007,0,0,1-1.5-1.5V20.75a1.50007,1.50007,0,0,1,1.5-1.5H59.25a1.5,1.5,0,0,1,0,3H28.667v37A1.50007,1.50007,0,0,1,27.167,60.75Z"/><path d="M52.833,60.75H20.75a1.5,1.5,0,0,1,0-3H51.333v-37a1.5,1.5,0,0,1,3,0v38.5A1.50007,1.50007,0,0,1,52.833,60.75Z"/></svg>