<svg id="Elements" xmlns="http://www.w3.org/2000/svg" viewBox="0 0 75 75"><title>alo_activities</title><path d="M47.36621,48.5H27.54a1,1,0,1,1,0-2H47.36621A1,1,0,0,1,47.36621,48.5Z"/><path d="M45.80762,38.5H29.19141a1,1,0,0,1,0-2H45.80762A1,1,0,0,1,45.80762,38.5Z"/><path d="M46.7998,35.28223H28.10645a1,1,0,1,1,0-2H46.7998A1,1,0,0,1,46.7998,35.28223Z"/><path d="M46.79883,35.28223a0.99534,0.99534,0,0,1-.58594-0.19043l-9.34668-6.78223A0.99994,0.99994,0,1,1,38.04,26.69043l9.34668,6.78223A0.99985,0.99985,0,0,1,46.79883,35.28223Z"/><path d="M28.10742,35.28223a0.99985,0.99985,0,0,1-.58789-1.80957l9.34668-6.78223A0.99994,0.99994,0,1,1,38.04,28.30957L28.69336,35.0918A0.99534,0.99534,0,0,1,28.10742,35.28223Z"/><path d="M37.45313,48.5a0.99974,0.99974,0,0,1-1-1v-10a1,1,0,0,1,2,0v10A0.99974,0.99974,0,0,1,37.45313,48.5Z"/><path d="M34.14844,48.5a0.99974,0.99974,0,0,1-1-1v-10a1,1,0,0,1,2,0v10A0.99974,0.99974,0,0,1,34.14844,48.5Z"/><path d="M30.84375,48.5a0.99974,0.99974,0,0,1-1-1v-10a1,1,0,0,1,2,0v10A0.99974,0.99974,0,0,1,30.84375,48.5Z"/><path d="M40.75781,48.5a0.99974,0.99974,0,0,1-1-1v-10a1,1,0,0,1,2,0v10A0.99974,0.99974,0,0,1,40.75781,48.5Z"/><path d="M44.06152,48.5a0.99974,0.99974,0,0,1-1-1v-10a1,1,0,0,1,2,0v10A0.99974,0.99974,0,0,1,44.06152,48.5Z"/><path d="M47.5,40.19189a0.99974,0.99974,0,0,1-1-1A0.693,0.693,0,0,0,45.80762,38.5a1,1,0,0,1,0-2A2.69528,2.69528,0,0,1,48.5,39.19189,0.99974,0.99974,0,0,1,47.5,40.19189Z"/><path d="M27.5,40.19189a0.99974,0.99974,0,0,1-1-1A2.69445,2.69445,0,0,1,29.19141,36.5a1,1,0,0,1,0,2,0.69279,0.69279,0,0,0-.69141.69189A0.99974,0.99974,0,0,1,27.5,40.19189Z"/></svg>