<svg xmlns="http://www.w3.org/2000/svg" viewBox="0 0 80 80"><title>alo_icon_activity_language-small</title><path d="M40,80A40,40,0,1,1,80,40,40.04583,40.04583,0,0,1,40,80ZM40,3A37,37,0,1,0,77,40,37.04161,37.04161,0,0,0,40,3Z"/><path d="M20.75,60.75a1.5,1.5,0,0,1-1.5-1.5V33.583a14.34956,14.34956,0,0,1,14.333-14.3335H46.417A14.34956,14.34956,0,0,1,60.75,33.583v6.4165A14.34925,14.34925,0,0,1,46.417,54.333H27.78809l-5.97754,5.97754A1.49967,1.49967,0,0,1,20.75,60.75ZM33.583,22.24951A11.346,11.346,0,0,0,22.25,33.583v22.0459l3.85645-3.85645A1.50061,1.50061,0,0,1,27.167,51.333h19.25A11.346,11.346,0,0,0,57.75,39.99951V33.583a11.346,11.346,0,0,0-11.333-11.3335Z"/><path d="M45.77539,42.1416H34.22559a1.5,1.5,0,0,1,0-3h11.5498a1.5,1.5,0,0,1,0,3Z"/><path d="M47.70117,45.99121a1.50032,1.50032,0,0,1-1.34277-.8291L40,32.44531l-6.3584,12.7168a1.50017,1.50017,0,0,1-2.68359-1.3418l7.7002-15.3999a1.50032,1.50032,0,0,1,2.68359,0l7.7002,15.3999a1.49986,1.49986,0,0,1-1.34082,2.1709Z"/></svg>