<svg id="Elements" xmlns="http://www.w3.org/2000/svg" viewBox="0 0 75 75"><title>alo_activities</title><g id="_Group_" data-name="&lt;Group&gt;"><path d="M47.5,43.5h-20a0.99942,0.99942,0,0,1-1-1V29.1665a0.99974,0.99974,0,0,1,1-1h20a0.99974,0.99974,0,0,1,1,1V42.5A0.99942,0.99942,0,0,1,47.5,43.5Zm-19-2h18V30.1665h-18V41.5Z"/><path d="M37.5,30.1665a0.99974,0.99974,0,0,1-1-1V27.5a1,1,0,0,1,2,0v1.6665A0.99974,0.99974,0,0,1,37.5,30.1665Z"/><path d="M37.5,48.5a0.99942,0.99942,0,0,1-1-1v-5a1,1,0,0,1,2,0v5A0.99942,0.99942,0,0,1,37.5,48.5Z"/><path d="M40.833,48.5H34.167a1,1,0,0,1,0-2h6.666A1,1,0,0,1,40.833,48.5Z"/><path d="M45.54883,47.06055a0.99676,0.99676,0,0,1-.707-0.293L36.64941,38.5752a0.99989,0.99989,0,0,1,1.41406-1.41406l8.19238,8.19238A1,1,0,0,1,45.54883,47.06055Z"/><path d="M38,34.1665H31.333a1,1,0,1,1,0-2H38A1,1,0,0,1,38,34.1665Z"/><path d="M34.667,37.1665H31.333a1,1,0,1,1,0-2h3.334A1,1,0,0,1,34.667,37.1665Z"/></g></svg>