<svg xmlns="http://www.w3.org/2000/svg" viewBox="0 0 80 80"><title>alo_icon_activity_conference-small</title><path d="M40,80A40,40,0,1,1,80,40,40.04552,40.04552,0,0,1,40,80ZM40,3A37,37,0,1,0,77,40,37.04192,37.04192,0,0,0,40,3Z"/><path d="M49.625,41.5a1.49976,1.49976,0,0,1-1.06055-.43945l-9.625-9.625A1.49976,1.49976,0,0,1,38.5,30.375,11.1245,11.1245,0,1,1,49.625,41.5ZM41.52148,29.77539l8.70313,8.70313a8.12482,8.12482,0,1,0-8.70312-8.70313Z"/><path d="M30.36475,57.94141a1.49452,1.49452,0,0,1-1.061-.43945L22.498,50.69629a1.5,1.5,0,0,1-.09131-2.02148L36.57959,31.68262c.02881-.03467.05908-.06787.09131-.09961l2.26855-2.26855a1.49984,1.49984,0,0,1,2.12109,2.12109l-2.2207,2.2207L25.58838,49.54395l4.86768,4.86816,15.8877-13.252,2.2207-2.2207a1.49984,1.49984,0,0,1,2.12109,2.12109L48.417,43.3291c-.03174.03223-.06494.0625-.09961.0918L31.3252,57.59375A1.49868,1.49868,0,0,1,30.36475,57.94141Z"/><path d="M20.75,60.75a1.5,1.5,0,0,1-1.06055-2.56055l6.21143-6.21191A1.49984,1.49984,0,0,1,28.022,54.09863l-6.21143,6.21191A1.49514,1.49514,0,0,1,20.75,60.75Z"/><path d="M37.43311,44.06641a1.5,1.5,0,0,1-1.06055-2.56055l2.36182-2.36133a1.49984,1.49984,0,0,1,2.12109,2.12109L38.49365,43.627A1.49514,1.49514,0,0,1,37.43311,44.06641Z"/></svg>