<svg id="Elements" xmlns="http://www.w3.org/2000/svg" viewBox="0 0 75 75"><title>alo_activities</title><g id="_Group_" data-name="&lt;Group&gt;"><path d="M37.5,46.42871a0.99676,0.99676,0,0,1-.707-0.293l-8.78711-8.78662a5.14223,5.14223,0,0,1,7.27246-7.272L37.5,32.29883l2.22168-2.22168a5.14223,5.14223,0,0,1,7.27246,7.272L38.207,46.13574A0.99676,0.99676,0,0,1,37.5,46.42871Zm-5.85742-15.856a3.14038,3.14038,0,0,0-2.22266,5.3623L37.5,44.01465l8.08008-8.07959a3.14245,3.14245,0,0,0-4.44434-4.44385L38.207,34.42041a1.02932,1.02932,0,0,1-1.41406,0l-2.92871-2.9292A3.13217,3.13217,0,0,0,31.64258,30.57275Z"/><path d="M39.167,39.333H35.833a1,1,0,0,1,0-2h3.334A1,1,0,0,1,39.167,39.333Z"/><path d="M37.5,41a0.99942,0.99942,0,0,1-1-1V36.6665a1,1,0,0,1,2,0V40A0.99942,0.99942,0,0,1,37.5,41Z"/></g></svg>