<svg xmlns="http://www.w3.org/2000/svg" viewBox="0 0 80 80"><title>alo_icon_activity_meeting-small</title><path d="M40,80A40,40,0,1,1,80,40,40.04583,40.04583,0,0,1,40,80ZM40,3A37,37,0,1,0,77,40,37.04161,37.04161,0,0,0,40,3Z"/><path d="M23.95605,44.708a1.5004,1.5004,0,0,1-1.49414-1.39355l-1.60352-22.457a1.49991,1.49991,0,0,1,2.99219-.21387l1.60352,22.458a1.49868,1.49868,0,0,1-1.38965,1.60254C24.02832,44.707,23.99219,44.708,23.95605,44.708Z"/><path d="M56.04395,44.708c-.03613,0-.07227-.001-.1084-.00391a1.49868,1.49868,0,0,1-1.38965-1.60254l1.60352-22.458A1.51785,1.51785,0,0,1,57.752,19.25439a1.49913,1.49913,0,0,1,1.38965,1.603l-1.60352,22.457A1.5004,1.5004,0,0,1,56.04395,44.708Z"/><path d="M20.752,60.749a1.45467,1.45467,0,0,1-.2959-.0293,1.4988,1.4988,0,0,1-1.17676-1.76465l3.208-16.041a1.49979,1.49979,0,0,1,2.94141.58789l-3.208,16.041A1.50016,1.50016,0,0,1,20.752,60.749Z"/><path d="M59.248,60.749A1.50016,1.50016,0,0,1,57.7793,59.543l-3.208-16.041a1.49979,1.49979,0,0,1,2.94141-.58789l3.208,16.041a1.4988,1.4988,0,0,1-1.17676,1.76465A1.45467,1.45467,0,0,1,59.248,60.749Z"/><path d="M33.583,54.333H22.0332a1.5,1.5,0,1,1,0-3H33.583a1.5,1.5,0,0,1,0,3Z"/><path d="M36.14941,44.708H23.958a1.5,1.5,0,1,1,0-3H36.14941a1.5,1.5,0,0,1,0,3Z"/><path d="M57.9668,54.333H46.417a1.5,1.5,0,0,1,0-3H57.9668a1.5,1.5,0,1,1,0,3Z"/><path d="M56.042,44.708H43.85059a1.5,1.5,0,0,1,0-3H56.042a1.5,1.5,0,0,1,0,3Z"/><path d="M33.583,60.749a1.50039,1.50039,0,0,1-1.5-1.5V43.208a1.5,1.5,0,0,1,3,0V59.249A1.50039,1.50039,0,0,1,33.583,60.749Z"/><path d="M46.417,60.749a1.50039,1.50039,0,0,1-1.5-1.5V43.208a1.5,1.5,0,0,1,3,0V59.249A1.50039,1.50039,0,0,1,46.417,60.749Z"/></svg>