<svg xmlns="http://www.w3.org/2000/svg" viewBox="0 0 80 80"><title>alo_icon_activity_reading-small</title><path d="M40,80A40,40,0,1,1,80,40,40.04552,40.04552,0,0,1,40,80ZM40,3A37,37,0,1,0,77,40,37.04161,37.04161,0,0,0,40,3Z"/><path d="M59.249,60.75a1.48959,1.48959,0,0,1-.89941-.30078,14.54492,14.54492,0,0,0-17.44922,0,1.49961,1.49961,0,1,1-1.80078-2.39844,17.541,17.541,0,0,1,21.05078,0A1.49979,1.49979,0,0,1,59.249,60.75Z"/><path d="M39.999,60.75a1.48959,1.48959,0,0,1-.89941-.30078,14.54492,14.54492,0,0,0-17.44922,0,1.49961,1.49961,0,1,1-1.80078-2.39844,17.541,17.541,0,0,1,21.05078,0A1.49979,1.49979,0,0,1,39.999,60.75Z"/><path d="M59.249,25.458a1.48959,1.48959,0,0,1-.89941-.30078,14.54492,14.54492,0,0,0-17.44922,0,1.49961,1.49961,0,1,1-1.80078-2.39844,17.541,17.541,0,0,1,21.05078,0A1.49979,1.49979,0,0,1,59.249,25.458Z"/><path d="M51.39355,38.33008a1.4941,1.4941,0,0,1-.249-.02051,9.33438,9.33438,0,0,0-3.03906,0,1.5,1.5,0,0,1-.49414-2.959,12.33112,12.33112,0,0,1,4.02734,0,1.5,1.5,0,0,1-.24512,2.97949Z"/><path d="M47.85645,44.74658a1.5,1.5,0,0,1-.24512-2.97949,12.26913,12.26913,0,0,1,2.01367-.166,1.5,1.5,0,0,1,0,3,9.26565,9.26565,0,0,0-1.51953.125A1.4941,1.4941,0,0,1,47.85645,44.74658Z"/><path d="M32.14355,31.91309a1.51422,1.51422,0,0,1-.24707-.02,9.35823,9.35823,0,0,0-3.043,0,1.50014,1.50014,0,0,1-.49023-2.96,12.41578,12.41578,0,0,1,4.02344,0,1.5001,1.5001,0,0,1-.24316,2.98Z"/><path d="M32.14355,44.74658a1.4941,1.4941,0,0,1-.249-.02051,9.33438,9.33438,0,0,0-3.03906,0,1.5,1.5,0,0,1-.49414-2.959,12.33112,12.33112,0,0,1,4.02734,0,1.5,1.5,0,0,1-.24512,2.97949Z"/><path d="M32.14355,38.33008a1.4941,1.4941,0,0,1-.249-.02051,9.33438,9.33438,0,0,0-3.03906,0,1.5,1.5,0,0,1-.49414-2.959,12.33112,12.33112,0,0,1,4.02734,0,1.5,1.5,0,0,1-.24512,2.97949Z"/><path d="M51.39355,31.91309a1.51422,1.51422,0,0,1-.24707-.02,9.35823,9.35823,0,0,0-3.043,0,1.50014,1.50014,0,0,1-.49023-2.96,12.41578,12.41578,0,0,1,4.02344,0,1.5001,1.5001,0,0,1-.24316,2.98Z"/><path d="M39.999,25.458a1.48959,1.48959,0,0,1-.89941-.30078,14.54492,14.54492,0,0,0-17.44922,0,1.49961,1.49961,0,1,1-1.80078-2.39844,17.541,17.541,0,0,1,21.05078,0A1.49979,1.49979,0,0,1,39.999,25.458Z"/><path d="M40,60.75a1.50007,1.50007,0,0,1-1.5-1.5V23.958a1.5,1.5,0,1,1,3,0V59.25A1.50007,1.50007,0,0,1,40,60.75Z"/><path d="M59.25,60.75a1.50007,1.50007,0,0,1-1.5-1.5V23.958a1.5,1.5,0,1,1,3,0V59.25A1.50007,1.50007,0,0,1,59.25,60.75Z"/><path d="M20.75,60.75a1.50007,1.50007,0,0,1-1.5-1.5V23.958a1.5,1.5,0,1,1,3,0V59.25A1.50007,1.50007,0,0,1,20.75,60.75Z"/></svg>