<svg id="Elements" xmlns="http://www.w3.org/2000/svg" viewBox="0 0 75 75"><title>alo_activities</title><g id="_Group_" data-name="&lt;Group&gt;"><path d="M39.833,35.1665a4.33325,4.33325,0,1,1,4.333-4.3335A4.33779,4.33779,0,0,1,39.833,35.1665Zm0-6.6665a2.33325,2.33325,0,1,0,2.333,2.333A2.33571,2.33571,0,0,0,39.833,28.5Z"/><path d="M33.166,41.833a0.99974,0.99974,0,0,1-1-1,2.66976,2.66976,0,0,1,2.667-2.6665A0.66715,0.66715,0,0,0,35.5,37.5a4.33779,4.33779,0,0,1,4.333-4.3335,1,1,0,0,1,0,2A2.33613,2.33613,0,0,0,37.5,37.5a2.66976,2.66976,0,0,1-2.667,2.6665,0.66715,0.66715,0,0,0-.667.6665A0.99974,0.99974,0,0,1,33.166,41.833Z"/></g><g id="_Group_2" data-name="&lt;Group&gt;"><path d="M35.4541,48.498a4.78142,4.78142,0,0,1-1.2207-.1582,0.99916,0.99916,0,0,1-.71191-0.71191,4.71985,4.71985,0,0,1,5.791-5.78955,0.99889,0.99889,0,0,1,.71094.71143A4.711,4.711,0,0,1,35.4541,48.498Zm-0.0918-1.99854a2.71261,2.71261,0,0,0,2.82129-2.82129A2.71189,2.71189,0,0,0,35.3623,46.49951Z"/><path d="M39.05664,43.80518a1,1,0,0,1-.707-1.707L46.793,33.6543A0.99989,0.99989,0,0,1,48.207,35.06836l-8.44336,8.44385A0.99676,0.99676,0,0,1,39.05664,43.80518Z"/></g><g id="_Group_3" data-name="&lt;Group&gt;"><path d="M42.99414,43.99414a0.99676,0.99676,0,0,1-.707-0.293L31.60547,33.02A0.99989,0.99989,0,0,1,33.01953,31.606L43.70117,42.28711A1,1,0,0,1,42.99414,43.99414Z"/><path d="M31.02344,33.48047A5.98231,5.98231,0,0,1,26.793,31.74268a0.99964,0.99964,0,0,1,0-1.41406L30.32813,26.793a0.99964,0.99964,0,0,1,1.41406,0,6.01222,6.01222,0,0,1,1.53711,5.77588,0.99907,0.99907,0,0,1-.71094.71094A6.05579,6.05579,0,0,1,31.02344,33.48047ZM29.00391,30.9458A3.92915,3.92915,0,0,0,31.459,31.459a3.94076,3.94076,0,0,0-.51367-2.45508Z"/></g></svg>