<svg id="Elements" xmlns="http://www.w3.org/2000/svg" viewBox="0 0 75 75"><title>alo_activities</title><g id="_Group_" data-name="&lt;Group&gt;"><path d="M29.16553,40.166a1.00023,1.00023,0,0,1-.99658-0.92871l-0.8335-11.666a1.0001,1.0001,0,0,1,1.99512-.14258l0.8335,11.666a0.99988,0.99988,0,0,1-.92627,1.06836C29.21338,40.165,29.18945,40.166,29.16553,40.166Z"/><path d="M45.83447,40.166c-0.02393,0-.04785-0.001-0.07227-0.00293a0.99988,0.99988,0,0,1-.92627-1.06836l0.8335-11.666a1.0001,1.0001,0,0,1,1.99512.14258l-0.8335,11.666A1.00023,1.00023,0,0,1,45.83447,40.166Z"/><path d="M27.501,48.5a0.97548,0.97548,0,0,1-.19727-0.01953,0.99967,0.99967,0,0,1-.78418-1.17676l1.6665-8.334a0.99992,0.99992,0,0,1,1.96094.39258l-1.6665,8.334A0.99958,0.99958,0,0,1,27.501,48.5Z"/><path d="M47.499,48.5a0.99958,0.99958,0,0,1-.97949-0.80371l-1.6665-8.334a0.99992,0.99992,0,0,1,1.96094-.39258l1.6665,8.334a0.99967,0.99967,0,0,1-.78418,1.17676A0.97548,0.97548,0,0,1,47.499,48.5Z"/><path d="M34.1665,45.166h-6a1,1,0,1,1,0-2h6A1,1,0,0,1,34.1665,45.166Z"/><path d="M35.5,40.166H29.1665a1,1,0,1,1,0-2H35.5A1,1,0,0,1,35.5,40.166Z"/><path d="M46.8335,45.166h-6a1,1,0,0,1,0-2h6A1,1,0,0,1,46.8335,45.166Z"/><path d="M45.8335,40.166H39.5a1,1,0,0,1,0-2h6.3335A1,1,0,0,1,45.8335,40.166Z"/><path d="M34.1665,48.5a0.99974,0.99974,0,0,1-1-1V39.166a1,1,0,0,1,2,0V47.5A0.99974,0.99974,0,0,1,34.1665,48.5Z"/><path d="M40.8335,48.5a0.99974,0.99974,0,0,1-1-1V39.166a1,1,0,0,1,2,0V47.5A0.99974,0.99974,0,0,1,40.8335,48.5Z"/></g></svg>