<svg id="Elements" xmlns="http://www.w3.org/2000/svg" viewBox="0 0 75 75"><title>alo_activities</title><path d="M37.5,38.07129a3.5,3.5,0,1,1,3.5-3.5A3.50425,3.50425,0,0,1,37.5,38.07129Zm0-5a1.5,1.5,0,1,0,1.5,1.5A1.50164,1.50164,0,0,0,37.5,33.07129Z"/><path d="M41.91943,39.99072a1,1,0,0,1-.707-1.707,5.25044,5.25044,0,0,0,0-7.4248,0.99989,0.99989,0,0,1,1.41406-1.41406,7.24971,7.24971,0,0,1,0,10.25293A0.99593,0.99593,0,0,1,41.91943,39.99072Z"/><path d="M33.08057,39.99072a0.99593,0.99593,0,0,1-.707-0.293,7.24971,7.24971,0,0,1,0-10.25293,0.99989,0.99989,0,0,1,1.41406,1.41406,5.25044,5.25044,0,0,0,0,7.4248A1,1,0,0,1,33.08057,39.99072Z"/><path d="M44.5708,42.64209a1,1,0,0,1-.707-1.707,8.99966,8.99966,0,0,0,0-12.728A0.99989,0.99989,0,0,1,45.27783,26.793a10.99894,10.99894,0,0,1,0,15.55615A0.99676,0.99676,0,0,1,44.5708,42.64209Z"/><path d="M30.42871,42.64209a0.99676,0.99676,0,0,1-.707-0.293,11.00011,11.00011,0,0,1,0-15.55615A0.99989,0.99989,0,0,1,31.13574,28.207a9.00084,9.00084,0,0,0,0,12.728A1,1,0,0,1,30.42871,42.64209Z"/><path d="M32.49951,48.5a1,1,0,0,1-.90137-1.43213l5-10.42871a1,1,0,1,1,1.80371.86426l-5,10.42871A0.99954,0.99954,0,0,1,32.49951,48.5Z"/><path d="M42.50049,48.5a0.99954,0.99954,0,0,1-.90234-0.56787l-5-10.42871a1,1,0,1,1,1.80371-.86426l5,10.42871A1,1,0,0,1,42.50049,48.5Z"/><path d="M44.1665,48.5H42.5a1,1,0,0,1,0-2h1.6665A1,1,0,0,1,44.1665,48.5Z"/><path d="M32.5,48.5H30.8335a1,1,0,1,1,0-2H32.5A1,1,0,0,1,32.5,48.5Z"/></svg>