<svg xmlns="http://www.w3.org/2000/svg" viewBox="0 0 80 80"><title>alo_icon_activity_biking-small</title><path d="M40,80A40,40,0,1,1,80,40,40.0452,40.0452,0,0,1,40,80ZM40,3A37,37,0,1,0,77,40,37.04192,37.04192,0,0,0,40,3Z"/><path d="M52.84375,43.37891a1.50079,1.50079,0,0,1-1.40967-.9873L45.86279,27.085a1.50017,1.50017,0,0,1,2.81934-1.02637l5.57129,15.30664a1.501,1.501,0,0,1-1.40967,2.01367Z"/><path d="M52.84375,49.79541a7.91675,7.91675,0,1,1,7.9165-7.917A7.92623,7.92623,0,0,1,52.84375,49.79541Zm0-12.8335a4.91675,4.91675,0,1,0,4.9165,4.9165A4.92222,4.92222,0,0,0,52.84375,36.96191Z"/><path d="M27.17676,49.79541a7.91675,7.91675,0,1,1,7.917-7.917A7.92581,7.92581,0,0,1,27.17676,49.79541Zm0-12.8335a4.91675,4.91675,0,1,0,4.917,4.9165A4.92211,4.92211,0,0,0,27.17676,36.96191Z"/><path d="M38.72705,43.37842H27.17676a1.5,1.5,0,1,1,0-3H38.72705a1.5,1.5,0,0,1,0,3Z"/><path d="M38.728,43.37842a1.5,1.5,0,0,1-.89893-2.70117l11.09717-8.2959a1.49971,1.49971,0,0,1,1.7959,2.40234L39.625,43.07959A1.49208,1.49208,0,0,1,38.728,43.37842Z"/><path d="M36.64941,35.74561a1.50079,1.50079,0,0,1-1.40967-.9873l-2.31152-6.35107a1.50017,1.50017,0,1,1,2.81934-1.02637l2.31152,6.35107a1.501,1.501,0,0,1-1.40967,2.01367Z"/><path d="M36.64746,35.74512a1.5,1.5,0,0,1-.23047-2.98193l12.69141-1.9917a1.5,1.5,0,1,1,.46484,2.96387l-12.69141,1.9917A1.525,1.525,0,0,1,36.64746,35.74512Z"/><path d="M37.5459,29.394h-6.4165a1.5,1.5,0,0,1,0-3h6.4165a1.5,1.5,0,0,1,0,3Z"/><path d="M54.97217,28.07178H47.27246a1.5,1.5,0,0,1,0-3h7.69971a1.5,1.5,0,0,1,0,3Z"/></svg>