<svg xmlns="http://www.w3.org/2000/svg" viewBox="0 0 80 80"><title>alo_icon_activity_petanque-small</title><path d="M40,80A40,40,0,1,1,80,40,40.0452,40.0452,0,0,1,40,80ZM40,3A37,37,0,1,0,77,40,37.04192,37.04192,0,0,0,40,3Z"/><path d="M50.2666,60.74951A10.48315,10.48315,0,1,1,60.75,50.26611,10.49492,10.49492,0,0,1,50.2666,60.74951Zm0-17.96631A7.48315,7.48315,0,1,0,57.75,50.26611,7.49174,7.49174,0,0,0,50.2666,42.7832Z"/><path d="M49.625,29.94971a5.3501,5.3501,0,1,1,5.3501-5.3501A5.356,5.356,0,0,1,49.625,29.94971Zm0-7.7002a2.3501,2.3501,0,1,0,2.3501,2.3501A2.35269,2.35269,0,0,0,49.625,22.24951Z"/><path d="M29.7334,43.4248A10.48437,10.48437,0,1,1,37.146,40.354,10.41359,10.41359,0,0,1,29.7334,43.4248Zm0-17.9668a7.4836,7.4836,0,1,0,5.2915,2.19189A7.43374,7.43374,0,0,0,29.7334,25.458Z"/></svg>