<svg xmlns="http://www.w3.org/2000/svg" viewBox="0 0 80 80"><title>alo_icon_activity_hiking-small</title><path d="M40,80A40,40,0,1,1,80,40,40.04552,40.04552,0,0,1,40,80ZM40,3A37,37,0,1,0,77,40,37.04161,37.04161,0,0,0,40,3Z"/><path d="M57.9668,59.4668H35.5498a1.50007,1.50007,0,0,1-1.5-1.5,12.7085,12.7085,0,1,1,25.417,0A1.50007,1.50007,0,0,1,57.9668,59.4668Zm-20.80176-3H56.35156a9.71007,9.71007,0,0,0-19.18652,0Z"/><path d="M35.5498,59.4668a1.49514,1.49514,0,0,1-1.06055-.43945l-16.083-16.0835a1.49984,1.49984,0,0,1,2.12109-2.12109l16.083,16.0835A1.5,1.5,0,0,1,35.5498,59.4668Z"/><path d="M43.93359,35.68311a1.49514,1.49514,0,0,1-1.06055-.43945l-8.38379-8.3833a1.49945,1.49945,0,0,1,0-2.12109l6.333-6.333a1.49945,1.49945,0,0,1,2.12109,0l8.38379,8.3833a1.49945,1.49945,0,0,1,0,2.12109l-6.333,6.333A1.49514,1.49514,0,0,1,43.93359,35.68311Zm-6.2627-9.8833,6.2627,6.26221,4.21191-4.21191-6.2627-6.26221Z"/><path d="M46.75781,48.25879a1.50173,1.50173,0,0,1-1.46289-1.17187l-2.8252-12.5752a1.5003,1.5003,0,0,1,2.92773-.65723l2.8252,12.5752a1.50256,1.50256,0,0,1-1.46484,1.8291Z"/><path d="M39.59766,42.7334a1.5002,1.5002,0,0,1-.32812-2.96387l5.63379-1.26562a1.49993,1.49993,0,1,1,.6582,2.92676l-5.63379,1.26563A1.51037,1.51037,0,0,1,39.59766,42.7334Z"/><path d="M19.4668,43.3833a1.5,1.5,0,0,1-1.06055-2.56055l16.083-16.0835a1.49984,1.49984,0,0,1,2.12109,2.12109l-16.083,16.0835A1.49514,1.49514,0,0,1,19.4668,43.3833Z"/></svg>