<svg xmlns="http://www.w3.org/2000/svg" viewBox="0 0 80 80"><title>alo_activities-intergenerational-small</title><path d="M40,80A40,40,0,1,1,80,40,40.04583,40.04583,0,0,1,40,80ZM40,3A37,37,0,1,0,77,40,37.04129,37.04129,0,0,0,40,3Z"/><path d="M59.25,60.75A20.77374,20.77374,0,0,1,38.5,40a1.5,1.5,0,0,1,3,0A17.77045,17.77045,0,0,0,59.25,57.75a1.5,1.5,0,0,1,0,3Z"/><path d="M59.25,60.75a1.50039,1.50039,0,0,1-1.5-1.5A13.86381,13.86381,0,0,0,40.80078,45.69727a1.50019,1.50019,0,1,1-.65625-2.92773A16.86531,16.86531,0,0,1,60.75,59.25,1.50039,1.50039,0,0,1,59.25,60.75Z"/><path d="M45.44434,54.64453c-.0791,0-.15723-.00391-.23535-.00977a1.54594,1.54594,0,0,1-1.4502-1.56738,1.456,1.456,0,0,1,1.44434-1.43457h.03613l.17285.00879H45.417a6.2032,6.2032,0,0,0,6.11426-5.0332,1.49987,1.49987,0,1,1,2.94727.55859A9.20144,9.20144,0,0,1,45.44434,54.64453Z"/><path d="M40,41.5A1.50039,1.50039,0,0,1,38.5,40,17.77045,17.77045,0,0,0,20.75,22.25a1.5,1.5,0,0,1,0-3A20.77374,20.77374,0,0,1,41.5,40,1.50039,1.50039,0,0,1,40,41.5Z"/><path d="M36.14941,37.65039A16.91877,16.91877,0,0,1,19.25,20.75a1.5,1.5,0,0,1,3,0A13.86381,13.86381,0,0,0,39.19922,34.30273a1.50019,1.50019,0,1,1,.65625,2.92773A16.99175,16.99175,0,0,1,36.14941,37.65039Z"/><path d="M26.99707,34.6123a1.531,1.531,0,0,1-.28125-.02637A1.49961,1.49961,0,0,1,25.52148,32.833a9.20144,9.20144,0,0,1,9.03418-7.47754c.0791,0,.15723.00391.23535.00977a1.54594,1.54594,0,0,1,1.4502,1.56738,1.456,1.456,0,0,1-1.44434,1.43457h-.03613l-.17285-.00879H34.583a6.2032,6.2032,0,0,0-6.11426,5.0332A1.50027,1.50027,0,0,1,26.99707,34.6123Z"/></svg>