<svg id="Elements" xmlns="http://www.w3.org/2000/svg" viewBox="0 0 75 75"><title>alo_activities</title><g id="_Group_" data-name="&lt;Group&gt;"><path d="M42,38.5a1.00013,1.00013,0,0,1-.707-0.293l-5-5A1.00013,1.00013,0,0,1,36,32.5,6.00039,6.00039,0,1,1,42,38.5Zm-3.981-6.395,4.376,4.376a4.0003,4.0003,0,0,0,2.43311-6.80957,4.0957,4.0957,0,0,0-5.65674.00049A3.97136,3.97136,0,0,0,38.019,32.105Z"/><path d="M42.522,32.978a1,1,0,0,1-1-1V27.55029a1,1,0,0,1,2,0V31.978A1,1,0,0,1,42.522,32.978Z"/><path d="M42.522,38.4502a0.99974,0.99974,0,0,1-1-1V31.978a1,1,0,1,1,2,0V37.4502A0.99974,0.99974,0,0,1,42.522,38.4502Z"/><path d="M42.522,32.978H37.0498a1,1,0,0,1,0-2H42.522A1,1,0,0,1,42.522,32.978Z"/><path d="M46.9502,32.978H42.522a1,1,0,0,1,0-2H46.9502A1,1,0,0,1,46.9502,32.978Z"/><path d="M30.66113,48.374a0.99752,0.99752,0,0,1-.707-0.293L26.41846,44.5459a1.00051,1.00051,0,0,1-.05273-1.35742l8.6958-10.16016L36.293,31.793A0.99989,0.99989,0,0,1,37.707,33.207l-1.17871,1.17871-8.0415,9.40039,2.22705,2.22656,9.457-8.09375L41.293,36.793A0.99989,0.99989,0,0,1,42.707,38.207l-1.17871,1.17871-10.2168,8.748A0.996,0.996,0,0,1,30.66113,48.374Z"/><path d="M27,48.5a1,1,0,0,1-.707-1.707l1.89355-1.89355a0.99989,0.99989,0,0,1,1.41406,1.41406L27.707,48.207A0.99676,0.99676,0,0,1,27,48.5Z"/><path d="M35,40.5a1,1,0,0,1-.707-1.707l1.89355-1.89355a0.99989,0.99989,0,0,1,1.41406,1.41406L35.707,40.207A0.99676,0.99676,0,0,1,35,40.5Z"/></g></svg>