<svg xmlns="http://www.w3.org/2000/svg" viewBox="0 0 80 80"><title>alo_icon_activity_community-small</title><path d="M40,80A40,40,0,1,1,80,40,40.04583,40.04583,0,0,1,40,80ZM40,3A37,37,0,1,0,77,40,37.04161,37.04161,0,0,0,40,3Z"/><path d="M40,53.05273a1.50039,1.50039,0,0,1-1.5-1.5V45.26758a1.5,1.5,0,1,1,3,0v6.28516A1.50039,1.50039,0,0,1,40,53.05273Z"/><path d="M44.2793,61.25977a1.49839,1.49839,0,0,1-1.33105-.80664l-4.27832-8.207a1.5,1.5,0,1,1,2.66016-1.38672l4.27832,8.207a1.5,1.5,0,0,1-1.3291,2.19336Z"/><path d="M35.7207,61.26074a1.5,1.5,0,0,1-1.3291-2.19336l4.27832-8.208a1.5,1.5,0,1,1,2.66016,1.38672l-4.27832,8.208A1.50024,1.50024,0,0,1,35.7207,61.26074Z"/><path d="M40,53.05273a13.1671,13.1671,0,0,1-2.62793-.26465,12.94227,12.94227,0,0,1-2.45312-.7627,13.07767,13.07767,0,0,1-2.21582-1.20215,1.49972,1.49972,0,1,1,1.67773-2.48633,10.09614,10.09614,0,0,0,1.707.92578,9.90587,9.90587,0,0,0,1.88574.58594,10.19476,10.19476,0,0,0,4.05469,0,9.96717,9.96717,0,0,0,1.88281-.585,10.14175,10.14175,0,0,0,1.708-.92676,1.49972,1.49972,0,1,1,1.67773,2.48633A12.98517,12.98517,0,0,1,40,53.05273Z"/><path d="M51.52539,42.30664c-.03516,0-.07129-.001-.10645-.00391a1.49987,1.49987,0,0,1-1.3916-1.60059,10.17045,10.17045,0,0,0-.05078-1.94336,10.05248,10.05248,0,0,0-1.27344-3.78174,10.154,10.154,0,0,0-1.19043-1.65332,9.97515,9.97515,0,0,0-3.10352-2.353,1.50026,1.50026,0,0,1,1.3125-2.69824,12.99482,12.99482,0,0,1,4.03613,3.061,13.25044,13.25044,0,0,1,1.54395,2.14307,13.09957,13.09957,0,0,1,1.084,2.41064,12.91568,12.91568,0,0,1,.56738,2.50244,13.10688,13.10688,0,0,1,.06641,2.52148A1.49932,1.49932,0,0,1,51.52539,42.30664Z"/><path d="M28.47461,42.30664a1.49932,1.49932,0,0,1-1.49414-1.39551,13.08859,13.08859,0,0,1,.06641-2.52A13.02413,13.02413,0,0,1,28.69824,33.478a13.20159,13.20159,0,0,1,1.543-2.14355,12.997,12.997,0,0,1,4.03711-3.062,1.50026,1.50026,0,0,1,1.3125,2.69824,9.97727,9.97727,0,0,0-3.10449,2.354A10.16431,10.16431,0,0,0,30.46,36.83447a9.97021,9.97021,0,0,0-.4873,3.86768,1.49987,1.49987,0,0,1-1.3916,1.60059C28.5459,42.30566,28.50977,42.30664,28.47461,42.30664Z"/><path d="M40,53.05273a1.50039,1.50039,0,0,1-1.5-1.5V45.26758a1.5,1.5,0,1,1,3,0v6.28516A1.50039,1.50039,0,0,1,40,53.05273Z"/><path d="M44.2793,61.25977a1.49839,1.49839,0,0,1-1.33105-.80664l-4.27832-8.207a1.5,1.5,0,1,1,2.66016-1.38672l4.27832,8.207a1.5,1.5,0,0,1-1.3291,2.19336Z"/><path d="M35.7207,61.26074a1.5,1.5,0,0,1-1.3291-2.19336l4.27832-8.208a1.5,1.5,0,1,1,2.66016,1.38672l-4.27832,8.208A1.50024,1.50024,0,0,1,35.7207,61.26074Z"/><path d="M44.56055,38.87061a1.50031,1.50031,0,0,1-.751-2.79932l5.44336-3.14258a1.49982,1.49982,0,0,1,1.5,2.59766l-5.44336,3.14258A1.49094,1.49094,0,0,1,44.56055,38.87061Z"/><path d="M50.002,35.72754a1.49966,1.49966,0,0,1-1.26465-2.30518l4.96875-7.80908a1.5,1.5,0,1,1,2.53125,1.61035l-4.96875,7.80908A1.49958,1.49958,0,0,1,50.002,35.72754Z"/><path d="M50.002,35.72754a1.5,1.5,0,0,1-.06348-2.99854l9.24707-.39844a1.49992,1.49992,0,1,1,.12891,2.99707l-9.24707.39844C50.0459,35.72705,50.02344,35.72754,50.002,35.72754Z"/><path d="M50.002,35.72754a1.49966,1.49966,0,0,1-1.26465-2.30518l4.96875-7.80908a1.5,1.5,0,1,1,2.53125,1.61035l-4.96875,7.80908A1.49958,1.49958,0,0,1,50.002,35.72754Z"/><path d="M50.002,35.72754a1.5,1.5,0,0,1-.06348-2.99854l9.24707-.39844a1.49992,1.49992,0,1,1,.12891,2.99707l-9.24707.39844C50.0459,35.72705,50.02344,35.72754,50.002,35.72754Z"/><path d="M35.43945,38.87061a1.49094,1.49094,0,0,1-.749-.20166l-5.44336-3.14258a1.49982,1.49982,0,0,1,1.5-2.59766l5.44336,3.14258a1.50031,1.50031,0,0,1-.751,2.79932Z"/><path d="M29.998,35.72754c-.02148,0-.04395-.00049-.06543-.00146l-9.24707-.39844a1.49992,1.49992,0,1,1,.12891-2.99707l9.24707.39844a1.5,1.5,0,0,1-.06348,2.99854Z"/><path d="M29.998,35.72754a1.49958,1.49958,0,0,1-1.2666-.69482L23.7627,27.22363a1.5,1.5,0,1,1,2.53125-1.61035l4.96875,7.80908A1.49966,1.49966,0,0,1,29.998,35.72754Z"/><path d="M29.998,35.72754c-.02148,0-.04395-.00049-.06543-.00146l-9.24707-.39844a1.49992,1.49992,0,1,1,.12891-2.99707l9.24707.39844a1.5,1.5,0,0,1-.06348,2.99854Z"/><path d="M29.998,35.72754a1.49958,1.49958,0,0,1-1.2666-.69482L23.7627,27.22363a1.5,1.5,0,1,1,2.53125-1.61035l4.96875,7.80908A1.49966,1.49966,0,0,1,29.998,35.72754Z"/></svg>