<svg xmlns="http://www.w3.org/2000/svg" viewBox="0 0 80 80"><title>alo_icon_activity_gardening-small</title><path d="M40,80A40,40,0,1,1,80,40,40.04583,40.04583,0,0,1,40,80ZM40,3A37,37,0,1,0,77,40,37.04161,37.04161,0,0,0,40,3Z"/><path d="M38.39551,28.6665h-16.041A3.10779,3.10779,0,0,1,19.25,25.5625V20.75a1.5,1.5,0,0,1,3,0v4.8125a.10451.10451,0,0,0,.10449.104h16.041a.10451.10451,0,0,0,.10449-.104V20.75a1.5,1.5,0,0,1,3,0v4.8125A3.10779,3.10779,0,0,1,38.39551,28.6665Z"/><path d="M30.375,60.75a1.50039,1.50039,0,0,1-1.5-1.5V27.1665a1.5,1.5,0,0,1,3,0V59.25A1.50039,1.50039,0,0,1,30.375,60.75Z"/><path d="M33.583,28.6665a1.50007,1.50007,0,0,1-1.5-1.5V20.75a1.5,1.5,0,0,1,3,0v6.4165A1.50007,1.50007,0,0,1,33.583,28.6665Z"/><path d="M27.167,28.6665a1.50007,1.50007,0,0,1-1.5-1.5V20.75a1.5,1.5,0,0,1,3,0v6.4165A1.50007,1.50007,0,0,1,27.167,28.6665Z"/><path d="M56.042,60.75H43.208a1.50039,1.50039,0,0,1-1.5-1.5V40a1.50007,1.50007,0,0,1,1.5-1.5H59.25a1.5,1.5,0,0,1,0,3H57.542V59.25A1.50039,1.50039,0,0,1,56.042,60.75Zm-11.334-3h9.834V41.5H44.708Z"/><path d="M36.792,54.333a1.50039,1.50039,0,0,1-1.5-1.5V43.208a1.50039,1.50039,0,0,1,1.5-1.5h6.416a1.5,1.5,0,0,1,0,3H38.292v8.125A1.50039,1.50039,0,0,1,36.792,54.333Z"/><path d="M43.20822,52.83342" style="fill:none;stroke:#000;stroke-linecap:round;stroke-linejoin:round;stroke-width:3px"/><path d="M52.83789,33.19873a1.49514,1.49514,0,0,1-1.06055-.43945l-4.53711-4.53711a1.49945,1.49945,0,0,1,0-2.12109L51.77734,21.564a7.94688,7.94688,0,0,1,7.6416-2.04541,1.50059,1.50059,0,0,1,1.0625,1.063,7.941,7.941,0,0,1-2.04492,7.64063h0l-4.53809,4.53711A1.49514,1.49514,0,0,1,52.83789,33.19873Zm-2.416-6.03711,2.416,2.416,3.47754-3.47656a4.92851,4.92851,0,0,0,1.41992-3.83691,4.93506,4.93506,0,0,0-3.83691,1.4209Zm6.9541,0h0Z"/><path d="M46.48633,35.01367a1.5,1.5,0,0,1-1.06055-2.56055l4.083-4.0835a1.49984,1.49984,0,0,1,2.12109,2.12109l-4.083,4.0835A1.49514,1.49514,0,0,1,46.48633,35.01367Z"/></svg>