<svg id="Elements" xmlns="http://www.w3.org/2000/svg" viewBox="0 0 75 75"><title>alo_activities</title><g id="_Group_" data-name="&lt;Group&gt;"><path d="M40.042,45.167H30a3.50425,3.50425,0,0,1-3.5-3.5V36.6665a3.50425,3.50425,0,0,1,3.5-3.5H40.042a3.50425,3.50425,0,0,1,3.5,3.5V41.667A3.50425,3.50425,0,0,1,40.042,45.167ZM30,35.1665a1.50164,1.50164,0,0,0-1.5,1.5V41.667a1.50164,1.50164,0,0,0,1.5,1.5H40.042a1.50164,1.50164,0,0,0,1.5-1.5V36.6665a1.50164,1.50164,0,0,0-1.5-1.5H30Z"/><path d="M30.8335,35.1665a4.33325,4.33325,0,1,1,4.333-4.333A4.33811,4.33811,0,0,1,30.8335,35.1665Zm0-6.6665a2.33325,2.33325,0,1,0,2.333,2.3335A2.33623,2.33623,0,0,0,30.8335,28.5Z"/><path d="M39.2085,35.1665a4.33325,4.33325,0,1,1,4.3335-4.333A4.33811,4.33811,0,0,1,39.2085,35.1665Zm0-6.6665a2.33325,2.33325,0,1,0,2.3335,2.3335A2.33623,2.33623,0,0,0,39.2085,28.5Z"/><path d="M46.91064,44.53516a1.82074,1.82074,0,0,1-1.29687-.53711L42.0791,40.46289a1.83306,1.83306,0,0,1-.00049-2.59229L45.61426,34.335a1.87593,1.87593,0,0,1,2.59277,0,1.00013,1.00013,0,0,1,.293.707v8.249a1.00051,1.00051,0,0,1-.29248.707A1.82074,1.82074,0,0,1,46.91064,44.53516ZM47.5,43.291h0Zm-3.88916-4.125L46.5,42.05566V36.27734Z"/><path d="M35.021,48.5a0.99974,0.99974,0,0,1-1-1V44.167a1,1,0,0,1,2,0V47.5A0.99974,0.99974,0,0,1,35.021,48.5Z"/><path d="M42.542,38.5H39.2085a1,1,0,0,1,0-2H42.542A1,1,0,0,1,42.542,38.5Z"/><path d="M42.542,41.833H39.2085a1,1,0,0,1,0-2H42.542A1,1,0,0,1,42.542,41.833Z"/><path d="M34.1875,41.833h-1.667a2.6665,2.6665,0,1,1,0-5.333h1.667A2.6665,2.6665,0,1,1,34.1875,41.833Zm-1.667-3.333a0.6665,0.6665,0,1,0,0,1.333h1.667a0.6665,0.6665,0,1,0,0-1.333h-1.667Z"/></g></svg>