<svg id="Elements" xmlns="http://www.w3.org/2000/svg" viewBox="0 0 75 75"><title>alo_activities</title><g id="_Group_" data-name="&lt;Group&gt;"><path d="M37.5,48.5a1,1,0,0,1-1-1v-20a1,1,0,0,1,2,0v20A1,1,0,0,1,37.5,48.5Z"/><path d="M40.8335,48.5h-6.667a1,1,0,0,1,0-2h6.667A1,1,0,0,1,40.8335,48.5Z"/><path d="M30.833,35.22607a1.00034,1.00034,0,0,1-.25-1.96875l13.333-3.45117a1.00014,1.00014,0,0,1,.501,1.93652L31.084,35.19385A1.01421,1.01421,0,0,1,30.833,35.22607Z"/><path d="M30.8335,45.22559A4.33821,4.33821,0,0,1,26.5,40.89209a1,1,0,0,1,1-1h6.6665a1,1,0,0,1,1,1A4.33811,4.33811,0,0,1,30.8335,45.22559Zm-2.1084-3.3335a2.33316,2.33316,0,0,0,4.21631,0H28.7251Z"/><path d="M28.6665,41.89258a1.00113,1.00113,0,0,1-.95117-1.30957l2.167-6.6665a1.00013,1.00013,0,1,1,1.90234.61816l-2.167,6.6665A1.00131,1.00131,0,0,1,28.6665,41.89258Z"/><path d="M33,41.89258a1.00131,1.00131,0,0,1-.95117-0.69141l-2.1665-6.6665a1.00013,1.00013,0,1,1,1.90234-.61816l2.1665,6.6665A1.00113,1.00113,0,0,1,33,41.89258Z"/></g><path d="M44.1665,41.77441a4.338,4.338,0,0,1-4.333-4.333,1,1,0,0,1,1-1H47.5a1,1,0,0,1,1,1A4.33811,4.33811,0,0,1,44.1665,41.77441Zm-2.10742-3.333a2.33276,2.33276,0,0,0,4.21533,0H42.05908Z"/><path d="M42,38.44189a1.00113,1.00113,0,0,1-.95117-1.30957l2.1665-6.667a1.00013,1.00013,0,0,1,1.90234.61816l-2.1665,6.667A1.00086,1.00086,0,0,1,42,38.44189Z"/><path d="M46.3335,38.44189a1.00131,1.00131,0,0,1-.95117-0.69141l-2.167-6.667a1.00013,1.00013,0,0,1,1.90234-.61816l2.167,6.667A1.00113,1.00113,0,0,1,46.3335,38.44189Z"/></svg>