<svg id="Elements" xmlns="http://www.w3.org/2000/svg" viewBox="0 0 75 75"><title>alo_activities</title><path d="M39.87207,44.63623a3.54926,3.54926,0,0,1-3.54541-3.54541V38.54541a2.25625,2.25625,0,0,1,.666-1.60693l1.55469-1.89893a1.61446,1.61446,0,0,1,.15625-0.18506l0.03174-.03174a1.65713,1.65713,0,0,1,1.77588-.3291l3.061,1.38086a2.91294,2.91294,0,0,1,1.69531,3.25635,2.88974,2.88974,0,0,1-.43945,1.043L42.80371,43.085A3.53592,3.53592,0,0,1,39.87207,44.63623Zm0.10693-8.189-1.50684,1.833a0.37915,0.37915,0,0,0-.14551.26514v2.54541a1.5459,1.5459,0,0,0,2.82764.86377l2.02539-2.9126a0.92058,0.92058,0,0,0,.07617-0.14307,0.88792,0.88792,0,0,0,.05225-0.16846,0.92928,0.92928,0,0,0,.01855-0.18506A0.90947,0.90947,0,0,0,42.771,37.707Z"/><g id="_Group_" data-name="&lt;Group&gt;"><path d="M36,36.8335H32.6665a0.99992,0.99992,0,0,1-.99658-1.083l0.417-5a1.0001,1.0001,0,0,1,.99658-0.917h2.5a0.99976,0.99976,0,0,1,.99658.917l0.4165,5A0.99992,0.99992,0,0,1,36,36.8335Zm-2.24658-2h1.15967l-0.24951-3H34.00342Z"/><path d="M34.3335,46.8335a1,1,0,0,1-1-1v-10a1,1,0,0,1,2,0v10A1,1,0,0,1,34.3335,46.8335Z"/></g><g id="_Group_2" data-name="&lt;Group&gt;"><path d="M31,40.5H27.5a1,1,0,0,1-1-1V30.8335a1.00005,1.00005,0,0,1,1.92725-.37451l3.5,8.6665A1,1,0,0,1,31,40.5Zm-2.5-2h1.01758L28.5,35.98V38.5Z"/><path d="M27.5,46.8335a1,1,0,0,1-1-1V39.5a1,1,0,0,1,2,0v6.3335A1,1,0,0,1,27.5,46.8335Z"/></g><path d="M37.5,48.5a11.02994,11.02994,0,0,1-10.7793-8.80078,1,1,0,1,1,1.96-.39844,9.01955,9.01955,0,1,0,.69092-5.64307,1.00012,1.00012,0,1,1-1.80762-.85645A10.99616,10.99616,0,1,1,37.5,48.5Z"/></svg>