<svg id="Elements" xmlns="http://www.w3.org/2000/svg" viewBox="0 0 75 75"><title>alo_activities</title><path d="M41.94873,48.50391a1.99247,1.99247,0,0,1-1.41357-.58447L35.979,43.36328a2.00193,2.00193,0,0,1,0-2.82812L40.53516,35.979a2.04707,2.04707,0,0,1,2.82813,0l4.55615,4.55615a2.00267,2.00267,0,0,1,.00049,2.82764l-4.55664,4.55664A1.99553,1.99553,0,0,1,41.94873,48.50391Zm0.00049-11.11084-4.55615,4.55615,4.55713,4.55664,4.55518-4.55664Z"/><path d="M31.71973,39.29736a2.02313,2.02313,0,0,1-.521-0.06885,1.98688,1.98688,0,0,1-1.21436-.93262L26.7627,32.7168a2.00268,2.00268,0,0,1,.73291-2.73242l5.5791-3.22168a2.004,2.004,0,0,1,2.73193.73242l3.22217,5.57959a2.00007,2.00007,0,0,1-.73291,2.73242l-5.57959,3.22168A1.99017,1.99017,0,0,1,31.71973,39.29736Zm2.355-10.80225L28.49512,31.7168l3.22168,5.57959,5.57959-3.22168h0.00049l0.001-.00049Z"/><path d="M41.94922,48.49951a1,1,0,0,1-1-1V36.39844a1,1,0,0,1,2,0V47.49951A1,1,0,0,1,41.94922,48.49951Z"/><path d="M47.49951,42.94922H36.39844a1,1,0,0,1,0-2H47.49951A1,1,0,0,1,47.49951,42.94922Z"/><path d="M38.25732,35.333a0.99154,0.99154,0,0,1-.25928-0.03467L27.27539,32.4248a0.99989,0.99989,0,0,1,.51758-1.93164L38.51563,33.3667A1.00024,1.00024,0,0,1,38.25732,35.333Z"/></svg>