<svg xmlns="http://www.w3.org/2000/svg" viewBox="0 0 160 160"><title>alo_service-carpooling-large</title><path d="M145.4165,133.833H14.5835A14.59973,14.59973,0,0,1,0,119.25V106.167A27.69793,27.69793,0,0,1,27.6665,78.5h104.667A27.69793,27.69793,0,0,1,160,106.167V119.25A14.59973,14.59973,0,0,1,145.4165,133.833ZM27.6665,81.5A24.69465,24.69465,0,0,0,3,106.167V119.25a11.59645,11.59645,0,0,0,11.5835,11.583h130.833A11.59645,11.59645,0,0,0,157,119.25V106.167A24.69465,24.69465,0,0,0,132.3335,81.5Z"/><path d="M132.3335,81.5a1.50007,1.50007,0,0,1-1.5-1.5V27.667A24.69475,24.69475,0,0,0,106.1665,3H53.8335a24.69475,24.69475,0,0,0-24.667,24.667V80a1.5,1.5,0,0,1-3,0V27.667A27.698,27.698,0,0,1,53.8335,0h52.333a27.698,27.698,0,0,1,27.667,27.667V80A1.50007,1.50007,0,0,1,132.3335,81.5Z"/><path d="M132.3335,29.167H27.6665a1.5,1.5,0,0,1,0-3h104.667a1.5,1.5,0,0,1,0,3Z"/><path d="M132.3335,160A14.59973,14.59973,0,0,1,117.75,145.417V132.333a1.5,1.5,0,0,1,3,0v13.084a11.58325,11.58325,0,0,0,23.1665,0V132.333a1.5,1.5,0,1,1,3,0v13.084A14.59963,14.59963,0,0,1,132.3335,160Z"/><path d="M27.6665,160a14.59963,14.59963,0,0,1-14.583-14.583V132.333a1.5,1.5,0,0,1,3,0v13.084a11.58325,11.58325,0,0,0,23.1665,0V132.333a1.5,1.5,0,0,1,3,0v13.084A14.59973,14.59973,0,0,1,27.6665,160Z"/><path d="M27.6665,114.208a8.0415,8.0415,0,1,1,8.042-8.041A8.05053,8.05053,0,0,1,27.6665,114.208Zm0-13.083a5.0415,5.0415,0,1,0,5.042,5.042A5.04746,5.04746,0,0,0,27.6665,101.125Z"/><path d="M132.3335,114.208a8.0415,8.0415,0,1,1,8.0415-8.041A8.05063,8.05063,0,0,1,132.3335,114.208Zm0-13.083a5.0415,5.0415,0,1,0,5.0415,5.042A5.04756,5.04756,0,0,0,132.3335,101.125Z"/><path d="M80,133.833a1.50007,1.50007,0,0,1-1.5-1.5V106.167a1.5,1.5,0,1,1,3,0v26.166A1.50007,1.50007,0,0,1,80,133.833Z"/><path d="M93.0835,133.833a1.50007,1.50007,0,0,1-1.5-1.5V106.167a1.5,1.5,0,0,1,3,0v26.166A1.50007,1.50007,0,0,1,93.0835,133.833Z"/><path d="M66.9165,133.833a1.50007,1.50007,0,0,1-1.5-1.5V106.167a1.5,1.5,0,0,1,3,0v26.166A1.50007,1.50007,0,0,1,66.9165,133.833Z"/><path d="M119.25,81.5a1.50007,1.50007,0,0,1-1.5-1.5V73.458a5.04725,5.04725,0,0,0-5.0415-5.041H99.625a5.04725,5.04725,0,0,0-5.0415,5.041V80a1.5,1.5,0,0,1-3,0V73.458a8.05053,8.05053,0,0,1,8.0415-8.041h13.0835a8.05053,8.05053,0,0,1,8.0415,8.041V80A1.50007,1.50007,0,0,1,119.25,81.5Z"/><path d="M106.1665,68.417A14.5835,14.5835,0,1,1,120.75,53.833,14.59984,14.59984,0,0,1,106.1665,68.417Zm0-26.167A11.5835,11.5835,0,1,0,117.75,53.833,11.59635,11.59635,0,0,0,106.1665,42.25Z"/><path d="M66.9165,81.5a1.50007,1.50007,0,0,1-1.5-1.5V73.458a5.04725,5.04725,0,0,0-5.0415-5.041H47.2915A5.04725,5.04725,0,0,0,42.25,73.458V80a1.5,1.5,0,0,1-3,0V73.458a8.05053,8.05053,0,0,1,8.0415-8.041H60.375a8.05053,8.05053,0,0,1,8.0415,8.041V80A1.50007,1.50007,0,0,1,66.9165,81.5Z"/><path d="M53.8335,68.417a14.5835,14.5835,0,1,1,14.583-14.584A14.59994,14.59994,0,0,1,53.8335,68.417Zm0-26.167a11.5835,11.5835,0,1,0,11.583,11.583A11.59645,11.59645,0,0,0,53.8335,42.25Z"/><path d="M149.06006,83.55664h-6.5415a1.50007,1.50007,0,0,1-1.5-1.5v-6.542a8.04175,8.04175,0,1,1,8.0415,8.042Zm-5.0415-3h5.0415a5.042,5.042,0,1,0-5.0415-5.042Z"/><path d="M17.48145,83.55664h-6.5415a8.042,8.042,0,1,1,8.0415-8.042v6.542A1.50007,1.50007,0,0,1,17.48145,83.55664Zm-6.5415-13.084a5.042,5.042,0,1,0,0,10.084h5.0415v-5.042A5.04746,5.04746,0,0,0,10.93994,70.47266Z"/></svg>