<svg xmlns="http://www.w3.org/2000/svg" viewBox="0 0 160 160"><title>alo_icon_system_stream-large</title><path d="M25.0498,131.2168h-7.8501a4.12138,4.12138,0,0,1-4.1167-4.11719V119.25a4.12118,4.12118,0,0,1,4.1167-4.11621h7.8501A4.12118,4.12118,0,0,1,29.1665,119.25v7.84961A4.12138,4.12138,0,0,1,25.0498,131.2168Zm-7.8501-13.083A1.1179,1.1179,0,0,0,16.083,119.25v7.84961a1.1181,1.1181,0,0,0,1.1167,1.11719h7.8501a1.1181,1.1181,0,0,0,1.1167-1.11719V119.25a1.1179,1.1179,0,0,0-1.1167-1.11621Z"/><path d="M25.0498,102.43359h-7.8501a4.12138,4.12138,0,0,1-4.1167-4.11719V90.4668a4.12138,4.12138,0,0,1,4.1167-4.11719h7.8501a4.12138,4.12138,0,0,1,4.1167,4.11719v7.84961A4.12138,4.12138,0,0,1,25.0498,102.43359Zm-7.8501-13.084A1.1181,1.1181,0,0,0,16.083,90.4668v7.84961a1.1181,1.1181,0,0,0,1.1167,1.11719h7.8501a1.1181,1.1181,0,0,0,1.1167-1.11719V90.4668a1.1181,1.1181,0,0,0-1.1167-1.11719Z"/><path d="M25.0498,73.65039h-7.8501A4.12138,4.12138,0,0,1,13.083,69.5332V61.68359a4.12138,4.12138,0,0,1,4.1167-4.11719h7.8501a4.12138,4.12138,0,0,1,4.1167,4.11719V69.5332A4.12138,4.12138,0,0,1,25.0498,73.65039Zm-7.8501-13.084a1.1181,1.1181,0,0,0-1.1167,1.11719V69.5332a1.1181,1.1181,0,0,0,1.1167,1.11719h7.8501a1.1181,1.1181,0,0,0,1.1167-1.11719V61.68359a1.1181,1.1181,0,0,0-1.1167-1.11719Z"/><path d="M25.0498,44.86719h-7.8501A4.12138,4.12138,0,0,1,13.083,40.75V32.90039a4.12138,4.12138,0,0,1,4.1167-4.11719h7.8501a4.12138,4.12138,0,0,1,4.1167,4.11719V40.75A4.12138,4.12138,0,0,1,25.0498,44.86719Zm-7.8501-13.084a1.1181,1.1181,0,0,0-1.1167,1.11719V40.75a1.1181,1.1181,0,0,0,1.1167,1.11719h7.8501A1.1181,1.1181,0,0,0,26.1665,40.75V32.90039a1.1181,1.1181,0,0,0-1.1167-1.11719Z"/><path d="M158.5,160H145.4165a1.50007,1.50007,0,0,1-1.5-1.5V148.0332a1.1179,1.1179,0,0,0-1.1167-1.11621H134.9502a1.1179,1.1179,0,0,0-1.1167,1.11621V158.5a1.50007,1.50007,0,0,1-1.5,1.5H27.6665a1.50007,1.50007,0,0,1-1.5-1.5V148.0332a1.1179,1.1179,0,0,0-1.1167-1.11621H17.2002a1.1179,1.1179,0,0,0-1.1167,1.11621V158.5a1.50007,1.50007,0,0,1-1.5,1.5H1.5A1.50007,1.50007,0,0,1,0,158.5V1.5A1.50007,1.50007,0,0,1,1.5,0H14.5835a1.50007,1.50007,0,0,1,1.5,1.5V11.9668A1.1179,1.1179,0,0,0,17.2002,13.083H25.0498a1.1179,1.1179,0,0,0,1.1167-1.11621V1.5a1.50007,1.50007,0,0,1,1.5-1.5h104.667a1.50007,1.50007,0,0,1,1.5,1.5V11.9668a1.1179,1.1179,0,0,0,1.1167,1.11621h7.84961a1.1179,1.1179,0,0,0,1.1167-1.11621V1.5a1.50007,1.50007,0,0,1,1.5-1.5H158.5A1.50007,1.50007,0,0,1,160,1.5v157A1.50007,1.50007,0,0,1,158.5,160Zm-11.5835-3H157V3H146.9165v8.9668a4.12118,4.12118,0,0,1-4.1167,4.11621H134.9502a4.12118,4.12118,0,0,1-4.1167-4.11621V3H29.1665v8.9668A4.12118,4.12118,0,0,1,25.0498,16.083H17.2002a4.12118,4.12118,0,0,1-4.1167-4.11621V3H3V157H13.0835v-8.9668a4.12118,4.12118,0,0,1,4.1167-4.11621H25.0498a4.12118,4.12118,0,0,1,4.1167,4.11621V157h101.667v-8.9668a4.12118,4.12118,0,0,1,4.1167-4.11621h7.84961a4.12118,4.12118,0,0,1,4.1167,4.11621Z"/><path d="M142.7998,131.2168h-7.8501a4.12138,4.12138,0,0,1-4.1167-4.11719V119.25a4.12118,4.12118,0,0,1,4.1167-4.11621h7.8501a4.12118,4.12118,0,0,1,4.1167,4.11621v7.84961A4.12138,4.12138,0,0,1,142.7998,131.2168Zm-7.8501-13.083A1.1179,1.1179,0,0,0,133.833,119.25v7.84961a1.1181,1.1181,0,0,0,1.1167,1.11719h7.8501a1.1181,1.1181,0,0,0,1.1167-1.11719V119.25a1.1179,1.1179,0,0,0-1.1167-1.11621Z"/><path d="M142.7998,102.43359h-7.8501a4.12138,4.12138,0,0,1-4.1167-4.11719V90.4668a4.12138,4.12138,0,0,1,4.1167-4.11719h7.8501a4.12138,4.12138,0,0,1,4.1167,4.11719v7.84961A4.12138,4.12138,0,0,1,142.7998,102.43359Zm-7.8501-13.084a1.1181,1.1181,0,0,0-1.1167,1.11719v7.84961a1.1181,1.1181,0,0,0,1.1167,1.11719h7.8501a1.1181,1.1181,0,0,0,1.1167-1.11719V90.4668a1.1181,1.1181,0,0,0-1.1167-1.11719Z"/><path d="M142.7998,73.65039h-7.8501a4.12138,4.12138,0,0,1-4.1167-4.11719V61.68359a4.12138,4.12138,0,0,1,4.1167-4.11719h7.8501a4.12138,4.12138,0,0,1,4.1167,4.11719V69.5332A4.12138,4.12138,0,0,1,142.7998,73.65039Zm-7.8501-13.084a1.1181,1.1181,0,0,0-1.1167,1.11719V69.5332a1.1181,1.1181,0,0,0,1.1167,1.11719h7.8501a1.1181,1.1181,0,0,0,1.1167-1.11719V61.68359a1.1181,1.1181,0,0,0-1.1167-1.11719Z"/><path d="M142.7998,44.86719h-7.8501A4.12138,4.12138,0,0,1,130.833,40.75V32.90039a4.12138,4.12138,0,0,1,4.1167-4.11719h7.8501a4.12138,4.12138,0,0,1,4.1167,4.11719V40.75A4.12138,4.12138,0,0,1,142.7998,44.86719Zm-7.8501-13.084a1.1181,1.1181,0,0,0-1.1167,1.11719V40.75a1.1181,1.1181,0,0,0,1.1167,1.11719h7.8501A1.1181,1.1181,0,0,0,143.9165,40.75V32.90039a1.1181,1.1181,0,0,0-1.1167-1.11719Z"/><path d="M106.1665,29.167H53.8335A14.59994,14.59994,0,0,1,39.25,14.583V1.5a1.5,1.5,0,0,1,3,0V14.583A11.59666,11.59666,0,0,0,53.8335,26.167h52.333A11.59666,11.59666,0,0,0,117.75,14.583V1.5a1.5,1.5,0,0,1,3,0V14.583A14.59994,14.59994,0,0,1,106.1665,29.167Z"/><path d="M119.25,160a1.50007,1.50007,0,0,1-1.5-1.5V145.417a11.59666,11.59666,0,0,0-11.5835-11.584H53.8335A11.59666,11.59666,0,0,0,42.25,145.417V158.5a1.5,1.5,0,0,1-3,0V145.417a14.59994,14.59994,0,0,1,14.5835-14.584h52.333A14.59994,14.59994,0,0,1,120.75,145.417V158.5A1.50007,1.50007,0,0,1,119.25,160Z"/><path d="M106.1665,120.75H53.8335A14.59973,14.59973,0,0,1,39.25,106.167V53.833A14.59973,14.59973,0,0,1,53.8335,39.25h52.333A14.59973,14.59973,0,0,1,120.75,53.833v52.334A14.59973,14.59973,0,0,1,106.1665,120.75Zm-52.333-78.5A11.59645,11.59645,0,0,0,42.25,53.833v52.334A11.59645,11.59645,0,0,0,53.8335,117.75h52.333A11.59645,11.59645,0,0,0,117.75,106.167V53.833A11.59645,11.59645,0,0,0,106.1665,42.25Z"/><path d="M41.56787,112.082a1.5,1.5,0,0,1-1.06055-2.56055l17.499-17.499a1.49945,1.49945,0,0,1,2.12109,0l14.00439,14.00391,28.35742-28.35645a1.49945,1.49945,0,0,1,2.12109,0l15.7002,15.7002a1.49984,1.49984,0,0,1-2.12109,2.12109L103.5498,80.85156,75.19238,109.208a1.49945,1.49945,0,0,1-2.12109,0L59.06689,95.2041,42.62842,111.64258A1.49514,1.49514,0,0,1,41.56787,112.082Z"/><path d="M66.9165,81.5A14.5835,14.5835,0,1,1,81.5,66.917,14.59963,14.59963,0,0,1,66.9165,81.5Zm0-26.167A11.5835,11.5835,0,1,0,78.5,66.917,11.59656,11.59656,0,0,0,66.9165,55.333Z"/><path d="M85.2334,120.75a1.49514,1.49514,0,0,1-1.06055-.43945L73.07129,109.209a1.49984,1.49984,0,0,1,2.12109-2.12109l11.10156,11.10156A1.5,1.5,0,0,1,85.2334,120.75Z"/></svg>