<svg xmlns="http://www.w3.org/2000/svg" viewBox="0 0 160 160"><title>alo_icon_system_articles-large</title><path d="M132.333,160H27.667a14.59984,14.59984,0,0,1-14.584-14.583V93.083A14.59984,14.59984,0,0,1,27.667,78.5H132.333a14.59984,14.59984,0,0,1,14.584,14.583v52.334A14.59984,14.59984,0,0,1,132.333,160ZM27.667,81.5A11.59656,11.59656,0,0,0,16.083,93.083v52.334A11.59656,11.59656,0,0,0,27.667,157H132.333a11.59656,11.59656,0,0,0,11.584-11.583V93.083A11.59656,11.59656,0,0,0,132.333,81.5Z"/><path d="M119.25,81.5H40.75a1.50039,1.50039,0,0,1-1.5-1.5V1.5A1.50039,1.50039,0,0,1,40.75,0h78.5a1.50039,1.50039,0,0,1,1.5,1.5V80A1.50039,1.50039,0,0,1,119.25,81.5Zm-77-3h75.5V3H42.25Z"/><path d="M80,16.083H53.833a1.5,1.5,0,1,1,0-3H80a1.5,1.5,0,0,1,0,3Z"/><path d="M106.167,29.167H53.833a1.5,1.5,0,0,1,0-3h52.334a1.5,1.5,0,0,1,0,3Z"/><path d="M106.167,42.25H53.833a1.5,1.5,0,0,1,0-3h52.334a1.5,1.5,0,0,1,0,3Z"/><path d="M93.083,55.333H53.833a1.5,1.5,0,0,1,0-3h39.25a1.5,1.5,0,0,1,0,3Z"/><path d="M158.5,107.667H145.417a1.50039,1.50039,0,0,1-1.5-1.5V80a1.50039,1.50039,0,0,1,1.5-1.5H158.5A1.50039,1.50039,0,0,1,160,80v26.167A1.50039,1.50039,0,0,1,158.5,107.667Zm-11.583-3H157V81.5H146.917Z"/><path d="M14.583,94.583H1.5a1.50039,1.50039,0,0,1-1.5-1.5V66.917a1.50039,1.50039,0,0,1,1.5-1.5H14.583a1.5,1.5,0,1,1,0,3H3V91.583H14.583a1.5,1.5,0,1,1,0,3Z"/><path d="M158.5,90.6582H145.417a1.5,1.5,0,0,1,0-3H158.5a1.5,1.5,0,0,1,0,3Z"/><path d="M158.5,98.50879H145.417a1.5,1.5,0,0,1,0-3H158.5a1.5,1.5,0,0,1,0,3Z"/><path d="M86.542,125.9834H73.458a1.5,1.5,0,0,1,0-3H86.542a1.5,1.5,0,0,1,0,3Z"/><path d="M80,132.52539a1.50039,1.50039,0,0,1-1.5-1.5v-6.542a1.5,1.5,0,0,1,3,0v6.542A1.50039,1.50039,0,0,1,80,132.52539Z"/><path d="M80,111.5918a1.50039,1.50039,0,0,1-1.5-1.5V90.4668a1.5,1.5,0,0,1,3,0v19.625A1.50039,1.50039,0,0,1,80,111.5918Z"/><path d="M92.1748,111.5166a1.4999,1.4999,0,0,1-1.49219-1.36914l-1.71-19.5498a1.49986,1.49986,0,1,1,2.98828-.26172l1.71,19.5498a1.49986,1.49986,0,0,1-1.36328,1.625C92.2627,111.51465,92.21875,111.5166,92.1748,111.5166Z"/><path d="M104.33887,111.29395a1.50106,1.50106,0,0,1-1.47559-1.23926L99.45605,90.72754a1.50037,1.50037,0,1,1,2.95508-.52148l3.40723,19.32715a1.49844,1.49844,0,0,1-1.47949,1.76074Z"/><path d="M116.47852,110.92285a1.50078,1.50078,0,0,1-1.44824-1.11133l-5.0791-18.95605a1.50043,1.50043,0,0,1,2.89844-.77734l5.0791,18.95605a1.50141,1.50141,0,0,1-1.06055,1.83789A1.536,1.536,0,0,1,116.47852,110.92285Z"/><path d="M67.8252,111.5166c-.04395,0-.08789-.002-.13281-.00586a1.49986,1.49986,0,0,1-1.36328-1.625l1.71-19.5498a1.49986,1.49986,0,1,1,2.98828.26172l-1.71,19.5498A1.4999,1.4999,0,0,1,67.8252,111.5166Z"/><path d="M55.66113,111.29395a1.49844,1.49844,0,0,1-1.47949-1.76074l3.40723-19.32715a1.50037,1.50037,0,1,1,2.95508.52148l-3.40723,19.32715A1.50106,1.50106,0,0,1,55.66113,111.29395Z"/><path d="M43.52148,110.92285a1.536,1.536,0,0,1-.38965-.05078,1.50141,1.50141,0,0,1-1.06055-1.83789l5.0791-18.95605a1.50043,1.50043,0,1,1,2.89844.77734l-5.0791,18.95605A1.50078,1.50078,0,0,1,43.52148,110.92285Z"/><path d="M62.99121,125.9834H49.9082a1.5,1.5,0,1,1,0-3h13.083a1.5,1.5,0,0,1,0,3Z"/><path d="M56.4502,132.52539a1.50039,1.50039,0,0,1-1.5-1.5v-6.542a1.5,1.5,0,0,1,3,0v6.542A1.50039,1.50039,0,0,1,56.4502,132.52539Z"/><path d="M39.44141,125.9834H26.3584a1.5,1.5,0,0,1,0-3h13.083a1.5,1.5,0,0,1,0,3Z"/><path d="M32.90039,132.52539a1.50039,1.50039,0,0,1-1.5-1.5v-6.542a1.5,1.5,0,1,1,3,0v6.542A1.50039,1.50039,0,0,1,32.90039,132.52539Z"/><path d="M110.0918,125.9834h-13.083a1.5,1.5,0,0,1,0-3h13.083a1.5,1.5,0,1,1,0,3Z"/><path d="M103.5498,132.52539a1.50039,1.50039,0,0,1-1.5-1.5v-6.542a1.5,1.5,0,0,1,3,0v6.542A1.50039,1.50039,0,0,1,103.5498,132.52539Z"/><path d="M133.6416,125.9834h-13.083a1.5,1.5,0,1,1,0-3h13.083a1.5,1.5,0,0,1,0,3Z"/><path d="M127.09961,132.52539a1.50039,1.50039,0,0,1-1.5-1.5v-6.542a1.5,1.5,0,1,1,3,0v6.542A1.50039,1.50039,0,0,1,127.09961,132.52539Z"/><path d="M98.31641,141.68359H85.2334a1.5,1.5,0,0,1,0-3h13.083a1.5,1.5,0,0,1,0,3Z"/><path d="M91.77539,148.22461a1.50039,1.50039,0,0,1-1.5-1.5v-6.541a1.5,1.5,0,0,1,3,0v6.541A1.50039,1.50039,0,0,1,91.77539,148.22461Z"/><path d="M74.7666,141.68359h-13.083a1.5,1.5,0,0,1,0-3h13.083a1.5,1.5,0,0,1,0,3Z"/><path d="M68.22461,148.22461a1.50039,1.50039,0,0,1-1.5-1.5v-6.541a1.5,1.5,0,0,1,3,0v6.541A1.50039,1.50039,0,0,1,68.22461,148.22461Z"/><path d="M51.2168,141.68359h-13.083a1.5,1.5,0,0,1,0-3h13.083a1.5,1.5,0,1,1,0,3Z"/><path d="M44.6748,148.22461a1.50039,1.50039,0,0,1-1.5-1.5v-6.541a1.5,1.5,0,0,1,3,0v6.541A1.50039,1.50039,0,0,1,44.6748,148.22461Z"/><path d="M121.86621,141.68359h-13.083a1.5,1.5,0,0,1,0-3h13.083a1.5,1.5,0,0,1,0,3Z"/><path d="M115.3252,148.22461a1.50039,1.50039,0,0,1-1.5-1.5v-6.541a1.5,1.5,0,0,1,3,0v6.541A1.50039,1.50039,0,0,1,115.3252,148.22461Z"/></svg>