<svg xmlns="http://www.w3.org/2000/svg" viewBox="0 0 159.97949 160"><title>alo_icon_system_reminder-large</title><path d="M79.98975,160a73.45825,73.45825,0,1,1,73.458-73.458A73.5412,73.5412,0,0,1,79.98975,160Zm0-143.9165a70.45825,70.45825,0,1,0,70.458,70.4585A70.538,70.538,0,0,0,79.98975,16.0835Z"/><path d="M79.98975,16.0835a1.50007,1.50007,0,0,1-1.5-1.5V1.5a1.5,1.5,0,0,1,3,0V14.5835A1.50007,1.50007,0,0,1,79.98975,16.0835Z"/><path d="M93.07275,3h-26.166a1.5,1.5,0,0,1,0-3h26.166a1.5,1.5,0,0,1,0,3Z"/><path d="M79.98975,88.042a1.50039,1.50039,0,0,1-1.5-1.5V34.2085a1.5,1.5,0,0,1,3,0V86.542A1.50039,1.50039,0,0,1,79.98975,88.042Z"/><path d="M138.86475,88.042h-13.083a1.5,1.5,0,0,1,0-3h13.083a1.5,1.5,0,0,1,0,3Z"/><path d="M34.19775,88.042h-13.083a1.5,1.5,0,1,1,0-3h13.083a1.5,1.5,0,0,1,0,3Z"/><path d="M79.98975,146.917a1.50039,1.50039,0,0,1-1.5-1.5V132.333a1.5,1.5,0,0,1,3,0v13.084A1.50039,1.50039,0,0,1,79.98975,146.917Z"/><path d="M130.87158,37.15967a1.5,1.5,0,0,1-1.06055-2.56055L137.8042,26.606a1.49984,1.49984,0,0,1,2.12109,2.12109l-7.99316,7.99316A1.49514,1.49514,0,0,1,130.87158,37.15967Z"/><path d="M152.7417,43.04346a1.49514,1.49514,0,0,1-1.06055-.43945L123.92725,14.8501a1.49945,1.49945,0,0,1,0-2.12109,21.12482,21.12482,0,0,1,29.875,29.875A1.49514,1.49514,0,0,1,152.7417,43.04346ZM127.15283,13.833l25.54492,25.54541A18.12535,18.12535,0,0,0,127.15283,13.833Z"/><path d="M29.10791,37.15967a1.49514,1.49514,0,0,1-1.06055-.43945L20.0542,28.72705A1.49984,1.49984,0,0,1,22.17529,26.606l7.99316,7.99316a1.5,1.5,0,0,1-1.06055,2.56055Z"/><path d="M7.23779,43.04346A1.49514,1.49514,0,0,1,6.17725,42.604a21.12482,21.12482,0,1,1,29.875-29.875,1.49945,1.49945,0,0,1,0,2.12109L8.29834,42.604A1.49514,1.49514,0,0,1,7.23779,43.04346ZM21.11475,9.5498a18.11621,18.11621,0,0,0-13.833,29.82861L32.82666,13.833A18.07558,18.07558,0,0,0,21.11475,9.5498Z"/><path d="M151.94678,160a1.48729,1.48729,0,0,1-.77051-.21387L124.47119,143.7627a1.49978,1.49978,0,1,1,1.543-2.57227l26.70508,16.02344A1.49994,1.49994,0,0,1,151.94678,160Z"/><path d="M151.94873,160a1.49928,1.49928,0,0,1-1.28711-.72852l-16.02344-26.70605a1.49978,1.49978,0,0,1,2.57227-1.543l16.02344,26.70605A1.50012,1.50012,0,0,1,151.94873,160Z"/><path d="M8.03271,160a1.49994,1.49994,0,0,1-.77246-2.78613l26.70508-16.02344a1.49978,1.49978,0,1,1,1.543,2.57227L8.80322,159.78613A1.48729,1.48729,0,0,1,8.03271,160Z"/><path d="M8.03076,160a1.50012,1.50012,0,0,1-1.28516-2.27148l16.02246-26.70605a1.49978,1.49978,0,0,1,2.57227,1.543L9.31787,159.27148A1.49928,1.49928,0,0,1,8.03076,160Z"/></svg>