<svg id="Elements" xmlns="http://www.w3.org/2000/svg" viewBox="0 0 75 75"><title>alo_service</title><path d="M25,18.5a6,6,0,1,1,6-6A6.00656,6.00656,0,0,1,25,18.5Zm0-10a4,4,0,1,0,4,4A4.00427,4.00427,0,0,0,25,8.5Z"/><path d="M50,18.5a6,6,0,1,1,6-6A6.00656,6.00656,0,0,1,50,18.5Zm0-10a4,4,0,1,0,4,4A4.00427,4.00427,0,0,0,50,8.5Z"/><path d="M55.00586,68.5a3.50425,3.50425,0,0,1-3.5-3.5V43.5h-3V65a3.5,3.5,0,0,1-7,0V29.98535l-4.002-3.99854-4.00977,3.999V65a3.5,3.5,0,0,1-7,0V43.5h-3V65a3.5,3.5,0,0,1-7,0V29.98486L7.52539,21.01611A3.49976,3.49976,0,0,1,10,15.0415h0a3.47577,3.47577,0,0,1,2.47461,1.02539L17.9082,21.5H32.082l2.95215-2.93506a3.50463,3.50463,0,0,1,4.94824.002L42.91992,21.5H57.0918l5.43359-5.43311a3.58524,3.58524,0,0,1,4.94922-.00049h0a3.4999,3.4999,0,0,1,0,4.9502l-8.96875,8.96826V65A3.50425,3.50425,0,0,1,55.00586,68.5Zm-7.5-27h5a0.99974,0.99974,0,0,1,1,1V65a1.5,1.5,0,0,0,3,0V29.5708a1.00013,1.00013,0,0,1,.293-0.707l9.26172-9.26172a1.49886,1.49886,0,0,0,0-2.12061V17.481a1.53626,1.53626,0,0,0-2.12109,0L58.21289,23.207a0.99928,0.99928,0,0,1-.707.293h-15a1.00051,1.00051,0,0,1-.707-0.29248l-3.23047-3.22607a1.50151,1.50151,0,0,0-2.12207-.00049l-3.24707,3.228a0.99867,0.99867,0,0,1-.70508.291h-15a0.99928,0.99928,0,0,1-.707-0.293L11.06055,17.481A1.49076,1.49076,0,0,0,10,17.0415h0a1.49949,1.49949,0,0,0-1.06055,2.56006l9.26172,9.26221a1.00013,1.00013,0,0,1,.293.707V65a1.5,1.5,0,0,0,3,0V42.5a0.99974,0.99974,0,0,1,1-1h5a0.99974,0.99974,0,0,1,1,1V65a1.5,1.5,0,0,0,3,0V29.5708a0.99839,0.99839,0,0,1,.29395-0.708l5.01074-4.99707a1.00023,1.00023,0,0,1,1.41309.00049l5.001,4.99707a1.00126,1.00126,0,0,1,.293.70752V65a1.5,1.5,0,0,0,3,0V42.5A0.99974,0.99974,0,0,1,47.50586,41.5Z"/></svg>