<svg id="Elements" xmlns="http://www.w3.org/2000/svg" viewBox="0 0 75 75"><title>alo_service</title><path d="M13.85742,68.5a0.99864,0.99864,0,0,1-.68848-0.27441,21.87519,21.87519,0,0,1,0-31.45117,1.00024,1.00024,0,0,1,1.377,1.45117,19.874,19.874,0,0,0,0,28.54883A1,1,0,0,1,13.85742,68.5Z"/><path d="M13.85742,38.5a1,1,0,0,1-.68848-1.72559A19.71138,19.71138,0,0,0,19.21387,22.5,19.713,19.713,0,0,0,13.16895,8.22559a1.00024,1.00024,0,0,1,1.377-1.45117A21.724,21.724,0,0,1,21.21387,22.5a21.72153,21.72153,0,0,1-6.668,15.72559A0.99691,0.99691,0,0,1,13.85742,38.5Z"/><path d="M23.31445,68.5a0.99864,0.99864,0,0,1-.68848-0.27441,21.87519,21.87519,0,0,1,0-31.45117,1.00024,1.00024,0,0,1,1.377,1.45117,19.874,19.874,0,0,0,0,28.54883A1,1,0,0,1,23.31445,68.5Z"/><path d="M23.31445,38.5a1,1,0,0,1-.68848-1.72559,19.87619,19.87619,0,0,0,0-28.54883,1.00024,1.00024,0,0,1,1.377-1.45117,21.87742,21.87742,0,0,1,0,31.45117A0.99691,0.99691,0,0,1,23.31445,38.5Z"/><path d="M32.77148,68.5a0.99691,0.99691,0,0,1-.68848-0.27441,21.87519,21.87519,0,0,1,0-31.45117,1.00024,1.00024,0,0,1,1.377,1.45117,19.874,19.874,0,0,0,0,28.54883A1,1,0,0,1,32.77148,68.5Z"/><path d="M32.77148,38.5a1,1,0,0,1-.68848-1.72559,19.87619,19.87619,0,0,0,0-28.54883A1.00024,1.00024,0,0,1,33.46,6.77441a21.87742,21.87742,0,0,1,0,31.45117A0.99691,0.99691,0,0,1,32.77148,38.5Z"/><path d="M42.22852,68.5A0.99691,0.99691,0,0,1,41.54,68.22559a21.87519,21.87519,0,0,1,0-31.45117,1.00024,1.00024,0,0,1,1.377,1.45117,19.874,19.874,0,0,0,0,28.54883A1,1,0,0,1,42.22852,68.5Z"/><path d="M42.22852,38.5A1,1,0,0,1,41.54,36.77441a19.874,19.874,0,0,0,0-28.54883,1.00024,1.00024,0,0,1,1.377-1.45117,21.87519,21.87519,0,0,1,0,31.45117A0.99691,0.99691,0,0,1,42.22852,38.5Z"/><path d="M51.68555,68.5a0.99691,0.99691,0,0,1-.68848-0.27441,21.87742,21.87742,0,0,1,0-31.45117,1.00024,1.00024,0,0,1,1.377,1.45117,19.87619,19.87619,0,0,0,0,28.54883A1,1,0,0,1,51.68555,68.5Z"/><path d="M51.68555,38.5a1,1,0,0,1-.68848-1.72559,19.874,19.874,0,0,0,0-28.54883,1.00024,1.00024,0,0,1,1.377-1.45117,21.87519,21.87519,0,0,1,0,31.45117A0.99691,0.99691,0,0,1,51.68555,38.5Z"/><path d="M61.14258,68.5a0.99691,0.99691,0,0,1-.68848-0.27441,21.87742,21.87742,0,0,1,0-31.45117,1.00024,1.00024,0,0,1,1.377,1.45117,19.87619,19.87619,0,0,0,0,28.54883A1,1,0,0,1,61.14258,68.5Z"/><path d="M61.14258,38.5a1,1,0,0,1-.68848-1.72559,19.874,19.874,0,0,0,0-28.54883,1.00024,1.00024,0,0,1,1.377-1.45117,21.87519,21.87519,0,0,1,0,31.45117A0.99691,0.99691,0,0,1,61.14258,38.5Z"/></svg>