<svg id="Elements" xmlns="http://www.w3.org/2000/svg" viewBox="0 0 75 75"><title>alo_service</title><path d="M35,66A28.5,28.5,0,1,1,63.5,37.5,28.53242,28.53242,0,0,1,35,66Zm0-55A26.5,26.5,0,1,0,61.5,37.5,26.52981,26.52981,0,0,0,35,11Z"/><path d="M35.001,38.5a1,1,0,0,1-.501-1.86621l17.32031-10a1.00016,1.00016,0,1,1,1,1.73242l-17.32031,10A0.99445,0.99445,0,0,1,35.001,38.5Z"/><path d="M57.5,38.5h-5a1,1,0,0,1,0-2h5A1,1,0,0,1,57.5,38.5Z"/><path d="M17.5,38.5h-5a1,1,0,0,1,0-2h5A1,1,0,0,1,17.5,38.5Z"/><path d="M54.48438,49.75a0.99445,0.99445,0,0,1-.499-0.13379l-4.33008-2.5a1.00016,1.00016,0,1,1,1-1.73242l4.33008,2.5A1,1,0,0,1,54.48438,49.75Z"/><path d="M19.84375,29.75a0.99445,0.99445,0,0,1-.499-0.13379l-4.33008-2.5a1.00016,1.00016,0,0,1,1-1.73242l4.33008,2.5A1,1,0,0,1,19.84375,29.75Z"/><path d="M46.251,57.98584a1.0001,1.0001,0,0,1-.86719-0.5l-2.5-4.33057a1.00016,1.00016,0,0,1,1.73242-1l2.5,4.33057A0.99991,0.99991,0,0,1,46.251,57.98584Z"/><path d="M26.251,23.34473a1.0001,1.0001,0,0,1-.86719-0.5l-2.5-4.33008a1.00016,1.00016,0,1,1,1.73242-1l2.5,4.33008A0.99991,0.99991,0,0,1,26.251,23.34473Z"/><path d="M35,61a0.99974,0.99974,0,0,1-1-1V55a1,1,0,0,1,2,0v5A0.99974,0.99974,0,0,1,35,61Z"/><path d="M35,21a0.99974,0.99974,0,0,1-1-1V15a1,1,0,0,1,2,0v5A0.99974,0.99974,0,0,1,35,21Z"/><path d="M23.749,57.98584a0.99991,0.99991,0,0,1-.86523-1.5l2.5-4.33057a1.00016,1.00016,0,0,1,1.73242,1l-2.5,4.33057A1.0001,1.0001,0,0,1,23.749,57.98584Z"/><path d="M43.749,23.34473a0.99991,0.99991,0,0,1-.86523-1.5l2.5-4.33008a1.00016,1.00016,0,0,1,1.73242,1l-2.5,4.33008A1.0001,1.0001,0,0,1,43.749,23.34473Z"/><path d="M15.51563,49.75a1,1,0,0,1-.501-1.86621l4.33008-2.5a1.00016,1.00016,0,1,1,1,1.73242l-4.33008,2.5A0.99445,0.99445,0,0,1,15.51563,49.75Z"/><path d="M20,15.45605a0.99974,0.99974,0,0,1-1-1V7.5a1,1,0,0,1,2,0v6.95605A0.99974,0.99974,0,0,1,20,15.45605Z"/><path d="M50,15.45557a0.99974,0.99974,0,0,1-1-1V7.5a1,1,0,0,1,2,0v6.95557A0.99974,0.99974,0,0,1,50,15.45557Z"/><path d="M50,68.5a0.99974,0.99974,0,0,1-1-1V60.54395a1,1,0,0,1,2,0V67.5A0.99974,0.99974,0,0,1,50,68.5Z"/><path d="M20,68.5a0.99974,0.99974,0,0,1-1-1V60.54395a1,1,0,0,1,2,0V67.5A0.99974,0.99974,0,0,1,20,68.5Z"/><path d="M67.5,41H62.38184a1,1,0,0,1,0-2H66.5V36H62.38184a1,1,0,0,1,0-2H67.5a0.99974,0.99974,0,0,1,1,1v5A0.99974,0.99974,0,0,1,67.5,41Z"/><path d="M34.999,38.5a0.9991,0.9991,0,0,1-.55273-0.167l-8.3291-5.53369a1.00025,1.00025,0,0,1,1.10742-1.666l8.3291,5.53369A1.00017,1.00017,0,0,1,34.999,38.5Z"/></svg>