<svg id="Elements" xmlns="http://www.w3.org/2000/svg" viewBox="0 0 75 75"><title>alo_service</title><path d="M60,47.0918H15a3.50425,3.50425,0,0,1-3.5-3.5V26.08008a3.50425,3.50425,0,0,1,3.5-3.5H60a3.50425,3.50425,0,0,1,3.5,3.5V43.5918A3.50425,3.50425,0,0,1,60,47.0918ZM15,24.58008a1.50164,1.50164,0,0,0-1.5,1.5V43.5918a1.50164,1.50164,0,0,0,1.5,1.5H60a1.50164,1.50164,0,0,0,1.5-1.5V26.08008a1.50164,1.50164,0,0,0-1.5-1.5H15Z"/><path d="M42.32422,24.58008H32.67578a0.99974,0.99974,0,0,1-1-1V22.86377a3.50425,3.50425,0,0,1,3.5-3.5h4.64844a3.50425,3.50425,0,0,1,3.5,3.5v0.71631A0.99974,0.99974,0,0,1,42.32422,24.58008Zm-8.62109-2h7.59375a1.5017,1.5017,0,0,0-1.47266-1.21631H35.17578A1.5017,1.5017,0,0,0,33.70313,22.58008Z"/><path d="M39.82422,50.30762H35.17578a3.50425,3.50425,0,0,1-3.5-3.5V46.0918a0.99974,0.99974,0,0,1,1-1h9.64844a0.99974,0.99974,0,0,1,1,1v0.71582A3.50425,3.50425,0,0,1,39.82422,50.30762ZM33.70313,47.0918a1.50206,1.50206,0,0,0,1.47266,1.21582h4.64844a1.50206,1.50206,0,0,0,1.47266-1.21582H33.70313Z"/><path d="M37.5,42.26758a7.43188,7.43188,0,1,1,7.43164-7.43164A7.44027,7.44027,0,0,1,37.5,42.26758Zm0-12.86377a5.43188,5.43188,0,1,0,5.43164,5.43213A5.43808,5.43808,0,0,0,37.5,29.40381Z"/><path d="M55.8916,32.7959A2.60791,2.60791,0,1,1,58.5,30.188,2.61078,2.61078,0,0,1,55.8916,32.7959Zm0-3.21582A0.60791,0.60791,0,1,0,56.5,30.188,0.60849,0.60849,0,0,0,55.8916,29.58008Z"/><path d="M22.5,37.44385a2.60791,2.60791,0,1,1,2.6084-2.60791A2.611,2.611,0,0,1,22.5,37.44385Zm0-3.21582a0.60791,0.60791,0,1,0,.6084.60791A0.6087,0.6087,0,0,0,22.5,34.228Z"/><path d="M40.71582,21.36377H34.28418a0.99974,0.99974,0,0,1-1-1V17.14795a0.99974,0.99974,0,0,1,1-1h6.43164a0.99974,0.99974,0,0,1,1,1v3.21582A0.99974,0.99974,0,0,1,40.71582,21.36377Zm-5.43164-2h4.43164V18.14795H35.28418v1.21582Z"/><path d="M43.93164,18.14795H31.06836a0.99974,0.99974,0,0,1-1-1V7.5a0.99974,0.99974,0,0,1,1-1H43.93164a0.99974,0.99974,0,0,1,1,1v9.64795A0.99974,0.99974,0,0,1,43.93164,18.14795Zm-11.86328-2H42.93164V8.5H32.06836v7.64795Z"/><path d="M43.93164,14.93213H31.06836a1,1,0,0,1,0-2H43.93164A1,1,0,0,1,43.93164,14.93213Z"/><path d="M55.69238,68.5a0.99676,0.99676,0,0,1-.707-0.293L36.793,50.01465A0.99989,0.99989,0,0,1,38.207,48.60059L56.39941,66.793A1,1,0,0,1,55.69238,68.5Z"/><path d="M19.30762,68.5a1,1,0,0,1-.707-1.707L36.793,48.60059A0.99989,0.99989,0,0,1,38.207,50.01465L20.01465,68.207A0.99676,0.99676,0,0,1,19.30762,68.5Z"/><path d="M37.5,68.5a0.99974,0.99974,0,0,1-1-1V49.30762a1,1,0,0,1,2,0V67.5A0.99974,0.99974,0,0,1,37.5,68.5Z"/></svg>