<svg xmlns="http://www.w3.org/2000/svg" viewBox="0 0 160 160"><title>alo_icon_system_cancelled-large</title><path d="M132.333,159.999H27.667a14.59984,14.59984,0,0,1-14.584-14.583V40.75a1.5,1.5,0,0,1,3,0V145.416a11.59656,11.59656,0,0,0,11.584,11.583H132.333a11.59656,11.59656,0,0,0,11.584-11.583V40.75a1.5,1.5,0,0,1,3,0V145.416A14.59984,14.59984,0,0,1,132.333,159.999Z"/><path d="M158.5,42.25H1.5a1.5,1.5,0,0,1,0-3h157a1.5,1.5,0,0,1,0,3Z"/><path d="M145.417,68.417H14.583a1.5,1.5,0,1,1,0-3H145.417a1.5,1.5,0,0,1,0,3Z"/><path d="M80,160a1.50039,1.50039,0,0,1-1.5-1.5V40.75a1.5,1.5,0,0,1,3,0V158.5A1.50039,1.50039,0,0,1,80,160Z"/><path d="M53.833,160a1.50039,1.50039,0,0,1-1.5-1.5V40.75a1.5,1.5,0,0,1,3,0V158.5A1.50039,1.50039,0,0,1,53.833,160Z"/><path d="M27.667,160a1.50039,1.50039,0,0,1-1.5-1.5V40.75a1.5,1.5,0,0,1,3,0V158.5A1.50039,1.50039,0,0,1,27.667,160Z"/><path d="M106.167,160a1.50039,1.50039,0,0,1-1.5-1.5V40.75a1.5,1.5,0,1,1,3,0V158.5A1.50039,1.50039,0,0,1,106.167,160Z"/><path d="M132.333,160a1.50039,1.50039,0,0,1-1.5-1.5V40.75a1.5,1.5,0,0,1,3,0V158.5A1.50039,1.50039,0,0,1,132.333,160Z"/><path d="M145.417,120.75H14.583a1.5,1.5,0,1,1,0-3H145.417a1.5,1.5,0,0,1,0,3Z"/><path d="M158.5,29.167H1.5a1.5,1.5,0,0,1,0-3h157a1.5,1.5,0,0,1,0,3Z"/><path d="M1.5,42.25A1.50039,1.50039,0,0,1,0,40.75V27.667a1.5,1.5,0,0,1,3,0V40.75A1.50039,1.50039,0,0,1,1.5,42.25Z"/><path d="M158.5,42.25a1.50039,1.50039,0,0,1-1.5-1.5V27.667a1.5,1.5,0,0,1,3,0V40.75A1.50039,1.50039,0,0,1,158.5,42.25Z"/><path d="M119.25,29.167a1.50039,1.50039,0,0,1-1.5-1.5V9.34961A6.35707,6.35707,0,0,0,111.40039,3H48.59961A6.35707,6.35707,0,0,0,42.25,9.34961V27.667a1.5,1.5,0,1,1-3,0V9.34961A9.36035,9.36035,0,0,1,48.59961,0h62.80078A9.36035,9.36035,0,0,1,120.75,9.34961V27.667A1.50039,1.50039,0,0,1,119.25,29.167Z"/><path d="M106.167,29.167a1.50039,1.50039,0,0,1-1.5-1.5V17.2002A1.11821,1.11821,0,0,0,103.5498,16.083H56.4502A1.11821,1.11821,0,0,0,55.333,17.2002V27.667a1.5,1.5,0,1,1-3,0V17.2002A4.12149,4.12149,0,0,1,56.4502,13.083H103.5498A4.12149,4.12149,0,0,1,107.667,17.2002V27.667A1.50039,1.50039,0,0,1,106.167,29.167Z"/></svg>