<svg id="Elements" xmlns="http://www.w3.org/2000/svg" viewBox="0 0 75 75"><title>alo_service</title><path d="M22.5,23.5H7.5a1,1,0,0,1,0-2h15A1,1,0,0,1,22.5,23.5Z"/><path d="M22.5,41H7.5a1,1,0,0,1,0-2h15A1,1,0,0,1,22.5,41Z"/><path d="M22.5,58.5H7.5a1,1,0,0,1,0-2h15A1,1,0,0,1,22.5,58.5Z"/><path d="M62.5,68.5h-50a0.99974,0.99974,0,0,1-1-1v-55a0.99974,0.99974,0,0,1,1-1h30a1,1,0,0,1,0,2h-29v53h48v-53h-9a1,1,0,0,1,0-2h10a0.99974,0.99974,0,0,1,1,1v55A0.99974,0.99974,0,0,1,62.5,68.5Z"/><path d="M52.5,41a0.99978,0.99978,0,0,1-.707-0.293l-4.293-4.293-4.293,4.293A0.99991,0.99991,0,0,1,41.5,40V7.5a0.99974,0.99974,0,0,1,1-1h10a0.99974,0.99974,0,0,1,1,1V40A1,1,0,0,1,52.5,41Zm-5-7a0.99676,0.99676,0,0,1,.707.293l3.293,3.293V8.5h-8V37.58594l3.293-3.293A0.99676,0.99676,0,0,1,47.5,34Z"/><path d="M22.5,28.5a6,6,0,1,1,6-6A6.00656,6.00656,0,0,1,22.5,28.5Zm0-10a4,4,0,1,0,4,4A4.00427,4.00427,0,0,0,22.5,18.5Z"/><path d="M22.5,46a6,6,0,1,1,6-6A6.00656,6.00656,0,0,1,22.5,46Zm0-10a4,4,0,1,0,4,4A4.00427,4.00427,0,0,0,22.5,36Z"/><path d="M22.5,63.5a6,6,0,1,1,6-6A6.00656,6.00656,0,0,1,22.5,63.5Zm0-10a4,4,0,1,0,4,4A4.00427,4.00427,0,0,0,22.5,53.5Z"/><path d="M67.5,31h-5a0.99974,0.99974,0,0,1-1-1V20a0.99974,0.99974,0,0,1,1-1h5a0.99974,0.99974,0,0,1,1,1V30A0.99974,0.99974,0,0,1,67.5,31Zm-4-2h3V21h-3v8Z"/><path d="M67.5,41h-5a0.99974,0.99974,0,0,1-1-1V30a0.99974,0.99974,0,0,1,1-1h5a0.99974,0.99974,0,0,1,1,1V40A0.99974,0.99974,0,0,1,67.5,41Zm-4-2h3V31h-3v8Z"/><path d="M67.5,51h-5a0.99974,0.99974,0,0,1-1-1V40a0.99974,0.99974,0,0,1,1-1h5a0.99974,0.99974,0,0,1,1,1V50A0.99974,0.99974,0,0,1,67.5,51Zm-4-2h3V41h-3v8Z"/><path d="M67.5,61h-5a0.99974,0.99974,0,0,1-1-1V50a0.99974,0.99974,0,0,1,1-1h5a0.99974,0.99974,0,0,1,1,1V60A0.99974,0.99974,0,0,1,67.5,61Zm-4-2h3V51h-3v8Z"/></svg>