<svg xmlns="http://www.w3.org/2000/svg" viewBox="0 0 160 160"><title>alo_icon_system_free-large</title><path d="M158.5,160a1.49514,1.49514,0,0,1-1.06055-.43945l-157-157A1.49984,1.49984,0,0,1,2.56055.43945l157,157A1.5,1.5,0,0,1,158.5,160Z"/><path d="M158.5,120.75H1.5a1.50007,1.50007,0,0,1-1.5-1.5V40.75a1.50007,1.50007,0,0,1,1.5-1.5h157a1.50007,1.50007,0,0,1,1.5,1.5v78.5A1.50007,1.50007,0,0,1,158.5,120.75ZM3,117.75H157V42.25H3Z"/><path d="M132.3335,107.667H27.6665a1.50007,1.50007,0,0,1-1.5-1.5,11.59656,11.59656,0,0,0-11.583-11.584,1.50007,1.50007,0,0,1-1.5-1.5V66.917a1.50007,1.50007,0,0,1,1.5-1.5,11.59656,11.59656,0,0,0,11.583-11.584,1.50007,1.50007,0,0,1,1.5-1.5h104.667a1.50007,1.50007,0,0,1,1.5,1.5,11.59656,11.59656,0,0,0,11.583,11.584,1.50007,1.50007,0,0,1,1.5,1.5V93.083a1.50007,1.50007,0,0,1-1.5,1.5,11.59656,11.59656,0,0,0-11.583,11.584A1.50007,1.50007,0,0,1,132.3335,107.667Zm-103.24365-3H130.91016A14.61217,14.61217,0,0,1,143.9165,91.65918V68.34082A14.61217,14.61217,0,0,1,130.91016,55.333H29.08984A14.61217,14.61217,0,0,1,16.0835,68.34082V91.65918A14.61217,14.61217,0,0,1,29.08984,104.667Z"/><path d="M80,94.583A14.583,14.583,0,1,1,94.5835,80,14.59973,14.59973,0,0,1,80,94.583Zm0-26.166A11.583,11.583,0,1,0,91.5835,80,11.59645,11.59645,0,0,0,80,68.417Z"/></svg>