<svg xmlns="http://www.w3.org/2000/svg" viewBox="0 0 160 160"><title>alo_icon_system_editions-large</title><path d="M1.5,146.917a1.50039,1.50039,0,0,1-1.5-1.5V1.5a1.5,1.5,0,0,1,3,0V145.417A1.50039,1.50039,0,0,1,1.5,146.917Z"/><path d="M158.5,146.917a1.50039,1.50039,0,0,1-1.5-1.5V1.5a1.5,1.5,0,0,1,3,0V145.417A1.50039,1.50039,0,0,1,158.5,146.917Z"/><path d="M66.917,3H1.5a1.5,1.5,0,0,1,0-3H66.917a1.5,1.5,0,0,1,0,3Z"/><path d="M66.917,42.25H14.583a1.50039,1.50039,0,0,1-1.5-1.5V27.667a1.50039,1.50039,0,0,1,1.5-1.5H66.917a1.50039,1.50039,0,0,1,1.5,1.5V40.75A1.50039,1.50039,0,0,1,66.917,42.25Zm-50.834-3H65.417V29.167H16.083Z"/><path d="M66.917,120.75H53.833a1.50039,1.50039,0,0,1-1.5-1.5V66.917a1.50039,1.50039,0,0,1,1.5-1.5H66.917a1.50039,1.50039,0,0,1,1.5,1.5V119.25A1.50039,1.50039,0,0,1,66.917,120.75Zm-11.584-3H65.417V68.417H55.333Z"/><path d="M27.667,68.417H14.583a1.5,1.5,0,1,1,0-3H27.667a1.5,1.5,0,1,1,0,3Z"/><path d="M40.75,81.5H14.583a1.5,1.5,0,1,1,0-3H40.75a1.5,1.5,0,0,1,0,3Z"/><path d="M40.75,94.583H14.583a1.5,1.5,0,1,1,0-3H40.75a1.5,1.5,0,0,1,0,3Z"/><path d="M40.75,107.667H14.583a1.5,1.5,0,1,1,0-3H40.75a1.5,1.5,0,0,1,0,3Z"/><path d="M40.75,120.75H14.583a1.5,1.5,0,1,1,0-3H40.75a1.5,1.5,0,0,1,0,3Z"/><path d="M106.167,29.167H93.083a1.5,1.5,0,0,1,0-3h13.084a1.5,1.5,0,0,1,0,3Z"/><path d="M145.417,42.25H132.333a1.50039,1.50039,0,0,1-1.5-1.5V27.667a1.50039,1.50039,0,0,1,1.5-1.5h13.084a1.50039,1.50039,0,0,1,1.5,1.5V40.75A1.50039,1.50039,0,0,1,145.417,42.25Zm-11.584-3h10.084V29.167H133.833Z"/><path d="M145.417,94.583H132.333a1.50039,1.50039,0,0,1-1.5-1.5V66.917a1.50039,1.50039,0,0,1,1.5-1.5h13.084a1.50039,1.50039,0,0,1,1.5,1.5V93.083A1.50039,1.50039,0,0,1,145.417,94.583Zm-11.584-3h10.084V68.417H133.833Z"/><path d="M106.167,68.417H93.083a1.5,1.5,0,0,1,0-3h13.084a1.5,1.5,0,1,1,0,3Z"/><path d="M119.25,42.25H93.083a1.5,1.5,0,0,1,0-3H119.25a1.5,1.5,0,0,1,0,3Z"/><path d="M119.25,81.5H93.083a1.5,1.5,0,0,1,0-3H119.25a1.5,1.5,0,0,1,0,3Z"/><path d="M119.25,94.583H93.083a1.5,1.5,0,0,1,0-3H119.25a1.5,1.5,0,0,1,0,3Z"/><path d="M145.417,107.667H93.083a1.5,1.5,0,0,1,0-3h52.334a1.5,1.5,0,0,1,0,3Z"/><path d="M145.417,120.75H93.083a1.5,1.5,0,0,1,0-3h52.334a1.5,1.5,0,0,1,0,3Z"/><path d="M158.5,3H93.083a1.5,1.5,0,0,1,0-3H158.5a1.5,1.5,0,0,1,0,3Z"/><path d="M80,16.083a1.50039,1.50039,0,0,1-1.5-1.5A14.59963,14.59963,0,0,1,93.083,0a1.5,1.5,0,0,1,0,3A11.59635,11.59635,0,0,0,81.5,14.583,1.50039,1.50039,0,0,1,80,16.083Z"/><path d="M80,16.083a1.50039,1.50039,0,0,1-1.5-1.5A11.59635,11.59635,0,0,0,66.917,3a1.5,1.5,0,0,1,0-3A14.59963,14.59963,0,0,1,81.5,14.583,1.50039,1.50039,0,0,1,80,16.083Z"/><path d="M66.917,146.917H1.5a1.5,1.5,0,0,1,0-3H66.917a1.5,1.5,0,0,1,0,3Z"/><path d="M158.5,146.917H93.083a1.5,1.5,0,0,1,0-3H158.5a1.5,1.5,0,0,1,0,3Z"/><path d="M80,160a1.50039,1.50039,0,0,1-1.5-1.5,14.59963,14.59963,0,0,1,14.583-14.583,1.5,1.5,0,0,1,0,3A11.59635,11.59635,0,0,0,81.5,158.5,1.50039,1.50039,0,0,1,80,160Z"/><path d="M80,160a1.50039,1.50039,0,0,1-1.5-1.5,11.59635,11.59635,0,0,0-11.583-11.583,1.5,1.5,0,0,1,0-3A14.59963,14.59963,0,0,1,81.5,158.5,1.50039,1.50039,0,0,1,80,160Z"/><path d="M80,160a1.50039,1.50039,0,0,1-1.5-1.5V14.583a1.5,1.5,0,1,1,3,0V158.5A1.50039,1.50039,0,0,1,80,160Z"/></svg>