<svg id="Elements" xmlns="http://www.w3.org/2000/svg" viewBox="0 0 75 75"><title>alo_service</title><path d="M43.81592,40.0791a1,1,0,0,1,0-2A11.6449,11.6449,0,0,0,55.44727,26.44727a1,1,0,0,1,2,0A13.64719,13.64719,0,0,1,43.81592,40.0791Z"/><path d="M56.44727,27.44727a1,1,0,0,1-1-1,17.94727,17.94727,0,0,0-35.89453,0,1,1,0,0,1-2,0,19.94727,19.94727,0,0,1,39.89453,0A1,1,0,0,1,56.44727,27.44727Z"/><path d="M37.5,52.71045a1,1,0,0,1-1-1V45.39453a7.32388,7.32388,0,0,1,7.31592-7.31543,1,1,0,0,1,0,2A5.32159,5.32159,0,0,0,38.5,45.39453v6.31592A1,1,0,0,1,37.5,52.71045Z"/><path d="M37.5,68.5a4.158,4.158,0,1,1,4.15771-4.15771A4.16254,4.16254,0,0,1,37.5,68.5Zm0-6.31592a2.158,2.158,0,1,0,2.15771,2.1582A2.16035,2.16035,0,0,0,37.5,62.18408Z"/></svg>