<svg xmlns="http://www.w3.org/2000/svg" viewBox="0 0 160 160"><title>alo_icon_system_favorite-large</title><path d="M96.17188,80.21973a1.50044,1.50044,0,0,1-.69824-.17187L80,71.91113,64.52637,80.04785a1.50029,1.50029,0,0,1-2.17676-1.582l2.95605-17.23047L52.78613,49.0332a1.49974,1.49974,0,0,1,.83105-2.55859L70.918,43.96l7.7373-15.67676a1.49956,1.49956,0,0,1,2.68945,0L89.082,43.96l17.30078,2.51465a1.49974,1.49974,0,0,1,.83105,2.55859L94.69434,61.23535l2.95605,17.23047a1.49946,1.49946,0,0,1-1.47852,1.75391ZM80,68.7168a1.50653,1.50653,0,0,1,.69824.17188l13.48145,7.08887-2.5752-15.01172a1.50172,1.50172,0,0,1,.43164-1.32812l10.90723-10.63184L87.87012,46.81543a1.49961,1.49961,0,0,1-1.12891-.82031L80,32.33691l-6.74121,13.6582a1.49961,1.49961,0,0,1-1.12891.82031L57.05664,49.00586,67.96387,59.6377a1.50172,1.50172,0,0,1,.43164,1.32813l-2.5752,15.01172,13.48145-7.08887A1.50653,1.50653,0,0,1,80,68.7168Z"/><path d="M142.7998,160a17.09055,17.09055,0,0,1-12.16211-5.03711c-.23828-.23828-38.20215-38.2041-38.20215-38.2041a17.64127,17.64127,0,0,0-24.87012,0L29.3623,154.96289A17.20051,17.20051,0,0,1,0,142.7998V1.5A1.50039,1.50039,0,0,1,1.5,0h157A1.50039,1.50039,0,0,1,160,1.5V142.7998A17.21948,17.21948,0,0,1,142.7998,160Zm-10.041-7.1582A14.20083,14.20083,0,0,0,157,142.7998V3H3V142.7998a14.20083,14.20083,0,0,0,24.24121,10.042l38.20313-38.2041a20.64012,20.64012,0,0,1,29.1123,0l36.56055,36.5625c.76758.7666,1.28418,1.28418,1.61914,1.66406Z"/></svg>