<svg xmlns="http://www.w3.org/2000/svg" viewBox="0 0 160 160"><title>alo_icon_system_phone-large</title><path d="M103.33789,117.90771c-23.68262,0-68.48633-44.80469-68.48633-68.48682a20.98361,20.98361,0,0,1,6.1875-14.9375,1.49945,1.49945,0,0,1,2.12109,0l27.792,27.793a1.49863,1.49863,0,0,1,.40039.72119A24.78017,24.78017,0,0,0,89.7627,81.40576a1.50155,1.50155,0,0,1,.7207.40039l27.792,27.793a1.49945,1.49945,0,0,1,0,2.12109A20.98613,20.98613,0,0,1,103.33789,117.90771ZM42.14258,37.708a17.98844,17.98844,0,0,0-4.291,11.71289c0,22.03271,43.45313,65.48682,65.48633,65.48682a17.99417,17.99417,0,0,0,11.71289-4.291L88.66113,84.22607a27.80871,27.80871,0,0,1-20.12891-20.127Z"/><path d="M80,160A80.02077,80.02077,0,0,1,48.86035,6.28711a80.044,80.044,0,0,1,104.85254,104.853,1.50036,1.50036,0,0,1-2.76367-1.16895A77.01991,77.01991,0,0,0,9.05078,50.02881,76.97527,76.97527,0,0,0,80,157a1.5,1.5,0,0,1,0,3Z"/><path d="M111.53027,131.24463a1.50007,1.50007,0,0,1-1.5-1.5,19.80635,19.80635,0,0,0-1.56641-7.75928,1.50036,1.50036,0,0,1,2.76367-1.16895,22.79216,22.79216,0,0,1,1.80273,8.92822A1.50007,1.50007,0,0,1,111.53027,131.24463Z"/><path d="M109.84668,122.90137a1.4974,1.4974,0,0,1-1.2998-.75049,9.15776,9.15776,0,0,0-5.59766-4.29443,1.5,1.5,0,1,1,.77734-2.89746,12.135,12.135,0,0,1,7.418,5.69189,1.5003,1.5003,0,0,1-1.29785,2.25049Z"/><path d="M103.68262,150.19043a1.5,1.5,0,0,1-1.06055-2.56055,25.12919,25.12919,0,0,0,7.4082-17.88525,1.5,1.5,0,0,1,3,0,28.10987,28.10987,0,0,1-8.28711,20.00635A1.49514,1.49514,0,0,1,103.68262,150.19043Z"/><path d="M80,160a1.5,1.5,0,0,1,0-3,31.78481,31.78481,0,0,0,22.62207-9.37012,1.49984,1.49984,0,1,1,2.12109,2.12109A34.76264,34.76264,0,0,1,80,160Z"/><path d="M69.8916,64.83691a1.50061,1.50061,0,0,1-1.06055-.43945l-27.792-27.793a1.49945,1.49945,0,0,1,0-2.12109l5.55078-5.55078a6.73221,6.73221,0,0,1,9.52148,0l20.3916,20.3916a6.73221,6.73221,0,0,1,0,9.52246l-5.55078,5.55078A1.50061,1.50061,0,0,1,69.8916,64.83691Zm-25.6709-29.293L69.8916,61.21582l4.49023-4.49023a3.73331,3.73331,0,0,0,0-5.28027l-20.3916-20.3916a3.82289,3.82289,0,0,0-5.2793,0Z"/><path d="M117.21484,112.15967a1.49514,1.49514,0,0,1-1.06055-.43945l-27.793-27.793a1.49945,1.49945,0,0,1,0-2.12109l5.55078-5.55078a6.74077,6.74077,0,0,1,9.52246,0l20.3916,20.39209a6.73162,6.73162,0,0,1,0,9.522l-5.55078,5.55078A1.49514,1.49514,0,0,1,117.21484,112.15967ZM91.543,82.8667l25.67188,25.67187,4.49023-4.49023a3.73272,3.73272,0,0,0,0-5.27979l-20.3916-20.39209a3.73833,3.73833,0,0,0-5.28027,0Z"/></svg>