<svg xmlns="http://www.w3.org/2000/svg" viewBox="0 0 160 160"><title>alo_icon_system_view-large</title><path d="M146.165,160a1.5,1.5,0,0,1-1.06055-2.56055l12.335-12.335a1.49984,1.49984,0,0,1,2.12109,2.12109l-12.335,12.335A1.49514,1.49514,0,0,1,146.165,160Z"/><path d="M158.5,147.665a1.49514,1.49514,0,0,1-1.06055-.43945L95.94482,85.73145a1.49984,1.49984,0,0,1,2.12109-2.12109l61.49463,61.49414A1.5,1.5,0,0,1,158.5,147.665Z"/><path d="M146.165,160a1.49514,1.49514,0,0,1-1.06055-.43945L83.60986,98.06641A1.49984,1.49984,0,0,1,85.731,95.94531l61.49463,61.49414A1.5,1.5,0,0,1,146.165,160Z"/><path d="M97.00537,110.84082a1.5,1.5,0,0,1-1.06055-2.56055l12.335-12.335a1.49984,1.49984,0,0,1,2.12109,2.12109l-12.335,12.335A1.49514,1.49514,0,0,1,97.00537,110.84082Z"/><path d="M53.833,107.666A53.83265,53.83265,0,0,1,15.76758,15.76758,53.83265,53.83265,0,1,1,91.89844,91.89844h0A53.47867,53.47867,0,0,1,53.833,107.666ZM53.833,3A50.833,50.833,0,0,0,17.88867,89.77734a50.83287,50.83287,0,0,0,71.88867,0h0A50.833,50.833,0,0,0,53.833,3Z"/><path d="M29.16309,80.00293a1.49514,1.49514,0,0,1-1.06055-.43945,36.4293,36.4293,0,0,1,0-51.46094,1.49984,1.49984,0,0,1,2.12109,2.12109,33.38876,33.38876,0,0,0,0,47.21875,1.5,1.5,0,0,1-1.06055,2.56055Z"/></svg>