<svg xmlns="http://www.w3.org/2000/svg" viewBox="0 0 160 159.99174"><title>alo_icon_system_host-large</title><path d="M158.5,159.99174H1.5a1.49976,1.49976,0,0,1-1.5-1.5c0-14.86719,4.9917-23.97461,14.43506-26.33789,10.63477-2.66162,17.91064-7.2627,26.88525-14.311a1.49978,1.49978,0,0,1,2.18115.35742,43.92526,43.92526,0,0,0,72.99707,0,1.49978,1.49978,0,0,1,2.18115-.35742c8.97461,7.04834,16.25049,11.64941,26.88525,14.311C155.0083,134.51713,160,143.62455,160,158.49174A1.49976,1.49976,0,0,1,158.5,159.99174Zm-155.48291-3H156.98291c-.2959-12.60986-4.37842-19.9834-12.14648-21.92773-10.64307-2.66357-18.01611-7.13037-26.74365-13.875a46.96078,46.96078,0,0,1-76.18555,0c-8.72754,6.74463-16.10059,11.21143-26.74365,13.875C7.39551,137.00834,3.313,144.38188,3.01709,156.99174Z"/><path d="M80.4292,107.73051h-.8584c-11.12451,0-20.29736-3.76807-27.26416-11.19971C37.03418,79.65141,38.91309,48.5,39.44482,42.42631l.01709-.19678-.00244-.35156c.75781-16.5166,6.44824-28.40625,16.915-35.40674A40.72069,40.72069,0,0,1,78.28369.05082h1.66455c1.84375-.123,15.98926-.71924,26.99707,9.09766,8.11426,7.23633,12.54346,18.22607,13.16455,32.665l.00146.49365h-.01465c.74219,3.20752.84814,12.51025.11475,19.98828-.99365,10.13721-3.96484,24.29736-12.4751,34.188l-.0127.01416C101.0542,104.05619,92.126,107.73051,80.4292,107.73051ZM78.28369,3.05082c-7.98486,0-34.166,2.80469-35.82568,38.896l.00146.36035c0,.02881-.00635.15771-.02588.38086-.5127,5.85547-2.33936,35.874,12.07959,51.81055,6.35889,6.78271,14.7959,10.23193,25.05762,10.23193h.8584c10.78174,0,18.97217-3.33984,25.03857-10.21045,14.62793-17.00781,12.48779-48.39795,11.748-51.6626a1.49977,1.49977,0,0,1-.10449-.55029V41.878c-.5835-13.53418-4.67627-23.814-12.1626-30.49023-10.208-9.103-23.375-8.44629-24.8418-8.34082-.03564.00244-.07129.00391-.10693.00391Zm28.31543,92.4541h0Zm10.94824-52.14014.00342.00293Zm-.00293-.00342.00293.00293Zm-.00293-.00293.002.00244Zm-.00244-.00244.001.001Zm-.33936-.56592.00049.00049Z"/><path d="M42.24609,120.522a1.5,1.5,0,0,1-.97656-2.63916c8.04736-6.89551,13.18164-12.99658,15.6958-18.65137a1.5,1.5,0,0,1,2.74121,1.21875c-2.69922,6.07129-8.0918,12.51855-16.48486,19.71094A1.49468,1.49468,0,0,1,42.24609,120.522Z"/><path d="M117.75244,120.522a1.49468,1.49468,0,0,1-.97559-.36084c-8.32666-7.13623-13.69727-13.541-16.41895-19.57959a1.50008,1.50008,0,1,1,2.73535-1.23242c2.53613,5.62793,7.65088,11.69043,15.63574,18.53369a1.5,1.5,0,0,1-.97656,2.63916Z"/></svg>