<svg id="Elements" xmlns="http://www.w3.org/2000/svg" viewBox="0 0 75 75"><title>alo_service</title><path d="M46.41895,52.41357c-9.44629,0-26.59961-17.15283-26.59961-26.59961a8.44293,8.44293,0,0,1,2.48926-6.01074,1.02932,1.02932,0,0,1,1.41406,0L34.34375,30.4248a1.00051,1.00051,0,0,1,.2666.481,9.04155,9.04155,0,0,0,6.7168,6.71582,0.99983,0.99983,0,0,1,.48047.26709L52.42969,48.51025a0.99964,0.99964,0,0,1,0,1.41406A8.4446,8.4446,0,0,1,46.41895,52.41357ZM23.06934,21.978a6.45532,6.45532,0,0,0-1.25,3.83594c0,8.27637,16.32324,24.59961,24.59961,24.59961a6.45532,6.45532,0,0,0,3.83594-1.25l-9.66406-9.66406a11.062,11.062,0,0,1-7.8584-7.85742Z"/><path d="M37.5,68.5a31,31,0,1,1,0-62A31.01663,31.01663,0,0,1,66.06348,49.56689a0.99994,0.99994,0,0,1-1.8418-.7793A29.03394,29.03394,0,1,0,37.5,66.5,1,1,0,0,1,37.5,68.5Z"/><path d="M49.5498,57.51074a0.99974,0.99974,0,0,1-1-1,7.16458,7.16458,0,0,0-.56445-2.79932,0.99975,0.99975,0,1,1,1.8418-.77832,9.13989,9.13989,0,0,1,.72266,3.57764A0.99974,0.99974,0,0,1,49.5498,57.51074Z"/><path d="M48.90723,54.32227a1.0001,1.0001,0,0,1-.86719-0.5,3.07572,3.07572,0,0,0-1.87988-1.44287,0.99989,0.99989,0,1,1,.51758-1.93164,5.06342,5.06342,0,0,1,3.09473,2.37451A0.99991,0.99991,0,0,1,48.90723,54.32227Z"/><path d="M46.55078,64.751a1,1,0,0,1-.707-1.707,9.17894,9.17894,0,0,0,2.70605-6.5332,1,1,0,0,1,2,0,11.16444,11.16444,0,0,1-3.292,7.94727A0.99676,0.99676,0,0,1,46.55078,64.751Z"/><path d="M37.5,68.5a1,1,0,0,1,0-2,11.72383,11.72383,0,0,0,8.34375-3.45605A0.99989,0.99989,0,0,1,47.25781,64.458,13.71017,13.71017,0,0,1,37.5,68.5Z"/><path d="M33.63672,32.13184a0.99676,0.99676,0,0,1-.707-0.293L22.30859,21.21729a0.99964,0.99964,0,0,1,0-1.41406l2.12109-2.12109a3.07182,3.07182,0,0,1,4.24316.00049l7.793,7.79248a3.00511,3.00511,0,0,1,.001,4.24219l-0.001.00049-2.12207,2.12109A0.99676,0.99676,0,0,1,33.63672,32.13184Zm-9.207-11.62158,9.207,9.20752,1.415-1.41357a1.00229,1.00229,0,0,0-.001-1.41553l-7.793-7.79248a1.02449,1.02449,0,0,0-1.41406,0Zm11.3291,8.50049h0Z"/><path d="M51.72266,50.21729a0.99928,0.99928,0,0,1-.707-0.293L40.39355,39.30273a0.99964,0.99964,0,0,1,0-1.41406l2.12109-2.12158a3.0054,3.0054,0,0,1,4.24316-.00049l7.793,7.79346a3.003,3.003,0,0,1,0,4.24268l-2.12109,2.12158A0.99928,0.99928,0,0,1,51.72266,50.21729Zm-9.208-11.62158,9.208,9.20752,1.41406-1.41455h0a1.002,1.002,0,0,0,0-1.41455l-7.793-7.793a1.0017,1.0017,0,0,0-1.415.00049Z"/></svg>