<svg xmlns="http://www.w3.org/2000/svg" viewBox="0 0 159.98242 132.94531"><title>alo_icon_system_meet-large</title><path d="M128.9729,82.88867a1.50061,1.50061,0,0,1-1.06055-.43945L93.75513,48.292a8.22438,8.22438,0,0,1-7.207,4.271H55.13794a8.23047,8.23047,0,1,1,0-16.46094H76.95239L92.217,20.83594a7.1177,7.1177,0,0,1,10.05371,0l4.76172,4.76123a2.9886,2.9886,0,0,0,4.22266-.00244L128.7063,8.14453a18.32625,18.32625,0,1,1,25.917,25.91748L137.17212,51.51318a2.99155,2.99155,0,0,0,0,4.22363l4.75977,4.76025a7.11711,7.11711,0,0,1,0,10.05322L130.03345,82.44922A1.50061,1.50061,0,0,1,128.9729,82.88867ZM94.21411,44.50879l34.75879,34.7583L139.81079,68.4292a4.10994,4.10994,0,0,0,0-5.811L135.05,57.85742a5.99518,5.99518,0,0,1,.001-8.46533L152.5022,31.94092a15.32657,15.32657,0,1,0-21.6748-21.67529L113.37622,27.71631a5.99459,5.99459,0,0,1-8.46484.00244L100.14966,22.957a4.11393,4.11393,0,0,0-5.81152.00049L78.634,38.6626a1.50061,1.50061,0,0,1-1.06055.43945H55.13794a5.23047,5.23047,0,1,0,0,10.46094H86.5481A5.22531,5.22531,0,0,0,91.676,45.31152a1.50014,1.50014,0,0,1,1.33008-1.23486,1.42168,1.42168,0,0,1,.25391-.00342,1.49411,1.49411,0,0,1,.95117.43213Z"/><path d="M75.43091,132.94531a9.91506,9.91506,0,0,1-9.91406-9.91357,10.0133,10.0133,0,0,1,.252-2.23633,9.98484,9.98484,0,0,1-2.23633.252,9.91012,9.91012,0,0,1-9.6543-12.15186,9.99157,9.99157,0,0,1-2.24414.25342,9.91085,9.91085,0,0,1-9.65332-12.15869,9.91014,9.91014,0,1,1,7.66895-9.65283,10.01764,10.01764,0,0,1-.252,2.23682,9.98484,9.98484,0,0,1,2.23633-.252,9.91,9.91,0,0,1,9.6543,12.15137,9.99157,9.99157,0,0,1,2.24414-.25342,9.91012,9.91012,0,0,1,9.6543,12.15186,9.99157,9.99157,0,0,1,2.24414-.25342,9.91333,9.91333,0,0,1,7.00977,16.92285h0A9.84988,9.84988,0,0,1,75.43091,132.94531Zm-4.88867-14.80176a6.91375,6.91375,0,1,0,4.88867-2.0249,6.86972,6.86972,0,0,0-4.88867,2.0249ZM81.38013,128.981h0ZM58.6438,106.24512a6.91375,6.91375,0,1,0,4.88867-2.0249A6.922,6.922,0,0,0,58.6438,106.24512ZM46.74536,94.34717a6.91375,6.91375,0,1,0,4.88867-2.0249,6.92143,6.92143,0,0,0-4.88867,2.0249ZM39.7356,80.42383a6.9136,6.9136,0,1,0,4.88867,11.80225h0A6.91357,6.91357,0,0,0,39.7356,80.42383Z"/><path d="M87.32837,132.94531a9.84821,9.84821,0,0,1-7.00977-2.90381,1.49984,1.49984,0,1,1,2.12109-2.12109,6.91363,6.91363,0,0,0,9.77734-9.77734,1.49984,1.49984,0,0,1,2.12109-2.12109,6.91345,6.91345,0,0,0,9.77734-9.77686,1.49984,1.49984,0,1,1,2.12109-2.12109,6.91363,6.91363,0,0,0,9.77734-9.77734,1.49984,1.49984,0,1,1,2.12109-2.12109,6.91363,6.91363,0,0,0,9.77734-9.77734,1.49984,1.49984,0,0,1,2.12109-2.12109,9.91382,9.91382,0,0,1-7.00977,16.92334,9.998,9.998,0,0,1-2.24414-.25342,9.9235,9.9235,0,0,1-11.89844,11.89844,9.90758,9.90758,0,0,1-11.89941,11.89111,9.91085,9.91085,0,0,1-9.65332,12.15869Z"/><path d="M33.78638,82.88916a1.49514,1.49514,0,0,1-1.06055-.43945L18.05,67.77344a7.1183,7.1183,0,0,1,0-10.05273l4.75977-4.75928a2.99155,2.99155,0,0,0,.001-4.2251L5.35864,31.28516A18.3269,18.3269,0,0,1,18.3186,0h0a18.20328,18.20328,0,0,1,12.958,5.36768L48.72778,22.81885a3.05772,3.05772,0,0,0,4.22266,0l4.76172-4.75977a7.11652,7.11652,0,0,1,10.05273.001L82.43872,32.73438a1.49984,1.49984,0,0,1-2.12109,2.12109L65.6438,20.18115a4.10758,4.10758,0,0,0-5.81055-.00049l-4.76074,4.75928a5.98661,5.98661,0,0,1-8.46582.00049L29.15552,7.48877A15.32692,15.32692,0,0,0,7.47974,29.16406L24.93188,46.61523a5.99458,5.99458,0,0,1-.001,8.46777l-4.75977,4.7583a4.11645,4.11645,0,0,0,0,5.811L34.84692,80.32861a1.5,1.5,0,0,1-1.06055,2.56055Z"/></svg>