<svg xmlns="http://www.w3.org/2000/svg" viewBox="0 0 160 160"><title>alo_icon_system_duration-large</title><path d="M151.958,160H8.042a8.0415,8.0415,0,1,1,0-16.083H151.958a8.0415,8.0415,0,1,1,0,16.083ZM8.042,146.917a5.0415,5.0415,0,1,0,0,10.083H151.958a5.0415,5.0415,0,1,0,0-10.083Z"/><path d="M151.958,16.0835H8.042A8.04175,8.04175,0,1,1,8.042,0H151.958a8.04175,8.04175,0,1,1,0,16.0835ZM8.042,3a5.04175,5.04175,0,1,0,0,10.0835H151.958A5.04175,5.04175,0,1,0,151.958,3Z"/><path d="M148.59082,146.917a1.50039,1.50039,0,0,1-1.5-1.5,11.507,11.507,0,0,0-3.39258-8.19141L96.78516,90.31152a14.58253,14.58253,0,0,1,0-20.62354l46.91309-46.91406a11.50558,11.50558,0,0,0,3.39258-8.19043,1.5,1.5,0,0,1,3,0,14.48419,14.48419,0,0,1-4.27148,10.312L98.90625,71.80908a11.596,11.596,0,0,0,0,16.38135l46.91309,46.91406a14.4828,14.4828,0,0,1,4.27148,10.3125A1.50039,1.50039,0,0,1,148.59082,146.917Z"/><path d="M11.40918,146.917a1.50039,1.50039,0,0,1-1.5-1.5,14.49094,14.49094,0,0,1,4.27051-10.3125l46.915-46.91406a11.596,11.596,0,0,0,0-16.38135L14.17969,24.895A14.49036,14.49036,0,0,1,9.90918,14.5835a1.5,1.5,0,0,1,3,0,11.512,11.512,0,0,0,3.3916,8.19043L63.21582,69.688a14.58253,14.58253,0,0,1,0,20.62354l-46.915,46.91406a11.51514,11.51514,0,0,0-3.3916,8.19141A1.50039,1.50039,0,0,1,11.40918,146.917Z"/><path d="M66.917,146.917a1.50039,1.50039,0,0,1-1.5-1.5V119.25a1.5,1.5,0,0,1,3,0v26.167A1.50039,1.50039,0,0,1,66.917,146.917Z"/><path d="M93.084,146.917a1.50039,1.50039,0,0,1-1.5-1.5V119.25a1.5,1.5,0,0,1,3,0v26.167A1.50039,1.50039,0,0,1,93.084,146.917Z"/><path d="M106.167,146.917a1.50039,1.50039,0,0,1-1.5-1.5V132.334a1.5,1.5,0,0,1,3,0v13.083A1.50039,1.50039,0,0,1,106.167,146.917Z"/><path d="M53.834,146.917a1.50039,1.50039,0,0,1-1.5-1.5V132.334a1.5,1.5,0,0,1,3,0v13.083A1.50039,1.50039,0,0,1,53.834,146.917Z"/><path d="M80.001,146.917a1.50039,1.50039,0,0,1-1.5-1.5V40.75a1.5,1.5,0,0,1,3,0V145.417A1.50039,1.50039,0,0,1,80.001,146.917Z"/><path d="M65.9873,81.5a1.50007,1.50007,0,0,1-1.5-1.5V53.8335a1.5,1.5,0,0,1,3,0V80A1.50007,1.50007,0,0,1,65.9873,81.5Z"/><path d="M94.01367,81.5a1.50007,1.50007,0,0,1-1.5-1.5V53.8335a1.5,1.5,0,1,1,3,0V80A1.50007,1.50007,0,0,1,94.01367,81.5Z"/></svg>