<svg xmlns="http://www.w3.org/2000/svg" viewBox="0 0 160 160"><title>alo_icon_system_cards-large</title><path d="M60.375,68.417H1.5a1.5,1.5,0,0,1,0-3H60.375a1.5,1.5,0,0,1,0,3Z"/><path d="M60.375,94.583H1.5a1.5,1.5,0,0,1,0-3H60.375a1.5,1.5,0,0,1,0,3Z"/><path d="M60.375,3H1.5a1.5,1.5,0,0,1,0-3H60.375a1.5,1.5,0,0,1,0,3Z"/><path d="M60.375,160H1.5a1.5,1.5,0,0,1,0-3H60.375a1.5,1.5,0,0,1,0,3Z"/><path d="M158.5,68.417H99.625a1.5,1.5,0,0,1,0-3H158.5a1.5,1.5,0,0,1,0,3Z"/><path d="M158.5,94.583H99.625a1.5,1.5,0,0,1,0-3H158.5a1.5,1.5,0,0,1,0,3Z"/><path d="M158.5,3H99.625a1.5,1.5,0,0,1,0-3H158.5a1.5,1.5,0,0,1,0,3Z"/><path d="M158.5,160H99.625a1.5,1.5,0,0,1,0-3H158.5a1.5,1.5,0,0,1,0,3Z"/><path d="M1.5,68.417a1.50007,1.50007,0,0,1-1.5-1.5V1.5a1.5,1.5,0,0,1,3,0V66.917A1.50007,1.50007,0,0,1,1.5,68.417Z"/><path d="M60.375,68.417a1.50007,1.50007,0,0,1-1.5-1.5V1.5a1.5,1.5,0,0,1,3,0V66.917A1.50007,1.50007,0,0,1,60.375,68.417Z"/><path d="M99.625,68.417a1.50007,1.50007,0,0,1-1.5-1.5V1.5a1.5,1.5,0,0,1,3,0V66.917A1.50007,1.50007,0,0,1,99.625,68.417Z"/><path d="M158.5,68.417a1.50007,1.50007,0,0,1-1.5-1.5V1.5a1.5,1.5,0,0,1,3,0V66.917A1.50007,1.50007,0,0,1,158.5,68.417Z"/><path d="M1.5,160A1.50007,1.50007,0,0,1,0,158.5V93.083a1.5,1.5,0,0,1,3,0V158.5A1.50007,1.50007,0,0,1,1.5,160Z"/><path d="M60.375,160a1.50007,1.50007,0,0,1-1.5-1.5V93.083a1.5,1.5,0,0,1,3,0V158.5A1.50007,1.50007,0,0,1,60.375,160Z"/><path d="M99.625,160a1.50007,1.50007,0,0,1-1.5-1.5V93.083a1.5,1.5,0,0,1,3,0V158.5A1.50007,1.50007,0,0,1,99.625,160Z"/><path d="M158.5,160a1.50007,1.50007,0,0,1-1.5-1.5V93.083a1.5,1.5,0,0,1,3,0V158.5A1.50007,1.50007,0,0,1,158.5,160Z"/></svg>