<svg id="Elements" xmlns="http://www.w3.org/2000/svg" viewBox="0 0 75 75"><title>alo_service</title><path d="M67.5,58.5H7.5a0.99942,0.99942,0,0,1-1-1v-20a0.99974,0.99974,0,0,1,1-1h60a0.99974,0.99974,0,0,1,1,1v20A0.99942,0.99942,0,0,1,67.5,58.5Zm-59-2h58v-18H8.5v18Z"/><path d="M67.5,38.5H7.5a0.99942,0.99942,0,0,1-1-1v-10a0.99974,0.99974,0,0,1,1-1h60a0.99974,0.99974,0,0,1,1,1v10A0.99942,0.99942,0,0,1,67.5,38.5Zm-59-2h58v-8H8.5v8Z"/><path d="M62.5,68.5h-50a0.99942,0.99942,0,0,1-1-1v-10a0.99942,0.99942,0,0,1,1-1h50a0.99942,0.99942,0,0,1,1,1v10A0.99942,0.99942,0,0,1,62.5,68.5Zm-49-2h48v-8h-48v8Z"/><path d="M15,48.5A3.5,3.5,0,1,1,18.5,45,3.50425,3.50425,0,0,1,15,48.5Zm0-5A1.5,1.5,0,1,0,16.5,45,1.50164,1.50164,0,0,0,15,43.5Z"/><path d="M25,48.5A3.5,3.5,0,1,1,28.5,45,3.50425,3.50425,0,0,1,25,48.5Zm0-5A1.5,1.5,0,1,0,26.5,45,1.50164,1.50164,0,0,0,25,43.5Z"/><path d="M47.5,13.5h-20a1,1,0,0,1,0-2h20A1,1,0,0,1,47.5,13.5Z"/><path d="M47.5,18.5h-20a1,1,0,0,1,0-2h20A1,1,0,0,1,47.5,18.5Z"/><path d="M47.5,23.5h-20a1,1,0,0,1,0-2h20A1,1,0,0,1,47.5,23.5Z"/><path d="M67.5,13.5h-10a0.99974,0.99974,0,0,1-1-1,6,6,0,0,1,12,0A0.99974,0.99974,0,0,1,67.5,13.5Zm-8.873-2H66.373A4.00008,4.00008,0,0,0,58.627,11.5Z"/><path d="M57.5,28.5h-40a0.99974,0.99974,0,0,1-1-1v-15a6.00656,6.00656,0,0,1,6-6h40a1,1,0,0,1,0,2h-40a4.00427,4.00427,0,0,0-4,4v14h38v-14a1,1,0,0,1,2,0v15A0.99974,0.99974,0,0,1,57.5,28.5Z"/></svg>