<svg xmlns="http://www.w3.org/2000/svg" viewBox="0 0 159.99652 160"><title>alo_icon_system_activity-large</title><path d="M47.2915,29.167A14.5835,14.5835,0,1,1,61.875,14.5835,14.59973,14.59973,0,0,1,47.2915,29.167Zm0-26.167A11.5835,11.5835,0,1,0,58.875,14.5835,11.59645,11.59645,0,0,0,47.2915,3Z"/><path d="M112.708,29.167a14.5835,14.5835,0,1,1,14.5835-14.5835A14.59973,14.59973,0,0,1,112.708,29.167Zm0-26.167a11.5835,11.5835,0,1,0,11.5835,11.5835A11.59645,11.59645,0,0,0,112.708,3Z"/><path d="M125.80664,160a8.05074,8.05074,0,0,1-8.0415-8.042V94.5835h-10.0835V151.958a8.0415,8.0415,0,1,1-16.083,0V59.874L80.0127,48.29639,68.40137,59.875v92.083a8.04175,8.04175,0,1,1-16.0835,0V94.5835H42.23438V151.958a8.0415,8.0415,0,1,1-16.083,0V59.87354L2.356,36.07813A8.0415,8.0415,0,0,1,8.04248,22.35059H8.043A7.98829,7.98829,0,0,1,13.728,24.70605L28.27246,39.25H66.28271l8.05371-8.00537a8.04188,8.04188,0,0,1,11.36963.00342l8.01318,8.002h38.0083l14.54492-14.54395a8.04129,8.04129,0,0,1,11.37256,0h.00049a8.05089,8.05089,0,0,1-.00049,11.37207L133.84863,59.87354V151.958A8.05084,8.05084,0,0,1,125.80664,160Zm-19.625-68.4165h13.0835a1.49976,1.49976,0,0,1,1.5,1.5V151.958a5.04175,5.04175,0,1,0,10.0835,0V59.25244a1.49976,1.49976,0,0,1,.43945-1.06055L155.52393,33.957a5.048,5.048,0,0,0,0-7.12988h0a5.04238,5.04238,0,0,0-7.13037,0l-14.98437,14.9834a1.49976,1.49976,0,0,1-1.06055.43945h-39.25a1.5006,1.5006,0,0,1-1.06006-.43848l-8.45312-8.44141a5.0412,5.0412,0,0,0-7.13037-.001L67.959,41.814a1.50046,1.50046,0,0,1-1.05762.436h-39.25a1.49976,1.49976,0,0,1-1.06055-.43945L11.60645,26.82715a5.04124,5.04124,0,1,0-7.12939,7.12939L28.71191,58.19189a1.49976,1.49976,0,0,1,.43945,1.06055V151.958a5.0415,5.0415,0,1,0,10.083,0V93.0835a1.49976,1.49976,0,0,1,1.5-1.5h13.0835a1.49976,1.49976,0,0,1,1.5,1.5V151.958a5.04175,5.04175,0,1,0,10.0835,0V59.25244a1.49962,1.49962,0,0,1,.44092-1.062l13.1123-13.07568a1.49886,1.49886,0,0,1,2.11914.001l13.085,13.07568a1.49932,1.49932,0,0,1,.43994,1.061V151.958a5.0415,5.0415,0,1,0,10.083,0V93.0835A1.49976,1.49976,0,0,1,106.18164,91.5835Z"/></svg>