<svg id="Elements" xmlns="http://www.w3.org/2000/svg" viewBox="0 0 75 75"><title>alo_service</title><path d="M57.5,53.5a1,1,0,0,1-1-1v-20a19,19,0,0,0-38,0v20a1,1,0,0,1-2,0v-20a21,21,0,0,1,42,0v20A1,1,0,0,1,57.5,53.5Z"/><path d="M57.5,63.5h-40a6,6,0,0,1,0-12h40A6,6,0,0,1,57.5,63.5Zm-40-10a4,4,0,0,0,0,8h40a4,4,0,0,0,0-8h-40Z"/><path d="M37.5,13.5A3.5,3.5,0,1,1,41,10,3.50425,3.50425,0,0,1,37.5,13.5Zm0-5A1.5,1.5,0,1,0,39,10,1.50164,1.50164,0,0,0,37.5,8.5Z"/><path d="M37.5,68.5a6.00656,6.00656,0,0,1-6-6,1,1,0,0,1,2,0,4,4,0,0,0,8,0,1,1,0,0,1,2,0A6.00656,6.00656,0,0,1,37.5,68.5Z"/><path d="M52.5,33.5a1,1,0,0,1-1-1,14.01573,14.01573,0,0,0-14-14,1,1,0,0,1,0-2,16.01833,16.01833,0,0,1,16,16A1,1,0,0,1,52.5,33.5Z"/></svg>