<svg xmlns="http://www.w3.org/2000/svg" viewBox="0 0 160 160"><title>alo_icon_system_journal-large</title><path d="M132.333,146.917a1.50039,1.50039,0,0,1-1.5-1.5V1.5a1.5,1.5,0,0,1,3,0V145.417A1.50039,1.50039,0,0,1,132.333,146.917Z"/><path d="M145.417,160H14.583a1.5,1.5,0,1,1,0-3H145.417a1.5,1.5,0,0,1,0,3Z"/><path d="M93.083,29.1665H53.833a1.5,1.5,0,0,1,0-3h39.25a1.5,1.5,0,0,1,0,3Z"/><path d="M40.75,133.833H14.583a1.50039,1.50039,0,0,1-1.5-1.5V106.167a1.50039,1.50039,0,0,1,1.5-1.5H40.75a1.50039,1.50039,0,0,1,1.5,1.5v26.166A1.50039,1.50039,0,0,1,40.75,133.833Zm-24.667-3H39.25V107.667H16.083Z"/><path d="M40.75,81.5H14.583a1.50007,1.50007,0,0,1-1.5-1.5V27.6665a1.50007,1.50007,0,0,1,1.5-1.5H40.75a1.50007,1.50007,0,0,1,1.5,1.5V80A1.50007,1.50007,0,0,1,40.75,81.5Zm-24.667-3H39.25V29.1665H16.083Z"/><path d="M93.083,81.5H53.833a1.5,1.5,0,0,1,0-3h39.25a1.5,1.5,0,0,1,0,3Z"/><path d="M119.25,55.3335H53.833a1.5,1.5,0,0,1,0-3H119.25a1.5,1.5,0,0,1,0,3Z"/><path d="M119.25,68.4165H53.833a1.5,1.5,0,0,1,0-3H119.25a1.5,1.5,0,0,1,0,3Z"/><path d="M119.25,94.583H53.833a1.5,1.5,0,0,1,0-3H119.25a1.5,1.5,0,0,1,0,3Z"/><path d="M119.25,107.667H53.833a1.5,1.5,0,0,1,0-3H119.25a1.5,1.5,0,0,1,0,3Z"/><path d="M119.25,120.75H53.833a1.5,1.5,0,0,1,0-3H119.25a1.5,1.5,0,0,1,0,3Z"/><path d="M119.25,133.833H53.833a1.5,1.5,0,0,1,0-3H119.25a1.5,1.5,0,0,1,0,3Z"/><path d="M132.333,3H1.5a1.5,1.5,0,0,1,0-3H132.333a1.5,1.5,0,0,1,0,3Z"/><path d="M145.417,160a14.59984,14.59984,0,0,1-14.584-14.583,1.5,1.5,0,0,1,3,0,11.5835,11.5835,0,0,0,23.167,0V16.0835H132.333a1.5,1.5,0,0,1,0-3H158.5a1.50007,1.50007,0,0,1,1.5,1.5V145.417A14.59963,14.59963,0,0,1,145.417,160Z"/><path d="M14.583,160A14.59963,14.59963,0,0,1,0,145.417a1.5,1.5,0,0,1,3,0A11.59635,11.59635,0,0,0,14.583,157a1.5,1.5,0,1,1,0,3Z"/><path d="M1.5,146.917a1.50039,1.50039,0,0,1-1.5-1.5V1.5a1.5,1.5,0,0,1,3,0V145.417A1.50039,1.50039,0,0,1,1.5,146.917Z"/></svg>