<svg id="Elements" xmlns="http://www.w3.org/2000/svg" viewBox="0 0 75 75"><title>alo_service</title><path d="M32.5,68.5a1,1,0,0,1-1-1V7.5a1,1,0,0,1,2,0v60A1,1,0,0,1,32.5,68.5Z"/><path d="M37.5,68.5h-10a1,1,0,0,1,0-2h10A1,1,0,0,1,37.5,68.5Z"/><path d="M32.5,28.5h-20a1.00013,1.00013,0,0,1-.707-0.293l-5-5a0.99964,0.99964,0,0,1,0-1.41406l5-5A1.00013,1.00013,0,0,1,12.5,16.5h20a1,1,0,0,1,1,1v10A1,1,0,0,1,32.5,28.5Zm-19.58594-2H31.5v-8H12.91406l-4,4Z"/><path d="M62.5,38.5h-30a1,1,0,0,1-1-1v-10a1,1,0,0,1,1-1h30a1.00013,1.00013,0,0,1,.707.293l5,5a0.99964,0.99964,0,0,1,0,1.41406l-5,5A1.00013,1.00013,0,0,1,62.5,38.5Zm-29-2H62.08594l4-4-4-4H33.5v8Z"/><path d="M27.5,23.5h-10a1,1,0,0,1,0-2h10A1,1,0,0,1,27.5,23.5Z"/><path d="M57.5,33.5h-20a1,1,0,0,1,0-2h20A1,1,0,0,1,57.5,33.5Z"/></svg>