<svg id="Elements" xmlns="http://www.w3.org/2000/svg" viewBox="0 0 75 75"><title>alo_service</title><path d="M65,68.5H10a3.5,3.5,0,0,1,0-7H65A3.5,3.5,0,0,1,65,68.5Zm-55-5a1.5,1.5,0,0,0,0,3H65a1.5,1.5,0,0,0,0-3H10Z"/><path d="M65,13.5H10a3.5,3.5,0,0,1,0-7H65A3.5,3.5,0,0,1,65,13.5Zm-55-5a1.5,1.5,0,0,0,0,3H65a1.5,1.5,0,0,0,0-3H10Z"/><path d="M63.71289,63.5a0.99942,0.99942,0,0,1-1-1,3.97243,3.97243,0,0,0-1.1709-2.82812L43.61328,41.74219a5.99781,5.99781,0,0,1,0-8.48437L61.542,15.32813A3.97243,3.97243,0,0,0,62.71289,12.5a1,1,0,1,1,2,0,5.95709,5.95709,0,0,1-1.75684,4.24219L45.02734,34.67188a3.99854,3.99854,0,0,0,0,5.65625L62.95605,58.25781A5.95709,5.95709,0,0,1,64.71289,62.5,0.99942,0.99942,0,0,1,63.71289,63.5Z"/><path d="M11.28711,63.5a0.99942,0.99942,0,0,1-1-1,5.96044,5.96044,0,0,1,1.75684-4.24219L29.97363,40.32813a4.00385,4.00385,0,0,0,0-5.65625L12.04395,16.74219A5.96044,5.96044,0,0,1,10.28711,12.5a1,1,0,0,1,2,0,3.97411,3.97411,0,0,0,1.1709,2.82813L31.3877,33.25781a6.00667,6.00667,0,0,1,0,8.48438L13.458,59.67188A3.97411,3.97411,0,0,0,12.28711,62.5,0.99942,0.99942,0,0,1,11.28711,63.5Z"/><path d="M32.5,63.5a0.99942,0.99942,0,0,1-1-1v-10a1,1,0,0,1,2,0v10A0.99942,0.99942,0,0,1,32.5,63.5Z"/><path d="M42.5,63.5a0.99942,0.99942,0,0,1-1-1v-10a1,1,0,0,1,2,0v10A0.99942,0.99942,0,0,1,42.5,63.5Z"/><path d="M47.5,63.5a0.99942,0.99942,0,0,1-1-1v-5a1,1,0,0,1,2,0v5A0.99942,0.99942,0,0,1,47.5,63.5Z"/><path d="M27.5,63.5a0.99942,0.99942,0,0,1-1-1v-5a1,1,0,0,1,2,0v5A0.99942,0.99942,0,0,1,27.5,63.5Z"/><path d="M37.5,63.5a0.99942,0.99942,0,0,1-1-1v-40a1,1,0,0,1,2,0v40A0.99942,0.99942,0,0,1,37.5,63.5Z"/><path d="M32.14453,38.5a0.99942,0.99942,0,0,1-1-1v-10a1,1,0,0,1,2,0v10A0.99942,0.99942,0,0,1,32.14453,38.5Z"/><path d="M42.85547,38.5a0.99942,0.99942,0,0,1-1-1v-10a1,1,0,0,1,2,0v10A0.99942,0.99942,0,0,1,42.85547,38.5Z"/></svg>