<svg xmlns="http://www.w3.org/2000/svg" viewBox="0 0 102.1582 160"><title>alo_icon_system_help-large</title><path d="M67.60547,85.63135a1.5,1.5,0,0,1,0-3A31.58811,31.58811,0,0,0,99.1582,51.0791a1.5,1.5,0,1,1,3,0A34.5917,34.5917,0,0,1,67.60547,85.63135Z"/><path d="M100.6582,52.5791a1.49976,1.49976,0,0,1-1.5-1.5A48.0791,48.0791,0,0,0,3,51.0791a1.5,1.5,0,0,1-3,0,51.0791,51.0791,0,1,1,102.1582,0A1.49976,1.49976,0,0,1,100.6582,52.5791Z"/><path d="M51.0791,118.68408a1.49976,1.49976,0,0,1-1.5-1.5V100.65771A18.04657,18.04657,0,0,1,67.60547,82.63135a1.5,1.5,0,0,1,0,3A15.04329,15.04329,0,0,0,52.5791,100.65771v16.52637A1.49976,1.49976,0,0,1,51.0791,118.68408Z"/><path d="M51.0791,160a9.76318,9.76318,0,1,1,9.76318-9.76318A9.77442,9.77442,0,0,1,51.0791,160Zm0-16.52637a6.76318,6.76318,0,1,0,6.76318,6.76318A6.77114,6.77114,0,0,0,51.0791,143.47363Z"/></svg>