<svg xmlns="http://www.w3.org/2000/svg" viewBox="0 0 160 160"><title>alo_icon_system_filters-large</title><path d="M119.25,160H40.75a27.69793,27.69793,0,0,1-27.6665-27.667V93.083a1.50007,1.50007,0,0,1,1.5-1.5h130.833a1.50007,1.50007,0,0,1,1.5,1.5v39.25A27.69793,27.69793,0,0,1,119.25,160ZM16.0835,94.583v37.75A24.69465,24.69465,0,0,0,40.75,157h78.5a24.69465,24.69465,0,0,0,24.6665-24.667V94.583Z"/><path d="M132.3335,81.5a1.49976,1.49976,0,0,1-1.5-1.5V66.9165a50.8335,50.8335,0,0,0-101.667,0V80a1.5,1.5,0,0,1-3,0V66.9165a53.8335,53.8335,0,0,1,107.667,0V80A1.49976,1.49976,0,0,1,132.3335,81.5Z"/><path d="M145.4165,81.5a1.49976,1.49976,0,0,1-1.5-1.5V66.9165a63.9165,63.9165,0,1,0-127.833,0V80a1.5,1.5,0,0,1-3,0V66.9165a66.9165,66.9165,0,1,1,133.833,0V80A1.49976,1.49976,0,0,1,145.4165,81.5Z"/><path d="M151.9585,94.583H8.0415a8.0415,8.0415,0,1,1,0-16.083h143.917a8.0415,8.0415,0,1,1,0,16.083ZM8.0415,81.5a5.0415,5.0415,0,1,0,0,10.083h143.917a5.0415,5.0415,0,1,0,0-10.083Z"/><path d="M93.0835,146.917a1.49514,1.49514,0,0,1-1.06055-.43945l-13.083-13.084a1.49984,1.49984,0,0,1,2.12109-2.12109l13.083,13.084A1.5,1.5,0,0,1,93.0835,146.917Z"/><path d="M106.167,160a1.49514,1.49514,0,0,1-1.06055-.43945l-13.0835-13.083a1.49984,1.49984,0,1,1,2.12109-2.12109l13.0835,13.083A1.5,1.5,0,0,1,106.167,160Z"/><path d="M66.917,120.75a1.49514,1.49514,0,0,1-1.06055-.43945l-13.0835-13.083a1.49984,1.49984,0,0,1,2.12109-2.12109l13.0835,13.083A1.5,1.5,0,0,1,66.917,120.75Z"/><path d="M80.00049,133.833a1.49514,1.49514,0,0,1-1.06055-.43945l-13.0835-13.083a1.49984,1.49984,0,0,1,2.12109-2.12109l13.0835,13.083a1.5,1.5,0,0,1-1.06055,2.56055Z"/><path d="M53.8335,107.667a1.49514,1.49514,0,0,1-1.06055-.43945l-13.083-13.084A1.49984,1.49984,0,0,1,41.811,92.02246l13.083,13.084A1.5,1.5,0,0,1,53.8335,107.667Z"/><path d="M130.00342,157.66992a1.49514,1.49514,0,0,1-1.06055-.43945l-10.75293-10.75293a1.49984,1.49984,0,1,1,2.12109-2.12109L131.064,155.10938a1.5,1.5,0,0,1-1.06055,2.56055Z"/><path d="M106.167,133.833a1.49514,1.49514,0,0,1-1.06055-.43945l-13.0835-13.083a1.49984,1.49984,0,0,1,2.12109-2.12109l13.0835,13.083A1.5,1.5,0,0,1,106.167,133.833Z"/><path d="M80.00049,107.667a1.49514,1.49514,0,0,1-1.06055-.43945l-13.0835-13.084a1.49984,1.49984,0,0,1,2.12109-2.12109l13.0835,13.084a1.5,1.5,0,0,1-1.06055,2.56055Z"/><path d="M93.0835,120.75a1.49514,1.49514,0,0,1-1.06055-.43945l-13.083-13.083a1.49984,1.49984,0,0,1,2.12109-2.12109l13.083,13.083A1.5,1.5,0,0,1,93.0835,120.75Z"/><path d="M119.25049,146.917a1.49514,1.49514,0,0,1-1.06055-.43945l-13.0835-13.084a1.49984,1.49984,0,0,1,2.12109-2.12109l13.0835,13.084a1.5,1.5,0,0,1-1.06055,2.56055Z"/><path d="M106.167,107.667a1.49514,1.49514,0,0,1-1.06055-.43945l-13.0835-13.084A1.49984,1.49984,0,0,1,94.144,92.02246l13.0835,13.084A1.5,1.5,0,0,1,106.167,107.667Z"/><path d="M143.08643,144.58691a1.49514,1.49514,0,0,1-1.06055-.43945l-10.75293-10.75391a1.49984,1.49984,0,0,1,2.12109-2.12109L144.147,142.02637a1.5,1.5,0,0,1-1.06055,2.56055Z"/><path d="M132.3335,133.833a1.49514,1.49514,0,0,1-1.06055-.43945l-13.083-13.083a1.49984,1.49984,0,0,1,2.12109-2.12109l13.083,13.083a1.5,1.5,0,0,1-1.06055,2.56055Z"/><path d="M119.25049,120.75a1.49514,1.49514,0,0,1-1.06055-.43945l-13.0835-13.083a1.49984,1.49984,0,0,1,2.12109-2.12109l13.0835,13.083a1.5,1.5,0,0,1-1.06055,2.56055Z"/><path d="M132.3335,107.667a1.49514,1.49514,0,0,1-1.06055-.43945l-13.083-13.084a1.49984,1.49984,0,1,1,2.12109-2.12109l13.083,13.084a1.5,1.5,0,0,1-1.06055,2.56055Z"/><path d="M145.417,120.75a1.49514,1.49514,0,0,1-1.06055-.43945l-13.0835-13.083a1.49984,1.49984,0,1,1,2.12109-2.12109l13.0835,13.083A1.5,1.5,0,0,1,145.417,120.75Z"/><path d="M27.667,107.667a1.49514,1.49514,0,0,1-1.06055-.43945l-13.0835-13.084A1.49984,1.49984,0,0,1,15.644,92.02246l13.0835,13.084A1.5,1.5,0,0,1,27.667,107.667Z"/><path d="M53.8335,133.833a1.49514,1.49514,0,0,1-1.06055-.43945l-13.083-13.083a1.49984,1.49984,0,0,1,2.12109-2.12109l13.083,13.083A1.5,1.5,0,0,1,53.8335,133.833Z"/><path d="M80.00049,160a1.49514,1.49514,0,0,1-1.06055-.43945l-13.0835-13.083a1.49984,1.49984,0,1,1,2.12109-2.12109l13.0835,13.083A1.5,1.5,0,0,1,80.00049,160Z"/><path d="M40.75049,120.75a1.49514,1.49514,0,0,1-1.06055-.43945l-13.0835-13.083a1.49984,1.49984,0,0,1,2.12109-2.12109l13.0835,13.083A1.5,1.5,0,0,1,40.75049,120.75Z"/><path d="M66.917,146.917a1.49514,1.49514,0,0,1-1.06055-.43945l-13.0835-13.084a1.49984,1.49984,0,0,1,2.12109-2.12109l13.0835,13.084A1.5,1.5,0,0,1,66.917,146.917Z"/><path d="M27.667,133.833a1.49514,1.49514,0,0,1-1.06055-.43945l-13.0835-13.083a1.49984,1.49984,0,0,1,2.12109-2.12109l13.0835,13.083A1.5,1.5,0,0,1,27.667,133.833Z"/><path d="M40.75049,146.917a1.49514,1.49514,0,0,1-1.06055-.43945l-13.0835-13.084a1.49984,1.49984,0,0,1,2.12109-2.12109l13.0835,13.084a1.5,1.5,0,0,1-1.06055,2.56055Z"/><path d="M53.8335,160a1.49514,1.49514,0,0,1-1.06055-.43945l-13.083-13.083a1.49984,1.49984,0,1,1,2.12109-2.12109l13.083,13.083A1.5,1.5,0,0,1,53.8335,160Z"/><path d="M66.917,146.917a1.5,1.5,0,0,1-1.06055-2.56055l13.0835-13.084a1.49984,1.49984,0,0,1,2.12109,2.12109l-13.0835,13.084A1.49514,1.49514,0,0,1,66.917,146.917Z"/><path d="M80.00049,133.833a1.5,1.5,0,0,1-1.06055-2.56055l13.083-13.083a1.49984,1.49984,0,0,1,2.12109,2.12109l-13.083,13.083A1.49514,1.49514,0,0,1,80.00049,133.833Z"/><path d="M93.0835,120.75a1.5,1.5,0,0,1-1.06055-2.56055l13.0835-13.083a1.49984,1.49984,0,0,1,2.12109,2.12109l-13.0835,13.083A1.49514,1.49514,0,0,1,93.0835,120.75Z"/><path d="M106.167,107.667a1.5,1.5,0,0,1-1.06055-2.56055l13.0835-13.084a1.49984,1.49984,0,0,1,2.12109,2.12109l-13.0835,13.084A1.49514,1.49514,0,0,1,106.167,107.667Z"/><path d="M53.8335,160a1.5,1.5,0,0,1-1.06055-2.56055l13.0835-13.083a1.49984,1.49984,0,1,1,2.12109,2.12109l-13.0835,13.083A1.49514,1.49514,0,0,1,53.8335,160Z"/><path d="M53.8335,133.833a1.5,1.5,0,0,1-1.06055-2.56055l13.0835-13.083a1.49984,1.49984,0,0,1,2.12109,2.12109l-13.0835,13.083A1.49514,1.49514,0,0,1,53.8335,133.833Z"/><path d="M66.917,120.75a1.5,1.5,0,0,1-1.06055-2.56055l13.0835-13.083a1.49984,1.49984,0,0,1,2.12109,2.12109l-13.0835,13.083A1.49514,1.49514,0,0,1,66.917,120.75Z"/><path d="M40.75049,146.917a1.5,1.5,0,0,1-1.06055-2.56055l13.083-13.084a1.49984,1.49984,0,0,1,2.12109,2.12109l-13.083,13.084A1.49514,1.49514,0,0,1,40.75049,146.917Z"/><path d="M29.99609,157.66992a1.5,1.5,0,0,1-1.06055-2.56055l10.75439-10.75293a1.49984,1.49984,0,1,1,2.12109,2.12109L31.05664,157.23047A1.49514,1.49514,0,0,1,29.99609,157.66992Z"/><path d="M80.00049,107.667a1.5,1.5,0,0,1-1.06055-2.56055l13.083-13.084A1.49984,1.49984,0,0,1,94.144,94.14355l-13.083,13.084A1.49514,1.49514,0,0,1,80.00049,107.667Z"/><path d="M16.91309,144.58691a1.5,1.5,0,0,1-1.06055-2.56055l10.75391-10.75391a1.49984,1.49984,0,0,1,2.12109,2.12109L17.97363,144.14746A1.49514,1.49514,0,0,1,16.91309,144.58691Z"/><path d="M27.667,133.833a1.5,1.5,0,0,1-1.06055-2.56055l13.0835-13.083a1.49984,1.49984,0,0,1,2.12109,2.12109l-13.0835,13.083A1.49514,1.49514,0,0,1,27.667,133.833Z"/><path d="M53.8335,107.667a1.5,1.5,0,0,1-1.06055-2.56055l13.0835-13.084a1.49984,1.49984,0,0,1,2.12109,2.12109l-13.0835,13.084A1.49514,1.49514,0,0,1,53.8335,107.667Z"/><path d="M40.75049,120.75a1.5,1.5,0,0,1-1.06055-2.56055l13.083-13.083a1.49984,1.49984,0,0,1,2.12109,2.12109l-13.083,13.083A1.49514,1.49514,0,0,1,40.75049,120.75Z"/><path d="M14.5835,120.749a1.5,1.5,0,0,1-1.06055-2.56055l13.0835-13.082a1.49984,1.49984,0,0,1,2.12109,2.12109l-13.0835,13.082A1.49514,1.49514,0,0,1,14.5835,120.749Z"/><path d="M27.667,107.667a1.5,1.5,0,0,1-1.06055-2.56055l13.0835-13.084A1.49984,1.49984,0,0,1,41.811,94.14355l-13.0835,13.084A1.49514,1.49514,0,0,1,27.667,107.667Z"/><path d="M132.3335,107.667a1.5,1.5,0,0,1-1.06055-2.56055l13.0835-13.084a1.49984,1.49984,0,0,1,2.12109,2.12109l-13.0835,13.084A1.49514,1.49514,0,0,1,132.3335,107.667Z"/><path d="M80.00049,160a1.5,1.5,0,0,1-1.06055-2.56055l13.083-13.083a1.49984,1.49984,0,1,1,2.12109,2.12109l-13.083,13.083A1.49514,1.49514,0,0,1,80.00049,160Z"/><path d="M93.0835,146.917a1.5,1.5,0,0,1-1.06055-2.56055l13.0835-13.084a1.49984,1.49984,0,0,1,2.12109,2.12109l-13.0835,13.084A1.49514,1.49514,0,0,1,93.0835,146.917Z"/><path d="M106.167,133.833a1.5,1.5,0,0,1-1.06055-2.56055l13.0835-13.083a1.49984,1.49984,0,0,1,2.12109,2.12109l-13.0835,13.083A1.49514,1.49514,0,0,1,106.167,133.833Z"/><path d="M119.25049,120.75a1.5,1.5,0,0,1-1.06055-2.56055l13.083-13.083a1.49984,1.49984,0,0,1,2.12109,2.12109l-13.083,13.083A1.49514,1.49514,0,0,1,119.25049,120.75Z"/><path d="M132.3335,133.833a1.5,1.5,0,0,1-1.06055-2.56055l13.0835-13.083a1.49984,1.49984,0,0,1,2.12109,2.12109l-13.0835,13.083A1.49514,1.49514,0,0,1,132.3335,133.833Z"/><path d="M106.167,160a1.5,1.5,0,0,1-1.06055-2.56055l13.0835-13.083a1.49984,1.49984,0,1,1,2.12109,2.12109l-13.0835,13.083A1.49514,1.49514,0,0,1,106.167,160Z"/><path d="M119.25049,146.917a1.5,1.5,0,0,1-1.06055-2.56055l13.083-13.084a1.49984,1.49984,0,0,1,2.12109,2.12109l-13.083,13.084A1.49514,1.49514,0,0,1,119.25049,146.917Z"/></svg>