<svg xmlns="http://www.w3.org/2000/svg" viewBox="0 0 160 160"><title>alo_icon_system_location-large</title><path d="M66.9165,160a1.49976,1.49976,0,0,1-1.5-1.5V1.5a1.5,1.5,0,0,1,3,0v157A1.49976,1.49976,0,0,1,66.9165,160Z"/><path d="M80,160H53.8335a1.5,1.5,0,1,1,0-3H80a1.5,1.5,0,0,1,0,3Z"/><path d="M66.9165,55.3335H14.5835a1.49976,1.49976,0,0,1-1.06055-.43945L.43945,41.81055a1.49945,1.49945,0,0,1,0-2.12109L13.52295,26.606a1.49976,1.49976,0,0,1,1.06055-.43945h52.333a1.49976,1.49976,0,0,1,1.5,1.5v26.167A1.49976,1.49976,0,0,1,66.9165,55.3335Zm-51.71191-3H65.4165V29.1665H15.20459L3.62109,40.75Z"/><path d="M145.4165,81.5h-78.5a1.49976,1.49976,0,0,1-1.5-1.5V53.8335a1.49976,1.49976,0,0,1,1.5-1.5h78.5a1.49976,1.49976,0,0,1,1.06055.43945l13.0835,13.083a1.49945,1.49945,0,0,1,0,2.12109l-13.0835,13.0835A1.49976,1.49976,0,0,1,145.4165,81.5Zm-77-3h76.37891l11.5835-11.5835-11.5835-11.583H68.4165Z"/><path d="M53.8335,42.25H27.6665a1.5,1.5,0,0,1,0-3h26.167a1.5,1.5,0,0,1,0,3Z"/><path d="M132.3335,68.4165H80a1.5,1.5,0,0,1,0-3h52.3335a1.5,1.5,0,0,1,0,3Z"/></svg>