<svg xmlns="http://www.w3.org/2000/svg" viewBox="0 0 160 160.00915"><title>alo_icon_system_settings-large</title><path d="M14.56787,160.00915a14.58963,14.58963,0,0,1-10.312-24.88867L69.01465,70.36169a14.58339,14.58339,0,0,1,20.624,20.624L24.87939,155.7445A14.53786,14.53786,0,0,1,14.56787,160.00915ZM79.32666,69.09607a11.549,11.549,0,0,0-8.19092,3.38672L6.377,137.24157A11.58353,11.58353,0,0,0,22.7583,153.62341L87.51758,88.86462a11.57764,11.57764,0,0,0-8.19092-19.76855Z"/><path d="M91.91064,78.84118a1.5,1.5,0,0,1-1.06055-2.56055l37.38574-37.38574a1.50885,1.50885,0,0,1,.71045-.39844l16.52344-3.96875,11.21875-23.46484-7.751-7.752L125.47119,14.53064,121.50293,31.055a1.49642,1.49642,0,0,1-.39795.71L83.72021,69.15075a1.49984,1.49984,0,0,1-2.12109-2.12109l37.08545-37.08691,4.03662-16.80762a1.50082,1.50082,0,0,1,.81152-1.00293L148.60107.14685a1.49891,1.49891,0,0,1,1.70752.293l9.25146,9.252a1.50086,1.50086,0,0,1,.293,1.708L147.86816,36.46716a1.50457,1.50457,0,0,1-1.00342.81152l-16.80664,4.03613L92.97119,78.40173A1.49514,1.49514,0,0,1,91.91064,78.84118Z"/><path d="M30.03174,149.97107a1.49514,1.49514,0,0,1-1.06055-.43945L10.46875,131.02868a1.49984,1.49984,0,0,1,2.12109-2.12109l18.50244,18.50293a1.5,1.5,0,0,1-1.06055,2.56055Z"/><path d="M82.36523,97.63806a1.49514,1.49514,0,0,1-1.06055-.43945L62.80176,78.69567a1.49984,1.49984,0,0,1,2.12109-2.12109L83.42578,95.07751a1.5,1.5,0,0,1-1.06055,2.56055Z"/><path d="M17.69678,137.6361a1.5,1.5,0,0,1-1.06055-2.56055l52.333-52.333a1.49984,1.49984,0,0,1,2.12109,2.12109l-52.333,52.333A1.49514,1.49514,0,0,1,17.69678,137.6361Z"/><path d="M23.86426,143.8031a1.5,1.5,0,0,1-1.06055-2.56055l52.333-52.333a1.49984,1.49984,0,0,1,2.12109,2.12109l-52.333,52.333A1.49514,1.49514,0,0,1,23.86426,143.8031Z"/><path d="M27.6665,42.25036A14.5835,14.5835,0,1,1,42.25,27.66638,14.59984,14.59984,0,0,1,27.6665,42.25036Zm0-26.167A11.5835,11.5835,0,1,0,39.25,27.66638,11.59635,11.59635,0,0,0,27.6665,16.08337Z"/><path d="M27.6665,55.33337A27.73351,27.73351,0,1,1,51.481,41.70056a1.4999,1.4999,0,0,1-2.583-1.52539,24.73247,24.73247,0,1,0-8.72217,8.72266,1.50032,1.50032,0,0,1,1.52539,2.584A27.63264,27.63264,0,0,1,27.6665,55.33337Z"/><path d="M121.49512,160.00036a1.49976,1.49976,0,0,1-1.06055-.43945l-7.665-7.665a27.63934,27.63934,0,0,1-4.25-33.5957,1.50032,1.50032,0,0,1,2.584,1.52539,24.63885,24.63885,0,0,0,3.78711,29.94922l6.60449,6.60449,7.12988-7.13086-6.60352-6.60352a14.58321,14.58321,0,1,1,20.62354-20.624l6.60352,6.60449,7.13037-7.12988-6.604-6.60449a24.64532,24.64532,0,0,0-29.9502-3.78809,1.50007,1.50007,0,0,1-1.52441-2.584,27.64192,27.64192,0,0,1,33.5957,4.251l7.66455,7.665a1.49945,1.49945,0,0,1,0,2.12109l-9.25146,9.251a1.49976,1.49976,0,0,1-1.06055.43945h0a1.49976,1.49976,0,0,1-1.06055-.43945l-7.66406-7.665a11.58353,11.58353,0,1,0-16.38135,16.38184l7.66406,7.66406a1.49945,1.49945,0,0,1,0,2.12109l-9.251,9.252A1.49976,1.49976,0,0,1,121.49512,160.00036Z"/><path d="M40.75,29.16638H35.5166a1.5,1.5,0,0,1,0-3H40.75a1.5,1.5,0,0,1,0,3Z"/><path d="M19.81689,29.16638H14.5835a1.5,1.5,0,0,1,0-3h5.2334a1.5,1.5,0,0,1,0,3Z"/><path d="M27.6665,42.25036a1.50007,1.50007,0,0,1-1.5-1.5V35.517a1.5,1.5,0,0,1,3,0v5.2334A1.50007,1.50007,0,0,1,27.6665,42.25036Z"/><path d="M27.6665,21.31677a1.50007,1.50007,0,0,1-1.5-1.5v-5.2334a1.5,1.5,0,0,1,3,0v5.2334A1.50007,1.50007,0,0,1,27.6665,21.31677Z"/><path d="M119.0625,111.31091a1.49514,1.49514,0,0,1-1.06055-.43945L91.11865,83.98864a1.49984,1.49984,0,0,1,2.12109-2.12109l26.8833,26.88281a1.5,1.5,0,0,1-1.06055,2.56055Z"/><path d="M77.07227,69.32165a1.49514,1.49514,0,0,1-1.06055-.43945L49.12891,41.99841A1.49984,1.49984,0,0,1,51.25,39.87732L78.13281,66.7611a1.5,1.5,0,0,1-1.06055,2.56055Z"/><path d="M109.81152,120.56286a1.49514,1.49514,0,0,1-1.06055-.43945l-25.186-25.18555A1.49984,1.49984,0,0,1,85.686,92.81677l25.186,25.18555a1.5,1.5,0,0,1-1.06055,2.56055Z"/><path d="M66.123,76.87439a1.49514,1.49514,0,0,1-1.06055-.43945L39.87793,51.25036A1.49984,1.49984,0,0,1,41.999,49.12927L67.18359,74.31384A1.5,1.5,0,0,1,66.123,76.87439Z"/></svg>