<svg xmlns="http://www.w3.org/2000/svg" viewBox="0 0 160 160"><title>alo_icon_system_print-large</title><path d="M158.5,133.833H1.5a1.50007,1.50007,0,0,1-1.5-1.5V80a1.49976,1.49976,0,0,1,1.5-1.5h157A1.49976,1.49976,0,0,1,160,80v52.333A1.50007,1.50007,0,0,1,158.5,133.833Zm-155.5-3H157V81.5H3Z"/><path d="M158.5,81.5H1.5A1.49976,1.49976,0,0,1,0,80V53.8335a1.49976,1.49976,0,0,1,1.5-1.5h157a1.49976,1.49976,0,0,1,1.5,1.5V80A1.49976,1.49976,0,0,1,158.5,81.5ZM3,78.5H157V55.3335H3Z"/><path d="M145.4165,160H14.5835a1.50007,1.50007,0,0,1-1.5-1.5V132.333a1.50007,1.50007,0,0,1,1.5-1.5h130.833a1.50007,1.50007,0,0,1,1.5,1.5V158.5A1.50007,1.50007,0,0,1,145.4165,160Zm-129.333-3h127.833V133.833H16.0835Z"/><path d="M21.125,107.667a8.042,8.042,0,1,1,8.0415-8.042A8.05074,8.05074,0,0,1,21.125,107.667Zm0-13.084a5.042,5.042,0,1,0,5.0415,5.042A5.04746,5.04746,0,0,0,21.125,94.583Z"/><path d="M47.2915,107.667a8.042,8.042,0,1,1,8.042-8.042A8.05074,8.05074,0,0,1,47.2915,107.667Zm0-13.084a5.042,5.042,0,1,0,5.042,5.042A5.04746,5.04746,0,0,0,47.2915,94.583Z"/><path d="M106.1665,16.0835H53.8335a1.5,1.5,0,0,1,0-3h52.333a1.5,1.5,0,0,1,0,3Z"/><path d="M106.1665,29.1665H53.8335a1.5,1.5,0,0,1,0-3h52.333a1.5,1.5,0,0,1,0,3Z"/><path d="M106.1665,42.25H53.8335a1.5,1.5,0,0,1,0-3h52.333a1.5,1.5,0,1,1,0,3Z"/><path d="M158.5,16.0835H132.3335a1.49976,1.49976,0,0,1-1.5-1.5,14.58325,14.58325,0,1,1,29.1665,0A1.49976,1.49976,0,0,1,158.5,16.0835Zm-24.56982-3h22.97314a11.58419,11.58419,0,0,0-22.97314,0Z"/><path d="M132.3335,55.3335H27.6665a1.49976,1.49976,0,0,1-1.5-1.5v-39.25A14.59984,14.59984,0,0,1,40.75,0H145.4165a1.5,1.5,0,0,1,0,3H40.75A11.59656,11.59656,0,0,0,29.1665,14.5835v37.75h101.667v-37.75a1.5,1.5,0,0,1,3,0v39.25A1.49976,1.49976,0,0,1,132.3335,55.3335Z"/></svg>