<svg xmlns="http://www.w3.org/2000/svg" viewBox="0 0 160 160"><title>alo_icon_system_editorial-large</title><path d="M40.748,29.1665a1.5,1.5,0,0,1-.21-2.98486l91.5835-13.083a1.49991,1.49991,0,1,1,.42383,2.96973l-91.5835,13.083A1.51009,1.51009,0,0,1,40.748,29.1665Z"/><path d="M132.33545,120.75a1.58484,1.58484,0,0,1-.21387-.01465l-91.5835-13.083a1.50039,1.50039,0,0,1,.42383-2.9707l91.5835,13.083a1.50022,1.50022,0,0,1-.21,2.98535Z"/><path d="M79.998,45.98828a1.5,1.5,0,0,1-.21-2.98486l52.3335-7.47656a1.49991,1.49991,0,1,1,.42383,2.96973l-52.3335,7.47656A1.51009,1.51009,0,0,1,79.998,45.98828Z"/><path d="M132.33545,98.32129a1.58483,1.58483,0,0,1-.21387-.01465l-52.3335-7.47559a1.50039,1.50039,0,0,1,.42383-2.9707l52.3335,7.47559a1.50022,1.50022,0,0,1-.21,2.98535Z"/><path d="M138.875,133.833a8.05053,8.05053,0,0,1-8.0415-8.041V8.0415a8.0415,8.0415,0,1,1,16.083,0V125.792A8.05053,8.05053,0,0,1,138.875,133.833ZM138.875,3a5.04735,5.04735,0,0,0-5.0415,5.0415V125.792a5.0415,5.0415,0,0,0,10.083,0V8.0415A5.04735,5.04735,0,0,0,138.875,3Z"/><path d="M40.75,107.667a40.75024,40.75024,0,0,1,0-81.50049,1.49976,1.49976,0,0,1,1.5,1.5V106.167A1.50007,1.50007,0,0,1,40.75,107.667ZM39.25,29.1958a37.75079,37.75079,0,0,0,0,75.44189Z"/><path d="M22.24756,86.91895a1.49514,1.49514,0,0,1-1.06055-.43945,27.66561,27.66561,0,0,1,0-39.126,1.49984,1.49984,0,0,1,2.12109,2.12109,24.66671,24.66671,0,0,0,0,34.88379,1.5,1.5,0,0,1-1.06055,2.56055Z"/><path d="M158.5,74.9585H145.4165a1.49976,1.49976,0,0,1-1.5-1.5V60.375a1.49976,1.49976,0,0,1,1.5-1.5H158.5a1.49976,1.49976,0,0,1,1.5,1.5V73.4585A1.49976,1.49976,0,0,1,158.5,74.9585Zm-11.5835-3H157V61.875H146.9165Z"/><path d="M132.3335,68.4165H80a1.5,1.5,0,0,1,0-3h52.3335a1.5,1.5,0,0,1,0,3Z"/><path d="M80,160H53.8335a1.50007,1.50007,0,0,1-1.5-1.5V108.03613a1.5,1.5,0,0,1,3,0V157H78.5V111.77344a1.5,1.5,0,0,1,3,0V158.5A1.50007,1.50007,0,0,1,80,160Z"/><path d="M80,146.917H53.8335a1.5,1.5,0,0,1,0-3H80a1.5,1.5,0,0,1,0,3Z"/></svg>