<svg xmlns="http://www.w3.org/2000/svg" viewBox="0 0 160 160"><title>alo_icon_system_monthly-large</title><path d="M21.125,42.25A21.125,21.125,0,1,1,42.25,21.125,21.14883,21.14883,0,0,1,21.125,42.25Zm0-39.25A18.125,18.125,0,1,0,39.25,21.125,18.14555,18.14555,0,0,0,21.125,3Z"/><path d="M21.125,160A21.125,21.125,0,1,1,42.25,138.875,21.14883,21.14883,0,0,1,21.125,160Zm0-39.25A18.125,18.125,0,1,0,39.25,138.875,18.14555,18.14555,0,0,0,21.125,120.75Z"/><path d="M21.125,101.125A21.125,21.125,0,1,1,42.25,80,21.14883,21.14883,0,0,1,21.125,101.125Zm0-39.25A18.125,18.125,0,1,0,39.25,80,18.14555,18.14555,0,0,0,21.125,61.875Z"/><path d="M80,42.25a21.125,21.125,0,1,1,21.125-21.125A21.14883,21.14883,0,0,1,80,42.25ZM80,3A18.125,18.125,0,1,0,98.125,21.125,18.14555,18.14555,0,0,0,80,3Z"/><path d="M80,160a21.125,21.125,0,1,1,21.125-21.125A21.14883,21.14883,0,0,1,80,160Zm0-39.25a18.125,18.125,0,1,0,18.125,18.125A18.14555,18.14555,0,0,0,80,120.75Z"/><path d="M80,101.125A21.125,21.125,0,1,1,101.125,80,21.14883,21.14883,0,0,1,80,101.125Zm0-39.25A18.125,18.125,0,1,0,98.125,80,18.14555,18.14555,0,0,0,80,61.875Z"/><path d="M138.875,42.25A21.125,21.125,0,1,1,160,21.125,21.14883,21.14883,0,0,1,138.875,42.25Zm0-39.25A18.125,18.125,0,1,0,157,21.125,18.14555,18.14555,0,0,0,138.875,3Z"/><path d="M138.875,160A21.125,21.125,0,1,1,160,138.875,21.14883,21.14883,0,0,1,138.875,160Zm0-39.25A18.125,18.125,0,1,0,157,138.875,18.14555,18.14555,0,0,0,138.875,120.75Z"/><path d="M138.875,101.125A21.125,21.125,0,1,1,160,80,21.14883,21.14883,0,0,1,138.875,101.125Zm0-39.25A18.125,18.125,0,1,0,157,80,18.14555,18.14555,0,0,0,138.875,61.875Z"/></svg>