<svg id="Elements" xmlns="http://www.w3.org/2000/svg" viewBox="0 0 75 75"><title>alo_service</title><path d="M45,13.5H30a1,1,0,0,1,0-2H45A1,1,0,0,1,45,13.5Z"/><path d="M55,68.5H12.5a6.00656,6.00656,0,0,1-6-6v-45a6.00656,6.00656,0,0,1,6-6H25a1,1,0,0,1,0,2H12.5a4.00458,4.00458,0,0,0-4,4v45a4.00458,4.00458,0,0,0,4,4H55A1,1,0,0,1,55,68.5Z"/><path d="M67.5,56a1,1,0,0,1-1-1V17.5a4.00458,4.00458,0,0,0-4-4H50a1,1,0,0,1,0-2H62.5a6.00656,6.00656,0,0,1,6,6V55A1,1,0,0,1,67.5,56Z"/><path d="M27.5,18.5A3.50425,3.50425,0,0,1,24,15V10a3.5,3.5,0,0,1,7,0v5A3.50425,3.50425,0,0,1,27.5,18.5Zm0-10A1.50164,1.50164,0,0,0,26,10v5a1.5,1.5,0,0,0,3,0V10A1.50164,1.50164,0,0,0,27.5,8.5Z"/><path d="M47.5,18.5A3.50425,3.50425,0,0,1,44,15V10a3.5,3.5,0,0,1,7,0v5A3.50425,3.50425,0,0,1,47.5,18.5Zm0-10A1.50164,1.50164,0,0,0,46,10v5a1.5,1.5,0,0,0,3,0V10A1.50164,1.50164,0,0,0,47.5,8.5Z"/><path d="M55,68.5a1,1,0,0,1-1-1V60a6.00656,6.00656,0,0,1,6-6h7.5a0.99991,0.99991,0,0,1,.707,1.707l-12.5,12.5A0.99894,0.99894,0,0,1,55,68.5ZM60,56a4.00458,4.00458,0,0,0-4,4v5.08594L65.08594,56H60Z"/><path d="M67.5,28.5H7.5a1,1,0,0,1,0-2h60A1,1,0,0,1,67.5,28.5Z"/><path d="M17.5,41A3.5,3.5,0,1,1,21,37.5,3.50425,3.50425,0,0,1,17.5,41Zm0-5A1.5,1.5,0,1,0,19,37.5,1.50164,1.50164,0,0,0,17.5,36Z"/><path d="M27.5,41A3.5,3.5,0,1,1,31,37.5,3.50425,3.50425,0,0,1,27.5,41Zm0-5A1.5,1.5,0,1,0,29,37.5,1.50164,1.50164,0,0,0,27.5,36Z"/><path d="M37.5,41A3.5,3.5,0,1,1,41,37.5,3.50425,3.50425,0,0,1,37.5,41Zm0-5A1.5,1.5,0,1,0,39,37.5,1.50164,1.50164,0,0,0,37.5,36Z"/><path d="M47.5,41A3.5,3.5,0,1,1,51,37.5,3.50425,3.50425,0,0,1,47.5,41Zm0-5A1.5,1.5,0,1,0,49,37.5,1.50164,1.50164,0,0,0,47.5,36Z"/><path d="M57.5,41A3.5,3.5,0,1,1,61,37.5,3.50425,3.50425,0,0,1,57.5,41Zm0-5A1.5,1.5,0,1,0,59,37.5,1.50164,1.50164,0,0,0,57.5,36Z"/><path d="M17.5,51A3.5,3.5,0,1,1,21,47.5,3.50425,3.50425,0,0,1,17.5,51Zm0-5A1.5,1.5,0,1,0,19,47.5,1.50164,1.50164,0,0,0,17.5,46Z"/><path d="M27.5,51A3.5,3.5,0,1,1,31,47.5,3.50425,3.50425,0,0,1,27.5,51Zm0-5A1.5,1.5,0,1,0,29,47.5,1.50164,1.50164,0,0,0,27.5,46Z"/><path d="M37.5,51A3.5,3.5,0,1,1,41,47.5,3.50425,3.50425,0,0,1,37.5,51Zm0-5A1.5,1.5,0,1,0,39,47.5,1.50164,1.50164,0,0,0,37.5,46Z"/><path d="M47.5,51A3.5,3.5,0,1,1,51,47.5,3.50425,3.50425,0,0,1,47.5,51Zm0-5A1.5,1.5,0,1,0,49,47.5,1.50164,1.50164,0,0,0,47.5,46Z"/><path d="M17.5,61A3.5,3.5,0,1,1,21,57.5,3.50425,3.50425,0,0,1,17.5,61Zm0-5A1.5,1.5,0,1,0,19,57.5,1.50164,1.50164,0,0,0,17.5,56Z"/><path d="M27.5,61A3.5,3.5,0,1,1,31,57.5,3.50425,3.50425,0,0,1,27.5,61Zm0-5A1.5,1.5,0,1,0,29,57.5,1.50164,1.50164,0,0,0,27.5,56Z"/><path d="M37.5,61A3.5,3.5,0,1,1,41,57.5,3.50425,3.50425,0,0,1,37.5,61Zm0-5A1.5,1.5,0,1,0,39,57.5,1.50164,1.50164,0,0,0,37.5,56Z"/><path d="M47.5,61A3.5,3.5,0,1,1,51,57.5,3.50425,3.50425,0,0,1,47.5,61Zm0-5A1.5,1.5,0,1,0,49,57.5,1.50164,1.50164,0,0,0,47.5,56Z"/><path d="M57.5,51A3.5,3.5,0,1,1,61,47.5,3.50425,3.50425,0,0,1,57.5,51Zm0-5A1.5,1.5,0,1,0,59,47.5,1.50164,1.50164,0,0,0,57.5,46Z"/></svg>