<svg xmlns="http://www.w3.org/2000/svg" viewBox="0 0 159.99885 159.99884"><title>alo_icon_system_images-large</title><path d="M27.66535,122.21222a1.50079,1.50079,0,0,1-1.40967-.9873L.40558,50.20441A6.74439,6.74439,0,0,1,4.42951,41.574L117.5384.40607a6.743,6.743,0,0,1,8.63086,4.0249l17.79248,48.88818a1.50017,1.50017,0,0,1-2.81934,1.02637L123.34992,5.45734a3.73886,3.73886,0,0,0-4.78564-2.23193L5.45636,44.39289a3.73987,3.73987,0,0,0-2.23145,4.78564l25.8501,71.02a1.501,1.501,0,0,1-1.40967,2.01367Z"/><path d="M153.265,159.99884H32.89826a6.74092,6.74092,0,0,1-6.7334-6.7334V59.06525a6.74092,6.74092,0,0,1,6.7334-6.7334H153.265a6.74092,6.74092,0,0,1,6.7334,6.7334v94.2002A6.74092,6.74092,0,0,1,153.265,159.99884ZM32.89826,55.33185a3.73764,3.73764,0,0,0-3.7334,3.7334v94.2002a3.73764,3.73764,0,0,0,3.7334,3.7334H153.265a3.73764,3.73764,0,0,0,3.7334-3.7334V59.06525a3.73764,3.73764,0,0,0-3.7334-3.7334Z"/><path d="M27.66535,146.91535a1.5,1.5,0,0,1-1.06055-2.56055l39.25-39.25a1.49945,1.49945,0,0,1,2.12109,0l15.85449,15.85449L118.1883,86.60236a1.49945,1.49945,0,0,1,2.12109,0l39.25,39.25a1.49984,1.49984,0,0,1-2.12109,2.12109L119.24885,89.784,84.89093,124.14093a1.49945,1.49945,0,0,1-2.12109,0L66.91535,108.28644,28.7259,146.4759A1.49514,1.49514,0,0,1,27.66535,146.91535Z"/><path d="M79.99885,94.58185a14.58325,14.58325,0,1,1,14.583-14.583A14.59973,14.59973,0,0,1,79.99885,94.58185Zm0-26.1665a11.58325,11.58325,0,1,0,11.583,11.5835A11.59656,11.59656,0,0,0,79.99885,68.41535Z"/><path d="M119.24885,159.99884a1.49514,1.49514,0,0,1-1.06055-.43945l-35.41846-35.418a1.49984,1.49984,0,0,1,2.12109-2.12109l35.41846,35.418a1.5,1.5,0,0,1-1.06055,2.56055Z"/></svg>