<svg xmlns="http://www.w3.org/2000/svg" viewBox="0 0 160 160"><title>alo_icon_system_new-large</title><path d="M145.4165,120.75a1.49976,1.49976,0,0,1-1.5-1.5V80a63.9165,63.9165,0,1,0-127.833,0v39.25a1.5,1.5,0,0,1-3,0V80a66.9165,66.9165,0,1,1,133.833,0v39.25A1.49976,1.49976,0,0,1,145.4165,120.75Z"/><path d="M132.3335,81.5a1.49976,1.49976,0,0,1-1.5-1.5A50.89094,50.89094,0,0,0,80,29.1665a1.5,1.5,0,0,1,0-3A53.89422,53.89422,0,0,1,133.8335,80,1.49976,1.49976,0,0,1,132.3335,81.5Z"/><path d="M145.4165,146.9165H14.5835a14.58325,14.58325,0,1,1,0-29.1665h130.833a14.58325,14.58325,0,1,1,0,29.1665ZM14.5835,120.75a11.58325,11.58325,0,1,0,0,23.1665h130.833a11.58325,11.58325,0,1,0,0-23.1665Z"/><path d="M80,16.0835a8.04175,8.04175,0,1,1,8.0415-8.042A8.05074,8.05074,0,0,1,80,16.0835ZM80,3a5.04175,5.04175,0,1,0,5.0415,5.0415A5.04735,5.04735,0,0,0,80,3Z"/><path d="M80,160a14.59984,14.59984,0,0,1-14.5835-14.5835,1.5,1.5,0,0,1,3,0,11.5835,11.5835,0,1,0,23.167,0,1.5,1.5,0,0,1,3,0A14.59984,14.59984,0,0,1,80,160Z"/></svg>