<svg xmlns="http://www.w3.org/2000/svg" viewBox="0 0 160 159.99902"><title>alo_icon_system_time-large</title><path d="M73.458,153.458a73.4585,73.4585,0,1,1,73.459-73.4585A73.54131,73.54131,0,0,1,73.458,153.458Zm0-143.917a70.4585,70.4585,0,1,0,70.459,70.4585A70.538,70.538,0,0,0,73.458,9.541Z"/><path d="M73.459,81.5a1.50031,1.50031,0,0,1-.751-2.79932l45.32227-26.1665a1.49982,1.49982,0,1,1,1.5,2.59766L74.208,81.29834A1.49094,1.49094,0,0,1,73.459,81.5Z"/><path d="M132.333,81.49951H119.25a1.5,1.5,0,0,1,0-3h13.083a1.5,1.5,0,0,1,0,3Z"/><path d="M27.667,81.49951H14.583a1.5,1.5,0,1,1,0-3H27.667a1.5,1.5,0,1,1,0,3Z"/><path d="M124.44434,110.9375a1.49094,1.49094,0,0,1-.749-.20166l-11.33008-6.5415a1.49982,1.49982,0,1,1,1.5-2.59766l11.33008,6.5415a1.50031,1.50031,0,0,1-.751,2.79932Z"/><path d="M33.80078,58.604a1.49094,1.49094,0,0,1-.749-.20166L21.7207,51.86084a1.49982,1.49982,0,0,1,1.5-2.59766l11.33105,6.5415a1.50031,1.50031,0,0,1-.751,2.79932Z"/><path d="M102.89648,132.4873a1.49959,1.49959,0,0,1-1.2998-.75049l-6.541-11.33057a1.49982,1.49982,0,1,1,2.59766-1.5l6.541,11.33057a1.50088,1.50088,0,0,1-1.29785,2.25049Z"/><path d="M50.56348,41.84326a1.49856,1.49856,0,0,1-1.2998-.75049l-6.542-11.33057a1.49982,1.49982,0,0,1,2.59766-1.5l6.542,11.33057a1.50088,1.50088,0,0,1-1.29785,2.25049Z"/><path d="M73.458,140.37451a1.50007,1.50007,0,0,1-1.5-1.5V125.791a1.5,1.5,0,0,1,3,0v13.0835A1.50007,1.50007,0,0,1,73.458,140.37451Z"/><path d="M73.458,35.708a1.50007,1.50007,0,0,1-1.5-1.5V21.12451a1.5,1.5,0,0,1,3,0V34.208A1.50007,1.50007,0,0,1,73.458,35.708Z"/><path d="M44.01953,132.4873a1.50088,1.50088,0,0,1-1.29785-2.25049l6.542-11.33057a1.49982,1.49982,0,0,1,2.59766,1.5l-6.542,11.33057A1.49856,1.49856,0,0,1,44.01953,132.4873Z"/><path d="M96.35352,41.84326a1.5003,1.5003,0,0,1-1.29785-2.25049l6.541-11.33057a1.49982,1.49982,0,1,1,2.59766,1.5l-6.541,11.33057A1.49959,1.49959,0,0,1,96.35352,41.84326Z"/><path d="M22.47168,110.9375a1.50031,1.50031,0,0,1-.751-2.79932l11.33105-6.5415a1.49982,1.49982,0,1,1,1.5,2.59766l-11.33105,6.5415A1.49094,1.49094,0,0,1,22.47168,110.9375Z"/><path d="M34.208,21.20068a1.50007,1.50007,0,0,1-1.5-1.5V1.5a1.5,1.5,0,0,1,3,0V19.70068A1.50007,1.50007,0,0,1,34.208,21.20068Z"/><path d="M112.708,21.2002a1.50007,1.50007,0,0,1-1.5-1.5V1.5a1.5,1.5,0,0,1,3,0V19.7002A1.50007,1.50007,0,0,1,112.708,21.2002Z"/><path d="M112.708,159.999a1.50007,1.50007,0,0,1-1.5-1.5V140.29834a1.5,1.5,0,0,1,3,0V158.499A1.50007,1.50007,0,0,1,112.708,159.999Z"/><path d="M34.208,159.999a1.50007,1.50007,0,0,1-1.5-1.5V140.29834a1.5,1.5,0,0,1,3,0V158.499A1.50007,1.50007,0,0,1,34.208,159.999Z"/><path d="M158.5,88.0415H145.10742a1.5,1.5,0,0,1,0-3H157V74.958H145.10742a1.5,1.5,0,0,1,0-3H158.5a1.50007,1.50007,0,0,1,1.5,1.5V86.5415A1.50007,1.50007,0,0,1,158.5,88.0415Z"/><path d="M73.457,81.49951a1.49436,1.49436,0,0,1-.8291-.25049L50.833,66.76855a1.5001,1.5001,0,0,1,1.66016-2.499L74.28809,78.75a1.5002,1.5002,0,0,1-.83105,2.74951Z"/></svg>