<svg id="Elements" xmlns="http://www.w3.org/2000/svg" viewBox="0 0 75 75"><title>alo_service</title><path d="M37.30811,53.08008a16,16,0,1,1,16-16A16.01833,16.01833,0,0,1,37.30811,53.08008Zm0-30a14,14,0,1,0,14,14A14.01573,14.01573,0,0,0,37.30811,23.08008Z"/><path d="M52.30811,42.51367a0.99974,0.99974,0,0,1-1-1V22.08008a1,1,0,1,1,2,0V41.51367A0.99974,0.99974,0,0,1,52.30811,42.51367Z"/><path d="M37.5,68.5A31.008,31.008,0,0,1,25.43311,8.93652,30.99117,30.99117,0,0,1,68.5,37.5a1,1,0,0,1-2,0A28.97459,28.97459,0,1,0,48.7876,64.22168a0.99994,0.99994,0,0,1,.7793,1.8418A30.80549,30.80549,0,0,1,37.5,68.5Z"/><path d="M54.07422,46.2207a0.99676,0.99676,0,0,1-.707-0.293,6.19962,6.19962,0,0,1-1.82861-4.41406,1,1,0,1,1,2,0,4.21328,4.21328,0,0,0,1.24268,3A1,1,0,0,1,54.07422,46.2207Z"/><path d="M58.708,48.13965a7.50191,7.50191,0,0,1-5.34082-2.21191,0.99989,0.99989,0,0,1,1.41406-1.41406,5.51641,5.51641,0,0,0,3.92676,1.626A1,1,0,0,1,58.708,48.13965Z"/><path d="M58.708,48.13965a1,1,0,0,1,0-2,7.14474,7.14474,0,0,0,5.08545-2.10547,0.99989,0.99989,0,0,1,1.41406,1.41406A9.1294,9.1294,0,0,1,58.708,48.13965Z"/><path d="M64.50049,45.74121a1,1,0,0,1-.707-1.707A9.18166,9.18166,0,0,0,66.5,37.5a1,1,0,0,1,2,0,11.168,11.168,0,0,1-3.29248,7.94824A0.99676,0.99676,0,0,1,64.50049,45.74121Z"/></svg>