<svg xmlns="http://www.w3.org/2000/svg" viewBox="0 0 160 160"><title>alo_icon_system_join-large</title><path d="M106.166,29.1665a14.58325,14.58325,0,1,1,14.583-14.583A14.59963,14.59963,0,0,1,106.166,29.1665ZM106.166,3a11.58325,11.58325,0,1,0,11.583,11.5835A11.59645,11.59645,0,0,0,106.166,3Z"/><path d="M53.833,29.1665a14.58325,14.58325,0,1,1,14.583-14.583A14.59984,14.59984,0,0,1,53.833,29.1665ZM53.833,3A11.58325,11.58325,0,1,0,65.416,14.5835,11.59666,11.59666,0,0,0,53.833,3Z"/><path d="M125.792,160a8.05074,8.05074,0,0,1-8.042-8.0415V94.5835H107.667v57.375a8.042,8.042,0,0,1-16.084,0V55.3335H68.417v96.625a8.042,8.042,0,0,1-16.084,0V94.5835H42.25v57.375a8.0415,8.0415,0,1,1-16.083,0V55.3335H8.042a8.04175,8.04175,0,1,1,0-16.0835H151.958a8.04175,8.04175,0,1,1,0,16.0835H133.833v96.625A8.05053,8.05053,0,0,1,125.792,160ZM106.167,91.5835H119.25a1.50007,1.50007,0,0,1,1.5,1.5v58.875a5.0415,5.0415,0,1,0,10.083,0V53.8335a1.50007,1.50007,0,0,1,1.5-1.5h19.625a5.04175,5.04175,0,1,0,0-10.0835H8.042a5.04175,5.04175,0,1,0,0,10.0835H27.667a1.50007,1.50007,0,0,1,1.5,1.5v98.125a5.0415,5.0415,0,1,0,10.083,0V93.0835a1.50007,1.50007,0,0,1,1.5-1.5H53.833a1.50007,1.50007,0,0,1,1.5,1.5v58.875a5.042,5.042,0,0,0,10.084,0V53.8335a1.50007,1.50007,0,0,1,1.5-1.5H93.083a1.50007,1.50007,0,0,1,1.5,1.5v98.125a5.042,5.042,0,0,0,10.084,0V93.0835A1.50007,1.50007,0,0,1,106.167,91.5835Z"/></svg>