<svg id="Elements" xmlns="http://www.w3.org/2000/svg" viewBox="0 0 75 75"><title>alo_service</title><path d="M37.5,68.5a31,31,0,1,1,31-31A31.035,31.035,0,0,1,37.5,68.5Zm0-60a29,29,0,1,0,29,29A29.03276,29.03276,0,0,0,37.5,8.5Z"/><path d="M9.64941,49.58984a1,1,0,0,1-.32568-1.94531A21.95245,21.95245,0,0,0,24.14648,26.91162a21.69872,21.69872,0,0,0-4.59033-13.37793,1,1,0,0,1,1.582-1.22363,23.682,23.682,0,0,1,5.0083,14.60156A23.953,23.953,0,0,1,9.9751,49.53516,1,1,0,0,1,9.64941,49.58984Z"/><path d="M19.85254,26.147a30.92222,30.92222,0,0,1-9.29541-1.42773,1,1,0,1,1,.60059-1.90771A28.91477,28.91477,0,0,0,19.85254,24.147,28.92452,28.92452,0,0,0,45.60645,8.42139a1,1,0,0,1,1.77637.91895A30.91712,30.91712,0,0,1,19.85254,26.147Z"/><path d="M38.7793,68.43555a0.97329,0.97329,0,0,1-.1748-0.01562,0.99964,0.99964,0,0,1-.811-1.1582,28.05159,28.05159,0,0,0-.7002-13.14648,0.99977,0.99977,0,1,1,1.91992-.55859,30.04655,30.04655,0,0,1,.75,14.05273A1.00006,1.00006,0,0,1,38.7793,68.43555Z"/><path d="M35.33594,48.417a1.0009,1.0009,0,0,1-.87012-0.50488A29.086,29.086,0,0,0,9.26514,33.20605c-0.24707,0-.48975.01758-0.73242,0.03418-0.167.01123-.334,0.02246-0.502,0.02979a1.02063,1.02063,0,0,1-1.04248-.95557A1,1,0,0,1,7.94385,31.272c0.15137-.00684.30176-0.01709,0.45215-0.02734,0.28809-.01953.57568-0.03857,0.86914-0.03857a31.09175,31.09175,0,0,1,26.939,15.71582A0.99984,0.99984,0,0,1,35.33594,48.417Z"/><path d="M56.69531,61.53027a0.99841,0.99841,0,0,1-.75732-0.3457A36.2979,36.2979,0,0,1,47.11426,38.0752a1.00038,1.00038,0,0,1,.98389-1.01562h0.0166a1.00018,1.00018,0,0,1,.99951.98438,34.2841,34.2841,0,0,0,8.3374,21.832A1.00022,1.00022,0,0,1,56.69531,61.53027Z"/><path d="M50.68262,25.32227a1.00127,1.00127,0,0,1-.92578-1.377A36.43772,36.43772,0,0,1,55.938,13.81543,1.00013,1.00013,0,1,1,57.45166,15.123a34.44121,34.44121,0,0,0-5.84229,9.5752A1.00052,1.00052,0,0,1,50.68262,25.32227Z"/><path d="M36.90332,55.06738a4.50435,4.50435,0,0,1-2.02-8.543,1.00035,1.00035,0,0,1,.90332,1.78516,2.504,2.504,0,0,0,1.1167,4.75781,2.58506,2.58506,0,0,0,.82178-0.17578,0.99972,0.99972,0,0,1,.65625,1.88867A4.408,4.408,0,0,1,36.90332,55.06738Z"/><path d="M38.0542,54.83594a1.00011,1.00011,0,0,1-.32959-1.94434,2.483,2.483,0,0,0,1.708-2.35352,2.53233,2.53233,0,0,0-2.5293-2.5293,2.46756,2.46756,0,0,0-1.11719.30078,1.00013,1.00013,0,1,1-.90234-1.78516,4.49564,4.49564,0,1,1,3.5,8.25586A0.99855,0.99855,0,0,1,38.0542,54.83594Z"/><path d="M48.11426,39.05957c-0.02686,0-.0542-0.001-0.08154-0.00293a8.04143,8.04143,0,0,1,.64795-16.05811,7.90561,7.90561,0,0,1,2.28662.36426,1.0002,1.0002,0,0,1-.56836,1.918,5.97606,5.97606,0,0,0-1.71826-.28223,6.06616,6.06616,0,0,0-6.05908,6.05908A6.002,6.002,0,0,0,48.19385,37.063,0.99992,0.99992,0,0,1,48.11426,39.05957Z"/><path d="M48.68066,39.11621a3.60645,3.60645,0,0,1-.48389-0.04l-0.16406-.01953A1.00016,1.00016,0,0,1,48.1958,37.063c0.09082,0.00732.18018,0.019,0.26953,0.03125a1.64956,1.64956,0,0,0,.21533.022,6.03986,6.03986,0,0,0,1.71729-11.83594,1,1,0,0,1,.57031-1.917A8.03986,8.03986,0,0,1,48.68066,39.11621Z"/></svg>