<svg xmlns="http://www.w3.org/2000/svg" viewBox="0 0 133.83301 160"><title>alo_icon_system_photo-large</title><path d="M125.7915,103.98145H8.0415A8.05063,8.05063,0,0,1,0,95.93994V50.11719a8.05063,8.05063,0,0,1,8.0415-8.0415h117.75a8.05063,8.05063,0,0,1,8.0415,8.0415V95.93994A8.05063,8.05063,0,0,1,125.7915,103.98145ZM8.0415,45.07568A5.04735,5.04735,0,0,0,3,50.11719V95.93994a5.04735,5.04735,0,0,0,5.0415,5.0415h117.75a5.04735,5.04735,0,0,0,5.0415-5.0415V50.11719a5.04735,5.04735,0,0,0-5.0415-5.0415Z"/><path d="M79.53906,45.07568H54.29395a1.49976,1.49976,0,0,1-1.5-1.5V41.70215a8.05063,8.05063,0,0,1,8.0415-8.0415H72.99756a8.05063,8.05063,0,0,1,8.0415,8.0415v1.87354A1.49976,1.49976,0,0,1,79.53906,45.07568Zm-23.74512-3H78.03906v-.37354a5.04735,5.04735,0,0,0-5.0415-5.0415H60.83545a5.04735,5.04735,0,0,0-5.0415,5.0415Z"/><path d="M72.99756,112.397H60.83545a8.05074,8.05074,0,0,1-8.0415-8.042v-1.87354a1.49976,1.49976,0,0,1,1.5-1.5H79.53906a1.49976,1.49976,0,0,1,1.5,1.5V104.355A8.05074,8.05074,0,0,1,72.99756,112.397Zm-17.20361-8.41553v.37354a5.04746,5.04746,0,0,0,5.0415,5.042H72.99756a5.04746,5.04746,0,0,0,5.0415-5.042v-.37354Z"/><path d="M66.9165,91.35889A18.33032,18.33032,0,1,1,85.24658,73.02881,18.3506,18.3506,0,0,1,66.9165,91.35889Zm0-33.66064A15.33032,15.33032,0,1,0,82.24658,73.02881,15.34774,15.34774,0,0,0,66.9165,57.69824Z"/><path d="M115.04248,66.57422A5.70752,5.70752,0,1,1,120.75,60.8667,5.7143,5.7143,0,0,1,115.04248,66.57422Zm0-8.415A2.70752,2.70752,0,1,0,117.75,60.8667,2.7107,2.7107,0,0,0,115.04248,58.15918Z"/><path d="M27.6665,78.73633A5.70752,5.70752,0,1,1,33.374,73.02881,5.71419,5.71419,0,0,1,27.6665,78.73633Zm0-8.415A2.70752,2.70752,0,1,0,30.374,73.02881,2.71029,2.71029,0,0,0,27.6665,70.32129Z"/><path d="M75.33154,36.66064H58.50146a1.49976,1.49976,0,0,1-1.5-1.5v-8.415a1.49976,1.49976,0,0,1,1.5-1.5H75.33154a1.49976,1.49976,0,0,1,1.5,1.5v8.415A1.49976,1.49976,0,0,1,75.33154,36.66064Zm-15.33008-3H73.83154v-5.415H60.00146Z"/><path d="M83.74658,28.24561H50.08643a1.49976,1.49976,0,0,1-1.5-1.5V1.5a1.49976,1.49976,0,0,1,1.5-1.5H83.74658a1.49976,1.49976,0,0,1,1.5,1.5V26.74561A1.49976,1.49976,0,0,1,83.74658,28.24561Zm-32.16016-3H82.24658V3H51.58643Z"/><path d="M83.74658,19.83008H50.08643a1.5,1.5,0,0,1,0-3H83.74658a1.5,1.5,0,0,1,0,3Z"/><path d="M114.52,160a1.49514,1.49514,0,0,1-1.06055-.43945l-47.603-47.603a1.49984,1.49984,0,0,1,2.12109-2.12109l47.603,47.603A1.5,1.5,0,0,1,114.52,160Z"/><path d="M19.31348,160a1.5,1.5,0,0,1-1.06055-2.56055l47.60352-47.603a1.49984,1.49984,0,0,1,2.12109,2.12109L20.374,159.56055A1.49514,1.49514,0,0,1,19.31348,160Z"/><path d="M66.917,160a1.49976,1.49976,0,0,1-1.5-1.5V110.897a1.5,1.5,0,0,1,3,0V158.5A1.49976,1.49976,0,0,1,66.917,160Z"/></svg>