<svg xmlns="http://www.w3.org/2000/svg" viewBox="0 0 160 160"><title>alo_icon_system_web-large</title><path d="M80,160a80,80,0,1,1,80-80A80.09041,80.09041,0,0,1,80,160ZM80,3a77,77,0,1,0,77,77A77.08713,77.08713,0,0,0,80,3Z"/><path d="M7.125,110.51807a1.50045,1.50045,0,0,1-.48828-2.91895A58.55816,58.55816,0,0,0,46.17578,52.29346a57.88955,57.88955,0,0,0-12.24512-35.689,1.49987,1.49987,0,1,1,2.373-1.835A60.86252,60.86252,0,0,1,49.17578,52.29346,61.55954,61.55954,0,0,1,7.61328,110.436,1.49431,1.49431,0,0,1,7.125,110.51807Z"/><path d="M33.82324,49.17578a79.766,79.766,0,0,1-23.9873-3.68359,1.49983,1.49983,0,1,1,.90039-2.86133,76.78792,76.78792,0,0,0,23.08691,3.54492A76.79513,76.79513,0,0,0,102.2041,4.42432a1.49988,1.49988,0,0,1,2.66406,1.37891A79.78494,79.78494,0,0,1,33.82324,49.17578Z"/><path d="M83.34668,159.832a1.50357,1.50357,0,0,1-1.47949-1.76172,76.48757,76.48757,0,0,0,1.251-13.42236A76.79651,76.79651,0,0,0,80.00781,123.165a1.50025,1.50025,0,0,1,2.88086-.83887,79.84173,79.84173,0,0,1,3.22949,22.32178,79.49458,79.49458,0,0,1-1.2959,13.94482A1.50106,1.50106,0,0,1,83.34668,159.832Z"/><path d="M74.33594,107.45068a1.49892,1.49892,0,0,1-1.30469-.7583A77.22657,77.22657,0,0,0,6.11816,67.64795c-.65137,0-1.2959.04395-1.97852.09033-.43262.0293-.86621.05859-1.30176.07715a1.49988,1.49988,0,1,1-.127-2.99707c.41016-.01758.81738-.04541,1.22461-.07324.70313-.04785,1.42969-.09717,2.18262-.09717A80.23214,80.23214,0,0,1,75.63867,105.208a1.50068,1.50068,0,0,1-1.30273,2.24268Z"/><path d="M130.22754,141.76221a1.49669,1.49669,0,0,1-1.13574-.519,93.84534,93.84534,0,0,1-22.81738-59.75537,1.50036,1.50036,0,0,1,1.47656-1.52393h.02441a1.5006,1.5006,0,0,1,1.499,1.47607,90.84329,90.84329,0,0,0,22.08691,57.84131,1.50027,1.50027,0,0,1-1.13379,2.481Z"/><path d="M114.49414,47.01758a1.50059,1.50059,0,0,1-1.38867-2.06543A94.25734,94.25734,0,0,1,129.0918,18.75586a1.5,1.5,0,0,1,2.26953,1.96191A91.25106,91.25106,0,0,0,115.88477,46.082,1.5011,1.5011,0,0,1,114.49414,47.01758Z"/><path d="M78.43848,124.85205a10.66913,10.66913,0,0,1-4.78027-20.24023,1.49975,1.49975,0,1,1,1.35352,2.67676A7.62573,7.62573,0,0,0,80.9541,121.3291a1.50022,1.50022,0,0,1,.98828,2.833A10.52225,10.52225,0,0,1,78.43848,124.85205Z"/><path d="M81.4502,124.24609a1.50018,1.50018,0,0,1-.49414-2.9165,7.67638,7.67638,0,0,0-2.51758-14.94824,7.53359,7.53359,0,0,0-3.42676.90771,1.50019,1.50019,0,0,1-1.35352-2.67773,10.45177,10.45177,0,0,1,4.78027-1.23,10.676,10.676,0,0,1,3.50586,20.78027A1.49362,1.49362,0,0,1,81.4502,124.24609Z"/><path d="M107.77441,82.96387c-.041,0-.082-.00146-.123-.00488a19.92433,19.92433,0,0,1,1.60449-39.7876,19.5738,19.5738,0,0,1,5.666.90771,1.5,1.5,0,1,1-.85352,2.876,16.67712,16.67712,0,0,0-4.8125-.78369,16.98994,16.98994,0,0,0-16.9707,16.9707,16.81239,16.81239,0,0,0,15.6084,16.82666,1.5,1.5,0,0,1-.11914,2.99512Z"/><path d="M109.25586,83.11279a8.07687,8.07687,0,0,1-1.1123-.09521c-.16309-.02246-.3252-.04541-.49121-.05859a1.50009,1.50009,0,0,1,.24414-2.99023c.21875.01807.43555.04688.65137.07617a5.2354,5.2354,0,0,0,.708.06787,16.92106,16.92106,0,0,0,4.81152-33.1582,1.49979,1.49979,0,0,1,.85547-2.875,19.92079,19.92079,0,0,1-5.667,39.0332Z"/></svg>