<svg xmlns="http://www.w3.org/2000/svg" viewBox="0 0 160.00011 160"><title>alo_icon_system_calendar-large</title><path d="M99.625,16.0835H60.375a1.5,1.5,0,0,1,0-3h39.25a1.5,1.5,0,0,1,0,3Z"/><path d="M125.7915,160H14.5835A14.59984,14.59984,0,0,1,0,145.4165V27.6665a14.59973,14.59973,0,0,1,14.5835-14.583h32.708a1.5,1.5,0,0,1,0,3H14.5835A11.59645,11.59645,0,0,0,3,27.6665v117.75A11.59656,11.59656,0,0,0,14.5835,157h111.208a1.5,1.5,0,1,1,0,3Z"/><path d="M158.5,127.2915a1.49976,1.49976,0,0,1-1.5-1.5V27.6665a11.59645,11.59645,0,0,0-11.5835-11.583h-32.708a1.5,1.5,0,0,1,0-3h32.708A14.59973,14.59973,0,0,1,160,27.6665v98.125A1.49976,1.49976,0,0,1,158.5,127.2915Z"/><path d="M53.8335,29.1665a8.05074,8.05074,0,0,1-8.042-8.0415V8.0415a8.04175,8.04175,0,0,1,16.0835,0V21.125A8.05063,8.05063,0,0,1,53.8335,29.1665ZM53.8335,3a5.04746,5.04746,0,0,0-5.042,5.0415V21.125a5.04175,5.04175,0,0,0,10.0835,0V8.0415A5.04735,5.04735,0,0,0,53.8335,3Z"/><path d="M106.1665,29.1665A8.05063,8.05063,0,0,1,98.125,21.125V8.0415a8.04175,8.04175,0,0,1,16.0835,0V21.125A8.05074,8.05074,0,0,1,106.1665,29.1665Zm0-26.1665a5.04735,5.04735,0,0,0-5.0415,5.0415V21.125a5.04175,5.04175,0,0,0,10.0835,0V8.0415A5.04746,5.04746,0,0,0,106.1665,3Z"/><path d="M125.791,160a1.5,1.5,0,0,1-1.49951-1.5V138.875a14.59984,14.59984,0,0,1,14.5835-14.5835H158.5a1.49987,1.49987,0,0,1,1.06055,2.56055l-32.7085,32.7085A1.49827,1.49827,0,0,1,125.791,160Zm13.084-32.7085a11.59656,11.59656,0,0,0-11.5835,11.5835v16.00391l27.5874-27.5874Z"/><path d="M158.5,55.3335H1.5a1.5,1.5,0,0,1,0-3h157a1.5,1.5,0,0,1,0,3Z"/><path d="M27.6665,88.0415A8.0415,8.0415,0,1,1,35.7085,80,8.05063,8.05063,0,0,1,27.6665,88.0415Zm0-13.083A5.0415,5.0415,0,1,0,32.7085,80,5.04735,5.04735,0,0,0,27.6665,74.9585Z"/><path d="M53.8335,88.0415A8.0415,8.0415,0,1,1,61.875,80,8.05074,8.05074,0,0,1,53.8335,88.0415Zm0-13.083A5.0415,5.0415,0,1,0,58.875,80,5.04746,5.04746,0,0,0,53.8335,74.9585Z"/><path d="M80,88.0415A8.0415,8.0415,0,1,1,88.0415,80,8.05063,8.05063,0,0,1,80,88.0415Zm0-13.083A5.0415,5.0415,0,1,0,85.0415,80,5.04735,5.04735,0,0,0,80,74.9585Z"/><path d="M106.1665,88.0415A8.0415,8.0415,0,1,1,114.2085,80,8.05063,8.05063,0,0,1,106.1665,88.0415Zm0-13.083A5.0415,5.0415,0,1,0,111.2085,80,5.04735,5.04735,0,0,0,106.1665,74.9585Z"/><path d="M132.3335,88.0415A8.0415,8.0415,0,1,1,140.375,80,8.05074,8.05074,0,0,1,132.3335,88.0415Zm0-13.083A5.0415,5.0415,0,1,0,137.375,80,5.04746,5.04746,0,0,0,132.3335,74.9585Z"/><path d="M27.6665,114.2085a8.04175,8.04175,0,1,1,8.042-8.042A8.05074,8.05074,0,0,1,27.6665,114.2085Zm0-13.0835a5.04175,5.04175,0,1,0,5.042,5.0415A5.04735,5.04735,0,0,0,27.6665,101.125Z"/><path d="M53.8335,114.2085a8.04175,8.04175,0,1,1,8.0415-8.042A8.05084,8.05084,0,0,1,53.8335,114.2085Zm0-13.0835a5.04175,5.04175,0,1,0,5.0415,5.0415A5.04746,5.04746,0,0,0,53.8335,101.125Z"/><path d="M80,114.2085a8.04175,8.04175,0,1,1,8.0415-8.042A8.05074,8.05074,0,0,1,80,114.2085Zm0-13.0835a5.04175,5.04175,0,1,0,5.0415,5.0415A5.04735,5.04735,0,0,0,80,101.125Z"/><path d="M106.1665,114.2085a8.04175,8.04175,0,1,1,8.042-8.042A8.05074,8.05074,0,0,1,106.1665,114.2085Zm0-13.0835a5.04175,5.04175,0,1,0,5.042,5.0415A5.04735,5.04735,0,0,0,106.1665,101.125Z"/><path d="M27.6665,140.375a8.04175,8.04175,0,1,1,8.042-8.0415A8.05063,8.05063,0,0,1,27.6665,140.375Zm0-13.0835a5.04175,5.04175,0,1,0,5.042,5.042A5.04746,5.04746,0,0,0,27.6665,127.2915Z"/><path d="M53.8335,140.375a8.04175,8.04175,0,1,1,8.0415-8.0415A8.05074,8.05074,0,0,1,53.8335,140.375Zm0-13.0835a5.04175,5.04175,0,1,0,5.0415,5.042A5.04756,5.04756,0,0,0,53.8335,127.2915Z"/><path d="M80,140.375a8.04175,8.04175,0,1,1,8.0415-8.0415A8.05063,8.05063,0,0,1,80,140.375Zm0-13.0835a5.04175,5.04175,0,1,0,5.0415,5.042A5.04746,5.04746,0,0,0,80,127.2915Z"/><path d="M106.1665,140.375a8.04175,8.04175,0,1,1,8.042-8.0415A8.05063,8.05063,0,0,1,106.1665,140.375Zm0-13.0835a5.04175,5.04175,0,1,0,5.042,5.042A5.04746,5.04746,0,0,0,106.1665,127.2915Z"/><path d="M132.3335,114.2085a8.04175,8.04175,0,1,1,8.0415-8.042A8.05084,8.05084,0,0,1,132.3335,114.2085Zm0-13.0835a5.04175,5.04175,0,1,0,5.0415,5.0415A5.04746,5.04746,0,0,0,132.3335,101.125Z"/></svg>