<svg xmlns="http://www.w3.org/2000/svg" viewBox="0 0 160 160"><title>alo_icon_system_stacks-large</title><path d="M152.21973,120.75H7.77979A7.789,7.789,0,0,1,0,112.96973V7.78027A7.789,7.789,0,0,1,7.77979,0H152.21973a7.78869,7.78869,0,0,1,7.77979,7.78027V112.96973A7.78869,7.78869,0,0,1,152.21973,120.75ZM7.77979,3A4.78541,4.78541,0,0,0,3,7.78027V112.96973A4.78541,4.78541,0,0,0,7.77979,117.75H152.21973a4.78541,4.78541,0,0,0,4.77979-4.78027V7.78027A4.78541,4.78541,0,0,0,152.21973,3Z"/><path d="M27.667,148.66992H1.50049a1.5,1.5,0,0,1,0-3H27.667a1.5,1.5,0,1,1,0,3Z"/><path d="M8.04053,160a1.50011,1.50011,0,0,1-1.29736-2.25l13.0835-22.66113a1.49982,1.49982,0,0,1,2.59766,1.5L9.34082,159.25A1.49828,1.49828,0,0,1,8.04053,160Z"/><path d="M21.127,160a1.49828,1.49828,0,0,1-1.30029-.75L6.74316,136.58887a1.49982,1.49982,0,0,1,2.59766-1.5L22.42432,157.75A1.50011,1.50011,0,0,1,21.127,160Z"/><path d="M95.7002,154.7666h-52.333a1.5,1.5,0,0,1,0-3h52.333a1.5,1.5,0,0,1,0,3Z"/><path d="M148.03271,142.12012H43.36719a1.5,1.5,0,0,1,0-3H148.03271a1.5,1.5,0,0,1,0,3Z"/><path d="M1.50049,105.0498a1.5,1.5,0,0,1-1.06055-2.56055L47.53955,55.38965a1.49945,1.49945,0,0,1,2.12109,0L68.89844,74.627l41.44092-41.44043a1.49945,1.49945,0,0,1,2.12109,0l47.1001,47.09961a1.49984,1.49984,0,0,1-2.12109,2.12109L111.3999,36.36816,69.959,77.80859a1.49945,1.49945,0,0,1-2.12109,0L48.6001,58.57129,2.561,104.61035A1.49514,1.49514,0,0,1,1.50049,105.0498Z"/><path d="M64.30029,47.4834A17.2002,17.2002,0,1,1,81.5,30.2832,17.21948,17.21948,0,0,1,64.30029,47.4834Zm0-31.40039A14.2002,14.2002,0,1,0,78.5,30.2832,14.2162,14.2162,0,0,0,64.30029,16.083Z"/><path d="M111.3999,120.75a1.49514,1.49514,0,0,1-1.06055-.43945l-42.50146-42.502A1.49984,1.49984,0,0,1,69.959,75.6875l42.50146,42.502A1.5,1.5,0,0,1,111.3999,120.75Z"/></svg>