<svg id="Elements" xmlns="http://www.w3.org/2000/svg" viewBox="0 0 75 75"><title>alo_service</title><path d="M37.5,68.5a26,26,0,1,1,26-26A26.02948,26.02948,0,0,1,37.5,68.5Zm0-50a24,24,0,1,0,24,24A24.0275,24.0275,0,0,0,37.5,18.5Z"/><path d="M37.5,63A20.5,20.5,0,1,1,58,42.5,20.52325,20.52325,0,0,1,37.5,63Zm0-39A18.5,18.5,0,1,0,56,42.5,18.52065,18.52065,0,0,0,37.5,24Z"/><path d="M37.5,18.5a6,6,0,1,1,6-6A6.00656,6.00656,0,0,1,37.5,18.5Zm0-10a4,4,0,1,0,4,4A4.00458,4.00458,0,0,0,37.5,8.5Z"/><path d="M37.50879,48.48389a6.0025,6.0025,0,0,1-2.519-.55273,0.99994,0.99994,0,1,1,.83887-1.81543,3.97471,3.97471,0,0,0,5.28711-5.28711,0.99994,0.99994,0,1,1,1.81543-.83887A5.9639,5.9639,0,0,1,37.50879,48.48389Z"/><path d="M32.97656,45.59082a0.99972,0.99972,0,0,1-.9082-0.58154,5.97445,5.97445,0,0,1,7.94092-7.94092,0.99973,0.99973,0,1,1-.83789,1.81543,3.9752,3.9752,0,0,0-5.2876,5.2876A0.99926,0.99926,0,0,1,33.395,45.498,0.98888,0.98888,0,0,1,32.97656,45.59082Z"/><path d="M35.40869,48.02344a0.992,0.992,0,0,1-.41895-0.09229,5.73957,5.73957,0,0,1-2.92139-2.92139,0.99994,0.99994,0,1,1,1.81543-.83887,3.74393,3.74393,0,0,0,1.94482,1.94482A1,1,0,0,1,35.40869,48.02344Z"/><path d="M42.02393,41.40918a0.99931,0.99931,0,0,1-.9082-0.58057,3.74853,3.74853,0,0,0-1.94482-1.94482,0.99994,0.99994,0,1,1,.83887-1.81543,5.74438,5.74438,0,0,1,2.92139,2.92139A1.00006,1.00006,0,0,1,42.02393,41.40918Z"/><path d="M39.59131,38.97607a1,1,0,0,1-.582-1.814l8.51611-6.08252a1.00008,1.00008,0,1,1,1.16211,1.62793L40.17139,38.79A0.9957,0.9957,0,0,1,39.59131,38.97607Z"/><path d="M42.02246,41.40918a1.0001,1.0001,0,0,1-.8125-1.58105l6.083-8.51562a0.99968,0.99968,0,1,1,1.627,1.16211l-6.083,8.51563A0.99763,0.99763,0,0,1,42.02246,41.40918Z"/><path d="M26.89209,54.10645a1,1,0,0,1-.813-1.58105l6.083-8.51611A1.00008,1.00008,0,1,1,33.79,45.17139L27.707,53.6875A0.99917,0.99917,0,0,1,26.89209,54.10645Z"/><path d="M26.894,54.10645a1,1,0,0,1-.582-1.814l8.51611-6.083a1.00008,1.00008,0,0,1,1.16211,1.62793l-8.51611,6.083A0.9957,0.9957,0,0,1,26.894,54.10645Z"/></svg>