<svg id="Elements" xmlns="http://www.w3.org/2000/svg" viewBox="0 0 75 75"><title>alo_service</title><path d="M52.5,68.5h-30a11.01245,11.01245,0,0,1-11-11v-15a0.99942,0.99942,0,0,1,1-1h50a0.99942,0.99942,0,0,1,1,1v15A11.01245,11.01245,0,0,1,52.5,68.5Zm-39-25v14a9.00984,9.00984,0,0,0,9,9h30a9.00984,9.00984,0,0,0,9-9v-14h-48Z"/><path d="M57.5,38.5a0.99942,0.99942,0,0,1-1-1v-5a19,19,0,0,0-38,0v5a1,1,0,0,1-2,0v-5a21,21,0,0,1,42,0v5A0.99942,0.99942,0,0,1,57.5,38.5Z"/><path d="M62.5,38.5a0.99942,0.99942,0,0,1-1-1v-5a24,24,0,0,0-48,0v5a1,1,0,0,1-2,0v-5a26,26,0,0,1,52,0v5A0.99942,0.99942,0,0,1,62.5,38.5Z"/><path d="M65,43.5H10a3.5,3.5,0,0,1,0-7H65A3.5,3.5,0,0,1,65,43.5Zm-55-5a1.5,1.5,0,0,0,0,3H65a1.5,1.5,0,0,0,0-3H10Z"/><path d="M42.5,63.5a0.99676,0.99676,0,0,1-.707-0.293l-5-5A0.99989,0.99989,0,0,1,38.207,56.793l5,5A1,1,0,0,1,42.5,63.5Z"/><path d="M47.5,68.5a0.99676,0.99676,0,0,1-.707-0.293l-5-5A0.99989,0.99989,0,0,1,43.207,61.793l5,5A1,1,0,0,1,47.5,68.5Z"/><path d="M32.5,53.5a0.99676,0.99676,0,0,1-.707-0.293l-5-5A0.99989,0.99989,0,0,1,28.207,46.793l5,5A1,1,0,0,1,32.5,53.5Z"/><path d="M37.5,58.5a0.99676,0.99676,0,0,1-.707-0.293l-5-5A0.99989,0.99989,0,0,1,33.207,51.793l5,5A1,1,0,0,1,37.5,58.5Z"/><path d="M27.5,48.5a0.99676,0.99676,0,0,1-.707-0.293l-5-5A0.99989,0.99989,0,0,1,23.207,41.793l5,5A1,1,0,0,1,27.5,48.5Z"/><path d="M56.60938,67.60938a0.99676,0.99676,0,0,1-.707-0.293L51.793,63.207A0.99989,0.99989,0,0,1,53.207,61.793l4.10938,4.10938A1,1,0,0,1,56.60938,67.60938Z"/><path d="M47.5,58.5a0.99676,0.99676,0,0,1-.707-0.293l-5-5A0.99989,0.99989,0,0,1,43.207,51.793l5,5A1,1,0,0,1,47.5,58.5Z"/><path d="M37.5,48.5a0.99676,0.99676,0,0,1-.707-0.293l-5-5A0.99989,0.99989,0,0,1,33.207,41.793l5,5A1,1,0,0,1,37.5,48.5Z"/><path d="M42.5,53.5a0.99676,0.99676,0,0,1-.707-0.293l-5-5A0.99989,0.99989,0,0,1,38.207,46.793l5,5A1,1,0,0,1,42.5,53.5Z"/><path d="M52.5,63.5a0.99676,0.99676,0,0,1-.707-0.293l-5-5A0.99989,0.99989,0,0,1,48.207,56.793l5,5A1,1,0,0,1,52.5,63.5Z"/><path d="M47.5,48.5a0.99676,0.99676,0,0,1-.707-0.293l-5-5A0.99989,0.99989,0,0,1,43.207,41.793l5,5A1,1,0,0,1,47.5,48.5Z"/><path d="M61.60938,62.60938a0.99676,0.99676,0,0,1-.707-0.293L56.793,58.207A0.99989,0.99989,0,0,1,58.207,56.793l4.10938,4.10938A1,1,0,0,1,61.60938,62.60938Z"/><path d="M57.5,58.5a0.99676,0.99676,0,0,1-.707-0.293l-5-5A0.99989,0.99989,0,0,1,53.207,51.793l5,5A1,1,0,0,1,57.5,58.5Z"/><path d="M52.5,53.5a0.99676,0.99676,0,0,1-.707-0.293l-5-5A0.99989,0.99989,0,0,1,48.207,46.793l5,5A1,1,0,0,1,52.5,53.5Z"/><path d="M57.5,48.5a0.99676,0.99676,0,0,1-.707-0.293l-5-5A0.99989,0.99989,0,0,1,53.207,41.793l5,5A1,1,0,0,1,57.5,48.5Z"/><path d="M62.5,53.5a0.99676,0.99676,0,0,1-.707-0.293l-5-5A0.99989,0.99989,0,0,1,58.207,46.793l5,5A1,1,0,0,1,62.5,53.5Z"/><path d="M17.5,48.5a0.99676,0.99676,0,0,1-.707-0.293l-5-5A0.99989,0.99989,0,0,1,13.207,41.793l5,5A1,1,0,0,1,17.5,48.5Z"/><path d="M27.5,58.5a0.99676,0.99676,0,0,1-.707-0.293l-5-5A0.99989,0.99989,0,0,1,23.207,51.793l5,5A1,1,0,0,1,27.5,58.5Z"/><path d="M37.5,68.5a0.99676,0.99676,0,0,1-.707-0.293l-5-5A0.99989,0.99989,0,0,1,33.207,61.793l5,5A1,1,0,0,1,37.5,68.5Z"/><path d="M22.5,53.5a0.99676,0.99676,0,0,1-.707-0.293l-5-5A0.99989,0.99989,0,0,1,18.207,46.793l5,5A1,1,0,0,1,22.5,53.5Z"/><path d="M32.5,63.5a0.99676,0.99676,0,0,1-.707-0.293l-5-5A0.99989,0.99989,0,0,1,28.207,56.793l5,5A1,1,0,0,1,32.5,63.5Z"/><path d="M17.5,58.5a0.99676,0.99676,0,0,1-.707-0.293l-5-5A0.99989,0.99989,0,0,1,13.207,51.793l5,5A1,1,0,0,1,17.5,58.5Z"/><path d="M22.5,63.5a0.99676,0.99676,0,0,1-.707-0.293l-5-5A0.99989,0.99989,0,0,1,18.207,56.793l5,5A1,1,0,0,1,22.5,63.5Z"/><path d="M27.5,68.5a0.99676,0.99676,0,0,1-.707-0.293l-5-5A0.99989,0.99989,0,0,1,23.207,61.793l5,5A1,1,0,0,1,27.5,68.5Z"/><path d="M32.5,63.5a1,1,0,0,1-.707-1.707l5-5A0.99989,0.99989,0,0,1,38.207,58.207l-5,5A0.99676,0.99676,0,0,1,32.5,63.5Z"/><path d="M37.5,58.5a1,1,0,0,1-.707-1.707l5-5A0.99989,0.99989,0,0,1,43.207,53.207l-5,5A0.99676,0.99676,0,0,1,37.5,58.5Z"/><path d="M42.5,53.5a1,1,0,0,1-.707-1.707l5-5A0.99989,0.99989,0,0,1,48.207,48.207l-5,5A0.99676,0.99676,0,0,1,42.5,53.5Z"/><path d="M47.5,48.5a1,1,0,0,1-.707-1.707l5-5A0.99989,0.99989,0,0,1,53.207,43.207l-5,5A0.99676,0.99676,0,0,1,47.5,48.5Z"/><path d="M27.5,68.5a1,1,0,0,1-.707-1.707l5-5A0.99989,0.99989,0,0,1,33.207,63.207l-5,5A0.99676,0.99676,0,0,1,27.5,68.5Z"/><path d="M27.5,58.5a1,1,0,0,1-.707-1.707l5-5A0.99989,0.99989,0,0,1,33.207,53.207l-5,5A0.99676,0.99676,0,0,1,27.5,58.5Z"/><path d="M32.5,53.5a1,1,0,0,1-.707-1.707l5-5A0.99989,0.99989,0,0,1,38.207,48.207l-5,5A0.99676,0.99676,0,0,1,32.5,53.5Z"/><path d="M22.5,63.5a1,1,0,0,1-.707-1.707l5-5A0.99989,0.99989,0,0,1,28.207,58.207l-5,5A0.99676,0.99676,0,0,1,22.5,63.5Z"/><path d="M18.39063,67.60938a1,1,0,0,1-.707-1.707L21.793,61.793A0.99989,0.99989,0,0,1,23.207,63.207l-4.10937,4.10938A0.99676,0.99676,0,0,1,18.39063,67.60938Z"/><path d="M37.5,48.5a1,1,0,0,1-.707-1.707l5-5A0.99989,0.99989,0,0,1,43.207,43.207l-5,5A0.99676,0.99676,0,0,1,37.5,48.5Z"/><path d="M13.39063,62.60938a1,1,0,0,1-.707-1.707L16.793,56.793A0.99989,0.99989,0,0,1,18.207,58.207l-4.10937,4.10938A0.99676,0.99676,0,0,1,13.39063,62.60938Z"/><path d="M17.5,58.5a1,1,0,0,1-.707-1.707l5-5A0.99989,0.99989,0,0,1,23.207,53.207l-5,5A0.99676,0.99676,0,0,1,17.5,58.5Z"/><path d="M27.5,48.5a1,1,0,0,1-.707-1.707l5-5A0.99989,0.99989,0,0,1,33.207,43.207l-5,5A0.99676,0.99676,0,0,1,27.5,48.5Z"/><path d="M22.5,53.5a1,1,0,0,1-.707-1.707l5-5A0.99989,0.99989,0,0,1,28.207,48.207l-5,5A0.99676,0.99676,0,0,1,22.5,53.5Z"/><path d="M12.5,53.5a1,1,0,0,1-.707-1.707l5-5A0.99989,0.99989,0,0,1,18.207,48.207l-5,5A0.99676,0.99676,0,0,1,12.5,53.5Z"/><path d="M17.5,48.5a1,1,0,0,1-.707-1.707l5-5A0.99989,0.99989,0,0,1,23.207,43.207l-5,5A0.99676,0.99676,0,0,1,17.5,48.5Z"/><path d="M57.5,48.5a1,1,0,0,1-.707-1.707l5-5A0.99989,0.99989,0,0,1,63.207,43.207l-5,5A0.99676,0.99676,0,0,1,57.5,48.5Z"/><path d="M37.5,68.5a1,1,0,0,1-.707-1.707l5-5A0.99989,0.99989,0,0,1,43.207,63.207l-5,5A0.99676,0.99676,0,0,1,37.5,68.5Z"/><path d="M42.5,63.5a1,1,0,0,1-.707-1.707l5-5A0.99989,0.99989,0,0,1,48.207,58.207l-5,5A0.99676,0.99676,0,0,1,42.5,63.5Z"/><path d="M47.5,58.5a1,1,0,0,1-.707-1.707l5-5A0.99989,0.99989,0,0,1,53.207,53.207l-5,5A0.99676,0.99676,0,0,1,47.5,58.5Z"/><path d="M52.5,53.5a1,1,0,0,1-.707-1.707l5-5A0.99989,0.99989,0,0,1,58.207,48.207l-5,5A0.99676,0.99676,0,0,1,52.5,53.5Z"/><path d="M57.5,58.5a1,1,0,0,1-.707-1.707l5-5A0.99989,0.99989,0,0,1,63.207,53.207l-5,5A0.99676,0.99676,0,0,1,57.5,58.5Z"/><path d="M47.5,68.5a1,1,0,0,1-.707-1.707l5-5A0.99989,0.99989,0,0,1,53.207,63.207l-5,5A0.99676,0.99676,0,0,1,47.5,68.5Z"/><path d="M52.5,63.5a1,1,0,0,1-.707-1.707l5-5A0.99989,0.99989,0,0,1,58.207,58.207l-5,5A0.99676,0.99676,0,0,1,52.5,63.5Z"/></svg>