<svg id="Elements" xmlns="http://www.w3.org/2000/svg" viewBox="0 0 75 75"><title>alo_service</title><path d="M37.5,18.5A3.5,3.5,0,1,1,41,15,3.50425,3.50425,0,0,1,37.5,18.5Zm0-5A1.5,1.5,0,1,0,39,15,1.50164,1.50164,0,0,0,37.5,13.5Z"/><path d="M50,23.5H25a0.99974,0.99974,0,0,1-1-1v-5A3.50425,3.50425,0,0,1,27.5,14h1.55859a8.50049,8.50049,0,0,1,16.88281,0H47.5A3.50425,3.50425,0,0,1,51,17.5v5A0.99974,0.99974,0,0,1,50,23.5Zm-24-2H49v-4A1.50164,1.50164,0,0,0,47.5,16H45a0.99974,0.99974,0,0,1-1-1,6.5,6.5,0,0,0-13,0,0.99974,0.99974,0,0,1-1,1H27.5A1.50164,1.50164,0,0,0,26,17.5v4ZM46,15h0Z"/><path d="M52.5,43.5h-20a1,1,0,0,1,0-2h20A1,1,0,0,1,52.5,43.5Z"/><path d="M20.5,46.76758a0.99676,0.99676,0,0,1-.707-0.293l-2.53564-2.53516a0.99989,0.99989,0,0,1,1.41406-1.41406L20.5,44.35352l5.82861-5.82812a0.99989,0.99989,0,0,1,1.41406,1.41406L21.207,46.47461A0.99676,0.99676,0,0,1,20.5,46.76758Z"/><path d="M52.5,33.5h-20a1,1,0,0,1,0-2h20A1,1,0,0,1,52.5,33.5Z"/><path d="M20.5,36.76758a0.99676,0.99676,0,0,1-.707-0.293l-2.53564-2.53516a0.99989,0.99989,0,0,1,1.41406-1.41406L20.5,34.35352l5.82861-5.82813a0.99989,0.99989,0,0,1,1.41406,1.41406L21.207,36.47461A0.99676,0.99676,0,0,1,20.5,36.76758Z"/><path d="M52.5,53.5h-20a1,1,0,0,1,0-2h20A1,1,0,0,1,52.5,53.5Z"/><path d="M20.5,56.76758a0.99676,0.99676,0,0,1-.707-0.293l-2.53564-2.53516a0.99989,0.99989,0,0,1,1.41406-1.41406L20.5,54.35352l5.82861-5.82812a0.99989,0.99989,0,0,1,1.41406,1.41406L21.207,56.47461A0.99676,0.99676,0,0,1,20.5,56.76758Z"/><path d="M57.5,68.5h-40a6.00656,6.00656,0,0,1-6-6v-40a6.00656,6.00656,0,0,1,6-6H25a1,1,0,0,1,0,2H17.5a4.00427,4.00427,0,0,0-4,4v40a4.00427,4.00427,0,0,0,4,4h40a4.00427,4.00427,0,0,0,4-4v-40a4.00427,4.00427,0,0,0-4-4H50a1,1,0,0,1,0-2h7.5a6.00656,6.00656,0,0,1,6,6v40A6.00656,6.00656,0,0,1,57.5,68.5Z"/></svg>