<svg xmlns="http://www.w3.org/2000/svg" viewBox="0 0 160 160"><title>alo_icon_system_upcoming-large</title><path d="M132.333,74.9585H93.083a1.5,1.5,0,0,1,0-3h39.25a1.5,1.5,0,0,1,0,3Z"/><path d="M80,61.875a1.50007,1.50007,0,0,1-1.5-1.5V21.125a1.5,1.5,0,0,1,3,0v39.25A1.50007,1.50007,0,0,1,80,61.875Z"/><path d="M99.625,74.9585a1.50007,1.50007,0,0,1-1.5-1.5V8.0415a1.5,1.5,0,0,1,3,0v65.417A1.50007,1.50007,0,0,1,99.625,74.9585Z"/><path d="M112.708,74.9585a1.50007,1.50007,0,0,1-1.5-1.5V8.0415a1.5,1.5,0,0,1,3,0v65.417A1.50007,1.50007,0,0,1,112.708,74.9585Z"/><path d="M40.75,48.7915H14.583a1.5,1.5,0,1,1,0-3H40.75a1.5,1.5,0,0,1,0,3Z"/><path d="M40.75,35.7085H14.583a1.5,1.5,0,1,1,0-3H40.75a1.5,1.5,0,0,1,0,3Z"/><path d="M14.583,61.875H1.5a1.5,1.5,0,0,1,0-3H14.583a1.5,1.5,0,1,1,0,3Z"/><path d="M14.583,22.625H1.5a1.5,1.5,0,0,1,0-3H14.583a1.5,1.5,0,1,1,0,3Z"/><path d="M1.5,61.875a1.50007,1.50007,0,0,1-1.5-1.5V21.125a1.5,1.5,0,0,1,3,0v39.25A1.50007,1.50007,0,0,1,1.5,61.875Z"/><path d="M14.583,61.875a1.50007,1.50007,0,0,1-1.5-1.5V21.125a1.5,1.5,0,0,1,3,0v39.25A1.50007,1.50007,0,0,1,14.583,61.875Z"/><path d="M40.75,61.875a1.50007,1.50007,0,0,1-1.5-1.5V21.125a1.5,1.5,0,0,1,3,0v39.25A1.50007,1.50007,0,0,1,40.75,61.875Z"/><path d="M80,61.875H40.75a1.5,1.5,0,0,1,0-3H80a1.5,1.5,0,0,1,0,3Z"/><path d="M80,22.625H40.75a1.5,1.5,0,0,1,0-3H80a1.5,1.5,0,0,1,0,3Z"/><path d="M132.333,81.5a1.50007,1.50007,0,0,1-1.5-1.5V1.5a1.5,1.5,0,0,1,3,0V80A1.50007,1.50007,0,0,1,132.333,81.5Z"/><path d="M145.417,29.1665H132.333a1.5,1.5,0,0,1,0-3h13.084a1.5,1.5,0,0,1,0,3Z"/><path d="M145.417,42.25H132.333a1.5,1.5,0,0,1,0-3h13.084a1.5,1.5,0,0,1,0,3Z"/><path d="M145.417,55.3335H132.333a1.5,1.5,0,0,1,0-3h13.084a1.5,1.5,0,0,1,0,3Z"/><path d="M145.417,3H132.333a1.5,1.5,0,0,1,0-3h13.084a1.5,1.5,0,0,1,0,3Z"/><path d="M145.417,81.5H132.333a1.5,1.5,0,0,1,0-3h13.084a1.5,1.5,0,0,1,0,3Z"/><path d="M145.417,81.5a1.50007,1.50007,0,0,1-1.5-1.5V1.5a1.5,1.5,0,0,1,3,0V80A1.50007,1.50007,0,0,1,145.417,81.5Z"/><path d="M93.083,74.9585A14.59973,14.59973,0,0,1,78.5,60.375a1.5,1.5,0,0,1,3,0A11.59645,11.59645,0,0,0,93.083,71.9585a1.5,1.5,0,0,1,0,3Z"/><path d="M132.333,9.5415H93.083a1.5,1.5,0,1,1,0-3h39.25a1.5,1.5,0,0,1,0,3Z"/><path d="M80,22.625a1.50007,1.50007,0,0,1-1.5-1.5A14.59973,14.59973,0,0,1,93.083,6.5415a1.5,1.5,0,0,1,0,3A11.59645,11.59645,0,0,0,81.5,21.125,1.50007,1.50007,0,0,1,80,22.625Z"/><path d="M145.418,71.44678a1.50045,1.50045,0,0,1-1.00293-2.6167,37.61919,37.61919,0,0,0,0-56.16016,1.50031,1.50031,0,0,1,2.00391-2.2334,40.621,40.621,0,0,1,0,60.627A1.49619,1.49619,0,0,1,145.418,71.44678Z"/><path d="M60.375,160a1.50039,1.50039,0,0,1-1.5-1.5V60.375a1.5,1.5,0,0,1,3,0V158.5A1.50039,1.50039,0,0,1,60.375,160Z"/><path d="M112.709,160a1.49856,1.49856,0,0,1-1.32422-.79395l-52.333-98.125a1.49983,1.49983,0,1,1,2.64648-1.41211l52.333,98.125A1.50012,1.50012,0,0,1,112.709,160Z"/><path d="M8.041,160a1.50012,1.50012,0,0,1-1.32227-2.20605l52.333-98.125a1.49983,1.49983,0,1,1,2.64648,1.41211l-52.333,98.125A1.49856,1.49856,0,0,1,8.041,160Z"/></svg>