<svg id="Elements" xmlns="http://www.w3.org/2000/svg" viewBox="0 0 75 75"><title>alo_service</title><path d="M37.5,63.5a26,26,0,1,1,26-26A26.02916,26.02916,0,0,1,37.5,63.5Zm0-50a24,24,0,1,0,24,24A24.0275,24.0275,0,0,0,37.5,13.5Z"/><path d="M37.5,58.5a21,21,0,1,1,21-21A21.0239,21.0239,0,0,1,37.5,58.5Zm0-40a19,19,0,1,0,19,19A19.02161,19.02161,0,0,0,37.5,18.5Z"/><path d="M37.5,43.5a6,6,0,1,1,6-6A6.00656,6.00656,0,0,1,37.5,43.5Zm0-10a4,4,0,1,0,4,4A4.00427,4.00427,0,0,0,37.5,33.5Z"/><path d="M35,58.32715a0.99974,0.99974,0,0,1-1-1v-13.792a1,1,0,0,1,2,0v13.792A0.99974,0.99974,0,0,1,35,58.32715Z"/><path d="M35,32.46436a0.99974,0.99974,0,0,1-1-1v-13.792a1,1,0,0,1,2,0v13.792A0.99974,0.99974,0,0,1,35,32.46436Z"/><path d="M40,68.5H35a0.99974,0.99974,0,0,1-1-1V62.375a1,1,0,0,1,2,0V66.5h3V62.375a1,1,0,0,1,2,0V67.5A0.99974,0.99974,0,0,1,40,68.5Z"/><path d="M40,13.62451a0.99974,0.99974,0,0,1-1-1V8.5H36v4.12451a1,1,0,1,1-2,0V7.5a0.99974,0.99974,0,0,1,1-1h5a0.99974,0.99974,0,0,1,1,1v5.12451A0.99974,0.99974,0,0,1,40,13.62451Z"/><path d="M40,32.46436a0.99974,0.99974,0,0,1-1-1v-13.792a1,1,0,0,1,2,0v13.792A0.99974,0.99974,0,0,1,40,32.46436Z"/><path d="M40,58.32715a0.99974,0.99974,0,0,1-1-1v-13.792a1,1,0,0,1,2,0v13.792A0.99974,0.99974,0,0,1,40,58.32715Z"/><path d="M43.53516,36a1,1,0,0,1-.707-1.707l9.75-9.75049a0.99989,0.99989,0,0,1,1.41406,1.41406l-9.75,9.75049A0.99676,0.99676,0,0,1,43.53516,36Z"/><path d="M40,32.46436a1,1,0,0,1-.707-1.707l9.75-9.75049A0.99989,0.99989,0,0,1,50.457,22.4209l-9.75,9.75049A0.99676,0.99676,0,0,1,40,32.46436Z"/><path d="M56.85547,22.67969a1,1,0,0,1-.707-1.707l2.918-2.91846-2.12109-2.12109-2.918,2.918A0.99989,0.99989,0,0,1,52.61328,17.437l3.625-3.625a0.99964,0.99964,0,0,1,1.41406,0l3.53516,3.53516a0.99964,0.99964,0,0,1,0,1.41406l-3.625,3.62549A0.99676,0.99676,0,0,1,56.85547,22.67969Z"/><path d="M18.05469,61.481a0.99676,0.99676,0,0,1-.707-0.293l-3.53613-3.53564a0.99964,0.99964,0,0,1,0-1.41406l3.626-3.62549a0.99989,0.99989,0,0,1,1.41406,1.41406l-2.91895,2.91846,2.12207,2.12158,2.918-2.91846a0.99989,0.99989,0,0,1,1.41406,1.41406l-3.625,3.62549A0.99676,0.99676,0,0,1,18.05469,61.481Z"/><path d="M21.71387,50.75a1,1,0,0,1-.707-1.707l9.75-9.75A0.99989,0.99989,0,1,1,32.1709,40.707l-9.75,9.75A0.99676,0.99676,0,0,1,21.71387,50.75Z"/><path d="M25.25,54.28564a1,1,0,0,1-.707-1.707l9.75-9.75049A0.99989,0.99989,0,0,1,35.707,44.24219l-9.75,9.75049A0.99676,0.99676,0,0,1,25.25,54.28564Z"/><path d="M67.5,41H62.375a1,1,0,0,1,0-2H66.5V36H62.375a1,1,0,0,1,0-2H67.5a0.99974,0.99974,0,0,1,1,1v5A0.99974,0.99974,0,0,1,67.5,41Z"/><path d="M12.625,41H7.5a0.99974,0.99974,0,0,1-1-1V35a0.99974,0.99974,0,0,1,1-1h5.125a1,1,0,0,1,0,2H8.5v3h4.125A1,1,0,0,1,12.625,41Z"/><path d="M57.32715,36h-13.792a1,1,0,0,1,0-2h13.792A1,1,0,0,1,57.32715,36Z"/><path d="M31.46387,41h-13.791a1,1,0,1,1,0-2h13.791A1,1,0,1,1,31.46387,41Z"/><path d="M57.32715,41h-13.792a1,1,0,0,1,0-2h13.792A1,1,0,0,1,57.32715,41Z"/><path d="M31.46387,36h-13.791a1,1,0,1,1,0-2h13.791A1,1,0,1,1,31.46387,36Z"/><path d="M18.14453,22.67969a0.99676,0.99676,0,0,1-.707-0.293l-3.626-3.62549a0.99964,0.99964,0,0,1,0-1.41406L17.34766,13.812a0.99964,0.99964,0,0,1,1.41406,0l3.625,3.625a0.99989,0.99989,0,0,1-1.41406,1.41406l-2.918-2.918L15.93262,18.0542l2.91895,2.91846A1,1,0,0,1,18.14453,22.67969Z"/><path d="M56.94531,61.481a0.99928,0.99928,0,0,1-.707-0.293l-3.625-3.62549a0.99989,0.99989,0,0,1,1.41406-1.41406l2.918,2.918,2.12109-2.12109-2.918-2.91846a0.99989,0.99989,0,0,1,1.41406-1.41406l3.625,3.62549a0.99964,0.99964,0,0,1,0,1.41406L57.65234,61.188A0.99928,0.99928,0,0,1,56.94531,61.481Z"/><path d="M31.46387,36a0.99676,0.99676,0,0,1-.707-0.293l-9.75-9.75049a0.99989,0.99989,0,0,1,1.41406-1.41406l9.75,9.75049A1,1,0,0,1,31.46387,36Z"/><path d="M35,32.46436a0.99676,0.99676,0,0,1-.707-0.293l-9.75-9.75049A0.99989,0.99989,0,0,1,25.957,21.00684l9.75,9.75049A1,1,0,0,1,35,32.46436Z"/><path d="M53.28516,50.75a0.99676,0.99676,0,0,1-.707-0.293l-9.75-9.75A0.99989,0.99989,0,0,1,44.24219,39.293l9.75,9.75A1,1,0,0,1,53.28516,50.75Z"/><path d="M49.75,54.28564a0.99676,0.99676,0,0,1-.707-0.293l-9.75-9.75049A0.99989,0.99989,0,0,1,40.707,42.82813l9.75,9.75049A1,1,0,0,1,49.75,54.28564Z"/></svg>