<svg id="Elements" xmlns="http://www.w3.org/2000/svg" viewBox="0 0 75 75"><title>alo_service</title><path d="M47.49951,18.5a6,6,0,1,1,6-6A6.00656,6.00656,0,0,1,47.49951,18.5Zm0-10a4,4,0,1,0,4,4A4.00458,4.00458,0,0,0,47.49951,8.5Z"/><path d="M27.49951,18.5a6,6,0,1,1,6-6A6.00656,6.00656,0,0,1,27.49951,18.5Zm0-10a4,4,0,1,0,4,4A4.00458,4.00458,0,0,0,27.49951,8.5Z"/><path d="M55,68.5A3.50425,3.50425,0,0,1,51.5,65V43.5h-3V65a3.5,3.5,0,0,1-7,0V28.5h-8V65a3.5,3.5,0,0,1-7,0V43.5h-3V65a3.5,3.5,0,0,1-7,0V28.5H10a3.5,3.5,0,0,1,0-7H65a3.5,3.5,0,0,1,0,7H58.5V65A3.50425,3.50425,0,0,1,55,68.5Zm-7.5-27h5a1,1,0,0,1,1,1V65a1.5,1.5,0,0,0,3,0V27.5a1,1,0,0,1,1-1H65a1.5,1.5,0,0,0,0-3H10a1.5,1.5,0,0,0,0,3h7.5a1,1,0,0,1,1,1V65a1.5,1.5,0,0,0,3,0V42.5a1,1,0,0,1,1-1h5a1,1,0,0,1,1,1V65a1.5,1.5,0,0,0,3,0V27.5a1,1,0,0,1,1-1h10a1,1,0,0,1,1,1V65a1.5,1.5,0,0,0,3,0V42.5A1,1,0,0,1,47.5,41.5Z"/></svg>