<svg xmlns="http://www.w3.org/2000/svg" viewBox="0 0 133.83301 160"><title>alo_icon_system_position-large</title><path d="M106.165,81.5a1.50029,1.50029,0,0,1-1.46924-1.20605L91.6123,14.87744a1.49979,1.49979,0,0,1,2.94141-.58789l13.0835,65.4165a1.49941,1.49941,0,0,1-1.17676,1.76465A1.45678,1.45678,0,0,1,106.165,81.5Z"/><path d="M27.668,81.5a1.45337,1.45337,0,0,1-.29541-.0293,1.49941,1.49941,0,0,1-1.17676-1.76465l13.0835-65.4165a1.49979,1.49979,0,1,1,2.94141.58789l-13.0835,65.4165A1.50029,1.50029,0,0,1,27.668,81.5Z"/><path d="M40.75146,70.59766a1.503,1.503,0,0,1-1.47217-1.79443l8.72217-43.61084a1.49979,1.49979,0,0,1,2.94141.58789L42.2207,69.39111A1.50024,1.50024,0,0,1,40.75146,70.59766Z"/><path d="M66.91455,160a1.50027,1.50027,0,0,1-1.49072-1.35059l-5.2334-52.333a1.50014,1.50014,0,0,1,2.98535-.29883l5.2334,52.333a1.49961,1.49961,0,0,1-1.34326,1.6416A1.31537,1.31537,0,0,1,66.91455,160Z"/><path d="M66.91846,160a1.31537,1.31537,0,0,1-.15137-.00781,1.49961,1.49961,0,0,1-1.34326-1.6416l5.2334-52.333a1.50014,1.50014,0,0,1,2.98535.29883l-5.2334,52.333A1.50027,1.50027,0,0,1,66.91846,160Z"/><path d="M99.625,16.0835H34.208A8.04175,8.04175,0,0,1,34.208,0H99.625a8.04175,8.04175,0,0,1,0,16.0835ZM34.208,3a5.04175,5.04175,0,0,0,0,10.0835H99.625A5.04175,5.04175,0,0,0,99.625,3Z"/><path d="M132.333,107.667H1.5a1.50007,1.50007,0,0,1-1.5-1.5A27.69793,27.69793,0,0,1,27.6665,78.5h78.5a27.69793,27.69793,0,0,1,27.6665,27.667A1.50007,1.50007,0,0,1,132.333,107.667Zm-129.28809-3H130.78809A24.69959,24.69959,0,0,0,106.1665,81.5h-78.5A24.69959,24.69959,0,0,0,3.04492,104.667Z"/></svg>