<svg xmlns="http://www.w3.org/2000/svg" viewBox="0 0 160 160"><title>alo_icon_system_email-large</title><path d="M79.498,119.65137a40.75,40.75,0,1,1,40.75-40.75A40.796,40.796,0,0,1,79.498,119.65137Zm0-78.5a37.75,37.75,0,1,0,37.75,37.75A37.79274,37.79274,0,0,0,79.498,41.15137Z"/><path d="M118.748,92.00146a1.50007,1.50007,0,0,1-1.5-1.5V39.65137a1.5,1.5,0,1,1,3,0v50.8501A1.50007,1.50007,0,0,1,118.748,92.00146Z"/><path d="M80,160A80.02058,80.02058,0,0,1,48.86035,6.28711,79.97681,79.97681,0,0,1,160,80a1.5,1.5,0,0,1-3,0A77.01986,77.01986,0,0,0,9.05078,50.02881,77.04418,77.04418,0,0,0,109.97168,150.9502a1.49972,1.49972,0,1,1,1.168,2.7627A79.49,79.49,0,0,1,80,160Z"/><path d="M123.36914,101.70215a1.49514,1.49514,0,0,1-1.06055-.43945,15.11756,15.11756,0,0,1-4.458-10.76123,1.5,1.5,0,1,1,3,0,12.14092,12.14092,0,0,0,3.5791,8.64014,1.5,1.5,0,0,1-1.06055,2.56055Z"/><path d="M135.49512,106.7251a18.52591,18.52591,0,0,1-13.18652-5.4624,1.49984,1.49984,0,1,1,2.12109-2.12109,15.54808,15.54808,0,0,0,11.06543,4.5835,1.5,1.5,0,0,1,0,3Z"/><path d="M135.49512,106.7251a1.5,1.5,0,0,1,0-3,19.80613,19.80613,0,0,0,14.09668-5.83887,1.49984,1.49984,0,0,1,2.12109,2.12109A22.78564,22.78564,0,0,1,135.49512,106.7251Z"/><path d="M150.65234,100.44678a1.5,1.5,0,0,1-1.06055-2.56055A25.1306,25.1306,0,0,0,157,80a1.5,1.5,0,0,1,3,0,28.11129,28.11129,0,0,1-8.28711,20.00732A1.49514,1.49514,0,0,1,150.65234,100.44678Z"/></svg>