<svg xmlns="http://www.w3.org/2000/svg" viewBox="0 0 160 160"><title>alo_service-views-large</title><path d="M106.167,160a27.66675,27.66675,0,1,1,27.666-27.6665A27.69793,27.69793,0,0,1,106.167,160Zm0-52.3335a24.66675,24.66675,0,1,0,24.666,24.667A24.69475,24.69475,0,0,0,106.167,107.6665Z"/><path d="M27.667,160a27.66675,27.66675,0,1,1,27.666-27.6665A27.69793,27.69793,0,0,1,27.667,160Zm0-52.3335a24.66675,24.66675,0,1,0,24.666,24.667A24.69475,24.69475,0,0,0,27.667,107.6665Z"/><path d="M80,133.8335a1.50007,1.50007,0,0,1-1.5-1.5,11.5835,11.5835,0,1,0-23.167,0,1.5,1.5,0,0,1-3,0,14.5835,14.5835,0,1,1,29.167,0A1.50007,1.50007,0,0,1,80,133.8335Z"/><path d="M1.5,133.8335a1.50007,1.50007,0,0,1-1.5-1.5v-39.25a14.5835,14.5835,0,1,1,29.167,0,1.5,1.5,0,0,1-3,0,11.5835,11.5835,0,1,0-23.167,0v39.25A1.50007,1.50007,0,0,1,1.5,133.8335Z"/><path d="M132.333,133.8335a1.50007,1.50007,0,0,1-1.5-1.5v-39.25a14.5835,14.5835,0,0,1,29.167,0,1.5,1.5,0,0,1-3,0,11.5835,11.5835,0,1,0-23.167,0v39.25A1.50007,1.50007,0,0,1,132.333,133.8335Z"/><path d="M158.5,68.4165H106.167a1.50007,1.50007,0,0,1-1.5-1.5v-39.25a1.50007,1.50007,0,0,1,1.5-1.5H158.5a1.50007,1.50007,0,0,1,1.5,1.5v39.25A1.50007,1.50007,0,0,1,158.5,68.4165Zm-50.833-3H157v-36.25H107.667Z"/><path d="M80,68.4165H27.667a1.50007,1.50007,0,0,1-1.5-1.5v-39.25a1.50007,1.50007,0,0,1,1.5-1.5H80a1.50007,1.50007,0,0,1,1.5,1.5v39.25A1.50007,1.50007,0,0,1,80,68.4165Zm-50.833-3H78.5v-36.25H29.167Z"/><path d="M106.167,42.25H80a1.5,1.5,0,0,1,0-3h26.167a1.5,1.5,0,0,1,0,3Z"/><path d="M158.5,3H132.333a1.5,1.5,0,0,1,0-3H158.5a1.5,1.5,0,0,1,0,3Z"/><path d="M27.667,3H1.5a1.5,1.5,0,0,1,0-3H27.667a1.5,1.5,0,0,1,0,3Z"/><path d="M158.5,29.1665a1.50007,1.50007,0,0,1-1.5-1.5V1.5a1.5,1.5,0,0,1,3,0V27.6665A1.50007,1.50007,0,0,1,158.5,29.1665Z"/><path d="M27.667,29.1665a1.50007,1.50007,0,0,1-1.5-1.5V1.5a1.5,1.5,0,0,1,3,0V27.6665A1.50007,1.50007,0,0,1,27.667,29.1665Z"/><path d="M1.5,16.0835a1.50007,1.50007,0,0,1-1.5-1.5V1.5a1.5,1.5,0,0,1,3,0V14.5835A1.50007,1.50007,0,0,1,1.5,16.0835Z"/><path d="M132.333,14.7749a1.50007,1.50007,0,0,1-1.5-1.5V1.5a1.5,1.5,0,0,1,3,0V13.2749A1.50007,1.50007,0,0,1,132.333,14.7749Z"/><path d="M5.14355,147.105A1.5,1.5,0,0,1,4.083,144.54443l8.64648-8.646a1.49984,1.49984,0,1,1,2.12109,2.12109l-8.64648,8.646A1.49514,1.49514,0,0,1,5.14355,147.105Z"/><path d="M14.39453,156.35645A1.5,1.5,0,0,1,13.334,153.7959l17.89746-17.89746a1.49984,1.49984,0,1,1,2.12109,2.12109L15.45508,155.917A1.49514,1.49514,0,0,1,14.39453,156.35645Z"/><path d="M83.64355,147.105a1.5,1.5,0,0,1-1.06055-2.56055l8.64648-8.646a1.49984,1.49984,0,1,1,2.12109,2.12109l-8.64648,8.646A1.49514,1.49514,0,0,1,83.64355,147.105Z"/><path d="M92.89453,156.35645A1.5,1.5,0,0,1,91.834,153.7959l17.89746-17.89746a1.49984,1.49984,0,1,1,2.12109,2.12109L93.95508,155.917A1.49514,1.49514,0,0,1,92.89453,156.35645Z"/><path d="M27.668,59.01367a1.50021,1.50021,0,0,1-.90137-2.7002l8.458-6.34375a1.50039,1.50039,0,0,1,1.80078,2.40039l-8.458,6.34375A1.497,1.497,0,0,1,27.668,59.01367Z"/><path d="M36.498,68.4165a1.50021,1.50021,0,0,1-.90137-2.7002l19.999-14.999a1.50039,1.50039,0,0,1,1.80078,2.40039l-19.999,14.999A1.497,1.497,0,0,1,36.498,68.4165Z"/><path d="M106.168,59.01367a1.50021,1.50021,0,0,1-.90137-2.7002l8.458-6.34375a1.50039,1.50039,0,0,1,1.80078,2.40039l-8.458,6.34375A1.497,1.497,0,0,1,106.168,59.01367Z"/><path d="M114.998,68.4165a1.50021,1.50021,0,0,1-.90137-2.7002l19.999-14.999a1.50039,1.50039,0,0,1,1.80078,2.40039l-19.999,14.999A1.497,1.497,0,0,1,114.998,68.4165Z"/></svg>