<svg xmlns="http://www.w3.org/2000/svg" viewBox="0 0 160 160"><title>alo_icon_system_navigation-large</title><path d="M80,146.9165A66.91675,66.91675,0,1,1,146.917,80,66.99231,66.99231,0,0,1,80,146.9165ZM80,16.083A63.91675,63.91675,0,1,0,143.917,80,63.98914,63.98914,0,0,0,80,16.083Z"/><path d="M80,133.833A53.83325,53.83325,0,1,1,133.833,80,53.894,53.894,0,0,1,80,133.833ZM80,29.1665A50.83325,50.83325,0,1,0,130.833,80,50.89084,50.89084,0,0,0,80,29.1665Z"/><path d="M80,94.583A14.58325,14.58325,0,1,1,94.583,80,14.59963,14.59963,0,0,1,80,94.583Zm0-26.1665A11.58325,11.58325,0,1,0,91.583,80,11.59645,11.59645,0,0,0,80,68.4165Z"/><path d="M73.458,133.38086a1.50007,1.50007,0,0,1-1.5-1.5V95.79248a1.5,1.5,0,0,1,3,0v36.08838A1.50007,1.50007,0,0,1,73.458,133.38086Z"/><path d="M73.458,65.70654a1.50007,1.50007,0,0,1-1.5-1.5V28.11816a1.5,1.5,0,1,1,3,0V64.20654A1.50007,1.50007,0,0,1,73.458,65.70654Z"/><path d="M86.542,160H73.458a1.50007,1.50007,0,0,1-1.5-1.5V145.09033a1.5,1.5,0,0,1,3,0V157H85.042V145.09033a1.5,1.5,0,0,1,3,0V158.5A1.50007,1.50007,0,0,1,86.542,160Z"/><path d="M86.542,16.40967a1.50007,1.50007,0,0,1-1.5-1.5V3H74.958V14.90967a1.5,1.5,0,1,1-3,0V1.5a1.50007,1.50007,0,0,1,1.5-1.5H86.542a1.50007,1.50007,0,0,1,1.5,1.5V14.90967A1.50007,1.50007,0,0,1,86.542,16.40967Z"/><path d="M86.542,65.70654a1.50007,1.50007,0,0,1-1.5-1.5V28.11816a1.5,1.5,0,1,1,3,0V64.20654A1.50007,1.50007,0,0,1,86.542,65.70654Z"/><path d="M86.542,133.38086a1.50007,1.50007,0,0,1-1.5-1.5V95.79248a1.5,1.5,0,0,1,3,0v36.08838A1.50007,1.50007,0,0,1,86.542,133.38086Z"/><path d="M95.793,74.9585a1.5,1.5,0,0,1-1.06055-2.56055l25.5127-25.51318a1.49984,1.49984,0,0,1,2.12109,2.12109L96.85352,74.519A1.49514,1.49514,0,0,1,95.793,74.9585Z"/><path d="M86.542,65.70654A1.5,1.5,0,0,1,85.48145,63.146l25.51172-25.51318a1.49984,1.49984,0,1,1,2.12109,2.12109L87.60254,65.26709A1.49514,1.49514,0,0,1,86.542,65.70654Z"/><path d="M130.64648,40.10352a1.5,1.5,0,0,1-1.06055-2.56055l8.42676-8.42529-7.13086-7.12988-8.4248,8.42529a1.49984,1.49984,0,0,1-2.12109-2.12109l9.48535-9.48584a1.49945,1.49945,0,0,1,2.12109,0l9.252,9.251a1.49945,1.49945,0,0,1,0,2.12109l-9.4873,9.48584A1.49514,1.49514,0,0,1,130.64648,40.10352Z"/><path d="M29.11816,141.6333a1.49514,1.49514,0,0,1-1.06055-.43945l-9.252-9.25146a1.49945,1.49945,0,0,1,0-2.12109l9.4873-9.48584a1.49984,1.49984,0,1,1,2.12109,2.12109l-8.42676,8.42529,7.13086,7.13037,8.4248-8.42529a1.49984,1.49984,0,1,1,2.12109,2.12109l-9.48535,9.48584A1.49514,1.49514,0,0,1,29.11816,141.6333Z"/><path d="M38.69434,113.55469a1.5,1.5,0,0,1-1.06055-2.56055L63.14648,85.481a1.49984,1.49984,0,1,1,2.12109,2.12109l-25.5127,25.51318A1.49514,1.49514,0,0,1,38.69434,113.55469Z"/><path d="M47.94629,122.80566a1.5,1.5,0,0,1-1.06055-2.56055L72.39746,94.73193A1.49984,1.49984,0,0,1,74.51855,96.853L49.00684,122.36621A1.49514,1.49514,0,0,1,47.94629,122.80566Z"/><path d="M158.5,88.0415H145.08984a1.5,1.5,0,0,1,0-3H157V74.9585H145.08984a1.5,1.5,0,0,1,0-3H158.5a1.50007,1.50007,0,0,1,1.5,1.5v13.083A1.50007,1.50007,0,0,1,158.5,88.0415Z"/><path d="M14.91016,88.0415H1.5a1.50007,1.50007,0,0,1-1.5-1.5V73.4585a1.50007,1.50007,0,0,1,1.5-1.5H14.91016a1.5,1.5,0,0,1,0,3H3v10.083H14.91016a1.5,1.5,0,0,1,0,3Z"/><path d="M131.88086,74.9585H95.793a1.5,1.5,0,0,1,0-3h36.08789a1.5,1.5,0,0,1,0,3Z"/><path d="M64.207,88.0415H28.11914a1.5,1.5,0,1,1,0-3H64.207a1.5,1.5,0,0,1,0,3Z"/><path d="M131.88086,88.0415H95.793a1.5,1.5,0,0,1,0-3h36.08789a1.5,1.5,0,0,1,0,3Z"/><path d="M64.207,74.9585H28.11914a1.5,1.5,0,1,1,0-3H64.207a1.5,1.5,0,0,1,0,3Z"/><path d="M29.35352,40.10352a1.49514,1.49514,0,0,1-1.06055-.43945l-9.4873-9.48584a1.49945,1.49945,0,0,1,0-2.12109l9.252-9.251a1.49945,1.49945,0,0,1,2.12109,0L39.66406,28.292A1.49984,1.49984,0,0,1,37.543,30.41309l-8.4248-8.42529L21.9873,29.11768,30.41406,37.543a1.5,1.5,0,0,1-1.06055,2.56055Z"/><path d="M130.88184,141.6333a1.49514,1.49514,0,0,1-1.06055-.43945l-9.48535-9.48584a1.49984,1.49984,0,1,1,2.12109-2.12109l8.4248,8.42529,7.13086-7.13037-8.42676-8.42529a1.49984,1.49984,0,1,1,2.12109-2.12109l9.4873,9.48584a1.49945,1.49945,0,0,1,0,2.12109l-9.252,9.25146A1.49514,1.49514,0,0,1,130.88184,141.6333Z"/><path d="M64.207,74.9585a1.49514,1.49514,0,0,1-1.06055-.43945L37.63379,49.00586a1.49984,1.49984,0,0,1,2.12109-2.12109l25.5127,25.51318A1.5,1.5,0,0,1,64.207,74.9585Z"/><path d="M73.458,65.70654a1.49514,1.49514,0,0,1-1.06055-.43945L46.88574,39.75391a1.49984,1.49984,0,0,1,2.12109-2.12109L74.51855,63.146A1.5,1.5,0,0,1,73.458,65.70654Z"/><path d="M121.30566,113.55469a1.49514,1.49514,0,0,1-1.06055-.43945L94.73242,87.60205A1.49984,1.49984,0,0,1,96.85352,85.481l25.5127,25.51318a1.5,1.5,0,0,1-1.06055,2.56055Z"/><path d="M112.05371,122.80566a1.49514,1.49514,0,0,1-1.06055-.43945L85.48145,96.853a1.49984,1.49984,0,0,1,2.12109-2.12109l25.51172,25.51318a1.5,1.5,0,0,1-1.06055,2.56055Z"/></svg>