<svg xmlns="http://www.w3.org/2000/svg" viewBox="0 0 159.99993 160"><title>alo_icon_system_expenses-large</title><path d="M27.667,68.417a8.042,8.042,0,1,1,8.0415-8.042A8.05084,8.05084,0,0,1,27.667,68.417Zm0-13.084a5.042,5.042,0,1,0,5.0415,5.042A5.04756,5.04756,0,0,0,27.667,55.333Z"/><path d="M106.1665,55.333A14.583,14.583,0,1,1,120.75,40.75,14.59963,14.59963,0,0,1,106.1665,55.333Zm0-26.166A11.583,11.583,0,1,0,117.75,40.75,11.59635,11.59635,0,0,0,106.1665,29.167Z"/><path d="M60.375,42.25A21.125,21.125,0,1,1,81.50049,21.125,21.14883,21.14883,0,0,1,60.375,42.25Zm0-39.25A18.125,18.125,0,1,0,78.50049,21.125,18.14555,18.14555,0,0,0,60.375,3Z"/><path d="M132.334,160H1.5A1.50007,1.50007,0,0,1,0,158.5V93.083a1.50007,1.50007,0,0,1,1.5-1.5H132.334a1.50007,1.50007,0,0,1,1.5,1.5V158.5A1.50007,1.50007,0,0,1,132.334,160ZM3,157H130.834V94.583H3Z"/><path d="M108.34766,149.09766H25.48633a1.50007,1.50007,0,0,1-1.5-1.5,11.59666,11.59666,0,0,0-11.5835-11.584,1.50007,1.50007,0,0,1-1.5-1.5V117.06934a1.50007,1.50007,0,0,1,1.5-1.5,11.59645,11.59645,0,0,0,11.5835-11.583,1.50007,1.50007,0,0,1,1.5-1.5h82.86133a1.50007,1.50007,0,0,1,1.5,1.5,11.59645,11.59645,0,0,0,11.5835,11.583,1.50007,1.50007,0,0,1,1.5,1.5v17.44434a1.50007,1.50007,0,0,1-1.5,1.5,11.59666,11.59666,0,0,0-11.5835,11.584A1.50007,1.50007,0,0,1,108.34766,149.09766Zm-81.438-3h80.01465a14.61266,14.61266,0,0,1,13.00684-13.00781V118.49316a14.61168,14.61168,0,0,1-13.00684-13.00684H26.90967a14.61168,14.61168,0,0,1-13.00684,13.00684v14.59668A14.61266,14.61266,0,0,1,26.90967,146.09766Z"/><path d="M66.917,138.19434A12.40283,12.40283,0,1,1,79.31982,125.792,12.41656,12.41656,0,0,1,66.917,138.19434Zm0-21.80566a9.40283,9.40283,0,1,0,9.40283,9.40332A9.41412,9.41412,0,0,0,66.917,116.38867Z"/><path d="M132.333,130.91992a1.50018,1.50018,0,0,1-.38721-2.94922l24.71729-6.62207-16.15479-60.291L15.58252,94.53223a1.50031,1.50031,0,0,1-.77637-2.89844l126.37451-33.8623a1.5009,1.5009,0,0,1,1.83691,1.06055l16.93115,63.18848a1.5009,1.5009,0,0,1-1.06055,1.83789l-26.166,7.01074A1.52949,1.52949,0,0,1,132.333,130.91992Z"/><path d="M132.33545,113.77832a1.54417,1.54417,0,0,1-.28174-.02637,1.49979,1.49979,0,0,1-1.19336-1.75391,14.46631,14.46631,0,0,1,9.0835-10.92285l-3.77832-14.10059a14.60834,14.60834,0,0,1-15.93018-9.19629L57.707,94.53223a1.50031,1.50031,0,0,1-.77637-2.89844L120.834,74.51172a1.50324,1.50324,0,0,1,1.83691,1.06055,11.59671,11.59671,0,0,0,14.187,8.19043,1.504,1.504,0,0,1,1.83691,1.06055L143.21,101.67383a1.5009,1.5009,0,0,1-1.06055,1.83789,11.48431,11.48431,0,0,0-8.3418,9.04688A1.50047,1.50047,0,0,1,132.33545,113.77832Z"/></svg>