<svg id="Elements" xmlns="http://www.w3.org/2000/svg" viewBox="0 0 75 75"><title>alo_service</title><g id="_Group_" data-name="&lt;Group&gt;"><path d="M56.21875,44.2002a1.02442,1.02442,0,0,1-.12207-0.00781,0.98941,0.98941,0,0,1-.56836-0.26855l-0.00391-.00391-0.0127-.0127L42.82813,31.22461a3.5676,3.5676,0,0,1-2.82227,1.38672H28.002a3.57227,3.57227,0,1,1,0-7.14453h8.16016l5.708-5.709a3.14626,3.14626,0,0,1,4.44629,0l1.81934,1.81934a0.71613,0.71613,0,0,0,1.01074-.001l6.66895-6.66895A7.43015,7.43015,0,1,1,66.32324,25.415L59.6543,32.085a0.71436,0.71436,0,0,0,0,1.00977L61.47363,34.915a3.14774,3.14774,0,0,1,0,4.44531l-4.54785,4.54688-0.001.001-0.001.001-0.001.001-0.002.002-0.001.001-0.001.001-0.001.001-0.001.001-0.001.001-0.002.002h0l-0.002.002h0A0.99533,0.99533,0,0,1,56.21875,44.2002ZM43.2373,28.80469L56.21875,41.78613l3.84082-3.83984a1.14582,1.14582,0,0,0,0-1.61719l-1.81934-1.82031a2.71481,2.71481,0,0,1,0-3.83887L64.90918,24.001a5.43036,5.43036,0,1,0-7.67969-7.67969l-6.66895,6.66895a2.71717,2.71717,0,0,1-3.83887.001l-1.81934-1.81934a1.147,1.147,0,0,0-1.61816,0l-6.001,6.002a0.99928,0.99928,0,0,1-.707.293H28.002a1.57227,1.57227,0,1,0,0,3.14453H40.00586a1.569,1.569,0,0,0,1.53906-1.27344,0.998,0.998,0,0,1,.27246-0.52734l0.002-.002,0.002-.002,0.002-.002h0l0.002-.002,0.001-.001,0.001-.001,0.001-.001,0.002-.002,0.001-.001,0.001-.001a0.99844,0.99844,0,0,1,.60645-0.28027,1.09611,1.09611,0,0,1,.16016-0.002h0.002v0.001a0.99019,0.99019,0,0,1,.63477.28809Z"/><path d="M35.75684,63.32813A4.21275,4.21275,0,0,1,31.541,59.11523q0-.17578.01465-0.34863a4.20925,4.20925,0,0,1-4.54492-4.54492,4.21708,4.21708,0,0,1-4.56348-4.20117c0-.11621.00488-0.23242,0.01465-0.34766a4.21577,4.21577,0,1,1,3.85254-3.85352,4.21562,4.21562,0,0,1,4.56348,4.20117c0,0.11719-.00391.2334-0.01367,0.34863A4.20948,4.20948,0,0,1,35.40918,54.916a4.22867,4.22867,0,0,1,3.32813,1.21875A4.21289,4.21289,0,0,1,35.75684,63.32813Zm-1.56641-5.7793a2.21385,2.21385,0,1,0,.002-0.002ZM29.64355,53.001a2.21558,2.21558,0,0,0,3.13281,3.13379l0.002-.002A2.21558,2.21558,0,0,0,29.64355,53.001ZM25.09668,48.4541a2.21382,2.21382,0,0,0,0,3.13281,2.26835,2.26835,0,0,0,3.13281,0h0a2.21617,2.21617,0,0,0,0-3.13281,2.26835,2.26835,0,0,0-3.13281,0h0Zm-2.98047-5.19434A2.21387,2.21387,0,0,0,20.54883,47.04a2.27052,2.27052,0,0,0,3.13379,0A2.21387,2.21387,0,0,0,22.11621,43.25977Z"/><path d="M40.30371,63.33008a4.1876,4.1876,0,0,1-2.98047-1.23437,0.99989,0.99989,0,0,1,1.41406-1.41406,2.26835,2.26835,0,0,0,3.13281,0,2.21382,2.21382,0,0,0,0-3.13281,0.99989,0.99989,0,0,1,1.41406-1.41406A2.21592,2.21592,0,0,0,46.418,53.001,0.99989,0.99989,0,0,1,47.832,51.58691a2.21523,2.21523,0,0,0,3.13281-3.13281A0.99989,0.99989,0,0,1,52.37891,47.04a2.27026,2.27026,0,0,0,3.13281,0,2.21854,2.21854,0,0,0,0-3.13281,0.99989,0.99989,0,0,1,1.41406-1.41406,4.21374,4.21374,0,0,1-3.32812,7.17969,4.21108,4.21108,0,0,1-4.54785,4.54688,4.20845,4.20845,0,0,1-4.54687,4.54688A4.21272,4.21272,0,0,1,40.30371,63.33008Z"/><path d="M19.8418,44.2002a0.99676,0.99676,0,0,1-.707-0.293l-5.6084-5.6084a3.14272,3.14272,0,0,1,0-4.44531l1.81934-1.81836a0.71554,0.71554,0,0,0,0-1.01172L8.67676,24.35449A7.43049,7.43049,0,0,1,19.18457,13.8457l6.66895,6.66992a0.70992,0.70992,0,0,0,.50488.209h0a0.70517,0.70517,0,0,0,.50488-0.21l1.82031-1.81836a3.21876,3.21876,0,0,1,4.44531,0l5.6084,5.6084a0.99989,0.99989,0,0,1-1.41406,1.41406l-5.6084-5.6084a1.17169,1.17169,0,0,0-1.61719,0l-1.81934,1.81836a2.69384,2.69384,0,0,1-1.91895.7959h-0.001a2.69626,2.69626,0,0,1-1.91895-.79492l-6.66895-6.66992a5.4307,5.4307,0,0,0-7.67969,7.68066l6.66895,6.66895a2.71835,2.71835,0,0,1,0,3.83984l-1.81934,1.81836a1.14345,1.14345,0,0,0,0,1.61719l5.6084,5.6084A1,1,0,0,1,19.8418,44.2002Z"/></g></svg>