<svg xmlns="http://www.w3.org/2000/svg" viewBox="0 0 160 160"><title>alo_icon_system_weekly-large</title><path d="M158.5,22.625H76.0752a1.5,1.5,0,0,1,0-3H158.5a1.5,1.5,0,0,1,0,3Z"/><path d="M21.125,42.25A21.125,21.125,0,1,1,42.25,21.125,21.14883,21.14883,0,0,1,21.125,42.25Zm0-39.25A18.125,18.125,0,1,0,39.25,21.125,18.14555,18.14555,0,0,0,21.125,3Z"/><path d="M158.5,140.375H76.0752a1.5,1.5,0,0,1,0-3H158.5a1.5,1.5,0,0,1,0,3Z"/><path d="M21.125,160A21.125,21.125,0,1,1,42.25,138.875,21.14883,21.14883,0,0,1,21.125,160Zm0-39.25A18.125,18.125,0,1,0,39.25,138.875,18.14555,18.14555,0,0,0,21.125,120.75Z"/><path d="M158.5,81.5H76.0752a1.5,1.5,0,0,1,0-3H158.5a1.5,1.5,0,0,1,0,3Z"/><path d="M21.125,101.125A21.125,21.125,0,1,1,42.25,80,21.14883,21.14883,0,0,1,21.125,101.125Zm0-39.25A18.125,18.125,0,1,0,39.25,80,18.14555,18.14555,0,0,0,21.125,61.875Z"/></svg>