<svg id="Elements" xmlns="http://www.w3.org/2000/svg" viewBox="0 0 75 75"><title>alo_service</title><path d="M37.5,68.5A28.5,28.5,0,1,1,66,40,28.53242,28.53242,0,0,1,37.5,68.5Zm0-55A26.5,26.5,0,1,0,64,40,26.52981,26.52981,0,0,0,37.5,13.5Z"/><path d="M37.5,13.5a0.99942,0.99942,0,0,1-1-1v-5a1,1,0,0,1,2,0v5A0.99942,0.99942,0,0,1,37.5,13.5Z"/><path d="M42.5,8.5h-10a1,1,0,0,1,0-2h10A1,1,0,0,1,42.5,8.5Z"/><path d="M37.5,41a0.99942,0.99942,0,0,1-1-1V20a1,1,0,0,1,2,0V40A0.99942,0.99942,0,0,1,37.5,41Z"/><path d="M60,41H55a1,1,0,0,1,0-2h5A1,1,0,0,1,60,41Z"/><path d="M20,41H15a1,1,0,0,1,0-2h5A1,1,0,0,1,20,41Z"/><path d="M37.5,63.5a0.99942,0.99942,0,0,1-1-1v-5a1,1,0,0,1,2,0v5A0.99942,0.99942,0,0,1,37.5,63.5Z"/><path d="M56.94531,21.55469a1,1,0,0,1-.707-1.707L59.293,16.793A0.99989,0.99989,0,0,1,60.707,18.207l-3.05469,3.05469A0.99676,0.99676,0,0,1,56.94531,21.55469Z"/><path d="M65.30371,23.80273a0.99676,0.99676,0,0,1-.707-0.293L53.98926,12.90332a0.99964,0.99964,0,0,1,0-1.41406A8.50013,8.50013,0,0,1,66.01074,23.50977,0.99676,0.99676,0,0,1,65.30371,23.80273ZM56.165,12.251l9.084,9.083A6.50037,6.50037,0,0,0,56.165,12.251Z"/><path d="M18.05469,21.55469a0.99676,0.99676,0,0,1-.707-0.293L14.293,18.207A0.99989,0.99989,0,0,1,15.707,16.793l3.05469,3.05469A1,1,0,0,1,18.05469,21.55469Z"/><path d="M9.69629,23.80273a0.99676,0.99676,0,0,1-.707-0.293A8.49978,8.49978,0,0,1,21.00977,11.48926a0.99964,0.99964,0,0,1,0,1.41406L10.40332,23.50977A0.99676,0.99676,0,0,1,9.69629,23.80273ZM14.999,11.00293A6.49622,6.49622,0,0,0,9.751,21.334l9.083-9.083A6.48571,6.48571,0,0,0,14.999,11.00293Z"/><path d="M64.999,68.5a0.99631,0.99631,0,0,1-.51367-0.14258l-10.20605-6.123a1,1,0,1,1,1.0293-1.71484l10.20605,6.123A1,1,0,0,1,64.999,68.5Z"/><path d="M65.001,68.5a0.99894,0.99894,0,0,1-.8584-0.48535l-6.124-10.20605a1,1,0,1,1,1.71484-1.0293l6.124,10.20605A1,1,0,0,1,65.001,68.5Z"/><path d="M10.001,68.5a1,1,0,0,1-.51562-1.85742l10.20605-6.123a1,1,0,0,1,1.0293,1.71484l-10.20605,6.123A0.99631,0.99631,0,0,1,10.001,68.5Z"/><path d="M9.999,68.5a1,1,0,0,1-.85645-1.51465l6.123-10.20605a1,1,0,1,1,1.71484,1.0293l-6.123,10.20605A0.99894,0.99894,0,0,1,9.999,68.5Z"/></svg>