<svg xmlns="http://www.w3.org/2000/svg" viewBox="0 0 40 40"><title>alo_activities-reading-tiny</title><path d="M20,40A20,20,0,1,1,40,20,20.0226,20.0226,0,0,1,20,40ZM20,3A17,17,0,1,0,37,20,17.019,17.019,0,0,0,20,3Z"/><path d="M29.999,31a1.49447,1.49447,0,0,1-.90039-.30078,6.93682,6.93682,0,0,0-8.19727,0,1.5002,1.5002,0,0,1-1.80273-2.39844,9.835,9.835,0,0,1,11.80273,0A1.50018,1.50018,0,0,1,29.999,31Z"/><path d="M19.999,31a1.49447,1.49447,0,0,1-.90039-.30078,6.93682,6.93682,0,0,0-8.19727,0,1.5002,1.5002,0,0,1-1.80273-2.39844,9.835,9.835,0,0,1,11.80273,0A1.50018,1.50018,0,0,1,19.999,31Z"/><path d="M29.999,12.6665a1.49447,1.49447,0,0,1-.90039-.30078,6.93682,6.93682,0,0,0-8.19727,0,1.5002,1.5002,0,0,1-1.80273-2.39844,9.835,9.835,0,0,1,11.80273,0A1.50018,1.50018,0,0,1,29.999,12.6665Z"/><path d="M25.91992,19.353a1.51117,1.51117,0,0,1-.24609-.02,4.16028,4.16028,0,0,0-1.34766,0,1.5,1.5,0,1,1-.48828-2.96,7.19406,7.19406,0,0,1,2.32422,0,1.49995,1.49995,0,0,1-.24219,2.98Z"/><path d="M24.08008,22.68652A1.5,1.5,0,0,1,23.835,19.707,7.08641,7.08641,0,0,1,25,19.61084a1.5,1.5,0,0,1,0,3,4.09173,4.09173,0,0,0-.6709.05518A1.4941,1.4941,0,0,1,24.08008,22.68652Z"/><path d="M15.91992,16.02a1.4941,1.4941,0,0,1-.249-.02051,4.12442,4.12442,0,0,0-1.3418,0,1.5,1.5,0,0,1-.49414-2.959,7.12121,7.12121,0,0,1,2.33008,0A1.5,1.5,0,0,1,15.91992,16.02Z"/><path d="M15.91992,22.68652a1.4941,1.4941,0,0,1-.249-.02051,4.12442,4.12442,0,0,0-1.3418,0,1.5,1.5,0,0,1-.49414-2.959,7.12121,7.12121,0,0,1,2.33008,0,1.5,1.5,0,0,1-.24512,2.97949Z"/><path d="M15.91992,19.353a1.51117,1.51117,0,0,1-.24609-.02,4.16028,4.16028,0,0,0-1.34766,0,1.5,1.5,0,1,1-.48828-2.96,7.19406,7.19406,0,0,1,2.32422,0,1.49995,1.49995,0,0,1-.24219,2.98Z"/><path d="M25.91992,16.02a1.4941,1.4941,0,0,1-.249-.02051,4.12442,4.12442,0,0,0-1.3418,0,1.5,1.5,0,0,1-.49414-2.959,7.12121,7.12121,0,0,1,2.33008,0A1.5,1.5,0,0,1,25.91992,16.02Z"/><path d="M19.999,12.6665a1.49447,1.49447,0,0,1-.90039-.30078,6.93682,6.93682,0,0,0-8.19727,0A1.5002,1.5002,0,0,1,9.09863,9.96729a9.835,9.835,0,0,1,11.80273,0A1.50018,1.50018,0,0,1,19.999,12.6665Z"/><path d="M20,31a1.50007,1.50007,0,0,1-1.5-1.5V11.1665a1.5,1.5,0,1,1,3,0V29.5A1.50007,1.50007,0,0,1,20,31Z"/><path d="M30,31a1.50007,1.50007,0,0,1-1.5-1.5V11.1665a1.5,1.5,0,1,1,3,0V29.5A1.50007,1.50007,0,0,1,30,31Z"/><path d="M10,31a1.50007,1.50007,0,0,1-1.5-1.5V11.1665a1.5,1.5,0,1,1,3,0V29.5A1.50007,1.50007,0,0,1,10,31Z"/></svg>