<svg xmlns="http://www.w3.org/2000/svg" viewBox="0 0 40 40"><title>alo_activities-groceries-tiny</title><path d="M20,40A20,20,0,1,1,40,20,20.02229,20.02229,0,0,1,20,40ZM20,3A17,17,0,1,0,37,20,17.019,17.019,0,0,0,20,3Z"/><path d="M25.87207,29.5166H14.12793A4.88377,4.88377,0,0,1,9.25,24.63867V15.68359a1.50039,1.50039,0,0,1,1.5-1.5h18.5a1.50039,1.50039,0,0,1,1.5,1.5v8.95508A4.88377,4.88377,0,0,1,25.87207,29.5166ZM12.25,17.18359v7.45508a1.88049,1.88049,0,0,0,1.87793,1.87793H25.87207A1.88049,1.88049,0,0,0,27.75,24.63867V17.18359Z"/><path d="M24.55371,17.18359a1.50026,1.50026,0,0,1-1.49023-1.34277C22.78418,13.18066,21.40918,11.0166,20,11.0166s-2.78418,2.16406-3.06348,4.82422a1.50045,1.50045,0,1,1-2.98437-.31445C14.41016,11.1748,16.9541,8.0166,20,8.0166s5.58984,3.1582,6.04785,7.50977a1.50168,1.50168,0,0,1-1.335,1.64941C24.65918,17.18066,24.60645,17.18359,24.55371,17.18359Z"/></svg>