<svg xmlns="http://www.w3.org/2000/svg" viewBox="0 0 40 40"><title>alo_activities-writing-tiny</title><path d="M20,40A20,20,0,1,1,40,20,20.02292,20.02292,0,0,1,20,40ZM20,3A17,17,0,1,0,37,20,17.019,17.019,0,0,0,20,3Z"/><path d="M15.59277,28.73535a1.49514,1.49514,0,0,1-1.06055-.43945L11.7041,25.46777a1.49945,1.49945,0,0,1,0-2.12109L26.61084,8.43945a1.544,1.544,0,0,1,2.12109,0l2.82861,2.82861a1.49945,1.49945,0,0,1,0,2.12109L16.65332,28.2959A1.49514,1.49514,0,0,1,15.59277,28.73535Zm-.707-4.32812.707.707L28.37891,12.32861l-.70752-.70752Z"/><path d="M26.72852,17.59961a1.49514,1.49514,0,0,1-1.06055-.43945L22.83984,14.332a1.49984,1.49984,0,0,1,2.12109-2.12109l2.82813,2.82813a1.5,1.5,0,0,1-1.06055,2.56055Z"/><path d="M10.5,31a1.5,1.5,0,0,1-1.06055-2.56055l3.67871-3.67871a1.49984,1.49984,0,0,1,2.12109,2.12109l-3.67871,3.67871A1.49514,1.49514,0,0,1,10.5,31Z"/></svg>