<svg xmlns="http://www.w3.org/2000/svg" viewBox="0 0 40 40"><title>alo_icon_activity_meals-tiny</title><path d="M20,40A20,20,0,1,1,40,20,20.0226,20.0226,0,0,1,20,40ZM20,3A17,17,0,1,0,37,20,17.019,17.019,0,0,0,20,3Z"/><path d="M15.64063,21.24365c-.02051,0-.041-.00049-.0625-.00146a1.50023,1.50023,0,0,1-1.083-.52979L8.85449,14.0459a1.49958,1.49958,0,0,1,.085-2.0293L12.0166,8.93945A1.49856,1.49856,0,0,1,14.0459,8.855l6.666,5.64111a1.49884,1.49884,0,0,1,.0918,2.20557L16.70117,20.8042A1.502,1.502,0,0,1,15.64063,21.24365Zm-3.60449-8.08154,3.69629,4.36816,1.79785-1.79736-4.36816-3.69629Z"/><path d="M23.64063,28.0127a1.50017,1.50017,0,0,1-1.06055-.43945l-4.30762-4.30762a1.49945,1.49945,0,0,1,0-2.12109l10.667-10.6665a1.5,1.5,0,0,1,2.44141,1.647L25.02148,27.09912a1.50162,1.50162,0,0,1-1.09473.88623A1.54254,1.54254,0,0,1,23.64063,28.0127ZM21.4541,22.20508l1.6748,1.6748,2.47266-5.82178Z"/><path d="M30,31.5a1.49514,1.49514,0,0,1-1.06055-.43945l-5.50293-5.50293a1.49984,1.49984,0,0,1,2.12109-2.12109l5.50293,5.50293A1.5,1.5,0,0,1,30,31.5Z"/><path d="M20.76855,22.269a1.49514,1.49514,0,0,1-1.06055-.43945l-3.07617-3.07666a1.49984,1.49984,0,0,1,2.12109-2.12109L21.8291,19.7085A1.5,1.5,0,0,1,20.76855,22.269Z"/><path d="M11.53809,31.5a1.5,1.5,0,0,1-1.06055-2.56055l7.79492-7.79492a1.49984,1.49984,0,0,1,2.12109,2.12109l-7.79492,7.79492A1.49514,1.49514,0,0,1,11.53809,31.5Z"/></svg>