<svg xmlns="http://www.w3.org/2000/svg" viewBox="0 0 40 40"><title>alo_activities-music-tiny</title><path d="M20,40A20,20,0,1,1,40,20,20.02229,20.02229,0,0,1,20,40ZM20,3A17,17,0,1,0,37,20,17.019,17.019,0,0,0,20,3Z"/><path d="M18.458,26.74121A5.20468,5.20468,0,0,1,13.25879,21.542a1.5,1.5,0,0,1,3,0A2.2014,2.2014,0,0,0,18.458,23.74121a1.5,1.5,0,0,1,0,3Z"/><path d="M18.458,30.75a9.2085,9.2085,0,1,1,9.209-9.208A9.21865,9.21865,0,0,1,18.458,30.75Zm0-15.417a6.2085,6.2085,0,1,0,6.209,6.209A6.21557,6.21557,0,0,0,18.458,15.333Z"/><path d="M27.39453,15.95117a3.35816,3.35816,0,1,1,.87207-.11523A3.36979,3.36979,0,0,1,27.39453,15.95117ZM27.40137,12.25a.35575.35575,0,0,0-.0918.01172.34291.34291,0,0,0-.21191.16309.35023.35023,0,1,0,.47754-.127A.3425.3425,0,0,0,27.40137,12.25Z"/><path d="M21.84863,23.71289a1.50011,1.50011,0,0,1-1.29785-2.25l4.625-8.01074a1.49982,1.49982,0,1,1,2.59766,1.5l-4.625,8.01074A1.49808,1.49808,0,0,1,21.84863,23.71289Z"/></svg>