<svg xmlns="http://www.w3.org/2000/svg" viewBox="0 0 40 40"><title>alo_icon_activity_gardening-tiny</title><path d="M20,40A20,20,0,1,1,40,20,20.02229,20.02229,0,0,1,20,40ZM20,3A17,17,0,1,0,37,20,17.019,17.019,0,0,0,20,3Z"/><path d="M19.167,14.8335H10.833A2.33613,2.33613,0,0,1,8.5,12.5V10a1.5,1.5,0,0,1,3,0v1.8335h7V10a1.5,1.5,0,0,1,3,0v2.5A2.33613,2.33613,0,0,1,19.167,14.8335Z"/><path d="M15,31.5A1.50039,1.50039,0,0,1,13.5,30V13.3335a1.5,1.5,0,0,1,3,0V30A1.50039,1.50039,0,0,1,15,31.5Z"/><path d="M16.667,14.8335a1.50007,1.50007,0,0,1-1.5-1.5V10a1.5,1.5,0,0,1,3,0v3.3335A1.50007,1.50007,0,0,1,16.667,14.8335Z"/><path d="M13.333,14.8335a1.50007,1.50007,0,0,1-1.5-1.5V10a1.5,1.5,0,0,1,3,0v3.3335A1.50007,1.50007,0,0,1,13.333,14.8335Z"/><path d="M28.333,31.5H21.667a1.50039,1.50039,0,0,1-1.5-1.5V20a1.50007,1.50007,0,0,1,1.5-1.5H30a1.5,1.5,0,0,1,0,3h-.167V30A1.50039,1.50039,0,0,1,28.333,31.5Zm-5.166-3h3.666v-7H23.167Z"/><path d="M18.333,28.167a1.50039,1.50039,0,0,1-1.5-1.5v-5a1.50007,1.50007,0,0,1,1.5-1.5h3.334a1.5,1.5,0,0,1,0,3H19.833v3.5A1.50039,1.50039,0,0,1,18.333,28.167Z"/><path d="M21.6666,26.66667" style="fill:none;stroke:#000;stroke-linecap:round;stroke-linejoin:round;stroke-width:3px"/><path d="M26.66895,17.188h0a1.49891,1.49891,0,0,1-1.06055-.43945L23.252,14.39111a1.49945,1.49945,0,0,1,0-2.12109L25.6084,9.91309a4.85206,4.85206,0,0,1,4.665-1.249,1.49874,1.49874,0,0,1,1.0625,1.06348,4.84609,4.84609,0,0,1-1.249,4.66357l-2.35742,2.35742A1.50061,1.50061,0,0,1,26.66895,17.188Zm-.23535-3.85742.23535.23584L27.96582,12.27v-.00049a1.81564,1.81564,0,0,0,.41895-.65381,1.81061,1.81061,0,0,0-.65527.41895Z"/><path d="M23.36914,18.13037a1.5,1.5,0,0,1-1.06055-2.56055l2.12109-2.12109a1.49984,1.49984,0,0,1,2.12109,2.12109l-2.12109,2.12109A1.49514,1.49514,0,0,1,23.36914,18.13037Z"/></svg>