<svg xmlns="http://www.w3.org/2000/svg" viewBox="0 0 40 40"><title>alo_activities-photography-tiny</title><path d="M20,40A20,20,0,1,1,40,20,20.0226,20.0226,0,0,1,20,40ZM20,3A17,17,0,1,0,37,20,17.019,17.019,0,0,0,20,3Z"/><path d="M27.2832,30.8833H13.9502a4.83959,4.83959,0,0,1-4.834-4.8335v-5a4.83918,4.83918,0,0,1,4.834-4.833h13.333a4.83834,4.83834,0,0,1,4.833,4.833v5A4.83876,4.83876,0,0,1,27.2832,30.8833ZM13.9502,19.2168a1.83527,1.83527,0,0,0-1.834,1.833v5a1.83537,1.83537,0,0,0,1.834,1.8335h13.333a1.83516,1.83516,0,0,0,1.833-1.8335v-5a1.83506,1.83506,0,0,0-1.833-1.833Z"/><path d="M22.2832,27.0498a3.5,3.5,0,1,1,3.5-3.5A3.50425,3.50425,0,0,1,22.2832,27.0498Zm0-4a.5.5,0,1,0,.5.5A.50065.50065,0,0,0,22.2832,23.0498Z"/><path d="M16.4502,19.2168a1.50007,1.50007,0,0,1-1.5-1.5V13.3833a1.5,1.5,0,0,1,3,0v4.3335A1.50007,1.50007,0,0,1,16.4502,19.2168Z"/><path d="M13.9502,25.0498h-3.334a1.5,1.5,0,1,1,0-3h3.334a1.5,1.5,0,1,1,0,3Z"/><path d="M19.7832,14.8833h-6.667a1.50007,1.50007,0,0,1-1.5-1.5v-4a1.50007,1.50007,0,0,1,1.5-1.5h6.667a1.50007,1.50007,0,0,1,1.5,1.5v4A1.50007,1.50007,0,0,1,19.7832,14.8833Zm-5.167-3h3.667v-1h-3.667Z"/></svg>