<svg xmlns="http://www.w3.org/2000/svg" viewBox="0 0 40 40"><title>alo_activities-intergenerational-tiny</title><path d="M20,40A20,20,0,1,1,40,20,20.02229,20.02229,0,0,1,20,40ZM20,3A17,17,0,1,0,37,20,17.019,17.019,0,0,0,20,3Z"/><path d="M29.25,30.75A10.762,10.762,0,0,1,18.5,20a1.5,1.5,0,0,1,3,0,7.75868,7.75868,0,0,0,7.75,7.75,1.5,1.5,0,0,1,0,3Z"/><path d="M29.25,30.75a1.50039,1.50039,0,0,1-1.5-1.5,5.87528,5.87528,0,0,0-7.19434-5.752,1.50019,1.50019,0,0,1-.65625-2.92773A8.88274,8.88274,0,0,1,30.75,29.25,1.50039,1.50039,0,0,1,29.25,30.75Z"/><path d="M22.61621,27.81641c-.03516,0-.13477-.00391-.16992-.00684a1.5006,1.5006,0,0,1,.09082-2.999c.02344.001.09766.00488.12012.00684a2.19,2.19,0,0,0,2.11816-1.78711,1.49987,1.49987,0,1,1,2.94727.55859A5.20052,5.20052,0,0,1,22.61621,27.81641Z"/><path d="M20,21.5A1.50039,1.50039,0,0,1,18.5,20a7.75868,7.75868,0,0,0-7.75-7.75,1.5,1.5,0,0,1,0-3A10.762,10.762,0,0,1,21.5,20,1.50039,1.50039,0,0,1,20,21.5Z"/><path d="M18.15039,19.65039A8.91107,8.91107,0,0,1,9.25,10.75a1.5,1.5,0,0,1,3,0,5.87583,5.87583,0,0,0,7.19434,5.752,1.50019,1.50019,0,0,1,.65625,2.92773A8.93463,8.93463,0,0,1,18.15039,19.65039Z"/><path d="M13.75293,18.19043a1.53893,1.53893,0,0,1-.28125-.02637,1.49985,1.49985,0,0,1-1.19434-1.75293,5.20052,5.20052,0,0,1,5.10645-4.22754c.03516,0,.13477.00391.16992.00684a1.52338,1.52338,0,0,1,1.41895,1.56934,1.50157,1.50157,0,0,1-1.50977,1.42969c-.02344-.001-.09766-.00488-.12012-.00684a2.19,2.19,0,0,0-2.11816,1.78711A1.49949,1.49949,0,0,1,13.75293,18.19043Z"/></svg>