<svg xmlns="http://www.w3.org/2000/svg" viewBox="0 0 40 40"><title>alo_activities-dance-tiny</title><path d="M20,40A20,20,0,1,1,40,20,20.0226,20.0226,0,0,1,20,40ZM20,3A17,17,0,1,0,37,20,17.019,17.019,0,0,0,20,3Z"/><path d="M20,30.2666a9.8335,9.8335,0,1,1,9.8335-9.833A9.84433,9.84433,0,0,1,20,30.2666Zm0-16.667a6.8335,6.8335,0,1,0,6.8335,6.834A6.84126,6.84126,0,0,0,20,13.59961Z"/><path d="M20,13.59961a1.50007,1.50007,0,0,1-1.5-1.5V8.7666a1.5,1.5,0,1,1,3,0v3.333A1.50007,1.50007,0,0,1,20,13.59961Z"/><path d="M22.6665,24.59961a1.50007,1.50007,0,0,1-1.5-1.5v-5.333a1.5,1.5,0,0,1,3,0v5.333A1.50007,1.50007,0,0,1,22.6665,24.59961Z"/><path d="M22.6665,19.2666a1.50007,1.50007,0,0,1-1.5-1.5V12.54395a1.5,1.5,0,0,1,3,0V17.7666A1.50007,1.50007,0,0,1,22.6665,19.2666Z"/><path d="M22.6665,29.82324a1.50007,1.50007,0,0,1-1.5-1.5V23.09961a1.5,1.5,0,0,1,3,0v5.22363A1.50007,1.50007,0,0,1,22.6665,29.82324Z"/><path d="M17.3335,19.2666a1.50007,1.50007,0,0,1-1.5-1.5V12.54395a1.5,1.5,0,0,1,3,0V17.7666A1.50007,1.50007,0,0,1,17.3335,19.2666Z"/><path d="M17.3335,29.82324a1.50007,1.50007,0,0,1-1.5-1.5V23.09961a1.5,1.5,0,0,1,3,0v5.22363A1.50007,1.50007,0,0,1,17.3335,29.82324Z"/><path d="M17.3335,24.59961a1.50007,1.50007,0,0,1-1.5-1.5v-5.333a1.5,1.5,0,0,1,3,0v5.333A1.50007,1.50007,0,0,1,17.3335,24.59961Z"/><path d="M22.6665,24.59961h-5.333a1.5,1.5,0,0,1,0-3h5.333a1.5,1.5,0,0,1,0,3Z"/><path d="M27.88916,24.59961H22.6665a1.5,1.5,0,0,1,0-3h5.22266a1.5,1.5,0,0,1,0,3Z"/><path d="M17.3335,24.59961H12.11084a1.5,1.5,0,0,1,0-3H17.3335a1.5,1.5,0,0,1,0,3Z"/><path d="M17.3335,19.2666H12.11084a1.5,1.5,0,0,1,0-3H17.3335a1.5,1.5,0,0,1,0,3Z"/><path d="M27.88916,19.2666H22.6665a1.5,1.5,0,0,1,0-3h5.22266a1.5,1.5,0,0,1,0,3Z"/><path d="M22.6665,19.2666h-5.333a1.5,1.5,0,0,1,0-3h5.333a1.5,1.5,0,0,1,0,3Z"/></svg>