<svg xmlns="http://www.w3.org/2000/svg" viewBox="0 0 40 40"><title>alo_icon_activity_seminar-tiny</title><path d="M20,40A20,20,0,1,1,40,20,20.0226,20.0226,0,0,1,20,40ZM20,3A17,17,0,1,0,37,20,17.019,17.019,0,0,0,20,3Z"/><path d="M30,27.32227H10a1.50007,1.50007,0,0,1-1.5-1.5v-15a1.49976,1.49976,0,0,1,1.5-1.5H30a1.49976,1.49976,0,0,1,1.5,1.5v15A1.50007,1.50007,0,0,1,30,27.32227Zm-18.5-3h17v-12h-17Z"/><path d="M20,32.32227a1.50007,1.50007,0,0,1-1.5-1.5v-5a1.5,1.5,0,1,1,3,0v5A1.50007,1.50007,0,0,1,20,32.32227Z"/><path d="M23.3335,32.32227h-6.667a1.5,1.5,0,1,1,0-3h6.667a1.5,1.5,0,0,1,0,3Z"/><path d="M28.04883,30.88281a1.49514,1.49514,0,0,1-1.06055-.43945L18.7959,22.251A1.49984,1.49984,0,0,1,20.917,20.12988l8.19238,8.19238a1.5,1.5,0,0,1-1.06055,2.56055Z"/><path d="M20.5,16.32227H13.8335a1.5,1.5,0,0,1,0-3H20.5a1.5,1.5,0,0,1,0,3Z"/><path d="M17.1665,20.32227h-3.333a1.5,1.5,0,0,1,0-3h3.333a1.5,1.5,0,0,1,0,3Z"/></svg>