<svg xmlns="http://www.w3.org/2000/svg" viewBox="0 0 40 40"><title>alo_activities-petanque-tiny</title><path d="M20,40A20,20,0,1,1,40,20,20.02292,20.02292,0,0,1,20,40ZM20,3A17,17,0,1,0,37,20,17.019,17.019,0,0,0,20,3Z"/><path d="M25.3335,31.5A6.16675,6.16675,0,1,1,31.5,25.333,6.17411,6.17411,0,0,1,25.3335,31.5Zm0-9.3335A3.16675,3.16675,0,1,0,28.5,25.333,3.17041,3.17041,0,0,0,25.3335,22.1665Z"/><path d="M25,15.5A3.5,3.5,0,1,1,28.5,12,3.50425,3.50425,0,0,1,25,15.5Zm0-4a.5.5,0,1,0,.5.5A.50034.50034,0,0,0,25,11.5Z"/><path d="M14.6665,22.5a6.16742,6.16742,0,1,1,4.36084-1.80664h-.00049v.00049A6.1259,6.1259,0,0,1,14.6665,22.5Zm0-9.332a3.16528,3.16528,0,0,0-2.23926,5.4043,3.24235,3.24235,0,0,0,4.478,0h.00049A3.165,3.165,0,0,0,14.6665,13.168Z"/></svg>