<svg xmlns="http://www.w3.org/2000/svg" viewBox="0 0 40 40"><title>alo_icon_activity_games-tiny</title><path d="M20,40A20,20,0,1,1,40,20,20.02292,20.02292,0,0,1,20,40ZM20,3A17,17,0,1,0,37,20,17.019,17.019,0,0,0,20,3Z"/><path d="M24.4751,31.40967a2.834,2.834,0,0,1-2.00928-.83057l-.00049-.00049L18.35791,26.4707a2.84153,2.84153,0,0,1,0-4.019l4.10742-4.10742a2.84537,2.84537,0,0,1,4.019,0l4.10742,4.10742a2.84153,2.84153,0,0,1-.00049,4.01953l-4.10693,4.10742A2.83365,2.83365,0,0,1,24.4751,31.40967Zm-3.88428-6.94824L24.4751,28.3457l3.88379-3.88428L24.4751,20.57715Z"/><path d="M14.30957,22.16553a2.86993,2.86993,0,0,1-.74072-.09814,2.82559,2.82559,0,0,1-1.7251-1.32373L8.93945,15.7124a2.84583,2.84583,0,0,1,1.04-3.88281l5.03076-2.90381a2.84188,2.84188,0,0,1,3.88232,1.04l2.9043,5.03076a2.84571,2.84571,0,0,1-1.03955,3.88184h-.00049L15.72559,21.7832A2.82168,2.82168,0,0,1,14.30957,22.16553Zm-2.69336-7.81641,2.74658,4.75732,4.75732-2.74707L16.373,11.60254Zm8.39062,3.23047h0Zm-.75049-1.29883-.001.00049Z"/><path d="M24.4751,31.54443a1.49976,1.49976,0,0,1-1.5-1.5V18.87793a1.5,1.5,0,0,1,3,0v11.1665A1.49976,1.49976,0,0,1,24.4751,31.54443Z"/><path d="M20.76221,18.2998A1.48871,1.48871,0,0,1,20.373,18.248L9.58691,15.35791a1.49984,1.49984,0,0,1,.77637-2.89746l10.78613,2.89014a1.50022,1.50022,0,0,1-.38721,2.94922Z"/></svg>