<svg xmlns="http://www.w3.org/2000/svg" viewBox="0 0 40 40"><title>alo_activities-exhibition-tiny</title><path d="M20,40A20,20,0,1,1,40,20,20.02292,20.02292,0,0,1,20,40ZM20,3A17,17,0,1,0,37,20,17.019,17.019,0,0,0,20,3Z"/><path d="M29.8667,30.2666H10.03955a1.5,1.5,0,0,1,0-3H29.8667a1.5,1.5,0,0,1,0,3Z"/><path d="M28.30811,21.6001H11.69189a1.5,1.5,0,0,1,0-3H28.30811a1.5,1.5,0,0,1,0,3Z"/><path d="M27.96631,17.04883H11.93994a1.5,1.5,0,0,1,0-3H27.96631a1.5,1.5,0,0,1,0,3Z"/><path d="M27.96533,17.04883a1.49594,1.49594,0,0,1-.96826-.355L18.98389,9.91162a1.50016,1.50016,0,0,1,1.93848-2.29l8.01318,6.78223a1.5,1.5,0,0,1-.97021,2.645Z"/><path d="M11.94092,17.04883a1.5,1.5,0,0,1-.97021-2.645l8.01318-6.78223a1.50016,1.50016,0,0,1,1.93848,2.29l-8.01318,6.78223A1.495,1.495,0,0,1,11.94092,17.04883Z"/><path d="M19.95313,30.2666a1.49976,1.49976,0,0,1-1.5-1.5V20.1001a1.5,1.5,0,0,1,3,0v8.6665A1.49976,1.49976,0,0,1,19.95313,30.2666Z"/><path d="M14.67725,30.2666a1.49976,1.49976,0,0,1-1.5-1.5V20.1001a1.5,1.5,0,0,1,3,0v8.6665A1.49976,1.49976,0,0,1,14.67725,30.2666Z"/><path d="M25.22852,30.2666a1.49976,1.49976,0,0,1-1.5-1.5V20.1001a1.5,1.5,0,0,1,3,0v8.6665A1.49976,1.49976,0,0,1,25.22852,30.2666Z"/><path d="M30,23.292a1.49976,1.49976,0,0,1-1.5-1.5.19192.19192,0,0,0-.19189-.19189,1.5,1.5,0,0,1,0-3A3.1952,3.1952,0,0,1,31.5,21.792,1.49976,1.49976,0,0,1,30,23.292Z"/><path d="M10,23.292a1.49976,1.49976,0,0,1-1.5-1.5,3.1952,3.1952,0,0,1,3.19189-3.19189,1.5,1.5,0,1,1,0,3A.19192.19192,0,0,0,11.5,21.792,1.49976,1.49976,0,0,1,10,23.292Z"/></svg>