<svg xmlns="http://www.w3.org/2000/svg" viewBox="0 0 40 40"><title>alo_icon_activity_crafts-tiny</title><path d="M20,40A20,20,0,1,1,40,20,20.0226,20.0226,0,0,1,20,40ZM20,3A17,17,0,1,0,37,20,17.019,17.019,0,0,0,20,3Z"/><path d="M22.333,18.1665a4.83325,4.83325,0,1,1,4.833-4.833A4.83834,4.83834,0,0,1,22.333,18.1665Zm0-6.6665a1.83325,1.83325,0,1,0,1.833,1.8335A1.83516,1.83516,0,0,0,22.333,11.5Z"/><path d="M15.666,24.833a1.50007,1.50007,0,0,1-1.5-1.5,3.17041,3.17041,0,0,1,3.167-3.1665A.16713.16713,0,0,0,17.5,20a4.83876,4.83876,0,0,1,4.833-4.8335,1.5,1.5,0,0,1,0,3A1.83516,1.83516,0,0,0,20.5,20a3.17041,3.17041,0,0,1-3.167,3.1665.16713.16713,0,0,0-.167.1665A1.50007,1.50007,0,0,1,15.666,24.833Z"/><path d="M17.95508,31.498a5.28967,5.28967,0,0,1-1.34961-.17529,1.50007,1.50007,0,0,1-1.06641-1.06689A5.21877,5.21877,0,0,1,21.93945,23.855a1.49888,1.49888,0,0,1,1.06738,1.06689A5.21115,5.21115,0,0,1,17.95508,31.498Zm2.18848-4.78027A2.21287,2.21287,0,0,0,18.40137,28.46a2.21117,2.21117,0,0,0,1.74219-1.74219Z"/><path d="M21.55664,26.80518a1.5,1.5,0,0,1-1.06055-2.56055l8.44336-8.44385a1.49984,1.49984,0,0,1,2.12109,2.12109l-8.44336,8.44385A1.49514,1.49514,0,0,1,21.55664,26.80518Z"/><path d="M28.06055,26.57715a1.49094,1.49094,0,0,1-.749-.20166l-13.082-7.55273a1.49982,1.49982,0,1,1,1.5-2.59766l13.082,7.55273a1.50031,1.50031,0,0,1-.751,2.79932Z"/><path d="M12.46875,19.69141A6.43608,6.43608,0,0,1,9.25,18.835a1.49936,1.49936,0,0,1-.54883-2.04932l2.5-4.33008A1.50131,1.50131,0,0,1,13.25,11.90625,6.51542,6.51542,0,0,1,16.47949,17.519a1.49879,1.49879,0,0,1-.75488,1.30664A6.55349,6.55349,0,0,1,12.46875,19.69141Zm-.249-3.00049a3.47315,3.47315,0,0,0,1.13281-.10645,3.43523,3.43523,0,0,0-.47461-1.03418Z"/></svg>