<svg xmlns="http://www.w3.org/2000/svg" viewBox="0 0 40 40"><title>alo_icon_activity_coffee-tiny</title><path d="M20,40A20,20,0,1,1,40,20,20.02292,20.02292,0,0,1,20,40ZM20,3A17,17,0,1,0,37,20,17.019,17.019,0,0,0,20,3Z"/><path d="M18.77539,30.8833a10.01114,10.01114,0,0,1-10-10V18.27246a1.49976,1.49976,0,0,1,1.5-1.5h17a1.49976,1.49976,0,0,1,1.5,1.5V20.8833A10.01114,10.01114,0,0,1,18.77539,30.8833Zm-7-11.11084V20.8833a7,7,0,0,0,14,0V19.77246Z"/><path d="M27.27539,27.13672a4.97909,4.97909,0,0,1-1.83447-.37354,1.5002,1.5002,0,1,1,1.09375-2.79395,2.0359,2.0359,0,0,0,.74072.16748,2.18213,2.18213,0,1,0,0-4.36426,1.5,1.5,0,0,1,0-3,5.18213,5.18213,0,1,1,0,10.36426Z"/><path d="M16.10889,19.77246a3.72241,3.72241,0,0,1,0-7.44482.72217.72217,0,1,0,0-1.44434,1.5,1.5,0,1,1,0-3,3.72217,3.72217,0,1,1,0,7.44434.72241.72241,0,0,0,0,1.44482,1.5,1.5,0,0,1,0,3Z"/><path d="M22.77539,19.77246a3.72241,3.72241,0,0,1,0-7.44482.72217.72217,0,1,0,0-1.44434,1.5,1.5,0,1,1,0-3,3.72217,3.72217,0,1,1,0,7.44434.72241.72241,0,0,0,0,1.44482,1.5,1.5,0,0,1,0,3Z"/></svg>