<svg xmlns="http://www.w3.org/2000/svg" viewBox="0 0 40 40"><title>alo_icon_activity_conference-tiny</title><path d="M20,40A20,20,0,1,1,40,20,20.0226,20.0226,0,0,1,20,40ZM20,3A17,17,0,1,0,37,20,17.019,17.019,0,0,0,20,3Z"/><path d="M25.5,21a1.49976,1.49976,0,0,1-1.06055-.43945l-5-5A1.49976,1.49976,0,0,1,19,14.5,6.50034,6.50034,0,1,1,25.5,21Zm-3.45312-7.07471,4.02783,4.02783a3.50047,3.50047,0,0,0,1.8999-5.92822,3.58489,3.58489,0,0,0-4.94971.00049A3.47367,3.47367,0,0,0,22.04688,13.92529Z"/><path d="M15.49512,29.541a1.49452,1.49452,0,0,1-1.061-.43945l-3.53564-3.53516a1.5,1.5,0,0,1-.09131-2.02148l7.3623-8.82715c.02881-.03467.05908-.06787.09131-.09961l1.17871-1.17871a1.49984,1.49984,0,0,1,2.12109,2.12109l-1.13086,1.13086-6.44092,7.72266,1.59717,1.59766,7.72266-6.44141,1.13086-1.13086a1.49984,1.49984,0,0,1,2.12109,2.12109l-1.17871,1.17871c-.03174.03223-.06494.0625-.09961.0918l-8.82666,7.3623A1.49868,1.49868,0,0,1,15.49512,29.541Z"/><path d="M10.5,31a1.5,1.5,0,0,1-1.06055-2.56055L12.666,25.21289A1.49984,1.49984,0,0,1,14.78711,27.334l-3.22656,3.22656A1.49514,1.49514,0,0,1,10.5,31Z"/><path d="M19.1665,22.334a1.50024,1.50024,0,0,1-1.06055-2.561L19.333,18.5459A1.49984,1.49984,0,0,1,21.4541,20.667l-1.22705,1.22754A1.49514,1.49514,0,0,1,19.1665,22.334Z"/></svg>