<svg xmlns="http://www.w3.org/2000/svg" viewBox="0 0 40 40"><title>alo_activities-snowshoeing-tiny</title><path d="M20,40A20,20,0,1,1,40,20,20.0226,20.0226,0,0,1,20,40ZM20,3A17,17,0,1,0,37,20,17.019,17.019,0,0,0,20,3Z"/><path d="M27.2832,27.05273a1.50007,1.50007,0,0,1-1.5-1.5,1.83325,1.83325,0,1,0-3.6665,0,1.5,1.5,0,1,1-3,0,4.83325,4.83325,0,1,1,9.6665,0A1.50007,1.50007,0,0,1,27.2832,27.05273Z"/><path d="M22.28662,24.167a1.49667,1.49667,0,0,1-1.19531-.59277l-3.33594-4.39258A1.49983,1.49983,0,0,1,20.144,17.36719L23.48,21.75977A1.5,1.5,0,0,1,22.28662,24.167Z"/><path d="M13.9502,28.71875a1.50007,1.50007,0,0,1-1.5-1.5V9.38379a1.50007,1.50007,0,0,1,1.5-1.5h4.99951a1.50007,1.50007,0,0,1,1.5,1.5v8.89062a1.5,1.5,0,0,1-3,0V10.88379H15.4502v16.335A1.50007,1.50007,0,0,1,13.9502,28.71875Z"/><path d="M18.94971,19.77441H13.9502a1.5,1.5,0,0,1,0-3h4.99951a1.5,1.5,0,0,1,0,3Z"/><path d="M30.6167,28.71875h-20a1.5,1.5,0,1,1,0-3h20a1.5,1.5,0,0,1,0,3Z"/><path d="M12.7002,30.88379a1.50007,1.50007,0,0,1-1.5-1.5v-2.165a1.5,1.5,0,0,1,3,0v2.165A1.50007,1.50007,0,0,1,12.7002,30.88379Z"/><path d="M16.6582,30.88379a1.50007,1.50007,0,0,1-1.5-1.5v-2.165a1.5,1.5,0,0,1,3,0v2.165A1.50007,1.50007,0,0,1,16.6582,30.88379Z"/><path d="M20.6167,30.88379a1.50007,1.50007,0,0,1-1.5-1.5v-2.165a1.5,1.5,0,0,1,3,0v2.165A1.50007,1.50007,0,0,1,20.6167,30.88379Z"/><path d="M20.6167,28.71875a1.50007,1.50007,0,0,1-1.5-1.5v-1.666a1.5,1.5,0,0,1,3,0v1.666A1.50007,1.50007,0,0,1,20.6167,28.71875Z"/><path d="M27.2832,28.71875a1.50007,1.50007,0,0,1-1.5-1.5v-1.666a1.5,1.5,0,0,1,3,0v1.666A1.50007,1.50007,0,0,1,27.2832,28.71875Z"/><path d="M24.5752,30.88379a1.50007,1.50007,0,0,1-1.5-1.5v-2.165a1.5,1.5,0,0,1,3,0v2.165A1.50007,1.50007,0,0,1,24.5752,30.88379Z"/><path d="M28.5332,30.88379a1.50007,1.50007,0,0,1-1.5-1.5v-2.165a1.5,1.5,0,0,1,3,0v2.165A1.50007,1.50007,0,0,1,28.5332,30.88379Z"/><path d="M18.07373,23.58008a1.5,1.5,0,0,1-.9082-2.69434l2.38916-1.81445A1.49983,1.49983,0,0,1,21.36914,21.46L18.98,23.27441A1.49248,1.49248,0,0,1,18.07373,23.58008Z"/></svg>