<svg xmlns="http://www.w3.org/2000/svg" viewBox="0 0 40 40"><title>alo_activities-resources-tiny</title><path d="M20,40A20,20,0,1,1,40,20,20.02292,20.02292,0,0,1,20,40ZM20,3A17,17,0,1,0,37,20,17.019,17.019,0,0,0,20,3Z"/><path d="M30,30.2666H10a1.49976,1.49976,0,0,1-1.5-1.5V15.43311a8.17588,8.17588,0,0,1,8.1665-8.1665H23.333a8.176,8.176,0,0,1,8.167,8.1665V28.7666A1.49976,1.49976,0,0,1,30,30.2666Zm-18.5-3h17V15.43311a5.1727,5.1727,0,0,0-5.167-5.1665H16.6665A5.1726,5.1726,0,0,0,11.5,15.43311Z"/><path d="M16.6665,18.6001H10a1.5,1.5,0,0,1,0-3h6.6665a1.5,1.5,0,0,1,0,3Z"/><path d="M30,18.6001H23.333a1.5,1.5,0,0,1,0-3H30a1.5,1.5,0,0,1,0,3Z"/><path d="M20,25.2666a4.83918,4.83918,0,0,1-4.8335-4.8335v-3.333a1.5,1.5,0,0,1,3,0v3.333a1.83325,1.83325,0,1,0,3.6665,0v-3.333a1.5,1.5,0,0,1,3,0v3.333A4.83876,4.83876,0,0,1,20,25.2666Z"/></svg>