<svg xmlns="http://www.w3.org/2000/svg" viewBox="0 0 40 40"><title>alo_activities-meeting-tiny</title><path d="M20,40A20,20,0,1,1,40,20,20.02229,20.02229,0,0,1,20,40ZM20,3A17,17,0,1,0,37,20,17.019,17.019,0,0,0,20,3Z"/><path d="M11.665,23.166a1.50028,1.50028,0,0,1-1.49414-1.39258l-.834-11.666a1.49991,1.49991,0,1,1,2.99219-.21387l.834,11.665a1.49889,1.49889,0,0,1-1.38867,1.60352C11.7373,23.165,11.70117,23.166,11.665,23.166Z"/><path d="M28.335,23.166c-.03613,0-.07227-.001-.10937-.00391a1.49889,1.49889,0,0,1-1.38867-1.60352l.834-11.665a1.49991,1.49991,0,1,1,2.99219.21387l-.834,11.666A1.50028,1.50028,0,0,1,28.335,23.166Z"/><path d="M10.002,31.5a1.45467,1.45467,0,0,1-.2959-.0293A1.4988,1.4988,0,0,1,8.5293,29.70605l1.667-8.334A1.49979,1.49979,0,1,1,13.1377,21.96l-1.667,8.334A1.50016,1.50016,0,0,1,10.002,31.5Z"/><path d="M29.998,31.5a1.50016,1.50016,0,0,1-1.46875-1.20605l-1.667-8.334a1.49979,1.49979,0,0,1,2.94141-.58789l1.667,8.334a1.4988,1.4988,0,0,1-1.17676,1.76465A1.5274,1.5274,0,0,1,29.998,31.5Z"/><path d="M16.667,28.166h-6a1.5,1.5,0,1,1,0-3h6a1.5,1.5,0,0,1,0,3Z"/><path d="M18,23.166H11.667a1.5,1.5,0,1,1,0-3H18a1.5,1.5,0,0,1,0,3Z"/><path d="M29.333,28.166h-6a1.5,1.5,0,0,1,0-3h6a1.5,1.5,0,0,1,0,3Z"/><path d="M28.333,23.166H22a1.5,1.5,0,0,1,0-3h6.333a1.5,1.5,0,0,1,0,3Z"/><path d="M16.667,31.5a1.50039,1.50039,0,0,1-1.5-1.5V21.666a1.5,1.5,0,0,1,3,0V30A1.50039,1.50039,0,0,1,16.667,31.5Z"/><path d="M23.333,31.5a1.50039,1.50039,0,0,1-1.5-1.5V21.666a1.5,1.5,0,0,1,3,0V30A1.50039,1.50039,0,0,1,23.333,31.5Z"/></svg>