<svg xmlns="http://www.w3.org/2000/svg" viewBox="0 0 40 40"><title>alo_icon_activity_biking-tiny</title><path d="M20,40A20,20,0,1,1,40,20,20.02292,20.02292,0,0,1,20,40ZM20,3A17,17,0,1,0,37,20,17.019,17.019,0,0,0,20,3Z"/><path d="M26.67139,22.57617a1.50079,1.50079,0,0,1-1.40967-.9873l-2.894-7.95117A1.50017,1.50017,0,0,1,25.187,12.61133l2.894,7.95117a1.501,1.501,0,0,1-1.40967,2.01367Z"/><path d="M26.67139,25.90918a4.83325,4.83325,0,1,1,4.8335-4.8335A4.83876,4.83876,0,0,1,26.67139,25.90918Zm0-6.6665a1.83325,1.83325,0,1,0,1.8335,1.833A1.83506,1.83506,0,0,0,26.67139,19.24268Z"/><path d="M13.33838,25.90918a4.83325,4.83325,0,1,1,4.833-4.8335A4.83918,4.83918,0,0,1,13.33838,25.90918Zm0-6.6665a1.83325,1.83325,0,1,0,1.833,1.833A1.83516,1.83516,0,0,0,13.33838,19.24268Z"/><path d="M19.33838,22.57568h-6a1.5,1.5,0,0,1,0-3h6a1.5,1.5,0,0,1,0,3Z"/><path d="M19.33936,22.57568a1.5,1.5,0,0,1-.89893-2.70117l5.76465-4.30957a1.49971,1.49971,0,1,1,1.7959,2.40234l-5.76465,4.30957A1.491,1.491,0,0,1,19.33936,22.57568Z"/><path d="M18.25879,18.61084a1.50056,1.50056,0,0,1-1.40967-.98779l-1.2002-3.29834a1.49971,1.49971,0,0,1,2.81836-1.02637l1.20117,3.29932a1.50121,1.50121,0,0,1-1.40967,2.01318Z"/><path d="M18.25684,18.61035a1.5,1.5,0,0,1-.23047-2.98193l6.59326-1.03467a1.5,1.5,0,0,1,.46484,2.96387l-6.59326,1.03467A1.525,1.525,0,0,1,18.25684,18.61035Z"/><path d="M18.72461,15.31152h-3.333a1.5,1.5,0,0,1,0-3h3.333a1.5,1.5,0,0,1,0,3Z"/><path d="M27.77734,14.62451h-4a1.5,1.5,0,0,1,0-3h4a1.5,1.5,0,0,1,0,3Z"/></svg>