<svg xmlns="http://www.w3.org/2000/svg" viewBox="0 0 40 40"><title>alo_activities-recipes-tiny</title><path d="M20,40A20,20,0,1,1,40,20,20.0226,20.0226,0,0,1,20,40ZM20,3A17,17,0,1,0,37,20,17.019,17.019,0,0,0,20,3Z"/><path d="M24.97266,30.75H15.02734a2.69737,2.69737,0,0,1-2.69385-2.69434V20a1.50007,1.50007,0,0,1,1.5-1.5h12.333a1.50007,1.50007,0,0,1,1.5,1.5v8.05566A2.69737,2.69737,0,0,1,24.97266,30.75Zm-9.63916-3h9.333V21.5h-9.333Z"/><path d="M13.8335,23.042H10.75a1.5,1.5,0,0,1,0-3h3.0835a1.5,1.5,0,0,1,0,3Z"/><path d="M29.25,23.042H26.1665a1.5,1.5,0,0,1,0-3H29.25a1.5,1.5,0,0,1,0,3Z"/><path d="M13.93848,16.876a1.49562,1.49562,0,0,1-1.29932-.751,4.58342,4.58342,0,0,1,7.939-4.583,1.50008,1.50008,0,0,1-.54883,2.04883l-5.34082,3.084A1.49936,1.49936,0,0,1,13.93848,16.876Zm2.36084-4.5957a1.603,1.603,0,0,0-.48193.18262,1.586,1.586,0,0,0-.3999.32715Z"/><path d="M16.60986,21.5a1.49828,1.49828,0,0,1-1.30029-.75l-2.66992-4.624a1.49982,1.49982,0,0,1,2.59766-1.5l2.66992,4.624a1.50011,1.50011,0,0,1-1.29736,2.25Z"/><path d="M25.47266,17.97363a2.93906,2.93906,0,0,1-1.48584-.39258,3.27472,3.27472,0,0,1-1.5542-2.71094,5.476,5.476,0,0,1,.76709-3.03613c1.28467-2.22461,3.644-3.19141,5.37012-2.19141a3.274,3.274,0,0,1,1.55469,2.71094,5.476,5.476,0,0,1-.76709,3.03613A4.74514,4.74514,0,0,1,25.47266,17.97363Zm1.57275-5.75a2.158,2.158,0,0,0-1.248,1.11035A1.89055,1.89055,0,0,0,25.5083,15a2.20363,2.20363,0,0,0,1.25146-1.11035,1.89055,1.89055,0,0,0,.28906-1.666Z"/><path d="M22.58887,21.5a1.50011,1.50011,0,0,1-1.29736-2.25l2.147-3.71777a1.49982,1.49982,0,0,1,2.59766,1.5L23.88916,20.75A1.49828,1.49828,0,0,1,22.58887,21.5Z"/></svg>