<svg xmlns="http://www.w3.org/2000/svg" viewBox="0 0 40 40"><title>alo_activities-computer-tiny</title><path d="M20,40A20,20,0,1,1,40,20,20.0226,20.0226,0,0,1,20,40ZM20,3A17,17,0,1,0,37,20,17.019,17.019,0,0,0,20,3Z"/><path d="M26.667,31.5a4.83959,4.83959,0,0,1-4.834-4.8335V20A4.8335,4.8335,0,1,1,31.5,20v6.6665A4.83876,4.83876,0,0,1,26.667,31.5Zm0-13.3335A1.83537,1.83537,0,0,0,24.833,20v6.6665a1.8335,1.8335,0,1,0,3.667,0V20A1.83516,1.83516,0,0,0,26.667,18.1665Z"/><path d="M26.667,18.1665a1.50007,1.50007,0,0,1-1.5-1.5v-2.083a1.5,1.5,0,0,1,3,0v2.083A1.50007,1.50007,0,0,1,26.667,18.1665Z"/><path d="M30,23.1665H23.333a1.5,1.5,0,0,1,0-3H30a1.5,1.5,0,0,1,0,3Z"/><path d="M13.75,24.8335A5.25647,5.25647,0,0,1,8.5,19.583V14.1665a1.5,1.5,0,0,1,3,0V19.583a2.25049,2.25049,0,1,0,4.501,0V14.5835a1.5,1.5,0,0,1,3,0V19.583A5.25668,5.25668,0,0,1,13.75,24.8335Z"/><path d="M26.667,16.0835a1.50007,1.50007,0,0,1-1.5-1.5,3.0835,3.0835,0,1,0-6.167,0,1.5,1.5,0,0,1-3,0,6.0835,6.0835,0,1,1,12.167,0A1.50007,1.50007,0,0,1,26.667,16.0835Z"/></svg>