<svg xmlns="http://www.w3.org/2000/svg" viewBox="0 0 40 40"><title>alo_activities-fitness-tiny</title><path d="M20,40A20,20,0,1,1,40,20,20.0226,20.0226,0,0,1,20,40ZM20,3A17,17,0,1,0,37,20,17.019,17.019,0,0,0,20,3Z"/><path d="M30,21.5H10a1.5,1.5,0,0,1,0-3H30a1.5,1.5,0,0,1,0,3Z"/><path d="M11.3335,24.833a1.50007,1.50007,0,0,1-1.5-1.5V16.6665a1.5,1.5,0,1,1,3,0V23.333A1.50007,1.50007,0,0,1,11.3335,24.833Z"/><path d="M28.6665,24.833a1.50007,1.50007,0,0,1-1.5-1.5V16.6665a1.5,1.5,0,0,1,3,0V23.333A1.50007,1.50007,0,0,1,28.6665,24.833Z"/><path d="M24.6665,28.167a1.50007,1.50007,0,0,1-1.5-1.5V13.3335a1.5,1.5,0,0,1,3,0V26.667A1.50007,1.50007,0,0,1,24.6665,28.167Z"/><path d="M15.3335,28.167a1.50007,1.50007,0,0,1-1.5-1.5V13.3335a1.5,1.5,0,0,1,3,0V26.667A1.50007,1.50007,0,0,1,15.3335,28.167Z"/></svg>