<svg xmlns="http://www.w3.org/2000/svg" viewBox="0 0 40 40"><title>alo_activities-communication-tiny</title><path d="M20,40A20,20,0,1,1,40,20,20.02292,20.02292,0,0,1,20,40ZM20,3A17,17,0,1,0,37,20,17.019,17.019,0,0,0,20,3Z"/><path d="M22.5,32.1167h-5a1.5,1.5,0,0,1,0-3h5a1.5,1.5,0,0,1,0,3Z"/><path d="M20,21.1875a3.5,3.5,0,1,1,3.5-3.5A3.50425,3.50425,0,0,1,20,21.1875Zm0-4a.5.5,0,1,0,.5.5A.50034.50034,0,0,0,20,17.1875Z"/><path d="M24.24268,23.43018a1.5,1.5,0,0,1-1.06055-2.561,4.49895,4.49895,0,0,0,0-6.36279,1.50019,1.50019,0,1,1,2.12109-2.12207,7.50021,7.50021,0,0,1,0,10.60693A1.49667,1.49667,0,0,1,24.24268,23.43018Z"/><path d="M15.75732,23.43018a1.49667,1.49667,0,0,1-1.06055-.439,7.50021,7.50021,0,0,1,0-10.60693,1.50019,1.50019,0,1,1,2.12109,2.12207,4.49895,4.49895,0,0,0,0,6.36279,1.5,1.5,0,0,1-1.06055,2.561Z"/><path d="M27.07129,26.25879a1.5,1.5,0,0,1-1.06055-2.56055,8.501,8.501,0,0,0,0-12.021,1.49984,1.49984,0,0,1,2.12109-2.12109,11.49993,11.49993,0,0,1,0,16.26318A1.49514,1.49514,0,0,1,27.07129,26.25879Z"/><path d="M12.92871,26.25879a1.49514,1.49514,0,0,1-1.06055-.43945,11.49993,11.49993,0,0,1,0-16.26318,1.49984,1.49984,0,0,1,2.12109,2.12109,8.501,8.501,0,0,0,0,12.021,1.5,1.5,0,0,1-1.06055,2.56055Z"/><path d="M20,32.1167a1.49976,1.49976,0,0,1-1.5-1.5V20.1875a1.5,1.5,0,0,1,3,0V30.6167A1.49976,1.49976,0,0,1,20,32.1167Z"/></svg>