<svg xmlns="http://www.w3.org/2000/svg" viewBox="0 0 40 40"><title>alo_icon_activity_story-tiny</title><path d="M20,40A20,20,0,1,1,40,20,20.0226,20.0226,0,0,1,20,40ZM20,3A17,17,0,1,0,37,20,17.019,17.019,0,0,0,20,3Z"/><path d="M22,21.5H18a1.5,1.5,0,0,1,0-3h4a1.5,1.5,0,0,1,0,3Z"/><path d="M22,16.5H18a1.5,1.5,0,0,1,0-3h4a1.5,1.5,0,0,1,0,3Z"/><path d="M22,26.5H18a1.5,1.5,0,0,1,0-3h4a1.5,1.5,0,0,1,0,3Z"/><path d="M13.333,31.5a1.50007,1.50007,0,0,1-1.5-1.5V10a1.50007,1.50007,0,0,1,1.5-1.5H30a1.5,1.5,0,0,1,0,3H14.833V30A1.50007,1.50007,0,0,1,13.333,31.5Z"/><path d="M26.667,31.5H10a1.5,1.5,0,0,1,0-3H25.167V10a1.5,1.5,0,0,1,3,0V30A1.50007,1.50007,0,0,1,26.667,31.5Z"/></svg>