<svg xmlns="http://www.w3.org/2000/svg" viewBox="0 0 40 40"><title>alo_activities-language-tiny</title><path d="M20,40A20,20,0,1,1,40,20,20.02229,20.02229,0,0,1,20,40ZM20,3A17,17,0,1,0,37,20,17.019,17.019,0,0,0,20,3Z"/><path d="M10.5,31A1.5,1.5,0,0,1,9,29.5V16.1665A8.17629,8.17629,0,0,1,17.167,8h6.666A8.17629,8.17629,0,0,1,32,16.1665V19.5a8.17671,8.17671,0,0,1-8.167,8.167H14.4541l-2.89355,2.89355A1.49967,1.49967,0,0,1,10.5,31Zm6.667-20A5.173,5.173,0,0,0,12,16.1665v9.7124l.77246-.77246A1.50061,1.50061,0,0,1,13.833,24.667h10A5.17343,5.17343,0,0,0,29,19.5V16.1665A5.173,5.173,0,0,0,23.833,11Z"/><path d="M23.5,21.334h-6a1.50024,1.50024,0,0,1,0-3.00049h6a1.50024,1.50024,0,0,1,0,3.00049Z"/><path d="M24.501,23.333a1.50032,1.50032,0,0,1-1.34277-.8291L20.5,17.1875l-2.6582,5.31641a1.50017,1.50017,0,0,1-2.68359-1.3418l4-7.99951a1.50032,1.50032,0,0,1,2.68359,0l4,7.99951A1.49986,1.49986,0,0,1,24.501,23.333Z"/></svg>