<svg xmlns="http://www.w3.org/2000/svg" viewBox="0 0 40 40"><title>alo_activities-hiking-tiny</title><path d="M20,40A20,20,0,1,1,40,20,20.0226,20.0226,0,0,1,20,40ZM20,3A17,17,0,1,0,37,20,17.019,17.019,0,0,0,20,3Z"/><path d="M29.38379,30.8833H17.73828a1.50007,1.50007,0,0,1-1.5-1.5,7.32275,7.32275,0,0,1,14.64551,0A1.50007,1.50007,0,0,1,29.38379,30.8833Zm-9.877-3h8.1084a4.32307,4.32307,0,0,0-8.1084,0Z"/><path d="M17.73828,30.8833a1.49514,1.49514,0,0,1-1.06055-.43945l-8.35449-8.355a1.49984,1.49984,0,1,1,2.12109-2.12109l8.35449,8.355a1.5,1.5,0,0,1-1.06055,2.56055Z"/><path d="M22.09375,18.52832a1.49514,1.49514,0,0,1-1.06055-.43945l-4.35547-4.355a1.49945,1.49945,0,0,1,0-2.12109l3.29-3.29a1.49945,1.49945,0,0,1,2.12109,0l4.35547,4.355a1.49945,1.49945,0,0,1,0,2.12109l-3.29,3.29A1.49514,1.49514,0,0,1,22.09375,18.52832Zm-2.23437-5.855,2.23438,2.23389,1.16895-1.16895-2.23437-2.23389Z"/><path d="M23.55957,25.06152a1.50173,1.50173,0,0,1-1.46289-1.17187l-1.4668-6.53271a1.5003,1.5003,0,0,1,2.92773-.65723l1.4668,6.53271a1.50343,1.50343,0,0,1-1.46484,1.8291Z"/><path d="M19.83984,22.19092a1.5002,1.5002,0,0,1-.32812-2.96387l2.92773-.65771a1.49993,1.49993,0,1,1,.6582,2.92676l-2.92773.65771A1.51037,1.51037,0,0,1,19.83984,22.19092Z"/><path d="M9.38379,22.52832a1.5,1.5,0,0,1-1.06055-2.56055l8.35449-8.355a1.49984,1.49984,0,1,1,2.12109,2.12109l-8.35449,8.355A1.49514,1.49514,0,0,1,9.38379,22.52832Z"/></svg>