<svg xmlns="http://www.w3.org/2000/svg" viewBox="0 0 40 40"><title>alo_activities-celebration-tiny</title><path d="M20,40A20,20,0,1,1,40,20,20.0226,20.0226,0,0,1,20,40ZM20,3A17,17,0,1,0,37,20,17.019,17.019,0,0,0,20,3Z"/><path d="M23.13281,28.7832c-4.82227,0-7.75-8.27637-7.75-11.9165a7.75,7.75,0,1,1,15.5,0C30.88281,20.50684,27.95508,28.7832,23.13281,28.7832Zm0-16.6665a4.7554,4.7554,0,0,0-4.75,4.75c0,3.30811,2.69922,8.9165,4.75,8.9165s4.75-5.6084,4.75-8.9165A4.7554,4.7554,0,0,0,23.13281,12.1167Z"/><path d="M23.13281,32.1167a1.50007,1.50007,0,0,1-1.5-1.5V27.2832a1.5,1.5,0,1,1,3,0v3.3335A1.50007,1.50007,0,0,1,23.13281,32.1167Z"/><path d="M13.5498,26.561c-3.46,0-5.666-5.54492-5.666-8.44434A5.66435,5.66435,0,0,1,18.22266,14.915,1.49956,1.49956,0,1,1,15.75,16.6123a2.665,2.665,0,0,0-4.86621,1.50439c0,2.13574,1.77148,5.44434,2.666,5.44434.54785,0,1.79-1.54443,2.415-3.87256a1.49962,1.49962,0,1,1,2.89648.77832C18.10742,23.27783,16.2627,26.561,13.5498,26.561Z"/><path d="M13.5498,28.7832a1.50007,1.50007,0,0,1-1.5-1.5V25.061a1.5,1.5,0,0,1,3,0V27.2832A1.50007,1.50007,0,0,1,13.5498,28.7832Z"/></svg>