<svg xmlns="http://www.w3.org/2000/svg" viewBox="0 0 40 40"><title>alo_icon_activity_cinema-tiny</title><path d="M20,40A20,20,0,1,1,40,20,20.0226,20.0226,0,0,1,20,40ZM20,3A17,17,0,1,0,37,20,17.019,17.019,0,0,0,20,3Z"/><path d="M22.3252,28.7832h-8.375a4.83876,4.83876,0,0,1-4.8335-4.833V20.6167a4.83918,4.83918,0,0,1,4.8335-4.8335h8.375a4.83918,4.83918,0,0,1,4.8335,4.8335v3.3335A4.83876,4.83876,0,0,1,22.3252,28.7832Zm-8.375-10a1.83527,1.83527,0,0,0-1.8335,1.8335v3.3335a1.83516,1.83516,0,0,0,1.8335,1.833h8.375a1.83516,1.83516,0,0,0,1.8335-1.833V20.6167a1.83527,1.83527,0,0,0-1.8335-1.8335Z"/><path d="M13.94971,18.7832a4.83325,4.83325,0,1,1,4.8335-4.833A4.83834,4.83834,0,0,1,13.94971,18.7832Zm0-6.6665a1.83325,1.83325,0,1,0,1.8335,1.8335A1.83516,1.83516,0,0,0,13.94971,12.1167Z"/><path d="M22.3252,18.7832a4.83325,4.83325,0,1,1,4.8335-4.833A4.83876,4.83876,0,0,1,22.3252,18.7832Zm0-6.6665a1.83325,1.83325,0,1,0,1.8335,1.8335A1.83527,1.83527,0,0,0,22.3252,12.1167Z"/><path d="M30.02734,28.15137a2.32842,2.32842,0,0,1-1.64941-.68164l-3.53564-3.53613a2.33346,2.33346,0,0,1,.00049-3.30078l3.53467-3.53467a2.39035,2.39035,0,0,1,3.30078.00049,1.5006,1.5006,0,0,1,.43848,1.06006V26.4082a1.50061,1.50061,0,0,1-.43945,1.06055A2.3248,2.3248,0,0,1,30.02734,28.15137Zm.58936-1.74316h0Zm-3.18213-4.125,1.68213,1.68262V20.60156Z"/><path d="M18.1377,32.11621a1.50007,1.50007,0,0,1-1.5-1.5v-3.333a1.5,1.5,0,0,1,3,0v3.333A1.50007,1.50007,0,0,1,18.1377,32.11621Z"/><path d="M25.6586,22.28333" style="fill:none;stroke:#000;stroke-linecap:round;stroke-linejoin:round;stroke-width:3px"/><path d="M22.32527,22.28333" style="fill:none;stroke:#000;stroke-linecap:round;stroke-linejoin:round;stroke-width:3px"/><path d="M18.97119,23.7832h-3.667a1.5,1.5,0,1,1,0-3h3.667a1.5,1.5,0,0,1,0,3Z"/></svg>