<svg xmlns="http://www.w3.org/2000/svg" viewBox="0 0 40 40"><title>alo_activities-community-tiny</title><path d="M20,40A20,20,0,1,1,40,20,20.02229,20.02229,0,0,1,20,40ZM20,3A17,17,0,1,0,37,20,17.019,17.019,0,0,0,20,3Z"/><path d="M20,27.38086a1.50039,1.50039,0,0,1-1.5-1.5V22.61621a1.5,1.5,0,0,1,3,0v3.26465A1.50039,1.50039,0,0,1,20,27.38086Z"/><path d="M22.22363,31.64453a1.49839,1.49839,0,0,1-1.33105-.80664l-2.22266-4.26367a1.5,1.5,0,1,1,2.66016-1.38672l2.22266,4.26367a1.5,1.5,0,0,1-1.3291,2.19336Z"/><path d="M17.77637,31.64453a1.5,1.5,0,0,1-1.3291-2.19336l2.22266-4.26367a1.5,1.5,0,1,1,2.66016,1.38672l-2.22266,4.26367A1.50024,1.50024,0,0,1,17.77637,31.64453Z"/><path d="M20,27.38086a7.57731,7.57731,0,0,1-1.50977-.15234,7.49406,7.49406,0,0,1-2.68457-1.12891,1.50026,1.50026,0,0,1,1.67969-2.48633,4.46111,4.46111,0,0,0,1.60645.67578,4.58643,4.58643,0,0,0,1.81641,0,4.43482,4.43482,0,0,0,1.60645-.67578,1.50026,1.50026,0,0,1,1.67969,2.48633A7.48068,7.48068,0,0,1,20,27.38086Z"/><path d="M25.98828,21.79883c-.03613,0-.07227-.001-.1084-.00391a1.5,1.5,0,0,1-1.38965-1.60254,4.53754,4.53754,0,0,0-.02246-.86914,4.53077,4.53077,0,0,0-1.10352-2.43311,4.482,4.482,0,0,0-1.38965-1.05322,1.50025,1.50025,0,1,1,1.31445-2.69727,7.48123,7.48123,0,0,1,3.20605,2.99072,7.46141,7.46141,0,0,1,.9873,4.2749A1.49972,1.49972,0,0,1,25.98828,21.79883Z"/><path d="M14.01172,21.79883a1.49977,1.49977,0,0,1-1.49414-1.394,7.52557,7.52557,0,0,1,1.87207-5.50342,7.47444,7.47444,0,0,1,2.32129-1.76172,1.50025,1.50025,0,1,1,1.31445,2.69727,4.49252,4.49252,0,0,0-1.39062,1.05371,4.63261,4.63261,0,0,0-.53223.74072,4.56171,4.56171,0,0,0-.375.83154,4.4928,4.4928,0,0,0-.21777,1.729,1.50075,1.50075,0,0,1-1.38965,1.603C14.084,21.79688,14.04785,21.79883,14.01172,21.79883Z"/><path d="M20,27.38086a1.50039,1.50039,0,0,1-1.5-1.5V22.61621a1.5,1.5,0,0,1,3,0v3.26465A1.50039,1.50039,0,0,1,20,27.38086Z"/><path d="M22.22363,31.64453a1.49839,1.49839,0,0,1-1.33105-.80664l-2.22266-4.26367a1.5,1.5,0,1,1,2.66016-1.38672l2.22266,4.26367a1.5,1.5,0,0,1-1.3291,2.19336Z"/><path d="M17.77637,31.64453a1.5,1.5,0,0,1-1.3291-2.19336l2.22266-4.26367a1.5,1.5,0,1,1,2.66016,1.38672l-2.22266,4.26367A1.50024,1.50024,0,0,1,17.77637,31.64453Z"/><path d="M22.37012,20.01367a1.50031,1.50031,0,0,1-.751-2.79932L24.44629,15.582a1.49982,1.49982,0,1,1,1.5,2.59766L23.11914,19.812A1.49094,1.49094,0,0,1,22.37012,20.01367Z"/><path d="M25.19531,18.38086a1.49966,1.49966,0,0,1-1.26465-2.30518L26.51172,12.019A1.5,1.5,0,1,1,29.043,13.62939L26.46191,17.686A1.49958,1.49958,0,0,1,25.19531,18.38086Z"/><path d="M25.19531,18.38086a1.5,1.5,0,0,1-.06348-2.99854l4.80371-.207a1.49992,1.49992,0,1,1,.12891,2.99707l-4.80371.207C25.23926,18.38037,25.2168,18.38086,25.19531,18.38086Z"/><path d="M25.19531,18.38086a1.49966,1.49966,0,0,1-1.26465-2.30518L26.51172,12.019A1.5,1.5,0,1,1,29.043,13.62939L26.46191,17.686A1.49958,1.49958,0,0,1,25.19531,18.38086Z"/><path d="M25.19531,18.38086a1.5,1.5,0,0,1-.06348-2.99854l4.80371-.207a1.49992,1.49992,0,1,1,.12891,2.99707l-4.80371.207C25.23926,18.38037,25.2168,18.38086,25.19531,18.38086Z"/><path d="M17.62988,20.01367a1.49094,1.49094,0,0,1-.749-.20166l-2.82715-1.63232a1.49982,1.49982,0,1,1,1.5-2.59766l2.82715,1.63232a1.50031,1.50031,0,0,1-.751,2.79932Z"/><path d="M14.80469,18.38086c-.02148,0-.043-.00049-.06543-.00146l-4.80371-.20654a1.49992,1.49992,0,1,1,.12891-2.99707l4.80371.20654a1.5,1.5,0,0,1-.06348,2.99854Z"/><path d="M14.80469,18.38086a1.49958,1.49958,0,0,1-1.2666-.69482L10.957,13.62939A1.5,1.5,0,1,1,13.48828,12.019l2.58105,4.05664a1.49966,1.49966,0,0,1-1.26465,2.30518Z"/><path d="M14.80469,18.38086c-.02148,0-.043-.00049-.06543-.00146l-4.80371-.20654a1.49992,1.49992,0,1,1,.12891-2.99707l4.80371.20654a1.5,1.5,0,0,1-.06348,2.99854Z"/><path d="M14.80469,18.38086a1.49958,1.49958,0,0,1-1.2666-.69482L10.957,13.62939A1.5,1.5,0,1,1,13.48828,12.019l2.58105,4.05664a1.49966,1.49966,0,0,1-1.26465,2.30518Z"/></svg>