<svg xmlns="http://www.w3.org/2000/svg" viewBox="0 0 40 40"><title>alo_activities-theater-tiny</title><path d="M20,40A20,20,0,1,1,40,20,20.0226,20.0226,0,0,1,20,40ZM20,3A17,17,0,1,0,37,20,17.019,17.019,0,0,0,20,3Z"/><path d="M15.8335,22.38965a4.80308,4.80308,0,0,1-1.88281-.38184,1.49984,1.49984,0,1,1,1.1709-2.76172,1.84694,1.84694,0,0,0,1.42432,0,1.49965,1.49965,0,1,1,1.16992,2.76172A4.78689,4.78689,0,0,1,15.8335,22.38965Z"/><path d="M15.8335,26.71191a1.52891,1.52891,0,0,1-.33252-.03711A8.95021,8.95021,0,0,1,8.5,17.90039v-5.834a2.33613,2.33613,0,0,1,2.3335-2.333h10a2.33571,2.33571,0,0,1,2.333,2.333v5.834A8.95029,8.95029,0,0,1,16.166,26.6748,1.52891,1.52891,0,0,1,15.8335,26.71191ZM11.5,12.7334v5.167a5.96392,5.96392,0,0,0,4.3335,5.76367,5.96406,5.96406,0,0,0,4.333-5.76367v-5.167Zm9.3335,0h0Z"/><path d="M25.46338,27.67285a1.49406,1.49406,0,0,1-.585-.11914,1.85572,1.85572,0,0,0-1.42432,0A1.49965,1.49965,0,1,1,22.28418,24.792a4.85606,4.85606,0,0,1,3.76514,0,1.4999,1.4999,0,0,1-.58594,2.88086Z"/><path d="M24.1665,32.7334a1.5245,1.5245,0,0,1-.332-.03711,8.9847,8.9847,0,0,1-6.9917-8.53418,1.49977,1.49977,0,0,1,1.46-1.53906,1.47509,1.47509,0,0,1,1.53906,1.459A5.98924,5.98924,0,0,0,24.166,29.68555,6.04537,6.04537,0,0,0,28.5,23.92188v-5.167H21.6665a1.5,1.5,0,0,1,0-3h7.5a2.33613,2.33613,0,0,1,2.3335,2.333v5.834a8.94853,8.94853,0,0,1-7.00146,8.77441A1.5245,1.5245,0,0,1,24.1665,32.7334Zm5-13.97852h0Z"/><path d="M13.6665,17.97266a1.50007,1.50007,0,0,1-1.5-1.5v-1.5a1.5,1.5,0,0,1,3,0v1.5A1.50007,1.50007,0,0,1,13.6665,17.97266Z"/><path d="M18,17.97266a1.50007,1.50007,0,0,1-1.5-1.5v-1.5a1.5,1.5,0,0,1,3,0v1.5A1.50007,1.50007,0,0,1,18,17.97266Z"/><path d="M22,23.99414a1.50007,1.50007,0,0,1-1.5-1.5v-1.5a1.5,1.5,0,1,1,3,0v1.5A1.50007,1.50007,0,0,1,22,23.99414Z"/><path d="M26.3335,23.99414a1.50007,1.50007,0,0,1-1.5-1.5v-1.5a1.5,1.5,0,0,1,3,0v1.5A1.50007,1.50007,0,0,1,26.3335,23.99414Z"/></svg>