<svg id="Elements" xmlns="http://www.w3.org/2000/svg" viewBox="0 0 500 500"><path d="M386,195a55.00024,55.00024,0,1,0,55,55A55.06223,55.06223,0,0,0,386,195Zm0,90.00049A35.00024,35.00024,0,1,1,421,250,35.04,35.04,0,0,1,386,285.00049Z"/><path d="M295.73242,285.01807a35.33516,35.33516,0,0,1-17.24023-4.71191h-0.00012a35.12146,35.12146,0,0,1-17.45691-30.31494c-0.00018-.23108-0.01953-0.45728-0.03516-0.68439V115.05908a10.00024,10.00024,0,0,0-20.00049,0V250.06055a34.98195,34.98195,0,0,1-52.50732,30.24561h-0.00012a35.12146,35.12146,0,0,1-17.45691-30.31494,10.0927,10.0927,0,0,0-.063-1.09021,55.04451,55.04451,0,1,0-27.94073,48.96985c0.15613-.07959.31458-0.15088,0.46814-0.2395a35.1268,35.1268,0,0,1,34.99219.03516c0.20386,0.11743.416,0.20508,0.62427,0.30664a55.151,55.151,0,0,0,54.36646-.31152l0.00513-.0033,0.00317-.00159a55.08075,55.08075,0,0,0,17.5238-16.09473A54.73473,54.73473,0,0,0,268.5,297.63135l0.001,0.00049,0.00677,0.00439a55.37335,55.37335,0,0,0,27.02148,7.37988c0.03516,0.001.06836,0.001,0.10352,0.001A9.99977,9.99977,0,0,0,295.73242,285.01807ZM81,250a35,35,0,1,1,35,35.00049A35.03963,35.03963,0,0,1,81,250Z"/></svg>