<?xml version="1.0" encoding="utf-8"?>
<!-- Generator: Adobe Illustrator 19.2.1, SVG Export Plug-In . SVG Version: 6.00 Build 0)  -->
<svg version="1.0" id="Layer_1" xmlns="http://www.w3.org/2000/svg" xmlns:xlink="http://www.w3.org/1999/xlink" x="0px" y="0px"
	 viewBox="0 0 100 100" enable-background="new 0 0 100 100" xml:space="preserve">
<g id="XMLID_101_">
	<path id="XMLID_102_" d="M35,39.3c3.4,0,6.2-2.8,6.2-6.2s-2.8-6.2-6.2-6.2s-6.2,2.8-6.2,6.2S31.6,39.3,35,39.3z M35,28.9
		c2.3,0,4.2,1.9,4.2,4.2s-1.9,4.2-4.2,4.2c-2.3,0-4.2-1.9-4.2-4.2S32.7,28.9,35,28.9z"/>
	<path id="XMLID_105_" d="M65.8,34.3c3.4,0,6.2-2.8,6.2-6.2s-2.8-6.2-6.2-6.2c-3.4,0-6.2,2.8-6.2,6.2S62.4,34.3,65.8,34.3z
		 M65.8,23.9c2.3,0,4.2,1.9,4.2,4.2s-1.9,4.2-4.2,4.2c-2.3,0-4.2-1.9-4.2-4.2S63.5,23.9,65.8,23.9z"/>
	<path id="XMLID_108_" d="M83.3,36c-0.6-0.6-1.3-0.9-2.2-0.9l-23.6,0l0,0c-0.2,0-4.2,0-7.7,2.7c-3,2.3-6.5,2.3-6.5,2.3
		c-4.2,0-9.9,0-23.6,0c-1.7,0-3.1,1.4-3.1,3.1V44c0,1.7,1.4,3.1,3.1,3.1h7v28.8c0,1.7,1.4,3.1,3.1,3.1h0.8c1.7,0,3.1-1.4,3.1-3.1
		V62.6h2.7v13.2c0,1.7,1.4,3.1,3.1,3.1h0.8c1.7,0,3.1-1.4,3.1-3.1V47c0.2,0,4.2,0,7.7-2.7c3-2.2,6.5-2.3,6.5-2.3v33.8
		c0,1.7,1.4,3.1,3.1,3.1h0.8c1.7,0,3.1-1.4,3.1-3.1V57.6h2.7v18.2c0,1.7,1.4,3.1,3.1,3.1h0.8c1.7,0,3.1-1.4,3.1-3.1V42h7
		c1.7,0,3.1-1.4,3.1-3.1v-0.8C84.2,37.3,83.9,36.6,83.3,36z M82.2,39c0,0.6-0.5,1.1-1.1,1.1h-9v35.8c0,0.6-0.5,1.1-1.1,1.1h-0.8
		c-0.6,0-1.1-0.5-1.1-1.1V55.6h-6.7v20.2c0,0.6-0.5,1.1-1.1,1.1h-0.8c-0.6,0-1.1-0.5-1.1-1.1V40l-2,0l0,0c-0.2,0-4.2,0-7.7,2.7
		c-3,2.3-6.5,2.3-6.5,2.3l-2,0v30.8c0,0.6-0.5,1.1-1.1,1.1h-0.8c-0.6,0-1.1-0.5-1.1-1.1V60.6h-6.7v15.2c0,0.6-0.5,1.1-1.1,1.1h-0.8
		c-0.6,0-1.1-0.5-1.1-1.1V45h-9c-0.6,0-1.1-0.5-1.1-1.1v-0.8c0-0.6,0.5-1.1,1.1-1.1c0,0,14.5,0,23.6,0v0c0.2,0,4.2,0,7.7-2.7
		c3-2.3,6.5-2.3,6.5-2.3l0,0h23.6c0.3,0,0.5,0.1,0.7,0.3c0.2,0.2,0.3,0.5,0.3,0.7V39z"/>
</g>
</svg>
