<?xml version="1.0" encoding="utf-8"?>
<!-- Generator: Adobe Illustrator 19.0.0, SVG Export Plug-In . SVG Version: 6.00 Build 0)  -->
<!DOCTYPE svg PUBLIC "-//W3C//DTD SVG 1.0//EN" "http://www.w3.org/TR/2001/REC-SVG-20010904/DTD/svg10.dtd">
<svg version="1.0" id="Elements" xmlns="http://www.w3.org/2000/svg" xmlns:xlink="http://www.w3.org/1999/xlink" x="0px" y="0px"
	 viewBox="0 0 100 100" style="enable-background:new 0 0 100 100;" xml:space="preserve">
<g id="XMLID_1_">
	<path id="XMLID_18_" d="M35,31h20c0.6,0,1-0.4,1-1s-0.4-1-1-1H35c-0.6,0-1,0.4-1,1S34.4,31,35,31z"/>
	<path id="XMLID_21_" d="M35,51h20c0.6,0,1-0.4,1-1s-0.4-1-1-1H35c-0.6,0-1,0.4-1,1S34.4,51,35,51z"/>
	<path id="XMLID_22_" d="M65,39H35c-0.6,0-1,0.4-1,1s0.4,1,1,1h30c0.6,0,1-0.4,1-1S65.6,39,65,39z"/>
	<path id="XMLID_23_" d="M65,44H35c-0.6,0-1,0.4-1,1s0.4,1,1,1h30c0.6,0,1-0.4,1-1S65.6,44,65,44z"/>
	<path id="XMLID_24_" d="M65,54H35c-0.6,0-1,0.4-1,1s0.4,1,1,1h30c0.6,0,1-0.4,1-1S65.6,54,65,54z"/>
	<path id="XMLID_25_" d="M65,59H35c-0.6,0-1,0.4-1,1s0.4,1,1,1h30c0.6,0,1-0.4,1-1S65.6,59,65,59z"/>
	<path id="XMLID_26_" d="M65,64H35c-0.6,0-1,0.4-1,1s0.4,1,1,1h30c0.6,0,1-0.4,1-1S65.6,64,65,64z"/>
	<path id="XMLID_27_" d="M65,69H35c-0.6,0-1,0.4-1,1s0.4,1,1,1h30c0.6,0,1-0.4,1-1S65.6,69,65,69z"/>
	<path id="XMLID_30_" d="M75,19H35c-3.3,0-6,2.7-6,6v49h-9c-0.6,0-1,0.4-1,1c0,3.3,2.7,6,6,6h40c3.3,0,6-2.7,6-6V26h9
		c0.6,0,1-0.4,1-1C81,21.7,78.3,19,75,19z M78.9,24h-7.7c0.4-1.7,2-3,3.9-3S78.4,22.3,78.9,24z M21.1,76h7.7c-0.4,1.7-2,3-3.9,3
		S21.6,77.7,21.1,76z M65,79H29.5c1-1.1,1.5-2.5,1.5-4V25c0-2.2,1.8-4,4-4h35.5c-1,1.1-1.5,2.5-1.5,4v50C69,77.2,67.2,79,65,79z"/>
</g>
</svg>
