<?xml version="1.0" encoding="utf-8"?>
<!-- Generator: Adobe Illustrator 19.2.1, SVG Export Plug-In . SVG Version: 6.00 Build 0)  -->
<svg version="1.0" id="Layer_1" xmlns="http://www.w3.org/2000/svg" xmlns:xlink="http://www.w3.org/1999/xlink" x="0px" y="0px"
	 viewBox="0 0 100 100" enable-background="new 0 0 100 100" xml:space="preserve">
<g id="XMLID_167_">
	<path id="XMLID_168_" d="M35.1,42.5c-1.7,0-3-1.4-3-3s1.4-3,3-3s3,1.4,3,3S36.8,42.5,35.1,42.5z M35.1,38.5c-0.6,0-1,0.5-1,1
		s0.5,1,1,1c0.6,0,1-0.5,1-1S35.7,38.5,35.1,38.5z"/>
	<path id="XMLID_171_" d="M27.2,36.2c-1.7,0-3-1.4-3-3c0-1.7,1.4-3,3-3s3,1.4,3,3C30.3,34.9,28.9,36.2,27.2,36.2z M27.2,32.2
		c-0.6,0-1,0.5-1,1s0.5,1,1,1c0.6,0,1-0.5,1-1S27.8,32.2,27.2,32.2z"/>
	<path id="XMLID_174_" d="M43.2,49.2c-1.7,0-3-1.4-3-3s1.4-3,3-3s3,1.4,3,3S44.9,49.2,43.2,49.2z M43.2,45.1c-0.6,0-1,0.5-1,1
		s0.5,1,1,1c0.6,0,1-0.5,1-1S43.8,45.1,43.2,45.1z"/>
	<path id="XMLID_177_" d="M65.2,64.7c-1.7,0-3-1.4-3-3s1.4-3,3-3c1.7,0,3,1.4,3,3S66.8,64.7,65.2,64.7z M65.2,60.6c-0.6,0-1,0.5-1,1
		s0.5,1,1,1c0.6,0,1-0.5,1-1S65.7,60.6,65.2,60.6z"/>
	<path id="XMLID_180_" d="M59.3,56.5c-1.7,0-3-1.4-3-3s1.4-3,3-3s3,1.4,3,3S61,56.5,59.3,56.5z M59.3,52.4c-0.6,0-1,0.5-1,1
		s0.5,1,1,1c0.6,0,1-0.5,1-1S59.9,52.4,59.3,52.4z"/>
	<path id="XMLID_183_" d="M56.9,70.9c-1.7,0-3-1.4-3-3s1.4-3,3-3s3,1.4,3,3S58.6,70.9,56.9,70.9z M56.9,66.8c-0.6,0-1,0.5-1,1
		s0.5,1,1,1s1-0.5,1-1S57.5,66.8,56.9,66.8z"/>
	<path id="XMLID_186_" d="M73.7,58.9c-1.7,0-3-1.4-3-3s1.4-3,3-3s3,1.4,3,3S75.4,58.9,73.7,58.9z M73.7,54.9c-0.6,0-1,0.5-1,1
		s0.5,1,1,1s1-0.5,1-1S74.3,54.9,73.7,54.9z"/>
	<path id="XMLID_189_" d="M71.3,73.3c-1.7,0-3-1.4-3-3s1.4-3,3-3s3,1.4,3,3S72.9,73.3,71.3,73.3z M71.3,69.2c-0.6,0-1,0.5-1,1
		s0.5,1,1,1c0.6,0,1-0.5,1-1S71.8,69.2,71.3,69.2z"/>
	<path id="XMLID_192_" d="M25.2,54.4c-1.4,0-2.6-1.1-2.7-2.5l-2.3-22c-0.1-0.7,0.2-1.5,0.6-2c0.5-0.6,1.2-0.9,1.9-1l22-2.3
		c0.1,0,0.2,0,0.3,0c1.5,0,2.6,1.1,2.8,2.5l2.3,22c0.1,0.7-0.2,1.5-0.6,2c-0.5,0.6-1.2,0.9-1.9,1l-22,2.3H25.2z M22.8,28.9
		c-0.2,0-0.4,0.1-0.5,0.3c-0.2,0.2-0.2,0.4-0.2,0.6l2.3,22.1c0,0.3,0.3,0.7,0.8,0.7l22.1-2.3c0.2,0,0.4-0.1,0.5-0.3
		c0.2-0.2,0.2-0.4,0.2-0.6l-2.3-22.1c0-0.4-0.3-0.7-0.8-0.7h-0.1L22.8,28.9z"/>
	<path id="XMLID_195_" d="M74.2,77.2c-0.2,0-0.4,0-0.6-0.1l-21.7-3.7c-1.5-0.2-2.5-1.7-2.3-3.2l3.7-21.8c0.2-1.3,1.4-2.3,2.8-2.3
		c0.1,0,0.3,0,0.4,0l21.8,3.7c0.8,0.2,1.4,0.6,1.8,1.1c0.5,0.7,0.6,1.4,0.5,2.1l-3.7,21.8C76.7,76.2,75.5,77.2,74.2,77.2z
		 M56.1,48.1c-0.4,0-0.7,0.2-0.8,0.7l-3.7,21.8c0,0.4,0.2,0.8,0.7,0.9l21.8,3.7c0,0,0.1,0,0.1,0c0.4,0,0.7-0.3,0.8-0.7l3.7-21.8
		c0.1-0.2,0-0.4-0.2-0.6c-0.1-0.2-0.3-0.3-0.5-0.3l-21.9-3.7L56.1,48.1z"/>
</g>
</svg>
