<?xml version="1.0" encoding="utf-8"?>
<!-- Generator: Adobe Illustrator 19.2.1, SVG Export Plug-In . SVG Version: 6.00 Build 0)  -->
<svg version="1.0" id="Layer_1" xmlns="http://www.w3.org/2000/svg" xmlns:xlink="http://www.w3.org/1999/xlink" x="0px" y="0px"
	 viewBox="0 0 100 100" enable-background="new 0 0 100 100" xml:space="preserve">
<g id="XMLID_146_">
	<path id="XMLID_149_" d="M72,56.9c0-3.5-2.6-6.3-5.9-6.8v-5c0-0.6-0.4-1-1-1H29.8c-0.6,0-1,0.4-1,1v17.6c0,10.3,8.4,18.6,18.6,18.6
		c10,0,18.1-7.9,18.6-17.7C69.4,63.2,72,60.3,72,56.9z M47.5,79.4c-9.2,0-16.6-7.5-16.6-16.6V46.1h33.3v16.6
		C64.1,71.9,56.7,79.4,47.5,79.4z M66.1,61.6v-9.6c2.2,0.5,3.9,2.4,3.9,4.8C70,59.2,68.3,61.2,66.1,61.6z"/>
	<path id="XMLID_148_" d="M43.4,37.9c0.6,0,1-0.4,1-1s-0.4-1-1-1c-1.7,0-3.1-1.4-3.1-3.1c0-1.7,1.4-3.1,3.1-3.1
		c2.8,0,5.1-2.3,5.1-5.1s-2.3-5.1-5.1-5.1c-0.6,0-1,0.4-1,1s0.4,1,1,1c1.7,0,3.1,1.4,3.1,3.1s-1.4,3.1-3.1,3.1
		c-2.8,0-5.1,2.3-5.1,5.1S40.5,37.9,43.4,37.9z"/>
	<path id="XMLID_147_" d="M51.6,21.4c1.7,0,3.1,1.4,3.1,3.1s-1.4,3.1-3.1,3.1c-2.8,0-5.1,2.3-5.1,5.1s2.3,5.1,5.1,5.1
		c0.6,0,1-0.4,1-1s-0.4-1-1-1c-1.7,0-3.1-1.4-3.1-3.1c0-1.7,1.4-3.1,3.1-3.1c2.8,0,5.1-2.3,5.1-5.1s-2.3-5.1-5.1-5.1
		c-0.6,0-1,0.4-1,1S51,21.4,51.6,21.4z"/>
</g>
</svg>
