<?xml version="1.0" encoding="utf-8"?>
<!-- Generator: Adobe Illustrator 19.0.0, SVG Export Plug-In . SVG Version: 6.00 Build 0)  -->
<!DOCTYPE svg PUBLIC "-//W3C//DTD SVG 1.0//EN" "http://www.w3.org/TR/2001/REC-SVG-20010904/DTD/svg10.dtd">
<svg version="1.0" id="Elements" xmlns="http://www.w3.org/2000/svg" xmlns:xlink="http://www.w3.org/1999/xlink" x="0px" y="0px"
	 viewBox="0 0 100 100" style="enable-background:new 0 0 100 100;" xml:space="preserve">
<g id="XMLID_33_">
	<path id="XMLID_36_" d="M39.4,49.4c-0.9-1.6-2.3-2.9-3.8-3.8c0,0-0.1,0-0.1-0.1C33.9,44.6,32,44,30,44s-3.9,0.6-5.5,1.5
		c0,0-0.1,0-0.1,0.1c-1.6,0.9-2.9,2.3-3.8,3.8c0,0,0,0.1,0,0.1C19.6,51.1,19,53,19,55c0,2,0.6,3.9,1.5,5.5c0,0,0,0.1,0,0.1
		c0.9,1.6,2.3,2.9,3.9,3.8c0,0,0.1,0.1,0.2,0.1C26.2,65.5,28,66,30,66s3.8-0.5,5.4-1.4c0.1,0,0.1-0.1,0.2-0.1
		c1.6-0.9,2.9-2.3,3.9-3.8c0,0,0-0.1,0-0.1c1-1.6,1.5-3.5,1.5-5.5C41,53,40.4,51.1,39.4,49.4C39.5,49.4,39.5,49.4,39.4,49.4z
		 M35,47.5c1,0.7,1.8,1.5,2.5,2.5c-1.5,2.2-3.8,3.6-6.4,3.9C31.4,51.3,32.8,49,35,47.5z M30,46c1.1,0,2.1,0.2,3,0.5
		c-1.3,1.1-2.3,2.4-3,3.9c-0.7-1.5-1.7-2.9-3-3.9C27.9,46.2,28.9,46,30,46z M25,47.5c2.2,1.5,3.6,3.8,3.9,6.4
		c-2.6-0.3-4.9-1.8-6.4-3.9C23.2,49,24,48.2,25,47.5z M21.5,58c-0.3-0.9-0.5-2-0.5-3c0-1.1,0.2-2.1,0.5-3c1.1,1.3,2.4,2.3,3.9,3
		C24,55.7,22.6,56.7,21.5,58z M25,62.5c-1-0.7-1.8-1.5-2.5-2.5c1.5-2.2,3.8-3.6,6.4-3.9C28.6,58.7,27.2,61,25,62.5z M30,64
		c-1.1,0-2.1-0.2-3-0.5c1.3-1.1,2.3-2.4,3-3.9c0.7,1.5,1.7,2.9,3,3.9C32.1,63.8,31.1,64,30,64z M35,62.5c-2.2-1.5-3.6-3.8-3.9-6.4
		c2.6,0.3,4.9,1.8,6.4,3.9C36.8,61,36,61.8,35,62.5z M38.5,58c-1.1-1.3-2.4-2.3-3.9-3c1.5-0.7,2.9-1.7,3.9-3c0.3,0.9,0.5,2,0.5,3
		C39,56.1,38.8,57.1,38.5,58z"/>
	<path id="XMLID_48_" d="M55.4,39.6c0.1,0,0.1-0.1,0.2-0.1c1.6-0.9,2.9-2.3,3.9-3.8c0,0,0-0.1,0-0.1c1-1.6,1.5-3.5,1.5-5.5
		c0-2-0.6-3.9-1.5-5.5c0,0,0-0.1,0-0.1c-0.9-1.6-2.3-2.9-3.8-3.8c0,0-0.1,0-0.1,0C53.9,19.6,52,19,50,19s-3.9,0.6-5.5,1.5
		c0,0-0.1,0-0.1,0.1c-1.6,0.9-2.9,2.3-3.8,3.8c0,0,0,0.1,0,0.1C39.6,26.1,39,28,39,30c0,2,0.6,3.9,1.5,5.5c0,0,0,0.1,0,0.1
		c0.9,1.6,2.3,2.9,3.9,3.8c0,0,0.1,0.1,0.2,0.1C46.2,40.5,48,41,50,41S53.8,40.5,55.4,39.6z M55,37.5c-2.2-1.5-3.6-3.8-3.9-6.4
		c2.6,0.3,4.9,1.8,6.4,3.9C56.8,36,56,36.8,55,37.5z M58.5,27c0.3,0.9,0.5,2,0.5,3c0,1.1-0.2,2.1-0.5,3c-1.1-1.3-2.4-2.3-3.9-3
		C56,29.3,57.4,28.3,58.5,27z M55,22.5c1,0.7,1.8,1.5,2.5,2.5c-1.5,2.2-3.8,3.6-6.4,3.9C51.4,26.3,52.8,24,55,22.5z M50,21
		c1.1,0,2.1,0.2,3,0.5c-1.3,1.1-2.3,2.4-3,3.9c-0.7-1.5-1.7-2.9-3-3.9C47.9,21.2,48.9,21,50,21z M45,22.5c2.2,1.5,3.6,3.8,3.9,6.4
		c-2.6-0.3-4.9-1.8-6.4-3.9C43.2,24,44,23.2,45,22.5z M41.5,33c-0.3-0.9-0.5-2-0.5-3c0-1.1,0.2-2.1,0.5-3c1.1,1.3,2.4,2.3,3.9,3
		C44,30.7,42.6,31.7,41.5,33z M45,37.5c-1-0.7-1.8-1.5-2.5-2.5c1.5-2.2,3.8-3.6,6.4-3.9C48.6,33.7,47.2,36,45,37.5z M50,34.5
		c0.7,1.5,1.7,2.9,3,3.9c-0.9,0.3-2,0.5-3,0.5s-2.1-0.2-3-0.5C48.3,37.4,49.3,36,50,34.5z"/>
	<path id="XMLID_59_" d="M78.4,56.2C78.3,56.2,78.3,56.2,78.4,56.2c-0.2-0.3-0.4-0.5-0.5-0.7c0,0,0-0.1-0.1-0.1c0,0-0.1-0.1-0.1-0.1
		c-0.9-1.1-1.9-2.2-3-3c0,0,0-0.1-0.1-0.1c0,0-0.1,0-0.1-0.1c-0.2-0.2-0.4-0.3-0.6-0.5c0,0-0.1,0-0.1-0.1C71.3,50,68.2,49,65,49
		c-3.2,0-6.3,1-8.8,2.6c0,0-0.1,0-0.1,0.1c-0.2,0.1-0.4,0.3-0.6,0.5c0,0-0.1,0-0.1,0.1c0,0-0.1,0.1-0.1,0.1c-1.1,0.9-2.2,1.9-3,3
		c0,0-0.1,0-0.1,0.1c0,0,0,0.1-0.1,0.1c-0.2,0.2-0.3,0.4-0.5,0.6c0,0,0,0.1-0.1,0.1C50,58.7,49,61.8,49,65c0,3.2,1,6.3,2.6,8.8
		c0,0,0,0.1,0.1,0.1c0.1,0.2,0.3,0.4,0.5,0.6c0,0,0,0.1,0.1,0.1c0,0,0.1,0,0.1,0.1c0.9,1.1,1.9,2.2,3,3c0,0,0,0.1,0.1,0.1
		c0,0,0.1,0,0.1,0.1c0.2,0.1,0.4,0.3,0.6,0.4c0,0,0.1,0,0.1,0.1C58.7,80,61.8,81,65,81c3.2,0,6.2-1,8.7-2.6c0.1,0,0.1-0.1,0.2-0.1
		c0.2-0.1,0.4-0.3,0.6-0.4c0,0,0.1,0,0.1-0.1c0,0,0.1-0.1,0.1-0.1c1.1-0.9,2.2-1.9,3-3c0,0,0.1,0,0.1-0.1c0,0,0-0.1,0.1-0.1
		c0.2-0.2,0.3-0.4,0.5-0.6c0,0,0-0.1,0.1-0.1C80,71.3,81,68.2,81,65C81,61.8,80,58.7,78.4,56.2z M74.2,54.5c0.5,0.4,0.9,0.9,1.3,1.3
		c-0.9,0.6-1.9,1.2-2.9,1.6C73,56.4,73.6,55.4,74.2,54.5z M65,51c2.3,0,4.4,0.6,6.3,1.5c-1.9,1-4.1,1.5-6.3,1.5s-4.3-0.5-6.3-1.5
		C60.6,51.6,62.7,51,65,51z M65,56c2.4,0,4.7-0.5,6.9-1.5c-0.7,1.2-1.3,2.5-1.7,3.8c-3.3,0.9-6.9,0.9-10.2,0c-0.5-1.3-1-2.6-1.7-3.8
		C60.3,55.5,62.6,56,65,56z M60.5,60.5c1.5,0.3,3,0.5,4.5,0.5s3-0.2,4.5-0.5C69.2,62,69,63.5,69,65c0,1.5,0.2,3,0.5,4.5
		c-2.9-0.6-6-0.6-9,0c0.3-1.5,0.5-3,0.5-4.5C61,63.5,60.8,62,60.5,60.5z M55.8,54.5c0.6,0.9,1.2,1.9,1.6,2.9c-1-0.4-2-1-2.9-1.6
		C54.9,55.3,55.3,54.9,55.8,54.5z M52.5,71.3c-1-1.9-1.5-4-1.5-6.3c0-2.3,0.6-4.4,1.5-6.3c1,1.9,1.5,4.1,1.5,6.3
		C54,67.2,53.5,69.3,52.5,71.3z M54.5,58.1c1.2,0.7,2.5,1.3,3.8,1.7c0.5,1.7,0.7,3.4,0.7,5.1c0,1.7-0.2,3.5-0.7,5.1
		c-1.3,0.5-2.6,1-3.8,1.7c1-2.1,1.5-4.5,1.5-6.9C56,62.6,55.5,60.3,54.5,58.1z M55.8,75.5c-0.5-0.4-0.9-0.9-1.3-1.3
		c0.9-0.6,1.9-1.2,2.9-1.6C57,73.6,56.4,74.6,55.8,75.5z M65,79c-2.3,0-4.4-0.6-6.3-1.5c1.9-1,4.1-1.5,6.3-1.5s4.3,0.5,6.3,1.5
		C69.4,78.4,67.3,79,65,79z M65,74c-2.4,0-4.7,0.5-6.9,1.5c0.7-1.2,1.3-2.5,1.7-3.8c3.3-0.9,6.9-0.9,10.2,0c0.5,1.3,1,2.6,1.7,3.8
		C69.7,74.5,67.4,74,65,74z M74.2,75.5c-0.6-0.9-1.2-1.9-1.6-2.9c1,0.4,2,1,2.9,1.6C75.1,74.7,74.7,75.1,74.2,75.5z M75.5,71.9
		c-1.2-0.7-2.5-1.3-3.8-1.7C71.2,68.5,71,66.7,71,65c0-1.7,0.2-3.5,0.7-5.1c1.3-0.5,2.6-1,3.8-1.7c-1,2.1-1.5,4.5-1.5,6.9
		C74,67.4,74.5,69.7,75.5,71.9z M77.5,71.3c-1-1.9-1.5-4.1-1.5-6.3c0-2.2,0.5-4.3,1.5-6.3c1,1.9,1.5,4,1.5,6.3S78.4,69.4,77.5,71.3z
		"/>
</g>
</svg>
