<?xml version="1.0" encoding="utf-8"?>
<!-- Generator: Adobe Illustrator 19.2.1, SVG Export Plug-In . SVG Version: 6.00 Build 0)  -->
<svg version="1.0" id="Layer_1" xmlns="http://www.w3.org/2000/svg" xmlns:xlink="http://www.w3.org/1999/xlink" x="0px" y="0px"
	 viewBox="0 0 100 100" enable-background="new 0 0 100 100" xml:space="preserve">
<path id="XMLID_122_" d="M73.7,69.9c-0.3,0-0.6-0.1-0.8-0.3c-4.1-4.1-10.8-6.9-16.2-6.9c-2.3,0-4.2,0.5-5.7,1.4
	c-0.2,0.1-0.4,0.2-0.6,0.2c-0.2,0-0.5-0.1-0.6-0.2c-0.1,0-0.1,0-0.2-0.1c-1.5-0.9-3.5-1.4-5.7-1.4c-5.4,0-12.1,2.8-16.2,6.9
	c-0.2,0.2-0.5,0.3-0.8,0.3c-0.3,0-0.6-0.1-0.8-0.3c-0.2-0.2-0.3-0.5-0.3-0.8s0.1-0.6,0.3-0.8c3.8-3.7,9.6-6.5,15-7.3
	c-0.2,0-0.4,0-0.6,0c-6.3,0-13.1,2.6-16.5,6.3c-0.2,0.2-0.5,0.4-0.8,0.4c-0.3,0-0.5-0.1-0.7-0.3c-0.2-0.2-0.3-0.5-0.4-0.8
	c0-0.3,0.1-0.6,0.3-0.8c3.2-3.5,9-6.1,14.9-6.8c-0.7-0.1-1.3-0.1-2-0.1c-5.9,0-11,1.9-13.3,5c-0.2,0.3-0.5,0.4-0.9,0.4
	c-0.1,0-0.2,0-0.3-0.1c-0.4-0.1-0.8-0.6-0.8-1V38.7c0-0.2,0.1-0.4,0.2-0.6c2.7-3.9,8.2-6.2,14.9-6.2c6.2,0,11.8,1.9,15,5.2
	c2.9-3.3,8-5.2,14.1-5.2c6.8,0,12.9,2.4,15.9,6.1c0.2,0.2,0.2,0.4,0.2,0.7V63c0,0.5-0.3,0.9-0.7,1c-0.1,0-0.2,0.1-0.4,0.1
	c-0.3,0-0.6-0.1-0.8-0.4c-2.5-3.1-8.1-5.1-14.1-5.1c-0.5,0-1,0-1.4,0c6,0.7,11.9,3.3,15.2,6.9c0.2,0.2,0.3,0.5,0.3,0.8
	c0,0.3-0.1,0.6-0.4,0.8c-0.2,0.2-0.5,0.3-0.7,0.3c-0.3,0-0.6-0.1-0.8-0.4c-3.4-3.7-10.2-6.3-16.5-6.3c-0.5,0-1,0-1.5,0.1
	c5.6,0.6,11.8,3.4,15.8,7.3c0.2,0.2,0.3,0.5,0.3,0.8s-0.1,0.6-0.3,0.8C74.3,69.8,74,69.9,73.7,69.9z M64.6,56.4
	c5.5,0,10.5,1.5,13.9,4l0-21.3c-2.6-3.1-8.1-5-14-5c-5.8,0-10.6,1.9-12.9,5v21.2C54.5,57.8,59.3,56.4,64.6,56.4z M35.5,56.4
	c5.5,0,10.5,1.5,13.9,4V39.1c-2.6-3.1-8.1-5-14-5c-5.8,0-10.6,1.9-12.9,5v21.2C25.5,57.8,30.2,56.4,35.5,56.4z"/>
</svg>
