<?xml version="1.0" encoding="utf-8"?>
<!-- Generator: Adobe Illustrator 19.2.1, SVG Export Plug-In . SVG Version: 6.00 Build 0)  -->
<svg version="1.0" id="Layer_1" xmlns="http://www.w3.org/2000/svg" xmlns:xlink="http://www.w3.org/1999/xlink" x="0px" y="0px"
	 viewBox="0 0 100 100" enable-background="new 0 0 100 100" xml:space="preserve">
<g id="XMLID_111_">
	<path id="XMLID_112_" d="M21.5,74.5c-0.6,0-1-0.4-1-1v-45c0-0.4,0.2-0.7,0.5-0.9c0.1-0.1,0.3-0.1,0.5-0.1c0.2,0,0.4,0.1,0.6,0.2
		l2.4,1.7c0.1,0.1,0.2,0.2,0.3,0.3c0.2,0.3,4.5,7.1,4.5,19.2c0,0.6-0.4,1-1,1h-1.9v23.7c0,0.6-0.4,1-1,1H21.5z M22.5,72.5h1.9V56
		h-1.9V72.5z M22.5,54h1.9v-5.2c0-0.6,0.4-1,1-1h1.9l0-0.1C27,37.9,23.8,32,23.2,30.9l-0.7-0.5V54z"/>
	<path id="XMLID_116_" d="M55.2,76c-5.2,0-10.1-1.5-14.3-4.5l-0.2-0.1v2.1c0,0.6-0.4,1-1,1h-3.9c-0.6,0-1-0.4-1-1v-7.9
		c-0.1-0.1-0.1-0.2-0.2-0.2c-3-4.2-4.6-9.2-4.6-14.4c0-2.2,0.3-4.5,0.9-6.7c-0.2-0.6-0.3-1.1-0.3-1.6L32,28.3c0-0.5,0.5-0.9,1-0.9
		h9.7c0.5,0,1,0.4,1,0.9l0,0.3l0.1-0.1c3.5-1.8,7.5-2.7,11.4-2.7c13.8,0,25.1,11.2,25.1,25.1C80.3,64.7,69.1,76,55.2,76z M55.2,27.8
		c-3.9,0-7.9,1-11.3,3l-0.1,0l1,11.7c0,2.3-1.8,4.2-4,4.2l-0.1,0v22.2l0.1,0c4.1,3.3,9.1,5,14.4,5C68,74,78.3,63.6,78.3,50.9
		C78.3,38.2,68,27.8,55.2,27.8z M36.9,72.5h1.9V56h-1.9V72.5z M32.6,46.2c-0.3,1.6-0.5,3.1-0.5,4.7c0,3.7,0.9,7.3,2.6,10.6l0.2,0
		V46.7l-0.1,0c-0.7,0-1.4-0.2-2-0.6L32.7,46L32.6,46.2z M32.8,42.6c0,1.1,1,2.1,2.1,2.1h1c0.6,0,1,0.4,1,1V54h1.9v-8.3
		c0-0.6,0.4-1,1-1h1c1.1,0,2.1-0.9,2.1-2.1l-1.2-13.2h-1.2v7.3c0,0.6-0.4,1-1,1c-0.6,0-1-0.4-1-1v-7.3h-1.7v7.3c0,0.6-0.4,1-1,1
		s-1-0.4-1-1v-7.3h-1L32.8,42.6z"/>
	<path id="XMLID_153_" d="M52.2,67.6c-0.1,0-0.3,0-0.4,0c-1.5-0.1-3-1.3-4.4-3.4c-2.5-4-4-10.8-2-16.2c3.1-8.1,8.2-8.8,9.9-9.1
		c1.7-0.2,1.9-0.4,2.8-2.2c0.9-1.7,2.2-2.5,3.9-2.5c1.3,0,2.9,0.5,4.8,1.5c3.4,1.8,4.3,5.1,3.9,7.6c2.4,2.3,3.3,5.8,2.4,9.6
		c-1,4.5-4,8-7.4,8.8c-2.8,0.7-5.1,2-7.1,3.3C56.4,66.4,54.4,67.6,52.2,67.6z M62,36.3c-1,0-1.5,0.4-2.1,1.4
		c-1.2,2.2-1.9,2.9-4.3,3.2c-1.5,0.2-5.6,0.8-8.3,7.8c-1.8,4.7-0.4,10.9,1.8,14.4c0.9,1.5,2,2.4,2.8,2.4c0.1,0,0.2,0,0.3,0
		c1.6,0,3.3-1,5.3-2.2c2.2-1.3,4.6-2.8,7.7-3.5c2.7-0.6,5.1-3.6,5.9-7.3c0.7-3.4-0.1-6.4-2.2-8c-0.3-0.2-0.5-0.6-0.4-1
		c0-0.2,0.9-4.2-2.8-6.1C64.2,36.7,62.9,36.3,62,36.3z"/>
	<path id="XMLID_156_" d="M68.2,53.8c-0.4,0-0.8-0.2-0.9-0.6L61.4,40c-0.2-0.5,0-1.1,0.5-1.3c0.1-0.1,0.3-0.1,0.4-0.1
		c0.4,0,0.8,0.2,0.9,0.6l5.9,13.2c0.2,0.5,0,1.1-0.5,1.3C68.5,53.8,68.4,53.8,68.2,53.8z"/>
	<path id="XMLID_157_" d="M63.8,57.5c-0.4,0-0.8-0.2-0.9-0.6L57,43.7c-0.1-0.2-0.1-0.5,0-0.8c0.1-0.2,0.3-0.4,0.5-0.6
		c0.1-0.1,0.3-0.1,0.4-0.1c0.4,0,0.8,0.2,0.9,0.6l5.9,13.2c0.1,0.2,0.1,0.5,0,0.8c-0.1,0.2-0.3,0.4-0.5,0.6
		C64.1,57.5,64,57.5,63.8,57.5z"/>
	<path id="XMLID_158_" d="M59.5,60.4c-0.4,0-0.8-0.2-0.9-0.6l-5.9-13.2c-0.1-0.2-0.1-0.5,0-0.8c0.1-0.2,0.3-0.4,0.5-0.6
		c0.1-0.1,0.3-0.1,0.4-0.1c0.4,0,0.8,0.2,0.9,0.6L60.4,59c0.1,0.2,0.1,0.5,0,0.8c-0.1,0.2-0.3,0.4-0.5,0.6
		C59.7,60.4,59.6,60.4,59.5,60.4z"/>
	<path id="XMLID_159_" d="M55.1,63.2c-0.4,0-0.8-0.2-0.9-0.6l-5.9-13.2c-0.1-0.2-0.1-0.5,0-0.8c0.1-0.2,0.3-0.4,0.5-0.6
		C48.9,48,49,48,49.2,48c0.4,0,0.8,0.2,0.9,0.6L56,61.8c0.1,0.2,0.1,0.5,0,0.8c-0.1,0.2-0.3,0.4-0.5,0.6
		C55.4,63.1,55.2,63.2,55.1,63.2z"/>
</g>
</svg>
