<?xml version="1.0" encoding="utf-8"?>
<!-- Generator: Adobe Illustrator 19.0.0, SVG Export Plug-In . SVG Version: 6.00 Build 0)  -->
<!DOCTYPE svg PUBLIC "-//W3C//DTD SVG 1.0//EN" "http://www.w3.org/TR/2001/REC-SVG-20010904/DTD/svg10.dtd">
<svg version="1.0" id="Elements" xmlns="http://www.w3.org/2000/svg" xmlns:xlink="http://www.w3.org/1999/xlink" x="0px" y="0px"
	 viewBox="0 0 100 100" style="enable-background:new 0 0 100 100;" xml:space="preserve">
<g id="XMLID_12_">
	<path id="XMLID_15_" d="M70.5,78.6h-4.3L51,39.4v-1.5c1.4-0.4,2.5-1.8,2.5-3.3c0-1.9-1.6-3.5-3.5-3.5c-1.9,0-3.5,1.6-3.5,3.5
		c0,1.6,1.1,2.9,2.5,3.3v1.5L33.8,78.6h-4.3c-0.6,0-1,0.4-1,1s0.4,1,1,1h5c0,0,0,0,0,0c0.1,0,0.2,0,0.3-0.1c0,0,0,0,0,0
		c0,0,0.1,0,0.1,0c0.1,0,0.1-0.1,0.1-0.1c0,0,0,0,0,0L50,68.5l14.9,11.9c0,0,0,0,0,0c0,0,0.1,0.1,0.1,0.1c0,0,0.1,0,0.1,0
		c0,0,0,0,0,0c0.1,0,0.2,0.1,0.3,0.1c0,0,0,0,0,0h5c0.6,0,1-0.4,1-1S71.1,78.6,70.5,78.6z M48.5,34.6c0-0.8,0.7-1.5,1.5-1.5
		s1.5,0.7,1.5,1.5s-0.7,1.5-1.5,1.5S48.5,35.4,48.5,34.6z M36.7,76.5l5.5-14.2l6.1,4.9L36.7,76.5z M43,60.3l7-18l7,18l-7,5.6
		L43,60.3z M51.6,67.2l6.1-4.9l5.5,14.2L51.6,67.2z"/>
	<path id="XMLID_20_" d="M69,34.6c0,5.1-2,9.8-5.6,13.4c-0.4,0.4-0.4,1,0,1.4c0.2,0.2,0.5,0.3,0.7,0.3s0.5-0.1,0.7-0.3
		c4-4,6.2-9.2,6.2-14.8s-2.2-10.9-6.2-14.8c-0.4-0.4-1-0.4-1.4,0s-0.4,1,0,1.4C67,24.7,69,29.5,69,34.6z"/>
	<path id="XMLID_21_" d="M35.9,49.7c0.3,0,0.5-0.1,0.7-0.3c0.4-0.4,0.4-1,0-1.4C33,44.4,31,39.6,31,34.6s2-9.8,5.6-13.4
		c0.4-0.4,0.4-1,0-1.4c-0.4-0.4-1-0.4-1.4,0c-4,4-6.2,9.2-6.2,14.8s2.2,10.9,6.2,14.8C35.3,49.6,35.6,49.7,35.9,49.7z"/>
	<path id="XMLID_22_" d="M64,34.6c0,3.7-1.5,7.3-4.1,9.9c-0.4,0.4-0.4,1,0,1.4c0.2,0.2,0.5,0.3,0.7,0.3s0.5-0.1,0.7-0.3
		c3-3,4.7-7,4.7-11.3c0-4.3-1.7-8.3-4.7-11.3c-0.4-0.4-1-0.4-1.4,0c-0.4,0.4-0.4,1,0,1.4C62.5,27.3,64,30.8,64,34.6z"/>
	<path id="XMLID_23_" d="M38.7,45.9c0.2,0.2,0.5,0.3,0.7,0.3c0.3,0,0.5-0.1,0.7-0.3c0.4-0.4,0.4-1,0-1.4c-2.6-2.6-4.1-6.2-4.1-9.9
		c0-3.7,1.5-7.3,4.1-9.9c0.4-0.4,0.4-1,0-1.4c-0.4-0.4-1-0.4-1.4,0c-3,3-4.7,7-4.7,11.3C34,38.8,35.7,42.9,38.7,45.9z"/>
	<path id="XMLID_24_" d="M56.4,42.3c0.2,0.2,0.5,0.3,0.7,0.3c0.3,0,0.5-0.1,0.7-0.3c2.1-2.1,3.2-4.8,3.2-7.8c0-2.9-1.1-5.7-3.2-7.8
		c-0.4-0.4-1-0.4-1.4,0s-0.4,1,0,1.4c1.7,1.7,2.6,4,2.6,6.4c0,2.4-0.9,4.7-2.6,6.4C56,41.3,56,42,56.4,42.3z"/>
	<path id="XMLID_25_" d="M42.2,42.3c0.2,0.2,0.5,0.3,0.7,0.3c0.3,0,0.5-0.1,0.7-0.3c0.4-0.4,0.4-1,0-1.4c-1.7-1.7-2.6-4-2.6-6.4
		c0-2.4,0.9-4.7,2.6-6.4c0.4-0.4,0.4-1,0-1.4c-0.4-0.4-1-0.4-1.4,0c-2.1,2.1-3.2,4.8-3.2,7.8C39,37.5,40.1,40.3,42.2,42.3z"/>
</g>
</svg>
