<?xml version="1.0" encoding="utf-8"?>
<!-- Generator: Adobe Illustrator 19.2.1, SVG Export Plug-In . SVG Version: 6.00 Build 0)  -->
<svg version="1.0" id="Layer_1" xmlns="http://www.w3.org/2000/svg" xmlns:xlink="http://www.w3.org/1999/xlink" x="0px" y="0px"
	 viewBox="0 0 100 100" enable-background="new 0 0 100 100" xml:space="preserve">
<path id="XMLID_198_" d="M54.4,68.9c-0.9,0-1.6-0.5-1.9-0.7l-3-1.9l-0.1,0.3c-0.1,0.4-0.3,0.8-0.6,1.1c-0.4,0.6-0.9,0.8-1.6,0.8
	c-1.7-0.1-2.9-0.7-3.7-1.9l-0.1-0.1l-0.2,0.1c-0.5,0.2-1,0.4-1.5,0.4c-1.3,0-2.2-0.8-2.9-2.5l-0.1-0.2l-0.2,0.1
	c-0.3,0.1-0.7,0.1-0.9,0.1c-1.5,0-2.8-1.2-3.3-3.3l0-0.1l-0.2,0c-1.5-0.1-3.2-1-3.3-3.2c0-0.8,0.2-1.8,0.7-2.7l0.1-0.2l-9.5-6
	c-1.8-1.1-2.3-3.5-1.2-5.3l6.1-9.7c0.7-1.1,2-1.8,3.3-1.8c0.6,0,1.2,0.1,1.7,0.4l4.1,2.1c0.3,0.2,0.7,0.2,1,0.2c0.2,0,0.4,0,0.6-0.1
	c2.1-0.8,5.9-1.9,12.3-2.9l0.3,0c0.1,0,0.1,0,0.2,0c0,0,0.1,0,0.1,0l0.1,0l0.1,0c0.1,0,0.2,0,0.3,0c0.8,0,2,0.1,3.3,0.7l8.4,3.8
	c0.3,0.1,0.6,0.2,0.9,0.2c0.3,0,0.5,0,0.8-0.1l6.7-2.7c0.5-0.2,0.9-0.3,1.4-0.3c0.6,0,1.1,0.1,1.6,0.3c1,0.5,1.7,1.2,2,2.2l3.9,10.7
	c0.7,1.9-0.2,4-2,4.8l-8.4,3.9l0.1,0.2c0.3,1.1,0.1,2.2-0.6,3.1c-0.8,0.9-2,1.4-3,1.5l-0.2,0l0,0.2c-0.1,0.8-0.6,1.7-1.1,2.1
	c-0.6,0.6-1.5,1-2.5,1h-0.2l-0.1,0.2c-0.1,0.7-0.5,1.4-1.2,2.2c-0.6,0.6-1.3,0.9-2.1,0.9c-0.3,0-0.6,0-0.9-0.1l-0.2-0.1l-0.1,0.2
	c-0.2,0.6-0.7,1-0.9,1.3l-0.2,0.1C55.6,68.7,55,68.9,54.4,68.9z M44,55.5c1.7,0,2.8,1.3,3,2.5l0,0.1l0.1,0.1c1.1,0.4,2,1.4,2.3,2.6
	c0.2,0.7,0.4,2.1,0.3,3.4l0,0.1l3.8,2.4c0.1,0.1,0.4,0.3,0.8,0.3c0.3,0,0.6-0.1,0.9-0.4c0.2-0.2,0.5-0.6,0.5-0.8
	c0-0.1,0-0.2-0.1-0.4l0,0l-0.1-0.1L51,60.9c-0.4-0.4-0.4-0.9,0-1.3c0.2-0.2,0.4-0.3,0.6-0.3c0.2,0,0.5,0.1,0.6,0.3l3.3,3.2
	c0.3,0.2,0.7,0.6,1.3,1.3c0.5,0.5,1.2,0.8,1.8,0.8c0.3,0,0.6-0.1,0.9-0.3c0.5-0.5,0.8-0.9,0.8-1.3c0-0.3-0.1-0.5-0.4-0.7l-1.1-1.1
	l-0.1-0.1L54.5,57c-0.2-0.2-0.3-0.4-0.3-0.6c0-0.2,0.1-0.5,0.3-0.6c0.2-0.2,0.4-0.3,0.6-0.3c0.2,0,0.5,0.1,0.6,0.3l4.1,4.2l0.2,0.1
	c0.1,0.1,0.2,0.2,0.2,0.2l0.9,0.9c0.3,0.3,0.7,0.4,1.1,0.4c0.5,0,1-0.2,1.3-0.5c0.3-0.3,0.6-0.9,0.6-1.3c0-0.1,0-0.2,0-0.2l0-0.1
	l-0.1,0l-0.1-0.1l-6.4-6.6c-0.4-0.4-0.3-0.9,0-1.3c0.2-0.2,0.4-0.3,0.6-0.3c0.2,0,0.5,0.1,0.6,0.3l4.8,5l0,0c0.1,0,0.3,0.1,0.4,0.3
	l0.2,0.2c0.2,0.1,0.4,0.4,0.6,0.6c0.2,0.2,0.3,0.4,0.5,0.6c0.1,0.1,0.4,0.2,0.8,0.2c0.6,0,1.3-0.3,1.8-0.8c0.5-0.6,0.5-1.3,0-2
	c-0.8-1.2-2.1-2.5-3.8-4.1c-0.4-0.3-0.7-0.7-1.1-1.1c-0.4-0.4-0.8-0.7-1.1-1.1c-0.2-0.2-0.5-0.4-0.7-0.4c-2.7-1-6.4-3.1-8.5-6.8
	c-0.3-0.6-1-1-1.7-1c-0.1,0-0.2,0-0.3,0c-0.5,0.1-0.8,0.2-1.1,0.4c-1.7,1.4-4.1,2.3-5.9,2.3c-0.3,0-0.6,0-0.9-0.1
	c-0.9-0.1-1.6-0.6-2.1-1.3c-1.4-2.3,0.7-4.5,3.6-7.1l-0.2-0.4c-2.2,0.5-4.2,1.1-5.7,1.6c-0.4,0.2-0.9,0.2-1.3,0.2
	c-0.6,0-1.2-0.2-1.8-0.4l-4.1-2.1c-0.3-0.2-0.6-0.2-1-0.2c-0.7,0-1.4,0.4-1.8,1l-6.1,9.7c-0.6,0.9-0.3,2.2,0.6,2.8l9.7,6.2l0.1-0.1
	c0.4-0.3,0.7-0.6,1-0.7c0.3-0.1,0.6-0.2,0.8-0.2c0.9,0,2.1,0.6,2.8,1.4l0.1,0.2l0.2-0.1c0.3-0.2,0.6-0.4,0.8-0.5
	c0.5-0.2,1.1-0.4,1.5-0.4c1.2,0,2.2,0.8,2.5,2.1l0.1,0.2l0.2,0C43.4,55.5,43.7,55.5,44,55.5z M46.1,59.9c-0.3,0.2-0.8,0.4-1.1,1
	c-0.6,0.8-0.7,2-0.4,3.4c0.3,1.6,1.2,2.4,2.7,2.5l0.1,0l0.1-0.1c0.7-1,0.7-4.1,0.4-5.4c-0.2-0.8-0.8-1.3-1.3-1.4l0,0L46.1,59.9z
	 M44,57.3c-0.4,0-0.7,0.1-0.9,0.2C42,58,41,59.8,40.6,61.3c-0.2,0.6-0.2,1.2-0.2,1.5l0,0.4c0.2,0.7,0.7,2.1,1.4,2.1
	c0.2,0,0.4,0,0.8-0.2l0.1-0.1l0.1-0.1l0-0.1c-0.2-0.8-0.2-1.5-0.2-2.1c0.1-1.3,0.5-2.2,0.9-2.7c0.4-0.6,1-1.1,1.7-1.5l0.2-0.1
	l-0.1-0.2C45,57.6,44.6,57.3,44,57.3z M38,56.5c-0.6,0.6-1.1,1.4-1.5,2.2c-0.2,0.6-0.5,1.4-0.3,2.1c0.3,1.2,0.9,1.9,1.6,1.9
	c0.2,0,0.4,0,0.6-0.1l0.1-0.1l0-0.1c0.1-1.7,1-4.2,2.6-5.7l0.1,0l0-0.1c0-0.2,0.1-0.5,0.1-0.6c-0.3-0.8-0.6-0.9-0.9-0.9
	c-0.2,0-0.5,0.1-0.8,0.2c-0.4,0.2-0.8,0.4-1.2,0.8l-0.1,0.1l0,0L38,56.5z M34.6,54.4c-1,0.5-1.9,2.2-1.9,3.4c0,0.9,0.6,1.4,1.5,1.5
	l0.2,0l0-0.2c0.3-1.2,0.9-2.5,1.8-3.6l0.1-0.1l-0.1-0.3c-0.3-0.4-1-0.7-1.4-0.7L34.6,54.4L34.6,54.4z M50.6,39
	c1.4,0,2.7,0.7,3.4,1.9c2,3.5,5.6,5.2,7.6,6c0.5,0.2,1,0.5,1.3,0.9c0.4,0.4,0.8,0.8,1.2,1.1c0.4,0.4,0.7,0.7,1,1l0.6,0.6
	c1.2,1.1,2.2,2.1,2.9,3.1l0.1,0.1l8.5-3.9c1-0.4,1.4-1.6,1.1-2.6l-3.9-10.7c-0.1-0.4-0.5-0.9-1.1-1.2c-0.3-0.1-0.5-0.2-0.8-0.2
	c-0.3,0-0.6,0.1-0.8,0.2l-6.6,2.7c-0.5,0.2-1,0.3-1.5,0.3c-0.6,0-1.1-0.1-1.6-0.3l-8.4-3.8c-0.1-0.1-1.1-0.5-2.6-0.5
	c-1.6,0-3.2,0.6-4.5,1.8c-4,3.5-5.2,4.9-4.5,6c0.1,0.2,0.5,0.4,0.9,0.5c0.2,0,0.3,0,0.5,0c1.4,0,3.4-0.8,4.8-1.9
	c0.5-0.4,1.2-0.7,1.9-0.8C50.3,39,50.5,39,50.6,39z"/>
</svg>
