<?xml version="1.0" encoding="utf-8"?>
<!-- Generator: Adobe Illustrator 19.2.1, SVG Export Plug-In . SVG Version: 6.00 Build 0)  -->
<svg version="1.0" id="Layer_1" xmlns="http://www.w3.org/2000/svg" xmlns:xlink="http://www.w3.org/1999/xlink" x="0px" y="0px"
	 viewBox="0 0 100 100" style="enable-background:new 0 0 100 100;" xml:space="preserve">
<path id="XMLID_126_" d="M67.8,59.4l-5-10.6l0,0l0,0l-5.7-12v0c0,0,0,0,0,0l-0.7-1.6c0,0,0,0,0,0c0.7-0.2,1.2-0.7,1.5-1.4
	c0.3-0.6,0.3-1.4,0.1-2c-0.2-0.7-0.7-1.2-1.4-1.5l-18.7-8.8c-0.6-0.3-1.4-0.3-2-0.1c-0.7,0.2-1.2,0.7-1.5,1.4
	c-0.3,0.6-0.3,1.4-0.1,2c0.1,0.3,0.3,0.6,0.5,0.9l-15.9,31l0,0c-0.2,0.5-0.1,1,0.4,1.3l34.2,20.3c0.2,0.1,0.3,0.1,0.5,0.1h26.2
	c0.6,0,1-0.4,1-1v-4.2C81.2,65.9,75.2,59.8,67.8,59.4z M79.1,72.4h-24c0.5-6.2,5.7-11,12-11C73.5,61.4,78.6,66.2,79.1,72.4z
	 M31.2,58.6c1.2-4.6-0.8-9.5-4.8-11.9l10.2-19.8L54,35.1l0.8,1.8l-1.4,0.6c-0.8-0.7-1.9-0.9-2.9-0.4c-1.3,0.6-1.9,2.2-1.3,3.5
	c0.5,1,1.4,1.5,2.4,1.5c0.4,0,0.8-0.1,1.1-0.3c1-0.5,1.6-1.5,1.5-2.6l1.4-0.6l2,4.2l-1.4,0.6c-0.3-0.2-0.6-0.4-0.9-0.5
	c-0.7-0.2-1.4-0.2-2,0.1c-0.6,0.3-1.1,0.8-1.4,1.5c-0.2,0.7-0.2,1.4,0.1,2c0.5,1,1.4,1.5,2.4,1.5c0.4,0,0.8-0.1,1.1-0.3
	c0.6-0.3,1.1-0.8,1.4-1.5c0.1-0.3,0.2-0.7,0.1-1l1.4-0.6l2,4.2l-1.4,0.6c-0.8-0.7-1.9-0.9-2.9-0.4c-1.3,0.6-1.9,2.2-1.3,3.5
	c0.5,1,1.4,1.5,2.4,1.5c0.4,0,0.8-0.1,1.1-0.3c1-0.5,1.6-1.5,1.5-2.6l1.4-0.6l2,4.2L62,55.5c-0.8-0.7-1.9-0.9-2.9-0.4
	c-0.6,0.3-1.1,0.8-1.4,1.5c-0.2,0.7-0.2,1.4,0.1,2c0.3,0.6,0.8,1.1,1.5,1.4c0.3,0.1,0.6,0.2,0.9,0.2c0.4,0,0.8-0.1,1.1-0.3
	c0.6-0.3,1.1-0.8,1.4-1.5c0.1-0.3,0.2-0.7,0.1-1l1.4-0.6l1.4,2.9c-6.5,0.7-11.6,5.8-12.4,12.2L31.2,58.6z M29.4,57.5l-6.6-3.9
	l2.6-5.1C28.5,50.4,30.1,54,29.4,57.5z M52,40c-0.3,0.2-0.7,0-0.9-0.3c-0.2-0.3,0-0.7,0.3-0.9c0.1,0,0.2-0.1,0.3-0.1
	c0.2,0,0.5,0.1,0.6,0.4C52.5,39.5,52.3,39.9,52,40z M55.2,45.7C55.1,45.8,55,46,54.8,46c-0.3,0.2-0.7,0-0.9-0.3
	c-0.1-0.2-0.1-0.3,0-0.5c0.1-0.2,0.2-0.3,0.3-0.4c0.1,0,0.2-0.1,0.3-0.1c0.1,0,0.1,0,0.2,0c0.2,0.1,0.3,0.2,0.4,0.3
	C55.2,45.3,55.2,45.5,55.2,45.7z M57.7,52c-0.3,0.2-0.7,0-0.9-0.3c-0.2-0.3,0-0.7,0.3-0.9c0.1,0,0.2-0.1,0.3-0.1
	c0.2,0,0.5,0.1,0.6,0.4C58.2,51.5,58,51.9,57.7,52z M60.9,57.6c-0.1,0.2-0.2,0.3-0.3,0.4c-0.2,0.1-0.3,0.1-0.5,0
	c-0.2-0.1-0.3-0.2-0.4-0.3c-0.1-0.2-0.1-0.3,0-0.5c0.1-0.2,0.2-0.3,0.3-0.4c0.1,0,0.2-0.1,0.3-0.1c0.2,0,0.5,0.1,0.6,0.4v0
	C60.9,57.3,60.9,57.5,60.9,57.6z M36.2,23.8c0.1-0.2,0.2-0.3,0.4-0.3c0.1,0,0.1,0,0.2,0c0.1,0,0.2,0,0.3,0.1l18.7,8.8
	c0.2,0.1,0.3,0.2,0.3,0.4c0.1,0.2,0.1,0.3,0,0.5c-0.1,0.2-0.2,0.3-0.4,0.3s-0.3,0.1-0.5,0h0l-18.7-8.8c-0.2-0.1-0.3-0.2-0.3-0.4
	C36.1,24.1,36.1,23.9,36.2,23.8z M21.1,57l0.8-1.6l31.7,18.9c0,0,0.1,0,0.1,0c0,0,0.1,0,0.1,0c0.1,0,0.2,0.1,0.3,0.1h25.1v2.2H54.3
	L21.1,57z"/>
</svg>
