<?xml version="1.0" encoding="utf-8"?>
<!-- Generator: Adobe Illustrator 19.0.0, SVG Export Plug-In . SVG Version: 6.00 Build 0)  -->
<!DOCTYPE svg PUBLIC "-//W3C//DTD SVG 1.0//EN" "http://www.w3.org/TR/2001/REC-SVG-20010904/DTD/svg10.dtd">
<svg version="1.0" id="Elements" xmlns="http://www.w3.org/2000/svg" xmlns:xlink="http://www.w3.org/1999/xlink" x="0px" y="0px"
	 viewBox="0 0 100 100" style="enable-background:new 0 0 100 100;" xml:space="preserve">
<g id="XMLID_1_">
	<path id="XMLID_19_" d="M20.6,40.2c0,0.1,0,0.1,0,0.2c0,0.1,0,0.1,0.1,0.2c0,0,0,0.1,0,0.1c0,0,0,0,0.1,0c0.1,0.1,0.2,0.1,0.2,0.2
		c0,0,0.1,0,0.1,0.1c0.1,0.1,0.3,0.1,0.4,0.1h56.6c0.2,0,0.3,0,0.4-0.1c0,0,0.1,0,0.1-0.1c0.1-0.1,0.2-0.1,0.2-0.2c0,0,0,0,0.1,0
		c0,0,0-0.1,0-0.1c0-0.1,0.1-0.1,0.1-0.2c0-0.1,0-0.1,0-0.2c0,0,0-0.1,0-0.1c0,0,0-0.1,0-0.1c0-0.1,0-0.1,0-0.2c0-0.1,0-0.1-0.1-0.2
		c0-0.1-0.1-0.1-0.1-0.2c0-0.1-0.1-0.1-0.1-0.2c0,0,0,0-0.1-0.1L50.4,19c0,0,0,0,0,0c-0.1,0-0.1-0.1-0.2-0.1c-0.1,0-0.1,0-0.2-0.1
		c-0.1,0-0.1,0-0.2,0c-0.1,0-0.1,0-0.2,0c-0.1,0-0.1,0-0.2,0.1c-0.1,0-0.1,0-0.2,0.1c0,0,0,0,0,0L21,39.3c0,0,0,0-0.1,0.1
		c-0.1,0-0.1,0.1-0.1,0.1c0,0.1-0.1,0.1-0.1,0.2c0,0.1,0,0.1-0.1,0.2c0,0.1,0,0.1,0,0.2c0,0,0,0.1,0,0.1
		C20.6,40.2,20.6,40.2,20.6,40.2z M49.9,21.1L75,39.1H24.7L49.9,21.1z"/>
	<path id="XMLID_22_" d="M79.9,74.1h-9v-28h4.3c2.3,0,4.1,1.8,4.1,4.1c0,1.7-1.4,3.1-3.1,3.1c-1.3,0-2.3-1-2.3-2.3
		c0-0.9,0.7-1.6,1.6-1.6c0.6,0,1.1,0.5,1.1,1.1c0,0.6,0.4,1,1,1s1-0.4,1-1c0-1.7-1.4-3.1-3.1-3.1c-2,0-3.6,1.6-3.6,3.6
		c0,2.4,1.9,4.3,4.3,4.3c2.8,0,5.1-2.3,5.1-5.1c0-3.4-2.7-6.1-6.1-6.1H24.9c-3.4,0-6.1,2.7-6.1,6.1c0,2.8,2.3,5.1,5.1,5.1
		c2.4,0,4.3-1.9,4.3-4.3c0-2-1.6-3.6-3.6-3.6c-1.7,0-3.1,1.4-3.1,3.1c0,0.6,0.4,1,1,1s1-0.4,1-1c0-0.6,0.5-1.1,1.1-1.1
		c0.9,0,1.6,0.7,1.6,1.6c0,1.3-1,2.3-2.3,2.3c-1.7,0-3.1-1.4-3.1-3.1c0-2.3,1.8-4.1,4.1-4.1h4v28h-9c-0.6,0-1,0.4-1,1v5
		c0,0.6,0.4,1,1,1h60c0.6,0,1-0.4,1-1v-5C80.9,74.6,80.4,74.1,79.9,74.1z M78.9,76.1v3h-58v-3H78.9z M50.9,74.1v-28h8v28H50.9z
		 M48.9,74.1h-8v-28h8V74.1z M68.9,74.1h-8v-28h8V74.1z M30.9,46.1h8v28h-8V46.1z"/>
</g>
</svg>
