<?xml version="1.0" encoding="utf-8"?>
<!-- Generator: Adobe Illustrator 19.2.1, SVG Export Plug-In . SVG Version: 6.00 Build 0)  -->
<svg version="1.0" id="Layer_1" xmlns="http://www.w3.org/2000/svg" xmlns:xlink="http://www.w3.org/1999/xlink" x="0px" y="0px"
	 viewBox="0 0 100 100" enable-background="new 0 0 100 100" xml:space="preserve">
<g id="XMLID_137_">
	<path id="XMLID_145_" d="M37.5,42c-0.6,0-1-0.4-1-1c0-4.2,1.6-8.2,4.6-11.2c0.2-0.2,0.4-0.3,0.7-0.3c0.3,0,0.5,0.1,0.7,0.3
		c0.2,0.2,0.3,0.4,0.3,0.7c0,0.3-0.1,0.5-0.3,0.7c-2.6,2.6-4.1,6.1-4.1,9.8C38.5,41.5,38.1,42,37.5,42z"/>
	<path id="XMLID_144_" d="M75.2,41.5c-0.6,0-1-0.4-1-1c0-2.2-0.9-4.3-2.4-5.8c-0.4-0.4-0.4-1,0-1.4c0.2-0.2,0.4-0.3,0.7-0.3
		c0.3,0,0.5,0.1,0.7,0.3c1.9,1.9,3,4.5,3,7.3C76.2,41.1,75.7,41.5,75.2,41.5z"/>
	<path id="XMLID_143_" d="M25.7,41.5c-0.6,0-1-0.4-1-1c0-2.7,1.1-5.3,3-7.3c0.2-0.2,0.4-0.3,0.7-0.3c0.3,0,0.5,0.1,0.7,0.3
		c0.2,0.2,0.3,0.4,0.3,0.7c0,0.3-0.1,0.5-0.3,0.7c-1.6,1.6-2.4,3.6-2.4,5.8C26.7,41.1,26.2,41.5,25.7,41.5z"/>
	<path id="XMLID_138_" d="M52.9,79.3c-0.2,0-0.4-0.1-0.6-0.2c-0.5-0.3-0.6-0.9-0.3-1.4c0.8-1.2,0.6-1.4-1.1-2.6
		c-1-0.7-2.3-1.6-3.3-3c-0.6-1-0.9-2.1-0.6-3.2c0.2-1,0.8-2.1,1.8-3.1l0.1-0.1l-0.2,0c-4.3-1-8.7-5-12-11.1l-0.1-0.1l-0.1,0.1
		c-1,0.7-2,1.3-3,1.5l0,0l-0.1,0.1c0,0-0.1,0.1-0.1,0.1c-0.4,0.2-1.5,1.1-1.6,1.9c-0.1,0.3,0,0.5,0.1,0.7c0.4,0.6,1,1.1,1.5,1.5
		c1.1,1,2.6,2.3,1.2,4.3c-0.2,0.3-0.5,0.4-0.8,0.4c-0.2,0-0.4-0.1-0.6-0.2c-0.2-0.1-0.4-0.4-0.4-0.6c-0.1-0.3,0-0.5,0.1-0.7
		c0.4-0.5,0.3-0.7-0.9-1.7c-0.6-0.5-1.3-1.1-1.8-1.9c-0.4-0.7-0.6-1.4-0.4-2.2c0.1-0.5,0.4-1,0.8-1.6l0.1-0.1l-0.2,0
		c-5.1-1.5-9.9-10.4-9.9-16.1c0-6.4,5.2-11.7,11.7-11.7c1.4,0,2.8,0.3,4.2,0.8l0.1,0l0.1-0.1c3.5-4.3,8.6-6.7,14-6.7
		c5.4,0,10.5,2.4,13.9,6.7l0.1,0.1l0.1,0c1.3-0.5,2.7-0.7,4-0.7c6.4,0,11.7,5.2,11.7,11.7c0,5.4-4.9,15.2-10.5,16.2l0,0l-0.1,0.1
		c-0.4,0.3-1.5,1.1-1.6,2c-0.1,0.3,0,0.5,0.2,0.7c0.4,0.6,1,1.1,1.5,1.5c1.1,0.9,2.6,2.2,1.2,4.3c-0.2,0.3-0.5,0.4-0.8,0.4
		c-0.2,0-0.4-0.1-0.6-0.2c-0.2-0.1-0.4-0.4-0.4-0.6s0-0.5,0.1-0.7c0.4-0.5,0.3-0.7-0.9-1.7c-0.6-0.5-1.3-1.1-1.8-1.9
		c-0.5-0.7-0.6-1.4-0.4-2.2c0.1-0.6,0.4-1.1,0.8-1.7l0.1-0.1L66.8,56c-0.8-0.3-1.6-0.7-2.5-1.3l-0.1-0.1l-0.1,0.1
		c-3.6,6.5-8.3,10.6-12.4,11.2c-0.3,0.2-2.5,1.8-2.9,3.5c-0.1,0.6,0,1.1,0.3,1.7c0.7,1.1,1.8,1.8,2.8,2.5c1.6,1.1,3.6,2.4,1.7,5.3
		C53.6,79.2,53.3,79.3,52.9,79.3z M50.5,24.4c-8.8,0-16,7.2-16,16c0,8.6,8.1,23.5,16.4,23.5c3.8,0,8.7-4.6,12.2-11.4
		c1.7-3.2,2.8-6.5,3.3-9.4c0.2-1,0.2-1.9,0.2-2.8c0-3.4-1.1-6.7-3.2-9.5C60.4,26.8,55.7,24.4,50.5,24.4z M68.6,30.4
		c-0.9,0-1.8,0.1-2.7,0.4l-0.1,0l0.1,0.1c0.3,0.4,0.5,0.8,0.7,1.2l0.2,0.4c0.1,0.3,0.3,0.5,0.4,0.8l0.2,0.5c0.1,0.3,0.2,0.5,0.3,0.8
		c0.1,0.2,0.1,0.3,0.2,0.5c0.1,0.3,0.2,0.5,0.2,0.8c0,0.2,0.1,0.3,0.1,0.5c0.1,0.3,0.1,0.5,0.2,0.8c0,0,0.1,0.4,0.1,0.5
		c0,0.3,0.1,0.6,0.1,0.9c0,0,0,0.3,0,0.4c0,0.5,0.1,0.9,0.1,1.4c0,0.5,0,0.9-0.1,1.4c0,0.1-0.1,0.6-0.1,0.6c0,0.3-0.1,0.6-0.1,0.9
		c0,0.1-0.1,0.6-0.1,0.6c-0.1,0.3-0.1,0.6-0.2,0.9c0,0.2-0.1,0.3-0.1,0.5l-0.1,0.2c-0.1,0.3-0.2,0.6-0.2,0.9c0,0.2-0.1,0.4-0.2,0.5
		l-0.1,0.3c-0.1,0.3-0.2,0.5-0.2,0.8c-0.1,0.2-0.3,0.8-0.3,0.8c-0.1,0.3-0.2,0.6-0.3,0.9c-0.1,0.2-0.2,0.5-0.3,0.7
		c-0.1,0.4-0.3,0.6-0.4,0.9c-0.1,0.3-0.2,0.5-0.4,0.8l-0.3,0.6l0.1,0.1c1.2,1,2.4,1.5,3.6,1.5c4.2,0,9.4-8.9,9.4-14.3
		C78.3,34.7,74,30.4,68.6,30.4z M32.2,30.4c-5.3,0-9.7,4.3-9.7,9.7c0,5.4,5.3,14.3,9.4,14.3c1.1,0,2.3-0.5,3.6-1.5l0.1-0.1l0-0.1
		c-2.1-4.3-3.3-8.8-3.3-12.3c0-3.4,0.9-6.7,2.7-9.5l0.1-0.1l-0.1,0C34,30.5,33.1,30.4,32.2,30.4z"/>
</g>
</svg>
