<?xml version="1.0" encoding="utf-8"?>
<!-- Generator: Adobe Illustrator 19.0.0, SVG Export Plug-In . SVG Version: 6.00 Build 0)  -->
<!DOCTYPE svg PUBLIC "-//W3C//DTD SVG 1.0//EN" "http://www.w3.org/TR/2001/REC-SVG-20010904/DTD/svg10.dtd">
<svg version="1.0" id="Elements" xmlns="http://www.w3.org/2000/svg" xmlns:xlink="http://www.w3.org/1999/xlink" x="0px" y="0px"
	 viewBox="0 0 100 100" style="enable-background:new 0 0 100 100;" xml:space="preserve">
<g id="XMLID_1_">
	<path id="XMLID_23_" d="M36.5,31h15c0.6,0,1-0.4,1-1s-0.4-1-1-1h-15c-0.6,0-1,0.4-1,1S36,31,36.5,31z"/>
	<path id="XMLID_24_" d="M51.5,39h-15c-0.6,0-1,0.4-1,1s0.4,1,1,1h15c0.6,0,1-0.4,1-1S52.1,39,51.5,39z"/>
	<path id="XMLID_25_" d="M51.5,49h-15c-0.6,0-1,0.4-1,1c0,0.6,0.4,1,1,1h15c0.6,0,1-0.4,1-1C52.5,49.5,52.1,49,51.5,49z"/>
	<path id="XMLID_26_" d="M44.5,59h-8c-0.6,0-1,0.4-1,1s0.4,1,1,1h8c0.6,0,1-0.4,1-1S45.1,59,44.5,59z"/>
	<path id="XMLID_29_" d="M80.7,49.4l-3.5-3.5c-0.4-0.4-1-0.4-1.4,0l-3.5,3.5c0,0,0,0,0,0L61,60.6V20c0-0.6-0.4-1-1-1H20
		c-0.6,0-1,0.4-1,1v50c0,0.6,0.4,1,1,1h30.7l-5,8.4c0,0,0,0.1,0,0.1c0,0.1-0.1,0.1-0.1,0.2c0,0.1,0,0.1,0,0.2c0,0.1,0,0.1,0,0.2
		c0,0.1,0,0.1,0.1,0.2c0,0,0,0.1,0,0.1c0,0,0,0,0,0.1c0,0,0,0,0.1,0.1c0.1,0.1,0.1,0.2,0.2,0.2c0,0,0,0,0,0c0,0,0,0,0,0
		c0.1,0,0.1,0.1,0.2,0.1c0,0,0,0,0.1,0c0.1,0,0.1,0,0.2,0c0,0,0,0,0.1,0c0,0,0,0,0,0s0,0,0,0c0,0,0,0,0.1,0c0.1,0,0.1,0,0.2,0
		c0,0,0,0,0.1,0c0.1,0,0.1,0,0.2-0.1c0,0,0,0,0,0l8.6-5.1c0,0,0.1-0.1,0.1-0.1c0,0,0.1,0,0.1-0.1l21.2-21.2l3.5-3.5
		C81.1,50.5,81.1,49.8,80.7,49.4z M21,21h38v41.5L52.6,69H21V21z M51.9,73l1.7,1.7l-4.2,2.5L51.9,73z M55.2,73.5l-2.1-2.1l0.6-0.6
		c0,0,0,0,0,0l7-7c0,0,0,0,0,0l12.1-12.1l2.1,2.1L55.2,73.5z M76.4,52.3l-2.1-2.1l2.1-2.1l2.1,2.1L76.4,52.3z"/>
	<path id="XMLID_35_" d="M27,26.5c-1.9,0-3.5,1.6-3.5,3.5s1.6,3.5,3.5,3.5s3.5-1.6,3.5-3.5S29,26.5,27,26.5z M27,31.5
		c-0.8,0-1.5-0.7-1.5-1.5s0.7-1.5,1.5-1.5s1.5,0.7,1.5,1.5S27.9,31.5,27,31.5z"/>
	<path id="XMLID_38_" d="M27,41.5c-1.9,0-3.5,1.6-3.5,3.5s1.6,3.5,3.5,3.5s3.5-1.6,3.5-3.5S29,41.5,27,41.5z M27,46.5
		c-0.8,0-1.5-0.7-1.5-1.5s0.7-1.5,1.5-1.5s1.5,0.7,1.5,1.5S27.9,46.5,27,46.5z"/>
	<path id="XMLID_41_" d="M27,56.5c-1.9,0-3.5,1.6-3.5,3.5s1.6,3.5,3.5,3.5s3.5-1.6,3.5-3.5S29,56.5,27,56.5z M27,61.5
		c-0.8,0-1.5-0.7-1.5-1.5s0.7-1.5,1.5-1.5s1.5,0.7,1.5,1.5S27.9,61.5,27,61.5z"/>
</g>
</svg>
