<?xml version="1.0" encoding="utf-8"?>
<!-- Generator: Adobe Illustrator 19.0.0, SVG Export Plug-In . SVG Version: 6.00 Build 0)  -->
<!DOCTYPE svg PUBLIC "-//W3C//DTD SVG 1.0//EN" "http://www.w3.org/TR/2001/REC-SVG-20010904/DTD/svg10.dtd">
<svg version="1.0" id="Elements" xmlns="http://www.w3.org/2000/svg" xmlns:xlink="http://www.w3.org/1999/xlink" x="0px" y="0px"
	 viewBox="0 0 100 100" style="enable-background:new 0 0 100 100;" xml:space="preserve">
<path id="XMLID_4_" d="M79.3,45.8h-5.1l-4-19.6c0,0,0,0,0,0c0,0,0,0,0,0c0,0,0-0.1-0.1-0.1c0-0.1,0-0.1-0.1-0.2c0,0,0,0,0,0
	c0-0.1-0.1-0.1-0.1-0.1c0,0-0.1-0.1-0.1-0.1c0,0,0,0,0,0c-0.1,0-0.1-0.1-0.2-0.1c-0.1,0-0.1-0.1-0.2-0.1c-0.1,0-0.1,0-0.2,0
	c-0.1,0-0.1,0-0.2,0c0,0,0,0,0,0L51,30.3V20c0-0.6-0.4-1-1-1s-1,0.4-1,1v10.8l-18.6,5c0,0-0.1,0-0.1,0.1c-0.1,0-0.1,0-0.2,0.1
	c0,0,0,0,0,0c0,0-0.1,0.1-0.1,0.1c0,0-0.1,0.1-0.1,0.1c0,0,0,0,0,0c0,0.1,0,0.1-0.1,0.2c0,0.1-0.1,0.1-0.1,0.2l-4,19.6h-5.1
	c-0.6,0-1,0.4-1,1c0,6.1,4.9,11,11,11s11-4.9,11-11c0-0.6-0.4-1-1-1h-5.1l-3.8-18.7L49,32.9V79h-7c-0.6,0-1,0.4-1,1s0.4,1,1,1H58
	c0.6,0,1-0.4,1-1s-0.4-1-1-1h-7V32.4l17-4.6l-3.6,18h-5.1c-0.6,0-1,0.4-1,1c0,6.1,4.9,11,11,11s11-4.9,11-11
	C80.3,46.3,79.9,45.8,79.3,45.8z M39.6,58.2c-0.5,4.5-4.3,8-8.9,8c-4.6,0-8.4-3.5-8.9-8H39.6z M33.6,56.2h-5.8l2.9-14.4L33.6,56.2z
	 M69.3,31.5l2.9,14.4h-5.8L69.3,31.5z M69.3,55.8c-4.6,0-8.4-3.5-8.9-8h17.9C77.8,52.3,73.9,55.8,69.3,55.8z"/>
</svg>
