<?xml version="1.0" encoding="utf-8"?>
<!-- Generator: Adobe Illustrator 19.2.1, SVG Export Plug-In . SVG Version: 6.00 Build 0)  -->
<svg version="1.1" id="Layer_1" xmlns="http://www.w3.org/2000/svg" xmlns:xlink="http://www.w3.org/1999/xlink" x="0px" y="0px"
	 viewBox="0 0 100 100" style="enable-background:new 0 0 100 100;" xml:space="preserve">
<path id="XMLID_160_" d="M20.1,59.5c0-5.3,4.3-9.6,9.6-9.6c1.2,0,2.5,0.3,3.8,0.8l4-7.1c0,0,0,0,0-0.1L36,39.9h-2.8
	c-0.6,0-1-0.4-1-1s0.4-1,1-1h6.9c0.6,0,1,0.4,1,1s-0.4,1-1,1h-1.9l1.3,3.1h19.7L59,42.8c-0.8-1.4-0.3-3.3,1.1-4.2l2.5-1.7
	c0.3-0.2,0.6-0.6,0.6-1.1c0-0.7-0.6-1.3-1.3-1.3h-4.6c-0.6,0-1-0.4-1-1s0.4-1,1-1h4.6c1.8,0,3.3,1.5,3.3,3.3c0,1.1-0.6,2.2-1.4,2.7
	l-2.5,1.7c-0.5,0.3-0.7,1.1-0.4,1.6l4.9,9.8c1.7-1.1,3.5-1.6,5.4-1.6c5.3,0,9.6,4.3,9.6,9.6c0,5.3-4.3,9.6-9.6,9.6
	c-5.3,0-9.6-4.3-9.6-9.6c0-2.5,1-4.9,2.7-6.6l-2-4L45.8,60.4c-0.2,0.1-0.3,0.2-0.6,0.2h-6c-0.5,4.8-4.6,8.6-9.5,8.6
	C24.4,69.2,20.1,64.8,20.1,59.5z M29.7,60.5c-0.4,0-0.7-0.2-0.9-0.5c-0.2-0.3-0.2-0.7,0-1l3.7-6.6c-0.9-0.4-1.9-0.5-2.8-0.5
	c-4.2,0-7.6,3.4-7.6,7.6c0,4.2,3.4,7.6,7.6,7.6c3.9,0,7-2.8,7.5-6.6H29.7z M66.6,53.4l0.2,0.5c0.7,1.8,2.4,3.6,4.7,4.8
	c0.2,0.1,0.4,0.3,0.5,0.5c0.1,0.3,0.1,0.6-0.1,0.8c-0.2,0.5-0.6,0.6-0.9,0.6c-0.2,0-0.3,0-0.4-0.1c-2.6-1.3-4.6-3.3-5.5-5.6
	c-1,1.3-1.6,3-1.6,4.7c0,4.2,3.4,7.6,7.6,7.6s7.6-3.4,7.6-7.6c0-4.2-3.4-7.6-7.6-7.6C69.5,51.9,68,52.4,66.6,53.4z M37.3,58.5
	c-0.3-2-1.3-3.9-3-5.1l-2.9,5.1H37.3z M43.7,58.5l-5.3-12.7l-3.2,5.8c2.3,1.6,3.7,4.1,4,6.9H43.7z M61.3,47.2l-1-2.1H40.3l5.3,13
	L61.3,47.2z"/>
</svg>
