<?xml version="1.0" encoding="utf-8"?>
<!-- Generator: Adobe Illustrator 19.2.1, SVG Export Plug-In . SVG Version: 6.00 Build 0)  -->
<svg version="1.0" id="Layer_1" xmlns="http://www.w3.org/2000/svg" xmlns:xlink="http://www.w3.org/1999/xlink" x="0px" y="0px"
	 viewBox="0 0 100 100" enable-background="new 0 0 100 100" xml:space="preserve">
<g id="XMLID_1_">
	<path id="XMLID_2_" d="M60.1,45C60.1,45,60.1,45,60.1,45c-0.2,0-0.3,0.1-0.5,0.1c-0.2,0.1-0.4,0.2-0.7,0.4l-7.5,5.3
		c-0.4-0.1-0.8-0.1-1.1-0.1c-1.4,0-2.7,0.5-3.7,1.5c-1.2,1.3-1.8,3.1-1.4,4.8l-5.3,7.4c-0.2,0.3-0.3,0.5-0.4,0.7
		c0,0.1-0.1,0.3-0.1,0.4c0,0.2,0,0.6,0.3,0.9c0.2,0.2,0.5,0.3,0.8,0.3l0.1,0c0.2,0,0.3,0,0.5-0.1c0.2-0.1,0.4-0.2,0.7-0.4l7.5-5.3
		c0.4,0.1,0.7,0.1,1.1,0.1c1.4,0,2.7-0.5,3.7-1.5c1.2-1.2,1.8-3.1,1.4-4.8l5.2-7.4c0.2-0.3,0.4-0.5,0.4-0.7c0.1-0.1,0.1-0.3,0.1-0.5
		c0-0.3-0.1-0.6-0.3-0.8C60.7,45.1,60.4,45,60.1,45z M44,62.3l2.3-3.3c0.1,0.1,0.1,0.2,0.2,0.2c0,0,0.2,0.3,0.2,0.3
		c0.1,0.1,0.2,0.2,0.3,0.2c0.1,0.1,0.2,0.1,0.2,0.2L44,62.3z M52.7,58.2c-0.6,0.6-1.4,0.9-2.3,0.9c-0.5,0-0.9-0.1-1.3-0.3
		c0,0-0.1,0-0.1-0.1c-0.1-0.1-0.3-0.2-0.5-0.3c0,0-0.1-0.1-0.1-0.1v0l-0.1-0.1c0,0-0.1-0.1-0.1-0.1C48.1,58.1,48,58,47.9,58
		c0,0,0-0.1-0.1-0.2c-0.1-0.1-0.1-0.1-0.1-0.2l-0.1-0.1l-0.1-0.3c-0.5-1.2-0.3-2.7,0.7-3.6c0.6-0.6,1.5-1,2.3-1c0.2,0,0.5,0,0.7,0.1
		l0,0l0.3,0.1c0.1,0,0.1,0.1,0.2,0.1l0.1,0l0.1,0.1c0.2,0.1,0.4,0.2,0.6,0.4c0,0,0.1,0.1,0.2,0.2c0,0.1,0.1,0.1,0.2,0.2l0.1,0.1
		c0,0,0.2,0.2,0.2,0.2c0,0,0.1,0.1,0.1,0.2l0.1,0.1l0,0.2l0.1,0.2h0.1c0,0.1,0,0.2,0,0.2c0,0,0,0,0,0C53.9,56.1,53.6,57.4,52.7,58.2
		z M54.6,52.7L54.6,52.7l-0.1-0.1c-0.1-0.1-0.2-0.3-0.4-0.4c-0.2-0.2-0.3-0.3-0.5-0.4l3.3-2.3L54.6,52.7z"/>
	<path id="XMLID_7_" d="M68.4,37.9c-3.8-3.8-8.6-6.3-13.8-7.1c1.2-1.1,1.9-2.6,1.9-4.3c0-3.3-2.7-6-6-6s-6,2.7-6,6
		c0,1.7,0.7,3.2,1.9,4.3c-5.2,0.8-10,3.3-13.9,7.1c-4.8,4.8-7.4,11.2-7.5,18c0,6.8,2.6,13.2,7.5,18c4.8,4.8,11.2,7.5,18,7.5
		c6.8,0,13.2-2.6,18-7.5c4.8-4.8,7.4-11.2,7.4-18C75.8,49.1,73.2,42.7,68.4,37.9z M50.4,22.4c2.2,0,4,1.8,4,4s-1.8,4-4,4s-4-1.8-4-4
		S48.2,22.4,50.4,22.4z M67,72.5c-4.4,4.4-10.3,6.9-16.6,6.9c-6.3,0-12.2-2.4-16.6-6.9c-9.1-9.2-9.1-24,0-33.2
		c4.4-4.4,10.3-6.9,16.6-6.9c0,0,0,0,0,0c0,0,0,0,0,0c6.3,0,12.1,2.4,16.6,6.9C76.1,48.5,76.2,63.4,67,72.5z"/>
	<path id="XMLID_11_" d="M65,41.3c-3.9-3.9-9.1-6-14.6-6c-5.5,0-10.7,2.1-14.6,6c-3.9,3.9-6,9.1-6,14.6c0,5.5,2.1,10.7,6,14.6
		c3.9,3.9,9.1,6.1,14.6,6.1s10.7-2.1,14.6-6c3.9-3.9,6-9.1,6-14.6C71.1,50.4,68.9,45.2,65,41.3z M63.6,69.1
		c-3.5,3.5-8.2,5.5-13.2,5.5c-5,0-9.7-1.9-13.2-5.5c-7.3-7.3-7.3-19.1,0-26.4c3.5-3.5,8.2-5.5,13.2-5.5c5,0,9.6,1.9,13.2,5.5
		C70.9,50,70.9,61.8,63.6,69.1z"/>
</g>
</svg>
