<?xml version="1.0" encoding="utf-8"?>
<!-- Generator: Adobe Illustrator 19.0.0, SVG Export Plug-In . SVG Version: 6.00 Build 0)  -->
<!DOCTYPE svg PUBLIC "-//W3C//DTD SVG 1.0//EN" "http://www.w3.org/TR/2001/REC-SVG-20010904/DTD/svg10.dtd">
<svg version="1.0" id="Elements" xmlns="http://www.w3.org/2000/svg" xmlns:xlink="http://www.w3.org/1999/xlink" x="0px" y="0px"
	 viewBox="0 0 100 100" style="enable-background:new 0 0 100 100;" xml:space="preserve">
<g id="XMLID_1_">
	<path id="XMLID_31_" d="M77.5,44H46v-1.5c0-1.6-1.1-2.9-2.5-3.3V36h4c0.6,0,1-0.4,1-1V20c0-0.6-0.4-1-1-1h-20c-0.6,0-1,0.4-1,1v15
		c0,0.6,0.4,1,1,1h4v3.2c-1.4,0.4-2.5,1.8-2.5,3.3V44h-6.5c-1.9,0-3.5,1.6-3.5,3.5v10v15v5c0,1.9,1.6,3.5,3.5,3.5h55
		c1.9,0,3.5-1.6,3.5-3.5v-30C81,45.6,79.4,44,77.5,44z M46.5,21v8h-18v-8H46.5z M28.5,31h18v3h-4h-10h-4V31z M41.5,36v3h-8v-3H41.5z
		 M31,42.5c0-0.8,0.7-1.5,1.5-1.5h10c0.8,0,1.5,0.7,1.5,1.5V44H31V42.5z M21,68.5h4c0.6,0,1-0.4,1-1s-0.4-1-1-1h-4v-3h4
		c0.6,0,1-0.4,1-1s-0.4-1-1-1h-4v-3h6.5c0.8,0,1.5,0.7,1.5,1.5v10c0,0.8-0.7,1.5-1.5,1.5H21V68.5z M79,77.5c0,0.8-0.7,1.5-1.5,1.5
		h-55c-0.8,0-1.5-0.7-1.5-1.5v-4h6.5c1.9,0,3.5-1.6,3.5-3.5V60c0-1.9-1.6-3.5-3.5-3.5H21v-9c0-0.8,0.7-1.5,1.5-1.5H30h15h32.5
		c0.8,0,1.5,0.7,1.5,1.5V77.5z"/>
	<path id="XMLID_39_" d="M55,51.5c-6.1,0-11,4.9-11,11s4.9,11,11,11c6.1,0,11-4.9,11-11S61.1,51.5,55,51.5z M55,71.5c-5,0-9-4-9-9
		s4-9,9-9s9,4,9,9S60,71.5,55,71.5z"/>
	<path id="XMLID_42_" d="M55,56.5c-3.3,0-6,2.7-6,6s2.7,6,6,6s6-2.7,6-6S58.3,56.5,55,56.5z M55,66.5c-2.2,0-4-1.8-4-4s1.8-4,4-4
		s4,1.8,4,4S57.2,66.5,55,66.5z"/>
	<path id="XMLID_45_" d="M40,49c-1.9,0-3.5,1.6-3.5,3.5S38.1,56,40,56s3.5-1.6,3.5-3.5S41.9,49,40,49z M40,54
		c-0.8,0-1.5-0.7-1.5-1.5S39.2,51,40,51s1.5,0.7,1.5,1.5S40.8,54,40,54z"/>
</g>
</svg>
