<?xml version="1.0" encoding="utf-8"?>
<!-- Generator: Adobe Illustrator 19.0.0, SVG Export Plug-In . SVG Version: 6.00 Build 0)  -->
<!DOCTYPE svg PUBLIC "-//W3C//DTD SVG 1.0//EN" "http://www.w3.org/TR/2001/REC-SVG-20010904/DTD/svg10.dtd">
<svg version="1.0" id="Elements" xmlns="http://www.w3.org/2000/svg" xmlns:xlink="http://www.w3.org/1999/xlink" x="0px" y="0px"
	 viewBox="0 0 100 100" style="enable-background:new 0 0 100 100;" xml:space="preserve">
<path id="XMLID_16_" d="M72.2,41.6v-9.1c0-8.8-7.2-16-16-16s-16,7.2-16,16v20c0,5-4,9-9,9s-9-4-9-9v-9h1.5c0.6,0,1-0.4,1-1V35
	c0-0.6-0.4-1-1-1v-2c0-0.6-0.4-1-1-1h-3c-0.6,0-1,0.4-1,1v2c-0.6,0-1,0.4-1,1v7.5c0,0.6,0.4,1,1,1h1.5v9c0,6.1,4.9,11,11,11
	s11-4.9,11-11v-20c0-7.7,6.3-14,14-14s14,6.3,14,14v9.1c-5.6,0.5-10,5.2-10,10.9v20c0,6.1,4.9,11,11,11s11-4.9,11-11v-20
	C82.2,46.8,77.8,42.1,72.2,41.6z M20.8,33h1v1h-1V33z M19.8,36h3v5.5h-3V36z M80.2,52.5v4h-8V43.6C76.7,44.1,80.2,47.9,80.2,52.5z
	 M70.2,43.6v12.9h-8v-4C62.2,47.9,65.8,44.1,70.2,43.6z M71.2,81.5c-5,0-9-4-9-9v-14h18v14C80.2,77.5,76.2,81.5,71.2,81.5z"/>
</svg>
