<?xml version="1.0" encoding="utf-8"?>
<!-- Generator: Adobe Illustrator 19.2.1, SVG Export Plug-In . SVG Version: 6.00 Build 0)  -->
<svg version="1.0" id="Layer_1" xmlns="http://www.w3.org/2000/svg" xmlns:xlink="http://www.w3.org/1999/xlink" x="0px" y="0px"
	 viewBox="0 0 100 100" enable-background="new 0 0 100 100" xml:space="preserve">
<path d="M50,2c0.5,0,0.9,0.1,1.3,0.4L90.6,25c0.8,0.5,1.3,1.4,1.3,2.3v45.3c0,1-0.5,1.8-1.3,2.3L51.3,97.6C50.9,97.9,50.5,98,50,98
	s-0.9-0.1-1.3-0.4L9.4,75c-0.8-0.5-1.3-1.4-1.3-2.3V27.3c0-1,0.5-1.8,1.3-2.3L48.7,2.4C49.1,2.1,49.5,2,50,2 M50,0
	c-0.8,0-1.6,0.2-2.3,0.6L8.4,23.3c-1.4,0.8-2.3,2.4-2.3,4.1v45.3c0,1.7,0.9,3.2,2.3,4.1l39.2,22.7c0.7,0.4,1.5,0.6,2.3,0.6
	s1.6-0.2,2.3-0.6l39.2-22.7c1.4-0.8,2.3-2.4,2.3-4.1V27.3c0-1.7-0.9-3.2-2.3-4.1L52.3,0.6C51.6,0.2,50.8,0,50,0L50,0z"/>
</svg>
