<?xml version="1.0" encoding="utf-8"?>
<!-- Generator: Adobe Illustrator 19.0.0, SVG Export Plug-In . SVG Version: 6.00 Build 0)  -->
<!DOCTYPE svg PUBLIC "-//W3C//DTD SVG 1.0//EN" "http://www.w3.org/TR/2001/REC-SVG-20010904/DTD/svg10.dtd">
<svg version="1.0" id="Elements" xmlns="http://www.w3.org/2000/svg" xmlns:xlink="http://www.w3.org/1999/xlink" x="0px" y="0px"
	 viewBox="0 0 100 100" style="enable-background:new 0 0 100 100;" xml:space="preserve">
<g id="XMLID_1_">
	<path id="XMLID_21_" d="M50,73.5c10.9,0,19.8-8.9,19.8-19.8c0-2-0.3-4-0.9-5.9c-0.1-0.4-0.5-0.7-1-0.7s-0.8,0.3-1,0.7
		c-2.3,7.4-9.1,12.4-16.9,12.4s-14.6-5-16.9-12.4c-0.1-0.4-0.5-0.7-1-0.7s-0.8,0.3-1,0.7c-0.6,1.9-0.9,3.9-0.9,5.9
		C30.2,64.6,39.1,73.5,50,73.5z M32.4,51.5c3.3,6.6,10,10.8,17.6,10.8S64.3,58,67.6,51.5c0.1,0.8,0.1,1.5,0.1,2.3
		c0,9.8-8,17.8-17.8,17.8c-9.8,0-17.8-8-17.8-17.8C32.2,53,32.3,52.2,32.4,51.5z"/>
	<path id="XMLID_24_" d="M80,19H20c-0.6,0-1,0.4-1,1v30c0,17.1,13.9,31,31,31c17.1,0,31-13.9,31-31V20C81,19.4,80.6,19,80,19z
		 M79,50c0,16-13,29-29,29c-16,0-29-13-29-29V21h58V50z"/>
	<path id="XMLID_27_" d="M50,47.2c4.7,0,8.5-3.8,8.5-8.5s-3.8-8.5-8.5-8.5c-4.7,0-8.5,3.8-8.5,8.5S45.3,47.2,50,47.2z M50,32.2
		c3.6,0,6.5,2.9,6.5,6.5s-2.9,6.5-6.5,6.5s-6.5-2.9-6.5-6.5S46.4,32.2,50,32.2z"/>
	<path id="XMLID_28_" d="M50,28.5c0.6,0,1-0.4,1-1v-3.8c0-0.6-0.4-1-1-1s-1,0.4-1,1v3.8C49,28.1,49.4,28.5,50,28.5z"/>
	<path id="XMLID_29_" d="M58,31.8c0.3,0,0.5-0.1,0.7-0.3l2.7-2.7c0.4-0.4,0.4-1,0-1.4s-1-0.4-1.4,0l-2.7,2.7c-0.4,0.4-0.4,1,0,1.4
		C57.4,31.7,57.7,31.8,58,31.8z"/>
	<path id="XMLID_30_" d="M60.2,38.8c0,0.6,0.4,1,1,1H65c0.6,0,1-0.4,1-1s-0.4-1-1-1h-3.8C60.7,37.8,60.2,38.2,60.2,38.8z"/>
	<path id="XMLID_31_" d="M57.2,46c-0.4,0.4-0.4,1,0,1.4l2.7,2.7c0.2,0.2,0.5,0.3,0.7,0.3s0.5-0.1,0.7-0.3c0.4-0.4,0.4-1,0-1.4
		L58.7,46C58.3,45.6,57.6,45.6,57.2,46z"/>
	<path id="XMLID_32_" d="M49,50v3.8c0,0.6,0.4,1,1,1s1-0.4,1-1V50c0-0.6-0.4-1-1-1S49,49.4,49,50z"/>
	<path id="XMLID_33_" d="M41.3,46l-2.7,2.7c-0.4,0.4-0.4,1,0,1.4c0.2,0.2,0.5,0.3,0.7,0.3s0.5-0.1,0.7-0.3l2.7-2.7
		c0.4-0.4,0.4-1,0-1.4S41.7,45.6,41.3,46z"/>
	<path id="XMLID_34_" d="M35,39.8h3.8c0.6,0,1-0.4,1-1s-0.4-1-1-1H35c-0.6,0-1,0.4-1,1S34.4,39.8,35,39.8z"/>
	<path id="XMLID_35_" d="M41.3,31.5c0.2,0.2,0.5,0.3,0.7,0.3s0.5-0.1,0.7-0.3c0.4-0.4,0.4-1,0-1.4l-2.7-2.7c-0.4-0.4-1-0.4-1.4,0
		s-0.4,1,0,1.4L41.3,31.5z"/>
</g>
</svg>
