<?xml version="1.0" encoding="utf-8"?>
<!-- Generator: Adobe Illustrator 19.0.0, SVG Export Plug-In . SVG Version: 6.00 Build 0)  -->
<!DOCTYPE svg PUBLIC "-//W3C//DTD SVG 1.0//EN" "http://www.w3.org/TR/2001/REC-SVG-20010904/DTD/svg10.dtd">
<svg version="1.0" id="Elements" xmlns="http://www.w3.org/2000/svg" xmlns:xlink="http://www.w3.org/1999/xlink" x="0px" y="0px"
	 viewBox="0 0 100 100" style="enable-background:new 0 0 100 100;" xml:space="preserve">
<g id="XMLID_1_">
	<path id="XMLID_18_" d="M80,19H20c-0.6,0-1,0.4-1,1v30c0,17.1,13.9,31,31,31s31-13.9,31-31V20C81,19.4,80.6,19,80,19z M79,50
		c0,16-13,29-29,29c-16,0-29-13-29-29V21h58V50z"/>
	<path id="XMLID_21_" d="M36.9,35c0,0.1,0,0.2,0.1,0.4c0,0.4,0.1,0.9,0.2,1.5l0.1,0.4c0.1,0.8,0.4,1.7,0.8,2.5
		c0.2,0.5,0.5,1,0.8,1.4l0.8,1.3c0,0.1,0.1,0.1,0.1,0.2c0.1,0.1,0.2,0.2,0.3,0.3c0.2,0.3,0.5,0.5,0.8,0.8c0.4,0.4,0.9,0.7,1.5,1
		c0,0,0.1,0,0.1,0.1c0.1,0.1,0.3,0.2,0.5,0.3c0,0.1,0,0.2,0,0.3c-1.7,0.5-3,1.7-3.7,3.5c-0.4,0.9,0.1,2.1,1,2.6
		c0.1,0.1,0.2,0.1,0.3,0.1c-0.6,0.6-1.1,1.3-1.4,2.2c-0.2,0.5-0.2,1.1,0.1,1.6c0.2,0.4,0.6,0.8,1,1c0.2,0.1,0.4,0.2,0.6,0.2
		c-0.6,0.6-1.2,1.3-1.6,2.4c-0.2,0.5-0.2,1.1,0.1,1.6c0.2,0.4,0.6,0.8,1,1c0.3,0.2,0.7,0.2,0.9,0.2c0,0,0.1,0,0.1,0
		c1-0.1,1.5-0.7,1.8-1.1c0-0.1,0.1-0.1,0.1-0.2c0.1-0.3,0.4-1.2,1.8-1.1c0.2,0.4,0.4,0.8,0.6,1.2c-0.3,1.8-0.7,3.4-1.2,4.9l-0.1,0.4
		c-0.8,2.6-1.7,5.6-0.4,8.3c0.3,0.5,0.6,0.7,0.7,0.9c0.1,0.1,0.1,0.1,0.2,0.1c0.5,0.3,1.1,0.4,1.6,0.4l4,0l4,0
		c0.6,0.1,1.1,0,1.6-0.4c0.1,0,0.1-0.1,0.2-0.1c0.2-0.2,0.4-0.4,0.8-1c1.2-2.6,0.3-5.6-0.5-8.2l-0.1-0.4c-0.5-1.5-0.9-3-1.1-4.8
		c0.2-0.4,0.4-0.8,0.7-1.3c1.3-0.1,1.7,0.6,1.9,1.1c0.3,0.8,1.1,1.4,1.9,1.4c0.5,0,0.8-0.2,1-0.4c0.3-0.2,0.6-0.5,0.8-0.8
		c0.3-0.5,0.3-1.2,0.1-1.6c-0.4-1-0.9-1.8-1.5-2.3c0.2-0.1,0.4-0.2,0.5-0.3c0.3-0.2,0.6-0.5,0.8-0.9c0.3-0.5,0.3-1.2,0.1-1.6
		c-0.3-0.8-0.8-1.6-1.3-2.1c0.2-0.1,0.4-0.2,0.5-0.3c0.3-0.2,0.6-0.5,0.8-0.9c0.3-0.5,0.3-1.2,0.1-1.6c-0.7-1.9-2-3.1-3.8-3.6
		c0,0,0-0.1,0-0.1c0.2-0.1,0.4-0.2,0.5-0.3c0,0,0.1-0.1,0.2-0.1c0.6-0.2,1.1-0.6,1.5-1c0.3-0.2,0.6-0.5,0.8-0.8
		c0.1-0.1,0.2-0.2,0.3-0.3c0,0,0.1-0.1,0.1-0.2l0.8-1.3c0.3-0.4,0.6-0.9,0.8-1.4c0.4-0.8,0.7-1.7,0.8-2.5l0.1-0.4
		c0.1-0.5,0.2-1,0.2-1.5c0-0.1,0.1-0.3,0.1-0.4c0.1-0.1,0.1-0.3,0.1-0.4c-0.1-1.6-1.5-2.9-3-2.7c-1.6,0.1-2.8,1.5-2.7,2.9v0.4
		c0,0.1,0,0.2,0,0.4c0,0.3,0,0.6,0,0.9c-0.1,0.6-0.1,1.1-0.3,1.7c0,0,0,0.1,0,0.1c-0.1,0.3-0.1,0.6-0.2,0.7
		c-0.1,0.1-0.1,0.3-0.2,0.4c-0.1,0.2-0.2,0.3-0.3,0.5c-0.1,0.2-0.2,0.4-0.3,0.5c-1.3-4.9-3.8-7.9-6.6-7.9c-2.8,0-5.2,3-6.6,7.9
		c-0.1-0.1-0.2-0.3-0.3-0.5c-0.1-0.2-0.2-0.3-0.3-0.5c-0.1-0.1-0.2-0.3-0.2-0.4c-0.1-0.2-0.1-0.4-0.2-0.7c0,0,0-0.1,0-0.1
		c-0.2-0.5-0.2-1-0.3-1.6c0-0.3,0-0.6,0-0.9c0-0.1,0-0.3,0-0.4v-0.2c0.5-1.1,0.9-2.8,0.5-5.3c-0.1-0.5-0.5-0.8-0.9-0.8
		c-0.5,0-0.9,0.3-1,0.7L40.6,31c-1.5-2.8-0.2-4.7-0.2-4.8c0.3-0.4,0.2-0.9-0.1-1.2c-0.3-0.3-0.8-0.4-1.2-0.2
		c-4.6,2.4-3.3,7.9-2.9,8.9C36.4,33.9,36.6,34.4,36.9,35z M50.5,34.3c1.3,0,2.7,1.5,3.7,3.9c-0.4-0.4-1-0.7-1.6-0.7
		c-1.1,0-2,0.8-2.2,1.8c-0.2-1-1.1-1.7-2.2-1.7c-0.6,0-1.1,0.2-1.5,0.6C47.8,35.8,49.2,34.3,50.5,34.3z M52.9,39.8
		c0,0.3-0.5,0.3-0.5,0c0-0.1,0.1-0.3,0.3-0.3S52.9,39.6,52.9,39.8z M48.5,39.9c0,0.1-0.1,0.2-0.3,0.2c-0.1,0-0.3-0.1-0.3-0.3
		s0.1-0.3,0.3-0.3S48.5,39.7,48.5,39.9C48.5,39.9,48.5,39.9,48.5,39.9z M38,29.3c0.2,1.3,0.8,2.8,2.1,4.5c0,0.1,0.1,0.1,0.1,0.2
		c0.1,0.1,0.3,0.2,0.4,0.3c0,0.1-0.1,0.2-0.1,0.3c0,0,0,0.1,0,0.1v0.4c0,0.1,0,0.3,0,0.5c0,0.2,0,0.5,0,0.8c0,0,0,0.1,0,0.1
		c0.1,0.6,0.1,1.3,0.4,2c0.1,0.4,0.2,0.8,0.4,1.2c0.1,0.2,0.2,0.3,0.3,0.5c0.1,0.1,0.2,0.3,0.2,0.4c0.1,0.2,0.4,0.7,0.7,1
		c0.3,0.5,0.6,0.8,1.1,1l0.1,0.1c0.1,0.1,0.2,0.2,0.3,0.2c0.3,0.2,0.6,0.2,0.9,0c0.3-0.1,0.5-0.4,0.6-0.7c0.1-0.7,0.3-1.4,0.5-2.1
		c0.1,1.1,1.1,2,2.2,2c0.6,0,1.3-0.3,1.7-0.8c0.3-0.3,0.4-0.6,0.5-1c0.2,1,1.1,1.7,2.2,1.7c1.2,0,2.1-0.9,2.2-2.1
		c0.2,0.7,0.4,1.5,0.6,2.3c0.1,0.3,0.3,0.6,0.6,0.7c0.3,0.1,0.6,0.1,0.9,0c0.1,0,0.3-0.2,0.3-0.3c0,0,0.1,0,0.1-0.1
		c0.4-0.2,0.8-0.5,1-1c0.3-0.3,0.5-0.8,0.7-1c0.1-0.1,0.1-0.3,0.2-0.4c0.1-0.2,0.2-0.3,0.3-0.5c0.2-0.4,0.3-0.8,0.4-1.2
		c0.2-0.7,0.3-1.4,0.4-2c0,0,0-0.1,0-0.1c0-0.3,0-0.6,0-0.8c0-0.2,0-0.4,0-0.5l0-0.5c0-0.5,0.4-0.9,0.9-0.9c0.5,0,0.8,0.3,0.9,0.7
		c0,0.1,0,0.3,0,0.3l0,0.2c0,0.2-0.1,0.3-0.1,0.4c0,0.2-0.1,0.6-0.2,1l-0.1,0.4c-0.1,0.6-0.4,1.4-0.7,2.1c0,0,0,0.1,0,0.1
		c-0.1,0.3-0.3,0.7-0.6,1l-0.8,1.2c-0.1,0.1-0.2,0.2-0.3,0.3c-0.2,0.2-0.3,0.4-0.5,0.5c-0.1,0-0.1,0.1-0.2,0.1
		c-0.3,0.3-0.6,0.5-0.9,0.6c-0.2,0.1-0.4,0.2-0.6,0.3c0,0-0.1,0.1-0.1,0.1l-0.6,0.2c0,0-0.1,0-0.1,0c-0.5,0.2-0.7,0.6-0.7,1.1
		c0.1,0.6,0.1,0.9,0.1,1.5c0,0.5,0.4,0.9,0.9,0.9c1.5,0.2,2.5,1,3.1,2.5c-0.1,0-0.1,0-0.2,0.1c-0.4-1.2-1.3-1.9-2.5-2.2
		c-0.3-0.1-0.6,0-0.9,0.2c-0.2,0.2-0.4,0.5-0.4,0.8c0,0.8,0,1.7-0.1,2.6c0,0.5,0.3,1,0.9,1.1c1.5,0.2,2.5,1,3.1,2.5c0,0-0.1,0-0.1,0
		c-0.5-1.4-1.6-2.2-3-2.4c-0.5-0.1-1,0.3-1.1,0.8c-0.1,1-0.3,1.9-0.6,2.8c-0.1,0.3,0,0.6,0.2,0.9c0.2,0.2,0.5,0.4,0.8,0.4
		c1,0,2.9,0.3,3.8,2.5c-0.1,0-0.1,0-0.2,0.1c-0.7-1.8-2.4-2.6-4.6-2.2c-0.3,0.1-0.6,0.3-0.8,0.6c-0.3,0.7-0.6,1.3-0.9,1.9
		c-0.1,0.2-0.2,0.4-0.1,0.7c0.3,2,0.7,3.8,1.3,5.5l0.1,0.4c0.7,2.4,1.5,4.9,0.6,6.7c-0.1,0.2-0.2,0.3-0.3,0.4c-0.1,0.1-0.2,0-0.2,0
		c-0.1,0-0.1,0-0.2,0l-4.1,0l-4.1,0c0,0,0,0,0,0c-0.1,0-0.1,0-0.2,0c0,0-0.1,0-0.2,0c-0.1-0.1-0.2-0.2-0.3-0.3
		c-0.9-1.9-0.2-4.4,0.6-6.7l0.1-0.4c0.6-1.7,1-3.4,1.3-5.5c0-0.2,0-0.5-0.1-0.7c-0.3-0.5-0.6-1.1-0.9-1.8c-0.1-0.3-0.4-0.5-0.7-0.6
		c-2.1-0.4-3.8,0.4-4.5,2.2c0,0-0.1,0.1-0.1,0.1c0,0,0,0,0-0.1c0.8-2.2,2.7-2.5,3.7-2.5c0.3,0,0.6-0.1,0.8-0.4
		c0.2-0.2,0.3-0.6,0.2-0.9c-0.3-0.9-0.5-1.9-0.6-2.9c0-0.3-0.2-0.5-0.4-0.7s-0.5-0.2-0.8-0.2c-1.3,0.2-2.3,1-2.8,2.3
		c0,0-0.1,0.1-0.1,0.1c0,0,0,0,0-0.1c0.5-1.4,1.5-2.2,3-2.4c0.5-0.1,0.9-0.5,0.9-1.1C45,50,45,49.1,45,48.3c0-0.3-0.2-0.6-0.4-0.8
		c-0.3-0.2-0.6-0.2-0.9-0.1c-1,0.3-1.8,1.1-2.2,2.1c0,0-0.1,0.1-0.1,0.1c0,0,0,0,0-0.1c0.5-1.4,1.5-2.2,2.9-2.4
		c0.5-0.1,0.8-0.5,0.8-0.9c0-0.6,0.1-1.2,0.2-1.7c0.1-0.5-0.3-0.9-0.8-1.1l-0.6-0.2c0,0-0.1,0-0.1-0.1c-0.1-0.1-0.3-0.2-0.5-0.3
		c-0.4-0.2-0.7-0.4-0.9-0.6c0,0-0.1-0.1-0.2-0.1c-0.2-0.1-0.3-0.3-0.5-0.5c-0.1-0.1-0.2-0.2-0.3-0.3L40.5,40c-0.2-0.4-0.5-0.7-0.6-1
		c0,0,0-0.1,0-0.1c-0.3-0.7-0.6-1.5-0.7-2.1l-0.1-0.4c-0.1-0.4-0.2-0.8-0.2-1c0-0.1,0-0.3-0.1-0.5v-0.1c0,0,0-0.1,0-0.1
		c0-0.2-0.1-0.3-0.1-0.5c-0.4-0.6-0.6-1.1-0.6-1.2c0,0,0,0,0,0C38.1,32.8,37.6,31,38,29.3z M57.9,55.1c-0.2-0.1-0.4-0.1-0.6-0.1
		c0-0.2,0.1-0.4,0.1-0.7C57.7,54.5,57.8,54.7,57.9,55.1C57.9,55.1,57.9,55.1,57.9,55.1z M43.2,55.3c0,0,0-0.1,0.1-0.1
		c0.1-0.3,0.2-0.5,0.3-0.6c0,0.2,0.1,0.4,0.1,0.6C43.5,55.2,43.4,55.3,43.2,55.3z"/>
</g>
</svg>
