<?xml version="1.0" encoding="utf-8"?>
<!-- Generator: Adobe Illustrator 19.0.0, SVG Export Plug-In . SVG Version: 6.00 Build 0)  -->
<!DOCTYPE svg PUBLIC "-//W3C//DTD SVG 1.0//EN" "http://www.w3.org/TR/2001/REC-SVG-20010904/DTD/svg10.dtd">
<svg version="1.0" id="Elements" xmlns="http://www.w3.org/2000/svg" xmlns:xlink="http://www.w3.org/1999/xlink" x="0px" y="0px"
	 viewBox="0 0 100 100" style="enable-background:new 0 0 100 100;" xml:space="preserve">
<g id="XMLID_1_">
	<path id="XMLID_10_" d="M80,19H20c-0.6,0-1,0.4-1,1v30c0,17.1,13.9,31,31,31c17.1,0,31-13.9,31-31V20C81,19.4,80.6,19,80,19z
		 M79,50c0,16-13,29-29,29c-16,0-29-13-29-29V21h58V50z"/>
	<path id="XMLID_13_" d="M43.1,73.5h12c0.3,0,0.6-0.1,0.8-0.4c3.8-5.2,5.3-9,5.7-10.1l0,0c0.4-1.1,8.1-26.2-11.6-36.4
		c-0.4-0.2-0.9-0.1-1.2,0.2c-0.3,0.3-0.3,0.9-0.1,1.2c0,0,2.5,3.7,3.1,9.6c0.7,7.5-2.1,15.4-8,22.9l-4.3-14.4
		c-0.1-0.4-0.6-0.7-1-0.7c-0.5,0-0.8,0.4-0.9,0.8c-3.4,18.5,4.6,26.6,4.9,27C42.6,73.4,42.8,73.5,43.1,73.5z M38.8,51.1l3.5,11.8
		c0.1,0.4,0.4,0.6,0.8,0.7c0.4,0.1,0.7-0.1,1-0.3c12.7-14.9,10.1-27.5,7.9-33.1c5.7,4,8.8,10.2,9.4,18.3c0.5,7.3-1.4,13.4-1.6,13.8
		c0,0,0,0.1-0.1,0.1c-0.3,1-1.7,4.4-5.1,9.1h-11C42.4,70.1,37.7,63.6,38.8,51.1z"/>
</g>
</svg>
