<?xml version="1.0" encoding="utf-8"?>
<!-- Generator: Adobe Illustrator 19.0.0, SVG Export Plug-In . SVG Version: 6.00 Build 0)  -->
<!DOCTYPE svg PUBLIC "-//W3C//DTD SVG 1.0//EN" "http://www.w3.org/TR/2001/REC-SVG-20010904/DTD/svg10.dtd">
<svg version="1.0" id="Elements" xmlns="http://www.w3.org/2000/svg" xmlns:xlink="http://www.w3.org/1999/xlink" x="0px" y="0px"
	 viewBox="0 0 100 100" style="enable-background:new 0 0 100 100;" xml:space="preserve">
<path id="XMLID_13_" d="M81,50V20c0-0.6-0.4-1-1-1H20c-0.6,0-1,0.4-1,1v30c0,17.1,13.9,31,31,31c5.7,0,11-1.5,15.6-4.2c0,0,0,0,0,0
	c4.6-2.7,8.4-6.5,11.1-11.1c0,0,0,0,0,0C79.5,61,81,55.7,81,50z M79,50c0,4.9-1.2,9.5-3.4,13.6L51,39V21h28V50z M49,37L33,21h16V37z
	 M21,50V33l28,28v18C33.5,78.4,21,65.7,21,50z M51,63l12.6,12.6c-3.8,2-8.1,3.2-12.6,3.4V63z M65.4,74.6L50.7,59.9c0,0,0,0,0,0
	L21,30.2V21h9.2l19.1,19.1c0,0,0,0,0,0l25.3,25.3C72.2,69.1,69.1,72.2,65.4,74.6z"/>
</svg>
