<?xml version="1.0" encoding="utf-8"?>
<!-- Generator: Adobe Illustrator 19.2.1, SVG Export Plug-In . SVG Version: 6.00 Build 0)  -->
<svg version="1.0" id="Layer_1" xmlns="http://www.w3.org/2000/svg" xmlns:xlink="http://www.w3.org/1999/xlink" x="0px" y="0px"
	 viewBox="0 0 100 100" enable-background="new 0 0 100 100" xml:space="preserve">
<g id="XMLID_89_">
	<path id="XMLID_90_" d="M50.4,21.1C35.3,21.1,23,34.5,23,50.9s12.3,29.8,27.4,29.8c3.9,0,7.7-0.9,11.2-2.6c0.5-0.2,0.7-0.8,0.5-1.3
		c-0.2-0.3-0.5-0.6-0.9-0.6c-0.2,0-0.3,0-0.4,0.1c-3.3,1.6-6.8,2.4-10.4,2.4c-14,0-25.4-12.4-25.4-27.8s11.4-27.8,25.4-27.8
		s25.4,12.4,25.4,27.8c0,3.8-0.6,7.5-1.6,9.8c-1.2,2.9-3.6,6.4-8.1,6.8c-0.3,0-0.6,0-0.9,0c-1.2,0-2.1-0.3-2.8-0.9
		c-1.1-1-1.3-2.7-1.3-3.9V36.5c0-0.6-0.4-1-1-1s-1,0.4-1,1v6.1c-2.3-4.5-6.3-7.5-10.9-7.5c-7.1,0-12.9,7.2-12.9,16
		c0,8.8,5.8,16,12.9,16c4.6,0,8.6-3,10.9-7.5v2.7c0,0,0,0,0,0c0,0.2,0,0.3,0,0.5V63c0,0,0,0,0,0c0,1.4,0.3,3.6,1.9,5.1
		c1,0.9,2.4,1.4,4.1,1.4c0.3,0,0.7,0,1.1-0.1c4.3-0.4,7.8-3.3,9.8-8c1.1-2.6,1.7-6.4,1.7-10.6C77.8,34.5,65.5,21.1,50.4,21.1z
		 M48.3,65.1c-6,0-10.9-6.3-10.9-14c0-7.7,4.9-14,10.9-14s10.9,6.3,10.9,14C59.2,58.8,54.3,65.1,48.3,65.1z"/>
</g>
</svg>
