<?xml version="1.0" encoding="utf-8"?>
<!-- Generator: Adobe Illustrator 19.2.1, SVG Export Plug-In . SVG Version: 6.00 Build 0)  -->
<svg version="1.0" id="Layer_1" xmlns="http://www.w3.org/2000/svg" xmlns:xlink="http://www.w3.org/1999/xlink" x="0px" y="0px"
	 viewBox="0 0 100 100" enable-background="new 0 0 100 100" xml:space="preserve">
<g id="XMLID_87_">
	<path id="XMLID_88_" d="M50.4,80.6c-16.4,0-29.7-13.3-29.7-29.7S34,21.2,50.4,21.2s29.7,13.3,29.7,29.7c0,5.3-1.4,10.5-4.2,15.2
		c-0.2,0.3-0.5,0.5-0.8,0.5c-0.2,0-0.4-0.1-0.6-0.1c-0.4-0.3-0.6-0.9-0.3-1.4c2.5-4.2,3.9-9.1,3.9-14.1c0-15.3-12.4-27.7-27.7-27.7
		S22.7,35.6,22.7,50.9s12.4,27.7,27.7,27.7c5.4,0,10.1-1.5,12.9-4.2c2.4-2.3,3.5-4.8,3.3-7.2c-0.5-4.7-5.8-8.3-7.5-9.4v-0.2h-0.3
		c-0.2,0-0.4,0.1-0.7,0.4L58,58.1c-0.3,0.3-0.9,0.8-1.2,1.2c-0.7,0.7-1.1,1.1-1.3,1.3c-0.6,0.5-1.2,0.8-1.7,0.8c-0.1,0-0.2,0-0.3,0
		c-0.3,0-0.5-0.1-0.7-0.2L52.6,61c-0.5-0.3-2.8-2-6.9-6.6c-3.1-3.5-4.7-6.7-4.7-9.2c0.1-0.8,0.6-1.3,1.2-1.8c0.4-0.4,1-0.8,1.8-1.2
		c0.6-0.3,1.1-0.7,1.6-1.1c0.1-0.1,0.1-0.1,0.2-0.1c0.1-0.1,0.3-0.2,0.3-0.4v-0.1l0-0.2c-0.1-0.1-0.3-0.8-0.7-1.6
		c-0.9-1.9-2.1-4.8-2.7-5.9l-0.1-0.2h-0.2c-0.4,0-0.7,0-0.9,0.1c-5.1,2.1-5.9,5.3-6,6.7c0,0.1-0.8,8.7,6.7,17.7
		c8.2,10,14.7,10.8,15.4,10.8l0.2,0c0.1,0,0.3,0,0.6,0c1,0,1.9-0.2,2.8-0.5c0.1,0,0.2-0.1,0.4-0.1c0.4,0,0.7,0.3,0.9,0.7
		c0.1,0.3,0.1,0.5,0,0.7c-0.1,0.2-0.3,0.4-0.6,0.5c-1.5,0.5-3,0.6-3.7,0.6c-0.3,0-0.5,0-0.7,0c-1.3-0.1-8.3-1.2-16.7-11.6
		c-7.9-9.6-7.1-19-7.1-19.1c0.1-1.3,0.8-5.8,7.2-8.2c0.4-0.2,1-0.2,1.5-0.2c0.5,0,1.5,0.1,1.9,0.7c0.3,0.5,3.7,8,3.8,8.4
		c0.2,0.4,0.2,0.8,0.2,1.2c-0.1,0.5-0.4,1.1-1.2,1.8l-1.8,1.3c-0.2,0.1-0.3,0.2-0.5,0.3c-0.4,0.2-0.7,0.4-1.1,0.7
		c-0.1,0.1-0.2,0.2-0.2,0.2h-0.3l0.1,0.3c0,0.3,0.1,2.8,4.2,7.4c3.9,4.4,5.9,5.9,6.3,6.1l0.1,0.1h0.1c0.2,0,0.4-0.1,0.6-0.4l1.1-1.1
		c0.8-0.8,1.4-1.4,1.7-1.6c0.7-0.5,1.3-0.7,1.8-0.7c0.1,0,0.1,0,0.2,0c0.4,0.1,0.8,0.2,1.1,0.4c0.8,0.5,7.8,4.9,8.6,11
		c0.3,3.2-1,6.2-3.9,8.9C61.4,78.8,56.3,80.6,50.4,80.6z"/>
</g>
</svg>
