<?xml version="1.0" encoding="utf-8"?>
<!-- Generator: Adobe Illustrator 19.0.0, SVG Export Plug-In . SVG Version: 6.00 Build 0)  -->
<!DOCTYPE svg PUBLIC "-//W3C//DTD SVG 1.0//EN" "http://www.w3.org/TR/2001/REC-SVG-20010904/DTD/svg10.dtd">
<svg version="1.0" id="Elements" xmlns="http://www.w3.org/2000/svg" xmlns:xlink="http://www.w3.org/1999/xlink" x="0px" y="0px"
	 viewBox="0 0 100 100" style="enable-background:new 0 0 100 100;" xml:space="preserve">
<g id="XMLID_1_">
	<path id="XMLID_4_" d="M35,50.1c1.9,0,3.5-1.6,3.5-3.5s-1.6-3.5-3.5-3.5s-3.5,1.6-3.5,3.5S33.1,50.1,35,50.1z M35,45.1
		c0.8,0,1.5,0.7,1.5,1.5s-0.7,1.5-1.5,1.5s-1.5-0.7-1.5-1.5S34.2,45.1,35,45.1z"/>
	<path id="XMLID_41_" d="M45,50.1c1.9,0,3.5-1.6,3.5-3.5s-1.6-3.5-3.5-3.5s-3.5,1.6-3.5,3.5S43.1,50.1,45,50.1z M45,45.1
		c0.8,0,1.5,0.7,1.5,1.5s-0.7,1.5-1.5,1.5s-1.5-0.7-1.5-1.5S44.2,45.1,45,45.1z"/>
	<path id="XMLID_44_" d="M55,50.1c1.9,0,3.5-1.6,3.5-3.5s-1.6-3.5-3.5-3.5s-3.5,1.6-3.5,3.5S53.1,50.1,55,50.1z M55,45.1
		c0.8,0,1.5,0.7,1.5,1.5s-0.7,1.5-1.5,1.5s-1.5-0.7-1.5-1.5S54.2,45.1,55,45.1z"/>
	<path id="XMLID_47_" d="M35,60.1c1.9,0,3.5-1.6,3.5-3.5s-1.6-3.5-3.5-3.5s-3.5,1.6-3.5,3.5S33.1,60.1,35,60.1z M35,55.1
		c0.8,0,1.5,0.7,1.5,1.5s-0.7,1.5-1.5,1.5s-1.5-0.7-1.5-1.5S34.2,55.1,35,55.1z"/>
	<path id="XMLID_50_" d="M45,60.1c1.9,0,3.5-1.6,3.5-3.5s-1.6-3.5-3.5-3.5s-3.5,1.6-3.5,3.5S43.1,60.1,45,60.1z M45,55.1
		c0.8,0,1.5,0.7,1.5,1.5s-0.7,1.5-1.5,1.5s-1.5-0.7-1.5-1.5S44.2,55.1,45,55.1z"/>
	<path id="XMLID_53_" d="M35,70.1c1.9,0,3.5-1.6,3.5-3.5s-1.6-3.5-3.5-3.5s-3.5,1.6-3.5,3.5S33.1,70.1,35,70.1z M35,65.1
		c0.8,0,1.5,0.7,1.5,1.5s-0.7,1.5-1.5,1.5s-1.5-0.7-1.5-1.5S34.2,65.1,35,65.1z"/>
	<path id="XMLID_56_" d="M45,70.1c1.9,0,3.5-1.6,3.5-3.5s-1.6-3.5-3.5-3.5s-3.5,1.6-3.5,3.5S43.1,70.1,45,70.1z M45,65.1
		c0.8,0,1.5,0.7,1.5,1.5s-0.7,1.5-1.5,1.5s-1.5-0.7-1.5-1.5S44.2,65.1,45,65.1z"/>
	<path id="XMLID_59_" d="M55,60.1c1.9,0,3.5-1.6,3.5-3.5s-1.6-3.5-3.5-3.5s-3.5,1.6-3.5,3.5S53.1,60.1,55,60.1z M55,55.1
		c0.8,0,1.5,0.7,1.5,1.5s-0.7,1.5-1.5,1.5s-1.5-0.7-1.5-1.5S54.2,55.1,55,55.1z"/>
	<path id="XMLID_62_" d="M65,50.1c1.9,0,3.5-1.6,3.5-3.5s-1.6-3.5-3.5-3.5s-3.5,1.6-3.5,3.5S63.1,50.1,65,50.1z M65,45.1
		c0.8,0,1.5,0.7,1.5,1.5s-0.7,1.5-1.5,1.5s-1.5-0.7-1.5-1.5S64.2,45.1,65,45.1z"/>
	<path id="XMLID_65_" d="M69.8,24.6h-4.6v-2.5c0-1.3-1.1-2.4-2.4-2.4h-2.8c-1.3,0-2.4,1.1-2.4,2.4v2.5H42.5v-2.5
		c0-1.3-1.1-2.4-2.4-2.4h-2.8c-1.3,0-2.4,1.1-2.4,2.4v2.5h-4.6c-4.4,0-8.1,3.6-8.1,8.1v39.5c0,4.4,3.6,8.1,8.1,8.1h31.4l16.1-14.7
		V32.7C77.8,28.3,74.2,24.6,69.8,24.6z M59.5,22.1c0-0.2,0.2-0.4,0.4-0.4h2.8c0.2,0,0.4,0.2,0.4,0.4v7.1c0,0.2-0.2,0.4-0.4,0.4h-2.8
		c-0.2,0-0.4-0.2-0.4-0.4V22.1z M36.9,22.1c0-0.2,0.2-0.4,0.4-0.4h2.8c0.2,0,0.4,0.2,0.4,0.4v7.1c0,0.2-0.2,0.4-0.4,0.4h-2.8
		c-0.2,0-0.4-0.2-0.4-0.4V22.1z M62.3,77v-4.8c0-3.3,2.7-6.1,6.1-6.1h5.9L62.3,77z M75.8,64.2h-7.5c-4.4,0-8.1,3.6-8.1,8.1v6.1H30.2
		c-3.3,0-6.1-2.7-6.1-6.1V36.5h51.6V64.2z M75.8,34.5H24.2v-1.8c0-3.3,2.7-6.1,6.1-6.1h4.6v2.5c0,1.3,1.1,2.4,2.4,2.4h2.8
		c1.3,0,2.4-1.1,2.4-2.4v-2.5h14.9v2.5c0,1.3,1.1,2.4,2.4,2.4h2.8c1.3,0,2.4-1.1,2.4-2.4v-2.5h4.6c3.3,0,6.1,2.7,6.1,6.1V34.5z"/>
</g>
</svg>
