<?xml version="1.0" encoding="utf-8"?>
<!-- Generator: Adobe Illustrator 19.0.0, SVG Export Plug-In . SVG Version: 6.00 Build 0)  -->
<!DOCTYPE svg PUBLIC "-//W3C//DTD SVG 1.0//EN" "http://www.w3.org/TR/2001/REC-SVG-20010904/DTD/svg10.dtd">
<svg version="1.0" id="Elements" xmlns="http://www.w3.org/2000/svg" xmlns:xlink="http://www.w3.org/1999/xlink" x="0px" y="0px"
	 viewBox="0 0 100 100" style="enable-background:new 0 0 100 100;" xml:space="preserve">
<g id="XMLID_8_">
	<path id="XMLID_11_" d="M50,31.1c-4.6,0-8.4,3.8-8.4,8.4s3.8,8.4,8.4,8.4s8.4-3.8,8.4-8.4S54.6,31.1,50,31.1z M50,45.9
		c-3.5,0-6.4-2.9-6.4-6.4c0-3.5,2.9-6.4,6.4-6.4c3.5,0,6.4,2.9,6.4,6.4C56.4,43,53.5,45.9,50,45.9z"/>
	<rect id="XMLID_13_" x="62.8" y="29" width="3.2" height="2"/>
	<path id="XMLID_17_" d="M57.3,56.9v-2.8h9.3c2.6,0,4.5-1.8,4.5-4.2V29.1c0-2.5-2-4.5-4.5-4.5h-7.9l-0.4-2.2
		c-0.3-1.3-1.4-2.2-2.7-2.2H44.5c-1.3,0-2.4,0.9-2.7,2.2l-0.4,2.2h-7.9c-2.5,0-4.5,2-4.5,4.5v20.9c0,2.4,1.9,4.2,4.5,4.2h9.3v2.8
		c0,1.9,1.6,3.5,3.5,3.5h0.2l-16,17.7c-0.4,0.4-0.3,1,0.1,1.4c0.2,0.2,0.4,0.3,0.7,0.3c0.3,0,0.6-0.1,0.7-0.3l17-18.8v18.2
		c0,0.6,0.4,1,1,1s1-0.4,1-1V60.6l17,18.8c0.2,0.2,0.5,0.3,0.7,0.3c0.2,0,0.5-0.1,0.7-0.3c0.4-0.4,0.4-1,0.1-1.4l-16-17.7h0.2
		C55.7,60.4,57.3,58.8,57.3,56.9z M43.7,22.9c0.1-0.3,0.4-0.6,0.7-0.6h11.1c0.3,0,0.7,0.3,0.7,0.6l0.4,1.8H43.4L43.7,22.9z
		 M33.5,52.1c-1.2,0-2.5-0.7-2.5-2.2V29.1c0-1.4,1.1-2.5,2.5-2.5h8.6H43h14h0.2h9.3c1.4,0,2.5,1.1,2.5,2.5v20.9
		c0,1.5-1.3,2.2-2.5,2.2H33.5z M46.3,58.4c-0.8,0-1.5-0.7-1.5-1.5v-2.8h10.5v2.8c0,0.8-0.7,1.5-1.5,1.5H46.3z"/>
</g>
</svg>
