<?xml version="1.0" encoding="utf-8"?>
<!-- Generator: Adobe Illustrator 19.2.1, SVG Export Plug-In . SVG Version: 6.00 Build 0)  -->
<svg version="1.0" id="Layer_1" xmlns="http://www.w3.org/2000/svg" xmlns:xlink="http://www.w3.org/1999/xlink" x="0px" y="0px"
	 viewBox="0 0 100 100" enable-background="new 0 0 100 100" xml:space="preserve">
<g id="XMLID_79_">
	<path id="XMLID_80_" d="M50.4,33.9c-0.6,0-1,0.4-1,1c0,0.6,0.4,1,1,1c5.5,0,10,4.5,10,10c0,0.6,0.4,1,1,1s1-0.4,1-1
		C62.4,39.3,57,33.9,50.4,33.9z"/>
	<path id="XMLID_81_" d="M68.7,61.9h-1.3v-16c0-8.4-6-15.3-14-16.7c0.3-0.5,0.5-1.1,0.5-1.8c0-1.9-1.6-3.5-3.5-3.5s-3.5,1.6-3.5,3.5
		c0,0.7,0.2,1.3,0.5,1.8c-8,1.4-14,8.3-14,16.7v16h-1.3c-2.1,0-3.7,1.8-3.7,4s1.7,4,3.7,4h11.3c0,3.9,3.1,7,7,7c3.9,0,7-3.1,7-7
		h11.3c2.1,0,3.7-1.8,3.7-4S70.7,61.9,68.7,61.9z M48.9,27.4c0-0.8,0.7-1.5,1.5-1.5s1.5,0.7,1.5,1.5s-0.7,1.5-1.5,1.5
		S48.9,28.2,48.9,27.4z M35.4,45.9c0-8.3,6.7-15,15-15s15,6.7,15,15v16h-30V45.9z M50.4,74.9c-2.8,0-5-2.2-5-5h10
		C55.4,72.7,53.2,74.9,50.4,74.9z M68.7,67.9H57.2H43.6H32.1c-1,0-1.7-0.9-1.7-2c0-1.1,0.8-2,1.7-2h1.3h34h1.3c1,0,1.7,0.9,1.7,2
		C70.4,67,69.6,67.9,68.7,67.9z"/>
</g>
</svg>
