<svg xmlns="http://www.w3.org/2000/svg" viewBox="0 0 80 80"><title>alo_icon_system_stream-small</title><path d="M40,80A40,40,0,1,1,80,40,40.04552,40.04552,0,0,1,40,80ZM40,3A37,37,0,1,0,77,40,37.04161,37.04161,0,0,0,40,3Z"/><path d="M50.74023,22.25H30.207a1.5,1.5,0,0,1,0-3h20.5332a1.5,1.5,0,1,1,0,3Z"/><path d="M50.74023,60.75H30.207a1.5,1.5,0,0,1,0-3h20.5332a1.5,1.5,0,1,1,0,3Z"/><path d="M21.22363,24.81689a1.50007,1.50007,0,0,1-1.5-1.5V20.75a1.5,1.5,0,0,1,3,0v2.56689A1.50007,1.50007,0,0,1,21.22363,24.81689Z"/><path d="M21.22363,60.75a1.50007,1.50007,0,0,1-1.5-1.5V56.68311a1.5,1.5,0,0,1,3,0V59.25A1.50007,1.50007,0,0,1,21.22363,60.75Z"/><path d="M21.22363,48.77246a1.50007,1.50007,0,0,1-1.5-1.5V44.70557a1.5,1.5,0,0,1,3,0v2.56689A1.50007,1.50007,0,0,1,21.22363,48.77246Z"/><path d="M21.22363,36.79443a1.50007,1.50007,0,0,1-1.5-1.5V32.72754a1.5,1.5,0,0,1,3,0v2.56689A1.50007,1.50007,0,0,1,21.22363,36.79443Z"/><path d="M59.72363,24.81689a1.50007,1.50007,0,0,1-1.5-1.5V20.75a1.5,1.5,0,0,1,3,0v2.56689A1.50007,1.50007,0,0,1,59.72363,24.81689Z"/><path d="M59.72363,60.75a1.50007,1.50007,0,0,1-1.5-1.5V56.68311a1.5,1.5,0,0,1,3,0V59.25A1.50007,1.50007,0,0,1,59.72363,60.75Z"/><path d="M59.72363,48.77246a1.50007,1.50007,0,0,1-1.5-1.5V44.70557a1.5,1.5,0,0,1,3,0v2.56689A1.50007,1.50007,0,0,1,59.72363,48.77246Z"/><path d="M59.72363,36.79443a1.50007,1.50007,0,0,1-1.5-1.5V32.72754a1.5,1.5,0,0,1,3,0v2.56689A1.50007,1.50007,0,0,1,59.72363,36.79443Z"/><path d="M34.20117,51.7666a1.5,1.5,0,0,1-1.06055-2.56055l9.41113-9.41113a1.49945,1.49945,0,0,1,2.12109,0l7.12793,7.12793a1.49984,1.49984,0,0,1-2.12109,2.12109L43.6123,42.97656l-8.35059,8.35059A1.49514,1.49514,0,0,1,34.20117,51.7666Z"/><path d="M30.43652,40.2168a1.5,1.5,0,1,1,0-3,7.49205,7.49205,0,0,0,7.4834-7.4834,1.5,1.5,0,1,1,3,0A10.49533,10.49533,0,0,1,30.43652,40.2168Z"/><path d="M50.74023,51.7666H30.207a1.50007,1.50007,0,0,1-1.5-1.5V29.7334a1.50007,1.50007,0,0,1,1.5-1.5h20.5332a1.50007,1.50007,0,0,1,1.5,1.5V50.2666A1.50007,1.50007,0,0,1,50.74023,51.7666Zm-19.0332-3h17.5332V31.2334H31.707Z"/></svg>