<?xml version="1.0" encoding="utf-8"?>
<!-- Generator: Adobe Illustrator 20.0.0, SVG Export Plug-In . SVG Version: 6.00 Build 0)  -->
<svg version="1.0" id="Layer_1" xmlns="http://www.w3.org/2000/svg" xmlns:xlink="http://www.w3.org/1999/xlink" x="0px" y="0px"
	 viewBox="0 0 80 80" style="enable-background:new 0 0 80 80;" xml:space="preserve">
<title>alo_service-arrow-small</title>
<path d="M40,0c22.1,0,40,17.9,40,40S62.1,80,40,80S0,62.1,0,40C0,17.9,17.9,0,40,0z M40,77c20.4,0,37-16.6,37-37S60.4,3,40,3
	S3,19.6,3,40C3,60.4,19.6,77,40,77z"/>
<path d="M32.9,19.2c0.4,0,0.8,0.2,1.1,0.4l19.2,19.2c0.6,0.6,0.6,1.5,0,2.1c0,0,0,0,0,0L34,60.3c-0.6,0.6-1.5,0.6-2.1,0
	s-0.6-1.5,0-2.1c0,0,0,0,0,0L50.1,40L31.9,21.8c-0.6-0.6-0.6-1.5,0-2.1C32.2,19.4,32.5,19.3,32.9,19.2z"/>
</svg>
