<svg xmlns="http://www.w3.org/2000/svg" viewBox="0 0 80 80"><title>alo_icon_system_reminder-small</title><path d="M40,80A40,40,0,1,1,80,40,40.04583,40.04583,0,0,1,40,80ZM40,3A37,37,0,1,0,77,40,37.04129,37.04129,0,0,0,40,3Z"/><path d="M40,59.4668A19.146,19.146,0,1,1,59.14551,40.32129,19.16748,19.16748,0,0,1,40,59.4668Zm0-35.292A16.146,16.146,0,1,0,56.14551,40.32129,16.16441,16.16441,0,0,0,40,24.1748Z"/><path d="M40,24.1748a1.50039,1.50039,0,0,1-1.5-1.5v-3.208a1.5,1.5,0,0,1,3,0v3.208A1.50039,1.50039,0,0,1,40,24.1748Z"/><path d="M40,41.82129a1.50039,1.50039,0,0,1-1.5-1.5V29.41211a1.5,1.5,0,0,1,3,0V40.32129A1.50039,1.50039,0,0,1,40,41.82129Z"/><path d="M57.64551,59.4668a1.49514,1.49514,0,0,1-1.06055-.43945L51.417,53.8584a1.49984,1.49984,0,0,1,2.12109-2.12109l5.168,5.16895a1.5,1.5,0,0,1-1.06055,2.56055Z"/><path d="M22.35449,59.4668a1.5,1.5,0,0,1-1.06055-2.56055l5.168-5.16895A1.49984,1.49984,0,0,1,28.583,53.8584l-5.168,5.16895A1.49514,1.49514,0,0,1,22.35449,59.4668Z"/><path d="M54.75684,32.16309A1.50022,1.50022,0,0,1,54.6582,29.166a3.30118,3.30118,0,1,0-3.50391-3.50293,1.51832,1.51832,0,0,1-1.59766,1.39648,1.50117,1.50117,0,0,1-1.39648-1.59766,6.3016,6.3016,0,1,1,6.69922,6.69824Q54.80811,32.16309,54.75684,32.16309Z"/><path d="M25.24316,32.16309q-.05127,0-.10254-.00293a6.30163,6.30163,0,1,1,6.69922-6.69824,1.50045,1.50045,0,0,1-2.99414.20117A3.30115,3.30115,0,1,0,25.3418,29.166a1.50022,1.50022,0,0,1-.09863,2.99707Z"/></svg>