<svg xmlns="http://www.w3.org/2000/svg" viewBox="0 0 80 80"><title>alo_service-views-small</title><path d="M40,80A40,40,0,1,1,80,40,40.04552,40.04552,0,0,1,40,80ZM40,3A37,37,0,1,0,77,40,37.04161,37.04161,0,0,0,40,3Z"/><path d="M46.416,60.75a7.91675,7.91675,0,1,1,7.917-7.9165A7.925,7.925,0,0,1,46.416,60.75Zm0-12.8335a4.91675,4.91675,0,1,0,4.917,4.917A4.9218,4.9218,0,0,0,46.416,47.9165Z"/><path d="M27.166,60.75a7.91675,7.91675,0,1,1,7.917-7.9165A7.925,7.925,0,0,1,27.166,60.75Zm0-12.8335a4.91675,4.91675,0,1,0,4.917,4.917A4.9218,4.9218,0,0,0,27.166,47.9165Z"/><path d="M40,54.3335a1.50007,1.50007,0,0,1-1.5-1.5,1.7085,1.7085,0,1,0-3.417,0,1.5,1.5,0,0,1-3,0,4.7085,4.7085,0,1,1,9.417,0A1.50007,1.50007,0,0,1,40,54.3335Z"/><path d="M20.75,54.3335a1.50007,1.50007,0,0,1-1.5-1.5V23.9585a4.708,4.708,0,1,1,9.416,0,1.5,1.5,0,0,1-3,0,1.708,1.708,0,1,0-3.416,0v28.875A1.50007,1.50007,0,0,1,20.75,54.3335Z"/><path d="M52.833,54.3335a1.50007,1.50007,0,0,1-1.5-1.5V23.9585a4.7085,4.7085,0,1,1,9.417,0,1.5,1.5,0,0,1-3,0,1.7085,1.7085,0,1,0-3.417,0v28.875A1.50007,1.50007,0,0,1,52.833,54.3335Z"/></svg>