<svg xmlns="http://www.w3.org/2000/svg" viewBox="0 0 80 80"><title>alo_icon_system_list-small</title><path d="M40,80A40,40,0,1,1,80,40,40.04552,40.04552,0,0,1,40,80ZM40,3A37,37,0,1,0,77,40,37.04161,37.04161,0,0,0,40,3Z"/><path d="M59.72363,35.0835h-38.5a1.5,1.5,0,1,1,0-3h38.5a1.5,1.5,0,0,1,0,3Z"/><path d="M59.72363,22.25h-38.5a1.5,1.5,0,1,1,0-3h38.5a1.5,1.5,0,0,1,0,3Z"/><path d="M59.72363,47.9165h-38.5a1.5,1.5,0,1,1,0-3h38.5a1.5,1.5,0,0,1,0,3Z"/><path d="M59.72363,60.75h-38.5a1.5,1.5,0,1,1,0-3h38.5a1.5,1.5,0,0,1,0,3Z"/></svg>