<svg xmlns="http://www.w3.org/2000/svg" viewBox="0 0 80 80"><title>alo_icon_system_phone-small</title><path d="M40,80A40,40,0,1,1,80,40,40.04583,40.04583,0,0,1,40,80ZM40,3A37,37,0,1,0,77,40,37.04161,37.04161,0,0,0,40,3Z"/><path d="M55.46387,65.89746a1.50039,1.50039,0,0,1-1.5-1.5,8.945,8.945,0,0,0-.708-3.50781,1.50055,1.50055,0,1,1,2.76367-1.16992,11.94084,11.94084,0,0,1,.94434,4.67773A1.50039,1.50039,0,0,1,55.46387,65.89746Z"/><path d="M54.63867,61.80469a1.49808,1.49808,0,0,1-1.2998-.75,3.72676,3.72676,0,0,0-2.28027-1.749,1.50018,1.50018,0,1,1,.77539-2.89844,6.71193,6.71193,0,0,1,4.10254,3.14746,1.50011,1.50011,0,0,1-1.29785,2.25Z"/><path d="M51.61523,75.18848a1.5,1.5,0,0,1-1.06055-2.56055,11.56339,11.56339,0,0,0,3.40918-8.23047,1.5,1.5,0,0,1,3,0A14.54087,14.54087,0,0,1,52.67578,74.749,1.49514,1.49514,0,0,1,51.61523,75.18848Z"/><path d="M40,80a1.5,1.5,0,0,1,0-3,14.83006,14.83006,0,0,0,10.55469-4.37207A1.49984,1.49984,0,0,1,52.67578,74.749,17.80991,17.80991,0,0,1,40,80Z"/><path d="M51.44629,59.35645c-10.94727,0-30.82422-19.87744-30.82422-30.82471a10.025,10.025,0,0,1,2.95508-7.13525h0l2.43066-2.43018a3.79343,3.79343,0,0,1,5.36035,0l8.92676,8.92676a3.79639,3.79639,0,0,1,0,5.36133l-1.8125,1.8125a10.02177,10.02177,0,0,0,6.42871,6.42822l1.8125-1.8125a3.79728,3.79728,0,0,1,5.36133-.00049l8.92676,8.92725a3.79728,3.79728,0,0,1,.001,5.36133l-2.43164,2.42969A10.02329,10.02329,0,0,1,51.44629,59.35645Zm-25.748-35.83887a7.04433,7.04433,0,0,0-2.07617,5.01416c0,9.36182,18.46289,27.82471,27.82422,27.82471A7.04344,7.04344,0,0,0,56.46,54.2793l2.43066-2.42969a.79305.79305,0,0,0,0-1.11914l-8.92676-8.92676a.79128.79128,0,0,0-1.11914,0L46.415,44.2334a1.50217,1.50217,0,0,1-1.40039.40039,13.01613,13.01613,0,0,1-9.6709-9.6709,1.49987,1.49987,0,0,1,.40039-1.3999l2.42969-2.42969a.794.794,0,0,0,0-1.11914L29.24707,21.0874a.80939.80939,0,0,0-1.11816,0Z"/></svg>