<svg xmlns="http://www.w3.org/2000/svg" viewBox="0 0 80 80"><title>alo_icon_system_email-small</title><path d="M40,80A40,40,0,1,1,80,40,40.04583,40.04583,0,0,1,40,80ZM40,3A37,37,0,1,0,77,40,37.04161,37.04161,0,0,0,40,3Z"/><path d="M39.75391,60.21094a20.75,20.75,0,1,1,20.75-20.75A20.77374,20.77374,0,0,1,39.75391,60.21094Zm0-38.5a17.75,17.75,0,1,0,17.75,17.75A17.77014,17.77014,0,0,0,39.75391,21.71094Z"/><path d="M59.00391,46.65039a1.50039,1.50039,0,0,1-1.5-1.5V20.21094a1.5,1.5,0,0,1,3,0V45.15039A1.50039,1.50039,0,0,1,59.00391,46.65039Z"/><path d="M61.27051,51.4082A1.49821,1.49821,0,0,1,60.21,50.96973a8.17565,8.17565,0,0,1-2.41016-5.81934,1.5,1.5,0,1,1,3,0,5.18962,5.18962,0,0,0,1.53125,3.69629,1.5,1.5,0,0,1-1.06055,2.56152Z"/><path d="M67.2168,53.87109A9.84208,9.84208,0,0,1,60.21,50.96875a1.49984,1.49984,0,0,1,2.12109-2.12109,6.8646,6.8646,0,0,0,4.88574,2.02344,1.5,1.5,0,0,1,0,3Z"/><path d="M67.2168,53.87109a1.5,1.5,0,0,1,0-3,8.955,8.955,0,0,0,6.374-2.63965,1.49984,1.49984,0,0,1,2.12109,2.12109A11.93651,11.93651,0,0,1,67.2168,53.87109Z"/><path d="M74.65137,50.792a1.5,1.5,0,0,1-1.06055-2.56055A11.56564,11.56564,0,0,0,77,40a1.5,1.5,0,0,1,3,0,14.54145,14.54145,0,0,1-4.28809,10.35254A1.49514,1.49514,0,0,1,74.65137,50.792Z"/></svg>