<svg id="Elements" xmlns="http://www.w3.org/2000/svg" viewBox="0 0 75 75"><title>alo_service</title><path d="M37.5,48.5a11.0029,11.0029,0,0,1-4.28223-21.13525,10.99325,10.99325,0,0,1,12.06055,2.35645,11.01092,11.01092,0,0,1,2.35645,12.061,0.99994,0.99994,0,0,1-1.8418-.7793,9.00934,9.00934,0,0,0-4.79-11.79639,9.07726,9.07726,0,0,0-7.00586,0A9,9,0,0,0,37.5,46.5,1,1,0,0,1,37.5,48.5Z"/><path d="M41.5166,44.83691a0.99974,0.99974,0,0,1-1-1,1.71258,1.71258,0,0,0-.13574-0.67236,1.00032,1.00032,0,0,1,1.8418-.78125,3.69871,3.69871,0,0,1,.29395,1.45361A0.99974,0.99974,0,0,1,41.5166,44.83691Z"/><path d="M41.30273,43.77393a1.00066,1.00066,0,0,1-.86719-0.49951,0.36447,0.36447,0,0,0-.22266-0.1709,1.00014,1.00014,0,0,1,.51953-1.93164A2.35622,2.35622,0,0,1,42.168,42.27344,1.00068,1.00068,0,0,1,41.30273,43.77393Z"/><path d="M40.5166,47.25049a1.00024,1.00024,0,0,1-.707-1.70752,2.39463,2.39463,0,0,0,.707-1.70605,1,1,0,0,1,2,0,4.38322,4.38322,0,0,1-1.293,3.12109A0.99829,0.99829,0,0,1,40.5166,47.25049Z"/><path d="M37.5,48.5a1,1,0,0,1,0-2,3.24337,3.24337,0,0,0,2.30957-.95654,0.99989,0.99989,0,1,1,1.41406,1.41406A5.2297,5.2297,0,0,1,37.5,48.5Z"/><path d="M40.47266,43.1377c-3.17578,0-8.71191-5.53613-8.71191-8.71143a3.23554,3.23554,0,0,1,.95508-2.30518l0.42578-.42529a1.94974,1.94974,0,0,1,2.69336.00049l1.9209,1.9209a1.90657,1.90657,0,0,1,.02246,2.66895,2.03852,2.03852,0,0,0,.835.834,1.9498,1.9498,0,0,1,2.66895.02295l1.9209,1.92188a1.90438,1.90438,0,0,1,0,2.69287l-0.42578.42529A3.233,3.233,0,0,1,40.47266,43.1377Zm-5.98437-9.96-0.3584.35791a1.24975,1.24975,0,0,0-.36914.89063c0,2.06982,4.6416,6.71143,6.71191,6.71143A1.24882,1.24882,0,0,0,41.3623,40.77l0.3584-.35889-1.78516-1.78564-0.35742.35791a0.99839,0.99839,0,0,1-.93359.26709,4.03465,4.03465,0,0,1-2.99609-2.99512,0.99924,0.99924,0,0,1,.2666-0.93457l0.3584-.35791Zm7.30078,7.16553h0Z"/></svg>