<svg xmlns="http://www.w3.org/2000/svg" viewBox="0 0 80 80"><title>alo_icon_system_host-small</title><path d="M40,80A40,40,0,1,1,80,40,40.04552,40.04552,0,0,1,40,80ZM40,3A37,37,0,1,0,77,40,37.04192,37.04192,0,0,0,40,3Z"/><path d="M40.13672,51.69727h-.27344a12.41187,12.41187,0,0,1-9.44238-3.89453c-5.03906-5.57031-4.62207-15.22119-4.375-18.04687l.001-.08545c.627-13.6748,11.27734-14.36377,13.40576-14.36377h.49707a13.31451,13.31451,0,0,1,9.32471,3.16016c2.80225,2.499,4.33008,6.24658,4.54053,11.13916l.00146.20117H53.791c.69189,3.28662.24707,12.814-4.16943,17.94775l-.0127.01367C47.27637,50.41211,44.17773,51.69727,40.13672,51.69727Zm-.68408-33.39062c-2.97119,0-9.93311,1.11377-10.40723,11.43262l.00146.06787c0,.04346-.0083.167-.01221.21045-.15723,1.79395-.72217,10.9834,3.59277,15.75293a9.39077,9.39077,0,0,0,7.23584,2.92676h.27344c3.16992,0,5.46338-.92383,7.2168-2.90625,4.19482-4.88525,3.751-14.17676,3.52344-15.5625a1.48782,1.48782,0,0,1-.06055-.42139v-.13672c-.17285-3.9873-1.36377-7.02539-3.53857-8.96436a10.37431,10.37431,0,0,0-7.1709-2.40332c-.03564.00244-.07129.00391-.10693.00391Zm9.03174,28.46973h0Z"/><path d="M27.95752,55.77734a1.49995,1.49995,0,0,1-.97656-2.63867,17.3252,17.3252,0,0,0,4.73779-5.58887A1.5,1.5,0,1,1,34.46,48.76855,20.06948,20.06948,0,0,1,28.93311,55.416,1.49006,1.49006,0,0,1,27.95752,55.77734Z"/><path d="M52.042,55.77734a1.49006,1.49006,0,0,1-.97559-.36133,20.17626,20.17626,0,0,1-5.50391-6.60059A1.50008,1.50008,0,0,1,48.29785,47.583a17.42741,17.42741,0,0,0,4.7207,5.55566,1.49995,1.49995,0,0,1-.97656,2.63867Z"/><path d="M68.82178,67.01172a1.4995,1.4995,0,0,1-1.49414-1.3877c-.22949-3.06055-1.24951-4.82031-3.03223-5.23145A55.002,55.002,0,0,1,52.49854,56.21a16.01778,16.01778,0,0,1-24.99707,0A54.89777,54.89777,0,0,1,15.72266,60.3877c-1.80078.416-2.82129,2.17578-3.05078,5.23633a1.49982,1.49982,0,1,1-2.99121-.22461c.42187-5.63086,3.1416-7.4209,5.34912-7.93066a50.06859,50.06859,0,0,0,12.20947-4.50781,1.501,1.501,0,0,1,1.97314.49414,12.98818,12.98818,0,0,0,21.5752,0,1.50092,1.50092,0,0,1,1.97314-.49414,50.12785,50.12785,0,0,0,12.22754,4.5127c2.189.50488,4.90869,2.29492,5.33057,7.92578a1.50067,1.50067,0,0,1-1.3833,1.6084C68.897,67.01074,68.85938,67.01172,68.82178,67.01172Z"/></svg>