<svg xmlns="http://www.w3.org/2000/svg" viewBox="0 0 80 80"><title>alo_icon_system_photo-small</title><path d="M40,80A40,40,0,1,1,80,40,40.0452,40.0452,0,0,1,40,80ZM40,3A37,37,0,1,0,77,40,37.04192,37.04192,0,0,0,40,3Z"/><path d="M52.833,58.18311H27.1665A7.92539,7.92539,0,0,1,19.25,50.2666v-9.625a7.92539,7.92539,0,0,1,7.9165-7.9165H52.833a7.92581,7.92581,0,0,1,7.917,7.9165v9.625A7.92581,7.92581,0,0,1,52.833,58.18311ZM27.1665,35.7251A4.92211,4.92211,0,0,0,22.25,40.6416v9.625a4.92211,4.92211,0,0,0,4.9165,4.9165H52.833a4.92222,4.92222,0,0,0,4.917-4.9165v-9.625a4.92222,4.92222,0,0,0-4.917-4.9165Z"/><path d="M40,53.37061a7.9165,7.9165,0,1,1,7.9165-7.9165A7.92581,7.92581,0,0,1,40,53.37061Zm0-12.833a4.9165,4.9165,0,1,0,4.9165,4.9165A4.92222,4.92222,0,0,0,40,40.5376Z"/><path d="M46.4165,29.30811H33.583a1.49976,1.49976,0,0,1-1.5-1.5v-9.625a1.49976,1.49976,0,0,1,1.5-1.5H46.4165a1.49976,1.49976,0,0,1,1.5,1.5v9.625A1.49976,1.49976,0,0,1,46.4165,29.30811Zm-11.3335-3h9.8335v-6.625H35.083Z"/><path d="M40,35.7251a1.49976,1.49976,0,0,1-1.5-1.5v-6.417a1.5,1.5,0,0,1,3,0v6.417A1.49976,1.49976,0,0,1,40,35.7251Z"/></svg>