<svg xmlns="http://www.w3.org/2000/svg" viewBox="0 0 80 80"><title>alo_icon_system_articles-small</title><path d="M40,80A40,40,0,1,1,80,40,40.0452,40.0452,0,0,1,40,80ZM40,3A37,37,0,1,0,77,40,37.04192,37.04192,0,0,0,40,3Z"/><path d="M50.09912,60.75h-19.25a4.71393,4.71393,0,0,1-4.7085-4.7085V43.2085A4.71393,4.71393,0,0,1,30.84912,38.5h19.25a4.71352,4.71352,0,0,1,4.708,4.7085v12.833A4.71352,4.71352,0,0,1,50.09912,60.75Zm-19.25-19.25a1.71065,1.71065,0,0,0-1.7085,1.7085v12.833a1.71065,1.71065,0,0,0,1.7085,1.7085h19.25a1.71024,1.71024,0,0,0,1.708-1.7085V43.2085a1.71024,1.71024,0,0,0-1.708-1.7085Z"/><path d="M50.09912,41.5h-19.25a1.49976,1.49976,0,0,1-1.5-1.5V20.75a1.49976,1.49976,0,0,1,1.5-1.5h19.25a1.49976,1.49976,0,0,1,1.5,1.5V40A1.49976,1.49976,0,0,1,50.09912,41.5Zm-17.75-3h16.25V22.25h-16.25Z"/><path d="M43.04053,32.5166h-5.1333a1.5,1.5,0,0,1,0-3h5.1333a1.5,1.5,0,1,1,0,3Z"/><path d="M59.72412,48.55811a1.49976,1.49976,0,0,1-1.5-1.5V39.3584a1.5,1.5,0,0,1,3,0v7.69971A1.49976,1.49976,0,0,1,59.72412,48.55811Z"/><path d="M27.64063,44.7085h-6.4165a1.49976,1.49976,0,0,1-1.5-1.5V35.5083a1.49976,1.49976,0,0,1,1.5-1.5h3.208a1.5,1.5,0,1,1,0,3h-1.708v4.7002h4.9165a1.5,1.5,0,0,1,0,3Z"/><path d="M59.72412,44.7085h-6.417a1.5,1.5,0,0,1,0-3h6.417a1.5,1.5,0,0,1,0,3Z"/><path d="M43.87451,47.21631a1.50022,1.50022,0,0,1-1.48242-1.28271l-.83594-5.71631a1.50019,1.50019,0,0,1,2.96875-.43457l.83594,5.71631a1.50085,1.50085,0,0,1-1.26709,1.70166A1.51951,1.51951,0,0,1,43.87451,47.21631Z"/><path d="M37.07373,47.21631a1.49934,1.49934,0,0,1-1.48633-1.7168l.83545-5.71631a1.50012,1.50012,0,0,1,2.96875.43359l-.83545,5.71631A1.50066,1.50066,0,0,1,37.07373,47.21631Z"/><path d="M35.98242,53.37061H34.05713a1.5,1.5,0,0,1,0-3h1.92529a1.5,1.5,0,0,1,0,3Z"/><path d="M46.89063,53.37061H44.96533a1.5,1.5,0,0,1,0-3h1.92529a1.5,1.5,0,0,1,0,3Z"/></svg>