<svg xmlns="http://www.w3.org/2000/svg" viewBox="0 0 80 80"><title>alo_icon_system_position-small</title><path d="M40,80A40,40,0,1,1,80,40,40.04552,40.04552,0,0,1,40,80ZM40,3A37,37,0,1,0,77,40,37.04161,37.04161,0,0,0,40,3Z"/><path d="M50.09912,22.25h-19.25a1.5,1.5,0,1,1,0-3h19.25a1.5,1.5,0,0,1,0,3Z"/><path d="M50.09717,47.917a1.5,1.5,0,0,1-1.47559-1.24121l-4.4917-25.667a1.5,1.5,0,0,1,2.95508-.51758l4.4917,25.667A1.49987,1.49987,0,0,1,50.09717,47.917Z"/><path d="M30.85107,47.917a1.49987,1.49987,0,0,1-1.47949-1.75879l4.4917-25.667a1.5,1.5,0,0,1,2.95508.51758l-4.4917,25.667A1.5,1.5,0,0,1,30.85107,47.917Z"/><path d="M40.47412,60.75a1.50007,1.50007,0,0,1-1.5-1.5V46.417a1.5,1.5,0,0,1,3,0V59.25A1.50007,1.50007,0,0,1,40.47412,60.75Z"/><path d="M56.51563,47.917h-32.083a1.5,1.5,0,0,1,0-3h32.083a1.5,1.5,0,0,1,0,3Z"/></svg>