<svg xmlns="http://www.w3.org/2000/svg" viewBox="0 0 80 80"><title>alo_icon_system_duration-small</title><path d="M40,80A40,40,0,1,1,80,40,40.04583,40.04583,0,0,1,40,80ZM40,3A37,37,0,1,0,77,40,37.04129,37.04129,0,0,0,40,3Z"/><path d="M57.29395,60.75a1.50039,1.50039,0,0,1-1.5-1.5V56.042a1.6958,1.6958,0,0,0-.499-1.207L43.79,43.3291a4.71291,4.71291,0,0,1,0-6.6582L55.29395,25.166a1.69661,1.69661,0,0,0,.5-1.208V20.75a1.5,1.5,0,0,1,3,0v3.208a4.6756,4.6756,0,0,1-1.37988,3.33008L45.91113,38.792a1.71047,1.71047,0,0,0,0,2.416L57.415,52.71289a4.67479,4.67479,0,0,1,1.37891,3.3291V59.25A1.50039,1.50039,0,0,1,57.29395,60.75Z"/><path d="M23.6543,60.75a1.50039,1.50039,0,0,1-1.5-1.5V56.042a4.6741,4.6741,0,0,1,1.37891-3.3291L35.03809,41.208a1.70928,1.70928,0,0,0,0-2.416L23.5332,27.28711A4.6741,4.6741,0,0,1,22.1543,23.958V20.75a1.5,1.5,0,0,1,3,0v3.208a1.69829,1.69829,0,0,0,.5,1.208L37.15918,36.6709a4.71291,4.71291,0,0,1,0,6.6582L25.6543,54.834a1.69829,1.69829,0,0,0-.5,1.208V59.25A1.50039,1.50039,0,0,1,23.6543,60.75Z"/><path d="M46.89063,60.75a1.50039,1.50039,0,0,1-1.5-1.5V54.11719a1.5,1.5,0,0,1,3,0V59.25A1.50039,1.50039,0,0,1,46.89063,60.75Z"/><path d="M34.05762,60.75a1.50039,1.50039,0,0,1-1.5-1.5V54.11719a1.5,1.5,0,0,1,3,0V59.25A1.50039,1.50039,0,0,1,34.05762,60.75Z"/><path d="M40.47461,60.75a1.50039,1.50039,0,0,1-1.5-1.5V50.9082a1.5,1.5,0,0,1,3,0V59.25A1.50039,1.50039,0,0,1,40.47461,60.75Z"/><path d="M59.72461,22.25h-38.5a1.5,1.5,0,0,1,0-3h38.5a1.5,1.5,0,1,1,0,3Z"/><path d="M59.72461,60.75h-38.5a1.5,1.5,0,0,1,0-3h38.5a1.5,1.5,0,1,1,0,3Z"/></svg>