<svg id="Elements" xmlns="http://www.w3.org/2000/svg" viewBox="0 0 75 75"><title>alo_service</title><path d="M37.5,48.5A10.1665,10.1665,0,1,1,47.667,38.333,10.17806,10.17806,0,0,1,37.5,48.5Zm0-18.333a8.1665,8.1665,0,1,0,8.167,8.166A8.17588,8.17588,0,0,0,37.5,30.167Z"/><path d="M37.5,30.167a0.99942,0.99942,0,0,1-1-1V27.5a1,1,0,0,1,2,0v1.667A0.99942,0.99942,0,0,1,37.5,30.167Z"/><path d="M37.5,39.333a0.99942,0.99942,0,0,1-1-1V32.667a1,1,0,1,1,2,0v5.666A0.99942,0.99942,0,0,1,37.5,39.333Z"/><path d="M46.667,48.5a0.99676,0.99676,0,0,1-.707-0.293l-2.68555-2.68457a0.99989,0.99989,0,0,1,1.41406-1.41406L47.374,46.793A1,1,0,0,1,46.667,48.5Z"/><path d="M28.333,48.5a1,1,0,0,1-.707-1.707l2.68555-2.68457a0.99989,0.99989,0,0,1,1.41406,1.41406L29.04,48.207A0.99676,0.99676,0,0,1,28.333,48.5Z"/><path d="M45.166,34.31641a1.00012,1.00012,0,0,1-.06543-1.998,1.49418,1.49418,0,1,0-1.58594-1.584,1.00032,1.00032,0,0,1-1.99609-.13477,3.49444,3.49444,0,1,1,3.71484,3.71484C45.21094,34.31543,45.18848,34.31641,45.166,34.31641Z"/><path d="M29.834,34.31641c-0.02246,0-.04492-0.001-0.06738-0.002a3.49444,3.49444,0,1,1,3.71484-3.71484,1.00087,1.00087,0,0,1-.93066,1.06543,1.01189,1.01189,0,0,1-1.06543-.93066,1.49413,1.49413,0,1,0-1.58594,1.584A1.00012,1.00012,0,0,1,29.834,34.31641Z"/></svg>