<svg id="Elements" xmlns="http://www.w3.org/2000/svg" viewBox="0 0 75 75"><title>alo_service</title><path d="M32.19238,34.65381H27.5a1,1,0,0,1,0-2h4.69238A1,1,0,0,1,32.19238,34.65381Z"/><path d="M32.19238,43.88477H27.5a1,1,0,1,1,0-2h4.69238A1,1,0,0,1,32.19238,43.88477Z"/><path d="M44.5,48.5H29.11523a0.99974,0.99974,0,0,1-1-1V29.03857a0.99974,0.99974,0,0,1,1-1H38.3457a1,1,0,1,1,0,2H30.11523V46.5H43.5V30.03857H41.42285a1,1,0,0,1,0-2H44.5a0.99974,0.99974,0,0,1,1,1V47.5A0.99974,0.99974,0,0,1,44.5,48.5Z"/><path d="M41.42285,39.269H38.3457a0.99974,0.99974,0,0,1-1-1V27.5a0.99974,0.99974,0,0,1,1-1h3.07715a0.99974,0.99974,0,0,1,1,1V38.269A0.99974,0.99974,0,0,1,41.42285,39.269Zm-2.07715-2h1.07715V28.5H39.3457v8.769Z"/><path d="M33.73047,36.19238a2.53857,2.53857,0,1,1,2.53809-2.53857A2.54118,2.54118,0,0,1,33.73047,36.19238Zm0-3.07715a0.53857,0.53857,0,1,0,.53809.53857A0.53889,0.53889,0,0,0,33.73047,33.11523Z"/><path d="M33.73047,45.42285a2.53833,2.53833,0,1,1,2.53809-2.53809A2.54108,2.54108,0,0,1,33.73047,45.42285Zm0-3.07666a0.53833,0.53833,0,1,0,.53809.53857A0.53889,0.53889,0,0,0,33.73047,42.34619Z"/><path d="M47.5,39.26855h-3a0.99974,0.99974,0,0,1-1-1V32.11523a0.99974,0.99974,0,0,1,1-1h3a0.99974,0.99974,0,0,1,1,1v6.15332A0.99974,0.99974,0,0,1,47.5,39.26855Zm-2-2h1V33.11523h-1v4.15332Z"/><path d="M47.5,45.42188h-3a0.99974,0.99974,0,0,1-1-1V38.26855a0.99974,0.99974,0,0,1,1-1h3a0.99974,0.99974,0,0,1,1,1v6.15332A0.99974,0.99974,0,0,1,47.5,45.42188Zm-2-2h1V39.26855h-1v4.15332Z"/></svg>