<svg xmlns="http://www.w3.org/2000/svg" viewBox="0 0 80 80"><title>alo_icon_system_editions-small</title><path d="M40,80A40,40,0,1,1,80,40,40.0452,40.0452,0,0,1,40,80ZM40,3A37,37,0,1,0,77,40,37.04192,37.04192,0,0,0,40,3Z"/><path d="M21.22412,57.5415a1.49976,1.49976,0,0,1-1.5-1.5V20.75a1.5,1.5,0,0,1,3,0V56.0415A1.49976,1.49976,0,0,1,21.22412,57.5415Z"/><path d="M59.72412,57.5415a1.49976,1.49976,0,0,1-1.5-1.5V20.75a1.5,1.5,0,0,1,3,0V56.0415A1.49976,1.49976,0,0,1,59.72412,57.5415Z"/><path d="M37.26563,22.25H21.22412a1.5,1.5,0,1,1,0-3h16.0415a1.5,1.5,0,0,1,0,3Z"/><path d="M30.84912,35.72461a1.49976,1.49976,0,0,1-1.5-1.5v-5.1333a1.5,1.5,0,1,1,3,0v5.1333A1.49976,1.49976,0,0,1,30.84912,35.72461Z"/><path d="M50.09912,49.2002a1.49976,1.49976,0,0,1-1.5-1.5v-5.1333a1.5,1.5,0,0,1,3,0v5.1333A1.49976,1.49976,0,0,1,50.09912,49.2002Z"/><path d="M33.41553,46.63379h-5.1333a1.5,1.5,0,1,1,0-3h5.1333a1.5,1.5,0,0,1,0,3Z"/><path d="M52.66553,33.1582h-5.1333a1.5,1.5,0,1,1,0-3h5.1333a1.5,1.5,0,1,1,0,3Z"/><path d="M59.72412,22.25h-16.042a1.5,1.5,0,0,1,0-3h16.042a1.5,1.5,0,0,1,0,3Z"/><path d="M40.47412,25.4585a1.49976,1.49976,0,0,1-1.5-1.5,4.71352,4.71352,0,0,1,4.708-4.7085,1.5,1.5,0,0,1,0,3,1.71024,1.71024,0,0,0-1.708,1.7085A1.49976,1.49976,0,0,1,40.47412,25.4585Z"/><path d="M40.47412,25.4585a1.49976,1.49976,0,0,1-1.5-1.5,1.71065,1.71065,0,0,0-1.7085-1.7085,1.5,1.5,0,0,1,0-3,4.71393,4.71393,0,0,1,4.7085,4.7085A1.49976,1.49976,0,0,1,40.47412,25.4585Z"/><path d="M37.26563,57.5415H21.22412a1.5,1.5,0,1,1,0-3h16.0415a1.5,1.5,0,0,1,0,3Z"/><path d="M59.72412,57.5415h-16.042a1.5,1.5,0,0,1,0-3h16.042a1.5,1.5,0,0,1,0,3Z"/><path d="M40.47412,60.75a1.49976,1.49976,0,0,1-1.5-1.5,4.71352,4.71352,0,0,1,4.708-4.7085,1.5,1.5,0,0,1,0,3,1.71024,1.71024,0,0,0-1.708,1.7085A1.49976,1.49976,0,0,1,40.47412,60.75Z"/><path d="M40.47412,60.75a1.49976,1.49976,0,0,1-1.5-1.5,1.71065,1.71065,0,0,0-1.7085-1.7085,1.5,1.5,0,0,1,0-3,4.71393,4.71393,0,0,1,4.7085,4.7085A1.49976,1.49976,0,0,1,40.47412,60.75Z"/><path d="M40.47412,60.75a1.49976,1.49976,0,0,1-1.5-1.5V23.9585a1.5,1.5,0,1,1,3,0V59.25A1.49976,1.49976,0,0,1,40.47412,60.75Z"/></svg>