<svg xmlns="http://www.w3.org/2000/svg" viewBox="0 0 80 80"><title>alo_icon_system_journal-small</title><path d="M40,80A40,40,0,1,1,80,40,40.0452,40.0452,0,0,1,40,80ZM40,3A37,37,0,1,0,77,40,37.04192,37.04192,0,0,0,40,3Z"/><path d="M51.5498,56.8999a1.49976,1.49976,0,0,1-1.5-1.5V20.75a1.5,1.5,0,0,1,3,0V55.3999A1.49976,1.49976,0,0,1,51.5498,56.8999Z"/><path d="M56.0415,60.75H24.6001a1.5,1.5,0,0,1,0-3H56.0415a1.5,1.5,0,0,1,0,3Z"/><path d="M44.27441,53.0498h-7.7002a1.5,1.5,0,0,1,0-3h7.7002a1.5,1.5,0,0,1,0,3Z"/><path d="M44.27441,45.3501h-7.7002a1.5,1.5,0,0,1,0-3h7.7002a1.5,1.5,0,0,1,0,3Z"/><path d="M44.27441,37.6499h-7.7002a1.5,1.5,0,0,1,0-3h7.7002a1.5,1.5,0,0,1,0,3Z"/><path d="M44.27441,29.9502h-7.7002a1.5,1.5,0,0,1,0-3h7.7002a1.5,1.5,0,0,1,0,3Z"/><path d="M28.02539,53.0498a1.49976,1.49976,0,0,1-1.5-1.5V43.8501a1.5,1.5,0,0,1,3,0V51.5498A1.49976,1.49976,0,0,1,28.02539,53.0498Z"/><path d="M28.02539,37.6499a1.49976,1.49976,0,0,1-1.5-1.5V28.4502a1.5,1.5,0,0,1,3,0V36.1499A1.49976,1.49976,0,0,1,28.02539,37.6499Z"/><path d="M51.5498,22.25H20.75a1.5,1.5,0,0,1,0-3H51.5498a1.5,1.5,0,0,1,0,3Z"/><path d="M20.75,56.8999a1.49976,1.49976,0,0,1-1.5-1.5V20.75a1.5,1.5,0,0,1,3,0V55.3999A1.49976,1.49976,0,0,1,20.75,56.8999Z"/><path d="M24.6001,60.75A5.356,5.356,0,0,1,19.25,55.3999a1.5,1.5,0,0,1,3,0A2.35269,2.35269,0,0,0,24.6001,57.75a1.5,1.5,0,1,1,0,3Z"/><path d="M55.3999,60.75a5.356,5.356,0,0,1-5.3501-5.3501,1.5,1.5,0,0,1,3,0,2.3501,2.3501,0,1,0,4.7002,0V25.4585H51.5498a1.5,1.5,0,0,1,0-3H59.25a1.49976,1.49976,0,0,1,1.5,1.5V55.3999A5.356,5.356,0,0,1,55.3999,60.75Z"/></svg>