<svg xmlns="http://www.w3.org/2000/svg" viewBox="0 0 80 80"><title>alo_icon_system_expenses-small</title><path d="M40,80A40,40,0,1,1,80,40,40.04552,40.04552,0,0,1,40,80ZM40,3A37,37,0,1,0,77,40,37.04161,37.04161,0,0,0,40,3Z"/><path d="M59.25,51.125H20.75a1.50007,1.50007,0,0,1-1.5-1.5V30.375a1.50007,1.50007,0,0,1,1.5-1.5h38.5a1.50007,1.50007,0,0,1,1.5,1.5v19.25A1.50007,1.50007,0,0,1,59.25,51.125Zm-37-3h35.5V31.875H22.25Z"/><path d="M49.625,51.125a1.50007,1.50007,0,0,1-1.5-1.5A11.13737,11.13737,0,0,1,59.25,38.5a1.5,1.5,0,0,1,0,3,8.13409,8.13409,0,0,0-8.125,8.125A1.50007,1.50007,0,0,1,49.625,51.125Z"/><path d="M59.25,41.5A11.13737,11.13737,0,0,1,48.125,30.375a1.5,1.5,0,0,1,3,0A8.13409,8.13409,0,0,0,59.25,38.5a1.5,1.5,0,0,1,0,3Z"/><path d="M20.75,41.5a1.5,1.5,0,0,1,0-3,8.13368,8.13368,0,0,0,8.12451-8.125,1.5,1.5,0,0,1,3,0A11.137,11.137,0,0,1,20.75,41.5Z"/><path d="M30.37451,51.125a1.50007,1.50007,0,0,1-1.5-1.5A8.13368,8.13368,0,0,0,20.75,41.5a1.5,1.5,0,0,1,0-3A11.137,11.137,0,0,1,31.87451,49.625,1.50007,1.50007,0,0,1,30.37451,51.125Z"/></svg>