<svg id="Elements" xmlns="http://www.w3.org/2000/svg" viewBox="0 0 75 75"><title>alo_service</title><path d="M45,48.5H30A3.50425,3.50425,0,0,1,26.5,45V38.3335a3.50425,3.50425,0,0,1,3.5-3.5H45a3.50425,3.50425,0,0,1,3.5,3.5V45A3.50425,3.50425,0,0,1,45,48.5ZM30,36.8335a1.50164,1.50164,0,0,0-1.5,1.5V45A1.50164,1.50164,0,0,0,30,46.5H45A1.50164,1.50164,0,0,0,46.5,45V38.3335a1.50164,1.50164,0,0,0-1.5-1.5H30Z"/><path d="M37.5,46a4.33325,4.33325,0,1,1,4.333-4.3335A4.33779,4.33779,0,0,1,37.5,46Zm0-6.6665a2.33325,2.33325,0,1,0,2.333,2.333A2.33571,2.33571,0,0,0,37.5,39.3335Z"/><path d="M40.833,33.5H34.167a0.99974,0.99974,0,0,1-1-1v-5a0.99974,0.99974,0,0,1,1-1h6.666a0.99974,0.99974,0,0,1,1,1v5A0.99974,0.99974,0,0,1,40.833,33.5Zm-5.666-2h4.666v-3H35.167v3Z"/><path d="M37.5,36.8335a0.99974,0.99974,0,0,1-1-1V32.5a1,1,0,0,1,2,0v3.3335A0.99974,0.99974,0,0,1,37.5,36.8335Z"/></svg>