<svg xmlns="http://www.w3.org/2000/svg" viewBox="0 0 80 80"><title>alo_icon_system_filters-small</title><path d="M40,80A40,40,0,1,1,80,40,40.04552,40.04552,0,0,1,40,80ZM40,3A37,37,0,1,0,77,40,37.04161,37.04161,0,0,0,40,3Z"/><path d="M55.40039,37.6499a1.50007,1.50007,0,0,1-1.5-1.5,13.8999,13.8999,0,1,0-27.7998,0,1.5,1.5,0,0,1-3,0,16.8999,16.8999,0,1,1,33.7998,0A1.50007,1.50007,0,0,1,55.40039,37.6499Z"/><path d="M49.625,60.75H30.375A11.13737,11.13737,0,0,1,19.25,49.625V36.1499a1.50007,1.50007,0,0,1,1.5-1.5h38.5a1.50007,1.50007,0,0,1,1.5,1.5V49.625A11.13737,11.13737,0,0,1,49.625,60.75ZM22.25,37.6499V49.625a8.13409,8.13409,0,0,0,8.125,8.125h19.25a8.13409,8.13409,0,0,0,8.125-8.125V37.6499Z"/><path d="M28.4502,49.2002a1.49514,1.49514,0,0,1-1.06055-.43945l-7.7002-7.7002a1.49984,1.49984,0,0,1,2.12109-2.12109l7.7002,7.7002A1.5,1.5,0,0,1,28.4502,49.2002Z"/><path d="M40,60.75a1.49514,1.49514,0,0,1-1.06055-.43945l-11.5498-11.5498a1.49984,1.49984,0,0,1,2.12109-2.12109l11.5498,11.5498A1.5,1.5,0,0,1,40,60.75Z"/><path d="M58.0459,55.6958a1.49514,1.49514,0,0,1-1.06055-.43945l-6.49609-6.49561a1.49984,1.49984,0,0,1,2.12109-2.12109l6.49609,6.49561A1.5,1.5,0,0,1,58.0459,55.6958Z"/><path d="M51.5498,49.2002a1.49514,1.49514,0,0,1-1.06055-.43945L38.93945,37.21045a1.49984,1.49984,0,0,1,2.12109-2.12109l11.5498,11.55029A1.5,1.5,0,0,1,51.5498,49.2002Z"/><path d="M21.9541,55.6958a1.5,1.5,0,0,1-1.06055-2.56055l6.49609-6.49561a1.49984,1.49984,0,0,1,2.12109,2.12109l-6.49609,6.49561A1.49514,1.49514,0,0,1,21.9541,55.6958Z"/><path d="M28.4502,49.2002a1.5,1.5,0,0,1-1.06055-2.56055l11.5498-11.55029a1.49984,1.49984,0,1,1,2.12109,2.12109L29.51074,48.76074A1.49514,1.49514,0,0,1,28.4502,49.2002Z"/><path d="M40,60.75a1.5,1.5,0,0,1-1.06055-2.56055l11.5498-11.5498a1.49984,1.49984,0,0,1,2.12109,2.12109l-11.5498,11.5498A1.49514,1.49514,0,0,1,40,60.75Z"/><path d="M51.5498,49.2002a1.5,1.5,0,0,1-1.06055-2.56055l7.7002-7.7002a1.49984,1.49984,0,0,1,2.12109,2.12109l-7.7002,7.7002A1.49514,1.49514,0,0,1,51.5498,49.2002Z"/></svg>