<svg xmlns="http://www.w3.org/2000/svg" viewBox="0 0 80 80"><title>alo_icon_system_help-small</title><path d="M40,80A40,40,0,1,1,80,40,40.04583,40.04583,0,0,1,40,80ZM40,3A37,37,0,1,0,77,40,37.04161,37.04161,0,0,0,40,3Z"/><path d="M40,60.75a6.6333,6.6333,0,1,1,6.63379-6.63379A6.64089,6.64089,0,0,1,40,60.75Zm0-10.2666a3.6333,3.6333,0,1,0,3.63379,3.63281A3.6374,3.6374,0,0,0,40,50.4834Z"/><path d="M40,50.4834a1.50039,1.50039,0,0,1-1.5-1.5v-3.918a5.55936,5.55936,0,0,1,5.55273-5.55273,6.61245,6.61245,0,0,0,6.60547-6.605,10.6582,10.6582,0,0,0-21.31641,0,1.5,1.5,0,0,1-3,0,13.6582,13.6582,0,0,1,27.31641,0,9.61573,9.61573,0,0,1-9.60547,9.605A2.55608,2.55608,0,0,0,41.5,45.06543v3.918A1.50039,1.50039,0,0,1,40,50.4834Z"/></svg>