<svg id="Elements" xmlns="http://www.w3.org/2000/svg" viewBox="0 0 75 75"><title>alo_service</title><path d="M45.5,36.5a0.99942,0.99942,0,0,1-1-1,7,7,0,0,0-14,0,1,1,0,0,1-2,0,9,9,0,0,1,18,0A0.99942,0.99942,0,0,1,45.5,36.5Z"/><path d="M42.5,48.5h-10a6.00656,6.00656,0,0,1-6-6v-7a0.99942,0.99942,0,0,1,1-1h20a0.99942,0.99942,0,0,1,1,1v7A6.00656,6.00656,0,0,1,42.5,48.5Zm-14-12v6a4.004,4.004,0,0,0,4,4h10a4.004,4.004,0,0,0,4-4v-6h-18Z"/><path d="M31.5,42.5a0.99676,0.99676,0,0,1-.707-0.293l-4-4A0.99989,0.99989,0,0,1,28.207,36.793l4,4A1,1,0,0,1,31.5,42.5Z"/><path d="M37.5,48.5a0.99676,0.99676,0,0,1-.707-0.293l-6-6A0.99989,0.99989,0,0,1,32.207,40.793l6,6A1,1,0,0,1,37.5,48.5Z"/><path d="M46.874,45.875a0.99676,0.99676,0,0,1-.707-0.293l-3.374-3.375A0.99989,0.99989,0,0,1,44.207,40.793l3.374,3.375A1,1,0,0,1,46.874,45.875Z"/><path d="M43.5,42.5a0.99676,0.99676,0,0,1-.707-0.293l-6-6A0.99989,0.99989,0,0,1,38.207,34.793l6,6A1,1,0,0,1,43.5,42.5Z"/><path d="M28.125,45.875a1,1,0,0,1-.707-1.707l3.375-3.375A0.99989,0.99989,0,0,1,32.207,42.207l-3.375,3.375A0.99676,0.99676,0,0,1,28.125,45.875Z"/><path d="M31.5,42.5a1,1,0,0,1-.707-1.707l6-6A0.99989,0.99989,0,0,1,38.207,36.207l-6,6A0.99676,0.99676,0,0,1,31.5,42.5Z"/><path d="M37.5,48.5a1,1,0,0,1-.707-1.707l6-6A0.99989,0.99989,0,0,1,44.207,42.207l-6,6A0.99676,0.99676,0,0,1,37.5,48.5Z"/><path d="M43.5,42.5a1,1,0,0,1-.707-1.707l4-4A0.99989,0.99989,0,0,1,48.207,38.207l-4,4A0.99676,0.99676,0,0,1,43.5,42.5Z"/></svg>