<?xml version="1.0" encoding="utf-8"?>
<!-- Generator: Adobe Illustrator 20.0.0, SVG Export Plug-In . SVG Version: 6.00 Build 0)  -->
<svg version="1.0" id="Layer_1" xmlns="http://www.w3.org/2000/svg" xmlns:xlink="http://www.w3.org/1999/xlink" x="0px" y="0px"
	 viewBox="0 0 80 80" style="enable-background:new 0 0 80 80;" xml:space="preserve">
<title>alo_service-arrow-small</title>
<path d="M40,80C17.9,80,0,62.1,0,40S17.9,0,40,0s40,17.9,40,40C80,62.1,62.1,80,40,80z M40,3C19.6,3,3,19.6,3,40s16.6,37,37,37
	s37-16.6,37-37C77,19.6,60.4,3,40,3z"/>
<g>
	<g>
		<path d="M33.3,54.8c-0.4,0-0.8-0.1-1.1-0.4L18.9,41.1c-0.6-0.6-0.6-1.5,0-2.1s1.5-0.6,2.1,0l12.3,12.3l25.6-25.6
			c0.6-0.6,1.5-0.6,2.1,0c0.6,0.6,0.6,1.5,0,2.1L34.4,54.4C34.1,54.7,33.7,54.8,33.3,54.8z"/>
	</g>
</g>
</svg>
