<svg xmlns="http://www.w3.org/2000/svg" viewBox="0 0 80 80"><title>alo_icon_system_weekly-small</title><path d="M40,80A40,40,0,1,1,80,40,40.04552,40.04552,0,0,1,40,80ZM40,3A37,37,0,1,0,77,40,37.04161,37.04161,0,0,0,40,3Z"/><path d="M59.72363,28.6665h-12.833a1.5,1.5,0,0,1,0-3h12.833a1.5,1.5,0,0,1,0,3Z"/><path d="M27.64063,35.0835a7.91675,7.91675,0,1,1,7.917-7.917A7.92623,7.92623,0,0,1,27.64063,35.0835Zm0-12.8335a4.91675,4.91675,0,1,0,4.917,4.9165A4.92253,4.92253,0,0,0,27.64063,22.25Z"/><path d="M59.72363,54.3335h-12.833a1.5,1.5,0,0,1,0-3h12.833a1.5,1.5,0,0,1,0,3Z"/><path d="M27.64063,60.75a7.91675,7.91675,0,1,1,7.917-7.9165A7.92581,7.92581,0,0,1,27.64063,60.75Zm0-12.8335a4.91675,4.91675,0,1,0,4.917,4.917A4.92263,4.92263,0,0,0,27.64063,47.9165Z"/></svg>