<svg xmlns="http://www.w3.org/2000/svg" viewBox="0 0 80 80"><title>alo_icon_system_cards-small</title><path d="M40,80A40,40,0,1,1,80,40,40.04552,40.04552,0,0,1,40,80ZM40,3A37,37,0,1,0,77,40,37.04161,37.04161,0,0,0,40,3Z"/><path d="M34.05762,35.0835h-12.834a1.5,1.5,0,1,1,0-3h12.834a1.5,1.5,0,0,1,0,3Z"/><path d="M34.05762,47.9165h-12.834a1.5,1.5,0,1,1,0-3h12.834a1.5,1.5,0,0,1,0,3Z"/><path d="M34.05762,22.25h-12.834a1.5,1.5,0,1,1,0-3h12.834a1.5,1.5,0,0,1,0,3Z"/><path d="M34.05762,60.75h-12.834a1.5,1.5,0,1,1,0-3h12.834a1.5,1.5,0,0,1,0,3Z"/><path d="M59.72363,35.0835h-12.833a1.5,1.5,0,0,1,0-3h12.833a1.5,1.5,0,0,1,0,3Z"/><path d="M59.72363,47.9165h-12.833a1.5,1.5,0,0,1,0-3h12.833a1.5,1.5,0,0,1,0,3Z"/><path d="M59.72363,22.25h-12.833a1.5,1.5,0,0,1,0-3h12.833a1.5,1.5,0,0,1,0,3Z"/><path d="M59.72363,60.75h-12.833a1.5,1.5,0,0,1,0-3h12.833a1.5,1.5,0,0,1,0,3Z"/><path d="M21.22363,35.0835a1.50007,1.50007,0,0,1-1.5-1.5V20.75a1.5,1.5,0,0,1,3,0V33.5835A1.50007,1.50007,0,0,1,21.22363,35.0835Z"/><path d="M34.05762,35.0835a1.50007,1.50007,0,0,1-1.5-1.5V20.75a1.5,1.5,0,0,1,3,0V33.5835A1.50007,1.50007,0,0,1,34.05762,35.0835Z"/><path d="M46.89063,35.0835a1.50007,1.50007,0,0,1-1.5-1.5V20.75a1.5,1.5,0,0,1,3,0V33.5835A1.50007,1.50007,0,0,1,46.89063,35.0835Z"/><path d="M59.72363,35.0835a1.50007,1.50007,0,0,1-1.5-1.5V20.75a1.5,1.5,0,0,1,3,0V33.5835A1.50007,1.50007,0,0,1,59.72363,35.0835Z"/><path d="M21.22363,60.75a1.50007,1.50007,0,0,1-1.5-1.5V46.4165a1.5,1.5,0,0,1,3,0V59.25A1.50007,1.50007,0,0,1,21.22363,60.75Z"/><path d="M34.05762,60.75a1.50007,1.50007,0,0,1-1.5-1.5V46.4165a1.5,1.5,0,0,1,3,0V59.25A1.50007,1.50007,0,0,1,34.05762,60.75Z"/><path d="M46.89063,60.75a1.50007,1.50007,0,0,1-1.5-1.5V46.4165a1.5,1.5,0,0,1,3,0V59.25A1.50007,1.50007,0,0,1,46.89063,60.75Z"/><path d="M59.72363,60.75a1.50007,1.50007,0,0,1-1.5-1.5V46.4165a1.5,1.5,0,0,1,3,0V59.25A1.50007,1.50007,0,0,1,59.72363,60.75Z"/></svg>