<svg xmlns="http://www.w3.org/2000/svg" viewBox="0 0 80 80"><title>alo_icon_system_settings-small</title><path d="M40,80A40,40,0,1,1,80,40,40.04552,40.04552,0,0,1,40,80ZM40,3A37,37,0,1,0,77,40,37.04161,37.04161,0,0,0,40,3Z"/><path d="M46.92676,48.42676a1.49514,1.49514,0,0,1-1.06055-.43945L32.0127,34.13379a1.49984,1.49984,0,0,1,2.12109-2.12109L47.9873,45.86621a1.5,1.5,0,0,1-1.06055,2.56055Z"/><path d="M35.77051,45.72852A1.5,1.5,0,0,1,34.71,43.168L48.56445,29.31445a1.49984,1.49984,0,0,1,2.12109,2.12109L36.83105,45.28906A1.49514,1.49514,0,0,1,35.77051,45.72852Z"/><path d="M27.96875,36.6875a8.71875,8.71875,0,1,1,8.71875-8.71875A8.72852,8.72852,0,0,1,27.96875,36.6875Zm0-14.4375a5.71875,5.71875,0,1,0,5.71875,5.71875A5.72524,5.72524,0,0,0,27.96875,22.25Z"/><path d="M46.92676,58.63574a1.49514,1.49514,0,0,1-1.06055-.43945A8.71868,8.71868,0,0,1,58.19629,45.86621,1.49984,1.49984,0,0,1,56.0752,47.9873,5.719,5.719,0,0,0,47.9873,56.0752a1.5,1.5,0,0,1-1.06055,2.56055Z"/><path d="M59.25,50.541a1.49514,1.49514,0,0,1-1.06055-.43945L56.0752,47.9873a1.49984,1.49984,0,0,1,2.12109-2.12109l2.11426,2.11426A1.5,1.5,0,0,1,59.25,50.541Z"/><path d="M49.041,60.75a1.49514,1.49514,0,0,1-1.06055-.43945L45.86621,58.1958a1.49984,1.49984,0,0,1,2.12109-2.12109l2.11426,2.11475A1.5,1.5,0,0,1,49.041,60.75Z"/><path d="M59.25,31.875H49.625a1.50007,1.50007,0,0,1-1.5-1.5V20.75a1.50007,1.50007,0,0,1,1.5-1.5H59.25a1.50007,1.50007,0,0,1,1.5,1.5v9.625A1.50007,1.50007,0,0,1,59.25,31.875Zm-8.125-3H57.75V22.25H51.125Z"/><path d="M25.5625,60.75a6.31226,6.31226,0,0,1-4.46387-10.77588l6.80566-6.80566A6.31252,6.31252,0,1,1,36.832,52.09521h0l-6.80664,6.80566A6.2688,6.2688,0,0,1,25.5625,60.75Zm6.80566-16.42871a3.30137,3.30137,0,0,0-2.34277.96875l-6.80566,6.80518a3.3172,3.3172,0,0,0,0,4.68457,3.39286,3.39286,0,0,0,4.68457,0l6.80664-6.80566a3.31055,3.31055,0,0,0-2.34277-5.65283Zm3.40332,6.71338h0Z"/></svg>