<svg id="Elements" xmlns="http://www.w3.org/2000/svg" viewBox="0 0 75 75"><title>alo_service</title><path d="M42.5,48.5h-15a0.99942,0.99942,0,0,1-1-1V30A3.50425,3.50425,0,0,1,30,26.5H45a1,1,0,0,1,0,2H30A1.50164,1.50164,0,0,0,28.5,30V46.5h13V30a1,1,0,0,1,2,0V47.5A0.99942,0.99942,0,0,1,42.5,48.5Z"/><path d="M45,33.5A3.5,3.5,0,1,1,48.5,30,3.50425,3.50425,0,0,1,45,33.5Zm0-5A1.5,1.5,0,1,0,46.5,30,1.50164,1.50164,0,0,0,45,28.5Z"/><path d="M38.75,43.5h-7.5a1,1,0,0,1,0-2h7.5A1,1,0,0,1,38.75,43.5Z"/><path d="M38.75,38.5h-7.5a1,1,0,0,1,0-2h7.5A1,1,0,0,1,38.75,38.5Z"/><path d="M38.75,33.5h-7.5a1,1,0,0,1,0-2h7.5A1,1,0,0,1,38.75,33.5Z"/></svg>