<svg xmlns="http://www.w3.org/2000/svg" viewBox="0 0 80 80"><title>alo_icon_system_print-small</title><path d="M40,80A40,40,0,1,1,80,40,40.04552,40.04552,0,0,1,40,80ZM40,3A37,37,0,1,0,77,40,37.04161,37.04161,0,0,0,40,3Z"/><path d="M56.0415,60.75H23.9585a1.50007,1.50007,0,0,1-1.5-1.5V20.75a1.50007,1.50007,0,0,1,1.5-1.5h32.083a1.50007,1.50007,0,0,1,1.5,1.5v38.5A1.50007,1.50007,0,0,1,56.0415,60.75Zm-30.583-3h29.083V22.25H25.4585Z"/><path d="M46.4165,41.5H33.5835a1.5,1.5,0,0,1,0-3h12.833a1.5,1.5,0,0,1,0,3Z"/><path d="M46.4165,51.7666H33.5835a1.5,1.5,0,0,1,0-3h12.833a1.5,1.5,0,0,1,0,3Z"/><path d="M46.4165,31.2334H33.5835a1.5,1.5,0,0,1,0-3h12.833a1.5,1.5,0,0,1,0,3Z"/></svg>