<svg id="Elements" xmlns="http://www.w3.org/2000/svg" viewBox="0 0 75 75"><title>alo_service</title><g id="_Group_" data-name="&lt;Group&gt;"><path d="M37.5,48.5a9.33325,9.33325,0,1,1,9.3335-9.3335A9.3441,9.3441,0,0,1,37.5,48.5Zm0-16.6665a7.33325,7.33325,0,1,0,7.3335,7.333A7.3417,7.3417,0,0,0,37.5,31.8335Z"/><path d="M37.5,31.8335a2.66675,2.66675,0,1,1,2.6665-2.667A2.66976,2.66976,0,0,1,37.5,31.8335Zm0-3.3335a0.66675,0.66675,0,1,0,.6665.6665A0.667,0.667,0,0,0,37.5,28.5Z"/><path d="M37.50244,41.82764a2.6604,2.6604,0,0,1-1.11865-.24561,0.99994,0.99994,0,0,1,.83887-1.81543,0.6582,0.6582,0,0,0,.87744-0.87744,0.99994,0.99994,0,1,1,1.81543-.83887A2.6544,2.6544,0,0,1,37.50244,41.82764Z"/><path d="M35.99268,40.86328a0.99983,0.99983,0,0,1-.9082-0.58057,2.65824,2.65824,0,0,1,3.53125-3.53223,1.00017,1.00017,0,0,1-.83789,1.81641,0.658,0.658,0,0,0-.87793.877A1.00006,1.00006,0,0,1,35.99268,40.86328Z"/><path d="M36.80273,41.67432a0.99611,0.99611,0,0,1-.418-0.0918A2.5751,2.5751,0,0,1,35.084,40.28174a1,1,0,1,1,1.81641-.83691,0.58092,0.58092,0,0,0,.32129.32129A1,1,0,0,1,36.80273,41.67432Z"/><path d="M39.0083,39.46973a0.99959,0.99959,0,0,1-.90869-0.58154,0.589,0.589,0,0,0-.32129-0.32129,1,1,0,0,1,.83691-1.81641A2.58492,2.58492,0,0,1,39.916,38.05127,1,1,0,0,1,39.0083,39.46973Z"/><path d="M38.67822,38.98828a1,1,0,0,1-.707-1.707l2.35742-2.35693a0.99989,0.99989,0,0,1,1.41406,1.41406l-2.35742,2.35693A0.99676,0.99676,0,0,1,38.67822,38.98828Z"/><path d="M33.96436,43.70215a1,1,0,0,1-.707-1.707l2.35693-2.35693a0.99989,0.99989,0,0,1,1.41406,1.41406l-2.35693,2.35693A0.99676,0.99676,0,0,1,33.96436,43.70215Z"/></g></svg>