<svg xmlns="http://www.w3.org/2000/svg" viewBox="0 0 80 80"><title>alo_icon_system_cancelled-small</title><path d="M40,80A40,40,0,1,1,80,40,40.04583,40.04583,0,0,1,40,80ZM40,3A37,37,0,1,0,77,40,37.04129,37.04129,0,0,0,40,3Z"/><path d="M59.25,29.9502H20.75a1.5,1.5,0,0,1,0-3h38.5a1.5,1.5,0,0,1,0,3Z"/><path d="M55.39941,45.34961H24.59961a1.5,1.5,0,1,1,0-3h30.7998a1.5,1.5,0,0,1,0,3Z"/><path d="M40,60.75a1.50039,1.50039,0,0,1-1.5-1.5V28.4502a1.5,1.5,0,1,1,3,0V59.25A1.50039,1.50039,0,0,1,40,60.75Z"/><path d="M49.625,29.9502a1.50039,1.50039,0,0,1-1.5-1.5V22.6748a.43023.43023,0,0,0-.4248-.4248H32.2998a.43023.43023,0,0,0-.4248.4248V28.4502a1.5,1.5,0,0,1-3,0V22.6748A3.42839,3.42839,0,0,1,32.2998,19.25H47.7002a3.42839,3.42839,0,0,1,3.4248,3.4248V28.4502A1.50039,1.50039,0,0,1,49.625,29.9502Z"/><path d="M50.58691,60.75H29.41211a6.32,6.32,0,0,1-6.3125-6.3125V28.4502a1.5,1.5,0,0,1,3,0V54.4375a3.3167,3.3167,0,0,0,3.3125,3.3125h21.1748a3.3167,3.3167,0,0,0,3.3125-3.3125V28.4502a1.5,1.5,0,1,1,3,0V54.4375A6.32,6.32,0,0,1,50.58691,60.75Z"/></svg>