<svg id="Elements" xmlns="http://www.w3.org/2000/svg" viewBox="0 0 75 75"><title>alo_service</title><path d="M40.833,31.8335a2.66675,2.66675,0,1,1,2.667-2.667A2.66976,2.66976,0,0,1,40.833,31.8335Zm0-3.3335a0.66675,0.66675,0,1,0,.667.6665A0.667,0.667,0,0,0,40.833,28.5Z"/><path d="M34.1665,31.8335a2.66675,2.66675,0,1,1,2.6665-2.667A2.66976,2.66976,0,0,1,34.1665,31.8335Zm0-3.3335a0.66675,0.66675,0,1,0,.6665.6665A0.667,0.667,0,0,0,34.1665,28.5Z"/><path d="M41.833,48.5a3.50425,3.50425,0,0,1-3.5-3.5V37.8335H36.6665V45a3.5,3.5,0,1,1-7,0V37.8335h-0.5a2.66675,2.66675,0,0,1,0-5.3335h16.667a2.66675,2.66675,0,0,1,0,5.3335H45.333V45A3.50425,3.50425,0,0,1,41.833,48.5ZM35.6665,35.8335H39.333a1,1,0,0,1,1,1V45a1.5,1.5,0,0,0,3,0V36.8335a1,1,0,0,1,1-1H45.8335a0.66675,0.66675,0,0,0,0-1.3335H29.1665a0.66675,0.66675,0,0,0,0,1.3335h1.5a1,1,0,0,1,1,1V45a1.5,1.5,0,1,0,3,0V36.8335A1,1,0,0,1,35.6665,35.8335Z"/></svg>