<svg id="Elements" xmlns="http://www.w3.org/2000/svg" viewBox="0 0 75 75"><title>alo_service</title><path d="M37.5,46A8.5,8.5,0,1,1,46,37.5,8.50982,8.50982,0,0,1,37.5,46Zm0-15A6.5,6.5,0,1,0,44,37.5,6.50753,6.50753,0,0,0,37.5,31Z"/><path d="M47.5,38.5H40a1,1,0,0,1,0-2h7.5A1,1,0,0,1,47.5,38.5Z"/><path d="M35,38.5H27.5a1,1,0,0,1,0-2H35A1,1,0,0,1,35,38.5Z"/><path d="M44.57129,45.5708a0.99676,0.99676,0,0,1-.707-0.293l-5.30371-5.30322a0.99989,0.99989,0,0,1,1.41406-1.41406l5.30371,5.30322A1,1,0,0,1,44.57129,45.5708Z"/><path d="M35.73242,36.73242a0.99676,0.99676,0,0,1-.707-0.293l-5.30371-5.30371a0.99989,0.99989,0,0,1,1.41406-1.41406l5.30371,5.30371A1,1,0,0,1,35.73242,36.73242Z"/><path d="M37.5,48.5a0.99974,0.99974,0,0,1-1-1V40a1,1,0,0,1,2,0v7.5A0.99974,0.99974,0,0,1,37.5,48.5Z"/><path d="M37.5,36a0.99974,0.99974,0,0,1-1-1V27.5a1,1,0,0,1,2,0V35A0.99974,0.99974,0,0,1,37.5,36Z"/><path d="M30.42871,45.5708a1,1,0,0,1-.707-1.707l5.30371-5.30322a0.99989,0.99989,0,0,1,1.41406,1.41406l-5.30371,5.30322A0.99676,0.99676,0,0,1,30.42871,45.5708Z"/><path d="M39.26758,36.73242a1,1,0,0,1-.707-1.707l5.30371-5.30371a0.99989,0.99989,0,0,1,1.41406,1.41406l-5.30371,5.30371A0.99676,0.99676,0,0,1,39.26758,36.73242Z"/><path d="M40,38.5a0.99974,0.99974,0,0,1-1-1,1.4916,1.4916,0,0,0-.43945-1.06055,0.99989,0.99989,0,0,1,1.41406-1.41406A3.4771,3.4771,0,0,1,41,37.5,0.99974,0.99974,0,0,1,40,38.5Z"/><path d="M37.5,41a3.4722,3.4722,0,0,1-2.47461-1.02588A0.99955,0.99955,0,1,1,36.43945,38.561,1.4903,1.4903,0,0,0,37.5,39,1,1,0,0,1,37.5,41Z"/><path d="M39.26758,40.26758a1,1,0,0,1-.707-1.707A1.4916,1.4916,0,0,0,39,37.5a1,1,0,0,1,2,0,3.4771,3.4771,0,0,1-1.02539,2.47461A0.99676,0.99676,0,0,1,39.26758,40.26758Z"/><path d="M35.73242,40.26758a0.99555,0.99555,0,0,1-.70605-0.292A3.47206,3.47206,0,0,1,34,37.5a1,1,0,0,1,2,0,1.48911,1.48911,0,0,0,.43848,1.05957A0.99976,0.99976,0,0,1,35.73242,40.26758Z"/><path d="M39.26758,36.73242a0.99523,0.99523,0,0,1-.707-0.29346A1.4903,1.4903,0,0,0,37.5,36a1,1,0,0,1,0-2,3.4722,3.4722,0,0,1,2.47461,1.02588A0.99951,0.99951,0,0,1,39.26758,36.73242Z"/><path d="M35,38.5a0.99974,0.99974,0,0,1-1-1,3.47206,3.47206,0,0,1,1.02637-2.47559,0.99989,0.99989,0,1,1,1.41211,1.416A1.48911,1.48911,0,0,0,36,37.5,0.99974,0.99974,0,0,1,35,38.5Z"/><path d="M37.5,41a1,1,0,0,1,0-2,1.4903,1.4903,0,0,0,1.06055-.439,0.99955,0.99955,0,1,1,1.41406,1.41309A3.4722,3.4722,0,0,1,37.5,41Z"/><path d="M35.73242,36.73242a0.99951,0.99951,0,0,1-.707-1.70654A3.4722,3.4722,0,0,1,37.5,34a1,1,0,0,1,0,2,1.4903,1.4903,0,0,0-1.06055.439A0.99358,0.99358,0,0,1,35.73242,36.73242Z"/></svg>