<svg xmlns="http://www.w3.org/2000/svg" viewBox="0 0 80 80"><title>alo_icon_system_activity-small</title><path d="M40,80A40,40,0,1,1,80,40,40.04552,40.04552,0,0,1,40,80ZM40,3A37,37,0,1,0,77,40,37.04161,37.04161,0,0,0,40,3Z"/><path d="M40,32.5166a6.6333,6.6333,0,1,1,6.63379-6.6333A6.64079,6.64079,0,0,1,40,32.5166ZM40,22.25a3.6333,3.6333,0,1,0,3.63379,3.6333A3.63751,3.63751,0,0,0,40,22.25Z"/><path d="M40,60.75a6.31966,6.31966,0,0,1-6.3125-6.3125V46.78564l-7.03125-7.03125a4.70858,4.70858,0,0,1,6.65918-6.65869L36.84277,36.623h6.31445l3.52734-3.52686a4.70841,4.70841,0,1,1,6.65918,6.6582L46.3125,46.78564V54.4375A6.31966,6.31966,0,0,1,40,60.75ZM29.98535,34.71777a1.708,1.708,0,0,0-1.208,2.91553l7.4707,7.47021a1.49976,1.49976,0,0,1,.43945,1.06055V54.4375a3.3125,3.3125,0,0,0,6.625,0V46.16455A1.49976,1.49976,0,0,1,43.752,45.104l7.4707-7.4707a1.70855,1.70855,0,1,0-2.417-2.41553l-3.9668,3.96582a1.50061,1.50061,0,0,1-1.06055.43945H36.22168a1.50061,1.50061,0,0,1-1.06055-.43945l-3.9668-3.96631A1.7053,1.7053,0,0,0,29.98535,34.71777Z"/></svg>