<svg xmlns="http://www.w3.org/2000/svg" viewBox="0 0 80 80"><title>alo_icon_system_overall-small</title><path d="M40,80A40,40,0,1,1,80,40,40.04583,40.04583,0,0,1,40,80ZM40,3A37,37,0,1,0,77,40,37.04129,37.04129,0,0,0,40,3Z"/><path d="M49.625,41.5H40A1.50039,1.50039,0,0,1,38.5,40V30.375A11.125,11.125,0,1,1,49.625,41.5Zm-8.125-3h8.125A8.125,8.125,0,1,0,41.5,30.375Z"/><path d="M30.375,60.75a11.125,11.125,0,0,1,0-22.25H40A1.50039,1.50039,0,0,1,41.5,40v9.625A11.13706,11.13706,0,0,1,30.375,60.75Zm0-19.25A8.125,8.125,0,1,0,38.5,49.625V41.5Z"/></svg>