<svg xmlns="http://www.w3.org/2000/svg" viewBox="0 0 80 80"><title>alo_icon_system_stacks-small</title><path d="M40,80A40,40,0,1,1,80,40,40.0452,40.0452,0,0,1,40,80ZM40,3A37,37,0,1,0,77,40,37.04192,37.04192,0,0,0,40,3Z"/><path d="M26.35742,60.75a1.49514,1.49514,0,0,1-1.06055-.43945l-5.1333-5.1333a1.49984,1.49984,0,0,1,2.12109-2.12109l5.1333,5.1333A1.5,1.5,0,0,1,26.35742,60.75Z"/><path d="M21.22412,60.75a1.5,1.5,0,0,1-1.06055-2.56055l5.1333-5.1333A1.49984,1.49984,0,0,1,27.418,55.17725l-5.1333,5.1333A1.49514,1.49514,0,0,1,21.22412,60.75Z"/><path d="M45.60742,58.188H32.77393a1.5,1.5,0,0,1,0-3h12.8335a1.5,1.5,0,0,1,0,3Z"/><path d="M58.18359,49.19971H22.76416a3.0435,3.0435,0,0,1-3.04-3.04V22.29a3.0435,3.0435,0,0,1,3.04-3.04H58.18359a3.0435,3.0435,0,0,1,3.04,3.04V46.15967A3.0435,3.0435,0,0,1,58.18359,49.19971ZM22.76416,22.25l-.04,23.90967,35.45947.04a.04022.04022,0,0,0,.04-.04V22.29Z"/><path d="M32.77393,37.6499a5.34985,5.34985,0,1,1,5.3501-5.3501A5.356,5.356,0,0,1,32.77393,37.6499Zm0-7.69971A2.34985,2.34985,0,1,0,35.124,32.2998,2.35259,2.35259,0,0,0,32.77393,29.9502Z"/><path d="M34.54346,49.19971a1.5,1.5,0,0,1-1.06055-2.56055L49.68018,30.44189a1.49945,1.49945,0,0,1,2.12109,0l8.9834,8.9834a1.49984,1.49984,0,0,1-2.12109,2.12109l-7.92285-7.92285L35.604,48.76025A1.49514,1.49514,0,0,1,34.54346,49.19971Z"/></svg>