<svg id="Elements" xmlns="http://www.w3.org/2000/svg" viewBox="0 0 75 75"><title>alo_service</title><path d="M46.2373,48.5a0.99942,0.99942,0,0,1-1-1V45.833a0.66262,0.66262,0,0,0-.19434-0.4707l-5.97656-5.97656a2.66943,2.66943,0,0,1,0-3.77148L45.043,29.6377a0.66262,0.66262,0,0,0,.19434-0.4707V27.5a1,1,0,0,1,2,0v1.667a2.64894,2.64894,0,0,1-.78027,1.88477l-5.97656,5.97656a0.66721,0.66721,0,0,0,0,.94336L46.457,43.94824A2.64894,2.64894,0,0,1,47.2373,45.833V47.5A0.99942,0.99942,0,0,1,46.2373,48.5Z"/><path d="M28.7627,48.5a0.99942,0.99942,0,0,1-1-1V45.833a2.64894,2.64894,0,0,1,.78027-1.88477l5.97656-5.97656a0.66721,0.66721,0,0,0,0-.94336L28.543,31.05176A2.64894,2.64894,0,0,1,27.7627,29.167V27.5a1,1,0,0,1,2,0v1.667a0.66262,0.66262,0,0,0,.19434.4707l5.97656,5.97656a2.66943,2.66943,0,0,1,0,3.77148L29.957,45.3623a0.66262,0.66262,0,0,0-.19434.4707V47.5A0.99942,0.99942,0,0,1,28.7627,48.5Z"/><path d="M40.833,48.5a0.99942,0.99942,0,0,1-1-1V44.167a1,1,0,0,1,2,0V47.5A0.99942,0.99942,0,0,1,40.833,48.5Z"/><path d="M34.167,48.5a0.99942,0.99942,0,0,1-1-1V44.167a1,1,0,0,1,2,0V47.5A0.99942,0.99942,0,0,1,34.167,48.5Z"/><path d="M37.5,48.5a0.99942,0.99942,0,0,1-1-1v-5a1,1,0,0,1,2,0v5A0.99942,0.99942,0,0,1,37.5,48.5Z"/><path d="M47.5,28.5h-20a1,1,0,0,1,0-2h20A1,1,0,0,1,47.5,28.5Z"/><path d="M47.5,48.5h-20a1,1,0,0,1,0-2h20A1,1,0,0,1,47.5,48.5Z"/></svg>