<svg id="Elements" xmlns="http://www.w3.org/2000/svg" viewBox="0 0 75 75"><title>alo_service</title><path d="M37.5,48.5a11,11,0,1,1,11-11A11.01245,11.01245,0,0,1,37.5,48.5Zm0-20a9,9,0,1,0,9,9A9.01047,9.01047,0,0,0,37.5,28.5Z"/><path d="M28.21631,42.19629a1,1,0,0,1-.32568-1.94531,6.64991,6.64991,0,0,0,4.4917-6.28027,6.5745,6.5745,0,0,0-1.39111-4.05225,0.99971,0.99971,0,1,1,1.582-1.22266,8.554,8.554,0,0,1,1.80908,5.2749A8.6498,8.6498,0,0,1,28.542,42.1416,1,1,0,0,1,28.21631,42.19629Z"/><path d="M31.61768,34.38232a10.96044,10.96044,0,0,1-3.29883-.50684,0.99978,0.99978,0,1,1,.60059-1.90723A8.98648,8.98648,0,0,0,39.60986,27.501a1,1,0,1,1,1.77637.91895A10.96938,10.96938,0,0,1,31.61768,34.38232Z"/><path d="M43.89893,46.17676a0.99608,0.99608,0,0,1-.75732-0.34668,12.76224,12.76224,0,0,1-3.10352-8.12744,1.0005,1.0005,0,0,1,.98389-1.01611h0.0166a1.00009,1.00009,0,0,1,.99951.98389,10.761,10.761,0,0,0,2.61719,6.853A0.99975,0.99975,0,0,1,43.89893,46.17676Z"/><path d="M41.89355,34.10791a1.00127,1.00127,0,0,1-.92578-1.377,12.81247,12.81247,0,0,1,2.17383-3.56152,1.00013,1.00013,0,0,1,1.51367,1.30762,10.80442,10.80442,0,0,0-1.835,3.00684A1.00052,1.00052,0,0,1,41.89355,34.10791Z"/><path d="M41.03857,38.68652q-0.04028,0-.082-0.00293a3.34729,3.34729,0,0,1,.27-6.68408,3.30814,3.30814,0,0,1,.95313.14941,1.00015,1.00015,0,0,1-.57129,1.917,1.33144,1.33144,0,0,0-.38184-0.06641,1.35442,1.35442,0,0,0-1.35254,1.353,1.3388,1.3388,0,0,0,1.24463,1.3374A0.99994,0.99994,0,0,1,41.03857,38.68652Z"/><path d="M41.22656,38.70605a1.80144,1.80144,0,0,1-.252-0.02051,1.03156,1.03156,0,0,1-.89453-1.10449,0.97478,0.97478,0,0,1,1.04248-.89111c0.0166,0.00146.10547,0.01221,0.12207,0.01416h0.00244a1.34579,1.34579,0,0,0,.36182-2.63818,1,1,0,0,1,.57031-1.917A3.34688,3.34688,0,0,1,41.22656,38.70605Z"/><path d="M37.92773,48.47852a1.05743,1.05743,0,0,1-.17383-0.01465,1.00032,1.00032,0,0,1-.812-1.1582,8.9566,8.9566,0,0,0-8.85352-10.57031c-0.06592,0-.13037.00537-0.19482,0.00928l-0.19043.01123a0.99987,0.99987,0,0,1-.082-1.998l0.13672-.0083c0.10986-.00732.21924-0.01416,0.33057-0.01416a10.95558,10.95558,0,0,1,10.82324,12.916A1.00016,1.00016,0,0,1,37.92773,48.47852Z"/></svg>