<svg xmlns="http://www.w3.org/2000/svg" viewBox="0 0 80 80"><title>alo_icon_system_images-small</title><path d="M40,80A40,40,0,1,1,80,40,40.04552,40.04552,0,0,1,40,80ZM40,3A37,37,0,1,0,77,40,37.04192,37.04192,0,0,0,40,3Z"/><path d="M54.1167,56.89941H25.8833A6.64058,6.64058,0,0,1,19.25,50.2666V29.7334a6.64068,6.64068,0,0,1,6.6333-6.6333H54.1167A6.64068,6.64068,0,0,1,60.75,29.7334V50.2666A6.64058,6.64058,0,0,1,54.1167,56.89941ZM25.8833,26.1001A3.6374,3.6374,0,0,0,22.25,29.7334V50.2666a3.6373,3.6373,0,0,0,3.6333,3.63281H54.1167A3.6373,3.6373,0,0,0,57.75,50.2666V29.7334a3.6374,3.6374,0,0,0-3.6333-3.6333Z"/><path d="M33.5835,44.06641a6.6333,6.6333,0,1,1,6.6333-6.6333A6.64068,6.64068,0,0,1,33.5835,44.06641Zm0-10.2666a3.6333,3.6333,0,1,0,3.6333,3.6333A3.6374,3.6374,0,0,0,33.5835,33.7998Z"/><path d="M34.55518,56.90039A1.5,1.5,0,0,1,33.418,54.42285L49.12891,36.14453a1.49952,1.49952,0,0,1,2.19824-.083l8.9834,8.98242A1.49984,1.49984,0,1,1,58.18945,47.165l-7.83984-7.83838L35.69336,56.37793A1.4954,1.4954,0,0,1,34.55518,56.90039Z"/></svg>