<svg xmlns="http://www.w3.org/2000/svg" viewBox="0 0 80 80"><title>alo_icon_system_favorite-small</title><path d="M40,80A40,40,0,1,1,80,40,40.04583,40.04583,0,0,1,40,80ZM40,3A37,37,0,1,0,77,40,37.04129,37.04129,0,0,0,40,3Z"/><path d="M40,60.75a1.50039,1.50039,0,0,1-1.5-1.5V20.75a1.5,1.5,0,0,1,3,0v38.5A1.50039,1.50039,0,0,1,40,60.75Z"/><path d="M56.66992,51.125a1.49035,1.49035,0,0,1-.749-.20117l-33.3418-19.25a1.49982,1.49982,0,1,1,1.5-2.59766l33.3418,19.25a1.5,1.5,0,0,1-.751,2.79883Z"/><path d="M23.33008,51.125a1.5,1.5,0,0,1-.751-2.79883l33.3418-19.25a1.49982,1.49982,0,1,1,1.5,2.59766l-33.3418,19.25A1.49035,1.49035,0,0,1,23.33008,51.125Z"/></svg>