<svg xmlns="http://www.w3.org/2000/svg" viewBox="0 0 80 80"><title>alo_icon_system_location-small</title><path d="M40,80A40,40,0,1,1,80,40,40.04552,40.04552,0,0,1,40,80ZM40,3A37,37,0,1,0,77,40,37.04192,37.04192,0,0,0,40,3Z"/><path d="M28.12939,60.75a1.50007,1.50007,0,0,1-1.5-1.5V20.75a1.5,1.5,0,0,1,3,0v38.5A1.50007,1.50007,0,0,1,28.12939,60.75Z"/><path d="M32.94189,60.75h-9.625a1.5,1.5,0,0,1,0-3h9.625a1.5,1.5,0,0,1,0,3Z"/><path d="M52.19189,46.3125H28.12939a1.50007,1.50007,0,0,1-1.5-1.5v-19.25a1.49976,1.49976,0,0,1,1.5-1.5h24.0625a1.49976,1.49976,0,0,1,1.06055.43945l9.625,9.625a1.49945,1.49945,0,0,1,0,2.12109l-9.625,9.625A1.49976,1.49976,0,0,1,52.19189,46.3125Zm-22.5625-3H51.5708l8.125-8.125-8.125-8.125H29.62939Z"/></svg>