<svg xmlns="http://www.w3.org/2000/svg" viewBox="0 0 80 80"><title>alo_icon_system_view-small</title><path d="M40,80A40,40,0,1,1,80,40,40.04552,40.04552,0,0,1,40,80ZM40,3A37,37,0,1,0,77,40,37.04161,37.04161,0,0,0,40,3Z"/><path d="M36.14941,53.0498a16.901,16.901,0,1,1,11.9502-4.9502A16.78777,16.78777,0,0,1,36.14941,53.0498Zm0-30.7998a13.8999,13.8999,0,1,0,9.8291,23.72852h0A13.8999,13.8999,0,0,0,36.14941,22.25Z"/><path d="M59.25049,60.751a1.49514,1.49514,0,0,1-1.06055-.43945L45.97852,48.09961a1.49984,1.49984,0,0,1,2.12109-2.12109L60.311,58.19043A1.5,1.5,0,0,1,59.25049,60.751Z"/></svg>