<svg id="Elements" xmlns="http://www.w3.org/2000/svg" viewBox="0 0 75 75"><title>alo_service</title><path d="M42.5,34h-10a0.99974,0.99974,0,0,1-1-1V30a0.99974,0.99974,0,0,1,1-1h1.64551a3.50052,3.50052,0,0,1,6.709,0H42.5a0.99974,0.99974,0,0,1,1,1v3A0.99974,0.99974,0,0,1,42.5,34Zm-9-2h8V31H40a0.99974,0.99974,0,0,1-1-1,1.5,1.5,0,0,0-3,0,0.99974,0.99974,0,0,1-1,1H33.5v1Z"/><path d="M42.75586,43.667h-4.6665a1,1,0,0,1,0-2h4.6665A1,1,0,1,1,42.75586,43.667Z"/><path d="M33.08936,44.75586a0.99676,0.99676,0,0,1-.707-0.293l-0.84521-.84473a0.99989,0.99989,0,1,1,1.41406-1.41406l0.1377,0.1377,1.47168-1.47168a0.99989,0.99989,0,0,1,1.41406,1.41406l-2.17822,2.17871A0.99676,0.99676,0,0,1,33.08936,44.75586Z"/><path d="M42.75586,38.667h-4.6665a1,1,0,0,1,0-2h4.6665A1,1,0,1,1,42.75586,38.667Z"/><path d="M33.08936,39.75586a0.99676,0.99676,0,0,1-.707-0.293l-0.84521-.84473a0.99989,0.99989,0,1,1,1.41406-1.41406l0.1377,0.1377,1.47168-1.47168a0.99989,0.99989,0,0,1,1.41406,1.41406l-2.17822,2.17871A0.99676,0.99676,0,0,1,33.08936,39.75586Z"/><path d="M44.1665,48.5H30.8335a2.66986,2.66986,0,0,1-2.667-2.667V33.167a2.66986,2.66986,0,0,1,2.667-2.667H32.5a1,1,0,0,1,0,2H30.8335a0.66757,0.66757,0,0,0-.667.667V45.833a0.66757,0.66757,0,0,0,.667.667h13.333a0.66757,0.66757,0,0,0,.667-0.667V33.167a0.66757,0.66757,0,0,0-.667-0.667H42.5a1,1,0,0,1,0-2h1.6665a2.66986,2.66986,0,0,1,2.667,2.667V45.833A2.66986,2.66986,0,0,1,44.1665,48.5Z"/></svg>