<svg id="Elements" xmlns="http://www.w3.org/2000/svg" viewBox="0 0 75 75"><title>alo_service</title><path d="M29.61914,48.5a0.99864,0.99864,0,0,1-.68848-0.27441,7.95883,7.95883,0,0,1,0-11.45117,5.95759,5.95759,0,0,0,0-8.54883,1.00024,1.00024,0,0,1,1.377-1.45117,7.95883,7.95883,0,0,1,0,11.45117,5.95759,5.95759,0,0,0,0,8.54883A1,1,0,0,1,29.61914,48.5Z"/><path d="M37.5,48.5a0.99864,0.99864,0,0,1-.68848-0.27441,7.95883,7.95883,0,0,1,0-11.45117,5.95759,5.95759,0,0,0,0-8.54883,1.00024,1.00024,0,0,1,1.377-1.45117,7.95883,7.95883,0,0,1,0,11.45117,5.95759,5.95759,0,0,0,0,8.54883A1,1,0,0,1,37.5,48.5Z"/><path d="M45.38086,48.5a0.99864,0.99864,0,0,1-.68848-0.27441,7.95883,7.95883,0,0,1,0-11.45117,5.95759,5.95759,0,0,0,0-8.54883,1.00024,1.00024,0,0,1,1.377-1.45117,7.95883,7.95883,0,0,1,0,11.45117,5.95759,5.95759,0,0,0,0,8.54883A1,1,0,0,1,45.38086,48.5Z"/></svg>