<svg id="Elements" xmlns="http://www.w3.org/2000/svg" viewBox="0 0 75 75"><title>alo_service</title><path d="M35,46a8.5,8.5,0,1,1,8.5-8.5A8.50982,8.50982,0,0,1,35,46Zm0-15a6.5,6.5,0,1,0,6.5,6.5A6.50753,6.50753,0,0,0,35,31Z"/><path d="M47.5,38.5h-5a1,1,0,0,1,0-2h5A1,1,0,0,1,47.5,38.5Z"/><path d="M30,32.9209a0.99974,0.99974,0,0,1-1-1V27.5a1,1,0,0,1,2,0v4.4209A0.99974,0.99974,0,0,1,30,32.9209Z"/><path d="M40,32.9209a0.99974,0.99974,0,0,1-1-1V27.5a1,1,0,0,1,2,0v4.4209A0.99974,0.99974,0,0,1,40,32.9209Z"/><path d="M40,48.5a0.99974,0.99974,0,0,1-1-1V43.07861a1,1,0,0,1,2,0V47.5A0.99974,0.99974,0,0,1,40,48.5Z"/><path d="M30,48.5a0.99974,0.99974,0,0,1-1-1V43.07861a1,1,0,0,1,2,0V47.5A0.99974,0.99974,0,0,1,30,48.5Z"/><path d="M35.001,38.5a1,1,0,0,1-.501-1.86621l4.33008-2.5a1.00016,1.00016,0,1,1,1,1.73242l-4.33008,2.5A0.99445,0.99445,0,0,1,35.001,38.5Z"/><path d="M34.999,38.5a0.9991,0.9991,0,0,1-.55273-0.167l-2.082-1.3833a1.00025,1.00025,0,0,1,1.10742-1.666l2.082,1.3833A1.00017,1.00017,0,0,1,34.999,38.5Z"/></svg>