<svg xmlns="http://www.w3.org/2000/svg" viewBox="0 0 80 80"><title>alo_service-carpooling-small</title><path d="M40,80A40,40,0,1,1,80,40,40.04552,40.04552,0,0,1,40,80ZM40,3A37,37,0,1,0,77,40,37.04161,37.04161,0,0,0,40,3Z"/><path d="M56.0415,51.7666H23.9585a4.71383,4.71383,0,0,1-4.7085-4.708V38.7168a7.92581,7.92581,0,0,1,7.9165-7.917h25.667a7.92581,7.92581,0,0,1,7.9165,7.917v8.3418A4.71383,4.71383,0,0,1,56.0415,51.7666ZM27.1665,33.7998a4.92253,4.92253,0,0,0-4.9165,4.917v8.3418a1.71055,1.71055,0,0,0,1.7085,1.708h32.083a1.71055,1.71055,0,0,0,1.7085-1.708V38.7168a4.92253,4.92253,0,0,0-4.9165-4.917Z"/><path d="M52.8335,33.7998a1.50007,1.50007,0,0,1-1.5-1.5V27.05859a6.09867,6.09867,0,0,0-6.09229-6.0918H34.75879a6.09867,6.09867,0,0,0-6.09229,6.0918V32.2998a1.5,1.5,0,0,1-3,0V27.05859a9.102,9.102,0,0,1,9.09229-9.0918H45.24121a9.102,9.102,0,0,1,9.09229,9.0918V32.2998A1.50007,1.50007,0,0,1,52.8335,33.7998Z"/><path d="M28.4502,44.06641a1.50007,1.50007,0,0,1-1.5-1.5V40a1.5,1.5,0,0,1,3,0v2.56641A1.50007,1.50007,0,0,1,28.4502,44.06641Z"/><path d="M51.5498,44.06641a1.50007,1.50007,0,0,1-1.5-1.5V40a1.5,1.5,0,0,1,3,0v2.56641A1.50007,1.50007,0,0,1,51.5498,44.06641Z"/><path d="M31.0166,59.4668a5.35639,5.35639,0,0,1-5.3501-5.35059V50.2666a1.5,1.5,0,0,1,3,0v3.84961a2.3501,2.3501,0,1,0,4.7002,0V50.2666a1.5,1.5,0,0,1,3,0v3.84961A5.35639,5.35639,0,0,1,31.0166,59.4668Z"/><path d="M48.9834,59.4668a5.35639,5.35639,0,0,1-5.3501-5.35059V50.2666a1.5,1.5,0,0,1,3,0v3.84961a2.3501,2.3501,0,1,0,4.7002,0V50.2666a1.5,1.5,0,0,1,3,0v3.84961A5.35639,5.35639,0,0,1,48.9834,59.4668Z"/></svg>