<svg xmlns="http://www.w3.org/2000/svg" viewBox="0 0 80 80"><title>alo_icon_system_upcoming-small</title><path d="M40,80A40,40,0,1,1,80,40,40.0452,40.0452,0,0,1,40,80ZM40,3A37,37,0,1,0,77,40,37.04192,37.04192,0,0,0,40,3Z"/><path d="M59.25,39.896H43.208a1.5,1.5,0,0,1,0-3H59.25a1.5,1.5,0,0,1,0,3Z"/><path d="M39.99951,36.6875a1.49976,1.49976,0,0,1-1.5-1.5v-9.625a1.5,1.5,0,0,1,3,0v9.625A1.49976,1.49976,0,0,1,39.99951,36.6875Z"/><path d="M49.625,39.896a1.49976,1.49976,0,0,1-1.5-1.5V22.354a1.5,1.5,0,0,1,3,0V38.396A1.49976,1.49976,0,0,1,49.625,39.896Z"/><path d="M30.37451,31.875H20.75a1.5,1.5,0,0,1,0-3h9.62451a1.5,1.5,0,0,1,0,3Z"/><path d="M20.75,36.6875a1.49976,1.49976,0,0,1-1.5-1.5v-9.625a1.5,1.5,0,0,1,3,0v9.625A1.49976,1.49976,0,0,1,20.75,36.6875Z"/><path d="M30.37451,36.6875a1.49976,1.49976,0,0,1-1.5-1.5v-9.625a1.5,1.5,0,0,1,3,0v9.625A1.49976,1.49976,0,0,1,30.37451,36.6875Z"/><path d="M39.99951,36.6875h-9.625a1.5,1.5,0,0,1,0-3h9.625a1.5,1.5,0,0,1,0,3Z"/><path d="M39.99951,27.0625h-9.625a1.5,1.5,0,0,1,0-3h9.625a1.5,1.5,0,0,1,0,3Z"/><path d="M59.25,41.5a1.49976,1.49976,0,0,1-1.5-1.5V20.75a1.5,1.5,0,0,1,3,0V40A1.49976,1.49976,0,0,1,59.25,41.5Z"/><path d="M43.208,39.896a4.71393,4.71393,0,0,1-4.7085-4.7085,1.5,1.5,0,0,1,3,0A1.71065,1.71065,0,0,0,43.208,36.896a1.5,1.5,0,0,1,0,3Z"/><path d="M59.25,23.854H43.208a1.5,1.5,0,0,1,0-3H59.25a1.5,1.5,0,0,1,0,3Z"/><path d="M39.99951,27.0625a1.49976,1.49976,0,0,1-1.5-1.5A4.71393,4.71393,0,0,1,43.208,20.854a1.5,1.5,0,0,1,0,3,1.71065,1.71065,0,0,0-1.7085,1.7085A1.49976,1.49976,0,0,1,39.99951,27.0625Z"/><path d="M35.187,60.75a1.49976,1.49976,0,0,1-1.5-1.5V35.1875a1.5,1.5,0,0,1,3,0V59.25A1.49976,1.49976,0,0,1,35.187,60.75Z"/><path d="M48.022,60.75a1.49831,1.49831,0,0,1-1.24951-.668L33.939,40.832A1.5,1.5,0,1,1,36.43506,39.168l12.8335,19.25A1.5,1.5,0,0,1,48.022,60.75Z"/><path d="M22.35254,60.75A1.5,1.5,0,0,1,21.106,58.418l12.833-19.25A1.5,1.5,0,1,1,36.43506,40.832l-12.833,19.25A1.49831,1.49831,0,0,1,22.35254,60.75Z"/></svg>