<svg xmlns="http://www.w3.org/2000/svg" viewBox="0 0 80 80"><title>alo_icon_system_time-small</title><path d="M40.001,55.9375A15.9375,15.9375,0,1,1,55.93848,40,15.9554,15.9554,0,0,1,40.001,55.9375Zm0-28.875A12.9375,12.9375,0,1,0,52.93848,40,12.95212,12.95212,0,0,0,40.001,27.0625Z"/><path d="M64.063,41.5H54.43848a1.5,1.5,0,0,1,0-3H64.063a1.5,1.5,0,0,1,0,3Z"/><path d="M30.37646,30.76074a1.49976,1.49976,0,0,1-1.5-1.5V20.75a1.5,1.5,0,0,1,3,0v8.51074A1.49976,1.49976,0,0,1,30.37646,30.76074Z"/><path d="M49.62646,30.76074a1.49976,1.49976,0,0,1-1.5-1.5V20.75a1.5,1.5,0,0,1,3,0v8.51074A1.49976,1.49976,0,0,1,49.62646,30.76074Z"/><path d="M49.62646,60.75a1.50007,1.50007,0,0,1-1.5-1.5V50.73926a1.5,1.5,0,0,1,3,0V59.25A1.50007,1.50007,0,0,1,49.62646,60.75Z"/><path d="M30.37646,60.75a1.50007,1.50007,0,0,1-1.5-1.5V50.73926a1.5,1.5,0,0,1,3,0V59.25A1.50007,1.50007,0,0,1,30.37646,60.75Z"/><path d="M40.00244,41.5a1.5,1.5,0,0,1-.75146-2.79883l8.33545-4.8125a1.49982,1.49982,0,1,1,1.5,2.59766L40.751,41.29883A1.48991,1.48991,0,0,1,40.00244,41.5Z"/><path d="M39.99951,41.5a1.49063,1.49063,0,0,1-.82861-.251l-4.0083-2.6626a1.5001,1.5001,0,1,1,1.66016-2.499l4.0083,2.66309A1.5,1.5,0,0,1,39.99951,41.5Z"/><path d="M40,80A40,40,0,1,1,80,40,40.04552,40.04552,0,0,1,40,80ZM40,3A37,37,0,1,0,77,40,37.04192,37.04192,0,0,0,40,3Z"/></svg>