<svg id="Elements" xmlns="http://www.w3.org/2000/svg" viewBox="0 0 75 75"><title>alo_service</title><path d="M37.436,43.36035a6.00024,6.00024,0,1,1,6-6.00049A6.00666,6.00666,0,0,1,37.436,43.36035Zm0-10.00049a4.00024,4.00024,0,1,0,4,4A4.00458,4.00458,0,0,0,37.436,33.35986Z"/><path d="M42.436,39.83789a0.99974,0.99974,0,0,1-1-1v-6.478a1,1,0,0,1,2,0v6.478A0.99974,0.99974,0,0,1,42.436,39.83789Z"/><path d="M37.5,48.5a11.0029,11.0029,0,0,1-4.28223-21.13525,11.08423,11.08423,0,0,1,8.56445,0A10.9911,10.9911,0,0,1,48.5,37.5a1,1,0,0,1-2,0,9.01217,9.01217,0,0,0-5.49707-8.29346,9.07726,9.07726,0,0,0-7.00586,0,9.00562,9.00562,0,0,0,0,16.58643,9.07726,9.07726,0,0,0,7.00586,0,0.99994,0.99994,0,0,1,.7793,1.8418A10.93375,10.93375,0,0,1,37.5,48.5Z"/><path d="M43.02441,41.07324a0.99676,0.99676,0,0,1-.707-0.293,2.7283,2.7283,0,0,1-.80469-1.94238,1,1,0,1,1,2,0,0.74365,0.74365,0,0,0,.21875.52832A1,1,0,0,1,43.02441,41.07324Z"/><path d="M44.56934,41.71289a3.1621,3.1621,0,0,1-2.252-.93262,0.99989,0.99989,0,0,1,1.41406-1.41406,1.1766,1.1766,0,0,0,.83789.34668A1,1,0,0,1,44.56934,41.71289Z"/><path d="M44.56934,41.71289a1,1,0,0,1,0-2A1.71871,1.71871,0,0,0,45.793,39.207,0.99989,0.99989,0,0,1,47.207,40.62109,3.705,3.705,0,0,1,44.56934,41.71289Z"/><path d="M46.5,40.91406a1.00024,1.00024,0,0,1-.70752-1.707A2.397,2.397,0,0,0,46.5,37.5a1,1,0,0,1,2,0,4.38645,4.38645,0,0,1-1.29248,3.12109A0.99787,0.99787,0,0,1,46.5,40.91406Z"/></svg>