<svg id="Elements" xmlns="http://www.w3.org/2000/svg" viewBox="0 0 75 75"><title>alo_service</title><path d="M43.37109,39.86914a0.99928,0.99928,0,0,1-.707-0.293l-3.002-3.002L37.9834,38.25293a2.41134,2.41134,0,0,1-3.41113-3.40918l5.335-5.334a5.0333,5.0333,0,1,1,7.11816,7.11816l-2.94727,2.94824A0.99928,0.99928,0,0,1,43.37109,39.86914Zm-3.709-5.709a0.99676,0.99676,0,0,1,.707.293l3.002,3.002,2.24023-2.24121a3.03352,3.03352,0,0,0-4.29-4.29h0l-5.334,5.333a0.41156,0.41156,0,0,0,.582.582l2.38574-2.38574A0.99676,0.99676,0,0,1,39.66211,34.16016Zm0.95215-3.94336h0Z"/><path d="M35.38477,47.29688a2.34018,2.34018,0,0,1-2.30762-1.9375A2.33835,2.33835,0,0,1,31.17578,43.46a2.34442,2.34442,0,0,1-1.252-3.96777l1.33105-1.33008a0.99989,0.99989,0,0,1,1.41406,1.41406l-1.33105,1.33008a0.343,0.343,0,0,0-.001.48633,0.29064,0.29064,0,0,0,.4873.002l1.332-1.33105a0.99989,0.99989,0,1,1,1.41406,1.41406l-1.33105,1.33008a0.34492,0.34492,0,1,0,.48828.4873l1.33008-1.33008a0.99989,0.99989,0,1,1,1.41406,1.41406L35.1416,44.709a0.34492,0.34492,0,1,0,.48828.4873l1.3291-1.33008A0.99989,0.99989,0,0,1,38.373,45.28027L37.043,46.61133A2.33943,2.33943,0,0,1,35.38477,47.29688Z"/><path d="M39.94727,47.2959A2.33537,2.33537,0,0,1,38.291,46.6123L27.97461,36.29492a5.0333,5.0333,0,1,1,7.11816-7.11816L38.373,32.457A0.99989,0.99989,0,0,1,36.959,33.87109l-3.28027-3.28027a3.10446,3.10446,0,0,0-4.29,0,3.03309,3.03309,0,0,0,0,4.29L39.7041,45.19727a0.34492,0.34492,0,1,0,.4873-0.48828l-1.33105-1.33008a0.99989,0.99989,0,0,1,1.41406-1.41406l1.33105,1.33008a0.29061,0.29061,0,0,0,.48633.001,0.34539,0.34539,0,0,0,.001-0.48828L40.7627,41.47754a0.99989,0.99989,0,0,1,1.41406-1.41406l1.33008,1.33008a0.29061,0.29061,0,0,0,.48633.001,0.34306,0.34306,0,0,0,.001-0.48828l-1.33008-1.33008a0.99989,0.99989,0,0,1,1.41406-1.41406l1.33008,1.33008a2.34645,2.34645,0,0,1-1.249,3.96777,2.35213,2.35213,0,0,1-1.90332,1.90137A2.33909,2.33909,0,0,1,39.94727,47.2959Z"/></svg>