<svg id="Elements" xmlns="http://www.w3.org/2000/svg" viewBox="0 0 75 75"><title>alo_service</title><path d="M37.5,31.8335a2.66675,2.66675,0,1,1,2.667-2.667A2.66986,2.66986,0,0,1,37.5,31.8335Zm0-3.3335a0.66675,0.66675,0,1,0,.667.6665A0.66715,0.66715,0,0,0,37.5,28.5Z"/><path d="M37.5,48.5A3.50425,3.50425,0,0,1,34,45V38.44971l-3.58789-3.58789a2.66648,2.66648,0,0,1,0-3.77148,2.73215,2.73215,0,0,1,3.77148,0l1.76758,1.76807h3.09766l1.76758-1.76758a2.66667,2.66667,0,1,1,3.77148,3.771L41,38.44971V45A3.50425,3.50425,0,0,1,37.5,48.5ZM32.29785,32.30957a0.66637,0.66637,0,0,0-.47168,1.1377L35.707,37.32861a1.00013,1.00013,0,0,1,.293.707V45a1.5,1.5,0,0,0,3,0V38.03564a1.00013,1.00013,0,0,1,.293-0.707l3.88086-3.88086a0.66671,0.66671,0,1,0-.94336-0.94238l-2.06055,2.06006a0.99928,0.99928,0,0,1-.707.293H35.53711a0.99928,0.99928,0,0,1-.707-0.293l-2.06055-2.06055A0.66342,0.66342,0,0,0,32.29785,32.30957Z"/></svg>