<svg xmlns="http://www.w3.org/2000/svg" viewBox="0 0 80 80"><title>alo_icon_system_navigation-small</title><path d="M40,80A40,40,0,1,1,80,40,40.04552,40.04552,0,0,1,40,80ZM40,3A37,37,0,1,0,77,40,37.04161,37.04161,0,0,0,40,3Z"/><path d="M40,60.75A20.75,20.75,0,1,1,60.75,40,20.77374,20.77374,0,0,1,40,60.75Zm0-38.5A17.75,17.75,0,1,0,57.75,40,17.77014,17.77014,0,0,0,40,22.25Z"/><path d="M65.667,41.5H46.417a1.5,1.5,0,0,1,0-3h19.25a1.5,1.5,0,0,1,0,3Z"/><path d="M33.583,41.5H14.333a1.5,1.5,0,1,1,0-3h19.25a1.5,1.5,0,0,1,0,3Z"/><path d="M58.14941,59.64893a1.49514,1.49514,0,0,1-1.06055-.43945L43.47656,45.59814a1.49984,1.49984,0,0,1,2.12109-2.12109L59.21,57.08838a1.5,1.5,0,0,1-1.06055,2.56055Z"/><path d="M35.46289,36.96338a1.49514,1.49514,0,0,1-1.06055-.43945L20.79,22.91162a1.49984,1.49984,0,0,1,2.12109-2.12109l13.6123,13.6123a1.5,1.5,0,0,1-1.06055,2.56055Z"/><path d="M40,67.1665a1.50007,1.50007,0,0,1-1.5-1.5v-19.25a1.5,1.5,0,0,1,3,0v19.25A1.50007,1.50007,0,0,1,40,67.1665Z"/><path d="M40,35.0835a1.50007,1.50007,0,0,1-1.5-1.5v-19.25a1.5,1.5,0,1,1,3,0v19.25A1.50007,1.50007,0,0,1,40,35.0835Z"/><path d="M21.85059,59.64893A1.5,1.5,0,0,1,20.79,57.08838l13.6123-13.61133a1.49984,1.49984,0,0,1,2.12109,2.12109L22.91113,59.20947A1.49514,1.49514,0,0,1,21.85059,59.64893Z"/><path d="M44.53711,36.96338a1.5,1.5,0,0,1-1.06055-2.56055l13.6123-13.6123A1.49984,1.49984,0,0,1,59.21,22.91162l-13.6123,13.6123A1.49514,1.49514,0,0,1,44.53711,36.96338Z"/><path d="M46.417,41.5a1.50007,1.50007,0,0,1-1.5-1.5,4.88562,4.88562,0,0,0-1.44043-3.47607,1.49984,1.49984,0,0,1,2.12109-2.12109A7.86226,7.86226,0,0,1,47.917,40,1.50007,1.50007,0,0,1,46.417,41.5Z"/><path d="M40,47.9165a7.86314,7.86314,0,0,1-5.59766-2.31836,1.49984,1.49984,0,0,1,2.12109-2.12109A4.88532,4.88532,0,0,0,40,44.9165a1.5,1.5,0,0,1,0,3Z"/><path d="M44.53711,46.0376a1.5,1.5,0,0,1-1.06055-2.56055A4.887,4.887,0,0,0,44.917,40a1.5,1.5,0,0,1,3,0,7.86283,7.86283,0,0,1-2.31934,5.59814A1.49514,1.49514,0,0,1,44.53711,46.0376Z"/><path d="M35.46289,46.0376a1.49514,1.49514,0,0,1-1.06055-.43945A7.86283,7.86283,0,0,1,32.083,40a1.5,1.5,0,0,1,3,0,4.887,4.887,0,0,0,1.44043,3.47705,1.5,1.5,0,0,1-1.06055,2.56055Z"/><path d="M44.53711,36.96338a1.49583,1.49583,0,0,1-1.06152-.43994A4.87983,4.87983,0,0,0,40,35.0835a1.5,1.5,0,0,1,0-3,7.86275,7.86275,0,0,1,5.59863,2.31982,1.5,1.5,0,0,1-1.06152,2.56006Z"/><path d="M33.583,41.5a1.50007,1.50007,0,0,1-1.5-1.5,7.86226,7.86226,0,0,1,2.31934-5.59717,1.49984,1.49984,0,0,1,2.12109,2.12109A4.88562,4.88562,0,0,0,35.083,40,1.50007,1.50007,0,0,1,33.583,41.5Z"/><path d="M40,47.9165a1.5,1.5,0,0,1,0-3,4.88532,4.88532,0,0,0,3.47656-1.43945,1.49984,1.49984,0,0,1,2.12109,2.12109A7.86314,7.86314,0,0,1,40,47.9165Z"/><path d="M35.46289,36.96338a1.5,1.5,0,0,1-1.06152-2.56006A7.86275,7.86275,0,0,1,40,32.0835a1.5,1.5,0,0,1,0,3,4.87983,4.87983,0,0,0-3.47559,1.43994A1.49583,1.49583,0,0,1,35.46289,36.96338Z"/></svg>