<svg xmlns="http://www.w3.org/2000/svg" viewBox="0 0 80 80"><title>alo_icon_system_join-small</title><path d="M40,80A40,40,0,1,1,80,40,40.04583,40.04583,0,0,1,40,80ZM40,3A37,37,0,1,0,77,40,37.04129,37.04129,0,0,0,40,3Z"/><path d="M48.34082,32.5166a6.6333,6.6333,0,1,1,6.63379-6.63281A6.64048,6.64048,0,0,1,48.34082,32.5166Zm0-10.2666a3.6333,3.6333,0,1,0,3.63379,3.63379A3.6374,3.6374,0,0,0,48.34082,22.25Z"/><path d="M31.6582,32.5166A6.6333,6.6333,0,1,1,38.291,25.88379,6.64068,6.64068,0,0,1,31.6582,32.5166Zm0-10.2666A3.6333,3.6333,0,1,0,35.291,25.88379,3.63761,3.63761,0,0,0,31.6582,22.25Z"/><path d="M48.34082,60.75a6.32,6.32,0,0,1-6.3125-6.3125V45.34961H37.9707V54.4375a6.3125,6.3125,0,0,1-12.625,0V45.34961H23.958a4.708,4.708,0,0,1,0-9.416H56.041a4.708,4.708,0,1,1,0,9.416h-1.3877V54.4375A6.32,6.32,0,0,1,48.34082,60.75ZM36.4707,42.34961h7.05762a1.50039,1.50039,0,0,1,1.5,1.5V54.4375a3.3125,3.3125,0,0,0,6.625,0V43.84961a1.50039,1.50039,0,0,1,1.5-1.5H56.041a1.708,1.708,0,1,0,0-3.416H23.958a1.708,1.708,0,0,0,0,3.416h2.8877a1.50039,1.50039,0,0,1,1.5,1.5V54.4375a3.3125,3.3125,0,0,0,6.625,0V43.84961A1.50039,1.50039,0,0,1,36.4707,42.34961Z"/></svg>