<svg xmlns="http://www.w3.org/2000/svg" viewBox="0 0 80 80"><title>alo_icon_system_editorial-small</title><path d="M40,80A40,40,0,1,1,80,40,40.04552,40.04552,0,0,1,40,80ZM40,3A37,37,0,1,0,77,40,37.04161,37.04161,0,0,0,40,3Z"/><path d="M30.84717,28.667a1.50018,1.50018,0,0,1-.22266-2.9834l21.1748-3.209a1.50031,1.50031,0,0,1,.44922,2.9668l-21.1748,3.209A1.62375,1.62375,0,0,1,30.84717,28.667Z"/><path d="M52.02588,51.125a1.62376,1.62376,0,0,1-.22656-.0166l-21.1748-3.208a1.50031,1.50031,0,0,1,.44922-2.9668l21.1748,3.208a1.50018,1.50018,0,0,1-.22266,2.9834Z"/><path d="M42.397,34.68262a1.49993,1.49993,0,0,1-.18408-2.98828l9.625-1.20312A1.49986,1.49986,0,1,1,52.21,33.46777L42.585,34.6709A1.52993,1.52993,0,0,1,42.397,34.68262Z"/><path d="M52.02588,43.10449a1.52993,1.52993,0,0,1-.188-.01172l-9.625-1.20312a1.49986,1.49986,0,1,1,.37207-2.97656l9.625,1.20313a1.49993,1.49993,0,0,1-.18408,2.98828Z"/><path d="M30.84912,47.917a11.125,11.125,0,0,1,0-22.25,1.50007,1.50007,0,0,1,1.5,1.5v19.25A1.50007,1.50007,0,0,1,30.84912,47.917Zm-1.5-19.11133a8.12619,8.12619,0,0,0,0,15.97266Z"/><path d="M59.72412,38.292h-7.7002a1.5,1.5,0,0,1,0-3h7.7002a1.5,1.5,0,0,1,0,3Z"/><path d="M41.75732,60.75H34.05762a1.50007,1.50007,0,0,1-1.5-1.5V46.875a1.5,1.5,0,0,1,3,0V57.75h4.69971V48.06934a1.5,1.5,0,0,1,3,0V59.25A1.50007,1.50007,0,0,1,41.75732,60.75Z"/><path d="M52.02393,54.333a1.50007,1.50007,0,0,1-1.5-1.5V20.75a1.5,1.5,0,0,1,3,0V52.833A1.50007,1.50007,0,0,1,52.02393,54.333Z"/></svg>