<svg id="Elements" xmlns="http://www.w3.org/2000/svg" viewBox="0 0 75 75"><title>alo_service</title><path d="M44.1665,41.833a1,1,0,0,1-1-1V34.1665a5.6665,5.6665,0,0,0-11.333,0V40.833a1,1,0,0,1-2,0V34.1665a7.6665,7.6665,0,0,1,15.333,0V40.833A1,1,0,0,1,44.1665,41.833Z"/><path d="M44.1665,45.1665H30.8335a2.66675,2.66675,0,1,1,0-5.3335h13.333A2.66675,2.66675,0,1,1,44.1665,45.1665ZM30.8335,41.833a0.66675,0.66675,0,1,0,0,1.3335h13.333a0.66675,0.66675,0,1,0,0-1.3335H30.8335Z"/><path d="M37.5,48.5a4.339,4.339,0,0,1-4.334-4.334,1,1,0,0,1,2,0,2.334,2.334,0,0,0,4.668,0,1,1,0,0,1,2,0A4.339,4.339,0,0,1,37.5,48.5Z"/><path d="M40.83252,35.1665a1,1,0,0,1-1-1A2.33519,2.33519,0,0,0,37.5,31.834a1,1,0,0,1,0-2,4.33717,4.33717,0,0,1,4.33252,4.33252A1,1,0,0,1,40.83252,35.1665Z"/></svg>