<svg id="Elements" xmlns="http://www.w3.org/2000/svg" viewBox="0 0 75 75"><title>alo_service</title><path d="M45.5,48.5h-16a3.00328,3.00328,0,0,1-3-3v-14a3.00328,3.00328,0,0,1,3-3h16a3.00328,3.00328,0,0,1,3,3v14A3.00328,3.00328,0,0,1,45.5,48.5Zm-16-18a1.0013,1.0013,0,0,0-1,1v14a1.0013,1.0013,0,0,0,1,1h16a1.0013,1.0013,0,0,0,1-1v-14a1.0013,1.0013,0,0,0-1-1h-16Z"/><path d="M32.50391,30.5a1,1,0,0,1-1-1v-2a1,1,0,0,1,2,0v2A1,1,0,0,1,32.50391,30.5Z"/><path d="M42.50391,30.5a1,1,0,0,1-1-1v-2a1,1,0,0,1,2,0v2A1,1,0,0,1,42.50391,30.5Z"/><path d="M47.5,36.5h-20a1,1,0,0,1,0-2h20A1,1,0,0,1,47.5,36.5Z"/><path d="M47.5,40.5h-20a1,1,0,0,1,0-2h20A1,1,0,0,1,47.5,40.5Z"/><path d="M47.5,44.5h-20a1,1,0,0,1,0-2h20A1,1,0,0,1,47.5,44.5Z"/></svg>