<svg xmlns="http://www.w3.org/2000/svg" viewBox="0 0 80 80"><title>alo_icon_system_web-small</title><path d="M40,80A40,40,0,1,1,80,40,40.04583,40.04583,0,0,1,40,80ZM40,3A37,37,0,1,0,77,40,37.04161,37.04161,0,0,0,40,3Z"/><path d="M4.25879,55.73145a1.49988,1.49988,0,0,1-.48828-2.918,27.95451,27.95451,0,0,0,18.876-26.40186,27.63482,27.63482,0,0,0-5.8457-17.03613,1.49987,1.49987,0,1,1,2.373-1.835,30.60985,30.60985,0,0,1,6.47266,18.87109A30.95419,30.95419,0,0,1,4.74707,55.64941,1.4986,1.4986,0,0,1,4.25879,55.73145Z"/><path d="M17.35254,25.647A39.88072,39.88072,0,0,1,5.3584,23.80469a1.49983,1.49983,0,1,1,.90039-2.86133A36.90261,36.90261,0,0,0,17.35254,22.647,36.90335,36.90335,0,0,0,50.21094,2.583,1.49988,1.49988,0,1,1,52.875,3.96191,39.89224,39.89224,0,0,1,17.35254,25.647Z"/><path d="M41.64258,79.917a1.49844,1.49844,0,0,1-1.47949-1.76074,36.7213,36.7213,0,0,0,.60156-6.4502,36.92436,36.92436,0,0,0-1.49512-10.32324,1.50012,1.50012,0,1,1,2.88086-.83789,39.91933,39.91933,0,0,1,1.61426,11.16113,39.81145,39.81145,0,0,1-.64648,6.97168A1.50106,1.50106,0,0,1,41.64258,79.917Z"/><path d="M37.22266,54.22754a1.49945,1.49945,0,0,1-1.30469-.75781A37.11,37.11,0,0,0,3.76465,34.70605c-.30762,0-.61035.022-.91309.04248-.2207.01514-.44141.02979-.66406.03906a1.49984,1.49984,0,1,1-.125-2.99707c.19629-.0083.39063-.022.585-.03516.37012-.02539.74023-.04932,1.11719-.04932a40.11777,40.11777,0,0,1,34.76074,20.2793,1.4999,1.4999,0,0,1-1.30273,2.24219Z"/><path d="M64.63477,71.05566a1.49553,1.49553,0,0,1-1.13574-.51953,46.79152,46.79152,0,0,1-11.377-29.79443,1.50036,1.50036,0,0,1,1.47656-1.52393,1.52414,1.52414,0,0,1,1.52344,1.47607A43.78771,43.78771,0,0,0,65.76855,68.5752a1.5,1.5,0,0,1-1.13379,2.48047Z"/><path d="M56.917,24.58838a1.50059,1.50059,0,0,1-1.38867-2.06543A47.00774,47.00774,0,0,1,63.499,9.46338a1.5,1.5,0,0,1,2.26953,1.96191,43.9854,43.9854,0,0,0-7.46094,12.22754A1.5011,1.5011,0,0,1,56.917,24.58838Z"/><path d="M39.23438,62.76172a5.99693,5.99693,0,0,1-2.68945-11.373,1.50019,1.50019,0,1,1,1.35352,2.67773,3.00119,3.00119,0,0,0-1.69336,2.666,3.03329,3.03329,0,0,0,3.0293,3.0293,2.94162,2.94162,0,0,0,.98047-.21387,1.50008,1.50008,0,1,1,.99023,2.832A5.93787,5.93787,0,0,1,39.23438,62.76172Z"/><path d="M40.71094,62.46387a1.49991,1.49991,0,0,1-.49414-2.916,2.97176,2.97176,0,0,0,2.04688-2.81543,3.03329,3.03329,0,0,0-3.0293-3.0293,2.95894,2.95894,0,0,0-1.33594.36328,1.50019,1.50019,0,1,1-1.35352-2.67773,5.875,5.875,0,0,1,2.68945-.68555,5.99975,5.99975,0,0,1,1.9707,11.67676A1.48462,1.48462,0,0,1,40.71094,62.46387Z"/><path d="M53.623,42.21777c-.041,0-.082-.002-.123-.00488a10.536,10.536,0,0,1,.84863-21.03955,10.337,10.337,0,0,1,2.99609.47656,1.5,1.5,0,1,1-.85352,2.876,7.45762,7.45762,0,0,0-2.14258-.35254,7.5678,7.5678,0,0,0-7.55957,7.55859,7.48675,7.48675,0,0,0,6.95313,7.49072,1.5,1.5,0,0,1-.11914,2.99512Z"/><path d="M54.34863,42.291a4.77575,4.77575,0,0,1-.65039-.05371c-.06543-.00977-.13184-.01953-.19922-.02441a1.50017,1.50017,0,0,1,.24609-2.99023c.12109.01025.24023.02588.35938.042a1.83017,1.83017,0,0,0,.24414.02637,7.56738,7.56738,0,0,0,7.55859-7.55908,7.4913,7.4913,0,0,0-5.417-7.20654,1.49979,1.49979,0,1,1,.85547-2.875A10.53442,10.53442,0,0,1,54.34863,42.291Z"/></svg>