<svg xmlns="http://www.w3.org/2000/svg" viewBox="0 0 80 80"><title>alo_icon_system_new-small</title><path d="M40,80A40,40,0,1,1,80,40,40.04552,40.04552,0,0,1,40,80ZM40,3A37,37,0,1,0,77,40,37.04161,37.04161,0,0,0,40,3Z"/><path d="M49.625,38.292a1.50007,1.50007,0,0,1-1.5-1.5A8.13409,8.13409,0,0,0,40,28.667a1.5,1.5,0,0,1,0-3A11.13737,11.13737,0,0,1,51.125,36.792,1.50007,1.50007,0,0,1,49.625,38.292Z"/><path d="M56.0415,46.69629a1.50007,1.50007,0,0,1-1.5-1.5V36.792a14.54175,14.54175,0,1,0-29.0835,0v8.4043a1.5,1.5,0,0,1-3,0V36.792a17.54175,17.54175,0,1,1,35.0835,0v8.4043A1.50007,1.50007,0,0,1,56.0415,46.69629Z"/><path d="M40,60.75a7.92664,7.92664,0,0,1-7.918-7.918,1.5,1.5,0,0,1,3,0,4.91772,4.91772,0,1,0,9.83545,0,1.5,1.5,0,0,1,3,0A7.92654,7.92654,0,0,1,40,60.75Z"/><path d="M55.3999,54.332H24.59961a5.3501,5.3501,0,0,1,0-10.7002H55.3999a5.3501,5.3501,0,1,1,0,10.7002Zm-30.80029-7.7002a2.3501,2.3501,0,0,0,0,4.7002H55.3999a2.3501,2.3501,0,1,0,0-4.7002Z"/></svg>