<svg xmlns="http://www.w3.org/2000/svg" viewBox="0 0 80 80"><title>alo_icon_system_meet-small</title><path d="M40,80A40,40,0,1,1,80,40,40.04552,40.04552,0,0,1,40,80ZM40,3A37,37,0,1,0,77,40,37.04161,37.04161,0,0,0,40,3Z"/><path d="M36.53418,44.416a5.34766,5.34766,0,0,1-3.7832-9.13086L43.11865,24.91895A9.26455,9.26455,0,1,1,56.22119,38.02051L52.3623,41.87988a1.49945,1.49945,0,0,1-2.12109,0L45.76465,37.4043l-5.44727,5.44727A5.33362,5.33362,0,0,1,36.53418,44.416ZM49.66992,25.20508a6.22379,6.22379,0,0,0-4.43018,1.835h0L34.87256,37.40625a2.3504,2.3504,0,0,0,3.32373,3.32422l6.50781-6.50781a1.49945,1.49945,0,0,1,2.12109,0l4.47656,4.47559,2.79834-2.79883a6.26465,6.26465,0,0,0-4.43018-10.69434Zm-5.49072.77441h0Z"/><path d="M34.11328,58.43359a4.07525,4.07525,0,0,1-2.89062-1.19531L23.90186,49.917a4.092,4.092,0,0,1,0-5.78125l4.37646-4.377a1.49984,1.49984,0,0,1,2.12109,2.12109l-4.37646,4.377a1.08952,1.08952,0,0,0,0,1.53906l7.3208,7.32129a1.091,1.091,0,0,0,1.53955,0l4.37646-4.377a1.49984,1.49984,0,0,1,2.12109,2.12109l-4.37646,4.377A4.07554,4.07554,0,0,1,34.11328,58.43359Z"/><path d="M46.52686,58.43359a4.07442,4.07442,0,0,1-2.89062-1.19531L23.77881,37.38086A9.26489,9.26489,0,0,1,36.88135,24.27832l4.49951,4.499a1.49984,1.49984,0,1,1-2.12109,2.12109l-4.49951-4.499a6.26521,6.26521,0,0,0-8.86035,8.86035L45.75732,55.11719a1.091,1.091,0,0,0,1.53955,0l7.3208-7.32129a1.08923,1.08923,0,0,0,0-1.53906l-4.37646-4.376a1.49984,1.49984,0,0,1,2.12109-2.12109l4.37646,4.376a4.092,4.092,0,0,1,0,5.78125L49.418,57.23828A4.07637,4.07637,0,0,1,46.52686,58.43359Z"/></svg>