<svg id="Elements" xmlns="http://www.w3.org/2000/svg" viewBox="0 0 75 75"><title>alo_service</title><path d="M39.605,39.02637a1,1,0,0,1,0-2,3.21448,3.21448,0,0,0,3.21094-3.21045,1,1,0,0,1,2,0A5.21646,5.21646,0,0,1,39.605,39.02637Z"/><path d="M43.81592,34.81592a1,1,0,0,1-1-1,5.31592,5.31592,0,0,0-10.63184,0,1,1,0,0,1-2,0,7.31592,7.31592,0,0,1,14.63184,0A1,1,0,0,1,43.81592,34.81592Z"/><path d="M37.5,41.73682a1,1,0,0,1-1-1V40.13135a3.10873,3.10873,0,0,1,3.105-3.105,1,1,0,0,1,0,2,1.10612,1.10612,0,0,0-1.105,1.105v0.60547A1,1,0,0,1,37.5,41.73682Z"/><path d="M37.5,48.5a3,3,0,1,1,3-3A3.00328,3.00328,0,0,1,37.5,48.5Zm0-4a1,1,0,1,0,1,1A1.0013,1.0013,0,0,0,37.5,44.5Z"/></svg>