<svg xmlns="http://www.w3.org/2000/svg" viewBox="0 0 80 80"><title>alo_icon_system_calendar-small</title><path d="M54.1167,60.75H25.8833A6.64068,6.64068,0,0,1,19.25,54.1167V29.7334a6.64068,6.64068,0,0,1,6.6333-6.6333H54.1167A6.64068,6.64068,0,0,1,60.75,29.7334V54.1167A6.64068,6.64068,0,0,1,54.1167,60.75ZM25.8833,26.1001A3.6374,3.6374,0,0,0,22.25,29.7334V54.1167A3.6374,3.6374,0,0,0,25.8833,57.75H54.1167A3.6374,3.6374,0,0,0,57.75,54.1167V29.7334a3.6374,3.6374,0,0,0-3.6333-3.6333Z"/><path d="M30.38281,26.1001a1.49976,1.49976,0,0,1-1.5-1.5V20.75a1.5,1.5,0,0,1,3,0v3.8501A1.49976,1.49976,0,0,1,30.38281,26.1001Z"/><path d="M49.63281,26.1001a1.49976,1.49976,0,0,1-1.5-1.5V20.75a1.5,1.5,0,0,1,3,0v3.8501A1.49976,1.49976,0,0,1,49.63281,26.1001Z"/><path d="M59.25,37.6499H20.75a1.5,1.5,0,0,1,0-3h38.5a1.5,1.5,0,0,1,0,3Z"/><path d="M59.25,45.3501H20.75a1.5,1.5,0,0,1,0-3h38.5a1.5,1.5,0,0,1,0,3Z"/><path d="M59.25,53.0498H20.75a1.5,1.5,0,0,1,0-3h38.5a1.5,1.5,0,0,1,0,3Z"/><path d="M40,80A40,40,0,1,1,80,40,40.0452,40.0452,0,0,1,40,80ZM40,3A37,37,0,1,0,77,40,37.04192,37.04192,0,0,0,40,3Z"/></svg>