<?xml version="1.0" encoding="utf-8"?>
<!-- Generator: Adobe Illustrator 20.0.0, SVG Export Plug-In . SVG Version: 6.00 Build 0)  -->
<svg version="1.0" id="Layer_1" xmlns="http://www.w3.org/2000/svg" xmlns:xlink="http://www.w3.org/1999/xlink" x="0px" y="0px"
	 viewBox="0 0 120 120" style="enable-background:new 0 0 120 120;" xml:space="preserve">
<g>
	<path d="M74.9,47.2h13.6c0.8,0,1.5-0.7,1.5-1.5V31.5c0-0.8-0.7-1.5-1.5-1.5H74.2c-0.8,0-1.5,0.7-1.5,1.5v13.6L60,57.9l-8.2-8.2
		c1.6-2.1,2.6-4.7,2.6-7.5c0-6.7-5.5-12.2-12.2-12.2S30,35.5,30,42.2s5.5,12.2,12.2,12.2c2.8,0,5.4-1,7.5-2.6l8.2,8.2l-4.2,4.2
		c-3.4-2.4-8-2-11,1L32.5,75.3c-1.6,1.6-2.5,3.8-2.5,6.1c0,4.8,3.9,8.6,8.6,8.6c2.3,0,4.5-0.9,6.1-2.5l10.1-10.1c0,0,0,0,0,0
		c3-3,3.3-7.7,1-11l4.2-4.2l8.2,8.2c-3.7,4.8-3.4,11.7,1,16.1c0,0,0,0,0,0l3.1,3.1c0.3,0.3,0.7,0.4,1.1,0.4c0.4,0,0.8-0.2,1.1-0.4
		c0.6-0.6,0.6-1.5,0-2.1l-3.1-3.1c0,0,0,0,0,0c0,0,0,0,0,0c-3.6-3.6-3.6-9.4,0-13c3.6-3.6,9.4-3.6,13,0l3.1,3.1
		c0.3,0.3,0.7,0.4,1.1,0.4c0.4,0,0.8-0.2,1.1-0.4c0.6-0.6,0.6-1.5,0-2.1l-3.1-3.1c-4.4-4.4-11.3-4.7-16.1-1L62.1,60L74.9,47.2z
		 M75.8,33H87v11.2H75.8V33z M33,42.2c0-5.1,4.1-9.2,9.2-9.2c5.1,0,9.2,4.1,9.2,9.2c0,5.1-4.1,9.2-9.2,9.2S33,47.3,33,42.2z
		 M52.7,75.3L42.6,85.4c-2.2,2.2-5.8,2.2-8,0s-2.2-5.8,0-8l10.1-10.1c1.1-1.1,2.5-1.6,4-1.6c1.5,0,2.9,0.6,4,1.6
		C54.9,69.5,54.9,73.1,52.7,75.3z"/>
</g>
</svg>
