<svg id="Elements" xmlns="http://www.w3.org/2000/svg" viewBox="0 0 75 75"><title>alo_activities</title><path d="M37.5,53.5a16,16,0,1,1,16-16A16.01833,16.01833,0,0,1,37.5,53.5Zm0-30a14,14,0,1,0,14,14A14.01573,14.01573,0,0,0,37.5,23.5Z"/><g id="_Group_" data-name="&lt;Group&gt;"><path d="M34.23047,38.30762l-0.0415-.001a0.99962,0.99962,0,0,1-.72168-0.353l-4.23047-5a1.00006,1.00006,0,0,1,.05615-1.353L31.60059,29.293a1.00012,1.00012,0,0,1,1.353-.05615l5,4.231a0.99989,0.99989,0,0,1,.061,1.47021L34.9375,38.01465A0.99977,0.99977,0,0,1,34.23047,38.30762Zm-2.87256-5.94336L34.292,35.832l1.54-1.53955-3.46777-2.93457Z"/><path d="M40.23047,43.38477a0.99955,0.99955,0,0,1-.707-0.293l-3.23047-3.231a0.99964,0.99964,0,0,1,0-1.41406l8-8a1,1,0,0,1,1.62744,1.09814l-4.76953,11.231a0.999,0.999,0,0,1-.72949.59033A0.973,0.973,0,0,1,40.23047,43.38477Zm-1.81641-4.231,1.47559,1.47559,2.17822-5.12891Z"/><path d="M45,46a0.99676,0.99676,0,0,1-.707-0.293l-4.12744-4.127A0.99989,0.99989,0,0,1,41.57959,40.166L45.707,44.293A1,1,0,0,1,45,46Z"/><path d="M38.07666,39.07715a0.99676,0.99676,0,0,1-.707-0.293L35.062,36.47607A0.99989,0.99989,0,0,1,36.47607,35.062l2.30762,2.30811A1,1,0,0,1,38.07666,39.07715Z"/><path d="M31.15381,46a1,1,0,0,1-.707-1.707L36.293,38.44678A0.99989,0.99989,0,0,1,37.707,39.86084L31.86084,45.707A0.99676,0.99676,0,0,1,31.15381,46Z"/></g></svg>