<svg id="Elements" xmlns="http://www.w3.org/2000/svg" viewBox="0 0 75 75"><title>alo_activities</title><path d="M37.5,53.5a16,16,0,1,1,16-16A16.01833,16.01833,0,0,1,37.5,53.5Zm0-30a14,14,0,1,0,14,14A14.01573,14.01573,0,0,0,37.5,23.5Z"/><g id="_Group_" data-name="&lt;Group&gt;"><path d="M44.999,46a0.997,0.997,0,0,1-.59961-0.2002,5.3278,5.3278,0,0,0-6.29883,0,1.0002,1.0002,0,1,1-1.20117-1.59961,7.3617,7.3617,0,0,1,8.70117,0A1,1,0,0,1,44.999,46Z"/><path d="M37.499,46a0.997,0.997,0,0,1-.59961-0.2002,5.3278,5.3278,0,0,0-6.29883,0,1.0002,1.0002,0,1,1-1.20117-1.59961,7.3617,7.3617,0,0,1,8.70117,0A1,1,0,0,1,37.499,46Z"/><path d="M44.999,32.25a0.997,0.997,0,0,1-.59961-0.2002,5.3278,5.3278,0,0,0-6.29883,0,1.0002,1.0002,0,1,1-1.20117-1.59961,7.3617,7.3617,0,0,1,8.70117,0A1,1,0,0,1,44.999,32.25Z"/><path d="M41.93945,37.26514a1.03135,1.03135,0,0,1-.167-0.01367,3.18,3.18,0,0,0-1.04492,0,1.0002,1.0002,0,0,1-.332-1.97266,5.28167,5.28167,0,0,1,1.709,0A1.00009,1.00009,0,0,1,41.93945,37.26514Z"/><path d="M40.56055,39.76514a1.00009,1.00009,0,0,1-.165-1.98633A5.2098,5.2098,0,0,1,41.25,37.7085a1,1,0,0,1,0,2,3.12619,3.12619,0,0,0-.52246.043A1.03135,1.03135,0,0,1,40.56055,39.76514Z"/><path d="M34.43945,34.76514a1.03135,1.03135,0,0,1-.167-0.01367,3.18,3.18,0,0,0-1.04492,0,1.0002,1.0002,0,0,1-.332-1.97266,5.28167,5.28167,0,0,1,1.709,0A1.00009,1.00009,0,0,1,34.43945,34.76514Z"/><path d="M34.43945,39.76514a1.03135,1.03135,0,0,1-.167-0.01367,3.18,3.18,0,0,0-1.04492,0,1.0002,1.0002,0,0,1-.332-1.97266,5.28167,5.28167,0,0,1,1.709,0A1.00009,1.00009,0,0,1,34.43945,39.76514Z"/><path d="M34.43945,37.26514a1.03135,1.03135,0,0,1-.167-0.01367,3.18,3.18,0,0,0-1.04492,0,1.0002,1.0002,0,0,1-.332-1.97266,5.28167,5.28167,0,0,1,1.709,0A1.00009,1.00009,0,0,1,34.43945,37.26514Z"/><path d="M41.93945,34.76514a1.03135,1.03135,0,0,1-.167-0.01367,3.18,3.18,0,0,0-1.04492,0,1.0002,1.0002,0,0,1-.332-1.97266,5.28167,5.28167,0,0,1,1.709,0A1.00009,1.00009,0,0,1,41.93945,34.76514Z"/><path d="M37.499,32.25a0.997,0.997,0,0,1-.59961-0.2002,5.3278,5.3278,0,0,0-6.29883,0,1.0002,1.0002,0,1,1-1.20117-1.59961,7.3617,7.3617,0,0,1,8.70117,0A1,1,0,0,1,37.499,32.25Z"/><path d="M37.5,46a0.99974,0.99974,0,0,1-1-1V31.25a1,1,0,0,1,2,0V45A0.99974,0.99974,0,0,1,37.5,46Z"/><path d="M45,46a0.99974,0.99974,0,0,1-1-1V31.25a1,1,0,0,1,2,0V45A0.99974,0.99974,0,0,1,45,46Z"/><path d="M30,46a0.99974,0.99974,0,0,1-1-1V31.25a1,1,0,0,1,2,0V45A0.99974,0.99974,0,0,1,30,46Z"/></g></svg>