<svg xmlns="http://www.w3.org/2000/svg" viewBox="0 0 60 60.00625"><title>alo_activities-recipes-medium</title><path d="M45.3208,60.00625H14.6792A5.185,5.185,0,0,1,9.5,54.82656V30.00625a1.50007,1.50007,0,0,1,1.5-1.5H49a1.50007,1.50007,0,0,1,1.5,1.5V54.82656A5.185,5.185,0,0,1,45.3208,60.00625ZM12.5,31.50625V54.82656a2.18171,2.18171,0,0,0,2.1792,2.17969H45.3208A2.18171,2.18171,0,0,0,47.5,54.82656V31.50625Z"/><path d="M11,36.25625H1.5a1.5,1.5,0,0,1,0-3H11a1.5,1.5,0,0,1,0,3Z"/><path d="M58.5,36.25625H49a1.5,1.5,0,0,1,0-3h9.5a1.5,1.5,0,0,1,0,3Z"/><path d="M11.32422,17.2582a1.498,1.498,0,0,1-1.29932-.75,11.00008,11.00008,0,0,1,19.05273-11A1.49947,1.49947,0,0,1,28.52881,7.557l-16.45459,9.5A1.49936,1.49936,0,0,1,11.32422,17.2582Zm8.21387-14.249a7.99844,7.99844,0,0,0-7.54248,10.62988L25.60742,5.77969A8.02388,8.02388,0,0,0,19.53809,3.00918Z"/><path d="M19.55176,31.50625a1.49828,1.49828,0,0,1-1.30029-.75l-8.22607-14.248a1.49982,1.49982,0,0,1,2.59766-1.5l8.22607,14.248a1.50011,1.50011,0,0,1-1.29736,2.25Z"/><path d="M40.89941,24.03652a4.71363,4.71363,0,0,1-2.39062-.62207c-3.61914-2.08984-3.519-8.56445.23193-15.06055C42.49121,1.85781,48.04736-1.46836,51.66748.62246c1.86621,1.07715,2.79346,3.35254,2.60986,6.40723a20.38592,20.38592,0,0,1-2.8418,8.65332C48.43994,20.87148,44.292,24.03652,40.89941,24.03652ZM49.26709,3.00234c-2.0376,0-5.43945,2.54-7.92871,6.85156-2.90723,5.03516-3.09961,9.94043-1.32959,10.96289,1.77295,1.02051,5.92188-1.59863,8.8291-6.63379A17.36557,17.36557,0,0,0,51.28271,6.85c.1084-1.80762-.30811-3.16406-1.11523-3.62988A1.78211,1.78211,0,0,0,49.26709,3.00234Z"/><path d="M34.70117,31.50625a1.50011,1.50011,0,0,1-1.29736-2.25L37.96,21.36562a1.49982,1.49982,0,0,1,2.59766,1.5l-4.55615,7.89063A1.49828,1.49828,0,0,1,34.70117,31.50625Z"/></svg>