<svg xmlns="http://www.w3.org/2000/svg" viewBox="0 0 60 59.99955"><title>alo_icon_activity_fitness-medium</title><path d="M58.5,45.74955H1.5a1.5,1.5,0,0,1,0-3h57a1.5,1.5,0,0,1,0,3Z"/><path d="M6.25,50.49955a1.50007,1.50007,0,0,1-1.5-1.5v-9.5a1.5,1.5,0,0,1,3,0v9.5A1.50007,1.50007,0,0,1,6.25,50.49955Z"/><path d="M53.75,50.49955a1.50007,1.50007,0,0,1-1.5-1.5v-9.5a1.5,1.5,0,0,1,3,0v9.5A1.50007,1.50007,0,0,1,53.75,50.49955Z"/><path d="M45.2002,59.99955a1.50007,1.50007,0,0,1-1.5-1.5v-28.5a1.5,1.5,0,1,1,3,0v28.5A1.50007,1.50007,0,0,1,45.2002,59.99955Z"/><path d="M14.7998,59.99955a1.50007,1.50007,0,0,1-1.5-1.5v-28.5a1.5,1.5,0,0,1,3,0v28.5A1.50007,1.50007,0,0,1,14.7998,59.99955Z"/><path d="M28.1792,12.50345a6.25293,6.25293,0,0,1-5.40283-9.37793A6.20656,6.20656,0,0,1,26.57129.2139h0A6.24986,6.24986,0,1,1,28.1792,12.50345Zm.00928-9.50293a3.24611,3.24611,0,0,0-.84082.11084h0a3.25008,3.25008,0,1,0,.84082-.11084Zm-1.229-1.33789h0Z"/><path d="M28.51758,27.333a1.50012,1.50012,0,0,1-1.44775-1.1123L22.15234,7.8682a1.49984,1.49984,0,1,1,2.89746-.77637l4.91748,18.35254A1.50206,1.50206,0,0,1,28.51758,27.333Z"/><path d="M47.01709,13.13773a1.4905,1.4905,0,0,1-.74854-.20166l-16.45459-9.5a1.49982,1.49982,0,0,1,1.5-2.59766l16.45459,9.5a1.50031,1.50031,0,0,1-.75146,2.79932Z"/></svg>