<svg xmlns="http://www.w3.org/2000/svg" viewBox="0 0 60 59.99922"><title>alo_icon_activity_exhibition-medium</title><path d="M58.11914,59.99922H1.61279a1.5,1.5,0,1,1,0-3H58.11914a1.5,1.5,0,0,1,0,3Z"/><path d="M53.67822,31.50019H6.32178a1.5,1.5,0,1,1,0-3H53.67822a1.5,1.5,0,0,1,0,3Z"/><path d="M56.50342,22.32832H3.229a1.5,1.5,0,1,1,0-3H56.50342a1.5,1.5,0,0,1,0,3Z"/><path d="M56.502,22.32832a1.491,1.491,0,0,1-.87939-.28613L28.98535,2.71406A1.4998,1.4998,0,0,1,30.74707.28633L57.38428,19.61445a1.5,1.5,0,0,1-.88232,2.71387Z"/><path d="M3.23047,22.32832a1.5,1.5,0,0,1-.88232-2.71387L28.98535.28633a1.4998,1.4998,0,0,1,1.76172,2.42773L4.10986,22.04219A1.491,1.491,0,0,1,3.23047,22.32832Z"/><path d="M29.86621,59.99922a1.49976,1.49976,0,0,1-1.5-1.5v-28.499a1.5,1.5,0,0,1,3,0v28.499A1.49976,1.49976,0,0,1,29.86621,59.99922Z"/><path d="M20.44824,59.99922a1.49976,1.49976,0,0,1-1.5-1.5v-28.499a1.5,1.5,0,0,1,3,0v28.499A1.49976,1.49976,0,0,1,20.44824,59.99922Z"/><path d="M11.03076,59.99922a1.49976,1.49976,0,0,1-1.5-1.5v-28.499a1.5,1.5,0,0,1,3,0v28.499A1.49976,1.49976,0,0,1,11.03076,59.99922Z"/><path d="M39.28369,59.99922a1.49976,1.49976,0,0,1-1.5-1.5v-28.499a1.5,1.5,0,1,1,3,0v28.499A1.49976,1.49976,0,0,1,39.28369,59.99922Z"/><path d="M48.70166,59.99922a1.49976,1.49976,0,0,1-1.5-1.5v-28.499a1.5,1.5,0,1,1,3,0v28.499A1.49976,1.49976,0,0,1,48.70166,59.99922Z"/><path d="M58.5,36.32246a1.49976,1.49976,0,0,1-1.5-1.5,3.32576,3.32576,0,0,0-3.32178-3.32227,1.5,1.5,0,0,1,0-3A6.329,6.329,0,0,1,60,34.82246,1.49976,1.49976,0,0,1,58.5,36.32246Z"/><path d="M1.5,36.32246a1.49976,1.49976,0,0,1-1.5-1.5,6.329,6.329,0,0,1,6.32178-6.32227,1.5,1.5,0,0,1,0,3A3.32576,3.32576,0,0,0,3,34.82246,1.49976,1.49976,0,0,1,1.5,36.32246Z"/></svg>