<svg id="Elements" xmlns="http://www.w3.org/2000/svg" viewBox="0 0 75 75"><title>alo_activities</title><g id="_Group_" data-name="&lt;Group&gt;"><path d="M37.5,53.5a16,16,0,1,1,16-16A16.01833,16.01833,0,0,1,37.5,53.5Zm0-30a14,14,0,1,0,14,14A14.01573,14.01573,0,0,0,37.5,23.5Z"/><g id="_Group_2" data-name="&lt;Group&gt;"><path d="M31.249,39.75a1.00023,1.00023,0,0,1-.99658-0.92871l-0.625-8.75a1.0001,1.0001,0,0,1,1.99512-.14258l0.625,8.75a0.99988,0.99988,0,0,1-.92627,1.06836C31.29688,39.749,31.27295,39.75,31.249,39.75Z"/><path d="M43.751,39.75c-0.02393,0-.04785-0.001-0.07227-0.00293a0.99988,0.99988,0,0,1-.92627-1.06836l0.625-8.75a1.0001,1.0001,0,0,1,1.99512.14258l-0.625,8.75A1.00023,1.00023,0,0,1,43.751,39.75Z"/><path d="M30.001,46a0.97548,0.97548,0,0,1-.19727-0.01953,0.99967,0.99967,0,0,1-.78418-1.17676l1.25-6.25a0.99992,0.99992,0,1,1,1.96094.39258l-1.25,6.25A0.99958,0.99958,0,0,1,30.001,46Z"/><path d="M44.999,46a0.99958,0.99958,0,0,1-.97949-0.80371l-1.25-6.25a0.99992,0.99992,0,1,1,1.96094-.39258l1.25,6.25a0.99967,0.99967,0,0,1-.78418,1.17676A0.97548,0.97548,0,0,1,44.999,46Z"/><path d="M35,43.5H30.5a1,1,0,0,1,0-2H35A1,1,0,0,1,35,43.5Z"/><path d="M36,39.75H31.25a1,1,0,0,1,0-2H36A1,1,0,0,1,36,39.75Z"/><path d="M44.5,43.5H40a1,1,0,0,1,0-2h4.5A1,1,0,0,1,44.5,43.5Z"/><path d="M43.75,39.75H39a1,1,0,0,1,0-2h4.75A1,1,0,0,1,43.75,39.75Z"/><path d="M35,46a0.99974,0.99974,0,0,1-1-1V38.75a1,1,0,0,1,2,0V45A0.99974,0.99974,0,0,1,35,46Z"/><path d="M40,46a0.99974,0.99974,0,0,1-1-1V38.75a1,1,0,0,1,2,0V45A0.99974,0.99974,0,0,1,40,46Z"/></g></g></svg>