<svg id="Elements" xmlns="http://www.w3.org/2000/svg" viewBox="0 0 75 75"><title>alo_activities</title><g id="_Group_" data-name="&lt;Group&gt;"><path d="M37.5,53.5a16,16,0,1,1,16-16A16.01833,16.01833,0,0,1,37.5,53.5Zm0-30a14,14,0,1,0,14,14A14.01573,14.01573,0,0,0,37.5,23.5Z"/><g id="_Group_2" data-name="&lt;Group&gt;"><path d="M37.5,42.83008A5.33008,5.33008,0,1,1,42.83008,37.5,5.33555,5.33555,0,0,1,37.5,42.83008Zm0-8.66016A3.33008,3.33008,0,1,0,40.83008,37.5,3.3342,3.3342,0,0,0,37.5,34.16992Z"/><path d="M37.5,47.16016a0.99942,0.99942,0,0,1-1-1V39.665a1,1,0,0,1,2,0v6.49512A0.99942,0.99942,0,0,1,37.5,47.16016Z"/><path d="M39.376,37.417a1,1,0,0,1-.501-1.86621L44.5,32.30371a1.00016,1.00016,0,1,1,1,1.73242L39.875,37.2832A0.99445,0.99445,0,0,1,39.376,37.417Z"/><path d="M35.624,37.417a0.99445,0.99445,0,0,1-.499-0.13379L29.5,34.03613a1.00016,1.00016,0,1,1,1-1.73242l5.625,3.24707A1,1,0,0,1,35.624,37.417Z"/></g></g></svg>