<svg xmlns="http://www.w3.org/2000/svg" viewBox="0 0 60 60"><title>alo_icon_activity_meals-medium</title><path d="M36.76074,48.98877a8.76488,8.76488,0,0,1-8.75488-8.75488V32.97949a5.09209,5.09209,0,0,1,1.44629-3.56885l4.60449-5.60156a3.40322,3.40322,0,0,1,.3457-.41211l.03516-.03467a3.35954,3.35954,0,0,1,3.61426-.68945L46.75,26.59863a6.94129,6.94129,0,0,1,3.02051,10.26172l-5.7627,8.28613A8.74109,8.74109,0,0,1,36.76074,48.98877Zm-.34961-23.31885-4.68359,5.69727c-.03125.0376-.06348.07324-.09766.10742a2.1159,2.1159,0,0,0-.624,1.50488v7.25439A5.755,5.755,0,0,0,41.5332,43.4502L47.2959,35.165a3.89645,3.89645,0,0,0,.35059-.65186,3.84037,3.84037,0,0,0,.22949-.73682,4.02871,4.02871,0,0,0,.08008-.79687,3.93743,3.93743,0,0,0-2.40723-3.63232l-8.69922-3.92578a.57716.57716,0,0,0-.27832.05322l-.1582.19287Z"/><path d="M25.72461,26.75h-9.5a1.501,1.501,0,0,1-1.49512-1.62451l1.1875-14.25A1.50076,1.50076,0,0,1,17.41211,9.5h7.125a1.50076,1.50076,0,0,1,1.49512,1.37549l1.1875,14.25A1.501,1.501,0,0,1,25.72461,26.75Zm-7.87012-3h6.24023l-.9375-11.25H18.792Z"/><path d="M20.97461,55.25a1.50007,1.50007,0,0,1-1.5-1.5V25.25a1.5,1.5,0,0,1,3,0v28.5A1.50007,1.50007,0,0,1,20.97461,55.25Z"/><path d="M11.47461,37.2002H1.5a1.50007,1.50007,0,0,1-1.5-1.5V11a1.49978,1.49978,0,0,1,2.89063-.56152l9.97461,24.7002a1.5,1.5,0,0,1-1.39062,2.06152ZM3,34.2002H9.251L3,18.72021Z"/><path d="M1.5,55.25A1.50007,1.50007,0,0,1,0,53.75V35.7002a1.5,1.5,0,0,1,3,0V53.75A1.50007,1.50007,0,0,1,1.5,55.25Z"/><path d="M30,60A30.07966,30.07966,0,0,1,.60254,35.99854,1.4997,1.4997,0,1,1,3.542,35.40186,27.05482,27.05482,0,1,0,5.61328,18.47168,1.49986,1.49986,0,1,1,2.90234,17.1875,29.98887,29.98887,0,1,1,30,60Z"/></svg>