<svg xmlns="http://www.w3.org/2000/svg" viewBox="0 0 60.0008 52.36322"><title>alo_icon_activity_community-medium</title><path d="M30.0004,40.21185a1.50039,1.50039,0,0,1-1.5-1.5V29.40716a1.5,1.5,0,0,1,3,0v9.30469A1.50039,1.50039,0,0,1,30.0004,40.21185Z"/><path d="M36.33634,52.36322a1.49839,1.49839,0,0,1-1.33105-.80664l-6.335-12.15137a1.5,1.5,0,0,1,2.66016-1.38672l6.335,12.15137a1.5,1.5,0,0,1-1.3291,2.19336Z"/><path d="M23.66446,52.36322a1.5,1.5,0,0,1-1.3291-2.19336l6.335-12.15137a1.5,1.5,0,0,1,2.66016,1.38672l-6.335,12.15137A1.50024,1.50024,0,0,1,23.66446,52.36322Z"/><path d="M30.0004,40.21185a18.47669,18.47669,0,0,1-13.15234-5.44824,1.49984,1.49984,0,0,1,2.12109-2.12109,15.60044,15.60044,0,0,0,22.0625,0,1.49984,1.49984,0,0,1,2.12109,2.12109A18.47669,18.47669,0,0,1,30.0004,40.21185Z"/><path d="M46.519,27.538a1.50206,1.50206,0,0,1-1.4502-1.88867,15.59863,15.59863,0,0,0-11.03027-19.106,1.49971,1.49971,0,1,1,.77539-2.89746A18.59957,18.59957,0,0,1,47.9672,26.42572,1.50111,1.50111,0,0,1,46.519,27.538Z"/><path d="M13.48185,27.538a1.50111,1.50111,0,0,1-1.44824-1.1123A18.60226,18.60226,0,0,1,25.18595,3.64545a1.5,1.5,0,1,1,.77734,2.89746A15.60046,15.60046,0,0,0,14.932,25.64935a1.50206,1.50206,0,0,1-1.4502,1.88867Z"/><path d="M30.0004,40.21185a1.50039,1.50039,0,0,1-1.5-1.5V29.40716a1.5,1.5,0,0,1,3,0v9.30469A1.50039,1.50039,0,0,1,30.0004,40.21185Z"/><path d="M36.33634,52.36322a1.49839,1.49839,0,0,1-1.33105-.80664l-6.335-12.15137a1.5,1.5,0,0,1,2.66016-1.38672l6.335,12.15137a1.5,1.5,0,0,1-1.3291,2.19336Z"/><path d="M23.66446,52.36322a1.5,1.5,0,0,1-1.3291-2.19336l6.335-12.15137a1.5,1.5,0,0,1,2.66016,1.38672l-6.335,12.15137A1.50024,1.50024,0,0,1,23.66446,52.36322Z"/><path d="M36.75236,19.21478a1.50031,1.50031,0,0,1-.751-2.79932L44.06,11.76312a1.49982,1.49982,0,0,1,1.5,2.59766l-8.05859,4.65234A1.49094,1.49094,0,0,1,36.75236,19.21478Z"/><path d="M44.809,14.56195a1.5003,1.5003,0,0,1-1.26465-2.30518L50.89982.69476a1.5,1.5,0,0,1,2.53125,1.61035l-7.35547,11.562A1.49958,1.49958,0,0,1,44.809,14.56195Z"/><path d="M44.809,14.56195a1.5,1.5,0,0,1-.06348-2.99854l13.69043-.59033a1.49992,1.49992,0,1,1,.12891,2.99707l-13.69043.59033C44.85294,14.56146,44.83048,14.56195,44.809,14.56195Z"/><path d="M44.809,14.56195a1.5003,1.5003,0,0,1-1.26465-2.30518L50.89982.69476a1.5,1.5,0,0,1,2.53125,1.61035l-7.35547,11.562A1.49958,1.49958,0,0,1,44.809,14.56195Z"/><path d="M44.809,14.56195a1.5,1.5,0,0,1-.06348-2.99854l13.69043-.59033a1.49992,1.49992,0,1,1,.12891,2.99707l-13.69043.59033C44.85294,14.56146,44.83048,14.56195,44.809,14.56195Z"/><path d="M23.24845,19.21429a1.49094,1.49094,0,0,1-.749-.20166l-8.05762-4.65234a1.49982,1.49982,0,1,1,1.5-2.59766L23.99943,16.415a1.50031,1.50031,0,0,1-.751,2.79932Z"/><path d="M15.19278,14.56146c-.02148,0-.04395-.00049-.06543-.00146L1.43595,13.97064a1.49992,1.49992,0,1,1,.12891-2.99707l13.69141.58936a1.5,1.5,0,0,1-.06348,2.99854Z"/><path d="M15.19278,14.56146a1.49958,1.49958,0,0,1-1.2666-.69482L6.56974,2.30511A1.5,1.5,0,1,1,9.101.69476l7.35645,11.56152a1.49966,1.49966,0,0,1-1.26465,2.30518Z"/><path d="M15.19278,14.56146c-.02148,0-.04395-.00049-.06543-.00146L1.43595,13.97064a1.49992,1.49992,0,1,1,.12891-2.99707l13.69141.58936a1.5,1.5,0,0,1-.06348,2.99854Z"/><path d="M15.19278,14.56146a1.49958,1.49958,0,0,1-1.2666-.69482L6.56974,2.30511A1.5,1.5,0,1,1,9.101.69476l7.35645,11.56152a1.49966,1.49966,0,0,1-1.26465,2.30518Z"/></svg>