<svg id="Elements" xmlns="http://www.w3.org/2000/svg" viewBox="0 0 75 75"><title>alo_activities</title><path d="M37.5,53.5a16,16,0,1,1,16-16A16.01833,16.01833,0,0,1,37.5,53.5Zm0-30a14,14,0,1,0,14,14A14.01573,14.01573,0,0,0,37.5,23.5Z"/><g id="_Group_" data-name="&lt;Group&gt;"><path d="M41.25,38.5a1.00013,1.00013,0,0,1-.707-0.293l-3.75-3.75A1.00013,1.00013,0,0,1,36.5,33.75,4.75053,4.75053,0,1,1,41.25,38.5Zm-2.72314-5.13721,3.11035,3.11035a2.75048,2.75048,0,0,0,1.55713-4.668,2.81676,2.81676,0,0,0-3.88916.00049A2.72977,2.72977,0,0,0,38.52686,33.36279Z"/><path d="M33.74609,44.90625a0.99752,0.99752,0,0,1-.707-0.293l-2.65186-2.65234a1.00053,1.00053,0,0,1-.061-1.34766l5.522-6.62012L36.793,33.043A0.99989,0.99989,0,0,1,38.207,34.457l-0.88379.88379-4.876,5.85156,1.35986,1.36035,5.91846-4.937L40.543,36.793A0.99989,0.99989,0,0,1,41.957,38.207l-0.88379.88379-6.68652,5.583A0.99759,0.99759,0,0,1,33.74609,44.90625Z"/><path d="M30,46a1,1,0,0,1-.707-1.707L31.71289,41.873A0.99989,0.99989,0,1,1,33.127,43.28711L30.707,45.707A0.99676,0.99676,0,0,1,30,46Z"/><path d="M36.5,39.5a1,1,0,0,1-.707-1.707l0.91992-.91992A0.99989,0.99989,0,0,1,38.127,38.28711L37.207,39.207A0.99676,0.99676,0,0,1,36.5,39.5Z"/></g></svg>