<svg id="Elements" xmlns="http://www.w3.org/2000/svg" viewBox="0 0 75 75"><title>alo_activities</title><path d="M37.5,53.5a16,16,0,1,1,16-16A16.01833,16.01833,0,0,1,37.5,53.5Zm0-30a14,14,0,1,0,14,14A14.01573,14.01573,0,0,0,37.5,23.5Z"/><g id="_Group_" data-name="&lt;Group&gt;"><g id="_Group_2" data-name="&lt;Group&gt;"><path d="M37.5,45a1,1,0,0,1-1-1V29a1,1,0,0,1,2,0V44A1,1,0,0,1,37.5,45Z"/><path d="M40,45H35a1,1,0,0,1,0-2h5A1,1,0,0,1,40,45Z"/><path d="M32.49951,35.04395a1.00006,1.00006,0,0,1-.25-1.96826l10-2.58789a1.00014,1.00014,0,1,1,.501,1.93652l-10,2.58789A1.01334,1.01334,0,0,1,32.49951,35.04395Z"/><path d="M32.5,42.54395a3.50425,3.50425,0,0,1-3.5-3.5,1,1,0,0,1,1-1h5a1,1,0,0,1,1,1A3.50425,3.50425,0,0,1,32.5,42.54395Zm-1.11719-2.5a1.58673,1.58673,0,0,0,2.23438,0H31.38281Z"/><path d="M32.5,40.04395a1,1,0,0,1-1-1v-5a1,1,0,0,1,2,0v5A1,1,0,0,1,32.5,40.04395Z"/></g><path d="M42.5,39.95605a3.50425,3.50425,0,0,1-3.5-3.5,1,1,0,0,1,1-1h5a1,1,0,0,1,1,1A3.50425,3.50425,0,0,1,42.5,39.95605Zm-1.11719-2.5a1.58673,1.58673,0,0,0,2.23438,0H41.38281Z"/><path d="M42.5,37.45605a1,1,0,0,1-1-1v-5a1,1,0,0,1,2,0v5A1,1,0,0,1,42.5,37.45605Z"/></g></svg>