<svg xmlns="http://www.w3.org/2000/svg" viewBox="0 0 60 60"><title>alo_icon_activity_writing-medium</title><path d="M25.7251,12.5h-14.25a1.5,1.5,0,1,1,0-3h14.25a1.5,1.5,0,1,1,0,3Z"/><path d="M25.7251,22h-14.25a1.5,1.5,0,1,1,0-3h14.25a1.5,1.5,0,1,1,0,3Z"/><path d="M19.0752,31.5H11.4751a1.5,1.5,0,1,1,0-3h7.6001a1.5,1.5,0,0,1,0,3Z"/><path d="M17.41357,55.14795A1.49514,1.49514,0,0,1,16.353,54.7085l-5.36182-5.36133a1.49945,1.49945,0,0,1,0-2.12109L52.07764,6.13965a1.49945,1.49945,0,0,1,2.12109,0L59.56055,11.501a1.49945,1.49945,0,0,1,0,2.12109L18.47412,54.7085A1.49514,1.49514,0,0,1,17.41357,55.14795Zm-3.24023-6.86133,3.24023,3.24023L56.37842,12.56152,53.13818,9.32129Z"/><path d="M39.50049,50.5H22.0625a1.5,1.5,0,0,1,0-3h15.938V31.562a1.5,1.5,0,0,1,3,0V49A1.49976,1.49976,0,0,1,39.50049,50.5Z"/><path d="M12.76514,50.5H1.5A1.49976,1.49976,0,0,1,0,49V1.5A1.49976,1.49976,0,0,1,1.5,0H39.50049a1.49976,1.49976,0,0,1,1.5,1.5V20.83838a1.5,1.5,0,1,1-3,0V3H3V47.5h9.76514a1.5,1.5,0,1,1,0,3Z"/><path d="M7.2002,60a1.5,1.5,0,0,1-1.06055-2.56055l7.53271-7.53271a1.49984,1.49984,0,0,1,2.12109,2.12109L8.26074,59.56055A1.49514,1.49514,0,0,1,7.2002,60Z"/></svg>