<svg xmlns="http://www.w3.org/2000/svg" viewBox="0 0 60 60"><title>alo_icon_activity_resources-medium</title><path d="M58.5,60H1.5A1.49976,1.49976,0,0,1,0,58.5V15.75A15.76785,15.76785,0,0,1,15.75,0h28.5A15.76785,15.76785,0,0,1,60,15.75V58.5A1.49976,1.49976,0,0,1,58.5,60ZM3,57H57V15.75A12.76457,12.76457,0,0,0,44.25,3H15.75A12.76457,12.76457,0,0,0,3,15.75Z"/><path d="M19.3125,26.75H1.5a1.5,1.5,0,0,1,0-3H19.3125a1.5,1.5,0,0,1,0,3Z"/><path d="M58.5,26.75H40.6875a1.5,1.5,0,0,1,0-3H58.5a1.5,1.5,0,0,1,0,3Z"/><path d="M30,36.7251a1.49976,1.49976,0,0,1-1.5-1.5V25.25a1.5,1.5,0,0,1,3,0v9.9751A1.49976,1.49976,0,0,1,30,36.7251Z"/><path d="M30,48.125A12.2013,12.2013,0,0,1,17.8125,35.9375V25.25a1.5,1.5,0,0,1,3,0V35.9375a9.1875,9.1875,0,0,0,18.375,0V25.25a1.5,1.5,0,0,1,3,0V35.9375A12.2013,12.2013,0,0,1,30,48.125Z"/></svg>