<svg xmlns="http://www.w3.org/2000/svg" viewBox="0 0 60 60"><title>alo_icon_activity_hiking-medium</title><path d="M58.5,60H25.31152a1.50007,1.50007,0,0,1-1.5-1.5A18.09424,18.09424,0,1,1,60,58.5,1.50007,1.50007,0,0,1,58.5,60ZM26.88574,57h30.04a15.09479,15.09479,0,0,0-30.04,0Z"/><path d="M25.31152,60a1.49514,1.49514,0,0,1-1.06055-.43945L.43945,35.74854a1.49984,1.49984,0,0,1,2.12109-2.12109l23.81152,23.812A1.5,1.5,0,0,1,25.31152,60Z"/><path d="M37.72363,24.78809a1.49514,1.49514,0,0,1-1.06055-.43945L24.251,11.937a1.49945,1.49945,0,0,1,0-2.12109l9.377-9.37646A1.50061,1.50061,0,0,1,34.68848,0h0A1.50061,1.50061,0,0,1,35.749.43945L48.16016,12.85156a1.49945,1.49945,0,0,1,0,2.12109l-9.376,9.376A1.49514,1.49514,0,0,1,37.72363,24.78809Zm-10.291-13.91162L37.72363,21.167l7.25488-7.25488-10.29-10.291Z"/><path d="M41.90527,43.40625a1.50173,1.50173,0,0,1-1.46289-1.17187L36.25977,23.6167a1.5003,1.5003,0,0,1,2.92773-.65723l4.18262,18.61768a1.50256,1.50256,0,0,1-1.46484,1.8291Z"/><path d="M31.30469,35.22559a1.5002,1.5002,0,0,1-.32812-2.96387l8.3418-1.874a1.49993,1.49993,0,1,1,.6582,2.92676l-8.3418,1.874A1.51037,1.51037,0,0,1,31.30469,35.22559Z"/><path d="M1.5,36.188A1.5,1.5,0,0,1,.43945,33.62744L24.251,9.81592A1.49984,1.49984,0,0,1,26.37207,11.937L2.56055,35.74854A1.49514,1.49514,0,0,1,1.5,36.188Z"/></svg>