<svg id="Elements" xmlns="http://www.w3.org/2000/svg" viewBox="0 0 75 75"><title>alo_activities</title><path d="M37.5,53.5a16,16,0,1,1,16-16A16.01833,16.01833,0,0,1,37.5,53.5Zm0-30a14,14,0,1,0,14,14A14.01573,14.01573,0,0,0,37.5,23.5Z"/><g id="_Group_" data-name="&lt;Group&gt;"><path d="M42.5,46A3.50425,3.50425,0,0,1,39,42.5v-5a3.5,3.5,0,0,1,7,0v5A3.50425,3.50425,0,0,1,42.5,46Zm0-10A1.50164,1.50164,0,0,0,41,37.5v5a1.5,1.5,0,0,0,3,0v-5A1.50164,1.50164,0,0,0,42.5,36Z"/><path d="M42.5,36a1,1,0,0,1-1-1V33.4375a1,1,0,0,1,2,0V35A1,1,0,0,1,42.5,36Z"/><path d="M45,39.75H40a1,1,0,0,1,0-2h5A1,1,0,0,1,45,39.75Z"/><path d="M32.8125,41A3.817,3.817,0,0,1,29,37.1875V33.125a1,1,0,0,1,2,0v4.0625a1.81274,1.81274,0,0,0,3.62549,0v-3.75a1,1,0,0,1,2,0v3.75A3.81714,3.81714,0,0,1,32.8125,41Z"/><path d="M42.5,34.4375a1,1,0,0,1-1-1,2.4375,2.4375,0,0,0-4.875,0,1,1,0,0,1-2,0,4.4375,4.4375,0,0,1,8.875,0A1,1,0,0,1,42.5,34.4375Z"/></g></svg>