<svg id="Elements" xmlns="http://www.w3.org/2000/svg" viewBox="0 0 75 75"><title>alo_activities</title><g id="_Group_" data-name="&lt;Group&gt;"><path d="M37.5,53.5a16,16,0,1,1,16-16A16.01833,16.01833,0,0,1,37.5,53.5Zm0-30a14,14,0,1,0,14,14A14.01573,14.01573,0,0,0,37.5,23.5Z"/><g id="_Group_2" data-name="&lt;Group&gt;"><path d="M36.875,33.5h-6.25A1.62657,1.62657,0,0,1,29,31.875V30a1,1,0,0,1,2,0v1.5h5.5V30a1,1,0,0,1,2,0v1.875A1.62657,1.62657,0,0,1,36.875,33.5Z"/><path d="M33.75,46a0.99974,0.99974,0,0,1-1-1V32.5a1,1,0,0,1,2,0V45A0.99974,0.99974,0,0,1,33.75,46Z"/><path d="M35,33.5a0.99974,0.99974,0,0,1-1-1V30a1,1,0,0,1,2,0v2.5A0.99974,0.99974,0,0,1,35,33.5Z"/><path d="M32.5,33.5a0.99974,0.99974,0,0,1-1-1V30a1,1,0,0,1,2,0v2.5A0.99974,0.99974,0,0,1,32.5,33.5Z"/><path d="M43.75,46h-5a0.99974,0.99974,0,0,1-1-1V37.5a0.99974,0.99974,0,0,1,1-1H45a1,1,0,0,1,0,2H44.75V45A0.99974,0.99974,0,0,1,43.75,46Zm-4-2h3V38.5h-3V44Z"/><path d="M36.25,43.5a0.99974,0.99974,0,0,1-1-1V38.75a0.99974,0.99974,0,0,1,1-1h2.5a1,1,0,0,1,0,2h-1.5V42.5A0.99974,0.99974,0,0,1,36.25,43.5Z"/><path d="M42.502,35.26563a0.99676,0.99676,0,0,1-.707-0.293l-1.76758-1.76758a0.99964,0.99964,0,0,1,0-1.41406l1.76758-1.76758a3.50479,3.50479,0,0,1,3.37842-.9043,0.99883,0.99883,0,0,1,.708.708,3.5119,3.5119,0,0,1-.90479,3.37793L43.209,34.97266A0.99676,0.99676,0,0,1,42.502,35.26563ZM42.14844,32.498L42.502,32.85156,43.5625,31.791a1.48461,1.48461,0,0,0,.40967-0.76074,1.48863,1.48863,0,0,0-.7627.40723Z"/><path d="M40.02686,35.97266a1,1,0,0,1-.707-1.707l1.59131-1.59082a0.99989,0.99989,0,0,1,1.41406,1.41406l-1.59131,1.59082A0.99676,0.99676,0,0,1,40.02686,35.97266Z"/></g></g></svg>