<svg id="Elements" xmlns="http://www.w3.org/2000/svg" viewBox="0 0 75 75"><title>alo_activities</title><path d="M37.5,53.5a16,16,0,1,1,16-16A16.01833,16.01833,0,0,1,37.5,53.5Zm0-30a14,14,0,1,0,14,14A14.01573,14.01573,0,0,0,37.5,23.5Z"/><g id="_Group_" data-name="&lt;Group&gt;"><g id="_Group_2" data-name="&lt;Group&gt;"><path d="M39,38.5H36a1,1,0,0,1,0-2h3A1,1,0,0,1,39,38.5Z"/><path d="M39,34.75H36a1,1,0,0,1,0-2h3A1,1,0,0,1,39,34.75Z"/><path d="M39,42.25H36a1,1,0,0,1,0-2h3A1,1,0,0,1,39,42.25Z"/></g><g id="_Group_3" data-name="&lt;Group&gt;"><path d="M32.5,46a0.99974,0.99974,0,0,1-1-1V30a0.99974,0.99974,0,0,1,1-1H45a1,1,0,0,1,0,2H33.5V45A0.99974,0.99974,0,0,1,32.5,46Z"/><path d="M42.5,46H30a1,1,0,0,1,0-2H41.5V30a1,1,0,0,1,2,0V45A0.99974,0.99974,0,0,1,42.5,46Z"/></g></g></svg>