<svg xmlns="http://www.w3.org/2000/svg" viewBox="0 0 60 60"><title>alo_icon_activity_story-medium</title><path d="M11,60a1.50007,1.50007,0,0,1-1.5-1.5V1.5A1.50007,1.50007,0,0,1,11,0H58.5a1.5,1.5,0,0,1,0,3h-46V58.5A1.50007,1.50007,0,0,1,11,60Z"/><path d="M30.47461,12.5H20.02539a1.5,1.5,0,0,1,0-3H30.47461a1.5,1.5,0,1,1,0,3Z"/><path d="M30.47461,31.5H20.02539a1.5,1.5,0,1,1,0-3H30.47461a1.5,1.5,0,1,1,0,3Z"/><path d="M39.97461,22H20.02539a1.5,1.5,0,1,1,0-3H39.97461a1.5,1.5,0,0,1,0,3Z"/><path d="M39.97461,41H20.02539a1.5,1.5,0,1,1,0-3H39.97461a1.5,1.5,0,1,1,0,3Z"/><path d="M39.97461,50.5H20.02539a1.5,1.5,0,1,1,0-3H39.97461a1.5,1.5,0,1,1,0,3Z"/><path d="M49,60H1.5a1.5,1.5,0,0,1,0-3h46V1.5a1.5,1.5,0,0,1,3,0v57A1.50007,1.50007,0,0,1,49,60Z"/></svg>