<svg xmlns="http://www.w3.org/2000/svg" viewBox="0 0 60 35.16297"><title>alo_icon_activity_biking-medium</title><path d="M49,25.66346a1.50079,1.50079,0,0,1-1.40967-.9873L39.3418,2.014A1.50017,1.50017,0,1,1,42.16113.98768l8.24854,22.66211A1.501,1.501,0,0,1,49,25.66346Z"/><path d="M49,35.163a11,11,0,1,1,11-11A11.01245,11.01245,0,0,1,49,35.163Zm0-19a8,8,0,1,0,8,8A8.00917,8.00917,0,0,0,49,16.163Z"/><path d="M11,35.163a11,11,0,1,1,11-11A11.01245,11.01245,0,0,1,11,35.163Zm0-19a8,8,0,1,0,8,8A8.00917,8.00917,0,0,0,11,16.163Z"/><path d="M28.1001,25.663H11a1.5,1.5,0,0,1,0-3H28.1001a1.5,1.5,0,0,1,0,3Z"/><path d="M28.10107,25.663a1.5,1.5,0,0,1-.89893-2.70117l16.4292-12.28223a1.49971,1.49971,0,1,1,1.7959,2.40234L28.998,25.36414A1.491,1.491,0,0,1,28.10107,25.663Z"/><path d="M25.02393,14.3617a1.50079,1.50079,0,0,1-1.40967-.9873L20.19189,3.97205a1.50017,1.50017,0,0,1,2.81934-1.02637L26.43359,12.348a1.501,1.501,0,0,1-1.40967,2.01367Z"/><path d="M25.022,14.36121a1.5,1.5,0,0,1-.23047-2.98193L43.58105,8.431a1.5,1.5,0,1,1,.46484,2.96387L25.25635,14.34315A1.52969,1.52969,0,0,1,25.022,14.36121Z"/><path d="M26.35156,4.95887h-9.5a1.5,1.5,0,0,1,0-3h9.5a1.5,1.5,0,1,1,0,3Z"/><path d="M51.20166,3.00086H40.75146a1.5,1.5,0,1,1,0-3h10.4502a1.5,1.5,0,1,1,0,3Z"/></svg>