<svg id="Elements" xmlns="http://www.w3.org/2000/svg" viewBox="0 0 75 75"><title>alo_activities</title><path d="M37.5,53.5a16,16,0,1,1,16-16A16.01833,16.01833,0,0,1,37.5,53.5Zm0-30a14,14,0,1,0,14,14A14.01573,14.01573,0,0,0,37.5,23.5Z"/><g id="_Group_" data-name="&lt;Group&gt;"><path d="M39.28125,44H33a3.50425,3.50425,0,0,1-3.5-3.5V38A3.50425,3.50425,0,0,1,33,34.5h6.28125a3.50425,3.50425,0,0,1,3.5,3.5v2.5A3.50425,3.50425,0,0,1,39.28125,44ZM33,36.5A1.50164,1.50164,0,0,0,31.5,38v2.5A1.50164,1.50164,0,0,0,33,42h6.28125a1.50164,1.50164,0,0,0,1.5-1.5V38a1.50164,1.50164,0,0,0-1.5-1.5H33Z"/><path d="M33,36.5A3.5,3.5,0,1,1,36.5,33,3.50425,3.50425,0,0,1,33,36.5Zm0-5A1.5,1.5,0,1,0,34.5,33,1.50164,1.50164,0,0,0,33,31.5Z"/><path d="M39.28125,36.5a3.5,3.5,0,1,1,3.5-3.5A3.50425,3.50425,0,0,1,39.28125,36.5Zm0-5a1.5,1.5,0,1,0,1.5,1.5A1.50164,1.50164,0,0,0,39.28125,31.5Z"/><path d="M45.05811,43.52637a1.62207,1.62207,0,0,1-1.14893-.47559l-2.65186-2.65137a1.62736,1.62736,0,0,1,0-2.29883l2.65186-2.65137a1.62618,1.62618,0,0,1,2.29785,0,1.00013,1.00013,0,0,1,.293.707v6.1875a0.99928,0.99928,0,0,1-.293.707A1.62207,1.62207,0,0,1,45.05811,43.52637ZM45.5,42.34375h0ZM42.936,39.25L44.5,40.81348v-3.127Z"/><path d="M36.14063,46.5a0.99974,0.99974,0,0,1-1-1V43a1,1,0,0,1,2,0v2.5A0.99974,0.99974,0,0,1,36.14063,46.5Z"/><path d="M36.76563,40.25h-2.75a1,1,0,0,1,0-2h2.75A1,1,0,0,1,36.76563,40.25Z"/></g></svg>