<svg id="Elements" xmlns="http://www.w3.org/2000/svg" viewBox="0 0 75 75"><title>alo_activities</title><path d="M37.5,53.5a16,16,0,1,1,16-16A16.01833,16.01833,0,0,1,37.5,53.5Zm0-30a14,14,0,1,0,14,14A14.01573,14.01573,0,0,0,37.5,23.5Z"/><g id="_Group_" data-name="&lt;Group&gt;"><path d="M39.8125,44c-3.53906,0-5.688-6.12061-5.688-8.8125a5.68774,5.68774,0,0,1,11.37549,0C45.5,37.87939,43.35107,44,39.8125,44Zm0-12.5a3.6919,3.6919,0,0,0-3.688,3.6875c0,2.36816,1.95361,6.8125,3.688,6.8125C41.54639,42,43.5,37.55566,43.5,35.1875A3.69179,3.69179,0,0,0,39.8125,31.5Z"/><path d="M39.8125,46.5a1,1,0,0,1-1-1V43a1,1,0,0,1,2,0v2.5A1,1,0,0,1,39.8125,46.5Z"/><path d="M32.625,42.3335c-2.51855,0-4.125-4.07666-4.125-6.2085a4.12336,4.12336,0,0,1,7.52637-2.33008A0.99993,0.99993,0,0,1,34.377,34.92578,2.12348,2.12348,0,0,0,30.5,36.125c0,1.61279,1.31055,4.2085,2.125,4.2085,0.53223,0,1.47119-1.28174,1.93164-2.99707a1,1,0,1,1,1.93164.51855C35.93359,39.9209,34.58887,42.3335,32.625,42.3335Z"/><path d="M32.625,44a1,1,0,0,1-1-1V41.3335a1,1,0,0,1,2,0V43A1,1,0,0,1,32.625,44Z"/></g></svg>