<svg id="Elements" xmlns="http://www.w3.org/2000/svg" viewBox="0 0 75 75"><title>alo_activities</title><path d="M37.5,53.5a16,16,0,1,1,16-16A16.01833,16.01833,0,0,1,37.5,53.5Zm0-30a14,14,0,1,0,14,14A14.01573,14.01573,0,0,0,37.5,23.5Z"/><g id="_Group_" data-name="&lt;Group&gt;"><path d="M40.75,45.5a4.75,4.75,0,1,1,4.75-4.75A4.7554,4.7554,0,0,1,40.75,45.5Zm0-7.5a2.75,2.75,0,1,0,2.75,2.75A2.7528,2.7528,0,0,0,40.75,38Z"/><path d="M32,41.75a3.5,3.5,0,1,1,3.5-3.5A3.50425,3.50425,0,0,1,32,41.75Zm0-5a1.5,1.5,0,1,0,1.5,1.5A1.50164,1.50164,0,0,0,32,36.75Z"/><path d="M37,35.5a3.5,3.5,0,0,1-2.47461-5.9751,3.58524,3.58524,0,0,1,4.94922.00049A3.49976,3.49976,0,0,1,37,35.5Zm0-5a1.49949,1.49949,0,0,0-1.06055,2.56006,1.53435,1.53435,0,0,0,2.12109.00049V33.06006A1.5,1.5,0,0,0,37,30.5Z"/></g></svg>