<svg id="Elements" xmlns="http://www.w3.org/2000/svg" viewBox="0 0 75 75"><title>alo_activities</title><g id="_Group_" data-name="&lt;Group&gt;"><path d="M37.5,53.5a16,16,0,1,1,16-16A16.01833,16.01833,0,0,1,37.5,53.5Zm0-30a14,14,0,1,0,14,14A14.01573,14.01573,0,0,0,37.5,23.5Z"/><g id="_Group_2" data-name="&lt;Group&gt;"><path d="M45,42.917H30a0.99942,0.99942,0,0,1-1-1V30.6665a0.99974,0.99974,0,0,1,1-1H45a0.99974,0.99974,0,0,1,1,1V41.917A0.99942,0.99942,0,0,1,45,42.917Zm-14-2H44V31.6665H31V40.917Z"/><path d="M37.5,46.667a0.99942,0.99942,0,0,1-1-1v-3.75a1,1,0,0,1,2,0v3.75A0.99942,0.99942,0,0,1,37.5,46.667Z"/><path d="M40,46.667H35a1,1,0,0,1,0-2h5A1,1,0,0,1,40,46.667Z"/><path d="M43.53613,45.58691a0.99676,0.99676,0,0,1-.707-0.293l-6.14355-6.14355a0.99989,0.99989,0,0,1,1.41406-1.41406l6.14355,6.14355A1,1,0,0,1,43.53613,45.58691Z"/><path d="M37.875,34.6665h-5a1,1,0,0,1,0-2h5A1,1,0,0,1,37.875,34.6665Z"/><path d="M35.375,37.6665h-2.5a1,1,0,0,1,0-2h2.5A1,1,0,0,1,35.375,37.6665Z"/></g></g></svg>