<svg xmlns="http://www.w3.org/2000/svg" viewBox="0 0 60 60"><title>alo_icon_activity_conference-medium</title><path d="M44.25,31.5a1.49976,1.49976,0,0,1-1.06055-.43945l-14.25-14.25A1.49976,1.49976,0,0,1,28.5,15.75,15.7497,15.7497,0,1,1,44.25,31.5ZM31.51416,15.14258,44.85742,28.48584a12.75025,12.75025,0,0,0,8.4082-21.75146,12.75034,12.75034,0,0,0-21.75146,8.4082Z"/><path d="M45.73779,15.76221a1.49976,1.49976,0,0,1-1.5-1.5V1.64258a1.5,1.5,0,0,1,3,0V14.26221A1.49976,1.49976,0,0,1,45.73779,15.76221Z"/><path d="M45.73779,31.35742a1.49976,1.49976,0,0,1-1.5-1.5V14.26221a1.5,1.5,0,1,1,3,0V29.85742A1.49976,1.49976,0,0,1,45.73779,31.35742Z"/><path d="M45.73779,15.76221H30.14209a1.5,1.5,0,0,1,0-3h15.5957a1.5,1.5,0,0,1,0,3Z"/><path d="M58.35791,15.76221H45.73779a1.5,1.5,0,0,1,0-3H58.35791a1.5,1.5,0,0,1,0,3Z"/><path d="M11.93457,59.6416a1.49535,1.49535,0,0,1-1.061-.43945L.79736,49.126a1.5,1.5,0,0,1-.0791-2.03613L25.50146,18.1333q.03809-.04395.0791-.085l3.35889-3.35889a1.49984,1.49984,0,0,1,2.12109,2.12109l-3.31738,3.31787L3.8999,47.98633l8.11328,8.11328,27.8584-23.84277,3.31787-3.31738a1.49984,1.49984,0,0,1,2.12109,2.12109l-3.35889,3.3584q-.041.041-.085.0791l-28.957,24.7832A1.49525,1.49525,0,0,1,11.93457,59.6416Z"/><path d="M1.5,60A1.5,1.5,0,0,1,.43945,57.43945l5.396-5.39648a1.49984,1.49984,0,0,1,2.12109,2.12109l-5.396,5.39648A1.49431,1.49431,0,0,1,1.5,60Z"/><path d="M24.2998,37.2002a1.5,1.5,0,0,1-1.06055-2.56055l5.39648-5.39648a1.49984,1.49984,0,0,1,2.12109,2.12109l-5.39648,5.39648A1.49514,1.49514,0,0,1,24.2998,37.2002Z"/></svg>