<svg xmlns="http://www.w3.org/2000/svg" viewBox="0 0 60 60"><title>alo_icon_activity_photography-medium</title><path d="M51.375,60H8.625A8.63474,8.63474,0,0,1,0,51.375v-19A8.63474,8.63474,0,0,1,8.625,23.75h42.75A8.63474,8.63474,0,0,1,60,32.375v19A8.63474,8.63474,0,0,1,51.375,60ZM8.625,26.75A5.63146,5.63146,0,0,0,3,32.375v19A5.63146,5.63146,0,0,0,8.625,57h42.75A5.63146,5.63146,0,0,0,57,51.375v-19a5.63146,5.63146,0,0,0-5.625-5.625Z"/><path d="M34.75,52.875a11,11,0,1,1,11-11A11.01245,11.01245,0,0,1,34.75,52.875Zm0-19a8,8,0,1,0,8,8A8.00917,8.00917,0,0,0,34.75,33.875Z"/><path d="M18.125,26.75a1.50007,1.50007,0,0,1-1.5-1.5v-9.5a1.5,1.5,0,0,1,3,0v9.5A1.50007,1.50007,0,0,1,18.125,26.75Z"/><path d="M11,43.375H1.5a1.5,1.5,0,0,1,0-3H11a1.5,1.5,0,0,1,0,3Z"/><path d="M27.625,17.25h-19a1.50007,1.50007,0,0,1-1.5-1.5V1.5A1.50007,1.50007,0,0,1,8.625,0h19a1.50007,1.50007,0,0,1,1.5,1.5V15.75A1.50007,1.50007,0,0,1,27.625,17.25Zm-17.5-3h16V3h-16Z"/></svg>