<svg xmlns="http://www.w3.org/2000/svg" viewBox="0 0 60 60"><title>alo_icon_activity_language-medium</title><path d="M1.5,60A1.5,1.5,0,0,1,0,58.5v-38A20.52325,20.52325,0,0,1,20.5,0h19A20.52325,20.52325,0,0,1,60,20.5V30A20.52325,20.52325,0,0,1,39.5,50.5H11.62109L2.56055,59.56055A1.49967,1.49967,0,0,1,1.5,60Zm19-57A17.52,17.52,0,0,0,3,20.5V54.87891l6.93945-6.93945A1.50061,1.50061,0,0,1,11,47.5H39.5A17.52,17.52,0,0,0,57,30V20.5A17.52,17.52,0,0,0,39.5,3Z"/><path d="M38.0166,32.09375H21.98535a1.5,1.5,0,1,1,0-3H38.0166a1.5,1.5,0,0,1,0,3Z"/><path d="M40.68848,37.4375a1.50032,1.50032,0,0,1-1.34277-.8291L30,17.9165,20.6543,36.6084a1.50017,1.50017,0,0,1-2.68359-1.3418l10.6875-21.375a1.50032,1.50032,0,0,1,2.68359,0l10.6875,21.375a1.49986,1.49986,0,0,1-1.34082,2.1709Z"/></svg>