<svg id="Elements" xmlns="http://www.w3.org/2000/svg" viewBox="0 0 75 75"><title>alo_activities</title><g id="_Group_" data-name="&lt;Group&gt;"><path d="M37.5,53.5a16,16,0,1,1,16-16A16.01833,16.01833,0,0,1,37.5,53.5Zm0-30a14,14,0,1,0,14,14A14.01573,14.01573,0,0,0,37.5,23.5Z"/><path d="M33.125,46a3.50433,3.50433,0,0,1-3.5-3.46387l-0.62256-9.34473A4.12405,4.12405,0,1,1,37.25,33.125l-0.62744,9.44141A3.48714,3.48714,0,0,1,33.125,46Zm0-15A2.12722,2.12722,0,0,0,31,33.125l0.62256,9.30859C31.624,42.45605,31.625,42.47754,31.625,42.5a1.5,1.5,0,0,0,3,0l0.62744-9.44141A2.11812,2.11812,0,0,0,33.125,31Z"/><path d="M41.875,46a3.50433,3.50433,0,0,1-3.5-3.46387l-0.62256-9.34473A4.12405,4.12405,0,1,1,46,33.125l-0.62744,9.44141A3.48714,3.48714,0,0,1,41.875,46Zm0-15a2.12722,2.12722,0,0,0-2.125,2.125l0.62256,9.30859C40.374,42.45605,40.375,42.47754,40.375,42.5a1.5,1.5,0,0,0,3,0l0.62744-9.44141A2.11812,2.11812,0,0,0,41.875,31Z"/><path d="M33.125,41a0.99974,0.99974,0,0,1-1-1V35a1,1,0,0,1,2,0v5A0.99974,0.99974,0,0,1,33.125,41Z"/><path d="M41.875,41a0.99974,0.99974,0,0,1-1-1V35a1,1,0,0,1,2,0v5A0.99974,0.99974,0,0,1,41.875,41Z"/></g></svg>