<svg id="Elements" xmlns="http://www.w3.org/2000/svg" viewBox="0 0 75 75"><title>alo_activities</title><g id="_Group_" data-name="&lt;Group&gt;"><path d="M37.5,53.5a16,16,0,1,1,16-16A16.01833,16.01833,0,0,1,37.5,53.5Zm0-30a14,14,0,1,0,14,14A14.01573,14.01573,0,0,0,37.5,23.5Z"/><g id="_Group_2" data-name="&lt;Group&gt;"><path d="M30,46a0.99942,0.99942,0,0,1-1-1V31.25a1,1,0,0,1,2,0V45A0.99942,0.99942,0,0,1,30,46Z"/><path d="M43.75,31H31.25a1,1,0,0,1,0-2h12.5A1,1,0,0,1,43.75,31Z"/><path d="M34.375,34h-1.5a1,1,0,0,1,0-2h1.5A1,1,0,0,1,34.375,34Z"/><path d="M34.375,37h-1.5a1,1,0,0,1,0-2h1.5A1,1,0,0,1,34.375,37Z"/><path d="M34.375,40h-1.5a1,1,0,0,1,0-2h1.5A1,1,0,0,1,34.375,40Z"/><path d="M34.375,43h-1.5a1,1,0,0,1,0-2h1.5A1,1,0,0,1,34.375,43Z"/><path d="M39.625,37h-2.5a0.99942,0.99942,0,0,1-1-1V33a0.99942,0.99942,0,0,1,1-1h2.5a0.99942,0.99942,0,0,1,1,1v3A0.99942,0.99942,0,0,1,39.625,37Zm-1.5-2h0.5V34h-0.5v1Z"/><path d="M39.625,43h-2.5a0.99942,0.99942,0,0,1-1-1V39a0.99942,0.99942,0,0,1,1-1h2.5a0.99942,0.99942,0,0,1,1,1v3A0.99942,0.99942,0,0,1,39.625,43Zm-1.5-2h0.5V40h-0.5v1Z"/><path d="M42.5,46H30a1,1,0,0,1,0-2H42.5A1,1,0,0,1,42.5,46Z"/><path d="M45,44.75H42.5a1,1,0,0,1,0-2H44V31.25c0-.27539-0.5-0.27539-0.5,0a1,1,0,0,1-2,0,2.25,2.25,0,0,1,4.5,0v12.5A0.99942,0.99942,0,0,1,45,44.75Z"/><path d="M30,32.25a0.99942,0.99942,0,0,1-1-1A2.25309,2.25309,0,0,1,31.25,29a1,1,0,0,1,0,2,0.25048,0.25048,0,0,0-.25.25A0.99942,0.99942,0,0,1,30,32.25Z"/><path d="M42.5,46a0.99942,0.99942,0,0,1-1-1V31.25a1,1,0,0,1,2,0V45A0.99942,0.99942,0,0,1,42.5,46Z"/></g></g></svg>