<svg xmlns="http://www.w3.org/2000/svg" viewBox="0 0 60.00121 60.00121"><title>alo_icon_activity_games-medium</title><path d="M42.66723,60.00121a4.3217,4.3217,0,0,1-3.07617-1.27441L26.60668,45.74291a4.35588,4.35588,0,0,1-.00049-6.15186L39.59106,26.60668a4.35633,4.35633,0,0,1,6.15186-.00049L58.7268,39.59106a4.34924,4.34924,0,0,1,0,6.15186L45.74291,58.7268A4.32142,4.32142,0,0,1,42.66723,60.00121Zm0-31.668a1.34633,1.34633,0,0,0-.95508.395L28.72777,41.71215a1.35255,1.35255,0,0,0,.00049,1.90967L41.71215,56.6057h0a1.3521,1.3521,0,0,0,1.90967,0L56.6057,43.62182a1.3521,1.3521,0,0,0,0-1.90967L43.62182,28.72777A1.34759,1.34759,0,0,0,42.66723,28.33324Z"/><path d="M13.54027,33.7849a4.35321,4.35321,0,0,1-3.77441-2.17432L.58471,15.70776a4.34993,4.34993,0,0,1,1.5918-5.94189L18.07934.58471a4.34993,4.34993,0,0,1,5.94189,1.5918l9.18115,15.90283a4.35439,4.35439,0,0,1-1.5918,5.94189h0L15.70776,33.20238A4.323,4.323,0,0,1,13.54027,33.7849ZM20.2517,3.00121a1.34141,1.34141,0,0,0-.67236.18115L3.67651,12.36352a1.352,1.352,0,0,0-.49414,1.84424l9.18115,15.90283a1.35038,1.35038,0,0,0,1.84424.49414l15.90283-9.18115a1.35038,1.35038,0,0,0,.49414-1.84424L21.42358,3.67651a1.35307,1.35307,0,0,0-1.17187-.67529ZM30.86059,22.7224h0Z"/><path d="M42.66674,59.98559a1.49976,1.49976,0,0,1-1.5-1.5V26.84838a1.5,1.5,0,0,1,3,0V58.48559A1.49976,1.49976,0,0,1,42.66674,59.98559Z"/><path d="M58.48559,44.16674H26.84838a1.5,1.5,0,0,1,0-3H58.48559a1.5,1.5,0,0,1,0,3Z"/><path d="M32.17406,22.488a1.48871,1.48871,0,0,1-.38916-.05176l-30.55908-8.188a1.49984,1.49984,0,0,1,.77637-2.89746l30.55908,8.188a1.50022,1.50022,0,0,1-.38721,2.94922Z"/></svg>