<svg xmlns="http://www.w3.org/2000/svg" viewBox="0 0 60 59.99463"><title>alo_icon_activity_crafts-medium</title><path d="M36.64941,21.99951a10.99976,10.99976,0,1,1,11-11A11.01245,11.01245,0,0,1,36.64941,21.99951ZM36.64941,3a7.99976,7.99976,0,1,0,8,7.99951A8.00875,8.00875,0,0,0,36.64941,3Z"/><path d="M17.64941,40.999a1.50007,1.50007,0,0,1-1.5-1.5,6.257,6.257,0,0,1,6.25-6.25,3.25376,3.25376,0,0,0,3.25-3.25,11.01234,11.01234,0,0,1,11-10.99951,1.5,1.5,0,0,1,0,3,8.00875,8.00875,0,0,0-8,7.99951,6.257,6.257,0,0,1-6.25,6.25,3.25376,3.25376,0,0,0-3.25,3.25A1.50007,1.50007,0,0,1,17.64941,40.999Z"/><path d="M24.17383,59.99463a12.29209,12.29209,0,0,1-3.13867-.40771A1.49888,1.49888,0,0,1,19.96777,58.52,12.10041,12.10041,0,0,1,34.81934,43.66846a1.49925,1.49925,0,0,1,1.06641,1.06689A12.07637,12.07637,0,0,1,24.17383,59.99463Zm-1.49512-3.11914A9.08618,9.08618,0,0,0,33.1748,46.37939,9.0876,9.0876,0,0,0,22.67871,56.87549Z"/><path d="M34.43555,46.61865A1.5,1.5,0,0,1,33.375,44.05811l24.06445-24.064a1.49984,1.49984,0,0,1,2.12109,2.12109L35.49609,46.1792A1.49514,1.49514,0,0,1,34.43555,46.61865Z"/><path d="M45.6582,47.15771a1.49514,1.49514,0,0,1-1.06055-.43945L14.15625,16.27686a1.49984,1.49984,0,0,1,2.12109-2.12109L46.71875,44.59717a1.5,1.5,0,0,1-1.06055,2.56055Z"/><path d="M11.54,17.19385A15.70271,15.70271,0,0,1,.43945,12.63623a1.49945,1.49945,0,0,1,0-2.12109L10.51563.43945a1.49945,1.49945,0,0,1,2.12109,0A15.784,15.784,0,0,1,16.667,15.59961a1.49888,1.49888,0,0,1-1.06738,1.06689A15.8824,15.8824,0,0,1,11.54,17.19385ZM3.68359,11.51367a12.58092,12.58092,0,0,0,10.28223,2.45166A12.586,12.586,0,0,0,11.51465,3.68311Z"/></svg>