<svg xmlns="http://www.w3.org/2000/svg" viewBox="0 0 60 60"><title>alo_activities-groceries-medium</title><path d="M48.09375,60H11.90625A11.91935,11.91935,0,0,1,0,48.09375V20.5A1.50039,1.50039,0,0,1,1.5,19h57A1.50039,1.50039,0,0,1,60,20.5V48.09375A11.91935,11.91935,0,0,1,48.09375,60ZM3,22V48.09375A8.91607,8.91607,0,0,0,11.90625,57h36.1875A8.91607,8.91607,0,0,0,57,48.09375V22Z"/><path d="M30,44.7998c-8.68457,0-15.75-10.90039-15.75-24.2998a1.5,1.5,0,0,1,3,0c0,11.74512,5.71973,21.2998,12.75,21.2998S42.75,32.24512,42.75,20.5a1.5,1.5,0,0,1,3,0C45.75,33.89941,38.68457,44.7998,30,44.7998Z"/><path d="M21.9248,22a1.50039,1.50039,0,0,1-1.5-1.5V11.78418a1.5,1.5,0,1,1,3,0V20.5A1.50039,1.50039,0,0,1,21.9248,22Z"/><path d="M10.0498,22a1.50039,1.50039,0,0,1-1.5-1.5V11.78418a1.5,1.5,0,0,1,3,0V20.5A1.50039,1.50039,0,0,1,10.0498,22Z"/><path d="M10.04883,13.28418a1.49995,1.49995,0,0,1-1.16406-2.44531l5.9375-7.31543a1.50031,1.50031,0,1,1,2.33008,1.89063l-5.9375,7.31543A1.4984,1.4984,0,0,1,10.04883,13.28418Z"/><path d="M21.92578,13.28418a1.4984,1.4984,0,0,1-1.166-.55469l-5.9375-7.31543a1.50031,1.50031,0,0,1,2.33008-1.89062l5.9375,7.31543a1.49995,1.49995,0,0,1-1.16406,2.44531Z"/><path d="M15.9873,5.96875a1.50039,1.50039,0,0,1-1.5-1.5V1.5a1.5,1.5,0,1,1,3,0V4.46875A1.50039,1.50039,0,0,1,15.9873,5.96875Z"/><path d="M38.665,22a1.50011,1.50011,0,0,1-1.34961-2.15234c.78613-1.62793,1.65039-3.25879,2.56738-4.8457C43.68848,8.4082,51.26563-2.09082,55.54492.374,59.81641,2.83984,54.51465,14.65625,50.709,21.25a1.49982,1.49982,0,0,1-2.59766-1.5c5.167-8.95117,6.56934-15.52344,5.91895-16.75293-1.38965.05176-6.38086,4.55371-11.5498,13.50488-.87988,1.52441-1.709,3.08887-2.46387,4.65039A1.49878,1.49878,0,0,1,38.665,22Z"/></svg>