<svg xmlns="http://www.w3.org/2000/svg" viewBox="0 0 60 60"><title>alo_icon_activity_snowshoeing-medium</title><path d="M49,49.08105a1.50007,1.50007,0,0,1-1.5-1.5,8,8,0,0,0-16,0,1.5,1.5,0,0,1-3,0,11,11,0,0,1,22,0A1.50007,1.50007,0,0,1,49,49.08105Z"/><path d="M34.75781,40.8584a1.49667,1.49667,0,0,1-1.19531-.59277L24.05518,27.748a1.49983,1.49983,0,0,1,2.38867-1.81445l9.50732,12.51758a1.5,1.5,0,0,1-1.19336,2.40723Z"/><path d="M11,53.8291a1.50007,1.50007,0,0,1-1.5-1.5V1.5A1.50007,1.50007,0,0,1,11,0H25.24951a1.50007,1.50007,0,0,1,1.5,1.5V26.84082a1.5,1.5,0,0,1-3,0V3H12.5V52.3291A1.50007,1.50007,0,0,1,11,53.8291Z"/><path d="M25.24951,28.34082H11a1.5,1.5,0,1,1,0-3H25.24951a1.5,1.5,0,0,1,0,3Z"/><path d="M58.5,53.8291H1.5a1.5,1.5,0,0,1,0-3h57a1.5,1.5,0,0,1,0,3Z"/><path d="M7.4375,60a1.50007,1.50007,0,0,1-1.5-1.5V52.3291a1.5,1.5,0,0,1,3,0V58.5A1.50007,1.50007,0,0,1,7.4375,60Z"/><path d="M18.71875,60a1.50007,1.50007,0,0,1-1.5-1.5V52.3291a1.5,1.5,0,0,1,3,0V58.5A1.50007,1.50007,0,0,1,18.71875,60Z"/><path d="M30,60a1.50007,1.50007,0,0,1-1.5-1.5V52.3291a1.5,1.5,0,0,1,3,0V58.5A1.50007,1.50007,0,0,1,30,60Z"/><path d="M30,53.8291a1.50007,1.50007,0,0,1-1.5-1.5v-4.748a1.5,1.5,0,0,1,3,0v4.748A1.50007,1.50007,0,0,1,30,53.8291Z"/><path d="M49,53.8291a1.50007,1.50007,0,0,1-1.5-1.5v-4.748a1.5,1.5,0,0,1,3,0v4.748A1.50007,1.50007,0,0,1,49,53.8291Z"/><path d="M41.28125,60a1.50007,1.50007,0,0,1-1.5-1.5V52.3291a1.5,1.5,0,0,1,3,0V58.5A1.50007,1.50007,0,0,1,41.28125,60Z"/><path d="M52.5625,60a1.50007,1.50007,0,0,1-1.5-1.5V52.3291a1.5,1.5,0,0,1,3,0V58.5A1.50007,1.50007,0,0,1,52.5625,60Z"/><path d="M22.75146,39.18652a1.5,1.5,0,0,1-.9082-2.69434l6.80859-5.17187A1.49983,1.49983,0,1,1,30.46631,33.709l-6.80859,5.17188A1.49248,1.49248,0,0,1,22.75146,39.18652Z"/></svg>