<svg id="Elements" xmlns="http://www.w3.org/2000/svg" viewBox="0 0 75 75"><title>alo_activities</title><path d="M37.5,53.5a16,16,0,1,1,16-16A16.01833,16.01833,0,0,1,37.5,53.5Zm0-30a14,14,0,1,0,14,14A14.01573,14.01573,0,0,0,37.5,23.5Z"/><g id="_Group_" data-name="&lt;Group&gt;"><path d="M42.50391,39.23242a1.00121,1.00121,0,0,1-.93994-0.65869l-2.17041-5.96387a1.00016,1.00016,0,1,1,1.87988-.68359l2.17041,5.96387A1.001,1.001,0,0,1,42.50391,39.23242Z"/><path d="M42.50391,41.73193a3.5,3.5,0,1,1,3.5-3.5A3.50425,3.50425,0,0,1,42.50391,41.73193Zm0-5a1.5,1.5,0,1,0,1.5,1.5A1.50164,1.50164,0,0,0,42.50391,36.73193Z"/><path d="M32.50391,41.73193a3.5,3.5,0,1,1,3.5-3.5A3.50425,3.50425,0,0,1,32.50391,41.73193Zm0-5a1.5,1.5,0,1,0,1.5,1.5A1.50164,1.50164,0,0,0,32.50391,36.73193Z"/><path d="M37.00391,39.23193h-4.5a1,1,0,0,1,0-2h4.5A1,1,0,0,1,37.00391,39.23193Z"/><path d="M37.00488,39.23193a1,1,0,0,1-.59961-1.80078L40.729,34.19873a0.99981,0.99981,0,0,1,1.19727,1.60156l-4.32373,3.23242A0.99555,0.99555,0,0,1,37.00488,39.23193Z"/><path d="M36.19434,36.2583a1.00073,1.00073,0,0,1-.93994-0.65869L34.35449,33.126a0.99987,0.99987,0,0,1,1.87891-.68457L37.13428,34.916A1.001,1.001,0,0,1,36.19434,36.2583Z"/><path d="M36.19287,36.25781A0.99993,0.99993,0,0,1,36.03955,34.27l4.94482-.77588a0.99985,0.99985,0,0,1,.30957,1.97559l-4.94482.77588A0.99546,0.99546,0,0,1,36.19287,36.25781Z"/><path d="M36.54395,33.78369h-2.5a1,1,0,0,1,0-2h2.5A1,1,0,0,1,36.54395,33.78369Z"/><path d="M43.3335,33.26807h-3a1,1,0,0,1,0-2h3A1,1,0,0,1,43.3335,33.26807Z"/></g></svg>