<svg id="Elements" xmlns="http://www.w3.org/2000/svg" viewBox="0 0 75 75"><title>alo_activities</title><path d="M37.5,53.5a16,16,0,1,1,16-16A16.01833,16.01833,0,0,1,37.5,53.5Zm0-30a14,14,0,1,0,14,14A14.01573,14.01573,0,0,0,37.5,23.5Z"/><g id="_Group_" data-name="&lt;Group&gt;"><path d="M33.81934,44.30176h0a0.99928,0.99928,0,0,1-.707-0.293l-2.12109-2.12158a0.99964,0.99964,0,0,1,0-1.41406L42.17188,29.293a0.99964,0.99964,0,0,1,1.41406,0L45.707,31.41406a0.99964,0.99964,0,0,1,0,1.41406L34.52637,44.00879A0.99928,0.99928,0,0,1,33.81934,44.30176Zm-0.707-3.12158,0.707,0.70752,9.7666-9.7666-0.707-.707Z"/><path d="M42.17188,35.94971a0.99676,0.99676,0,0,1-.707-0.293l-2.12207-2.12109a0.99989,0.99989,0,0,1,1.41406-1.41406l2.12207,2.12109A1,1,0,0,1,42.17188,35.94971Z"/><path d="M30,46a1,1,0,0,1-.707-1.707l2.75879-2.75928a0.99989,0.99989,0,0,1,1.41406,1.41406L30.707,45.707A0.99676,0.99676,0,0,1,30,46Z"/></g></svg>