<svg id="Elements" xmlns="http://www.w3.org/2000/svg" viewBox="0 0 75 75"><title>alo_activities</title><g id="_Group_" data-name="&lt;Group&gt;"><path d="M37,53.5a16,16,0,1,1,16-16A16.01833,16.01833,0,0,1,37,53.5Zm0-30a14,14,0,1,0,14,14A14.01573,14.01573,0,0,0,37,23.5Z"/><g id="_Group_2" data-name="&lt;Group&gt;"><path d="M37,45.44629a0.99676,0.99676,0,0,1-.707-0.293l-6.58984-6.58984a4.10643,4.10643,0,1,1,5.80762-5.80713L37,34.24561l1.48926-1.48926a4.10643,4.10643,0,1,1,5.80762,5.80713L37.707,45.15332A0.99676,0.99676,0,0,1,37,45.44629ZM32.60645,33.55322a2.10613,2.10613,0,0,0-1.48926,3.5957L37,43.03223l5.88281-5.88281a2.10536,2.10536,0,0,0,0-2.97852,2.15649,2.15649,0,0,0-2.97949-.00049L37.707,36.3667a0.99964,0.99964,0,0,1-1.41406,0l-2.19629-2.19629A2.09548,2.09548,0,0,0,32.60645,33.55322Z"/></g></g></svg>