<svg xmlns="http://www.w3.org/2000/svg" viewBox="0 0 59.99255 60"><title>alo_icon_activity_petanque-medium</title><path d="M44.24255,60a15.75,15.75,0,1,1,15.75-15.75A15.76785,15.76785,0,0,1,44.24255,60Zm0-28.5a12.75,12.75,0,1,0,12.75,12.75A12.76457,12.76457,0,0,0,44.24255,31.5Z"/><path d="M32.39832,53.66895a1.50037,1.50037,0,0,1-.752-2.79932q.42993-.24829.87158-.48145a1.49983,1.49983,0,0,1,1.39551,2.65527q-.38818.20435-.76611.42383A1.49725,1.49725,0,0,1,32.39832,53.66895Z"/><path d="M55.26794,53.21631a1.49719,1.49719,0,0,1-.69629-.17236,22.0843,22.0843,0,0,0-5.30029-1.96631,1.5,1.5,0,0,1,.67578-2.92285,25.12313,25.12313,0,0,1,6.02,2.23291,1.50042,1.50042,0,0,1-.69922,2.82861Z"/><path d="M49.61072,51.1167a1.495,1.495,0,0,1-.33887-.03906,22.284,22.284,0,0,0-10.05859,0,1.49987,1.49987,0,1,1-.6748-2.92285,25.283,25.283,0,0,1,11.4082,0,1.50022,1.50022,0,0,1-.33594,2.96191Z"/><path d="M33.21716,53.21631a1.50042,1.50042,0,0,1-.69922-2.82861,25.12313,25.12313,0,0,1,6.02-2.23291,1.5,1.5,0,0,1,.67578,2.92285,22.0843,22.0843,0,0,0-5.30029,1.96631A1.49719,1.49719,0,0,1,33.21716,53.21631Z"/><path d="M56.08679,53.66895a1.49225,1.49225,0,0,1-.749-.20166q-.37866-.219-.76611-.42383a1.49983,1.49983,0,0,1,1.39551-2.65527q.44238.23218.87158.48145a1.50037,1.50037,0,0,1-.752,2.79932Z"/><path d="M55.27087,38.28467a1.50029,1.50029,0,0,1-.69922-2.82812q.38818-.20435.76611-.42383a1.50006,1.50006,0,0,1,1.501,2.59766q-.42993.24829-.87158.48145A1.4919,1.4919,0,0,1,55.27087,38.28467Z"/><path d="M49.60779,40.38428a1.50027,1.50027,0,0,1-.33643-2.96191,22.0843,22.0843,0,0,0,5.30029-1.96631,1.50026,1.50026,0,1,1,1.39551,2.65625,25.12313,25.12313,0,0,1-6.02,2.23291A1.50237,1.50237,0,0,1,49.60779,40.38428Z"/><path d="M38.87732,40.38428a1.50237,1.50237,0,0,1-.33936-.03906,25.12313,25.12313,0,0,1-6.02-2.23291,1.50026,1.50026,0,1,1,1.39551-2.65625,22.0843,22.0843,0,0,0,5.30029,1.96631,1.50027,1.50027,0,0,1-.33643,2.96191Z"/><path d="M33.21423,38.28467a1.4919,1.4919,0,0,1-.69629-.17285q-.44238-.23218-.87158-.48145a1.50006,1.50006,0,0,1,1.501-2.59766q.37866.219.76611.42383a1.50029,1.50029,0,0,1-.69922,2.82813Z"/><path d="M44.24255,41a25.383,25.383,0,0,1-5.7041-.65479,1.49987,1.49987,0,1,1,.6748-2.92285,22.284,22.284,0,0,0,10.05859,0,1.49987,1.49987,0,0,1,.6748,2.92285A25.383,25.383,0,0,1,44.24255,41Z"/><path d="M44.24255,12.5a6.25,6.25,0,1,1,6.25-6.25A6.257,6.257,0,0,1,44.24255,12.5Zm0-9.5a3.25,3.25,0,1,0,3.25,3.25A3.25376,3.25376,0,0,0,44.24255,3Z"/><path d="M15.74255,36.24268a15.74268,15.74268,0,1,1,11.13672-4.606A15.70124,15.70124,0,0,1,15.74255,36.24268Zm0-28.48633a12.74366,12.74366,0,1,0,9.01563,3.728A12.71121,12.71121,0,0,0,15.74255,7.75635Z"/><path d="M2.66638,19.48242a1.49189,1.49189,0,0,1-.4458-.06836c-.2793-.08643-.56006-.1665-.8418-.24219a1.49984,1.49984,0,0,1,.77637-2.89746c.31982.08545.63867.17627.95605.27539a1.5002,1.5002,0,0,1-.44482,2.93262Z"/><path d="M18.26013,35.07715a1.50047,1.50047,0,0,1-1.43164-1.05469,22.09927,22.09927,0,0,0-2.3584-5.13867A1.50009,1.50009,0,0,1,17.015,27.29492a25.10256,25.10256,0,0,1,2.67773,5.83594,1.5016,1.5016,0,0,1-1.43262,1.94629Z"/><path d="M15.744,29.58936a1.49912,1.49912,0,0,1-1.27393-.70557,22.32469,22.32469,0,0,0-3.147-3.96387,22.32616,22.32616,0,0,0-3.96436-3.14746,1.50009,1.50009,0,0,1,1.58887-2.54492,25.36522,25.36522,0,0,1,4.49707,3.5708A25.36375,25.36375,0,0,1,17.015,27.29492a1.5,1.5,0,0,1-1.271,2.29443Z"/><path d="M8.15173,22a1.49182,1.49182,0,0,1-.793-.22754,22.09927,22.09927,0,0,0-5.13867-2.3584,1.49991,1.49991,0,1,1,.8916-2.86426,25.10256,25.10256,0,0,1,5.83594,2.67773A1.5,1.5,0,0,1,8.15173,22Z"/><path d="M18.51843,35.97607a1.50012,1.50012,0,0,1-1.44775-1.1123c-.07568-.28174-.15576-.5625-.24219-.8418a1.49977,1.49977,0,1,1,2.86426-.89062c.09912.31738.18994.63623.27539.95605a1.50206,1.50206,0,0,1-1.44971,1.88867Z"/><path d="M29.71912,24.77734a1.48871,1.48871,0,0,1-.38916-.05176c-.31982-.08545-.63867-.17627-.95605-.27539a1.49977,1.49977,0,1,1,.89063-2.86426c.2793.08643.56006.1665.8418.24219a1.50022,1.50022,0,0,1-.38721,2.94922Z"/><path d="M28.8197,24.51855a1.495,1.495,0,0,1-.44629-.06836,25.10256,25.10256,0,0,1-5.83594-2.67773,1.50009,1.50009,0,1,1,1.58887-2.54492,22.09927,22.09927,0,0,0,5.13867,2.3584,1.50026,1.50026,0,0,1-.44531,2.93262Z"/><path d="M15.744,14.41064a1.49912,1.49912,0,0,1-1.27393-.70557,25.10256,25.10256,0,0,1-2.67773-5.83594,1.49991,1.49991,0,1,1,2.86426-.8916,22.09927,22.09927,0,0,0,2.3584,5.13867,1.5,1.5,0,0,1-1.271,2.29443Z"/><path d="M13.224,8.92383a1.49986,1.49986,0,0,1-1.43164-1.05518c-.09912-.31738-.18994-.63623-.27539-.95605a1.49984,1.49984,0,0,1,2.89746-.77637c.07568.28174.15576.5625.24219.8418A1.50188,1.50188,0,0,1,13.224,8.92383Z"/><path d="M23.33044,22a1.49182,1.49182,0,0,1-.793-.22754,25.36522,25.36522,0,0,1-4.49707-3.5708,25.36375,25.36375,0,0,1-3.57031-4.49658A1.50009,1.50009,0,0,1,17.015,12.11621a22.32469,22.32469,0,0,0,3.147,3.96387,22.32616,22.32616,0,0,0,3.96436,3.14746A1.5,1.5,0,0,1,23.33044,22Z"/></svg>