<svg id="Elements" xmlns="http://www.w3.org/2000/svg" viewBox="0 0 75 75"><title>alo_activities</title><path d="M37.5,53.5a16,16,0,1,1,16-16A16.01833,16.01833,0,0,1,37.5,53.5Zm0-30a14,14,0,1,0,14,14A14.01573,14.01573,0,0,0,37.5,23.5Z"/><g id="_Group_" data-name="&lt;Group&gt;"><path d="M44.89941,45H30.0293a1,1,0,0,1,0-2H44.89941A1,1,0,0,1,44.89941,45Z"/><path d="M43.73145,38.5H31.26855a1,1,0,0,1,0-2H43.73145A1,1,0,0,1,43.73145,38.5Z"/><path d="M43.47461,35.08643H31.45508a1,1,0,1,1,0-2H43.47461A1,1,0,0,1,43.47461,35.08643Z"/><path d="M43.47363,35.08643a0.99761,0.99761,0,0,1-.64551-0.23682l-6.00977-5.08643a1.0002,1.0002,0,1,1,1.293-1.52637l6.00977,5.08643A1,1,0,0,1,43.47363,35.08643Z"/><path d="M31.45605,35.08643a1,1,0,0,1-.64746-1.76318l6.00977-5.08643a1.0002,1.0002,0,1,1,1.293,1.52637l-6.00977,5.08643A0.99761,0.99761,0,0,1,31.45605,35.08643Z"/><path d="M37.46484,45a0.99974,0.99974,0,0,1-1-1V37.5a1,1,0,0,1,2,0V44A0.99974,0.99974,0,0,1,37.46484,45Z"/><path d="M33.50781,45a0.99974,0.99974,0,0,1-1-1V37.5a1,1,0,0,1,2,0V44A0.99974,0.99974,0,0,1,33.50781,45Z"/><path d="M41.42188,45a0.99974,0.99974,0,0,1-1-1V37.5a1,1,0,0,1,2,0V44A0.99974,0.99974,0,0,1,41.42188,45Z"/><path d="M45,39.769a0.99974,0.99974,0,0,1-1-1,0.26882,0.26882,0,0,0-.26855-0.269,1,1,0,0,1,0-2A2.27142,2.27142,0,0,1,46,38.769,0.99974,0.99974,0,0,1,45,39.769Z"/><path d="M30,39.769a0.99974,0.99974,0,0,1-1-1A2.27142,2.27142,0,0,1,31.26855,36.5a1,1,0,1,1,0,2A0.26882,0.26882,0,0,0,31,38.769,0.99974,0.99974,0,0,1,30,39.769Z"/></g></svg>