<svg xmlns="http://www.w3.org/2000/svg" viewBox="0 0 60 60"><title>alo_icon_activity_dance-medium</title><path d="M30,50.5A20.5,20.5,0,1,1,50.5,30,20.52325,20.52325,0,0,1,30,50.5Zm0-38A17.5,17.5,0,1,0,47.5,30,17.52,17.52,0,0,0,30,12.5Z"/><path d="M23.30029,38.19824a1.50033,1.50033,0,0,1-1.48779-1.32617A58.95982,58.95982,0,0,1,21.375,30a58.95982,58.95982,0,0,1,.4375-6.87207,1.49985,1.49985,0,1,1,2.97949.34766A56.02455,56.02455,0,0,0,24.375,30a56.02455,56.02455,0,0,0,.417,6.52441,1.50048,1.50048,0,0,1-1.31543,1.66406A1.53542,1.53542,0,0,1,23.30029,38.19824Z"/><path d="M26.03418,50.07813a1.50047,1.50047,0,0,1-1.418-1.01074A58.25384,58.25384,0,0,1,21.8125,36.873a1.5,1.5,0,1,1,2.97949-.34961,55.28717,55.28717,0,0,0,2.66016,11.56543,1.5,1.5,0,0,1-1.418,1.98926Z"/><path d="M23.3042,24.80176a1.54386,1.54386,0,0,1-.17676-.00977,1.5007,1.5007,0,0,1-1.31494-1.665,58.25384,58.25384,0,0,1,2.80371-12.19434,1.5,1.5,0,0,1,2.83594.97852A55.28717,55.28717,0,0,0,24.792,23.47656,1.49983,1.49983,0,0,1,23.3042,24.80176Z"/><path d="M33.96582,50.07813a1.5,1.5,0,0,1-1.418-1.98926A55.28717,55.28717,0,0,0,35.208,36.52344a1.5,1.5,0,1,1,2.97949.34961,58.25384,58.25384,0,0,1-2.80371,12.19434A1.50047,1.50047,0,0,1,33.96582,50.07813Z"/><path d="M36.69971,38.19824a1.53542,1.53542,0,0,1-.17627-.00977A1.50048,1.50048,0,0,1,35.208,36.52441,56.02455,56.02455,0,0,0,35.625,30a56.02455,56.02455,0,0,0-.417-6.52441,1.49985,1.49985,0,1,1,2.97949-.34766A58.95982,58.95982,0,0,1,38.625,30a58.95982,58.95982,0,0,1-.4375,6.87207A1.50033,1.50033,0,0,1,36.69971,38.19824Z"/><path d="M36.6958,24.80176a1.49983,1.49983,0,0,1-1.48779-1.3252,55.28717,55.28717,0,0,0-2.66016-11.56543,1.5,1.5,0,1,1,2.83594-.97852A58.25384,58.25384,0,0,1,38.1875,23.127a1.5007,1.5007,0,0,1-1.31494,1.665A1.53778,1.53778,0,0,1,36.6958,24.80176Z"/><path d="M48.5791,27.53418a1.50933,1.50933,0,0,1-.48975-.082A55.18473,55.18473,0,0,0,36.52295,24.792a1.50045,1.50045,0,0,1,.34961-2.98047,58.2828,58.2828,0,0,1,12.19629,2.80469,1.50009,1.50009,0,0,1-.48975,2.918Z"/><path d="M36.69971,24.80176a1.54386,1.54386,0,0,1-.17676-.00977A55.87893,55.87893,0,0,0,30,24.375a55.87893,55.87893,0,0,0-6.52295.417,1.50045,1.50045,0,0,1-.34961-2.98047A58.83269,58.83269,0,0,1,30,21.375a58.83269,58.83269,0,0,1,6.87256.43652,1.50024,1.50024,0,0,1-.17285,2.99023Z"/><path d="M11.42188,27.53418a1.50009,1.50009,0,0,1-.48975-2.918,58.253,58.253,0,0,1,12.19531-2.80469,1.50045,1.50045,0,0,1,.34961,2.98047,55.155,55.155,0,0,0-11.56543,2.66016A1.50718,1.50718,0,0,1,11.42188,27.53418Z"/><path d="M30,38.625a58.83269,58.83269,0,0,1-6.87256-.43652,1.50045,1.50045,0,0,1,.34961-2.98047A55.87893,55.87893,0,0,0,30,35.625a55.87893,55.87893,0,0,0,6.52295-.417,1.50045,1.50045,0,0,1,.34961,2.98047A58.83269,58.83269,0,0,1,30,38.625Z"/><path d="M36.6958,38.19824a1.50024,1.50024,0,0,1-.17285-2.99023,55.18473,55.18473,0,0,0,11.56641-2.66016,1.50016,1.50016,0,0,1,.97949,2.83594,58.2828,58.2828,0,0,1-12.19629,2.80469A1.54386,1.54386,0,0,1,36.6958,38.19824Z"/><path d="M23.3042,38.19824a1.54386,1.54386,0,0,1-.17676-.00977,58.253,58.253,0,0,1-12.19531-2.80469,1.50016,1.50016,0,0,1,.97949-2.83594A55.155,55.155,0,0,0,23.47705,35.208a1.50024,1.50024,0,0,1-.17285,2.99023Z"/><path d="M30,12.5A1.50007,1.50007,0,0,1,28.5,11V1.5a1.5,1.5,0,0,1,3,0V11A1.50007,1.50007,0,0,1,30,12.5Z"/><path d="M30,60a1.50007,1.50007,0,0,1-1.5-1.5V57.3125a1.5,1.5,0,0,1,3,0V58.5A1.50007,1.50007,0,0,1,30,60Z"/><path d="M49.313,12.1875A1.50024,1.50024,0,0,1,48.252,9.627l.83936-.83984a1.50019,1.50019,0,0,1,2.12207,2.12109L50.374,11.748A1.49625,1.49625,0,0,1,49.313,12.1875Z"/><path d="M9.84766,51.65234a1.50024,1.50024,0,0,1-1.061-2.56055L9.626,48.252A1.50019,1.50019,0,0,1,11.748,50.373l-.83936.83984A1.49625,1.49625,0,0,1,9.84766,51.65234Z"/><path d="M58.5,31.5H57.3125a1.5,1.5,0,0,1,0-3H58.5a1.5,1.5,0,0,1,0,3Z"/><path d="M2.6875,31.5H1.5a1.5,1.5,0,0,1,0-3H2.6875a1.5,1.5,0,0,1,0,3Z"/><path d="M50.15234,51.65234a1.49542,1.49542,0,0,1-1.061-.43945L48.252,50.373A1.50019,1.50019,0,0,1,50.374,48.252l.83936.83984a1.50024,1.50024,0,0,1-1.061,2.56055Z"/><path d="M10.687,12.1875A1.49542,1.49542,0,0,1,9.626,11.748l-.83936-.83984a1.50019,1.50019,0,0,1,2.12207-2.12109L11.748,9.627a1.50024,1.50024,0,0,1-1.061,2.56055Z"/></svg>