<svg xmlns="http://www.w3.org/2000/svg" viewBox="0 0 60 60.00049"><title>alo_icon_activity_communication-medium</title><path d="M30,30.27734a8.625,8.625,0,1,1,8.625-8.625A8.63474,8.63474,0,0,1,30,30.27734Zm0-14.25a5.625,5.625,0,1,0,5.625,5.625A5.63146,5.63146,0,0,0,30,16.02734Z"/><path d="M42.59521,35.748a1.5,1.5,0,0,1-1.06055-2.56055,16.313,16.313,0,0,0,0-23.06982,1.49984,1.49984,0,0,1,2.12109-2.12109,19.31194,19.31194,0,0,1,0,27.312A1.49514,1.49514,0,0,1,42.59521,35.748Z"/><path d="M17.40479,35.748a1.49514,1.49514,0,0,1-1.06055-.43945,19.31194,19.31194,0,0,1,0-27.312,1.49984,1.49984,0,0,1,2.12109,2.12109,16.313,16.313,0,0,0,0,23.06982A1.5,1.5,0,0,1,17.40479,35.748Z"/><path d="M50.15234,43.30518a1.5,1.5,0,0,1-1.06055-2.56055,27.00017,27.00017,0,0,0,0-38.18408A1.49984,1.49984,0,0,1,51.21289.43945a29.99908,29.99908,0,0,1,0,42.42627A1.49514,1.49514,0,0,1,50.15234,43.30518Z"/><path d="M9.84766,43.30518a1.49514,1.49514,0,0,1-1.06055-.43945,29.99908,29.99908,0,0,1,0-42.42627A1.49984,1.49984,0,0,1,10.9082,2.56055a27.00017,27.00017,0,0,0,0,38.18408,1.5,1.5,0,0,1-1.06055,2.56055Z"/><path d="M15.749,60.00049a1.501,1.501,0,0,1-1.35156-2.14893l14.25-29.72266a1.49994,1.49994,0,1,1,2.70508,1.29688l-14.25,29.72266A1.49971,1.49971,0,0,1,15.749,60.00049Z"/><path d="M44.251,60.00049a1.49971,1.49971,0,0,1-1.35352-.85205l-14.25-29.72266a1.49994,1.49994,0,0,1,2.70508-1.29687l14.25,29.72266A1.501,1.501,0,0,1,44.251,60.00049Z"/><path d="M49,60H44.25a1.5,1.5,0,0,1,0-3H49a1.5,1.5,0,0,1,0,3Z"/><path d="M15.75,60H11a1.5,1.5,0,0,1,0-3h4.75a1.5,1.5,0,0,1,0,3Z"/></svg>