<svg id="Elements" xmlns="http://www.w3.org/2000/svg" viewBox="0 0 75 75"><title>alo_activities</title><path d="M37.5,53.5a16,16,0,1,1,16-16A16.01833,16.01833,0,0,1,37.5,53.5Zm0-30a14,14,0,1,0,14,14A14.01573,14.01573,0,0,0,37.5,23.5Z"/><g id="_Group_" data-name="&lt;Group&gt;"><path d="M40.83154,45.88867a1.98466,1.98466,0,0,1-1.41406-.58594L36.356,42.2417a2.00237,2.00237,0,0,1,0-2.82812l3.06152-3.06152a2.00222,2.00222,0,0,1,2.82764-.00049l3.06152,3.062a1.99927,1.99927,0,0,1,0,2.82813l-3.061,3.061A1.98634,1.98634,0,0,1,40.83154,45.88867Zm0-8.12256L37.77,40.82764l3.06152,3.061L40.832,43.88916l0.001,0.00049,3.05957-3.062Z"/><path d="M33.25586,38.99854a2.00492,2.00492,0,0,1-1.73535-1.00146L29.356,34.24854a2.00018,2.00018,0,0,1,.73193-2.73193l3.749-2.16455a2.00234,2.00234,0,0,1,2.73193.73145l2.165,3.74951a2.00268,2.00268,0,0,1-.73291,2.73242L34.25244,38.73A1.9875,1.9875,0,0,1,33.25586,38.99854ZM34.83691,31.084l-3.749,2.165,2.165,3.74854L37.00146,34.833H37.002l0.001-.00049Z"/><path d="M40.83154,45.98828a1,1,0,0,1-1-1V36.667a1,1,0,0,1,2,0v8.32129A1,1,0,0,1,40.83154,45.98828Z"/><path d="M38.06445,36.11816a0.99427,0.99427,0,0,1-.25928-0.03467l-8.03809-2.15381a0.99989,0.99989,0,1,1,.51758-1.93164l8.03809,2.15381A1.00024,1.00024,0,0,1,38.06445,36.11816Z"/></g></svg>