<svg xmlns="http://www.w3.org/2000/svg" viewBox="0 0 60 60"><title>alo_activities-intergenerational-medium</title><path d="M30,31.5A1.50039,1.50039,0,0,1,28.5,30,27.03078,27.03078,0,0,0,1.5,3a1.5,1.5,0,0,1,0-3,30.03406,30.03406,0,0,1,30,30A1.50039,1.50039,0,0,1,30,31.5Z"/><path d="M24.2998,25.7998A24.32674,24.32674,0,0,1,0,1.5a1.5,1.5,0,0,1,3,0A21.32346,21.32346,0,0,0,24.2998,22.7998a21.3823,21.3823,0,0,0,4.67188-.53125,1.50019,1.50019,0,1,1,.65625,2.92773A24.40348,24.40348,0,0,1,24.2998,25.7998Z"/><path d="M10.748,21.30273a1.53893,1.53893,0,0,1-.28125-.02637,1.49961,1.49961,0,0,1-1.19434-1.75293,12.90136,12.90136,0,0,1,12.667-10.48437c.10449,0,.208.00586.31152.01367a1.54168,1.54168,0,0,1,1.498,1.55078,1.44624,1.44624,0,0,1-1.5,1.45313l-.21094-.01172h-.0127A9.91389,9.91389,0,0,0,12.21973,20.082,1.50027,1.50027,0,0,1,10.748,21.30273Z"/><path d="M49.19727,50.69727a1.49514,1.49514,0,0,1-1.06055-.43945L38.06055,40.18066a1.49984,1.49984,0,0,1,2.12109-2.12109L50.25781,48.13672a1.5,1.5,0,0,1-1.06055,2.56055Z"/><path d="M24.002,60a5.77,5.77,0,0,1-4.084-9.85352A56.553,56.553,0,0,1,37.97363,37.97266,56.51451,56.51451,0,0,1,50.14648,19.918a5.77494,5.77494,0,0,1,8.167,8.167A56.53813,56.53813,0,0,1,40.25879,40.25879,56.53813,56.53813,0,0,1,28.085,58.31348h0A5.73082,5.73082,0,0,1,24.002,60ZM36.09668,42.13574A53.6147,53.6147,0,0,0,22.03906,52.26758a2.77936,2.77936,0,0,0,0,3.9248,2.8556,2.8556,0,0,0,3.9248,0h0A53.61976,53.61976,0,0,0,36.09668,42.13574Zm18.13379-20.9082a2.76732,2.76732,0,0,0-1.96289.81152A53.6022,53.6022,0,0,0,42.13574,36.09668,53.61976,53.61976,0,0,0,56.19238,25.96387a2.77393,2.77393,0,0,0-1.96191-4.73633Z"/></svg>