<svg xmlns="http://www.w3.org/2000/svg" viewBox="0 0 60 60"><title>alo_icon_activity_seminar-medium</title><path d="M58.5,45.75H1.5A1.50007,1.50007,0,0,1,0,44.25v-38a1.49976,1.49976,0,0,1,1.5-1.5h57A1.49976,1.49976,0,0,1,60,6.25v38A1.50007,1.50007,0,0,1,58.5,45.75ZM3,42.75H57v-35H3Z"/><path d="M30,7.75a1.49976,1.49976,0,0,1-1.5-1.5V1.5a1.5,1.5,0,0,1,3,0V6.25A1.49976,1.49976,0,0,1,30,7.75Z"/><path d="M30,60a1.50007,1.50007,0,0,1-1.5-1.5V44.25a1.5,1.5,0,0,1,3,0V58.5A1.50007,1.50007,0,0,1,30,60Z"/><path d="M39.5,60h-19a1.5,1.5,0,0,1,0-3h19a1.5,1.5,0,0,1,0,3Z"/><path d="M52.939,55.89746a1.49514,1.49514,0,0,1-1.06055-.43945L28.53027,32.11035a1.49984,1.49984,0,1,1,2.12109-2.12109L53.99951,53.33691A1.5,1.5,0,0,1,52.939,55.89746Z"/><path d="M31.4248,19.1499h-19a1.5,1.5,0,1,1,0-3h19a1.5,1.5,0,1,1,0,3Z"/><path d="M21.9248,27.7002h-9.5a1.5,1.5,0,1,1,0-3h9.5a1.5,1.5,0,0,1,0,3Z"/></svg>