<svg xmlns="http://www.w3.org/2000/svg" viewBox="0 0 60.00065 60.00079"><title>alo_icon_activity_reading-medium</title><path d="M58.49935,60a1.49447,1.49447,0,0,1-.90039-.30078,22.251,22.251,0,0,0-26.69727,0A1.5002,1.5002,0,0,1,29.099,57.30078a25.25293,25.25293,0,0,1,30.30273,0A1.50018,1.50018,0,0,1,58.49935,60Z"/><path d="M29.99935,60a1.49447,1.49447,0,0,1-.90039-.30078,22.251,22.251,0,0,0-26.69727,0A1.5002,1.5002,0,0,1,.599,57.30078a25.25293,25.25293,0,0,1,30.30273,0A1.50018,1.50018,0,0,1,29.99935,60Z"/><path d="M58.49935,7.74951a1.49447,1.49447,0,0,1-.90039-.30078,22.251,22.251,0,0,0-26.69727,0A1.5002,1.5002,0,0,1,29.099,5.05029a25.25293,25.25293,0,0,1,30.30273,0,1.50018,1.50018,0,0,1-.90234,2.69922Z"/><path d="M49.34505,23.62988a1.49629,1.49629,0,0,1-.48242-.08008,14.46351,14.46351,0,0,0-9.22461,0,1.5001,1.5001,0,0,1-.96484-2.84082,17.48478,17.48478,0,0,1,11.1543,0,1.5004,1.5004,0,0,1-.48242,2.9209Z"/><path d="M39.1556,33.12988a1.5004,1.5004,0,0,1-.48242-2.9209,17.28746,17.28746,0,0,1,5.57715-.91748,1.5,1.5,0,0,1,0,3,14.2907,14.2907,0,0,0-4.6123.7583A1.49629,1.49629,0,0,1,39.1556,33.12988Z"/><path d="M20.84505,14.12988a1.49629,1.49629,0,0,1-.48242-.08008,14.46351,14.46351,0,0,0-9.22461,0,1.5001,1.5001,0,0,1-.96484-2.84082,17.48478,17.48478,0,0,1,11.1543,0,1.5004,1.5004,0,0,1-.48242,2.9209Z"/><path d="M20.84505,33.12988a1.49629,1.49629,0,0,1-.48242-.08008,14.46351,14.46351,0,0,0-9.22461,0,1.5001,1.5001,0,0,1-.96484-2.84082,17.48478,17.48478,0,0,1,11.1543,0,1.5004,1.5004,0,0,1-.48242,2.9209Z"/><path d="M20.84505,23.62988a1.49629,1.49629,0,0,1-.48242-.08008,14.46351,14.46351,0,0,0-9.22461,0,1.5001,1.5001,0,0,1-.96484-2.84082,17.48478,17.48478,0,0,1,11.1543,0,1.5004,1.5004,0,0,1-.48242,2.9209Z"/><path d="M49.34505,14.12988a1.49629,1.49629,0,0,1-.48242-.08008,14.46351,14.46351,0,0,0-9.22461,0,1.5001,1.5001,0,0,1-.96484-2.84082,17.48478,17.48478,0,0,1,11.1543,0,1.5004,1.5004,0,0,1-.48242,2.9209Z"/><path d="M29.99935,7.74951a1.49447,1.49447,0,0,1-.90039-.30078,22.251,22.251,0,0,0-26.69727,0A1.5002,1.5002,0,0,1,.599,5.05029a25.25293,25.25293,0,0,1,30.30273,0,1.50018,1.50018,0,0,1-.90234,2.69922Z"/><path d="M30.00032,59.99951a1.50007,1.50007,0,0,1-1.5-1.5v-52.25a1.5,1.5,0,0,1,3,0v52.25A1.50007,1.50007,0,0,1,30.00032,59.99951Z"/><path d="M58.50032,60a1.50007,1.50007,0,0,1-1.5-1.5V6.24951a1.5,1.5,0,0,1,3,0V58.5A1.50007,1.50007,0,0,1,58.50032,60Z"/><path d="M1.50032,60a1.50007,1.50007,0,0,1-1.5-1.5V6.24951a1.5,1.5,0,0,1,3,0V58.5A1.50007,1.50007,0,0,1,1.50032,60Z"/></svg>