<svg id="Elements" xmlns="http://www.w3.org/2000/svg" viewBox="0 0 75 75"><title>alo_activities</title><g id="_Group_" data-name="&lt;Group&gt;"><path d="M37.5,53.5a16,16,0,1,1,16-16A16.01833,16.01833,0,0,1,37.5,53.5Zm0-30a14,14,0,1,0,14,14A14.01573,14.01573,0,0,0,37.5,23.5Z"/><g id="_Group_2" data-name="&lt;Group&gt;"><path d="M37.5,45a7.25,7.25,0,1,1,7.25-7.25A7.25772,7.25772,0,0,1,37.5,45Zm0-12.5a5.25,5.25,0,1,0,5.25,5.25A5.25637,5.25637,0,0,0,37.5,32.5Z"/><path d="M37.5,32.5a0.99942,0.99942,0,0,1-1-1V29a1,1,0,0,1,2,0v2.5A0.99942,0.99942,0,0,1,37.5,32.5Z"/><path d="M39.5,40.75a0.99942,0.99942,0,0,1-1-1v-4a1,1,0,0,1,2,0v4A0.99942,0.99942,0,0,1,39.5,40.75Z"/><path d="M39.5,36.75a0.99942,0.99942,0,0,1-1-1V31.833a1,1,0,1,1,2,0V35.75A0.99942,0.99942,0,0,1,39.5,36.75Z"/><path d="M39.5,44.667a0.99942,0.99942,0,0,1-1-1V39.75a1,1,0,0,1,2,0v3.917A0.99942,0.99942,0,0,1,39.5,44.667Z"/><path d="M35.5,36.75a0.99942,0.99942,0,0,1-1-1V31.833a1,1,0,1,1,2,0V35.75A0.99942,0.99942,0,0,1,35.5,36.75Z"/><path d="M35.5,44.667a0.99942,0.99942,0,0,1-1-1V39.75a1,1,0,0,1,2,0v3.917A0.99942,0.99942,0,0,1,35.5,44.667Z"/><path d="M35.5,40.75a0.99942,0.99942,0,0,1-1-1v-4a1,1,0,0,1,2,0v4A0.99942,0.99942,0,0,1,35.5,40.75Z"/><path d="M39.5,40.75h-4a1,1,0,0,1,0-2h4A1,1,0,0,1,39.5,40.75Z"/><path d="M43.417,40.75H39.5a1,1,0,0,1,0-2h3.917A1,1,0,0,1,43.417,40.75Z"/><path d="M35.5,40.75H31.583a1,1,0,1,1,0-2H35.5A1,1,0,0,1,35.5,40.75Z"/><path d="M35.5,36.75H31.583a1,1,0,1,1,0-2H35.5A1,1,0,0,1,35.5,36.75Z"/><path d="M43.417,36.75H39.5a1,1,0,0,1,0-2h3.917A1,1,0,0,1,43.417,36.75Z"/><path d="M39.5,36.75h-4a1,1,0,0,1,0-2h4A1,1,0,0,1,39.5,36.75Z"/></g></g></svg>