<svg xmlns="http://www.w3.org/2000/svg" viewBox="0 0 60 60"><title>alo_icon_activity_computer-medium</title><path d="M49,60A11.01245,11.01245,0,0,1,38,49V30a11,11,0,0,1,22,0V49A11.01245,11.01245,0,0,1,49,60Zm0-38a8.00917,8.00917,0,0,0-8,8V49a8,8,0,0,0,16,0V30A8.00917,8.00917,0,0,0,49,22Z"/><path d="M49,36.25a1.50007,1.50007,0,0,1-1.5-1.5V14.5625a1.5,1.5,0,0,1,3,0V34.75A1.50007,1.50007,0,0,1,49,36.25Z"/><path d="M58.5,36.25h-19a1.5,1.5,0,0,1,0-3h19a1.5,1.5,0,0,1,0,3Z"/><path d="M12.18848,41A12.20192,12.20192,0,0,1,0,28.812V13.375a1.5,1.5,0,0,1,3,0V28.812a9.188,9.188,0,1,0,18.376,0V14.5625a1.5,1.5,0,1,1,3,0V28.812A12.20171,12.20171,0,0,1,12.18848,41Z"/><path d="M49,16.0625a1.50007,1.50007,0,0,1-1.5-1.5,11.5625,11.5625,0,0,0-23.125,0,1.5,1.5,0,0,1-3,0,14.5625,14.5625,0,0,1,29.125,0A1.50007,1.50007,0,0,1,49,16.0625Z"/></svg>