<svg id="Elements" xmlns="http://www.w3.org/2000/svg" viewBox="0 0 75 75"><title>alo_activities</title><path d="M37.5,53.5a16,16,0,1,1,16-16A16.01833,16.01833,0,0,1,37.5,53.5Zm0-30a14,14,0,1,0,14,14A14.01573,14.01573,0,0,0,37.5,23.5Z"/><g id="_Group_" data-name="&lt;Group&gt;"><g id="_Group_2" data-name="&lt;Group&gt;"><path d="M39.25,36a3.5,3.5,0,1,1,3.5-3.5A3.50425,3.50425,0,0,1,39.25,36Zm0-5a1.5,1.5,0,1,0,1.5,1.5A1.50164,1.50164,0,0,0,39.25,31Z"/><path d="M34.25,41a0.99974,0.99974,0,0,1-1-1,2.25277,2.25277,0,0,1,2.25-2.25,0.25048,0.25048,0,0,0,.25-0.25,3.50425,3.50425,0,0,1,3.5-3.5,1,1,0,0,1,0,2,1.50164,1.50164,0,0,0-1.5,1.5,2.25277,2.25277,0,0,1-2.25,2.25,0.25048,0.25048,0,0,0-.25.25A0.99974,0.99974,0,0,1,34.25,41Z"/></g><g id="_Group_3" data-name="&lt;Group&gt;"><path d="M35.96582,45.99854a3.84425,3.84425,0,0,1-.98047-0.12744,0.99971,0.99971,0,0,1-.71094-0.71143,3.78947,3.78947,0,0,1,4.64844-4.64746,0.99926,0.99926,0,0,1,.71094.71045A3.78207,3.78207,0,0,1,35.96582,45.99854Zm1.79-3.60791a1.782,1.782,0,0,0-1.60254,1.60205A1.78318,1.78318,0,0,0,37.75586,42.39063Z"/><path d="M38.667,42.479a1,1,0,0,1-.707-1.707l6.333-6.333A0.99989,0.99989,0,0,1,45.707,35.853l-6.333,6.333A0.99676,0.99676,0,0,1,38.667,42.479Z"/></g><g id="_Group_4" data-name="&lt;Group&gt;"><path d="M43.54492,42.30762a0.99445,0.99445,0,0,1-.499-0.13379l-9.81152-5.665a1.00016,1.00016,0,1,1,1-1.73242l9.81152,5.665A1,1,0,0,1,43.54492,42.30762Z"/><path d="M31.85156,37.14355A4.704,4.704,0,0,1,29.5,36.51807a1.00081,1.00081,0,0,1-.36621-1.36621l1.875-3.24756a0.99969,0.99969,0,0,1,1.36621-.36621,4.75763,4.75763,0,0,1,2.35938,4.10156,0.99917,0.99917,0,0,1-.50293.87061A4.7895,4.7895,0,0,1,31.85156,37.14355Zm-0.39062-2.022a2.69913,2.69913,0,0,0,1.2041-.09619,2.71142,2.71142,0,0,0-.51855-1.09131Z"/></g></g></svg>