<svg id="Elements" xmlns="http://www.w3.org/2000/svg" viewBox="0 0 75 75"><title>alo_activities</title><g id="_Group_" data-name="&lt;Group&gt;"><path d="M37.5,53.5a16,16,0,1,1,16-16A16.01833,16.01833,0,0,1,37.5,53.5Zm0-30a14,14,0,1,0,14,14A14.01573,14.01573,0,0,0,37.5,23.5Z"/><g id="_Group_2" data-name="&lt;Group&gt;"><path d="M34.375,39.24219a3.49865,3.49865,0,0,1-1.36133-.27441A1.00046,1.00046,0,1,1,33.791,37.124a1.51856,1.51856,0,0,0,1.16992,0,1.00008,1.00008,0,1,1,.77539,1.84375A3.5058,3.5058,0,0,1,34.375,39.24219Z"/><path d="M34.375,42.4834a1.00134,1.00134,0,0,1-.22168-0.02441A6.58689,6.58689,0,0,1,29,36V31.625A1.62625,1.62625,0,0,1,30.625,30h7.5a1.62625,1.62625,0,0,1,1.625,1.625V36a6.58689,6.58689,0,0,1-5.15332,6.459A1.00134,1.00134,0,0,1,34.375,42.4834ZM31,32v4a4.5956,4.5956,0,0,0,3.375,4.45215A4.5956,4.5956,0,0,0,37.75,36V32H31Zm7.125,0h0Z"/><path d="M39.65137,43.2041a1,1,0,0,1-.3877-1.92187,3.53711,3.53711,0,0,1,2.72266,0A1.00046,1.00046,0,1,1,41.209,43.126a1.51856,1.51856,0,0,0-1.16992,0A1.007,1.007,0,0,1,39.65137,43.2041Z"/><path d="M40.625,47a1.00134,1.00134,0,0,1-.22168-0.02441,6.61479,6.61479,0,0,1-5.14648-6.2832,1.00105,1.00105,0,0,1,.97363-1.02637,1.0139,1.0139,0,0,1,1.02637.97363,4.61408,4.61408,0,0,0,3.36816,4.3291A4.5956,4.5956,0,0,0,44,40.5166v-4H38.75a1,1,0,0,1,0-2h5.625A1.62625,1.62625,0,0,1,46,36.1416v4.375a6.58689,6.58689,0,0,1-5.15332,6.459A1.00134,1.00134,0,0,1,40.625,47Zm3.75-10.4834h0Z"/><path d="M32.75,35.92969a0.99942,0.99942,0,0,1-1-1v-1.125a1,1,0,0,1,2,0v1.125A0.99942,0.99942,0,0,1,32.75,35.92969Z"/><path d="M36,35.92969a0.99942,0.99942,0,0,1-1-1v-1.125a1,1,0,0,1,2,0v1.125A0.99942,0.99942,0,0,1,36,35.92969Z"/><path d="M39,40.44531a0.99942,0.99942,0,0,1-1-1v-1.125a1,1,0,0,1,2,0v1.125A0.99942,0.99942,0,0,1,39,40.44531Z"/><path d="M42.25,40.44531a0.99942,0.99942,0,0,1-1-1v-1.125a1,1,0,0,1,2,0v1.125A0.99942,0.99942,0,0,1,42.25,40.44531Z"/></g></g></svg>