<svg xmlns="http://www.w3.org/2000/svg" viewBox="0 0 60 60.00098"><title>alo_icon_activity_celebration-medium</title><path d="M40.6875,50.501C29.72363,50.501,21.374,29.71484,21.374,19.313a19.313,19.313,0,1,1,38.626,0C60,29.71484,51.65039,50.501,40.6875,50.501Zm0-47.501A16.33175,16.33175,0,0,0,24.374,19.313c0,4.87109,2.02832,12.04053,5.04785,17.84033C32.8457,43.72949,36.95117,47.501,40.6875,47.501s7.8418-3.77148,11.26465-10.34766C54.97168,31.35352,57,24.18408,57,19.313A16.33091,16.33091,0,0,0,40.6875,3Z"/><path d="M40.6875,60.001a1.50007,1.50007,0,0,1-1.5-1.5v-9.5a1.5,1.5,0,0,1,3,0v9.5A1.50007,1.50007,0,0,1,40.6875,60.001Z"/><path d="M13.375,44.16748c-3.50586,0-6.96-2.92773-9.72754-8.24414C1.46582,31.73242,0,26.48877,0,22.87549a13.3701,13.3701,0,0,1,24.40527-7.5542,1.50037,1.50037,0,0,1-2.47461,1.69727A10.36952,10.36952,0,0,0,3,22.87549,28.46969,28.46969,0,0,0,6.30859,34.53857c2.19336,4.21289,4.76855,6.62891,7.06641,6.62891,3.92676,0,7.85742-6.74561,9.5625-13.09229a1.49962,1.49962,0,1,1,2.89648.77832C24.30664,34.5415,19.96289,44.16748,13.375,44.16748Z"/><path d="M13.375,50.501a1.50007,1.50007,0,0,1-1.5-1.5v-6.3335a1.5,1.5,0,0,1,3,0V49.001A1.50007,1.50007,0,0,1,13.375,50.501Z"/></svg>