<svg xmlns="http://www.w3.org/2000/svg" viewBox="0 0 60.00251 60.00251"><title>alo_activities-music-medium</title><path d="M25.25,50.50251a15.76785,15.76785,0,0,1-15.75-15.75,1.5,1.5,0,0,1,3,0,12.76457,12.76457,0,0,0,12.75,12.75,1.5,1.5,0,1,1,0,3Z"/><path d="M25.25,60.00251a25.25,25.25,0,1,1,25.25-25.25A25.27866,25.27866,0,0,1,25.25,60.00251Zm0-47.5a22.25,22.25,0,1,0,22.25,22.25A22.27538,22.27538,0,0,0,25.25,12.50251Z"/><path d="M25.25,40.5279a5.77539,5.77539,0,1,1,5.77539-5.77539A5.78192,5.78192,0,0,1,25.25,40.5279Zm0-8.55078a2.77539,2.77539,0,1,0,2.77539,2.77539A2.77864,2.77864,0,0,0,25.25,31.97712Z"/><path d="M54.21484,11.55329a5.7744,5.7744,0,0,1-5.22461-8.21484,5.77488,5.77488,0,1,1,5.22461,8.21484Zm.01074-8.55176a2.78245,2.78245,0,1,0,1.1709.26172A2.7819,2.7819,0,0,0,54.22559,3.00154Z"/><path d="M40.37207,36.983a1.50013,1.50013,0,0,1-1.3584-2.13379L51.05762,9.01911a1.49986,1.49986,0,0,1,2.71875,1.26758L41.73242,36.11677A1.49948,1.49948,0,0,1,40.37207,36.983Z"/><path d="M36.48242,39.70759a1.5,1.5,0,0,1-.86133-2.72852l3.8916-2.72461a1.49982,1.49982,0,1,1,1.7207,2.457l-3.8916,2.72461A1.49044,1.49044,0,0,1,36.48242,39.70759Z"/><path d="M58.5,52.87751H52.7998a1.5,1.5,0,0,1,0-3H58.5a1.5,1.5,0,0,1,0,3Z"/><path d="M8.625,7.2779H2.9248a1.5,1.5,0,0,1,0-3H8.625a1.5,1.5,0,0,1,0,3Z"/><path d="M55.65039,60.00251a1.50039,1.50039,0,0,1-1.5-1.5v-14.25a1.5,1.5,0,0,1,3,0v14.25A1.50039,1.50039,0,0,1,55.65039,60.00251Z"/></svg>