<svg id="Elements" xmlns="http://www.w3.org/2000/svg" viewBox="0 0 75 75"><title>alo_activities</title><path d="M37.5,53.5a16,16,0,1,1,16-16A16.01833,16.01833,0,0,1,37.5,53.5Zm0-30a14,14,0,1,0,14,14A14.01573,14.01573,0,0,0,37.5,23.5Z"/><g id="_Group_" data-name="&lt;Group&gt;"><path d="M43,45.5H33A3.50425,3.50425,0,0,1,29.5,42V38.25a3.50425,3.50425,0,0,1,3.5-3.5H43a3.50425,3.50425,0,0,1,3.5,3.5V42A3.50425,3.50425,0,0,1,43,45.5ZM33,36.75a1.50164,1.50164,0,0,0-1.5,1.5V42A1.50164,1.50164,0,0,0,33,43.5H43A1.50164,1.50164,0,0,0,44.5,42V38.25a1.50164,1.50164,0,0,0-1.5-1.5H33Z"/><path d="M39.25,42.625a2.5,2.5,0,1,1,2.5-2.5A2.50294,2.50294,0,0,1,39.25,42.625Zm0-3a0.5,0.5,0,1,0,.5.5A0.50034,0.50034,0,0,0,39.25,39.625Z"/><path d="M34.875,36.75a1,1,0,0,1-1-1V32.5a1,1,0,0,1,2,0v3.25A1,1,0,0,1,34.875,36.75Z"/><path d="M33,41.125H30.5a1,1,0,0,1,0-2H33A1,1,0,0,1,33,41.125Z"/><path d="M37.375,33.5h-5a1,1,0,0,1-1-1v-3a1,1,0,0,1,1-1h5a1,1,0,0,1,1,1v3A1,1,0,0,1,37.375,33.5Zm-4-2h3v-1h-3v1Z"/></g></svg>