<svg xmlns="http://www.w3.org/2000/svg" viewBox="0 0 60 60"><title>alo_icon_activity_gardening-medium</title><path d="M27.625,12.5H3.875A3.87934,3.87934,0,0,1,0,8.625V1.5a1.5,1.5,0,0,1,3,0V8.625a.87606.87606,0,0,0,.875.875h23.75a.87606.87606,0,0,0,.875-.875V1.5a1.5,1.5,0,0,1,3,0V8.625A3.87934,3.87934,0,0,1,27.625,12.5Z"/><path d="M15.75,60a1.50039,1.50039,0,0,1-1.5-1.5V11a1.5,1.5,0,0,1,3,0V58.5A1.50039,1.50039,0,0,1,15.75,60Z"/><path d="M20.5,12.5A1.50007,1.50007,0,0,1,19,11V1.5a1.5,1.5,0,0,1,3,0V11A1.50007,1.50007,0,0,1,20.5,12.5Z"/><path d="M11,12.5A1.50007,1.50007,0,0,1,9.5,11V1.5a1.5,1.5,0,0,1,3,0V11A1.50007,1.50007,0,0,1,11,12.5Z"/><path d="M53.75,60h-19a1.50039,1.50039,0,0,1-1.5-1.5V30a1.50007,1.50007,0,0,1,1.5-1.5H58.5a1.5,1.5,0,0,1,0,3H55.25v27A1.50039,1.50039,0,0,1,53.75,60Zm-17.5-3h16V31.5h-16Z"/><path d="M27.14941,50.5a1.50039,1.50039,0,0,1-1.5-1.5V34.75a1.50039,1.50039,0,0,1,1.5-1.5H34.75a1.5,1.5,0,0,1,0,3H28.64941V49A1.50039,1.50039,0,0,1,27.14941,50.5Z"/><path d="M34.74984,49.00013" style="fill:none;stroke:#000;stroke-linecap:round;stroke-linejoin:round;stroke-width:3px"/><path d="M44.25684,19.21h0a1.50061,1.50061,0,0,1-1.06055-.43945l-6.7168-6.71729a1.49945,1.49945,0,0,1,0-2.12109l6.7168-6.71777a1.49984,1.49984,0,0,1,2.12109,2.12109l-5.65625,5.65723,4.5957,4.59619,5.65723-5.65674a1.49984,1.49984,0,1,1,2.12109,2.12109l-6.71777,6.71729A1.50061,1.50061,0,0,1,44.25684,19.21Z"/><path d="M50.97461,12.49268a1.5,1.5,0,0,1-1.06055-2.56055,8.02542,8.02542,0,0,0,2.24609-6.84277,8.02725,8.02725,0,0,0-6.84277,2.24609,1.49984,1.49984,0,0,1-2.12109-2.12109A11.03762,11.03762,0,0,1,53.81445.373,1.49892,1.49892,0,0,1,54.877,1.436a11.03755,11.03755,0,0,1-2.8418,10.61719A1.49514,1.49514,0,0,1,50.97461,12.49268Z"/><path d="M30.82227,25.92773a1.5,1.5,0,0,1-1.06055-2.56055L39.83789,13.29053A1.49984,1.49984,0,1,1,41.959,15.41162L31.88281,25.48828A1.49514,1.49514,0,0,1,30.82227,25.92773Z"/></svg>