<svg id="Elements" xmlns="http://www.w3.org/2000/svg" viewBox="0 0 75 75"><title>alo_activities</title><path d="M37.5,53.5a16,16,0,1,1,16-16A16.01833,16.01833,0,0,1,37.5,53.5Zm0-30a14,14,0,1,0,14,14A14.01573,14.01573,0,0,0,37.5,23.5Z"/><g id="_Group_" data-name="&lt;Group&gt;"><path d="M44.5,45.5H35.7666a0.99974,0.99974,0,0,1-1-1A5.3667,5.3667,0,1,1,45.5,44.5,0.99974,0.99974,0,0,1,44.5,45.5Zm-7.582-2h6.43066A3.36748,3.36748,0,0,0,36.918,43.5Z"/><path d="M35.7666,45.5a0.99676,0.99676,0,0,1-.707-0.293L28.793,38.94092A0.99989,0.99989,0,0,1,30.207,37.52686l6.2666,6.26611A1,1,0,0,1,35.7666,45.5Z"/><path d="M39.03223,36.23389h0a0.99928,0.99928,0,0,1-.707-0.293l-3.26562-3.2666a0.99964,0.99964,0,0,1,0-1.41406l2.4668-2.46729a1.02932,1.02932,0,0,1,1.41406,0l3.2666,3.26611a0.99964,0.99964,0,0,1,0,1.41406l-2.46777,2.46777A0.99928,0.99928,0,0,1,39.03223,36.23389Zm-1.85156-4.2666,1.85156,1.85205,1.05371-1.05322L38.2334,30.91406Z"/><path d="M40.13184,41.1333a1.00061,1.00061,0,0,1-.97461-0.78076l-1.10059-4.89941a0.99992,0.99992,0,0,1,1.95117-.43848l1.10059,4.89941A1.00069,1.00069,0,0,1,40.13184,41.1333Z"/><path d="M37.34277,38.98047a0.9999,0.9999,0,0,1-.21777-1.97559l2.19531-.49316a0.99981,0.99981,0,1,1,.4375,1.95117l-2.19531.49316A0.99687,0.99687,0,0,1,37.34277,38.98047Z"/><path d="M29.5,39.23389a1,1,0,0,1-.707-1.707l6.2666-6.2666a0.99989,0.99989,0,0,1,1.41406,1.41406l-6.2666,6.2666A0.99676,0.99676,0,0,1,29.5,39.23389Z"/></g></svg>