<svg id="Elements" xmlns="http://www.w3.org/2000/svg" viewBox="0 0 75 75"><title>alo_activities</title><path d="M37.5,53.5a16,16,0,1,1,16-16A16.01833,16.01833,0,0,1,37.5,53.5Zm0-30a14,14,0,1,0,14,14A14.01573,14.01573,0,0,0,37.5,23.5Z"/><g id="_Group_" data-name="&lt;Group&gt;"><path d="M36.61914,45.5a7.38359,7.38359,0,0,1-7.375-7.375V36.1665a0.99974,0.99974,0,0,1,1-1h12.75a0.99974,0.99974,0,0,1,1,1V38.125A7.38359,7.38359,0,0,1,36.61914,45.5Zm-5.375-8.3335V38.125a5.375,5.375,0,1,0,10.75,0V37.1665h-10.75Z"/><path d="M42.99414,42.68994a3.60807,3.60807,0,0,1-1.33008-.27148,0.99986,0.99986,0,0,1,.72852-1.8623,1.64848,1.64848,0,0,0,.60156.13379,1.76147,1.76147,0,1,0,0-3.52295,1,1,0,1,1,0-2A3.76147,3.76147,0,1,1,42.99414,42.68994Z"/><path d="M34.61914,37.1665a2.6665,2.6665,0,1,1,0-5.333,0.66675,0.66675,0,1,0,0-1.3335,1,1,0,1,1,0-2,2.66675,2.66675,0,1,1,0,5.3335,0.6665,0.6665,0,1,0,0,1.333A1,1,0,1,1,34.61914,37.1665Z"/><path d="M39.61914,37.1665a2.6665,2.6665,0,1,1,0-5.333,0.66675,0.66675,0,1,0,0-1.3335,1,1,0,1,1,0-2,2.66675,2.66675,0,1,1,0,5.3335,0.6665,0.6665,0,1,0,0,1.333A1,1,0,1,1,39.61914,37.1665Z"/></g></svg>