<svg xmlns="http://www.w3.org/2000/svg" viewBox="0 0 60 60"><title>alo_icon_activity_theater-medium</title><path d="M18.125,30.99414a10.9286,10.9286,0,0,1-7.77783-3.22168,1.49984,1.49984,0,0,1,2.12109-2.12109,8.00121,8.00121,0,0,0,11.314,0,1.49984,1.49984,0,1,1,2.12109,2.12109A10.9314,10.9314,0,0,1,18.125,30.99414Z"/><path d="M18.125,42.83887a1.52449,1.52449,0,0,1-.332-.03711A22.74562,22.74562,0,0,1,0,20.5V3.875A3.87934,3.87934,0,0,1,3.875,0h28.5A3.87934,3.87934,0,0,1,36.25,3.875V20.5A22.74562,22.74562,0,0,1,18.457,42.80176,1.52449,1.52449,0,0,1,18.125,42.83887ZM3.875,3A.87606.87606,0,0,0,3,3.875V20.5A19.75768,19.75768,0,0,0,18.125,39.79785,19.75768,19.75768,0,0,0,33.25,20.5V3.875A.87606.87606,0,0,0,32.375,3Z"/><path d="M35.15723,45.71387a1.50024,1.50024,0,0,1-1.061-2.56055,10.99894,10.99894,0,0,1,15.55713,0,1.50019,1.50019,0,0,1-2.12207,2.12109,7.99767,7.99767,0,0,0-11.313,0A1.49625,1.49625,0,0,1,35.15723,45.71387Z"/><path d="M41.875,60a1.52449,1.52449,0,0,1-.332-.03711A22.83346,22.83346,0,0,1,23.77539,38.27148a1.5,1.5,0,0,1,2.999-.08008A19.8364,19.8364,0,0,0,41.875,56.959,19.756,19.756,0,0,0,57,37.66113v-16.625a.87606.87606,0,0,0-.875-.875H34.75a1.5,1.5,0,0,1,0-3H56.125A3.87934,3.87934,0,0,1,60,21.03613v16.625A22.744,22.744,0,0,1,42.207,59.96289,1.52449,1.52449,0,0,1,41.875,60Z"/><path d="M11.9502,17.93164a1.50007,1.50007,0,0,1-1.5-1.5V12.15625a1.5,1.5,0,0,1,3,0v4.27539A1.50007,1.50007,0,0,1,11.9502,17.93164Z"/><path d="M24.30029,17.93164a1.50007,1.50007,0,0,1-1.5-1.5V12.15625a1.5,1.5,0,0,1,3,0v4.27539A1.50007,1.50007,0,0,1,24.30029,17.93164Z"/><path d="M35.69971,35.09375a1.50007,1.50007,0,0,1-1.5-1.5V29.31836a1.5,1.5,0,0,1,3,0v4.27539A1.50007,1.50007,0,0,1,35.69971,35.09375Z"/><path d="M48.0498,35.09375a1.50007,1.50007,0,0,1-1.5-1.5V29.31836a1.5,1.5,0,0,1,3,0v4.27539A1.50007,1.50007,0,0,1,48.0498,35.09375Z"/></svg>