<svg xmlns="http://www.w3.org/2000/svg" viewBox="0 0 60 60"><title>alo_icon_activity_cinema-medium</title><path d="M37.24463,50.5H8.625A8.63474,8.63474,0,0,1,0,41.875V27.625A8.63474,8.63474,0,0,1,8.625,19H37.24463a8.63474,8.63474,0,0,1,8.625,8.625v14.25A8.63474,8.63474,0,0,1,37.24463,50.5ZM8.625,22A5.63146,5.63146,0,0,0,3,27.625v14.25A5.63146,5.63146,0,0,0,8.625,47.5H37.24463a5.63146,5.63146,0,0,0,5.625-5.625V27.625A5.63146,5.63146,0,0,0,37.24463,22Z"/><path d="M11,22A11,11,0,1,1,22,11,11.01245,11.01245,0,0,1,11,22ZM11,3a8,8,0,1,0,8,8A8.00917,8.00917,0,0,0,11,3Z"/><path d="M34.86963,22a11,11,0,1,1,11-11A11.01245,11.01245,0,0,1,34.86963,22Zm0-19a8,8,0,1,0,8,8A8.00917,8.00917,0,0,0,34.86963,3Z"/><path d="M56.8208,48.69922a3.8633,3.8633,0,0,1-2.73975-1.13184L44.00439,37.49023a3.88141,3.88141,0,0,1-.00049-5.48047L54.08057,21.93408a3.96861,3.96861,0,0,1,5.48047,0A1.50014,1.50014,0,0,1,60,22.99463V46.50586a1.49891,1.49891,0,0,1-.43945,1.06055A3.86433,3.86433,0,0,1,56.8208,48.69922ZM58.5,46.50586h0Zm-1.6792-22.707a.87142.87142,0,0,0-.61914.25635L46.12549,34.13086a.87719.87719,0,0,0,.00049,1.23828L56.20166,45.44531A.8817.8817,0,0,0,57,45.68262V23.81689A.90677.90677,0,0,0,56.8208,23.79883Z"/><path d="M22.93457,60a1.50007,1.50007,0,0,1-1.5-1.5V49a1.5,1.5,0,0,1,3,0v9.5A1.50007,1.50007,0,0,1,22.93457,60Z"/><path d="M44.36944,34.75" style="fill:none;stroke:#000;stroke-linecap:round;stroke-linejoin:round;stroke-width:3px"/><path d="M34.8695,34.75" style="fill:none;stroke:#000;stroke-linecap:round;stroke-linejoin:round;stroke-width:3px"/><path d="M44.36963,31.5h-9.5a1.5,1.5,0,0,1,0-3h9.5a1.5,1.5,0,0,1,0,3Z"/><path d="M44.36963,41h-9.5a1.5,1.5,0,0,1,0-3h9.5a1.5,1.5,0,0,1,0,3Z"/><path d="M20.56006,40.999h-4.751a6.24927,6.24927,0,1,1,0-12.49854h4.751a6.24927,6.24927,0,1,1,0,12.49854Zm-4.751-9.498a3.249,3.249,0,1,0,0,6.498h4.751a3.249,3.249,0,1,0,0-6.498Z"/></svg>