<svg xmlns="http://www.w3.org/2000/svg" viewBox="0 0 60 60"><title>alo_icon_activity_coffee-medium</title><path d="M35.2251,22a6.25,6.25,0,0,1,0-12.5,3.25,3.25,0,0,0,0-6.5,1.5,1.5,0,0,1,0-3,6.25,6.25,0,0,1,0,12.5,3.25,3.25,0,0,0,0,6.5,1.5,1.5,0,0,1,0,3Z"/><path d="M20.0249,22a6.25,6.25,0,1,1,0-12.5,3.25,3.25,0,0,0,0-6.5,1.5,1.5,0,0,1,0-3,6.25,6.25,0,0,1,0,12.5,3.25,3.25,0,1,0,0,6.5,1.5,1.5,0,0,1,0,3Z"/><path d="M25.7251,60A25.754,25.754,0,0,1,0,34.2749V31.166a1.49976,1.49976,0,0,1,1.5-1.5H49.9502a1.49976,1.49976,0,0,1,1.5,1.5V34.2749A25.754,25.754,0,0,1,25.7251,60ZM3,32.666V34.2749a22.7251,22.7251,0,1,0,45.4502,0V32.666Z"/><path d="M49.9502,49.76611a9.92294,9.92294,0,0,1-4.51123-1.1084A1.5,1.5,0,1,1,46.79346,45.981a6.95151,6.95151,0,0,0,3.15674.78516,7.05,7.05,0,0,0,0-14.1001,1.5,1.5,0,1,1,0-3,10.05,10.05,0,0,1,0,20.1001Z"/></svg>