<svg id="Elements" xmlns="http://www.w3.org/2000/svg" viewBox="0 0 75 75"><title>alo_activities</title><path d="M37.5,53.5a16,16,0,1,1,16-16A16.01833,16.01833,0,0,1,37.5,53.5Zm0-30a14,14,0,1,0,14,14A14.01573,14.01573,0,0,0,37.5,23.5Z"/><g id="_Group_" data-name="&lt;Group&gt;"><path d="M39.375,46.5h-3.75a1,1,0,0,1,0-2h3.75A1,1,0,0,1,39.375,46.5Z"/><path d="M37.5,38.30322a2.5,2.5,0,1,1,2.5-2.5A2.50294,2.50294,0,0,1,37.5,38.30322Zm0-3a0.5,0.5,0,1,0,.5.5A0.50034,0.50034,0,0,0,37.5,35.30322Z"/><path d="M40.68213,39.98535a1,1,0,0,1-.70752-1.707,3.4999,3.4999,0,0,0,0-4.9502,1.00024,1.00024,0,0,1,1.415-1.41406,5.50153,5.50153,0,0,1,0,7.77832A0.99787,0.99787,0,0,1,40.68213,39.98535Z"/><path d="M34.31787,39.98535a0.99676,0.99676,0,0,1-.707-0.293,5.50035,5.50035,0,0,1,0-7.77832,0.99989,0.99989,0,0,1,1.41406,1.41406,3.50108,3.50108,0,0,0,0,4.9502A1,1,0,0,1,34.31787,39.98535Z"/><path d="M42.80322,42.10645a1,1,0,0,1-.707-1.707,6.5,6.5,0,0,0,0-9.19238A0.99989,0.99989,0,0,1,43.51025,29.793a8.49926,8.49926,0,0,1,0,12.02051A0.99676,0.99676,0,0,1,42.80322,42.10645Z"/><path d="M32.19678,42.10645a0.99676,0.99676,0,0,1-.707-0.293,8.49926,8.49926,0,0,1,0-12.02051A0.99989,0.99989,0,0,1,32.90381,31.207a6.5,6.5,0,0,0,0,9.19238A1,1,0,0,1,32.19678,42.10645Z"/><path d="M37.5,46.5a1,1,0,0,1-1-1V37.67822a1,1,0,0,1,2,0V45.5A1,1,0,0,1,37.5,46.5Z"/></g></svg>