<svg xmlns="http://www.w3.org/2000/svg" viewBox="0 0 60.0006 59.99857"><title>alo_icon_activity_meeting-medium</title><path d="M6.24835,36.24857A1.5004,1.5004,0,0,1,4.75421,34.855L2.37921,1.60746a1.49991,1.49991,0,0,1,2.99219-.21387l2.375,33.24854a1.49868,1.49868,0,0,1-1.38965,1.60254C6.32061,36.2476,6.28448,36.24857,6.24835,36.24857Z"/><path d="M53.75225,36.24857c-.03613,0-.07227-.001-.1084-.00391a1.49868,1.49868,0,0,1-1.38965-1.60254l2.375-33.24854a1.49991,1.49991,0,0,1,2.99219.21387L55.24639,34.855A1.5004,1.5004,0,0,1,53.75225,36.24857Z"/><path d="M1.50225,59.99857a1.45468,1.45468,0,0,1-.2959-.0293A1.4988,1.4988,0,0,1,.0296,58.20463l4.75-23.75a1.49979,1.49979,0,0,1,2.94141.58789l-4.75,23.75A1.50016,1.50016,0,0,1,1.50225,59.99857Z"/><path d="M58.49835,59.99857a1.50016,1.50016,0,0,1-1.46875-1.20605l-4.75-23.75a1.49979,1.49979,0,0,1,2.94141-.58789l4.75,23.75a1.4988,1.4988,0,0,1-1.17676,1.76465A1.5274,1.5274,0,0,1,58.49835,59.99857Z"/><path d="M20.5003,50.49857H3.40069a1.5,1.5,0,1,1,0-3H20.5003a1.5,1.5,0,0,1,0,3Z"/><path d="M24.3001,36.24857H6.2503a1.5,1.5,0,1,1,0-3H24.3001a1.5,1.5,0,1,1,0,3Z"/><path d="M56.59991,50.49857H39.5003a1.5,1.5,0,0,1,0-3H56.59991a1.5,1.5,0,0,1,0,3Z"/><path d="M53.7503,36.24857H35.7005a1.5,1.5,0,1,1,0-3H53.7503a1.5,1.5,0,0,1,0,3Z"/><path d="M20.5003,59.99857a1.50039,1.50039,0,0,1-1.5-1.5v-23.75a1.5,1.5,0,0,1,3,0v23.75A1.50039,1.50039,0,0,1,20.5003,59.99857Z"/><path d="M39.5003,59.99857a1.50039,1.50039,0,0,1-1.5-1.5v-23.75a1.5,1.5,0,0,1,3,0v23.75A1.50039,1.50039,0,0,1,39.5003,59.99857Z"/></svg>