<svg id="Elements" xmlns="http://www.w3.org/2000/svg" viewBox="0 0 75 75"><title>alo_activities</title><g id="_Group_" data-name="&lt;Group&gt;"><path d="M37,53.5a16,16,0,1,1,16-16A16.01833,16.01833,0,0,1,37,53.5Zm0-30a14,14,0,1,0,14,14A14.01573,14.01573,0,0,0,37,23.5Z"/><g id="_Group_2" data-name="&lt;Group&gt;"><path d="M29.5,46a1,1,0,0,1-1-1V31.25A2.25277,2.25277,0,0,1,30.75,29h12.5a2.25277,2.25277,0,0,1,2.25,2.25v10a2.25277,2.25277,0,0,1-2.25,2.25H32.41406l-2.207,2.207A0.99894,0.99894,0,0,1,29.5,46Zm1.25-15a0.25048,0.25048,0,0,0-.25.25V42.58594l0.793-.793A1.00013,1.00013,0,0,1,32,41.5H43.25a0.25048,0.25048,0,0,0,.25-0.25v-10A0.25048,0.25048,0,0,0,43.25,31H30.75Z"/><g id="_Group_3" data-name="&lt;Group&gt;"><path d="M38.8125,39.75a1,1,0,0,1-.707-1.707l1.793-1.793-1.793-1.793A0.99989,0.99989,0,0,1,39.51953,33.043l2.5,2.5a0.99964,0.99964,0,0,1,0,1.41406l-2.5,2.5A0.99676,0.99676,0,0,1,38.8125,39.75Z"/><path d="M35.1875,39.75a0.99676,0.99676,0,0,1-.707-0.293l-2.5-2.5a0.99964,0.99964,0,0,1,0-1.41406l2.5-2.5A0.99989,0.99989,0,0,1,35.89453,34.457l-1.793,1.793,1.793,1.793A1,1,0,0,1,35.1875,39.75Z"/></g><path d="M41.3125,37.25h-8.625a1,1,0,0,1,0-2h8.625A1,1,0,0,1,41.3125,37.25Z"/></g></g></svg>