<?xml version="1.0" encoding="utf-8"?>
<!-- Generator: Adobe Illustrator 20.0.0, SVG Export Plug-In . SVG Version: 6.00 Build 0)  -->
<svg version="1.0" id="Layer_1" xmlns="http://www.w3.org/2000/svg" xmlns:xlink="http://www.w3.org/1999/xlink" x="0px" y="0px"
	 viewBox="0 0 120 120" style="enable-background:new 0 0 120 120;" xml:space="preserve">
<g>
	<path d="M80,58.5h-3.6c-0.3-3.4-1.7-6.5-3.8-9.1l2.5-2.5c0.6-0.6,0.6-1.5,0-2.1s-1.5-0.6-2.1,0l-2.5,2.5c-2.5-2.1-5.6-3.4-9.1-3.8
		V40c0-0.8-0.7-1.5-1.5-1.5s-1.5,0.7-1.5,1.5v3.6c-3.4,0.3-6.5,1.7-9.1,3.8l-2.5-2.5c-0.6-0.6-1.5-0.6-2.1,0s-0.6,1.5,0,2.1l2.5,2.5
		c-2.1,2.5-3.4,5.6-3.8,9.1H40c-0.8,0-1.5,0.7-1.5,1.5s0.7,1.5,1.5,1.5h3.6c0.3,3.4,1.7,6.5,3.8,9.1l-2.5,2.5
		c-0.6,0.6-0.6,1.5,0,2.1c0.3,0.3,0.7,0.4,1.1,0.4s0.8-0.1,1.1-0.4l2.5-2.5c2.5,2.1,5.6,3.4,9.1,3.8V80c0,0.8,0.7,1.5,1.5,1.5
		s1.5-0.7,1.5-1.5v-3.6c3.4-0.3,6.5-1.7,9.1-3.8l2.5,2.5c0.3,0.3,0.7,0.4,1.1,0.4s0.8-0.1,1.1-0.4c0.6-0.6,0.6-1.5,0-2.1l-2.5-2.5
		c2.1-2.5,3.4-5.6,3.8-9.1H80c0.8,0,1.5-0.7,1.5-1.5S80.8,58.5,80,58.5z M61.5,46.6c2.6,0.3,5,1.3,6.9,2.9l-5,5
		c-0.6-0.4-1.2-0.6-1.9-0.8V46.6z M58.5,46.6v7.1c-0.7,0.2-1.3,0.4-1.9,0.8l-5-5C53.5,47.9,55.9,46.9,58.5,46.6z M49.5,51.6l5,5
		c-0.4,0.6-0.6,1.2-0.8,1.9h-7.1C46.9,55.9,47.9,53.5,49.5,51.6z M46.6,61.5h7.1c0.2,0.7,0.4,1.3,0.8,1.9l-5,5
		C47.9,66.5,46.9,64.1,46.6,61.5z M58.5,73.4c-2.6-0.3-5-1.3-6.9-2.9l5-5c0.6,0.4,1.2,0.6,1.9,0.8V73.4z M60,63.5
		c-0.9,0-1.8-0.4-2.5-1l0,0l0,0c-0.7-0.7-1-1.5-1-2.5c0-0.9,0.4-1.8,1-2.5c0,0,0,0,0,0c0.7-0.7,1.5-1,2.5-1s1.8,0.4,2.5,1
		c0,0,0,0,0,0c0.7,0.7,1,1.5,1,2.5c0,0.9-0.4,1.8-1,2.5l0,0l0,0C61.8,63.1,60.9,63.5,60,63.5z M61.5,73.4v-7.1
		c0.7-0.2,1.3-0.4,1.9-0.8l5,5C66.5,72.1,64.1,73.1,61.5,73.4z M70.5,68.4l-5-5c0.4-0.6,0.6-1.2,0.8-1.9h7.1
		C73.1,64.1,72.1,66.5,70.5,68.4z M66.3,58.5c-0.2-0.7-0.4-1.3-0.8-1.9l5-5c1.6,1.9,2.6,4.3,2.9,6.9H66.3z"/>
</g>
</svg>
