<?xml version="1.0" encoding="utf-8"?>
<!-- Generator: Adobe Illustrator 20.0.0, SVG Export Plug-In . SVG Version: 6.00 Build 0)  -->
<svg version="1.0" id="Layer_1" xmlns="http://www.w3.org/2000/svg" xmlns:xlink="http://www.w3.org/1999/xlink" x="0px" y="0px"
	 viewBox="0 0 120 120" style="enable-background:new 0 0 120 120;" xml:space="preserve">
<g>
	<path d="M60,0C26.9,0,0,26.9,0,60s26.9,60,60,60s60-26.9,60-60S93.1,0,60,0z M60,117C28.6,117,3,91.4,3,60S28.6,3,60,3
		s57,25.6,57,57S91.4,117,60,117z"/>
	<path d="M80,38.5c-0.8,0-1.5,0.7-1.5,1.5v0.2H63.3c-0.1,0-0.2,0-0.3,0c-2,0.1-3.7,1.5-4.3,3.3H50c-0.8,0-1.5,0.7-1.5,1.5v3.5h-7V45
		c0-0.8-0.7-1.5-1.5-1.5s-1.5,0.7-1.5,1.5v10c0,0.8,0.7,1.5,1.5,1.5s1.5-0.7,1.5-1.5v-3.5h7V55c0,0.8,0.7,1.5,1.5,1.5h3.5v3
		L40.4,79.2c-0.5,0.7-0.3,1.6,0.4,2.1c0.3,0.2,0.5,0.3,0.8,0.3c0.5,0,1-0.2,1.2-0.7L53.5,65v15c0,0.8,0.7,1.5,1.5,1.5
		s1.5-0.7,1.5-1.5V65l10.6,15.9c0.3,0.4,0.8,0.7,1.2,0.7c0.3,0,0.6-0.1,0.8-0.3c0.7-0.5,0.9-1.4,0.4-2.1L56.5,59.5v-3h2.3
		c0.6,1.8,2.3,3.2,4.3,3.3c0.1,0,0.2,0,0.3,0H70c0,0,0,0,0,0s0,0,0,0h8.5V60c0,0.8,0.7,1.5,1.5,1.5s1.5-0.7,1.5-1.5V40
		C81.5,39.2,80.8,38.5,80,38.5z M51.5,53.5v-7h7v7H51.5z M61.5,55V45c0,0,0,0,0,0c0-1,0.8-1.8,1.8-1.8h5.2v13.7h-5.2
		C62.3,56.8,61.5,56,61.5,55C61.5,55,61.5,55,61.5,55z M71.5,56.8V43.2h7v13.7H71.5z"/>
</g>
</svg>
