<svg xmlns="http://www.w3.org/2000/svg" viewBox="0 0 80 80"><title>alo_icon_community_enfield-small</title><path d="M40,80A40,40,0,1,1,80,40,40.04552,40.04552,0,0,1,40,80ZM40,3A37,37,0,1,0,77,40,37.04161,37.04161,0,0,0,40,3Z"/><path d="M58.40283,60.1543a15.99058,15.99058,0,0,1-13.78809-7.9668,1.49963,1.49963,0,0,1,0-1.50391,15.91488,15.91488,0,0,1,27.57617,0,1.49963,1.49963,0,0,1,0,1.50391A15.99177,15.99177,0,0,1,58.40283,60.1543ZM47.68115,51.43555a12.91,12.91,0,0,0,21.44336,0,12.91,12.91,0,0,0-21.44336,0Z"/><path d="M65.33154,58.37988a1.49514,1.49514,0,0,1-1.06055-.43945l-2.72217-2.72168a1.49945,1.49945,0,0,1,0-2.12109l1.66162-1.66211-1.66162-1.66211a1.49945,1.49945,0,0,1,0-2.12109L64.271,44.92969a1.49984,1.49984,0,0,1,2.12109,2.12109l-1.66162,1.66211L66.39209,50.375a1.49945,1.49945,0,0,1,0,2.12109L64.73047,54.1582l1.66162,1.66113a1.5,1.5,0,0,1-1.06055,2.56055Z"/><path d="M32.728,46.51855H14.8374a1.5,1.5,0,1,1,0-3H32.728a1.5,1.5,0,0,1,0,3Z"/><path d="M21.25439,46.51855a1.49514,1.49514,0,0,1-1.06055-.43945L15.65625,41.542a1.49984,1.49984,0,0,1,2.12109-2.12109l4.5376,4.53711a1.5,1.5,0,0,1-1.06055,2.56055Z"/><path d="M16.7168,51.05566a1.5,1.5,0,0,1-1.06055-2.56055l4.5376-4.53711a1.49984,1.49984,0,0,1,2.12109,2.12109l-4.5376,4.53711A1.49514,1.49514,0,0,1,16.7168,51.05566Z"/><path d="M23.13379,63.88965a1.5,1.5,0,0,1-1.06055-2.56055L33.02686,50.375a1.49984,1.49984,0,0,1,2.12109,2.12109L24.19434,63.4502A1.49514,1.49514,0,0,1,23.13379,63.88965Z"/><path d="M27.6709,59.35254h-6.4165a1.5,1.5,0,0,1,0-3h6.4165a1.5,1.5,0,1,1,0,3Z"/><path d="M27.6709,65.76855a1.50007,1.50007,0,0,1-1.5-1.5v-6.416a1.5,1.5,0,0,1,3,0v6.416A1.50007,1.50007,0,0,1,27.6709,65.76855Z"/><path d="M40,38.93359a1.49976,1.49976,0,0,1-1.06055-.43945L26.01514,25.56934a1.49847,1.49847,0,0,1-.39453-1.42383L29.47021,8.74512a1.49983,1.49983,0,0,1,2.51563-.69727l4.09863,4.09863h7.83105l4.09863-4.09863a1.49983,1.49983,0,0,1,2.51563.69727l3.84961,15.40039a1.49847,1.49847,0,0,1-.39453,1.42383L41.06055,38.49414A1.49976,1.49976,0,0,1,40,38.93359ZM28.73682,24.04883,40,35.3125,51.26318,24.04883,48.26221,12.043,45.59766,14.707a1.49976,1.49976,0,0,1-1.06055.43945H35.46289a1.49976,1.49976,0,0,1-1.06055-.43945L31.73779,12.043Z"/><path d="M36.1499,26.05469a1.50007,1.50007,0,0,1-1.5-1.5V21.9873a1.5,1.5,0,0,1,3,0v2.56738A1.50007,1.50007,0,0,1,36.1499,26.05469Z"/><path d="M43.8501,26.05469a1.50007,1.50007,0,0,1-1.5-1.5V21.9873a1.5,1.5,0,0,1,3,0v2.56738A1.50007,1.50007,0,0,1,43.8501,26.05469Z"/><path d="M40,38.93359a1.50007,1.50007,0,0,1-1.5-1.5v-6.417a1.5,1.5,0,1,1,3,0v6.417A1.50007,1.50007,0,0,1,40,38.93359Z"/><path d="M40,56.85449a7.926,7.926,0,0,1-7.29395-4.834,1.46824,1.46824,0,0,1-.08594-.27441L29.103,35.14648a11.22548,11.22548,0,0,1-.00244-4.49023A11.073,11.073,0,0,1,29.75,28.56543a1.49972,1.49972,0,1,1,2.7627,1.168,8.14558,8.14558,0,0,0-.47314,1.52441A8.23449,8.23449,0,0,0,32.04,34.53613l3.48291,16.4375a4.92835,4.92835,0,0,0,.99951,1.43945,4.90594,4.90594,0,0,0,.72852.60156,4.97768,4.97768,0,0,0,.83789.45508,4.933,4.933,0,0,0,2.90186.28516,4.86536,4.86536,0,0,0,1.75732-.73926,4.94107,4.94107,0,0,0,1.729-2.042L47.9624,34.52539A8.2388,8.2388,0,0,0,47.96,31.25586a8.13385,8.13385,0,0,0-.47266-1.52246,1.49972,1.49972,0,1,1,2.7627-1.168,11.06138,11.06138,0,0,1,.64893,2.08887,11.22932,11.22932,0,0,1,.00049,4.48145L47.37988,51.74609a1.46824,1.46824,0,0,1-.08594.27441,7.91335,7.91335,0,0,1-1.69727,2.51563,7.91035,7.91035,0,0,1-1.1709.9668A7.91161,7.91161,0,0,1,40,56.85449Z"/></svg>