<svg xmlns="http://www.w3.org/2000/svg" viewBox="0 0 80 80"><title>alo_icon_community_islington-small</title><path d="M40,80A40,40,0,1,1,80,40,40.04552,40.04552,0,0,1,40,80ZM40,3A37,37,0,1,0,77,40,37.04161,37.04161,0,0,0,40,3Z"/><path d="M40.001,67.167a1.50013,1.50013,0,0,1-.90186-2.69922,12.19507,12.19507,0,0,1,14.63525,0,1.5002,1.5002,0,0,1-1.80273,2.39844,9.19458,9.19458,0,0,0-11.03076,0A1.492,1.492,0,0,1,40.001,67.167Z"/><path d="M39.999,67.167a1.491,1.491,0,0,1-.8999-.30078,9.19531,9.19531,0,0,0-11.03125,0,1.4999,1.4999,0,1,1-1.80176-2.39844,12.19434,12.19434,0,0,1,14.63477,0A1.49984,1.49984,0,0,1,39.999,67.167Z"/><path d="M40.001,43.63867a1.50013,1.50013,0,0,1-.90186-2.69922,12.19507,12.19507,0,0,1,14.63525,0,1.5002,1.5002,0,0,1-1.80273,2.39844,9.19458,9.19458,0,0,0-11.03076,0A1.492,1.492,0,0,1,40.001,43.63867Z"/><path d="M39.999,43.63867a1.491,1.491,0,0,1-.8999-.30078,9.19531,9.19531,0,0,0-11.03125,0,1.4999,1.4999,0,1,1-1.80176-2.39844,12.19434,12.19434,0,0,1,14.63477,0,1.49984,1.49984,0,0,1-.90186,2.69922Z"/><path d="M40,67.167a1.50007,1.50007,0,0,1-1.5-1.5V42.13867a1.5,1.5,0,0,1,3,0V65.667A1.50007,1.50007,0,0,1,40,67.167Z"/><path d="M52.833,67.167a1.50039,1.50039,0,0,1-1.5-1.5V42.13867a1.5,1.5,0,0,1,3,0V65.667A1.50039,1.50039,0,0,1,52.833,67.167Z"/><path d="M27.167,67.167a1.50007,1.50007,0,0,1-1.5-1.5V42.13867a1.5,1.5,0,0,1,3,0V65.667A1.50007,1.50007,0,0,1,27.167,67.167Z"/><path d="M20.75537,29.9502a7.917,7.917,0,1,1,7.9165-7.917A7.92623,7.92623,0,0,1,20.75537,29.9502Zm0-12.834a4.917,4.917,0,1,0,4.9165,4.917A4.92263,4.92263,0,0,0,20.75537,17.11621Z"/><path d="M40.00537,29.9502a7.917,7.917,0,1,1,7.9165-7.917A7.92623,7.92623,0,0,1,40.00537,29.9502Zm0-12.834a4.917,4.917,0,1,0,4.9165,4.917A4.92263,4.92263,0,0,0,40.00537,17.11621Z"/><path d="M59.25488,29.9502a7.917,7.917,0,1,1,7.917-7.917A7.92539,7.92539,0,0,1,59.25488,29.9502Zm0-12.834a4.917,4.917,0,1,0,4.917,4.917A4.92211,4.92211,0,0,0,59.25488,17.11621Z"/><path d="M40.00537,23.5332a4.7085,4.7085,0,1,1,4.7085-4.708A4.71383,4.71383,0,0,1,40.00537,23.5332Zm0-6.417a1.7085,1.7085,0,1,0,1.7085,1.709A1.71076,1.71076,0,0,0,40.00537,17.11621Z"/><path d="M43.208,41.99707a1.50039,1.50039,0,0,1-1.5-1.5v-3.792l-.77051.61621a1.49743,1.49743,0,0,1-1.87451,0l-.77148-.61719v3.793a1.5,1.5,0,0,1-3,0V33.583a1.49993,1.49993,0,0,1,2.437-1.1709L40,34.22949l2.27051-1.81738A1.50037,1.50037,0,0,1,44.708,33.583v6.91406A1.50039,1.50039,0,0,1,43.208,41.99707Z"/><path d="M43.208,73.583a1.49717,1.49717,0,0,1-.9375-.3291L40,71.4375l-2.27148,1.81641a1.49993,1.49993,0,0,1-2.437-1.1709V64.02539a1.5,1.5,0,0,1,3,0v4.93652l.77148-.61621a1.49674,1.49674,0,0,1,1.874,0l.771.61621V64.02539a1.5,1.5,0,0,1,3,0V72.083a1.50154,1.50154,0,0,1-1.5,1.5Z"/><path d="M27.1665,57.542H20.75a1.49983,1.49983,0,0,1-1.17139-2.43652L21.396,52.833,19.57861,50.5625A1.50037,1.50037,0,0,1,20.75,48.125h6.4165a1.5,1.5,0,1,1,0,3H23.87109l.61719.77051a1.50065,1.50065,0,0,1,0,1.874l-.61768.77246h3.2959a1.5,1.5,0,1,1,0,3Z"/><path d="M59.25,57.542H52.833a1.5,1.5,0,0,1,0-3h3.29688l-.61816-.77246a1.50065,1.50065,0,0,1,.001-1.874l.61621-.77051H52.833a1.5,1.5,0,0,1,0-3H59.25a1.50037,1.50037,0,0,1,1.1709,2.4375L58.60449,52.833l1.81738,2.27246A1.5005,1.5005,0,0,1,59.25,57.542Z"/></svg>