<svg xmlns="http://www.w3.org/2000/svg" viewBox="0 0 80 80"><title>alo_icon_community_southwark-small</title><path d="M40,80A40,40,0,1,1,80,40,40.04583,40.04583,0,0,1,40,80ZM40,3A37,37,0,1,0,77,40,37.04129,37.04129,0,0,0,40,3Z"/><path d="M20.75,39.89551a11.13706,11.13706,0,0,1-11.125-11.125,1.50039,1.50039,0,0,1,1.5-1.5h19.25a1.50039,1.50039,0,0,1,1.5,1.5A11.13706,11.13706,0,0,1,20.75,39.89551Zm-7.98633-9.625a8.12619,8.12619,0,0,0,15.97266,0Z"/><path d="M20.75,30.27051a1.50039,1.50039,0,0,1-1.5-1.5V15.9375a1.5,1.5,0,0,1,3,0v12.833A1.50039,1.50039,0,0,1,20.75,30.27051Z"/><path d="M27.167,21.28711H14.333a1.5,1.5,0,0,1,0-3H27.167a1.5,1.5,0,0,1,0,3Z"/><path d="M59.25,38.292a4.7085,4.7085,0,1,1,4.708-4.709A4.71393,4.71393,0,0,1,59.25,38.292Zm0-6.417a1.7085,1.7085,0,1,0,1.708,1.708A1.71045,1.71045,0,0,0,59.25,31.875Z"/><path d="M65.34863,33.8584a4.70881,4.70881,0,1,1,4.48242-3.25488A4.69034,4.69034,0,0,1,65.34863,33.8584Zm.002-6.418a1.71239,1.71239,0,0,0-1.62207,1.18066,1.70854,1.70854,0,1,0,2.15234-1.0957h-.001A1.70921,1.70921,0,0,0,65.35059,27.44043Z"/><path d="M63.01563,26.68262A4.70654,4.70654,0,0,1,59.21191,19.208h.001a4.708,4.708,0,1,1,3.80273,7.47461Zm-1.377-5.71094a1.70914,1.70914,0,1,0,2.38672-.37793,1.70834,1.70834,0,0,0-2.38672.37793Z"/><path d="M55.48438,26.68262a4.7009,4.7009,0,0,1-3.81445-1.93945h0a4.71029,4.71029,0,1,1,3.81445,1.93945Zm-.00977-6.416a1.70915,1.70915,0,0,0-1.37891,2.71289h.001a1.708,1.708,0,1,0,1.64844-2.69141A1.68363,1.68363,0,0,0,55.47461,20.2666Z"/><path d="M53.15137,33.8584a4.708,4.708,0,1,1,1.45117-.23047h-.001A4.68579,4.68579,0,0,1,53.15137,33.8584Zm.9873-1.65723h0Zm-.98926-4.76074a1.71173,1.71173,0,1,0,.77344.1875A1.689,1.689,0,0,0,53.14941,27.44043Z"/><path d="M40,59.4668a7.9165,7.9165,0,1,1,7.917-7.917A7.92623,7.92623,0,0,1,40,59.4668Zm0-12.833a4.9165,4.9165,0,1,0,4.917,4.916A4.92211,4.92211,0,0,0,40,46.63379Z"/><path d="M40,36.68848a1.50785,1.50785,0,0,1-.46387-.07324l-3.208-1.042a1.50027,1.50027,0,0,1,.92773-2.85352l3.208,1.042A1.50011,1.50011,0,0,1,40,36.68848Z"/><path d="M38.0166,39.418a1.4999,1.4999,0,0,1-1.21289-2.38184l1.98242-2.72949a1.50037,1.50037,0,0,1,2.42773,1.76367L39.23145,38.7998A1.50024,1.50024,0,0,1,38.0166,39.418Z"/><path d="M41.9834,39.418a1.50024,1.50024,0,0,1-1.21484-.61816l-1.98242-2.72949a1.50037,1.50037,0,0,1,2.42773-1.76367l1.98242,2.72949A1.4999,1.4999,0,0,1,41.9834,39.418Z"/><path d="M40,36.68848a1.50011,1.50011,0,0,1-.46387-2.92676l3.208-1.042a1.50027,1.50027,0,0,1,.92773,2.85352l-3.208,1.042A1.50785,1.50785,0,0,1,40,36.68848Z"/><path d="M40,36.68848a1.50039,1.50039,0,0,1-1.5-1.5v-3.373a1.5,1.5,0,0,1,3,0v3.373A1.50039,1.50039,0,0,1,40,36.68848Z"/><path d="M40,70.05566a1.50785,1.50785,0,0,1-.46387-.07324l-3.208-1.043a1.50027,1.50027,0,0,1,.92773-2.85352l3.208,1.043A1.50011,1.50011,0,0,1,40,70.05566Z"/><path d="M38.0166,72.78418a1.4999,1.4999,0,0,1-1.21289-2.38184l1.98242-2.72852a1.50037,1.50037,0,0,1,2.42773,1.76367L39.23145,72.166A1.50024,1.50024,0,0,1,38.0166,72.78418Z"/><path d="M41.9834,72.78418a1.49757,1.49757,0,0,1-1.21484-.61816L38.78613,69.4375a1.50037,1.50037,0,0,1,2.42773-1.76367l1.98242,2.72852a1.4999,1.4999,0,0,1-1.21289,2.38184Z"/><path d="M40,70.05566a1.50011,1.50011,0,0,1-.46387-2.92676l3.208-1.043a1.50027,1.50027,0,0,1,.92773,2.85352l-3.208,1.043A1.50785,1.50785,0,0,1,40,70.05566Z"/><path d="M40,70.05566a1.50039,1.50039,0,0,1-1.5-1.5v-3.374a1.5,1.5,0,0,1,3,0v3.374A1.50039,1.50039,0,0,1,40,70.05566Z"/><path d="M56.68359,53.37207a1.49724,1.49724,0,0,1-.46289-.07324l-3.209-1.042a1.5,1.5,0,0,1,.92578-2.85352l3.209,1.042a1.5,1.5,0,0,1-.46289,2.92676Z"/><path d="M54.69922,56.10156a1.4999,1.4999,0,0,1-1.21289-2.38184l1.9834-2.72949a1.50037,1.50037,0,1,1,2.42773,1.76367l-1.9834,2.72949A1.49757,1.49757,0,0,1,54.69922,56.10156Z"/><path d="M58.667,56.10156a1.50024,1.50024,0,0,1-1.21484-.61816l-1.98242-2.72949a1.50037,1.50037,0,1,1,2.42773-1.76367l1.98242,2.72949A1.4999,1.4999,0,0,1,58.667,56.10156Z"/><path d="M56.68359,53.37207a1.50011,1.50011,0,0,1-.46387-2.92676l3.208-1.042a1.50027,1.50027,0,0,1,.92773,2.85352l-3.208,1.042A1.50785,1.50785,0,0,1,56.68359,53.37207Z"/><path d="M56.68359,53.37207a1.50039,1.50039,0,0,1-1.5-1.5V48.499a1.5,1.5,0,0,1,3,0v3.373A1.50039,1.50039,0,0,1,56.68359,53.37207Z"/><path d="M23.31641,53.37207a1.50785,1.50785,0,0,1-.46387-.07324l-3.208-1.042a1.50027,1.50027,0,0,1,.92773-2.85352l3.208,1.042a1.50011,1.50011,0,0,1-.46387,2.92676Z"/><path d="M21.333,56.10156a1.4999,1.4999,0,0,1-1.21289-2.38184l1.98242-2.72949a1.50037,1.50037,0,1,1,2.42773,1.76367L22.54785,55.4834A1.50024,1.50024,0,0,1,21.333,56.10156Z"/><path d="M25.30078,56.10156a1.49757,1.49757,0,0,1-1.21484-.61816l-1.9834-2.72949a1.50037,1.50037,0,1,1,2.42773-1.76367l1.9834,2.72949a1.4999,1.4999,0,0,1-1.21289,2.38184Z"/><path d="M23.31641,53.37207a1.5,1.5,0,0,1-.46289-2.92676l3.209-1.042a1.5,1.5,0,0,1,.92578,2.85352l-3.209,1.042A1.49724,1.49724,0,0,1,23.31641,53.37207Z"/><path d="M23.31641,53.37207a1.50039,1.50039,0,0,1-1.5-1.5V48.499a1.5,1.5,0,0,1,3,0v3.373A1.50039,1.50039,0,0,1,23.31641,53.37207Z"/></svg>