<svg xmlns="http://www.w3.org/2000/svg" viewBox="0 0 80 80"><title>alo_icon_community_hackney-small</title><path d="M40,80A40,40,0,1,1,80,40,40.04552,40.04552,0,0,1,40,80ZM40,3A37,37,0,1,0,77,40,37.04161,37.04161,0,0,0,40,3Z"/><path d="M20.75,33.14355a1.49819,1.49819,0,0,1-.752-.20215,11.10936,11.10936,0,0,1,.00049-19.249,1.49782,1.49782,0,0,1,1.50293,0,11.10936,11.10936,0,0,1,.00049,19.249A1.49819,1.49819,0,0,1,20.75,33.14355Zm0-16.3623a8.10374,8.10374,0,0,0,0,13.07129,8.10374,8.10374,0,0,0,0-13.07129Z"/><path d="M20.75,33.14355a1.50007,1.50007,0,0,1-1.5-1.5V23.31641a1.5,1.5,0,0,1,3,0v8.32715A1.50007,1.50007,0,0,1,20.75,33.14355Z"/><path d="M59.25,33.14355a1.49819,1.49819,0,0,1-.752-.20215,11.10936,11.10936,0,0,1,.00049-19.249,1.49782,1.49782,0,0,1,1.50293,0,11.10936,11.10936,0,0,1,.00049,19.249A1.49819,1.49819,0,0,1,59.25,33.14355Zm0-16.3623a8.10374,8.10374,0,0,0,0,13.07129,8.10374,8.10374,0,0,0,0-13.07129Z"/><path d="M59.25,33.14355a1.50007,1.50007,0,0,1-1.5-1.5V23.31641a1.5,1.5,0,0,1,3,0v8.32715A1.50007,1.50007,0,0,1,59.25,33.14355Z"/><path d="M30.92578,40.30762a1.5,1.5,0,0,1-1.06055-2.56055L48.01416,19.59863a1.49984,1.49984,0,0,1,2.12109,2.12109L31.98633,39.86816A1.49514,1.49514,0,0,1,30.92578,40.30762Z"/><path d="M49.07471,40.30762a1.49514,1.49514,0,0,1-1.06055-.43945L29.86523,21.71973a1.49984,1.49984,0,0,1,2.12109-2.12109L50.13525,37.74707a1.5,1.5,0,0,1-1.06055,2.56055Z"/><path d="M40,72.62109a1.50007,1.50007,0,0,1-1.5-1.5v-3.209a1.5,1.5,0,0,1,3,0v3.209A1.50007,1.50007,0,0,1,40,72.62109Z"/><path d="M43.2085,69.41211a1.50007,1.50007,0,0,1-1.5-1.5V62.1377a1.7085,1.7085,0,1,0-3.417,0v5.77441a1.5,1.5,0,0,1-3,0V62.1377a4.7085,4.7085,0,1,1,9.417,0v5.77441A1.50007,1.50007,0,0,1,43.2085,69.41211Z"/><path d="M45.7749,69.41211H34.2251a1.5,1.5,0,0,1,0-3H45.7749a1.5,1.5,0,0,1,0,3Z"/><path d="M27.1665,59.78711a1.50007,1.50007,0,0,1-1.5-1.5v-3.208a1.5,1.5,0,0,1,3,0v3.208A1.50007,1.50007,0,0,1,27.1665,59.78711Z"/><path d="M30.375,56.5791a1.50007,1.50007,0,0,1-1.5-1.5V49.30371a1.70825,1.70825,0,0,0-3.4165,0V55.0791a1.5,1.5,0,1,1-3,0V49.30371a4.70825,4.70825,0,0,1,9.4165,0V55.0791A1.50007,1.50007,0,0,1,30.375,56.5791Z"/><path d="M32.94189,56.5791H21.3916a1.5,1.5,0,1,1,0-3H32.94189a1.5,1.5,0,0,1,0,3Z"/><path d="M52.8335,59.78711a1.50007,1.50007,0,0,1-1.5-1.5v-3.208a1.5,1.5,0,0,1,3,0v3.208A1.50007,1.50007,0,0,1,52.8335,59.78711Z"/><path d="M56.0415,56.5791a1.50007,1.50007,0,0,1-1.5-1.5V49.30371a1.70825,1.70825,0,0,0-3.4165,0V55.0791a1.5,1.5,0,0,1-3,0V49.30371a4.70825,4.70825,0,0,1,9.4165,0V55.0791A1.50007,1.50007,0,0,1,56.0415,56.5791Z"/><path d="M58.6084,56.5791H47.05859a1.5,1.5,0,0,1,0-3H58.6084a1.5,1.5,0,0,1,0,3Z"/></svg>