<svg xmlns="http://www.w3.org/2000/svg" viewBox="0 0 80 80"><title>alo_icon_community_ecublens-small</title><path d="M40,80A40,40,0,1,1,80,40,40.0452,40.0452,0,0,1,40,80ZM40,3A37,37,0,1,0,77,40,37.04192,37.04192,0,0,0,40,3Z"/><path d="M40,27.88818a1.49976,1.49976,0,0,1-1.5-1.5V1.5a1.5,1.5,0,0,1,3,0V26.38818A1.49976,1.49976,0,0,1,40,27.88818Z"/><path d="M40,80a1.49976,1.49976,0,0,1-1.5-1.5V53.61182a1.5,1.5,0,0,1,3,0V78.5A1.49976,1.49976,0,0,1,40,80Z"/><path d="M73.16309,61.05127a1.49514,1.49514,0,0,1-1.06055-.43945L38.93945,27.44873a1.49984,1.49984,0,0,1,2.12109-2.12109L74.22363,58.49072a1.5,1.5,0,0,1-1.06055,2.56055Z"/><path d="M40,27.88818a1.49514,1.49514,0,0,1-1.06055-.43945L19.38818,7.89746a1.49984,1.49984,0,0,1,2.12109-2.12109L41.06055,25.32764A1.5,1.5,0,0,1,40,27.88818Z"/><path d="M59.55127,74.66309a1.49514,1.49514,0,0,1-1.06055-.43945L38.93945,54.67236a1.49984,1.49984,0,0,1,2.12109-2.12109L60.61182,72.10254a1.5,1.5,0,0,1-1.06055,2.56055Z"/><path d="M40,55.11182a1.49514,1.49514,0,0,1-1.06055-.43945L5.77637,21.50928a1.49984,1.49984,0,0,1,2.12109-2.12109L41.06055,52.55127A1.5,1.5,0,0,1,40,55.11182Z"/></svg>