<svg xmlns="http://www.w3.org/2000/svg" viewBox="0 0 80 80"><title>alo_icon_community_pullynord-small</title><path d="M40,80A40,40,0,1,1,80,40,40.0452,40.0452,0,0,1,40,80ZM40,3A37,37,0,1,0,77,40,37.04192,37.04192,0,0,0,40,3Z"/><path d="M40.61963,71.77441a4.7085,4.7085,0,1,1,4.708-4.7085A4.71393,4.71393,0,0,1,40.61963,71.77441Zm0-6.417a1.7085,1.7085,0,1,0,1.708,1.7085A1.71065,1.71065,0,0,0,40.61963,65.35742Z"/><path d="M50.88623,61.50732a4.70825,4.70825,0,1,1,4.708-4.708A4.71352,4.71352,0,0,1,50.88623,61.50732Zm0-6.4165a1.70825,1.70825,0,1,0,1.708,1.7085A1.71065,1.71065,0,0,0,50.88623,55.09082Z"/><path d="M40.61963,61.50732a4.70825,4.70825,0,1,1,4.708-4.708A4.71352,4.71352,0,0,1,40.61963,61.50732Zm0-6.4165a1.70825,1.70825,0,1,0,1.708,1.7085A1.71065,1.71065,0,0,0,40.61963,55.09082Z"/><path d="M40.61963,51.24072a4.70825,4.70825,0,1,1,4.708-4.708A4.71352,4.71352,0,0,1,40.61963,51.24072Zm0-6.4165a1.70825,1.70825,0,1,0,1.708,1.7085A1.71065,1.71065,0,0,0,40.61963,44.82422Z"/><path d="M50.88623,51.24072a4.70825,4.70825,0,1,1,4.708-4.708A4.71352,4.71352,0,0,1,50.88623,51.24072Zm0-6.4165a1.70825,1.70825,0,1,0,1.708,1.7085A1.71065,1.71065,0,0,0,50.88623,44.82422Z"/><path d="M61.15283,51.24072a4.70825,4.70825,0,1,1,4.7085-4.708A4.71352,4.71352,0,0,1,61.15283,51.24072Zm0-6.4165a1.70825,1.70825,0,1,0,1.7085,1.7085A1.71065,1.71065,0,0,0,61.15283,44.82422Z"/><path d="M30.353,51.24072a4.70825,4.70825,0,1,1,4.708-4.708A4.71352,4.71352,0,0,1,30.353,51.24072Zm0-6.4165a1.70825,1.70825,0,1,0,1.708,1.7085A1.71065,1.71065,0,0,0,30.353,44.82422Z"/><path d="M20.08594,51.24072a4.70825,4.70825,0,1,1,4.7085-4.708A4.7131,4.7131,0,0,1,20.08594,51.24072Zm0-6.4165a1.70825,1.70825,0,1,0,1.7085,1.7085A1.71024,1.71024,0,0,0,20.08594,44.82422Z"/><path d="M30.353,40.97412a4.70825,4.70825,0,1,1,4.708-4.7085A4.71393,4.71393,0,0,1,30.353,40.97412Zm0-6.4165a1.70825,1.70825,0,1,0,1.708,1.708A1.71024,1.71024,0,0,0,30.353,34.55762Z"/><path d="M40.61963,40.97412a4.70825,4.70825,0,1,1,4.708-4.7085A4.71393,4.71393,0,0,1,40.61963,40.97412Zm0-6.4165a1.70825,1.70825,0,1,0,1.708,1.708A1.71024,1.71024,0,0,0,40.61963,34.55762Z"/><path d="M50.88623,40.97412a4.70825,4.70825,0,1,1,4.708-4.7085A4.71393,4.71393,0,0,1,50.88623,40.97412Zm0-6.4165a1.70825,1.70825,0,1,0,1.708,1.708A1.71024,1.71024,0,0,0,50.88623,34.55762Z"/><path d="M30.353,61.50732a4.70825,4.70825,0,1,1,4.708-4.708A4.71352,4.71352,0,0,1,30.353,61.50732Zm0-6.4165a1.70825,1.70825,0,1,0,1.708,1.7085A1.71065,1.71065,0,0,0,30.353,55.09082Z"/><path d="M43.0957,23.65186a11.10363,11.10363,0,0,1-2.8623-.37451,1.49957,1.49957,0,0,1-1.063-1.063A11.10954,11.10954,0,0,1,52.78174,8.603a1.501,1.501,0,0,1,1.06348,1.063A11.10178,11.10178,0,0,1,43.0957,23.65186Zm-1.21-3.09033a8.10318,8.10318,0,0,0,9.24316-9.24268,8.10368,8.10368,0,0,0-9.24316,9.24268Z"/><path d="M40.61963,23.32813a1.5,1.5,0,0,1-1.06055-2.56055l5.8877-5.8877A1.49984,1.49984,0,0,1,47.56787,17.001l-5.8877,5.8877A1.49514,1.49514,0,0,1,40.61963,23.32813Z"/><path d="M28.12939,30.54688a15.99256,15.99256,0,0,1-13.78857-7.9668,1.49963,1.49963,0,0,1,0-1.50391,15.9153,15.9153,0,0,1,27.57666,0,1.49963,1.49963,0,0,1,0,1.50391A15.99237,15.99237,0,0,1,28.12939,30.54688ZM17.40723,21.82813a12.91049,12.91049,0,0,0,21.44385,0,12.91049,12.91049,0,0,0-21.44385,0Z"/><path d="M40.61963,23.32813H28.12939a1.5,1.5,0,0,1,0-3H40.61963a1.5,1.5,0,0,1,0,3Z"/></svg>