<svg xmlns="http://www.w3.org/2000/svg" viewBox="0 0 80 80"><title>alo_areas-southlondon-small</title><path d="M40,80A40,40,0,1,1,80,40,40.04583,40.04583,0,0,1,40,80ZM40,3A37,37,0,1,0,77,40,37.04129,37.04129,0,0,0,40,3Z"/><path d="M27.167,35.083a1.50039,1.50039,0,0,1-1.5-1.5V14.333a1.5,1.5,0,0,1,3,0v19.25A1.50039,1.50039,0,0,1,27.167,35.083Z"/><path d="M31.97949,28.667h-9.625a1.5,1.5,0,0,1,0-3h9.625a1.5,1.5,0,1,1,0,3Z"/><path d="M78.5,41.5H1.5a1.5,1.5,0,0,1,0-3h77a1.5,1.5,0,0,1,0,3Z"/><path d="M40,67.167a1.50039,1.50039,0,0,1-1.5-1.5V1.5a1.5,1.5,0,0,1,3,0V65.667A1.50039,1.50039,0,0,1,40,67.167Z"/><path d="M40,67.167a1.49514,1.49514,0,0,1-1.06055-.43945l-4.53711-4.53711a1.49984,1.49984,0,0,1,2.12109-2.12109L40,63.5459l3.47656-3.47656a1.49984,1.49984,0,0,1,2.12109,2.12109l-4.53711,4.53711A1.49514,1.49514,0,0,1,40,67.167Z"/><path d="M40,73.23926a11.125,11.125,0,1,1,11.125-11.125A11.13706,11.13706,0,0,1,40,73.23926Zm0-19.25a8.125,8.125,0,1,0,8.125,8.125A8.13378,8.13378,0,0,0,40,53.98926Z"/></svg>