<svg xmlns="http://www.w3.org/2000/svg" viewBox="0 0 80 80"><title>alo_icon_community_lambeth-small</title><path d="M40,80A40,40,0,1,1,80,40,40.04583,40.04583,0,0,1,40,80ZM40,3A37,37,0,1,0,77,40,37.04129,37.04129,0,0,0,40,3Z"/><path d="M23.959,60.89844a1.49808,1.49808,0,0,1-1.2998-.75l-6.416-11.11426a1.49982,1.49982,0,1,1,2.59766-1.5l6.416,11.11426a1.50011,1.50011,0,0,1-1.29785,2.25Z"/><path d="M17.541,60.89844a1.50011,1.50011,0,0,1-1.29785-2.25l6.416-11.11426a1.49982,1.49982,0,1,1,2.59766,1.5l-6.416,11.11426A1.49808,1.49808,0,0,1,17.541,60.89844Z"/><path d="M27.167,55.34082H14.333a1.5,1.5,0,1,1,0-3H27.167a1.5,1.5,0,1,1,0,3Z"/><path d="M62.459,34.22363a1.49808,1.49808,0,0,1-1.2998-.75l-6.416-11.11426a1.49982,1.49982,0,0,1,2.59766-1.5l6.416,11.11426a1.50011,1.50011,0,0,1-1.29785,2.25Z"/><path d="M56.041,34.22363a1.50011,1.50011,0,0,1-1.29785-2.25l6.416-11.11426a1.49982,1.49982,0,0,1,2.59766,1.5l-6.416,11.11426A1.49808,1.49808,0,0,1,56.041,34.22363Z"/><path d="M65.667,28.667H52.833a1.5,1.5,0,0,1,0-3H65.667a1.5,1.5,0,0,1,0,3Z"/><path d="M27.167,28.667H14.333a1.5,1.5,0,0,1,0-3H27.167a1.5,1.5,0,0,1,0,3Z"/><path d="M20.75,35.083a1.50039,1.50039,0,0,1-1.5-1.5V20.75a1.5,1.5,0,0,1,3,0V33.583A1.50039,1.50039,0,0,1,20.75,35.083Z"/><path d="M65.667,57.9082H52.833a1.5,1.5,0,0,1,0-3H65.667a1.5,1.5,0,0,1,0,3Z"/><path d="M65.667,52.77441H52.833a1.5,1.5,0,0,1,0-3H65.667a1.5,1.5,0,0,1,0,3Z"/><path d="M56.68359,61.75781a1.50039,1.50039,0,0,1-1.5-1.5V47.4248a1.5,1.5,0,0,1,3,0v12.833A1.50039,1.50039,0,0,1,56.68359,61.75781Z"/><path d="M61.81641,61.75781a1.50039,1.50039,0,0,1-1.5-1.5V47.4248a1.5,1.5,0,0,1,3,0v12.833A1.50039,1.50039,0,0,1,61.81641,61.75781Z"/><path d="M40,28.667a7.917,7.917,0,1,1,7.917-7.917A7.92623,7.92623,0,0,1,40,28.667Zm0-12.834a4.917,4.917,0,1,0,4.917,4.917A4.92295,4.92295,0,0,0,40,15.833Z"/><path d="M44.53711,33.2041a1.49514,1.49514,0,0,1-1.06055-.43945l-4.53711-4.53711a1.49984,1.49984,0,0,1,2.12109-2.12109l4.53711,4.53711a1.5,1.5,0,0,1-1.06055,2.56055Z"/><path d="M40,67.167a1.50039,1.50039,0,0,1-1.5-1.5v-38.5a1.5,1.5,0,0,1,3,0v38.5A1.50039,1.50039,0,0,1,40,67.167Z"/><path d="M35.46289,33.2041a1.5,1.5,0,0,1-1.06055-2.56055l4.53711-4.53711a1.49984,1.49984,0,1,1,2.12109,2.12109l-4.53711,4.53711A1.49514,1.49514,0,0,1,35.46289,33.2041Z"/></svg>