<svg xmlns="http://www.w3.org/2000/svg" viewBox="0 0 80 80"><title>alo_icon_community_montagny-small</title><path d="M40,80A40,40,0,1,1,80,40,40.04552,40.04552,0,0,1,40,80ZM40,3A37,37,0,1,0,77,40,37.04161,37.04161,0,0,0,40,3Z"/><path d="M31.07617,45.2832a1.49569,1.49569,0,0,1-.99609-.37891,20.761,20.761,0,0,1-6.98047-15.49463,1.5,1.5,0,0,1,3,0,17.75843,17.75843,0,0,0,5.97461,13.25244,1.50022,1.50022,0,0,1-.998,2.62109Z"/><path d="M24.59961,69.40967a1.5,1.5,0,0,1,0-3,17.77014,17.77014,0,0,0,17.75-17.75,1.5,1.5,0,0,1,3,0A20.77374,20.77374,0,0,1,24.59961,69.40967Z"/><path d="M43.84961,50.15967a20.7064,20.7064,0,0,1-13.76953-5.25586,1.5,1.5,0,1,1,1.99414-2.24121,17.733,17.733,0,1,0,19.4834-29.22217,1.49986,1.49986,0,1,1,1.30664-2.7002,20.73766,20.73766,0,0,1-9.01465,39.41943Z"/><path d="M31.0752,45.2832a1.50006,1.50006,0,0,1-.10059-2.99658A22.5569,22.5569,0,0,0,50.79,12.56982a1.49962,1.49962,0,1,1,2.8418-.959A25.55491,25.55491,0,0,1,31.17969,45.27979C31.14453,45.28223,31.11035,45.2832,31.0752,45.2832Z"/></svg>