<svg xmlns="http://www.w3.org/2000/svg" viewBox="0 0 80 80"><title>alo_icon_community_onnens-small</title><path d="M40,80A40,40,0,1,1,80,40,40.04552,40.04552,0,0,1,40,80ZM40,3A37,37,0,1,0,77,40,37.04161,37.04161,0,0,0,40,3Z"/><path d="M53.06348,66.814h-19.25a1.50007,1.50007,0,0,1-1.5-1.5,11.24635,11.24635,0,0,1,.22559-2.23975l2.92383-13.80176L32.541,35.48145a11.28813,11.28813,0,0,1-.22754-2.251,11.125,11.125,0,1,1,22.02246,2.24219l-2.92285,13.7998L54.335,63.063a11.189,11.189,0,0,1,.22852,2.251A1.50007,1.50007,0,0,1,53.06348,66.814Zm-17.6123-3H51.4248c-.00879-.0459-.01758-.0918-.02734-.1377L48.41211,49.5835a1.51709,1.51709,0,0,1,0-.62207l2.9873-14.10205a8.1254,8.1254,0,1,0-16.08594-1.62891,8.21731,8.21731,0,0,0,.165,1.63965l2.98535,14.09131a1.51709,1.51709,0,0,1,0,.62207l-2.9873,14.10156C35.46777,63.72754,35.459,63.771,35.45117,63.814Z"/><path d="M56.27148,50.77246h-6.3916a1.5,1.5,0,0,1,0-3h6.3916a1.5,1.5,0,1,1,0,3Z"/><path d="M36.99609,50.77246h-6.3916a1.5,1.5,0,0,1,0-3h6.3916a1.5,1.5,0,0,1,0,3Z"/><path d="M35.90918,45.63916H30.60449a1.5,1.5,0,0,1,0-3h5.30469a1.5,1.5,0,0,1,0,3Z"/><path d="M56.27148,45.63916H50.96777a1.5,1.5,0,0,1,0-3h5.30371a1.5,1.5,0,0,1,0,3Z"/><path d="M34.82129,40.50586h-4.2168a1.5,1.5,0,1,1,0-3h4.2168a1.5,1.5,0,0,1,0,3Z"/><path d="M56.27148,40.50586h-4.2168a1.5,1.5,0,0,1,0-3h4.2168a1.5,1.5,0,0,1,0,3Z"/><path d="M33.81348,34.73047a7.92581,7.92581,0,0,1-7.917-7.9165,1.5,1.5,0,0,1,3,0,4.92253,4.92253,0,0,0,4.917,4.9165,1.5,1.5,0,0,1,0,3Z"/><path d="M30.42383,27.62207a1.50012,1.50012,0,0,1-.66992-2.84277,4.88423,4.88423,0,0,0,2.74121-4.38184,1.5,1.5,0,0,1,3,0,7.86585,7.86585,0,0,1-4.40332,7.06641A1.49058,1.49058,0,0,1,30.42383,27.62207Z"/><path d="M27.57813,28.314a7.89925,7.89925,0,0,1-3.543-14.96777,1.50018,1.50018,0,1,1,1.34961,2.67969,4.89161,4.89161,0,1,0,4.36914,8.75293,1.50018,1.50018,0,0,1,1.33789,2.68555A7.83084,7.83084,0,0,1,27.57813,28.314Z"/><path d="M30.42285,27.62207a1.49343,1.49343,0,0,1-.55762-.10791,11.07747,11.07747,0,0,1-6.60352-13.21729,1.49962,1.49962,0,1,1,2.89648.77832A8.081,8.081,0,0,0,30.98047,24.729a1.50034,1.50034,0,0,1-.55762,2.89307Z"/><path d="M39.58789,36.97656a1.50007,1.50007,0,0,1-1.5-1.5V32.90967a1.5,1.5,0,0,1,3,0v2.56689A1.50007,1.50007,0,0,1,39.58789,36.97656Z"/><path d="M47.28809,36.97656a1.50007,1.50007,0,0,1-1.5-1.5V32.90967a1.5,1.5,0,0,1,3,0v2.56689A1.50007,1.50007,0,0,1,47.28809,36.97656Z"/></svg>