<svg xmlns="http://www.w3.org/2000/svg" viewBox="0 0 80 80"><title>alo_icon_community_grandson-small</title><path d="M40,80A40,40,0,1,1,80,40,40.0452,40.0452,0,0,1,40,80ZM40,3A37,37,0,1,0,77,40,37.04192,37.04192,0,0,0,40,3Z"/><path d="M59.25,28.6665H54.4375a1.5,1.5,0,0,1,0-3H59.25a1.5,1.5,0,0,1,0,3Z"/><path d="M40,73.5835a25.57622,25.57622,0,0,1-24.39014-33.231A1.5005,1.5005,0,0,1,17.041,39.30225h0a1.5,1.5,0,0,1,1.43115,1.05029,22.5692,22.5692,0,0,0,43.05615,0A1.49944,1.49944,0,0,1,62.959,39.30225h0a1.49944,1.49944,0,0,1,1.43066,1.05029A25.57488,25.57488,0,0,1,40,73.5835ZM17.54346,45.82422q-.1062,1.092-.106,2.19678a22.5625,22.5625,0,0,0,45.125,0q0-1.10376-.10645-2.19678a25.588,25.588,0,0,1-44.9126,0Z"/><path d="M40,38.2915a11.125,11.125,0,1,1,11.125-11.125A11.13769,11.13769,0,0,1,40,38.2915Zm0-19.25a8.125,8.125,0,1,0,8.125,8.125A8.13441,8.13441,0,0,0,40,19.0415Z"/><path d="M40,14.229a1.49976,1.49976,0,0,1-1.5-1.5V7.9165a1.5,1.5,0,0,1,3,0V12.729A1.49976,1.49976,0,0,1,40,14.229Z"/><path d="M50.209,18.458a1.49976,1.49976,0,0,1-1.06055-2.56055l3.40234-3.40332a1.49984,1.49984,0,1,1,2.12109,2.12109l-3.40234,3.40332A1.49514,1.49514,0,0,1,50.209,18.458Z"/><path d="M53.61133,42.27832a1.49514,1.49514,0,0,1-1.06055-.43945L49.14844,38.436a1.49984,1.49984,0,0,1,2.12109-2.12109l3.40234,3.40283a1.5,1.5,0,0,1-1.06055,2.56055Z"/><path d="M40,47.9165a1.49976,1.49976,0,0,1-1.5-1.5V41.604a1.5,1.5,0,0,1,3,0v4.8125A1.49976,1.49976,0,0,1,40,47.9165Z"/><path d="M26.38818,42.27832a1.5,1.5,0,0,1-1.06055-2.56055l3.40283-3.40283A1.49984,1.49984,0,0,1,30.85156,38.436l-3.40283,3.40283A1.49514,1.49514,0,0,1,26.38818,42.27832Z"/><path d="M25.5625,28.6665H20.75a1.5,1.5,0,0,1,0-3h4.8125a1.5,1.5,0,0,1,0,3Z"/><path d="M29.791,18.458a1.49431,1.49431,0,0,1-1.06055-.43945l-3.40283-3.40332a1.49984,1.49984,0,0,1,2.12109-2.12109l3.40283,3.40332A1.5,1.5,0,0,1,29.791,18.458Z"/></svg>