<svg xmlns="http://www.w3.org/2000/svg" viewBox="0 0 160 160"><title>alo_icon_activity_snowshoeing-large</title><path d="M132.333,116.83789a1.50007,1.50007,0,0,1-1.5-1.5,24.66675,24.66675,0,1,0-49.3335,0,1.5,1.5,0,0,1-3,0,27.66675,27.66675,0,1,1,55.3335,0A1.50007,1.50007,0,0,1,132.333,116.83789Z"/><path d="M132.333,129.9209a1.50007,1.50007,0,0,1-1.5-1.5v-11.583H29.167v11.583a1.5,1.5,0,0,1-3,0v-13.083a1.50007,1.50007,0,0,1,1.5-1.5H132.333a1.50007,1.50007,0,0,1,1.5,1.5v13.083A1.50007,1.50007,0,0,1,132.333,129.9209Z"/><path d="M93.10156,94.18848a1.49738,1.49738,0,0,1-.81934-.24414L59.55469,72.55469a1.5003,1.5003,0,0,1,1.6416-2.51172L93.92383,91.43262a1.50035,1.50035,0,0,1-.82227,2.75586Z"/><path d="M63.58154,106.1543a1.49738,1.49738,0,0,1-.81934-.24414L51.81055,98.75293a1.49953,1.49953,0,0,1-.43457-2.07617L65.69141,74.77344a1.49962,1.49962,0,1,1,2.51074,1.64063L54.70752,97.0625l8.44043,5.51563L76.64307,81.93066a1.49962,1.49962,0,1,1,2.51074,1.64063L64.83838,105.47461A1.49828,1.49828,0,0,1,63.58154,106.1543Z"/><path d="M27.66748,116.83691a1.50007,1.50007,0,0,1-1.5-1.5V1.5a1.50007,1.50007,0,0,1,1.5-1.5h32.708a1.50007,1.50007,0,0,1,1.5,1.5V71.29883a1.5,1.5,0,0,1-3,0V3h-29.708V115.33691A1.50007,1.50007,0,0,1,27.66748,116.83691Z"/><path d="M60.37549,44.86621h-32.708a1.5,1.5,0,0,1,0-3h32.708a1.5,1.5,0,0,1,0,3Z"/><path d="M60.37549,55.333h-32.708a1.5,1.5,0,0,1,0-3h32.708a1.5,1.5,0,0,1,0,3Z"/><path d="M60.37549,34.40039h-32.708a1.5,1.5,0,0,1,0-3h32.708a1.5,1.5,0,0,1,0,3Z"/><path d="M64.2998,136.46289a1.50007,1.50007,0,0,1-1.5-1.5v-13.084a1.5,1.5,0,1,1,3,0v13.084A1.50007,1.50007,0,0,1,64.2998,136.46289Z"/><path d="M95.7002,136.46289a1.50007,1.50007,0,0,1-1.5-1.5v-13.084a1.5,1.5,0,1,1,3,0v13.084A1.50007,1.50007,0,0,1,95.7002,136.46289Z"/><path d="M151.9585,143.00391H8.0415a8.0415,8.0415,0,1,1,0-16.083h143.917a8.0415,8.0415,0,1,1,0,16.083ZM8.0415,129.9209a5.0415,5.0415,0,1,0,0,10.083h143.917a5.0415,5.0415,0,1,0,0-10.083Z"/><path d="M17.854,160a1.49942,1.49942,0,0,1-1.29883-.75l-9.8125-16.99609a1.5,1.5,0,0,1,1.29883-2.25h19.625a1.5,1.5,0,0,1,1.29883,2.25L19.15283,159.25A1.49942,1.49942,0,0,1,17.854,160Zm-7.21436-16.99609L17.854,155.5l7.21436-12.49609Z"/><path d="M48.92725,160a1.49942,1.49942,0,0,1-1.29883-.75l-9.8125-16.99609a1.5,1.5,0,0,1,1.29883-2.25h19.625a1.5,1.5,0,0,1,1.29883,2.25L50.22607,159.25A1.49942,1.49942,0,0,1,48.92725,160Zm-7.21436-16.99609L48.92725,155.5l7.21436-12.49609Z"/><path d="M80,160a1.49942,1.49942,0,0,1-1.29883-.75l-9.8125-16.99609a1.5,1.5,0,0,1,1.29883-2.25h19.625a1.5,1.5,0,0,1,1.29883,2.25L81.29883,159.25A1.49942,1.49942,0,0,1,80,160Zm-7.21436-16.99609L80,155.5l7.21436-12.49609Z"/><path d="M111.07275,160a1.49942,1.49942,0,0,1-1.29883-.75l-9.8125-16.99609a1.5,1.5,0,0,1,1.29883-2.25h19.625a1.5,1.5,0,0,1,1.29883,2.25L112.37158,159.25A1.49942,1.49942,0,0,1,111.07275,160Zm-7.21436-16.99609L111.07275,155.5l7.21436-12.49609Z"/><path d="M142.146,160a1.49942,1.49942,0,0,1-1.29883-.75l-9.8125-16.99609a1.5,1.5,0,0,1,1.29883-2.25h19.625a1.5,1.5,0,0,1,1.29883,2.25L143.44482,159.25A1.49942,1.49942,0,0,1,142.146,160Zm-7.21436-16.99609L142.146,155.5l7.21436-12.49609Z"/></svg>