<svg id="Elements" xmlns="http://www.w3.org/2000/svg" viewBox="0 0 75 75"><title>alo_activities</title><g id="_Group_" data-name="&lt;Group&gt;"><path d="M37.5,68.5a1,1,0,0,1-1-1V7.5a1,1,0,0,1,2,0v60A1,1,0,0,1,37.5,68.5Z"/><path d="M47.5,68.5h-20a1,1,0,0,1,0-2h20A1,1,0,0,1,47.5,68.5Z"/><path d="M17.49951,28.67627a1.00006,1.00006,0,0,1-.25-1.96826l40-10.35254a1.00014,1.00014,0,1,1,.501,1.93652l-40,10.35254A1.01334,1.01334,0,0,1,17.49951,28.67627Z"/><path d="M17.5,58.67627a11.01245,11.01245,0,0,1-11-11,1,1,0,0,1,1-1h20a1,1,0,0,1,1,1A11.01245,11.01245,0,0,1,17.5,58.67627Zm-8.94482-10a9.00062,9.00062,0,0,0,17.88965,0H8.55518Z"/><path d="M12.501,48.67627a0.99973,0.99973,0,0,1-.97119-1.24268l5-20a1.0001,1.0001,0,1,1,1.94043.48535l-5,20A1.00062,1.00062,0,0,1,12.501,48.67627Z"/><path d="M22.499,48.67627a1.00062,1.00062,0,0,1-.96924-0.75732l-5-20a1.0001,1.0001,0,1,1,1.94043-.48535l5,20A0.99973,0.99973,0,0,1,22.499,48.67627Z"/></g><path d="M57.5,48.32373a11.01245,11.01245,0,0,1-11-11,1,1,0,0,1,1-1h20a1,1,0,0,1,1,1A11.01245,11.01245,0,0,1,57.5,48.32373Zm-8.94482-10a9.00062,9.00062,0,0,0,17.88965,0H48.55518Z"/><path d="M52.501,38.32373a0.99973,0.99973,0,0,1-.97119-1.24268l5-20a1.0001,1.0001,0,1,1,1.94043.48535l-5,20A1.00062,1.00062,0,0,1,52.501,38.32373Z"/><path d="M62.499,38.32373a1.00062,1.00062,0,0,1-.96924-0.75732l-5-20a1.0001,1.0001,0,1,1,1.94043-.48535l5,20A0.99973,0.99973,0,0,1,62.499,38.32373Z"/></svg>