<svg id="Elements" xmlns="http://www.w3.org/2000/svg" viewBox="0 0 75 75"><title>alo_activities</title><path d="M27.5,63.5h-5a1,1,0,0,1-1-1V45a1,1,0,0,1,1-1h5a1,1,0,0,1,1,1V62.5A1,1,0,0,1,27.5,63.5Zm-4-2h3V46h-3V61.5Z"/><path d="M12.5,63.5h-5a1,1,0,0,1-1-1V45a1,1,0,0,1,1-1h5a1,1,0,0,1,1,1V62.5A1,1,0,0,1,12.5,63.5Zm-4-2h3V46h-3V61.5Z"/><path d="M27.5,46h-5a1,1,0,0,1-1-1V33.35449A3.50611,3.50611,0,0,1,19,30l1.25488-12.59961A1.00013,1.00013,0,0,1,21.25,16.5h7.5a1.00013,1.00013,0,0,1,.99512.90039l1.25,12.5A3.54845,3.54845,0,0,1,28.5,33.354V45A1,1,0,0,1,27.5,46Zm-4-2h3V32.5a1,1,0,0,1,1-1A1.50164,1.50164,0,0,0,29,30L27.84521,18.5H22.15479L20.99512,30.09961A1.4925,1.4925,0,0,0,22.5,31.5a1,1,0,0,1,1,1V44Z"/><path d="M12.5,46h-5a1,1,0,0,1-1-1V17.5a1,1,0,0,1,1-1H10a0.99992,0.99992,0,0,1,.96143.7251l5,17.5A1.00743,1.00743,0,0,1,16,35a3.50611,3.50611,0,0,1-2.5,3.35449V45A1,1,0,0,1,12.5,46Zm-4-2h3V37.5a1,1,0,0,1,1-1,1.50219,1.50219,0,0,0,1.49512-1.37744L9.24561,18.5H8.5V44Z"/><path d="M37.5,68.5A30.95821,30.95821,0,0,1,11.667,54.63428a1.00025,1.00025,0,1,1,1.666-1.10742,29.002,29.002,0,1,0-1.00488-30.41943,1,1,0,0,1-1.73535-.99414A30.99829,30.99829,0,1,1,37.5,68.5Z"/><path d="M26.25,28.5a1,1,0,0,1-1-1v-10a1,1,0,0,1,2,0v10A1,1,0,0,1,26.25,28.5Z"/><path d="M23.75,28.5a1,1,0,0,1-1-1v-10a1,1,0,0,1,2,0v10A1,1,0,0,1,23.75,28.5Z"/><path d="M43.73,54.75a11.01245,11.01245,0,0,1-11-11v-10a5.9593,5.9593,0,0,1,1.75781-4.24268L40.854,21.75488a3.54464,3.54464,0,0,1,.3916-0.4707l0.022-.02148a3.54656,3.54656,0,0,1,3.8252-.7373l11.96777,5.40186a8.49778,8.49778,0,0,1,3.71729,12.57617l-7.93457,11.4082A10.98985,10.98985,0,0,1,43.73,54.75ZM42.42822,22.98975l-0.001.00146-6.46,7.8584A4.05713,4.05713,0,0,0,34.73,33.75v10a9.00078,9.00078,0,0,0,16.46387,5.03076l7.93457-11.4082a6.47412,6.47412,0,0,0,.96924-2.311,6.512,6.512,0,0,0-3.83838-7.30176L44.2915,22.35791a1.56945,1.56945,0,0,0-1.5918.30176Z"/><path d="M54.561,42.49512a1.0001,1.0001,0,0,1-.86719-0.5l-7.5-12.99023a1.00016,1.00016,0,0,1,1.73242-1l7.5,12.99023A0.99991,0.99991,0,0,1,54.561,42.49512Z"/><path d="M50.231,44.99512a1.0001,1.0001,0,0,1-.86719-0.5l-7.5-12.99023a1.00016,1.00016,0,0,1,1.73242-1l7.5,12.99023A0.99991,0.99991,0,0,1,50.231,44.99512Z"/><path d="M45.90088,47.49512a1.0001,1.0001,0,0,1-.86719-0.5l-7.5-12.99023a1.00016,1.00016,0,0,1,1.73242-1l7.5,12.99023A0.99991,0.99991,0,0,1,45.90088,47.49512Z"/></svg>