<svg xmlns="http://www.w3.org/2000/svg" viewBox="0 0 160 159.99951"><title>alo_icon_activity_cinema-large</title><path d="M113.03711,133.83252H8.0415A8.05074,8.05074,0,0,1,0,125.79053v-65.416A8.05063,8.05063,0,0,1,8.0415,52.333H113.03711a8.05074,8.05074,0,0,1,8.042,8.0415v65.416A8.05084,8.05084,0,0,1,113.03711,133.83252ZM8.0415,55.333A5.04735,5.04735,0,0,0,3,60.37451v65.416a5.04746,5.04746,0,0,0,5.0415,5.042H113.03711a5.04756,5.04756,0,0,0,5.042-5.042v-65.416a5.04746,5.04746,0,0,0-5.042-5.0415Z"/><path d="M27.6665,55.333A27.6665,27.6665,0,1,1,55.333,27.6665,27.69783,27.69783,0,0,1,27.6665,55.333Zm0-52.333A24.6665,24.6665,0,1,0,52.333,27.6665,24.69455,24.69455,0,0,0,27.6665,3Z"/><path d="M93.4126,55.333a27.6665,27.6665,0,1,1,27.6665-27.6665A27.69783,27.69783,0,0,1,93.4126,55.333Zm0-52.333a24.6665,24.6665,0,1,0,24.6665,24.6665A24.69455,24.69455,0,0,0,93.4126,3Z"/><path d="M93.4126,35.708a8.0415,8.0415,0,1,1,8.0415-8.0415A8.05074,8.05074,0,0,1,93.4126,35.708Zm0-13.083a5.0415,5.0415,0,1,0,5.0415,5.0415A5.04746,5.04746,0,0,0,93.4126,22.625Z"/><path d="M27.6665,35.708a8.0415,8.0415,0,1,1,8.0415-8.0415A8.05063,8.05063,0,0,1,27.6665,35.708Zm0-13.083a5.0415,5.0415,0,1,0,5.0415,5.0415A5.04735,5.04735,0,0,0,27.6665,22.625Z"/><path d="M153.87451,128.87451a8.01832,8.01832,0,0,1-5.68652-2.35156L120.43457,98.769a8.05044,8.05044,0,0,1,0-11.37207L148.188,59.64258a8.05192,8.05192,0,0,1,11.37256,0A1.49976,1.49976,0,0,1,160,60.70313V125.4624a1.50061,1.50061,0,0,1-.43945,1.06055A8.0172,8.0172,0,0,1,153.87451,128.87451Zm0-68.585a5.028,5.028,0,0,0-3.56543,1.47412L122.55566,89.51807a5.048,5.048,0,0,0,0,7.12988l27.75342,27.75391a5.05172,5.05172,0,0,0,6.69092.3916V61.37256A5.03222,5.03222,0,0,0,153.87451,60.28955ZM158.5,125.4624h0Z"/><path d="M67.08105,159.99951H53.998a1.50007,1.50007,0,0,1-1.5-1.5v-26.167a1.50007,1.50007,0,0,1,1.5-1.5h13.083a1.50007,1.50007,0,0,1,1.5,1.5v26.167A1.50007,1.50007,0,0,1,67.08105,159.99951Zm-11.583-3h10.083v-23.167H55.498Z"/><path d="M67.08105,107.6665H27.83154a8.05084,8.05084,0,0,1-8.042-8.042V86.5415a8.05084,8.05084,0,0,1,8.042-8.042H67.08105a8.05074,8.05074,0,0,1,8.0415,8.042v13.083A8.05074,8.05074,0,0,1,67.08105,107.6665Zm-39.24951-26.167a5.04756,5.04756,0,0,0-5.042,5.042v13.083a5.04756,5.04756,0,0,0,5.042,5.042H67.08105a5.04746,5.04746,0,0,0,5.0415-5.042V86.5415a5.04746,5.04746,0,0,0-5.0415-5.042Z"/><path d="M73.62256,94.58252h-52.333a1.5,1.5,0,0,1,0-3h52.333a1.5,1.5,0,0,1,0,3Z"/><path d="M119.5791,94.58252H93.4126a1.5,1.5,0,0,1,0-3h26.1665a1.5,1.5,0,0,1,0,3Z"/><path d="M119.5791,81.49951H93.4126a1.5,1.5,0,0,1,0-3h26.1665a1.5,1.5,0,0,1,0,3Z"/><path d="M119.5791,107.6665H93.4126a1.5,1.5,0,0,1,0-3h26.1665a1.5,1.5,0,0,1,0,3Z"/></svg>