<svg id="Elements" xmlns="http://www.w3.org/2000/svg" viewBox="0 0 75 75"><title>alo_activities</title><path d="M17.5,63.5a0.99974,0.99974,0,0,1-1-1v-50a1,1,0,0,1,2,0v50A0.99974,0.99974,0,0,1,17.5,63.5Z"/><path d="M62.5,8.5h-40a1,1,0,0,1,0-2h40A1,1,0,0,1,62.5,8.5Z"/><path d="M42.5,18.5h-20a1,1,0,0,1,0-2h20A1,1,0,0,1,42.5,18.5Z"/><path d="M42.5,38.5h-20a1,1,0,0,1,0-2h20A1,1,0,0,1,42.5,38.5Z"/><path d="M52.5,28.5h-30a1,1,0,0,1,0-2h30A1,1,0,0,1,52.5,28.5Z"/><path d="M52.5,33.5h-30a1,1,0,0,1,0-2h30A1,1,0,0,1,52.5,33.5Z"/><path d="M52.5,43.5h-30a1,1,0,0,1,0-2h30A1,1,0,0,1,52.5,43.5Z"/><path d="M52.5,48.5h-30a1,1,0,0,1,0-2h30A1,1,0,0,1,52.5,48.5Z"/><path d="M52.5,53.5h-30a1,1,0,0,1,0-2h30A1,1,0,0,1,52.5,53.5Z"/><path d="M52.5,58.5h-30a1,1,0,0,1,0-2h30A1,1,0,0,1,52.5,58.5Z"/><path d="M67.5,13.5h-10a1,1,0,0,1,0-2h10A1,1,0,0,1,67.5,13.5Z"/><path d="M17.5,63.5H7.5a1,1,0,0,1,0-2h10A1,1,0,0,1,17.5,63.5Z"/><path d="M52.5,68.5h-40a1,1,0,0,1,0-2h40A1,1,0,0,1,52.5,68.5Z"/><path d="M57.5,63.5a0.99974,0.99974,0,0,1-1-1v-50a1,1,0,0,1,2,0v50A0.99974,0.99974,0,0,1,57.5,63.5Z"/><path d="M12.5,68.5a6.00656,6.00656,0,0,1-6-6,1,1,0,0,1,2,0,4,4,0,0,0,8,0,1,1,0,0,1,2,0A6.00656,6.00656,0,0,1,12.5,68.5Z"/><path d="M52.5,68.5a1,1,0,0,1,0-2,4.00427,4.00427,0,0,0,4-4,1,1,0,0,1,2,0A6.00656,6.00656,0,0,1,52.5,68.5Z"/><path d="M67.5,13.5a0.99974,0.99974,0,0,1-1-1,4,4,0,0,0-8,0,1,1,0,0,1-2,0,6,6,0,0,1,12,0A0.99974,0.99974,0,0,1,67.5,13.5Z"/><path d="M17.5,13.5a0.99974,0.99974,0,0,1-1-1,6.00656,6.00656,0,0,1,6-6,1,1,0,0,1,0,2,4.00427,4.00427,0,0,0-4,4A0.99974,0.99974,0,0,1,17.5,13.5Z"/></svg>