<svg id="Elements" xmlns="http://www.w3.org/2000/svg" viewBox="0 0 75 75"><title>alo_activities</title><path d="M14.999,43.5a0.99991,0.99991,0,0,1-.99609-0.92285l-2.5-32.5a1.00005,1.00005,0,0,1,1.99414-.1543l2.5,32.5a1,1,0,0,1-.92041,1.07422C15.05078,43.499,15.02441,43.5,14.999,43.5Z"/><path d="M60.001,43.5q-0.03882,0-.07764-0.00293a1,1,0,0,1-.92041-1.07422l2.5-32.5a1.00005,1.00005,0,0,1,1.99414.1543l-2.5,32.5A0.99991,0.99991,0,0,1,60.001,43.5Z"/><path d="M10.001,68.5a0.97548,0.97548,0,0,1-.19727-0.01953,0.99967,0.99967,0,0,1-.78418-1.17676l5-25a0.99992,0.99992,0,1,1,1.96094.39258l-5,25A0.99958,0.99958,0,0,1,10.001,68.5Z"/><path d="M64.999,68.5a0.99958,0.99958,0,0,1-.97949-0.80371l-5-25a0.99992,0.99992,0,0,1,1.96094-.39258l5,25a0.99967,0.99967,0,0,1-.78418,1.17676A0.97548,0.97548,0,0,1,64.999,68.5Z"/><path d="M30,58.5H12a1,1,0,0,1,0-2H30A1,1,0,0,1,30,58.5Z"/><path d="M63,58.5H45a1,1,0,0,1,0-2H63A1,1,0,0,1,63,58.5Z"/><path d="M60,43.5H42.5a1,1,0,0,1,0-2H60A1,1,0,0,1,60,43.5Z"/><path d="M32.5,43.5H15a1,1,0,0,1,0-2H32.5A1,1,0,0,1,32.5,43.5Z"/><path d="M30,68.5a0.99974,0.99974,0,0,1-1-1v-25a1,1,0,0,1,2,0v25A0.99974,0.99974,0,0,1,30,68.5Z"/><path d="M45,68.5a0.99974,0.99974,0,0,1-1-1v-25a1,1,0,0,1,2,0v25A0.99974,0.99974,0,0,1,45,68.5Z"/><path d="M45,58.5a1,1,0,0,1-.707-1.707l15-15A0.99989,0.99989,0,0,1,60.707,43.207l-15,15A0.99676,0.99676,0,0,1,45,58.5Z"/><path d="M62.99951,58.5a0.99877,0.99877,0,0,1-.63965-0.23145l-18-15a1.00023,1.00023,0,0,1,1.28027-1.53711l18,15A1.00006,1.00006,0,0,1,62.99951,58.5Z"/><path d="M30,58.5a0.99676,0.99676,0,0,1-.707-0.293l-15-15A0.99989,0.99989,0,0,1,15.707,41.793l15,15A1,1,0,0,1,30,58.5Z"/><path d="M12.00049,58.5a1.00006,1.00006,0,0,1-.64062-1.76855l18-15a1.00023,1.00023,0,0,1,1.28027,1.53711l-18,15A0.99877,0.99877,0,0,1,12.00049,58.5Z"/><path d="M67.5,11a0.99974,0.99974,0,0,1-1-1,1.5,1.5,0,0,0-3,0,1,1,0,0,1-2,0,3.5,3.5,0,0,1,7,0A0.99974,0.99974,0,0,1,67.5,11Z"/><path d="M12.5,11a0.99974,0.99974,0,0,1-1-1,1.5,1.5,0,0,0-3,0,1,1,0,0,1-2,0,3.5,3.5,0,0,1,7,0A0.99974,0.99974,0,0,1,12.5,11Z"/></svg>