<svg id="Elements" xmlns="http://www.w3.org/2000/svg" viewBox="0 0 75 75"><title>alo_activities</title><path d="M7.5,68.5a1,1,0,0,1-1-1v-55a6.00656,6.00656,0,0,1,6-6h50a6.00656,6.00656,0,0,1,6,6v40a6.00656,6.00656,0,0,1-6,6H17.91406L8.207,68.207A0.99894,0.99894,0,0,1,7.5,68.5Zm5-60a4.00427,4.00427,0,0,0-4,4V65.08594l8.293-8.293A1.00013,1.00013,0,0,1,17.5,56.5h45a4.00427,4.00427,0,0,0,4-4v-40a4.00427,4.00427,0,0,0-4-4h-50Z"/><path d="M37.51465,45.99609A1.02936,1.02936,0,0,1,36.5,44.99512a1.00015,1.00015,0,0,1,1-.999h0.01465a11.49539,11.49539,0,0,0,3.91846-22.29785,1.00028,1.00028,0,0,1,.68164-1.88086A13.4957,13.4957,0,0,1,37.51465,45.99609Z"/><path d="M33.22607,45.24219a1.01466,1.01466,0,0,1-.34082-0.05957,13.4957,13.4957,0,0,1,4.6001-26.17871H37.501a1,1,0,0,1-.001,2H37.48535a11.49539,11.49539,0,0,0-3.91846,22.29785A1.0002,1.0002,0,0,1,33.22607,45.24219Z"/><path d="M40.31543,48.15723a0.994,0.994,0,0,1-.6084-0.207l-2.81592-2.16113a0.99954,0.99954,0,0,1-.18457-1.40137l2.16064-2.81543a0.99986,0.99986,0,0,1,1.58691,1.2168l-1.55176,2.02246,2.02246,1.55273A0.99992,0.99992,0,0,1,40.31543,48.15723Z"/><path d="M35.33936,23.81934a1.00012,1.00012,0,0,1-.793-1.6084l1.55176-2.02246-2.02246-1.55273a0.99977,0.99977,0,1,1,1.21777-1.58594l2.81543,2.16113a0.99954,0.99954,0,0,1,.18457,1.40137L36.1333,23.42773A0.99825,0.99825,0,0,1,35.33936,23.81934Z"/></svg>