<svg xmlns="http://www.w3.org/2000/svg" viewBox="0 0 160 160"><title>alo_icon_activity_resources-large</title><path d="M158.5,160H1.5A1.49976,1.49976,0,0,1,0,158.5V27.6665A27.69783,27.69783,0,0,1,27.6665,0h104.667A27.69783,27.69783,0,0,1,160,27.6665V158.5A1.49976,1.49976,0,0,1,158.5,160ZM3,157H157V27.6665A24.69455,24.69455,0,0,0,132.3335,3H27.6665A24.69455,24.69455,0,0,0,3,27.6665Z"/><path d="M60.375,68.4165H1.5a1.5,1.5,0,0,1,0-3H60.375a1.5,1.5,0,0,1,0,3Z"/><path d="M158.5,68.4165H99.625a1.5,1.5,0,0,1,0-3H158.5a1.5,1.5,0,0,1,0,3Z"/><path d="M40.75,146.9165a1.49976,1.49976,0,0,1-1.5-1.5V80a1.5,1.5,0,0,1,3,0v65.4165A1.49976,1.49976,0,0,1,40.75,146.9165Z"/><path d="M119.25,146.9165a1.49976,1.49976,0,0,1-1.5-1.5V80a1.5,1.5,0,0,1,3,0v65.4165A1.49976,1.49976,0,0,1,119.25,146.9165Z"/><path d="M40.75,55.3335a1.49976,1.49976,0,0,1-1.5-1.5v-39.25a1.5,1.5,0,1,1,3,0v39.25A1.49976,1.49976,0,0,1,40.75,55.3335Z"/><path d="M119.25,55.3335a1.49976,1.49976,0,0,1-1.5-1.5v-39.25a1.5,1.5,0,0,1,3,0v39.25A1.49976,1.49976,0,0,1,119.25,55.3335Z"/><path d="M80,55.3335a1.49976,1.49976,0,0,1-1.5-1.5v-39.25a1.5,1.5,0,1,1,3,0v39.25A1.49976,1.49976,0,0,1,80,55.3335Z"/><path d="M80,107.6665a21.14883,21.14883,0,0,1-21.125-21.125V66.9165a1.5,1.5,0,0,1,3,0v19.625a18.125,18.125,0,0,0,36.25,0V66.9165a1.5,1.5,0,0,1,3,0v19.625A21.14883,21.14883,0,0,1,80,107.6665Z"/><path d="M80,94.5835a8.04175,8.04175,0,1,1,8.0415-8.042A8.05074,8.05074,0,0,1,80,94.5835ZM80,81.5a5.04175,5.04175,0,1,0,5.0415,5.0415A5.04735,5.04735,0,0,0,80,81.5Z"/><path d="M89.8125,133.8335H70.1875a1.49976,1.49976,0,0,1-1.5-1.5v-28.814a1.5,1.5,0,0,1,3,0v27.314h16.625v-27.314a1.5,1.5,0,0,1,3,0v28.814A1.49976,1.49976,0,0,1,89.8125,133.8335Z"/><path d="M80,120.75a1.49976,1.49976,0,0,1-1.5-1.5V106.1665a1.5,1.5,0,0,1,3,0V119.25A1.49976,1.49976,0,0,1,80,120.75Z"/><path d="M145.4165,146.9165H14.5835a1.49976,1.49976,0,0,1-1.5-1.5V80a1.49976,1.49976,0,0,1,1.5-1.5H60.375a1.5,1.5,0,0,1,0,3H16.0835v62.4165h127.833V81.5H99.625a1.5,1.5,0,0,1,0-3h45.7915a1.49976,1.49976,0,0,1,1.5,1.5v65.4165A1.49976,1.49976,0,0,1,145.4165,146.9165Z"/><path d="M145.4165,55.3335H14.5835a1.49976,1.49976,0,0,1-1.5-1.5V34.2085a21.14883,21.14883,0,0,1,21.125-21.125h91.583a21.14883,21.14883,0,0,1,21.125,21.125v19.625A1.49976,1.49976,0,0,1,145.4165,55.3335Zm-129.333-3h127.833V34.2085a18.14555,18.14555,0,0,0-18.125-18.125H34.2085a18.14555,18.14555,0,0,0-18.125,18.125Z"/></svg>