<svg xmlns="http://www.w3.org/2000/svg" viewBox="0 0 160 160.00195"><title>alo_icon_activity_theater-large</title><path d="M34.2085,44.78223a8.0415,8.0415,0,1,1,8.0415-8.041A8.05063,8.05063,0,0,1,34.2085,44.78223Zm0-13.083a5.0415,5.0415,0,1,0,5.0415,5.042A5.04756,5.04756,0,0,0,34.2085,31.69922Z"/><path d="M60.375,44.78223a8.0415,8.0415,0,1,1,8.042-8.041A8.05053,8.05053,0,0,1,60.375,44.78223Zm0-13.083a5.0415,5.0415,0,1,0,5.042,5.042A5.04746,5.04746,0,0,0,60.375,31.69922Z"/><path d="M47.292,84.03223a27.69783,27.69783,0,0,1-27.667-27.666,1.5,1.5,0,0,1,3,0,24.66675,24.66675,0,0,0,49.3335,0,1.5,1.5,0,0,1,3,0A27.69772,27.69772,0,0,1,47.292,84.03223Z"/><path d="M47.2915,112.73145a1.52449,1.52449,0,0,1-.332-.03711A60.38222,60.38222,0,0,1,0,53.834V8.042A8.05074,8.05074,0,0,1,8.0415,0h78.5A8.05074,8.05074,0,0,1,94.583,8.042l.00049,45.792a60.38333,60.38333,0,0,1-46.96,58.86035A1.52449,1.52449,0,0,1,47.2915,112.73145ZM8.0415,3A5.04746,5.04746,0,0,0,3,8.042V53.834a57.03926,57.03926,0,0,0,44.2915,55.8584A57.04122,57.04122,0,0,0,91.5835,53.834L91.583,8.042A5.04746,5.04746,0,0,0,86.5415,3Z"/><path d="M99.625,92.05273a8.0415,8.0415,0,1,1,8.0415-8.042A8.05084,8.05084,0,0,1,99.625,92.05273Zm0-13.083a5.0415,5.0415,0,1,0,5.0415,5.041A5.04735,5.04735,0,0,0,99.625,78.96973Z"/><path d="M125.7915,92.05273a8.0415,8.0415,0,1,1,8.0415-8.042A8.05074,8.05074,0,0,1,125.7915,92.05273Zm0-13.083a5.0415,5.0415,0,1,0,5.0415,5.041A5.04725,5.04725,0,0,0,125.7915,78.96973Z"/><path d="M138.875,131.30273a1.50007,1.50007,0,0,1-1.5-1.5,24.66675,24.66675,0,1,0-49.3335,0,1.5,1.5,0,0,1-3,0,27.66675,27.66675,0,1,1,55.3335,0A1.50007,1.50007,0,0,1,138.875,131.30273Z"/><path d="M112.708,160.002a1.5245,1.5245,0,0,1-.332-.03711,60.26427,60.26427,0,0,1-46.89014-57.25,1.5,1.5,0,0,1,2.999-.08008A57.26677,57.26677,0,0,0,112.708,156.96289,57.04048,57.04048,0,0,0,157,101.10352V55.3125a5.04746,5.04746,0,0,0-5.0415-5.042H93.083a1.5,1.5,0,0,1,0-3H151.9585A8.05074,8.05074,0,0,1,160,55.3125v45.791a60.38553,60.38553,0,0,1-46.96,58.86133A1.5245,1.5245,0,0,1,112.708,160.002Z"/></svg>