<svg id="Elements" xmlns="http://www.w3.org/2000/svg" viewBox="0 0 75 75"><title>alo_activities</title><path d="M37.5,40.52734a3.24609,3.24609,0,1,1,3.24609-3.24609A3.24959,3.24959,0,0,1,37.5,40.52734Zm0-4.49219a1.24609,1.24609,0,1,0,1.24609,1.24609A1.247,1.247,0,0,0,37.5,36.03516Z"/><path d="M41.78418,33.11523a3.243,3.243,0,1,1,1.61719-.43359A3.24861,3.24861,0,0,1,41.78418,33.11523ZM41.77637,28.625a1.24548,1.24548,0,1,0,.625,2.32422A1.24555,1.24555,0,0,0,41.77637,28.625Z"/><path d="M33.21582,33.11523a3.24492,3.24492,0,1,1,2.81641-1.62207A3.22693,3.22693,0,0,1,33.21582,33.11523ZM33.22363,28.625a1.24574,1.24574,0,1,0,.62012.167A1.23276,1.23276,0,0,0,33.22363,28.625Z"/><path d="M24.83691,40.19629a3.25208,3.25208,0,0,1-3.04883-2.1377c-0.00488-.01367-0.00977-0.02734-0.01367-0.041a16.59815,16.59815,0,0,1-.99512-5.67676c0-.06641.002-0.13281,0.00391-0.19824L8.123,24.833a3.246,3.246,0,0,1,3.24609-5.62207l6.91309,3.99219,1.69531-2.93555-6.91309-3.99121a3.24613,3.24613,0,1,1,3.24512-5.623L28.98242,17.9707a16.55957,16.55957,0,0,1,5.54785-2.083c0.02148-.00586.04395-0.00977,0.06641-0.01465a3.25906,3.25906,0,0,1,3.75977,2.63379,3.24676,3.24676,0,0,1-2.63379,3.76074,10.23011,10.23011,0,0,0-7.83594,13.57129,3.24555,3.24555,0,0,1-1.9375,4.16016A3.25061,3.25061,0,0,1,24.83691,40.19629Zm-1.15234-2.77734a1.24622,1.24622,0,0,0,1.58008.70117,1.2479,1.2479,0,0,0,.74414-1.59668A12.22862,12.22862,0,0,1,35.376,20.2959a1.2427,1.2427,0,0,0,1.01074-1.44238,1.25444,1.25444,0,0,0-1.39551-1.01758c-0.01562.00293-.03125,0.00684-0.0459,0.00879A14.627,14.627,0,0,0,29.543,19.97559a1.00227,1.00227,0,0,1-1.042.02637L15.30957,12.38574a1.24581,1.24581,0,1,0-1.24512,2.1582l7.7793,4.49121A1.00081,1.00081,0,0,1,22.21,20.40137l-2.69531,4.668a1.00139,1.00139,0,0,1-.60742.46582,1.01826,1.01826,0,0,1-.75879-0.09961l-7.7793-4.49219A1.24563,1.24563,0,1,0,9.123,23.10059l13.19434,7.61816a0.99991,0.99991,0,0,1,.499.91309l-0.01758.28906c-0.00977.13965-.01953,0.27832-0.01953,0.41992a14.61445,14.61445,0,0,0,.89844,5.05957Z"/><path d="M42.44043,64.78125a3.24959,3.24959,0,0,1-3.24609-3.24609V53.55273H35.80469v7.98242a3.24561,3.24561,0,1,1-6.49121,0V46.90234a16.75092,16.75092,0,0,1-4.49512-3.6875,1.12047,1.12047,0,0,1-.12793-0.127,3.24657,3.24657,0,0,1,4.793-4.37207,0.96823,0.96823,0,0,1,.126.127,10.21425,10.21425,0,0,0,15.72266.06934,0.82553,0.82553,0,0,1,.0752-0.0791,3.24535,3.24535,0,0,1,4.90039,4.25488,1.01575,1.01575,0,0,1-.125.126,16.75879,16.75879,0,0,1-4.49609,3.68848V61.53516A3.24959,3.24959,0,0,1,42.44043,64.78125ZM34.80469,51.55273h5.38965a0.99942,0.99942,0,0,1,1,1v8.98242a1.24609,1.24609,0,0,0,2.49219,0V46.30566a1.00107,1.00107,0,0,1,.541-0.88867,14.75134,14.75134,0,0,0,4.53906-3.626,0.95478,0.95478,0,0,1,.08691-0.09082,1.244,1.244,0,0,0-.23047-1.65234,1.25834,1.25834,0,0,0-.91016-0.28809,1.23566,1.23566,0,0,0-.84473.44043,0.92412,0.92412,0,0,1-.06641.07129,12.21494,12.21494,0,0,1-18.61035-.00586c-0.01953-.02051-0.04-0.042-0.05859-0.06543a1.24678,1.24678,0,0,0-1.98828,1.499,0.87839,0.87839,0,0,1,.08887.0918,14.75134,14.75134,0,0,0,4.53906,3.626,1.00107,1.00107,0,0,1,.541.88867V61.53516a1.24561,1.24561,0,1,0,2.49121,0V52.55273A0.99942,0.99942,0,0,1,34.80469,51.55273Z"/><path d="M50.16309,40.19629a3.24688,3.24688,0,0,1-3.05078-4.3584,10.23028,10.23028,0,0,0-7.835-13.57129,3.24589,3.24589,0,0,1,1.125-6.39355A16.58909,16.58909,0,0,1,46.0166,17.9707l12.67383-7.31738a3.246,3.246,0,0,1,3.24609,5.62207l-6.91406,3.99219,1.69531,2.93555,6.91309-3.99219A3.246,3.246,0,0,1,66.877,24.833L54.21582,32.14258c0.002,0.06543.00391,0.13184,0.00391,0.19824a16.62285,16.62285,0,0,1-1.00879,5.71973A3.25153,3.25153,0,0,1,50.16309,40.19629ZM39.835,17.8252a1.246,1.246,0,0,0-.21289,2.47266,12.23277,12.23277,0,0,1,9.37012,16.22656A1.24512,1.24512,0,1,0,51.333,37.374a14.62493,14.62493,0,0,0,.88672-5.0332c0-.1416-0.00977-0.28027-0.01953-0.41992l-0.01758-.28906a0.99991,0.99991,0,0,1,.499-0.91309L65.877,23.10059a1.24563,1.24563,0,0,0-1.24609-2.15723l-7.7793,4.49219a1.01947,1.01947,0,0,1-.75879.09961,1.00139,1.00139,0,0,1-.60742-0.46582L52.79,20.40137a1.00081,1.00081,0,0,1,.36621-1.36621l7.7793-4.49121a1.24581,1.24581,0,0,0-1.24512-2.1582L46.498,20.002a1.00605,1.00605,0,0,1-1.043-.02637,14.60479,14.60479,0,0,0-5.40039-2.13086A1.28506,1.28506,0,0,0,39.835,17.8252Z"/></svg>