<svg xmlns="http://www.w3.org/2000/svg" viewBox="0 0 160.00354 160.01259"><title>alo_activities-intergenerational-large</title><path d="M145.18652,160.01259a1.536,1.536,0,0,1-.38965-.05078L34.75977,130.47744a1.50043,1.50043,0,1,1,.77734-2.89844l110.03711,29.48437a1.50018,1.50018,0,0,1-.3877,2.94922Z"/><path d="M145.18652,160.01259a1.536,1.536,0,0,1-.38965-.05078,1.50141,1.50141,0,0,1-1.06055-1.83789,36.47266,36.47266,0,1,0-70.46-18.87891,1.50043,1.50043,0,1,1-2.89844-.77734,39.47353,39.47353,0,0,1,76.25684,20.43359A1.50078,1.50078,0,0,1,145.18652,160.01259Z"/><path d="M118.33594,113.50576a1.523,1.523,0,0,1-.38867-.05078,1.50065,1.50065,0,0,1-1.06152-1.83691l3.27539-12.22656a1.50018,1.50018,0,1,1,2.89844.77539l-3.27539,12.22656A1.50055,1.50055,0,0,1,118.33594,113.50576Z"/><path d="M132.96,156.73623a1.536,1.536,0,0,1-.38965-.05078,1.50141,1.50141,0,0,1-1.06055-1.83789c2.5498-9.51367,2.48438-19.09766-.18359-26.98535-2.59668-7.6748-7.34766-12.792-13.37891-14.40723-6.03809-1.61914-12.70508.43945-18.792,5.78711-6.25488,5.49707-11.10352,13.76465-13.65234,23.2793a1.50043,1.50043,0,0,1-2.89844-.77734c2.70117-10.08008,7.876-18.87207,14.57031-24.75586,6.86523-6.03223,14.51563-8.31641,21.54883-6.43164,7.03125,1.88379,12.5166,7.68848,15.44434,16.34473,2.85645,8.44238,2.94141,18.64355.24023,28.72363A1.50078,1.50078,0,0,1,132.96,156.73623Z"/><path d="M120.73438,153.46084a1.536,1.536,0,0,1-.38965-.05078,1.50141,1.50141,0,0,1-1.06055-1.83789c2.585-9.64551,3.76367-19.02734,3.32031-26.417-.39941-6.65234-2.14062-11.02637-4.65723-11.7002-2.52539-.67383-6.21289,2.24219-9.88477,7.80371-4.0791,6.17773-7.749,14.8916-10.333,24.53809a1.50043,1.50043,0,1,1-2.89844-.77734c2.666-9.94824,6.47559-18.97363,10.72754-25.41406,4.61523-6.99023,9.16309-10.11719,13.165-9.04883,3.99609,1.07031,6.373,6.05664,6.875,14.418.46289,7.7041-.751,17.42578-3.416,27.375A1.50078,1.50078,0,0,1,120.73438,153.46084Z"/><path d="M152.1748,115.80849a7.81886,7.81886,0,0,1-2.02734-.26758,82.9688,82.9688,0,0,1-28.957-14.19336A83.00155,83.00155,0,0,1,89.01465,99.161h0a7.82928,7.82928,0,0,1,4.05273-15.125,82.95821,82.95821,0,0,1,28.958,14.19434,82.93842,82.93842,0,0,1,32.17578,2.18555,7.83228,7.83228,0,0,1-2.02637,15.39258Zm-26.56836-14.94824a80.00616,80.00616,0,0,0,25.31836,11.78223,4.82854,4.82854,0,0,0,2.499-9.32812A80.078,80.078,0,0,0,125.60645,100.86025ZM89.792,96.26259a80.02468,80.02468,0,0,0,27.81738,2.45508A79.98568,79.98568,0,0,0,92.291,86.93447a4.82854,4.82854,0,0,0-2.499,9.32813Z"/><path d="M47.77832,49.58681a1.50018,1.50018,0,0,1-.3877-2.94922l89.35254-23.94238a1.50043,1.50043,0,1,1,.77734,2.89844L48.168,49.536A1.536,1.536,0,0,1,47.77832,49.58681Z"/><path d="M36.2373,72.33486a1.50018,1.50018,0,0,1-.3877-2.94922L158.11328,36.62588a1.50043,1.50043,0,1,1,.77734,2.89844L36.627,72.28408A1.536,1.536,0,0,1,36.2373,72.33486Z"/><path d="M46.02051,69.71474c-.04395,0-.08789-.002-.13281-.00586a1.49986,1.49986,0,0,1-1.36328-1.625L47.835,30.25478a20.50888,20.50888,0,0,1,22.19434-18.623l16.24707,1.42188L99.63672,3.69814a20.51074,20.51074,0,0,1,28.5332,5.03125l21.7793,31.10645a1.49982,1.49982,0,0,1-2.457,1.7207l-21.7793-31.10645a17.509,17.509,0,0,0-24.35547-4.29492L87.5498,15.82412a1.49659,1.49659,0,0,1-.99121.26563L69.76758,14.62A17.52548,17.52548,0,0,0,50.82324,30.5165L47.5127,68.3456A1.4999,1.4999,0,0,1,46.02051,69.71474Z"/><path d="M39.47266,50.52724A39.51694,39.51694,0,0,1,0,11.05459a1.50039,1.50039,0,0,1,1.5-1.5A48.6595,48.6595,0,0,1,49.24316,47.75771a1.50173,1.50173,0,0,1-1.13672,1.793A39.68859,39.68859,0,0,1,39.47266,50.52724ZM3.03125,12.579A36.51751,36.51751,0,0,0,39.47266,47.52724a36.21354,36.21354,0,0,0,6.4834-.60059A45.64917,45.64917,0,0,0,3.03125,12.579Z"/><path d="M26.92188,48.35927a1.50051,1.50051,0,0,1-1.38672-2.06836A20.39649,20.39649,0,0,1,42.64844,33.65127a1.50012,1.50012,0,1,1,.26758,2.98828A17.40937,17.40937,0,0,0,28.31055,47.42763,1.499,1.499,0,0,1,26.92188,48.35927Z"/><path d="M16.90137,43.038a1.531,1.531,0,0,1-.28125-.02637,1.49961,1.49961,0,0,1-1.19434-1.75293A20.48735,20.48735,0,0,1,35.541,24.60927c.15234,0,.30273.00879.45313.01953l.19434.01172a1.49988,1.49988,0,1,1-.10156,2.998c-.10156-.00293-.20117-.00977-.30078-.0166-.08105-.00586-.16211-.0127-.24512-.0127a17.48475,17.48475,0,0,0-17.168,14.208A1.50027,1.50027,0,0,1,16.90137,43.038Z"/><path d="M7.998,33.79873a1.46464,1.46464,0,0,1-.30371-.03125,1.49939,1.49939,0,0,1-1.167-1.77148A20.58818,20.58818,0,0,1,24.752,15.75088a1.5,1.5,0,1,1,.26563,2.98828A17.57165,17.57165,0,0,0,9.46484,32.60049,1.49952,1.49952,0,0,1,7.998,33.79873Z"/></svg>