<svg id="Elements" xmlns="http://www.w3.org/2000/svg" viewBox="0 0 75 75"><title>alo_activities</title><path d="M37.5,62.28711a0.99928,0.99928,0,0,1-.707-0.293L10.43262,35.6333A13.42605,13.42605,0,1,1,29.41992,16.646L37.5,24.72559,45.58008,16.646a13.42605,13.42605,0,1,1,18.9873,18.9873L38.207,61.99414A0.99928,0.99928,0,0,1,37.5,62.28711ZM19.92676,14.71338a11.42627,11.42627,0,0,0-8.08008,19.50586L37.5,59.873,63.15332,34.21924A11.42627,11.42627,0,1,0,46.99414,18.06006L38.207,26.84668a0.99964,0.99964,0,0,1-1.41406,0l-8.78711-8.78662A11.35071,11.35071,0,0,0,19.92676,14.71338Z"/><path d="M42.5,41h-10a1,1,0,0,1,0-2h10A1,1,0,0,1,42.5,41Z"/><path d="M37.5,46a0.99942,0.99942,0,0,1-1-1V35a1,1,0,0,1,2,0V45A0.99942,0.99942,0,0,1,37.5,46Z"/></svg>