<svg xmlns="http://www.w3.org/2000/svg" viewBox="0 0 160.00032 160"><title>alo_icon_activity_coffee-large</title><path d="M86.54182,55.3335a14.5835,14.5835,0,0,1,0-29.167,11.58325,11.58325,0,1,0,0-23.1665,1.5,1.5,0,0,1,0-3,14.58325,14.58325,0,1,1,0,29.1665,11.5835,11.5835,0,0,0,0,23.167,1.5,1.5,0,0,1,0,3Z"/><path d="M60.37532,55.3335a14.5835,14.5835,0,1,1,0-29.167,11.58325,11.58325,0,1,0,0-23.1665,1.5,1.5,0,0,1,0-3,14.58325,14.58325,0,1,1,0,29.1665,11.5835,11.5835,0,1,0,0,23.167,1.5,1.5,0,1,1,0,3Z"/><path d="M145.41682,101.125a14.5248,14.5248,0,0,1-5.11279-.96631,1.5,1.5,0,0,1,1.05469-2.80859,11.56661,11.56661,0,1,0,4.05811-22.3916,1.5,1.5,0,0,1,0-3,14.58325,14.58325,0,1,1,0,29.1665Z"/><path d="M73.45881,146.9165A73.54131,73.54131,0,0,1,.00032,73.4585a1.49976,1.49976,0,0,1,1.5-1.5h143.9165a1.49976,1.49976,0,0,1,1.5,1.5A73.5412,73.5412,0,0,1,73.45881,146.9165ZM3.01594,74.9585a70.45861,70.45861,0,0,0,140.88525,0Z"/><path d="M73.45881,160a156.73138,156.73138,0,0,1-72.647-17.64258,1.49987,1.49987,0,0,1,1.377-2.665A153.76278,153.76278,0,0,0,73.45881,157a153.76278,153.76278,0,0,0,71.27-17.30762,1.49987,1.49987,0,0,1,1.377,2.665A156.73138,156.73138,0,0,1,73.45881,160Z"/></svg>