<svg id="Elements" xmlns="http://www.w3.org/2000/svg" viewBox="0 0 75 75"><title>alo_activities</title><path d="M22.5,68.5A3.50425,3.50425,0,0,1,19,65V17.5a1,1,0,0,1,2,0V65a1.5,1.5,0,0,0,3,0V17.5a1,1,0,0,1,2,0V65A3.50425,3.50425,0,0,1,22.5,68.5Z"/><path d="M35,18.5H10A3.50425,3.50425,0,0,1,6.5,15V7.5a1,1,0,0,1,2,0V15A1.50164,1.50164,0,0,0,10,16.5H35A1.50164,1.50164,0,0,0,36.5,15V7.5a1,1,0,0,1,2,0V15A3.50425,3.50425,0,0,1,35,18.5Z"/><path d="M22.5,18.5a0.99974,0.99974,0,0,1-1-1V7.5a1,1,0,0,1,2,0v10A0.99974,0.99974,0,0,1,22.5,18.5Z"/><path d="M32.5,18.5a0.99974,0.99974,0,0,1-1-1V7.5a1,1,0,0,1,2,0v10A0.99974,0.99974,0,0,1,32.5,18.5Z"/><path d="M27.5,18.5a0.99974,0.99974,0,0,1-1-1V7.5a1,1,0,0,1,2,0v10A0.99974,0.99974,0,0,1,27.5,18.5Z"/><path d="M17.5,18.5a0.99974,0.99974,0,0,1-1-1V7.5a1,1,0,0,1,2,0v10A0.99974,0.99974,0,0,1,17.5,18.5Z"/><path d="M12.5,18.5a0.99974,0.99974,0,0,1-1-1V7.5a1,1,0,0,1,2,0v10A0.99974,0.99974,0,0,1,12.5,18.5Z"/><path d="M62.5,68.5h-20a0.99974,0.99974,0,0,1-1-1v-30a0.99974,0.99974,0,0,1,1-1h25a1,1,0,0,1,0,2,4.00427,4.00427,0,0,0-4,4v25A0.99974,0.99974,0,0,1,62.5,68.5Zm-19-2h18v-24a5.97574,5.97574,0,0,1,1.53174-4H43.5v28Z"/><path d="M37.5,58.5a0.99974,0.99974,0,0,1-1-1v-15a0.99974,0.99974,0,0,1,1-1h5a1,1,0,0,1,0,2h-4v14A0.99974,0.99974,0,0,1,37.5,58.5Z"/><path d="M40.1333,33.36523a3.499,3.499,0,0,1-2.47559-5.97363l8.83936-8.83887a0.99989,0.99989,0,0,1,1.41406,1.41406l-8.83887,8.83887a1.50036,1.50036,0,0,0,2.12158,2.12207l8.83887-8.83887a0.99989,0.99989,0,0,1,1.41406,1.41406L42.60791,32.3418A3.49558,3.49558,0,0,1,40.1333,33.36523Z"/><path d="M55.08936,15.91016a1,1,0,0,1-.707-1.707l7.07129-7.07031a0.99989,0.99989,0,0,1,1.41406,1.41406l-7.07129,7.07031A0.99676,0.99676,0,0,1,55.08936,15.91016Z"/><path d="M52.50732,25.56348h0a1.00013,1.00013,0,0,1-.707-0.293l-7.0708-7.07129a0.99964,0.99964,0,0,1,0-1.41406l7.0708-7.07129A11.02472,11.02472,0,0,1,62.418,6.874a0.99928,0.99928,0,0,1,.709.708,11.03638,11.03638,0,0,1-2.84131,10.61719l-7.07129,7.07129A1.00013,1.00013,0,0,1,52.50732,25.56348Zm-5.65674-8.07129,5.65674,5.65723,6.36426-6.36426h0a9.03,9.03,0,0,0,2.45605-8.1123,9.02867,9.02867,0,0,0-8.11328,2.45508Z"/></svg>