<svg id="Elements" xmlns="http://www.w3.org/2000/svg" viewBox="0 0 75 75"><title>alo_activities</title><path d="M57.5,45.42773a1.00011,1.00011,0,0,1-.93945-0.65869L47.87793,20.91455a0.9997,0.9997,0,1,1,1.87891-.68359l8.68262,23.85449a0.99938,0.99938,0,0,1-.59766,1.28125A0.9869,0.9869,0,0,1,57.5,45.42773Z"/><path d="M57.5,55.42725a11,11,0,1,1,11-11A11.01245,11.01245,0,0,1,57.5,55.42725Zm0-20a9,9,0,1,0,9,9A9.01047,9.01047,0,0,0,57.5,35.42725Z"/><path d="M17.5,55.42725a11,11,0,1,1,11-11A11.01245,11.01245,0,0,1,17.5,55.42725Zm0-20a9,9,0,1,0,9,9A9.01047,9.01047,0,0,0,17.5,35.42725Z"/><path d="M32.5,45.42725h-15a1,1,0,0,1,0-2h15A1,1,0,0,1,32.5,45.42725Z"/><path d="M32.501,45.42725a1,1,0,0,1-.53809-1.84326L52.25684,30.65527a0.99979,0.99979,0,0,1,1.07422,1.68652L33.03711,45.27051A0.99206,0.99206,0,0,1,32.501,45.42725Z"/><path d="M32.5,45.42773a1.00011,1.00011,0,0,1-.93945-0.65869L24.72021,25.9751a0.9997,0.9997,0,1,1,1.87891-.68359l6.84033,18.79395a0.99938,0.99938,0,0,1-.59766,1.28125A0.9869,0.9869,0,0,1,32.5,45.42773Z"/><path d="M29.26123,36.53076a1,1,0,0,1-.2583-1.96582l22.77881-6.10352a0.99989,0.99989,0,0,1,.51758,1.93164L29.52051,36.49658A0.99074,0.99074,0,0,1,29.26123,36.53076Z"/><path d="M17.499,45.42725a0.99992,0.99992,0,0,1-.81836-1.57373L26.55029,29.7583A1.00024,1.00024,0,1,1,28.189,30.90576L18.31934,45.001A0.99924,0.99924,0,0,1,17.499,45.42725Z"/><path d="M30.65967,26.6333h-10a1,1,0,0,1,0-2h10A1,1,0,0,1,30.65967,26.6333Z"/><path d="M53.81738,26.57275a1,1,0,0,1,0-2,1.5,1.5,0,0,0,0-3h-5a1,1,0,0,1,0-2h5A3.5,3.5,0,0,1,53.81738,26.57275Z"/></svg>