<svg xmlns="http://www.w3.org/2000/svg" viewBox="0 0 160.00402 160.00362"><title>alo_activities-music-large</title><path d="M66.917,133.83663a40.796,40.796,0,0,1-40.75-40.75,1.5,1.5,0,0,1,3,0,37.79274,37.79274,0,0,0,37.75,37.75,1.5,1.5,0,0,1,0,3Z"/><path d="M66.917,146.92061a53.89443,53.89443,0,0,1-53.834-53.834,1.5,1.5,0,0,1,3,0,50.89115,50.89115,0,0,0,50.834,50.834,1.5,1.5,0,0,1,0,3Z"/><path d="M66.917,160.00362a66.9165,66.9165,0,1,1,66.916-66.917A66.99242,66.99242,0,0,1,66.917,160.00362Zm0-130.833a63.9165,63.9165,0,1,0,63.916,63.916A63.98893,63.98893,0,0,0,66.917,29.17061Z"/><path d="M66.917,101.12862a8.0415,8.0415,0,1,1,8.041-8.042A8.05084,8.05084,0,0,1,66.917,101.12862Zm0-13.083a5.0415,5.0415,0,1,0,5.041,5.041A5.04735,5.04735,0,0,0,66.917,88.04561Z"/><path d="M145.42285,29.18136a14.59126,14.59126,0,1,1,13.69336-9.60352h0a14.61048,14.61048,0,0,1-13.69336,9.60352Zm-.01758-26.17969a11.58656,11.58656,0,1,0,10.89258,15.55078h0A11.597,11.597,0,0,0,145.40527,3.00167Z"/><path d="M114.08984,102.15108a1.50067,1.50067,0,0,1-1.40918-2.0127l26.84863-73.7666a1.49955,1.49955,0,1,1,2.81836,1.02539L115.499,101.16378A1.49995,1.49995,0,0,1,114.08984,102.15108Z"/><path d="M104.06836,110.56026a1.5,1.5,0,0,1-.96484-2.64941L113.126,99.50167a1.50006,1.50006,0,1,1,1.92773,2.29883l-10.02246,8.40918A1.494,1.494,0,0,1,104.06836,110.56026Z"/><path d="M158.5,133.83663H145.417a1.5,1.5,0,0,1,0-3H158.5a1.5,1.5,0,0,1,0,3Z"/><path d="M14.583,29.17061H1.5a1.5,1.5,0,0,1,0-3H14.583a1.5,1.5,0,1,1,0,3Z"/><path d="M151.958,160.00362a1.50039,1.50039,0,0,1-1.5-1.5v-52.333a1.5,1.5,0,0,1,3,0v52.333A1.50039,1.50039,0,0,1,151.958,160.00362Z"/><path d="M8.042,16.08663a8.0415,8.0415,0,1,1,8.041-8.041A8.05063,8.05063,0,0,1,8.042,16.08663Zm0-13.083a5.0415,5.0415,0,1,0,5.041,5.042A5.04756,5.04756,0,0,0,8.042,3.00362Z"/><path d="M34.208,16.08663a8.0415,8.0415,0,1,1,8.042-8.041A8.05043,8.05043,0,0,1,34.208,16.08663Zm0-13.083a5.0415,5.0415,0,1,0,5.042,5.042A5.04735,5.04735,0,0,0,34.208,3.00362Z"/></svg>