<svg id="Elements" xmlns="http://www.w3.org/2000/svg" viewBox="0 0 75 75"><title>alo_activities</title><path d="M67.499,53.5a0.997,0.997,0,0,1-.59961-0.2002,24.001,24.001,0,0,0-28.79883,0,1.0002,1.0002,0,1,1-1.20117-1.59961,26.00293,26.00293,0,0,1,31.20117,0A1,1,0,0,1,67.499,53.5Z"/><path d="M63.48047,68.50049a0.99961,0.99961,0,0,1-.91992-0.6084A24.00234,24.00234,0,0,0,37.62012,53.49268a0.99992,0.99992,0,1,1-.24023-1.98535A26.00062,26.00062,0,0,1,64.40039,67.10791,1.00142,1.00142,0,0,1,63.48047,68.50049Z"/><path d="M66.47852,61.26465a0.998,0.998,0,0,1-.78809-0.3833A24.0013,24.0013,0,0,0,37.873,53.42773a0.99993,0.99993,0,1,1-.74609-1.85547,26.00146,26.00146,0,0,1,30.1377,8.07568A0.99973,0.99973,0,0,1,66.47852,61.26465Z"/><path d="M11.51953,68.50049a1.00142,1.00142,0,0,1-.91992-1.39258A26.00062,26.00062,0,0,1,37.62012,51.50732a0.99992,0.99992,0,1,1-.24023,1.98535A24.00234,24.00234,0,0,0,12.43945,67.89209,1.00039,1.00039,0,0,1,11.51953,68.50049Z"/><path d="M8.52148,61.26465a0.99973,0.99973,0,0,1-.78613-1.6167A26.00146,26.00146,0,0,1,37.873,51.57227a0.99993,0.99993,0,0,1-.74609,1.85547A24.0013,24.0013,0,0,0,9.30957,60.88135,0.998,0.998,0,0,1,8.52148,61.26465Z"/><path d="M37.499,53.5a0.997,0.997,0,0,1-.59961-0.2002,24.001,24.001,0,0,0-28.79883,0A1.0002,1.0002,0,0,1,6.89941,51.7002a26.00293,26.00293,0,0,1,31.20117,0A1,1,0,0,1,37.499,53.5Z"/><path d="M67.499,13.49951a0.997,0.997,0,0,1-.59961-0.2002,24.001,24.001,0,0,0-28.79883,0,1.0002,1.0002,0,0,1-1.20117-1.59961,26.00293,26.00293,0,0,1,31.20117,0A1,1,0,0,1,67.499,13.49951Z"/><path d="M62.499,22.6665a0.997,0.997,0,0,1-.59961-0.2002,15.665,15.665,0,0,0-18.79883,0,1.0002,1.0002,0,1,1-1.20117-1.59961,17.667,17.667,0,0,1,21.20117,0A1,1,0,0,1,62.499,22.6665Z"/><path d="M62.499,27.6665a0.997,0.997,0,0,1-.59961-0.2002,15.665,15.665,0,0,0-18.79883,0,1.0002,1.0002,0,1,1-1.20117-1.59961,17.667,17.667,0,0,1,21.20117,0A1,1,0,0,1,62.499,27.6665Z"/><path d="M42.501,32.6665a1,1,0,0,1-.60156-1.7998A17.51929,17.51929,0,0,1,52.5,27.333a1,1,0,0,1,0,2,15.532,15.532,0,0,0-9.39941,3.1333A0.997,0.997,0,0,1,42.501,32.6665Z"/><path d="M32.499,22.6665a0.997,0.997,0,0,1-.59961-0.2002,15.665,15.665,0,0,0-18.79883,0,1.0002,1.0002,0,1,1-1.20117-1.59961,17.667,17.667,0,0,1,21.20117,0A1,1,0,0,1,32.499,22.6665Z"/><path d="M32.499,27.6665a0.997,0.997,0,0,1-.59961-0.2002,15.665,15.665,0,0,0-18.79883,0,1.0002,1.0002,0,1,1-1.20117-1.59961,17.667,17.667,0,0,1,21.20117,0A1,1,0,0,1,32.499,27.6665Z"/><path d="M32.499,32.6665a0.997,0.997,0,0,1-.59961-0.2002,15.665,15.665,0,0,0-18.79883,0,1.0002,1.0002,0,1,1-1.20117-1.59961,17.667,17.667,0,0,1,21.20117,0A1,1,0,0,1,32.499,32.6665Z"/><path d="M32.499,37.6665a0.997,0.997,0,0,1-.59961-0.2002,15.665,15.665,0,0,0-18.79883,0,1.0002,1.0002,0,1,1-1.20117-1.59961,17.667,17.667,0,0,1,21.20117,0A1,1,0,0,1,32.499,37.6665Z"/><path d="M37.499,13.49951a0.997,0.997,0,0,1-.59961-0.2002,24.001,24.001,0,0,0-28.79883,0,1.0002,1.0002,0,0,1-1.20117-1.59961,26.00293,26.00293,0,0,1,31.20117,0A1,1,0,0,1,37.499,13.49951Z"/><path d="M37.5,53.49951a0.99974,0.99974,0,0,1-1-1v-40a1,1,0,0,1,2,0v40A0.99974,0.99974,0,0,1,37.5,53.49951Z"/><path d="M67.5,53.5a0.99974,0.99974,0,0,1-1-1V12.49951a1,1,0,0,1,2,0V52.5A0.99974,0.99974,0,0,1,67.5,53.5Z"/><path d="M7.5,53.5a0.99974,0.99974,0,0,1-1-1V12.49951a1,1,0,0,1,2,0V52.5A0.99974,0.99974,0,0,1,7.5,53.5Z"/></svg>