<svg id="Elements" xmlns="http://www.w3.org/2000/svg" viewBox="0 0 75 75"><title>alo_activities</title><path d="M57.5,68.5a11.01245,11.01245,0,0,1-11-11v-20a11,11,0,0,1,22,0v20A11.01245,11.01245,0,0,1,57.5,68.5Zm0-40a9.01047,9.01047,0,0,0-9,9v20a9,9,0,0,0,18,0v-20A9.01047,9.01047,0,0,0,57.5,28.5Z"/><path d="M57.5,43.5a1,1,0,0,1-1-1V21.25a1,1,0,0,1,2,0V42.5A1,1,0,0,1,57.5,43.5Z"/><path d="M67.5,43.5h-20a1,1,0,0,1,0-2h20A1,1,0,0,1,67.5,43.5Z"/><path d="M12.5,28.5h-5a1,1,0,0,1-1-1V20a1,1,0,0,1,1-1h5a1,1,0,0,1,1,1v7.5A1,1,0,0,1,12.5,28.5Zm-4-2h3V21h-3v5.5Z"/><path d="M11.5,21h-3a1,1,0,0,1-1-1V17a1,1,0,0,1,1-1h3a1,1,0,0,1,1,1v3A1,1,0,0,1,11.5,21Zm-2-2h1V18h-1v1Z"/><path d="M20,48.5a11.01245,11.01245,0,0,1-11-11v-10a1,1,0,0,1,2,0v10a9,9,0,0,0,18,0V21.25a1,1,0,0,1,2,0V37.5A11.01245,11.01245,0,0,1,20,48.5Z"/><path d="M57.5,22.25a1,1,0,0,1-1-1,12.75,12.75,0,0,0-25.5,0,1,1,0,0,1-2,0,14.75,14.75,0,0,1,29.5,0A1,1,0,0,1,57.5,22.25Z"/></svg>