<svg id="Elements" xmlns="http://www.w3.org/2000/svg" viewBox="0 0 75 75"><title>alo_activities</title><path d="M67.5,68.5H7.5a1,1,0,0,1,0-2h60A1,1,0,0,1,67.5,68.5Z"/><path d="M67.5,63.5H7.5a1,1,0,0,1,0-2h60A1,1,0,0,1,67.5,63.5Z"/><path d="M62.25977,33.5H13.02441a1,1,0,1,1,0-2H62.25977A1,1,0,0,1,62.25977,33.5Z"/><path d="M65.78418,28.5H9.21582a1,1,0,1,1,0-2H65.78418A1,1,0,0,1,65.78418,28.5Z"/><path d="M65.7832,28.5a0.99388,0.99388,0,0,1-.57617-0.18359l-28.28418-20a0.99981,0.99981,0,0,1,1.1543-1.63281l28.28418,20A1,1,0,0,1,65.7832,28.5Z"/><path d="M9.2168,28.5a1,1,0,0,1-.57812-1.81641l28.28418-20a0.99981,0.99981,0,0,1,1.1543,1.63281l-28.28418,20A0.99388,0.99388,0,0,1,9.2168,28.5Z"/><path d="M37.5,63.5a0.99974,0.99974,0,0,1-1-1v-30a1,1,0,0,1,2,0v30A0.99974,0.99974,0,0,1,37.5,63.5Z"/><path d="M28.5,63.5a0.99974,0.99974,0,0,1-1-1v-30a1,1,0,0,1,2,0v30A0.99974,0.99974,0,0,1,28.5,63.5Z"/><path d="M19.5,63.5a0.99974,0.99974,0,0,1-1-1v-30a1,1,0,0,1,2,0v30A0.99974,0.99974,0,0,1,19.5,63.5Z"/><path d="M46.5,63.5a0.99974,0.99974,0,0,1-1-1v-30a1,1,0,0,1,2,0v30A0.99974,0.99974,0,0,1,46.5,63.5Z"/><path d="M55.5,63.5a0.99974,0.99974,0,0,1-1-1v-30a1,1,0,0,1,2,0v30A0.99974,0.99974,0,0,1,55.5,63.5Z"/><path d="M67.5,68.5a0.99974,0.99974,0,0,1-1-1v-5a1,1,0,0,1,2,0v5A0.99974,0.99974,0,0,1,67.5,68.5Z"/><path d="M7.5,68.5a0.99974,0.99974,0,0,1-1-1v-5a1,1,0,0,1,2,0v5A0.99974,0.99974,0,0,1,7.5,68.5Z"/><path d="M63.28418,42.71631a4.28111,4.28111,0,0,1-4.27637-4.27686,3.62511,3.62511,0,0,1,3.62109-3.62158A3.1006,3.1006,0,0,1,65.72559,37.915a1,1,0,0,1-2,0,1.09831,1.09831,0,0,0-1.09668-1.09717,1.62344,1.62344,0,0,0-1.62109,1.62158,2.27945,2.27945,0,0,0,2.27637,2.27686,3.09956,3.09956,0,0,0,3.0957-3.09619A4.12493,4.12493,0,0,0,62.25977,33.5a1,1,0,1,1,0-2,6.1269,6.1269,0,0,1,6.12012,6.12012A5.10185,5.10185,0,0,1,63.28418,42.71631Z"/><path d="M12,42.71631a5.10185,5.10185,0,0,1-5.0957-5.09619A6.1269,6.1269,0,0,1,13.02441,31.5a1,1,0,0,1,0,2A4.12493,4.12493,0,0,0,8.9043,37.62012,3.09956,3.09956,0,0,0,12,40.71631a2.27945,2.27945,0,0,0,2.27637-2.27686,1.62344,1.62344,0,0,0-1.62109-1.62158A1.09831,1.09831,0,0,0,11.55859,37.915a1,1,0,0,1-2,0,3.1,3.1,0,0,1,3.09668-3.09717,3.62511,3.62511,0,0,1,3.62109,3.62158A4.28111,4.28111,0,0,1,12,42.71631Z"/></svg>