<svg xmlns="http://www.w3.org/2000/svg" viewBox="0 0 160 160"><title>alo_icon_activity_meeting-large</title><path d="M21.123,94.583a1.49884,1.49884,0,0,1-1.49316-1.38477l-6.542-85.0415a1.49955,1.49955,0,1,1,2.99023-.23047l6.542,85.0415a1.49833,1.49833,0,0,1-1.37988,1.61035C21.20117,94.582,21.16211,94.583,21.123,94.583Z"/><path d="M138.877,94.583c-.03906,0-.07812-.001-.11719-.00488a1.49833,1.49833,0,0,1-1.37988-1.61035l6.542-85.0415a1.49955,1.49955,0,1,1,2.99023.23047l-6.542,85.0415A1.49952,1.49952,0,0,1,138.877,94.583Z"/><path d="M8.04395,160a1.45468,1.45468,0,0,1-.2959-.0293,1.4988,1.4988,0,0,1-1.17676-1.76465l13.083-65.417a1.49979,1.49979,0,1,1,2.94141.58789l-13.083,65.417A1.50016,1.50016,0,0,1,8.04395,160Z"/><path d="M151.95605,160a1.50016,1.50016,0,0,1-1.46875-1.20605l-13.083-65.417a1.49979,1.49979,0,1,1,2.94141-.58789l13.083,65.417a1.4988,1.4988,0,0,1-1.17676,1.76465A1.45468,1.45468,0,0,1,151.95605,160Z"/><path d="M60.375,133.833H13.27539a1.5,1.5,0,1,1,0-3H60.375a1.5,1.5,0,0,1,0,3Z"/><path d="M146.72461,133.833H99.625a1.5,1.5,0,0,1,0-3h47.09961a1.5,1.5,0,0,1,0,3Z"/><path d="M138.875,94.583H93.083a1.5,1.5,0,0,1,0-3h45.792a1.5,1.5,0,0,1,0,3Z"/><path d="M66.917,94.583H21.125a1.5,1.5,0,0,1,0-3H66.917a1.5,1.5,0,0,1,0,3Z"/><path d="M60.375,160a1.50039,1.50039,0,0,1-1.5-1.5V93.083a1.5,1.5,0,0,1,3,0V158.5A1.50039,1.50039,0,0,1,60.375,160Z"/><path d="M99.625,160a1.50039,1.50039,0,0,1-1.5-1.5V93.083a1.5,1.5,0,0,1,3,0V158.5A1.50039,1.50039,0,0,1,99.625,160Z"/><path d="M99.625,133.833a1.5,1.5,0,0,1-1.06055-2.56055l39.25-39.25a1.49984,1.49984,0,0,1,2.12109,2.12109l-39.25,39.25A1.49514,1.49514,0,0,1,99.625,133.833Z"/><path d="M146.72363,133.833a1.49326,1.49326,0,0,1-.959-.34766L98.665,94.23535a1.49981,1.49981,0,0,1,1.91992-2.30469l47.09961,39.25a1.5,1.5,0,0,1-.96094,2.65234Z"/><path d="M60.375,133.833a1.49514,1.49514,0,0,1-1.06055-.43945l-39.25-39.25a1.49984,1.49984,0,0,1,2.12109-2.12109l39.25,39.25A1.5,1.5,0,0,1,60.375,133.833Z"/><path d="M13.27637,133.833a1.5,1.5,0,0,1-.96094-2.65234l47.09961-39.25A1.49981,1.49981,0,0,1,61.335,94.23535l-47.09961,39.25A1.49326,1.49326,0,0,1,13.27637,133.833Z"/><path d="M158.5,9.5415a1.50007,1.50007,0,0,1-1.5-1.5,5.0415,5.0415,0,1,0-10.083,0,1.5,1.5,0,1,1-3,0,8.0415,8.0415,0,1,1,16.083,0A1.50007,1.50007,0,0,1,158.5,9.5415Z"/><path d="M14.583,9.5415a1.50007,1.50007,0,0,1-1.5-1.5A5.0415,5.0415,0,1,0,3,8.0415a1.5,1.5,0,0,1-3,0,8.0415,8.0415,0,1,1,16.083,0A1.50007,1.50007,0,0,1,14.583,9.5415Z"/></svg>