<svg xmlns="http://www.w3.org/2000/svg" viewBox="0 0 160.00065 160.00146"><title>alo_icon_activity_reading-large</title><path d="M158.49935,120.751a1.49447,1.49447,0,0,1-.90039-.30078,63.917,63.917,0,0,0-76.69727,0,1.5002,1.5002,0,0,1-1.80273-2.39844,66.91895,66.91895,0,0,1,80.30273,0,1.50018,1.50018,0,0,1-.90234,2.69922Z"/><path d="M147.9847,160.00146a1.50146,1.50146,0,0,1-1.38086-.91211A63.91759,63.91759,0,0,0,80.181,120.74023a1.50018,1.50018,0,1,1-.36133-2.97852,66.92036,66.92036,0,0,1,69.54395,40.15088,1.50131,1.50131,0,0,1-1.37891,2.08887Z"/><path d="M155.8265,141.06787a1.49733,1.49733,0,0,1-1.18164-.57471,63.91872,63.91872,0,0,0-74.085-19.85059,1.49989,1.49989,0,1,1-1.11914-2.7832,66.9187,66.9187,0,0,1,77.56543,20.7832,1.50028,1.50028,0,0,1-1.17969,2.42529Z"/><path d="M12.01595,160.00146A1.50131,1.50131,0,0,1,10.637,157.9126,66.92036,66.92036,0,0,1,80.181,117.76172a1.50018,1.50018,0,1,1-.36133,2.97852,63.91759,63.91759,0,0,0-66.42285,38.34912A1.50146,1.50146,0,0,1,12.01595,160.00146Z"/><path d="M4.17415,141.06787a1.50028,1.50028,0,0,1-1.17969-2.42529,66.9187,66.9187,0,0,1,77.56543-20.7832,1.49989,1.49989,0,1,1-1.11914,2.7832,63.91872,63.91872,0,0,0-74.085,19.85059A1.49733,1.49733,0,0,1,4.17415,141.06787Z"/><path d="M79.99935,120.751a1.49447,1.49447,0,0,1-.90039-.30078,63.917,63.917,0,0,0-76.69727,0A1.5002,1.5002,0,0,1,.599,118.05176a66.91895,66.91895,0,0,1,80.30273,0,1.50018,1.50018,0,0,1-.90234,2.69922Z"/><path d="M158.49935,16.083a1.49447,1.49447,0,0,1-.90039-.30078,63.917,63.917,0,0,0-76.69727,0A1.5002,1.5002,0,0,1,79.099,13.38379a66.91895,66.91895,0,0,1,80.30273,0,1.50018,1.50018,0,0,1-.90234,2.69922Z"/><path d="M145.41634,40.06885a1.48959,1.48959,0,0,1-.89941-.30078,42.11621,42.11621,0,0,0-50.5332,0,1.49961,1.49961,0,1,1-1.80078-2.39844,45.1123,45.1123,0,0,1,54.13477,0,1.49979,1.49979,0,0,1-.90137,2.69922Z"/><path d="M145.41634,53.15234a1.48959,1.48959,0,0,1-.89941-.30078,42.11621,42.11621,0,0,0-50.5332,0,1.49961,1.49961,0,1,1-1.80078-2.39844,45.1123,45.1123,0,0,1,54.13477,0,1.49979,1.49979,0,0,1-.90137,2.69922Z"/><path d="M93.08431,66.23584a1.49979,1.49979,0,0,1-.90137-2.69922,44.724,44.724,0,0,1,27.06738-9.02246,1.5,1.5,0,0,1,0,3,41.75649,41.75649,0,0,0-25.2666,8.4209A1.48959,1.48959,0,0,1,93.08431,66.23584Z"/><path d="M66.91634,40.06885a1.48959,1.48959,0,0,1-.89941-.30078,42.11621,42.11621,0,0,0-50.5332,0,1.49961,1.49961,0,1,1-1.80078-2.39844,45.1123,45.1123,0,0,1,54.13477,0,1.49979,1.49979,0,0,1-.90137,2.69922Z"/><path d="M66.91634,53.15234a1.48959,1.48959,0,0,1-.89941-.30078,42.11621,42.11621,0,0,0-50.5332,0,1.49961,1.49961,0,1,1-1.80078-2.39844,45.1123,45.1123,0,0,1,54.13477,0,1.49979,1.49979,0,0,1-.90137,2.69922Z"/><path d="M66.91634,66.23584a1.48959,1.48959,0,0,1-.89941-.30078,42.11621,42.11621,0,0,0-50.5332,0,1.49961,1.49961,0,1,1-1.80078-2.39844,45.1123,45.1123,0,0,1,54.13477,0,1.49979,1.49979,0,0,1-.90137,2.69922Z"/><path d="M66.91634,79.31885a1.48959,1.48959,0,0,1-.89941-.30078,42.11621,42.11621,0,0,0-50.5332,0,1.49961,1.49961,0,1,1-1.80078-2.39844,45.1123,45.1123,0,0,1,54.13477,0,1.49979,1.49979,0,0,1-.90137,2.69922Z"/><path d="M79.99935,16.083a1.49447,1.49447,0,0,1-.90039-.30078,63.917,63.917,0,0,0-76.69727,0A1.5002,1.5002,0,0,1,.599,13.38379a66.91895,66.91895,0,0,1,80.30273,0,1.50018,1.50018,0,0,1-.90234,2.69922Z"/><path d="M80.00032,120.74951a1.50007,1.50007,0,0,1-1.5-1.5V14.583a1.5,1.5,0,1,1,3,0v104.6665A1.50007,1.50007,0,0,1,80.00032,120.74951Z"/><path d="M158.50032,120.751a1.50007,1.50007,0,0,1-1.5-1.5V14.583a1.5,1.5,0,1,1,3,0V119.251A1.50007,1.50007,0,0,1,158.50032,120.751Z"/><path d="M1.50032,120.751a1.50007,1.50007,0,0,1-1.5-1.5V14.583a1.5,1.5,0,0,1,3,0V119.251A1.50007,1.50007,0,0,1,1.50032,120.751Z"/></svg>