<svg xmlns="http://www.w3.org/2000/svg" viewBox="0 0 160 159.99634"><title>alo_icon_activity_hiking-large</title><path d="M158.5,149.52954H93.084a1.50007,1.50007,0,0,1-1.5-1.5,34.208,34.208,0,0,1,68.416,0A1.50007,1.50007,0,0,1,158.5,149.52954Zm-63.88086-3h62.3457a31.209,31.209,0,0,0-62.3457,0Z"/><path d="M158.5,159.99634H85.18066a1.50061,1.50061,0,0,1-1.06055-.43945L.43945,75.87573a1.49945,1.49945,0,0,1,0-2.12109L10.457,63.73706a1.59752,1.59752,0,0,1,1.06836-.43945,1.49876,1.49876,0,0,1,1.06348.4502l81.125,82.78174H158.5a1.50007,1.50007,0,0,1,1.5,1.5v10.4668A1.50007,1.50007,0,0,1,158.5,159.99634Zm-72.69824-3H157v-7.4668H93.084a1.499,1.499,0,0,1-1.07129-.4502L11.50684,66.92993,3.62109,74.81519Z"/><path d="M11.51758,66.29761A1.5,1.5,0,0,1,10.457,63.73706L62.59082,11.60327a1.49984,1.49984,0,0,1,2.12109,2.12109L12.57813,65.85815A1.49514,1.49514,0,0,1,11.51758,66.29761Z"/><path d="M105.28223,53.0813a8.016,8.016,0,0,1-5.68652-2.35205L62.59082,13.72437a8.04179,8.04179,0,0,1,11.373-11.37256l37.00488,37.00488a8.03833,8.03833,0,0,1-5.68652,13.72461ZM68.27734,2.99878a5.03931,5.03931,0,0,0-3.56543,8.60449L101.7168,48.60815a5.04211,5.04211,0,0,0,7.13086-7.13037L71.84277,4.4729A5.02759,5.02759,0,0,0,68.27734,2.99878Z"/><path d="M125.793,116.822a1.49907,1.49907,0,0,1-1.40039-.96436L99.25586,50.20483a1.49951,1.49951,0,1,1,2.80078-1.07227l25.13672,65.65283A1.50081,1.50081,0,0,1,125.793,116.822Z"/><path d="M86.42285,75.39771a8.04326,8.04326,0,1,1,2.86621-.53174A8.05519,8.05519,0,0,1,86.42285,75.39771Zm-.01465-13.0835A5.04155,5.04155,0,1,0,91.123,65.55347,5.015,5.015,0,0,0,86.4082,62.31421Z"/><path d="M93.44141,93.72534a8.04174,8.04174,0,1,1,7.499-10.91748h0a8.04135,8.04135,0,0,1-7.499,10.91748ZM93.43262,80.6394a5.04331,5.04331,0,1,0,4.707,3.2417l-.001-.00049a5.04979,5.04979,0,0,0-4.70605-3.24121Z"/><path d="M100.457,112.053a8.04181,8.04181,0,1,1,7.501-10.91748l.001.00049a8.04375,8.04375,0,0,1-7.502,10.917Zm-.01465-13.084a5.04159,5.04159,0,1,0,4.71484,3.23975h0A5.05219,5.05219,0,0,0,100.44238,98.969Z"/><path d="M92.52344,66.51733A1.5004,1.5004,0,0,1,91.9873,63.616l12.21875-4.67773A1.5,1.5,0,0,1,105.27832,61.74L93.05957,66.41772A1.49646,1.49646,0,0,1,92.52344,66.51733Z"/><path d="M99.54,84.845a1.5004,1.5004,0,0,1-.53613-2.90137l12.21875-4.67822a1.5,1.5,0,0,1,1.07227,2.80176l-12.21875,4.67822A1.49646,1.49646,0,0,1,99.54,84.845Z"/><path d="M106.55762,103.17261a1.50036,1.50036,0,0,1-.53613-2.90137L118.23926,95.593a1.5,1.5,0,0,1,1.07227,2.80176L107.09375,103.073A1.49646,1.49646,0,0,1,106.55762,103.17261Z"/></svg>