<svg xmlns="http://www.w3.org/2000/svg" viewBox="0 0 160 160"><title>alo_icon_activity_conference-large</title><path d="M119.25,81.5a1.49976,1.49976,0,0,1-1.06055-.43945l-39.25-39.25A1.49976,1.49976,0,0,1,78.5,40.75,40.74979,40.74979,0,1,1,119.25,81.5ZM81.50488,40.13379l38.36133,38.36133a37.75022,37.75022,0,0,0,26.07715-64.43848A37.75015,37.75015,0,0,0,81.50488,40.13379Z"/><path d="M119.42383,81.67383a1.50007,1.50007,0,0,1-1.5-1.5l-.00049-78.46631a1.5,1.5,0,0,1,3,0l.00049,78.46631A1.50007,1.50007,0,0,1,119.42383,81.67383Z"/><path d="M99.79883,61.70215a1.49976,1.49976,0,0,1-1.5-1.5V6.77734a1.50007,1.50007,0,0,1,1.5-1.5h0a1.50007,1.50007,0,0,1,1.5,1.5l-.001,14.17432.001,39.25049A1.49976,1.49976,0,0,1,99.79883,61.70215Z"/><path d="M139.04785,76.17383h0a1.49976,1.49976,0,0,1-1.5-1.5l.001-53.72168-.00049-13.74463a1.5,1.5,0,0,1,3,0l.00049,13.74463-.001,53.72168A1.50007,1.50007,0,0,1,139.04785,76.17383Z"/><path d="M139.04834,42.07715l-59.22217-.001a1.5,1.5,0,0,1,0-3h0l59.22217.001,19.24414-.00049a1.5,1.5,0,0,1,0,3Z"/><path d="M153.22363,61.70215H99.79883a1.5,1.5,0,0,1,0-3h53.4248a1.5,1.5,0,0,1,0,3Z"/><path d="M139.04883,22.45215H85.32617a1.5,1.5,0,0,1,0-3l14.47168-.00049,39.251.00049,13.74365-.00049a1.5,1.5,0,0,1,0,3Z"/><path d="M30.24072,159.01367a1.49536,1.49536,0,0,1-1.061-.43945L1.42578,130.82031a1.5,1.5,0,0,1-.0791-2.03613l68.26221-79.7583a1.50113,1.50113,0,0,1,1.08154-.52344,1.47956,1.47956,0,0,1,1.11865.43848l39.25,39.24951a1.49977,1.49977,0,0,1-.085,2.2002l-79.7583,68.2627A1.49525,1.49525,0,0,1,30.24072,159.01367Zm-25.7124-29.333,25.791,25.791L107.7915,89.165,70.834,52.2085Z"/><path d="M109.99854,90.751a1.49514,1.49514,0,0,1-1.06055-.43945L69.688,51.062a1.49945,1.49945,0,0,1,0-2.12109l9.25146-9.25146a1.49984,1.49984,0,0,1,2.12109,2.12109l-8.19092,8.19092,37.12891,37.12842,8.19092-8.19043a1.49984,1.49984,0,1,1,2.12109,2.12109l-9.25146,9.251A1.49514,1.49514,0,0,1,109.99854,90.751Z"/><path d="M1.5,160a1.5,1.5,0,0,1-1.06055-2.56055l14.86328-14.86328a1.49984,1.49984,0,0,1,2.12109,2.12109L2.56055,159.56055A1.49514,1.49514,0,0,1,1.5,160Z"/><path d="M67.24561,103.50586a1.49514,1.49514,0,0,1-1.06055-.43945l-9.25146-9.251a1.49945,1.49945,0,0,1,0-2.12109L75.436,73.19141a1.49945,1.49945,0,0,1,2.12109,0l9.25146,9.251a1.49945,1.49945,0,0,1,0,2.12109L68.30615,103.06641A1.49514,1.49514,0,0,1,67.24561,103.50586Zm-7.13037-10.751,7.13037,7.12988L83.627,83.50293,76.49658,76.373Z"/><path d="M74.64648,96.10449a1.49514,1.49514,0,0,1-1.06055-.43945l-9.25146-9.251A1.49984,1.49984,0,0,1,66.45557,84.293l9.25146,9.251a1.5,1.5,0,0,1-1.06055,2.56055Z"/></svg>