<svg xmlns="http://www.w3.org/2000/svg" viewBox="0 0 160 160"><title>alo_icon_activity_petanque-large</title><path d="M119.25,160A40.75,40.75,0,1,1,160,119.25,40.796,40.796,0,0,1,119.25,160Zm0-78.5A37.75,37.75,0,1,0,157,119.25,37.79274,37.79274,0,0,0,119.25,81.5Z"/><path d="M149.62207,100.186a1.50079,1.50079,0,0,1-1.37891-2.09033c.3125-.73.6626-1.42773,1.001-2.10205l.29053-.58154a1.5,1.5,0,1,1,2.68848,1.33105l-.29785.5957c-.333.66357-.64746,1.29053-.92334,1.93652A1.501,1.501,0,0,1,149.62207,100.186Z"/><path d="M150.87988,143.92285a1.49954,1.49954,0,0,1-1.34521-.835l-.29053-.58154c-.33838-.67432-.68848-1.37207-1.001-2.10205a1.50021,1.50021,0,1,1,2.75879-1.17969c.27588.646.59033,1.27295.92334,1.93652l.29785.5957a1.50092,1.50092,0,0,1-1.34326,2.166Z"/><path d="M149.623,141.31494a1.49985,1.49985,0,0,1-1.37939-.91064,53.87249,53.87249,0,0,1,0-42.30859,1.49977,1.49977,0,0,1,2.75781,1.17969,50.87832,50.87832,0,0,0,0,39.94922,1.50129,1.50129,0,0,1-1.37842,2.09033Z"/><path d="M134.03271,105.96924a1.50234,1.50234,0,0,1-1.46289-1.83789,66.52293,66.52293,0,0,1,5.916-15.95117,1.5,1.5,0,1,1,2.65625,1.39453,63.52793,63.52793,0,0,0-5.64941,15.23145A1.50038,1.50038,0,0,1,134.03271,105.96924Z"/><path d="M139.8125,90.37793a1.50082,1.50082,0,0,1-1.32666-2.19775c.40918-.77979.83691-1.54785,1.27637-2.30811a1.49982,1.49982,0,0,1,2.59766,1.5c-.41895.72607-.82715,1.459-1.21777,2.20264A1.50012,1.50012,0,0,1,139.8125,90.37793Z"/><path d="M139.81543,151.123a1.49975,1.49975,0,0,1-1.32959-.80322,66.52293,66.52293,0,0,1-5.916-15.95117,1.49987,1.49987,0,0,1,2.92285-.6748,63.52793,63.52793,0,0,0,5.64941,15.23145,1.50082,1.50082,0,0,1-1.32666,2.19775Z"/><path d="M134.02979,135.53174a1.50046,1.50046,0,0,1-1.46-1.1626,66.6934,66.6934,0,0,1,0-30.23828,1.5,1.5,0,0,1,2.92285.67578,63.69518,63.69518,0,0,0,0,28.88672,1.502,1.502,0,0,1-1.46289,1.83838Z"/><path d="M141.0625,153.37842a1.49875,1.49875,0,0,1-1.30029-.75049c-.43945-.76025-.86719-1.52832-1.27637-2.30811a1.5,1.5,0,1,1,2.65625-1.39453c.39063.74365.79883,1.47656,1.21777,2.20264a1.50088,1.50088,0,0,1-1.29736,2.25049Z"/><path d="M88.87793,100.186a1.501,1.501,0,0,1-1.37988-.91064c-.27734-.64844-.59277-1.27783-.92725-1.94434l-.29395-.5874a1.50018,1.50018,0,0,1,2.68848-1.332l.28662.57422c.33984.67676.69141,1.377,1.00488,2.10986a1.50079,1.50079,0,0,1-1.37891,2.09033Z"/><path d="M88.877,141.31494a1.50129,1.50129,0,0,1-1.37842-2.09033,50.87832,50.87832,0,0,0,0-39.94922,1.49977,1.49977,0,0,1,2.75781-1.17969,53.87249,53.87249,0,0,1,0,42.30859A1.49985,1.49985,0,0,1,88.877,141.31494Z"/><path d="M87.62012,143.92285a1.50074,1.50074,0,0,1-1.34326-2.1665l.29395-.5874c.33447-.6665.6499-1.2959.92725-1.94434a1.50021,1.50021,0,1,1,2.75879,1.17969c-.31348.73291-.665,1.43311-1.00488,2.10986l-.28662.57422A1.5005,1.5005,0,0,1,87.62012,143.92285Z"/><path d="M104.47021,135.53174a1.502,1.502,0,0,1-1.46289-1.83838,63.69518,63.69518,0,0,0,0-28.88672,1.5,1.5,0,1,1,2.92285-.67578,66.6934,66.6934,0,0,1,0,30.23828A1.50046,1.50046,0,0,1,104.47021,135.53174Z"/><path d="M98.68457,151.123a1.50082,1.50082,0,0,1-1.32666-2.19775,63.52792,63.52792,0,0,0,5.64941-15.23145,1.49987,1.49987,0,1,1,2.92285.6748,66.52293,66.52293,0,0,1-5.916,15.95117A1.5003,1.5003,0,0,1,98.68457,151.123Z"/><path d="M104.46729,105.96924a1.50038,1.50038,0,0,1-1.46-1.16309,63.52792,63.52792,0,0,0-5.64941-15.23145,1.5,1.5,0,0,1,2.65625-1.39453,66.52293,66.52293,0,0,1,5.916,15.95117,1.50234,1.50234,0,0,1-1.46289,1.83789Z"/><path d="M97.4375,153.37842a1.50088,1.50088,0,0,1-1.29736-2.25049c.41895-.72607.82715-1.459,1.21777-2.20264a1.5,1.5,0,0,1,2.65625,1.39453c-.40918.77979-.83691,1.54785-1.27637,2.30811A1.49875,1.49875,0,0,1,97.4375,153.37842Z"/><path d="M98.6875,90.37793a1.50013,1.50013,0,0,1-1.32959-.80322c-.39062-.74365-.79883-1.47656-1.21777-2.20264a1.49982,1.49982,0,0,1,2.59766-1.5c.43945.76025.86719,1.52832,1.27637,2.30811a1.50082,1.50082,0,0,1-1.32666,2.19775Z"/><path d="M96.0791,152.37939a1.50033,1.50033,0,0,1-.6665-2.84473l.57764-.28857c.67578-.33887,1.37451-.68945,2.10547-1.00244a1.5,1.5,0,0,1,1.18066,2.75781c-.64746.27734-1.27588.59277-1.94141.92627l-.59131.29541A1.49355,1.49355,0,0,1,96.0791,152.37939Z"/><path d="M139.81348,151.123a1.49463,1.49463,0,0,1-.58984-.12158,50.87355,50.87355,0,0,0-39.94727,0,1.5,1.5,0,1,1-1.18066-2.75781,53.87249,53.87249,0,0,1,42.30859,0,1.50031,1.50031,0,0,1-.59082,2.87939Z"/><path d="M142.4209,152.37939a1.49355,1.49355,0,0,1-.66455-.15625l-.59131-.29541c-.66553-.3335-1.29395-.64893-1.94141-.92627a1.5,1.5,0,0,1,1.18066-2.75781c.731.313,1.42969.66357,2.10547,1.00244l.57764.28857a1.50033,1.50033,0,0,1-.6665,2.84473Z"/><path d="M86.62354,142.561a1.50037,1.50037,0,0,1-.752-2.79932q1.13965-.65771,2.30811-1.2749a1.49983,1.49983,0,1,1,1.39551,2.65527q-1.11548.58667-2.20264,1.21729A1.49225,1.49225,0,0,1,86.62354,142.561Z"/><path d="M149.62109,141.31494a1.49719,1.49719,0,0,1-.69629-.17236,63.50981,63.50981,0,0,0-15.23145-5.6499,1.5,1.5,0,0,1,.67578-2.92285,66.52021,66.52021,0,0,1,15.95117,5.9165,1.50042,1.50042,0,0,1-.69922,2.82861Z"/><path d="M134.03271,135.53174a1.50237,1.50237,0,0,1-.33936-.03906,63.97947,63.97947,0,0,0-28.88672,0,1.5,1.5,0,0,1-.67578-2.92285,66.987,66.987,0,0,1,30.23828,0,1.50027,1.50027,0,0,1-.33643,2.96191Z"/><path d="M88.87891,141.31494a1.50042,1.50042,0,0,1-.69922-2.82861,66.52021,66.52021,0,0,1,15.95117-5.9165,1.5,1.5,0,1,1,.67578,2.92285,63.50981,63.50981,0,0,0-15.23145,5.6499A1.49719,1.49719,0,0,1,88.87891,141.31494Z"/><path d="M151.87646,142.561a1.49225,1.49225,0,0,1-.749-.20166q-1.08691-.62842-2.20264-1.21729a1.49983,1.49983,0,1,1,1.39551-2.65527q1.16968.6145,2.30811,1.2749a1.50037,1.50037,0,0,1-.752,2.79932Z"/><path d="M139.81445,90.37793a1.50031,1.50031,0,0,1-.59082-2.87939c.64746-.27734,1.27588-.59277,1.94141-.92627l.59131-.29541a1.5,1.5,0,1,1,1.33105,2.68848l-.57764.28857c-.67578.33887-1.37451.68945-2.10547,1.00244A1.4929,1.4929,0,0,1,139.81445,90.37793Z"/><path d="M119.25,94.5835a53.46979,53.46979,0,0,1-21.1543-4.32715,1.5,1.5,0,0,1,1.18066-2.75781,50.87355,50.87355,0,0,0,39.94727,0,1.5,1.5,0,0,1,1.18066,2.75781A53.46979,53.46979,0,0,1,119.25,94.5835Z"/><path d="M98.68555,90.37793a1.4929,1.4929,0,0,1-.58984-.12158c-.731-.313-1.42969-.66357-2.10547-1.00244l-.57764-.28857a1.5,1.5,0,0,1,1.33105-2.68848l.59131.29541c.66553.3335,1.29395.64893,1.94141.92627a1.50031,1.50031,0,0,1-.59082,2.87939Z"/><path d="M149.624,100.186a1.50029,1.50029,0,0,1-.69922-2.82813q1.11548-.58667,2.20264-1.21729a1.50006,1.50006,0,0,1,1.501,2.59766q-1.13965.65771-2.30811,1.2749A1.4919,1.4919,0,0,1,149.624,100.186Z"/><path d="M134.02979,105.96924a1.50027,1.50027,0,0,1-.33643-2.96191,63.50981,63.50981,0,0,0,15.23145-5.6499,1.50026,1.50026,0,1,1,1.39551,2.65625,66.52021,66.52021,0,0,1-15.95117,5.9165A1.50237,1.50237,0,0,1,134.02979,105.96924Z"/><path d="M104.47021,105.96924a1.50237,1.50237,0,0,1-.33936-.03906,66.52021,66.52021,0,0,1-15.95117-5.9165,1.50026,1.50026,0,0,1,1.39551-2.65625,63.50981,63.50981,0,0,0,15.23145,5.6499,1.50027,1.50027,0,0,1-.33643,2.96191Z"/><path d="M88.876,100.186a1.4919,1.4919,0,0,1-.69629-.17285q-1.16968-.6145-2.30811-1.2749a1.50006,1.50006,0,0,1,1.501-2.59766q1.08691.62842,2.20264,1.21729A1.50029,1.50029,0,0,1,88.876,100.186Z"/><path d="M119.25,107.6665a67.25551,67.25551,0,0,1-15.11914-1.73633,1.5,1.5,0,0,1,.67578-2.92285,63.97947,63.97947,0,0,0,28.88672,0,1.5,1.5,0,0,1,.67578,2.92285A67.25551,67.25551,0,0,1,119.25,107.6665Z"/><path d="M40.75,94.56445a40.718,40.718,0,1,1,28.81445-11.9165A40.62222,40.62222,0,0,1,40.75,94.56445Zm0-78.46338A37.71974,37.71974,0,1,0,67.44336,27.14014,37.63271,37.63271,0,0,0,40.75,16.10107Z"/><path d="M76.76855,62.26953a1.50031,1.50031,0,0,1-.55908-2.89258c.73633-.2959,1.47705-.5415,2.19287-.77881l.61768-.20605a1.49978,1.49978,0,0,1,.96,2.8418l-.63281.21143c-.7041.23389-1.36914.4541-2.02051.71582A1.50028,1.50028,0,0,1,76.76855,62.26953Z"/><path d="M46.72949,94.084a1.50091,1.50091,0,0,1-1.42139-1.98047l.20313-.6084c.23877-.71875.48535-1.46191.78223-2.20166a1.4998,1.4998,0,0,1,2.78418,1.11621c-.26221.65479-.48437,1.32324-.71924,2.03076l-.20752.623A1.50147,1.50147,0,0,1,46.72949,94.084Z"/><path d="M47.68506,91.35205A1.50079,1.50079,0,0,1,46.293,89.29346a53.87653,53.87653,0,0,1,29.917-29.917,1.50025,1.50025,0,0,1,1.11621,2.78516,50.86659,50.86659,0,0,0-28.248,28.248A1.50118,1.50118,0,0,1,47.68506,91.35205Z"/><path d="M61.65527,55.3335a1.5,1.5,0,0,1-.79639-2.772,66.50309,66.50309,0,0,1,15.46289-7.09619,1.49991,1.49991,0,0,1,.8916,2.86426,63.49891,63.49891,0,0,0-14.76465,6.77588A1.494,1.494,0,0,1,61.65527,55.3335Z"/><path d="M76.76709,48.39795a1.5002,1.5002,0,0,1-.44482-2.93262c.84033-.26172,1.68555-.50244,2.53369-.72949a1.49984,1.49984,0,0,1,.77637,2.89746c-.81006.21729-1.61719.44727-2.41943.69629A1.49189,1.49189,0,0,1,76.76709,48.39795Z"/><path d="M33.81494,91.35156a1.5016,1.5016,0,0,1-1.43262-1.94629A66.484,66.484,0,0,1,39.478,73.94238,1.49994,1.49994,0,0,1,42.022,75.53223a63.5108,63.5108,0,0,0-6.77539,14.76465A1.50047,1.50047,0,0,1,33.81494,91.35156Z"/><path d="M40.74854,76.2373a1.5,1.5,0,0,1-1.271-2.29443A66.69354,66.69354,0,0,1,60.85938,52.561,1.50009,1.50009,0,0,1,62.44824,55.106,63.67448,63.67448,0,0,0,42.02246,75.53174,1.49912,1.49912,0,0,1,40.74854,76.2373Z"/><path d="M33.10205,93.82813a1.50206,1.50206,0,0,1-1.44971-1.88867c.22705-.84863.46826-1.69385.73-2.53467a1.50006,1.50006,0,1,1,2.86426.89258c-.25.80176-.47949,1.60889-.69678,2.41846A1.50012,1.50012,0,0,1,33.10205,93.82813Z"/><path d="M33.814,19.31592a1.50136,1.50136,0,0,1-1.3916-2.05859c.26172-.65332.48291-1.31982.71729-2.02539l.21-.62842a1.49978,1.49978,0,0,1,2.8418.96l-.20459.61377c-.23828.71729-.48437,1.4585-.78027,2.19629A1.50053,1.50053,0,0,1,33.814,19.31592Z"/><path d="M4.73242,48.39844a1.5004,1.5004,0,0,1-.55859-2.89307A50.49549,50.49549,0,0,0,21.187,34.27a50.49944,50.49944,0,0,0,11.23486-17.0127A1.50025,1.50025,0,1,1,35.207,18.37354,53.48858,53.48858,0,0,1,23.30811,36.39111,53.48943,53.48943,0,0,1,5.29,48.29053,1.499,1.499,0,0,1,4.73242,48.39844Z"/><path d="M2,49.354a1.50033,1.50033,0,0,1-.47949-2.92187l.61816-.20605c.70947-.23535,1.37891-.45752,2.03516-.72021A1.4998,1.4998,0,1,1,5.29,48.29c-.74121.29736-1.48633.54443-2.20654.7832l-.604.20166A1.49735,1.49735,0,0,1,2,49.354Z"/><path d="M19.84766,55.333a1.5,1.5,0,0,1-.7959-2.77246A64.22564,64.22564,0,0,0,30.438,43.52148a64.193,64.193,0,0,0,9.03955-11.38623,1.50009,1.50009,0,0,1,2.54492,1.58887,67.20452,67.20452,0,0,1-9.46338,11.91846,67.23716,67.23716,0,0,1-11.91846,9.46289A1.49182,1.49182,0,0,1,19.84766,55.333Z"/><path d="M4.73193,62.26953a1.50026,1.50026,0,0,1-.44531-2.93262A63.494,63.494,0,0,0,19.05127,52.561,1.49994,1.49994,0,0,1,20.64111,55.105,66.48727,66.48727,0,0,1,5.17822,62.20117,1.495,1.495,0,0,1,4.73193,62.26953Z"/><path d="M40.74854,34.42969A1.5,1.5,0,0,1,39.478,32.13477a63.50171,63.50171,0,0,0,6.77539-14.76514,1.49991,1.49991,0,1,1,2.86426.8916A66.50424,66.50424,0,0,1,42.022,33.72461,1.499,1.499,0,0,1,40.74854,34.42969Z"/><path d="M2.25488,62.98242a1.50029,1.50029,0,0,1-.38623-2.94971c.80908-.21631,1.61572-.4458,2.41748-.6958a1.50006,1.50006,0,0,1,.89258,2.86426c-.84082.26172-1.68652.50293-2.53516.73A1.50514,1.50514,0,0,1,2.25488,62.98242Z"/><path d="M47.686,19.31592a1.50132,1.50132,0,0,1-1.43262-1.94678c.25-.80176.47949-1.60889.69678-2.41846a1.49984,1.49984,0,0,1,2.89746.77637c-.22705.84863-.46826,1.69385-.73,2.53467A1.50109,1.50109,0,0,1,47.686,19.31592Z"/><path d="M4.73193,62.26953a1.499,1.499,0,0,1-.55762-.10791c-.65625-.26318-1.32568-.48535-2.03467-.72021l-.61914-.20654a1.50008,1.50008,0,0,1,.959-2.84277l.605.20166c.71973.23877,1.46484.48584,2.20605.78271a1.5004,1.5004,0,0,1-.55859,2.89307Z"/><path d="M33.81494,91.35156a1.50042,1.50042,0,0,1-1.39307-.94287A50.48989,50.48989,0,0,0,21.187,73.39648,50.497,50.497,0,0,0,4.1748,62.16162,1.50007,1.50007,0,0,1,5.29,59.37646,53.47081,53.47081,0,0,1,23.30811,71.27539,53.471,53.471,0,0,1,35.207,89.29346a1.501,1.501,0,0,1-1.39209,2.05811Z"/><path d="M34.77,94.084a1.50127,1.50127,0,0,1-1.42139-1.021l-.20508-.61475c-.23584-.71045-.4585-1.38184-.72168-2.04A1.49989,1.49989,0,0,1,35.207,89.29395c.29688.74219.54443,1.48828.78369,2.20947l.20068.60059A1.50117,1.50117,0,0,1,34.77,94.084Z"/><path d="M4.73242,48.39844a1.49189,1.49189,0,0,1-.4458-.06836q-1.20337-.37354-2.41846-.69629a1.50018,1.50018,0,0,1,.77539-2.89844q1.27148.34058,2.53369.73047a1.5002,1.5002,0,0,1-.44482,2.93262Z"/><path d="M47.68506,91.35205a1.50047,1.50047,0,0,1-1.43164-1.05469A63.51353,63.51353,0,0,0,39.478,75.53223,1.49994,1.49994,0,0,1,42.022,73.94238a66.496,66.496,0,0,1,7.0957,15.46338,1.5016,1.5016,0,0,1-1.43262,1.94629Z"/><path d="M40.75146,76.2373a1.49912,1.49912,0,0,1-1.27393-.70557A64.2584,64.2584,0,0,0,30.438,64.145a64.29289,64.29289,0,0,0-11.38672-9.04A1.49994,1.49994,0,1,1,20.64111,52.561a67.2656,67.2656,0,0,1,11.918,9.46289,67.23012,67.23012,0,0,1,9.46338,11.91895,1.5,1.5,0,0,1-1.271,2.29443Z"/><path d="M19.84473,55.333a1.49182,1.49182,0,0,1-.793-.22754A63.52288,63.52288,0,0,0,4.28613,48.33008a1.49991,1.49991,0,0,1,.8916-2.86426,66.5354,66.5354,0,0,1,15.46289,7.09473,1.5,1.5,0,0,1-.7959,2.77246Z"/><path d="M48.39795,93.82764a1.50113,1.50113,0,0,1-1.44824-1.11279q-.32446-1.21289-.69629-2.418a1.49977,1.49977,0,1,1,2.86426-.89062q.39258,1.2605.73047,2.5332a1.50123,1.50123,0,0,1-1.4502,1.88818Z"/><path d="M79.5,49.35352a1.49735,1.49735,0,0,1-.47949-.0791l-.605-.20166c-.71973-.23877-1.46484-.48584-2.20605-.78271a1.50025,1.50025,0,1,1,1.11621-2.78516c.65625.26318,1.32568.48535,2.03467.72021l.61914.20654A1.50033,1.50033,0,0,1,79.5,49.35352Z"/><path d="M76.76709,48.39795A1.49467,1.49467,0,0,1,76.21,48.29,53.471,53.471,0,0,1,58.19189,36.39111,53.46121,53.46121,0,0,1,46.293,18.373a1.50007,1.50007,0,1,1,2.78516-1.11523A50.48742,50.48742,0,0,0,60.313,34.27,50.48989,50.48989,0,0,0,77.3252,45.50488a1.50034,1.50034,0,0,1-.55811,2.89307Z"/><path d="M47.686,19.31592A1.50115,1.50115,0,0,1,46.293,18.373c-.29639-.74023-.54346-1.48486-.78223-2.20459l-.20215-.60547a1.50008,1.50008,0,0,1,2.84277-.959l.20654.61914c.23535.709.45752,1.37842.72021,2.03467A1.501,1.501,0,0,1,47.686,19.31592Z"/><path d="M79.24512,62.98242a1.49783,1.49783,0,0,1-.3877-.05127q-1.27222-.33984-2.53467-.73a1.49977,1.49977,0,1,1,.89063-2.86426q1.20264.37354,2.41748.6958a1.50026,1.50026,0,0,1-.38574,2.94971Z"/><path d="M76.76855,62.26953a1.49267,1.49267,0,0,1-.44629-.06836A66.53443,66.53443,0,0,1,60.85938,55.106,1.50009,1.50009,0,0,1,62.44824,52.561a63.511,63.511,0,0,0,14.76563,6.77588,1.50026,1.50026,0,0,1-.44531,2.93262Z"/><path d="M40.75146,34.42969a1.49912,1.49912,0,0,1-1.27393-.70557,66.49847,66.49847,0,0,1-7.09521-15.46289,1.49991,1.49991,0,1,1,2.86426-.8916,63.52449,63.52449,0,0,0,6.77588,14.76563,1.5,1.5,0,0,1-1.271,2.29443Z"/><path d="M33.814,19.31592a1.50152,1.50152,0,0,1-1.43213-1.05518q-.39185-1.26123-.73-2.53369a1.50018,1.50018,0,0,1,2.89844-.77539q.32446,1.21289.69678,2.41846a1.501,1.501,0,0,1-1.43311,1.9458Z"/><path d="M61.65234,55.3335a1.49091,1.49091,0,0,1-.79346-.228,67.2656,67.2656,0,0,1-11.918-9.46289,67.24885,67.24885,0,0,1-9.46338-11.91846,1.50009,1.50009,0,1,1,2.54492-1.58887A64.23732,64.23732,0,0,0,51.062,43.52148a64.29289,64.29289,0,0,0,11.38672,9.04,1.5,1.5,0,0,1-.79639,2.772Z"/><path d="M119.25,29.1665a14.58325,14.58325,0,1,1,14.5835-14.583A14.59973,14.59973,0,0,1,119.25,29.1665ZM119.25,3a11.58325,11.58325,0,1,0,11.5835,11.5835A11.59656,11.59656,0,0,0,119.25,3Z"/></svg>