<svg xmlns="http://www.w3.org/2000/svg" viewBox="0 0 160.00066 160.00641"><title>alo_activities-recipes-large</title><path d="M122.19922,160.00641H37.80078A11.648,11.648,0,0,1,26.1665,148.37164V80.00641a1.50007,1.50007,0,0,1,1.5-1.5h104.667a1.50007,1.50007,0,0,1,1.5,1.5v68.36523A11.648,11.648,0,0,1,122.19922,160.00641Zm-93.03271-78.5v66.86523a8.64412,8.64412,0,0,0,8.63428,8.63477h84.39844a8.64412,8.64412,0,0,0,8.63428-8.63477V81.50641Z"/><path d="M18.09473,42.26031a1.49828,1.49828,0,0,1-1.30029-.75,27.66644,27.66644,0,1,1,47.91992-27.666,1.49947,1.49947,0,0,1-.54883,2.04883l-45.32227,26.166A1.48991,1.48991,0,0,1,18.09473,42.26031ZM40.7124,3.0152A24.66439,24.66439,0,0,0,18.68066,38.689l42.647-24.62109A24.70217,24.70217,0,0,0,40.7124,3.0152Z"/><path d="M40.75293,81.50641a1.49828,1.49828,0,0,1-1.30029-.75L16.79443,41.51129a1.49982,1.49982,0,1,1,2.59766-1.5l22.6582,39.24512a1.50011,1.50011,0,0,1-1.29736,2.25Z"/><path d="M125.69971,60.92145a10.34358,10.34358,0,0,1-5.248-1.35059c-4.23193-2.44336-6.31934-7.8457-5.877-15.21191.41992-6.99707,3.07617-15.05078,7.47949-22.67676,4.40283-7.626,10.04932-13.95312,15.89893-17.81543,6.15771-4.06641,11.88037-4.96094,16.1123-2.51562,4.23193,2.44336,6.31934,7.84473,5.877,15.21094-.41992,6.99707-3.07617,15.05078-7.47949,22.67676-4.40283,7.627-10.04932,13.9541-15.89893,17.81641C132.68115,59.61871,128.97119,60.92145,125.69971,60.92145ZM148.79492,2.99859c-2.66455,0-5.80664,1.13867-9.189,3.37109-5.46826,3.61133-10.7793,9.582-14.9541,16.8125s-6.68994,14.81543-7.08252,21.35742c-.37061,6.17188,1.18555,10.58789,4.38232,12.43359,3.19531,1.84473,7.79834.98633,12.95947-2.42187,5.46875-3.61035,10.7793-9.58105,14.9541-16.8125h0c4.1748-7.23047,6.68994-14.81543,7.08252-21.35645.37061-6.17285-1.18555-10.58789-4.38232-12.43359A7.43407,7.43407,0,0,0,148.79492,2.99859Z"/><path d="M122.32373,60.05621a3.6808,3.6808,0,0,1-1.87207-.48535c-2.584-1.49121-2.88867-5.7627-.90527-12.69531a99.53054,99.53054,0,0,1,9.46045-21.17871,99.54972,99.54972,0,0,1,13.61084-18.7832C147.62939,1.73,151.48047-.144,154.06543,1.35113c6.05371,3.49512-1.79932,22.17188-8.55518,33.874h0C139.39258,45.82086,128.771,60.05621,122.32373,60.05621ZM152.13428,3.856c-1.02783,0-3.39746,1.0459-7.35986,5.14355a96.56186,96.56186,0,0,0-13.16992,18.19727,96.54921,96.54921,0,0,0-9.17383,20.50391c-1.85449,6.48242-1.12451,8.89941-.479,9.27246,1.91357,1.10449,11.05664-6.09473,20.96094-23.248,9.90332-17.1543,11.57129-28.66895,9.65283-29.77637A.86606.86606,0,0,0,152.13428,3.856Zm-7.92285,30.61914h0Z"/><path d="M108.65186,81.50641a1.50011,1.50011,0,0,1-1.29736-2.25L152.0166,1.899a1.49982,1.49982,0,1,1,2.59766,1.5L109.95215,80.75641A1.49828,1.49828,0,0,1,108.65186,81.50641Z"/><path d="M151.9585,107.6734a1.5,1.5,0,0,1,0-3,5.042,5.042,0,0,0,0-10.084h-19.625a1.5,1.5,0,0,1,0-3h19.625a8.042,8.042,0,0,1,0,16.084Z"/><path d="M8.0415,107.6734a8.042,8.042,0,0,1,0-16.084h19.625a1.5,1.5,0,1,1,0,3H8.0415a5.042,5.042,0,0,0,0,10.084,1.5,1.5,0,1,1,0,3Z"/></svg>