<svg xmlns="http://www.w3.org/2000/svg" viewBox="0 0 160 160"><title>alo_icon_activity_photography-large</title><path d="M151.958,160H8.042A8.05074,8.05074,0,0,1,0,151.9585v-78.5a8.05084,8.05084,0,0,1,8.042-8.042H151.958A8.05084,8.05084,0,0,1,160,73.4585v78.5A8.05074,8.05074,0,0,1,151.958,160ZM8.042,68.4165A5.04756,5.04756,0,0,0,3,73.4585v78.5A5.04746,5.04746,0,0,0,8.042,157H151.958A5.04746,5.04746,0,0,0,157,151.9585v-78.5a5.04756,5.04756,0,0,0-5.042-5.042Z"/><path d="M21.125,140.375H1.5a1.50007,1.50007,0,0,1-1.5-1.5V99.625a1.50007,1.50007,0,0,1,1.5-1.5H21.125a8.05074,8.05074,0,0,1,8.042,8.0415v26.167A8.05074,8.05074,0,0,1,21.125,140.375ZM3,137.375H21.125a5.04746,5.04746,0,0,0,5.042-5.0415v-26.167a5.04746,5.04746,0,0,0-5.042-5.0415H3Z"/><path d="M66.917,68.4165H27.667a1.50007,1.50007,0,0,1-1.5-1.5V60.375a8.05053,8.05053,0,0,1,8.041-8.0415H60.375a8.05074,8.05074,0,0,1,8.042,8.0415v6.5415A1.50007,1.50007,0,0,1,66.917,68.4165Zm-37.75-3h36.25V60.375a5.04746,5.04746,0,0,0-5.042-5.0415H34.208a5.04725,5.04725,0,0,0-5.041,5.0415Z"/><path d="M93.083,140.375a27.66675,27.66675,0,1,1,27.667-27.6665A27.69772,27.69772,0,0,1,93.083,140.375Zm0-52.3335a24.66675,24.66675,0,1,0,24.667,24.667A24.69455,24.69455,0,0,0,93.083,88.0415Z"/><path d="M93.083,127.2915a14.58325,14.58325,0,1,1,14.584-14.583A14.59963,14.59963,0,0,1,93.083,127.2915Zm0-26.1665a11.58325,11.58325,0,1,0,11.584,11.5835A11.59645,11.59645,0,0,0,93.083,101.125Z"/><path d="M53.833,94.5835a8.04175,8.04175,0,1,1,8.042-8.042A8.05063,8.05063,0,0,1,53.833,94.5835Zm0-13.0835a5.04175,5.04175,0,1,0,5.042,5.0415A5.04725,5.04725,0,0,0,53.833,81.5Z"/><path d="M14.583,114.2085H1.5a1.5,1.5,0,0,1,0-3H14.583a1.5,1.5,0,1,1,0,3Z"/><path d="M14.583,127.2915H1.5a1.5,1.5,0,0,1,0-3H14.583a1.5,1.5,0,1,1,0,3Z"/><path d="M60.375,55.3335H34.208a1.50007,1.50007,0,0,1-1.5-1.5V40.75a1.50007,1.50007,0,0,1,1.5-1.5H60.375a1.50007,1.50007,0,0,1,1.5,1.5V53.8335A1.50007,1.50007,0,0,1,60.375,55.3335Zm-24.667-3H58.875V42.25H35.708Z"/><path d="M73.458,42.25H21.125a1.50007,1.50007,0,0,1-1.5-1.5V1.5a1.50007,1.50007,0,0,1,1.5-1.5H73.458a1.50007,1.50007,0,0,1,1.5,1.5V40.75A1.50007,1.50007,0,0,1,73.458,42.25Zm-50.833-3H71.958V3H22.625Z"/><path d="M73.458,29.1665H21.125a1.5,1.5,0,0,1,0-3H73.458a1.5,1.5,0,0,1,0,3Z"/></svg>