<svg xmlns="http://www.w3.org/2000/svg" viewBox="0 0 160 160"><title>alo_icon_activity_writing-large</title><path d="M83.92529,29.1665h-39.25a1.5,1.5,0,0,1,0-3h39.25a1.5,1.5,0,0,1,0,3Z"/><path d="M83.92529,55.333h-39.25a1.5,1.5,0,0,1,0-3h39.25a1.5,1.5,0,1,1,0,3Z"/><path d="M83.92529,81.5h-39.25a1.5,1.5,0,0,1,0-3h39.25a1.5,1.5,0,0,1,0,3Z"/><path d="M65.60889,107.6665H44.67529a1.5,1.5,0,0,1,0-3H65.60889a1.5,1.5,0,0,1,0,3Z"/><path d="M19.81689,35.708a8.0415,8.0415,0,1,1,8.0415-8.0415A8.05063,8.05063,0,0,1,19.81689,35.708Zm0-13.083a5.0415,5.0415,0,1,0,5.0415,5.0415A5.04735,5.04735,0,0,0,19.81689,22.625Z"/><path d="M19.81689,74.958a8.0415,8.0415,0,1,1,8.0415-8.0415A8.05063,8.05063,0,0,1,19.81689,74.958Zm0-13.083a5.0415,5.0415,0,1,0,5.0415,5.0415A5.04735,5.04735,0,0,0,19.81689,61.875Z"/><path d="M19.81689,114.208a8.0415,8.0415,0,1,1,8.0415-8.0415A8.05063,8.05063,0,0,1,19.81689,114.208Zm0-13.083a5.0415,5.0415,0,1,0,5.0415,5.0415A5.04735,5.04735,0,0,0,19.81689,101.125Z"/><path d="M69.98389,160a1.5001,1.5001,0,0,1-1.29053-2.26172l13.28906-22.54053a1.49982,1.49982,0,0,1,2.584,1.52344L71.27734,159.26172A1.49808,1.49808,0,0,1,69.98389,160Z"/><path d="M69.98682,160a1.5,1.5,0,0,1-.76318-2.792l22.54-13.28906a1.49982,1.49982,0,0,1,1.52344,2.584l-22.54,13.28906A1.492,1.492,0,0,1,69.98682,160Z"/><path d="M92.52539,146.71094a1.49976,1.49976,0,0,1-1.06055-.43945l-9.251-9.25146a1.49945,1.49945,0,0,1,0-2.12109l65.97461-65.97461a1.49976,1.49976,0,0,1,1.06055-.43945h0a1.49976,1.49976,0,0,1,1.06055.43945l9.251,9.25146a1.49945,1.49945,0,0,1,0,2.12109L93.58594,146.27148A1.49976,1.49976,0,0,1,92.52539,146.71094Zm-7.12988-10.75146,7.12988,7.12988,63.85352-63.853L149.249,72.10645Z"/><path d="M86.90039,133.8335H1.5a1.49976,1.49976,0,0,1-1.5-1.5V1.5A1.49976,1.49976,0,0,1,1.5,0H106.1665a1.49976,1.49976,0,0,1,1.5,1.5V113.06689a1.5,1.5,0,0,1-3,0V3H3V130.8335H86.90039a1.5,1.5,0,0,1,0,3Z"/><path d="M148.03369,91.20313a1.49514,1.49514,0,0,1-1.06055-.43945l-9.25146-9.25146a1.49984,1.49984,0,0,1,2.12109-2.12109l9.25146,9.25146a1.5,1.5,0,0,1-1.06055,2.56055Z"/></svg>