<svg xmlns="http://www.w3.org/2000/svg" viewBox="0 0 160 160"><title>alo_icon_activity_seminar-large</title><path d="M145.4165,120.75H14.5835a8.05084,8.05084,0,0,1-8.042-8.042V21.125a8.05074,8.05074,0,0,1,8.042-8.0415h130.833a8.05074,8.05074,0,0,1,8.042,8.0415v91.583A8.05084,8.05084,0,0,1,145.4165,120.75ZM14.5835,16.0835a5.04746,5.04746,0,0,0-5.042,5.0415v91.583a5.04756,5.04756,0,0,0,5.042,5.042h130.833a5.04756,5.04756,0,0,0,5.042-5.042V21.125a5.04746,5.04746,0,0,0-5.042-5.0415Z"/><path d="M80,16.0835a1.49976,1.49976,0,0,1-1.5-1.5V1.5a1.5,1.5,0,0,1,3,0V14.5835A1.49976,1.49976,0,0,1,80,16.0835Z"/><path d="M80,160a1.50007,1.50007,0,0,1-1.5-1.5V119.25a1.5,1.5,0,0,1,3,0V158.5A1.50007,1.50007,0,0,1,80,160Z"/><path d="M106.1665,160H53.8335a1.5,1.5,0,1,1,0-3h52.333a1.5,1.5,0,1,1,0,3Z"/><path d="M158.5,29.1665h-6.5415a1.5,1.5,0,0,1,0-3H158.5a1.5,1.5,0,0,1,0,3Z"/><path d="M8.0415,29.1665H1.5a1.5,1.5,0,0,1,0-3H8.0415a1.5,1.5,0,0,1,0,3Z"/><path d="M138.08154,139.58105a1.49514,1.49514,0,0,1-1.06055-.43945L72.26172,74.38281a1.49984,1.49984,0,0,1,2.12109-2.12109l64.75928,64.75879a1.5,1.5,0,0,1-1.06055,2.56055Z"/><path d="M142.707,150.74512a8.03809,8.03809,0,1,1,5.686-2.35156A8.0172,8.0172,0,0,1,142.707,150.74512Zm0-13.07812a5.04,5.04,0,1,0,3.56494,1.47461A5.02821,5.02821,0,0,0,142.707,137.667Z"/><path d="M99.625,42.25h-78.5a1.49976,1.49976,0,0,1-1.5-1.5V27.6665a1.49976,1.49976,0,0,1,1.5-1.5h78.5a1.49976,1.49976,0,0,1,1.5,1.5V40.75A1.49976,1.49976,0,0,1,99.625,42.25Zm-77-3h75.5V29.1665h-75.5Z"/><path d="M73.4585,55.3335H21.125a1.5,1.5,0,0,1,0-3H73.4585a1.5,1.5,0,0,1,0,3Z"/><path d="M47.2915,68.4165H21.125a1.5,1.5,0,0,1,0-3H47.2915a1.5,1.5,0,0,1,0,3Z"/></svg>