<svg xmlns="http://www.w3.org/2000/svg" viewBox="0 0 160 160"><title>alo_icon_activity_celebration-large</title><path d="M93.083,133.8335c-17.06055,0-29.89258-19.75537-36.02246-31.53174-8.69727-16.70605-14.54-37.49854-14.54-51.73926a50.5625,50.5625,0,1,1,101.125,0c0,14.24072-5.84277,35.0332-14.53906,51.73926C122.97559,114.07813,110.14453,133.8335,93.083,133.8335ZM93.083,3a47.61665,47.61665,0,0,0-47.5625,47.5625c0,13.80176,5.707,34.0376,14.20117,50.354,13.5498,26.03027,26.71777,29.917,33.36133,29.917s19.81152-3.88672,33.3623-29.917c8.49316-16.31641,14.2002-36.55225,14.2002-50.354A47.61665,47.61665,0,0,0,93.083,3Z"/><path d="M93.083,160a8.04175,8.04175,0,0,1,0-16.0835,5.0415,5.0415,0,1,0,0-10.083,1.5,1.5,0,0,1,0-3,8.0415,8.0415,0,1,1,0,16.083,5.04175,5.04175,0,0,0,0,10.0835,1.5,1.5,0,0,1,0,3Z"/><path d="M27.667,120.75a8.04175,8.04175,0,1,1,0-16.0835,5.0415,5.0415,0,0,0,0-10.083,1.5,1.5,0,0,1,0-3,8.0415,8.0415,0,0,1,0,16.083,5.04175,5.04175,0,1,0,0,10.0835,1.5,1.5,0,1,1,0,3Z"/><path d="M132.333,146.647a8.0415,8.0415,0,0,1,0-16.083,5.04175,5.04175,0,1,0,0-10.0835,1.5,1.5,0,0,1,0-3,8.04175,8.04175,0,1,1,0,16.0835,5.0415,5.0415,0,0,0,0,10.083,1.5,1.5,0,1,1,0,3Z"/><path d="M132.333,120.48047c-4.333,0-8.626-1.99316-12.75977-5.92383a1.49963,1.49963,0,1,1,2.06641-2.17383c3.55859,3.38232,7.15625,5.09766,10.69336,5.09766,13.1377,0,24.667-23.52832,24.667-37.75A24.53015,24.53015,0,0,0,141.37891,56.7998a1.49981,1.49981,0,1,1,1.10156-2.79A27.51306,27.51306,0,0,1,160,79.73047C160,95.45068,147.33789,120.48047,132.333,120.48047Z"/><path d="M27.667,94.5835C12.66211,94.5835,0,69.55371,0,53.8335A27.6539,27.6539,0,0,1,47.45117,34.51221a1.49995,1.49995,0,0,1-2.14648,2.0957A24.654,24.654,0,0,0,3,53.8335c0,14.22168,11.5293,37.75,24.667,37.75,6.66016,0,13.78027-6.30664,19.04492-16.87061a1.50018,1.50018,0,0,1,2.68555,1.33789C43.52734,87.82861,35.60645,94.5835,27.667,94.5835Z"/></svg>