<svg xmlns="http://www.w3.org/2000/svg" viewBox="0 0 160 160.00146"><title>alo_icon_activity_gardening-large</title><path d="M40.75,160.00146a8.05063,8.05063,0,0,1-8.041-8.042V27.667a1.5,1.5,0,1,1,3,0V151.95947a5.0415,5.0415,0,1,0,10.083,0V27.667a1.5,1.5,0,0,1,3,0V151.95947A8.05084,8.05084,0,0,1,40.75,160.00146Z"/><path d="M73.459,29.167H8.042A8.05084,8.05084,0,0,1,0,21.125V1.5a1.5,1.5,0,0,1,3,0V21.125a5.04756,5.04756,0,0,0,5.042,5.042H73.459a5.04756,5.04756,0,0,0,5.042-5.042V1.5a1.5,1.5,0,0,1,3,0V21.125A8.05084,8.05084,0,0,1,73.459,29.167Z"/><path d="M40.75,29.167a1.50007,1.50007,0,0,1-1.5-1.5V1.5a1.5,1.5,0,0,1,3,0V27.667A1.50007,1.50007,0,0,1,40.75,29.167Z"/><path d="M66.917,29.167a1.50007,1.50007,0,0,1-1.5-1.5V1.5a1.5,1.5,0,0,1,3,0V27.667A1.50007,1.50007,0,0,1,66.917,29.167Z"/><path d="M53.834,29.167a1.50007,1.50007,0,0,1-1.5-1.5V1.5a1.5,1.5,0,0,1,3,0V27.667A1.50007,1.50007,0,0,1,53.834,29.167Z"/><path d="M27.667,29.167a1.50007,1.50007,0,0,1-1.5-1.5V1.5a1.5,1.5,0,0,1,3,0V27.667A1.50007,1.50007,0,0,1,27.667,29.167Z"/><path d="M14.583,29.167a1.50007,1.50007,0,0,1-1.5-1.5V1.5a1.5,1.5,0,1,1,3,0V27.667A1.50007,1.50007,0,0,1,14.583,29.167Z"/><path d="M145.417,160.00146H93.083a1.50039,1.50039,0,0,1-1.5-1.5v-78.501a1.50007,1.50007,0,0,1,1.5-1.5H158.5a1.5,1.5,0,0,1,0,3,11.59635,11.59635,0,0,0-11.583,11.583v65.418A1.50039,1.50039,0,0,1,145.417,160.00146Zm-50.834-3h49.334V93.0835a14.56775,14.56775,0,0,1,5.73242-11.583H94.583Z"/><path d="M79.999,133.83447a1.50039,1.50039,0,0,1-1.5-1.5V93.0835a1.50039,1.50039,0,0,1,1.5-1.5H93.083a1.5,1.5,0,0,1,0,3H81.499v37.751A1.50039,1.50039,0,0,1,79.999,133.83447Z"/><path d="M93.08288,132.33419" style="fill:none;stroke:#000;stroke-linecap:round;stroke-linejoin:round;stroke-width:3px"/><path d="M86.89063,68.06445A8.03784,8.03784,0,0,1,81.2041,54.34033L104.332,31.21191a1.49984,1.49984,0,1,1,2.12109,2.12109L83.3252,56.46143a5.04176,5.04176,0,0,0,7.12988,7.13037L113.584,40.46289a1.49984,1.49984,0,0,1,2.12109,2.12109L92.57617,65.71289A8.01488,8.01488,0,0,1,86.89063,68.06445Z"/><path d="M126.02539,22.39063a1.5,1.5,0,0,1-1.06055-2.56055L143.46777,1.32764a1.49984,1.49984,0,1,1,2.12109,2.12109L127.08594,21.95117A1.49514,1.49514,0,0,1,126.02539,22.39063Z"/><path d="M119.26953,47.64941A1.50061,1.50061,0,0,1,118.209,47.21L99.707,28.707a1.49945,1.49945,0,0,1,0-2.12109L118.209,8.0835A27.75251,27.75251,0,0,1,144.915.939a1.49892,1.49892,0,0,1,1.0625,1.063A27.75815,27.75815,0,0,1,138.833,28.707L120.33008,47.21A1.50061,1.50061,0,0,1,119.26953,47.64941ZM102.88867,27.64648l16.38086,16.38135,17.44238-17.44189h0A24.75237,24.75237,0,0,0,143.29,3.62646a24.75968,24.75968,0,0,0-22.96,6.57812Z"/></svg>