<svg id="Elements" xmlns="http://www.w3.org/2000/svg" viewBox="0 0 75 75"><title>alo_activities</title><path d="M62.5,53.5h-50A3.50425,3.50425,0,0,1,9,50V15a3.50425,3.50425,0,0,1,3.5-3.5h50A3.50425,3.50425,0,0,1,66,15V50A3.50425,3.50425,0,0,1,62.5,53.5Zm-50-40A1.50164,1.50164,0,0,0,11,15V50a1.50164,1.50164,0,0,0,1.5,1.5h50A1.50164,1.50164,0,0,0,64,50V15a1.50164,1.50164,0,0,0-1.5-1.5h-50Z"/><path d="M37.5,13.5a0.99974,0.99974,0,0,1-1-1v-5a1,1,0,0,1,2,0v5A0.99974,0.99974,0,0,1,37.5,13.5Z"/><path d="M37.5,68.5a0.99942,0.99942,0,0,1-1-1v-15a1,1,0,0,1,2,0v15A0.99942,0.99942,0,0,1,37.5,68.5Z"/><path d="M47.5,68.5h-20a1,1,0,0,1,0-2h20A1,1,0,0,1,47.5,68.5Z"/><path d="M67.5,18.5H65a1,1,0,0,1,0-2h2.5A1,1,0,0,1,67.5,18.5Z"/><path d="M10,18.5H7.5a1,1,0,0,1,0-2H10A1,1,0,0,1,10,18.5Z"/><path d="M59.69629,60.69629a0.99676,0.99676,0,0,1-.707-0.293l-24.748-24.74854a0.99989,0.99989,0,0,1,1.41406-1.41406l24.748,24.74854A1,1,0,0,1,59.69629,60.69629Z"/><path d="M61.46387,64.96289a3.49854,3.49854,0,0,1-2.47461-5.97363h0A3.50032,3.50032,0,1,1,61.46387,64.96289Zm-1.06055-4.55957a1.50053,1.50053,0,1,0,2.12207,0A1.50418,1.50418,0,0,0,60.40332,60.40332Z"/><path d="M45,23.5H15a0.99974,0.99974,0,0,1-1-1v-5a0.99974,0.99974,0,0,1,1-1H45a0.99974,0.99974,0,0,1,1,1v5A0.99974,0.99974,0,0,1,45,23.5Zm-29-2H44v-3H16v3Z"/><path d="M35,28.5H15a1,1,0,0,1,0-2H35A1,1,0,0,1,35,28.5Z"/><path d="M25,33.5H15a1,1,0,0,1,0-2H25A1,1,0,0,1,25,33.5Z"/></svg>