<?xml version="1.0" encoding="utf-8"?>
<!-- Generator: Adobe Illustrator 19.2.1, SVG Export Plug-In . SVG Version: 6.00 Build 0)  -->
<svg version="1.0" id="Elements" xmlns="http://www.w3.org/2000/svg" xmlns:xlink="http://www.w3.org/1999/xlink" x="0px" y="0px"
	 viewBox="0 0 75 75" enable-background="new 0 0 75 75" xml:space="preserve">
<title>allo_activities</title>
<g>
	<path d="M68.2,62.1L45.1,39c5.3-8.1,4.4-19.2-2.7-26.3c-4-4-9.2-6.2-14.8-6.2c-5.6,0-10.9,2.2-14.8,6.2c-8.2,8.2-8.2,21.5,0,29.7
		c4,4,9.2,6.2,14.8,6.2c4.1,0,8.1-1.2,11.5-3.4l23.1,23.1c0.2,0.2,0.5,0.3,0.7,0.3s0.5-0.1,0.7-0.3l4.7-4.7
		C68.6,63.1,68.6,62.5,68.2,62.1z M62.8,66.1L45.4,48.7l3.3-3.3l17.4,17.4L62.8,66.1z M14.1,40.9c-7.4-7.4-7.4-19.5,0-26.9
		c3.6-3.6,8.4-5.6,13.4-5.6c5.1,0,9.8,2,13.4,5.6c7.4,7.4,7.4,19.5,0,26.9c-3.6,3.6-8.4,5.6-13.4,5.6C22.4,46.5,17.7,44.5,14.1,40.9
		z M42.3,42.3c0.6-0.6,1.1-1.1,1.6-1.7l3.4,3.4L44,47.3l-3.4-3.4C41.2,43.4,41.8,42.9,42.3,42.3z"/>
	<path d="M18.8,17.4c-0.4-0.4-1-0.4-1.4,0c-5.6,5.6-5.6,14.7,0,20.3c0.2,0.2,0.5,0.3,0.7,0.3s0.5-0.1,0.7-0.3c0.4-0.4,0.4-1,0-1.4
		c-4.8-4.8-4.8-12.6,0-17.4C19.2,18.4,19.2,17.8,18.8,17.4z"/>
</g>
</svg>
