<svg xmlns="http://www.w3.org/2000/svg" viewBox="0 0 160 159.99851"><title>alo_icon_activity_fitness-large</title><path d="M27.6665,120.74851H1.5a1.5,1.5,0,0,1,0-3H27.6665a1.5,1.5,0,1,1,0,3Z"/><path d="M14.5835,133.83152a1.50007,1.50007,0,0,1-1.5-1.5v-26.166a1.5,1.5,0,0,1,3,0v26.166A1.50007,1.50007,0,0,1,14.5835,133.83152Z"/><path d="M145.4165,133.83152a1.50007,1.50007,0,0,1-1.5-1.5v-26.166a1.5,1.5,0,0,1,3,0v26.166A1.50007,1.50007,0,0,1,145.4165,133.83152Z"/><path d="M158.5,120.74851H132.3335a1.5,1.5,0,0,1,0-3H158.5a1.5,1.5,0,0,1,0,3Z"/><path d="M106.1665,120.74851H53.8335a1.5,1.5,0,0,1,0-3h52.333a1.5,1.5,0,0,1,0,3Z"/><path d="M34.2085,159.99851a8.05084,8.05084,0,0,1-8.042-8.042V86.5405a8.04175,8.04175,0,1,1,16.0835,0v65.416A8.05074,8.05074,0,0,1,34.2085,159.99851Zm0-78.5a5.04756,5.04756,0,0,0-5.042,5.042v65.416a5.04175,5.04175,0,1,0,10.0835,0V86.5405A5.04746,5.04746,0,0,0,34.2085,81.49851Z"/><path d="M47.2915,159.99851a8.05074,8.05074,0,0,1-8.0415-8.042V86.5405a8.04175,8.04175,0,1,1,16.0835,0v65.416A8.05084,8.05084,0,0,1,47.2915,159.99851Zm0-78.5a5.04746,5.04746,0,0,0-5.0415,5.042v65.416a5.04175,5.04175,0,1,0,10.0835,0V86.5405A5.04756,5.04756,0,0,0,47.2915,81.49851Z"/><path d="M125.7915,159.99851a8.05074,8.05074,0,0,1-8.0415-8.042V86.5405a8.04175,8.04175,0,1,1,16.0835,0v65.416A8.05084,8.05084,0,0,1,125.7915,159.99851Zm0-78.5a5.04746,5.04746,0,0,0-5.0415,5.042v65.416a5.04175,5.04175,0,1,0,10.0835,0V86.5405A5.04756,5.04756,0,0,0,125.7915,81.49851Z"/><path d="M112.7085,159.99851a8.05084,8.05084,0,0,1-8.042-8.042V86.5405a8.04175,8.04175,0,1,1,16.0835,0v65.416A8.05074,8.05074,0,0,1,112.7085,159.99851Zm0-78.5a5.04756,5.04756,0,0,0-5.042,5.042v65.416a5.04175,5.04175,0,1,0,10.0835,0V86.5405A5.04746,5.04746,0,0,0,112.7085,81.49851Z"/><path d="M74.98828,29.17478a14.58933,14.58933,0,0,1-12.606-21.88135A14.4856,14.4856,0,0,1,71.2373.499h0a14.58312,14.58312,0,1,1,3.751,28.67578ZM72.01367,3.39646a11.5834,11.5834,0,1,0,14.187,8.19043,11.50849,11.50849,0,0,0-14.187-8.19043Z"/><path d="M69.146,44.747a1.50012,1.50012,0,0,1-1.44775-1.1123L60.92578,18.35935a1.49984,1.49984,0,1,1,2.89746-.77637L70.5957,42.85837A1.50206,1.50206,0,0,1,69.146,44.747Z"/><path d="M80.99854,95.521A8.07753,8.07753,0,0,1,73.231,89.55808L63.07227,51.64646a8.04159,8.04159,0,0,1,15.53516-4.1626L88.76611,85.396a8.06115,8.06115,0,0,1-5.686,9.84961A8.06854,8.06854,0,0,1,80.99854,95.521ZM70.83545,44.52341a5.04234,5.04234,0,0,0-4.86572,6.34668L76.12842,88.78171a5.05938,5.05938,0,0,0,6.17529,3.56543h0a5.06085,5.06085,0,0,0,3.56494-6.1748L75.71,48.26023a5.073,5.073,0,0,0-4.87451-3.73682Z"/><path d="M104.21338,17.83835a1.4905,1.4905,0,0,1-.74854-.20166L80.80371,4.5532a1.49982,1.49982,0,1,1,1.5-2.59766L104.96484,15.039a1.50031,1.50031,0,0,1-.75146,2.79932Z"/><path d="M143.84473,47.27292a7.96282,7.96282,0,0,1-3.99414-1.0752l-33.9917-19.625a8.04181,8.04181,0,0,1,8.042-13.92871l33.99121,19.62549a8.04645,8.04645,0,0,1-4.04736,15.00342ZM109.88867,14.56785a5.04471,5.04471,0,0,0-2.52979,9.40723l33.9917,19.625a5.05991,5.05991,0,0,0,6.88672-1.8457h.00049a5.04835,5.04835,0,0,0-1.8457-6.88721l-33.99121-19.625A5.01158,5.01158,0,0,0,109.88867,14.56785Z"/></svg>