<svg id="Elements" xmlns="http://www.w3.org/2000/svg" viewBox="0 0 75 75"><title>alo_activities</title><path d="M7.5,68.5a0.99942,0.99942,0,0,1-1-1v-55a1,1,0,0,1,2,0v55A0.99942,0.99942,0,0,1,7.5,68.5Z"/><path d="M62.5,8.5h-50a1,1,0,0,1,0-2h50A1,1,0,0,1,62.5,8.5Z"/><path d="M27.5,18.5h-15a1,1,0,0,1,0-2h15A1,1,0,0,1,27.5,18.5Z"/><path d="M52.5,28.5h-10a0.99942,0.99942,0,0,1-1-1v-10a0.99942,0.99942,0,0,1,1-1h10a0.99942,0.99942,0,0,1,1,1v10A0.99942,0.99942,0,0,1,52.5,28.5Zm-9-2h8v-8h-8v8Z"/><path d="M52.5,58.5h-10a0.99942,0.99942,0,0,1-1-1v-20a0.99942,0.99942,0,0,1,1-1h10a0.99942,0.99942,0,0,1,1,1v20A0.99942,0.99942,0,0,1,52.5,58.5Zm-9-2h8v-18h-8v18Z"/><path d="M27.5,38.5h-15a1,1,0,0,1,0-2h15A1,1,0,0,1,27.5,38.5Z"/><path d="M37.5,28.5h-25a1,1,0,0,1,0-2h25A1,1,0,0,1,37.5,28.5Z"/><path d="M37.5,33.5h-25a1,1,0,0,1,0-2h25A1,1,0,0,1,37.5,33.5Z"/><path d="M37.5,43.5h-25a1,1,0,0,1,0-2h25A1,1,0,0,1,37.5,43.5Z"/><path d="M37.5,48.5h-25a1,1,0,0,1,0-2h25A1,1,0,0,1,37.5,48.5Z"/><path d="M37.5,53.5h-25a1,1,0,0,1,0-2h25A1,1,0,0,1,37.5,53.5Z"/><path d="M37.5,58.5h-25a1,1,0,0,1,0-2h25A1,1,0,0,1,37.5,58.5Z"/><path d="M57.5,68.5H7.5a1,1,0,0,1,0-2h50A1,1,0,0,1,57.5,68.5Z"/><path d="M67.5,63.5h-10a1,1,0,0,1,0-2h9v-49a4,4,0,0,0-8,0,1,1,0,0,1-2,0,6,6,0,0,1,12,0v50A0.99942,0.99942,0,0,1,67.5,63.5Z"/><path d="M7.5,13.5a0.99942,0.99942,0,0,1-1-1,6.00656,6.00656,0,0,1,6-6,1,1,0,0,1,0,2,4.004,4.004,0,0,0-4,4A0.99942,0.99942,0,0,1,7.5,13.5Z"/><path d="M57.5,68.5a0.99942,0.99942,0,0,1-1-1v-55a1,1,0,0,1,2,0v55A0.99942,0.99942,0,0,1,57.5,68.5Z"/><path d="M7.5,68.5a0.99942,0.99942,0,0,1-1-1v-55a1,1,0,0,1,2,0v55A0.99942,0.99942,0,0,1,7.5,68.5Z"/><path d="M62.5,8.5h-50a1,1,0,0,1,0-2h50A1,1,0,0,1,62.5,8.5Z"/><path d="M27.5,18.5h-15a1,1,0,0,1,0-2h15A1,1,0,0,1,27.5,18.5Z"/><path d="M52.5,28.5h-10a0.99942,0.99942,0,0,1-1-1v-10a0.99942,0.99942,0,0,1,1-1h10a0.99942,0.99942,0,0,1,1,1v10A0.99942,0.99942,0,0,1,52.5,28.5Zm-9-2h8v-8h-8v8Z"/><path d="M52.5,58.5h-10a0.99942,0.99942,0,0,1-1-1v-20a0.99942,0.99942,0,0,1,1-1h10a0.99942,0.99942,0,0,1,1,1v20A0.99942,0.99942,0,0,1,52.5,58.5Zm-9-2h8v-18h-8v18Z"/><path d="M27.5,38.5h-15a1,1,0,0,1,0-2h15A1,1,0,0,1,27.5,38.5Z"/><path d="M37.5,28.5h-25a1,1,0,0,1,0-2h25A1,1,0,0,1,37.5,28.5Z"/><path d="M37.5,33.5h-25a1,1,0,0,1,0-2h25A1,1,0,0,1,37.5,33.5Z"/><path d="M37.5,43.5h-25a1,1,0,0,1,0-2h25A1,1,0,0,1,37.5,43.5Z"/><path d="M37.5,48.5h-25a1,1,0,0,1,0-2h25A1,1,0,0,1,37.5,48.5Z"/><path d="M37.5,53.5h-25a1,1,0,0,1,0-2h25A1,1,0,0,1,37.5,53.5Z"/><path d="M37.5,58.5h-25a1,1,0,0,1,0-2h25A1,1,0,0,1,37.5,58.5Z"/><path d="M57.5,68.5H7.5a1,1,0,0,1,0-2h50A1,1,0,0,1,57.5,68.5Z"/><path d="M67.5,63.5h-10a1,1,0,0,1,0-2h9v-49a4,4,0,0,0-8,0,1,1,0,0,1-2,0,6,6,0,0,1,12,0v50A0.99942,0.99942,0,0,1,67.5,63.5Z"/><path d="M7.5,13.5a0.99942,0.99942,0,0,1-1-1,6.00656,6.00656,0,0,1,6-6,1,1,0,0,1,0,2,4.004,4.004,0,0,0-4,4A0.99942,0.99942,0,0,1,7.5,13.5Z"/><path d="M57.5,68.5a0.99942,0.99942,0,0,1-1-1v-55a1,1,0,0,1,2,0v55A0.99942,0.99942,0,0,1,57.5,68.5Z"/></svg>