<svg id="Elements" xmlns="http://www.w3.org/2000/svg" viewBox="0 0 75 75"><title>alo_activities</title><path d="M39,18.5H24a1,1,0,0,1,0-2H39A1,1,0,0,1,39,18.5Z"/><path d="M39,28.5H24a1,1,0,0,1,0-2H39A1,1,0,0,1,39,28.5Z"/><path d="M39,38.5H24a1,1,0,0,1,0-2H39A1,1,0,0,1,39,38.5Z"/><path d="M32,48.5H24a1,1,0,0,1,0-2h8A1,1,0,0,1,32,48.5Z"/><path d="M14.5,21A3.5,3.5,0,1,1,18,17.5,3.50425,3.50425,0,0,1,14.5,21Zm0-5A1.5,1.5,0,1,0,16,17.5,1.50164,1.50164,0,0,0,14.5,16Z"/><path d="M14.5,36A3.5,3.5,0,1,1,18,32.5,3.50425,3.50425,0,0,1,14.5,36Zm0-5A1.5,1.5,0,1,0,16,32.5,1.50164,1.50164,0,0,0,14.5,31Z"/><path d="M14.5,51A3.5,3.5,0,1,1,18,47.5,3.50425,3.50425,0,0,1,14.5,51Zm0-5A1.5,1.5,0,1,0,16,47.5,1.50164,1.50164,0,0,0,14.5,46Z"/><path d="M33.67188,68.5a1.00007,1.00007,0,0,1-.86035-1.50781l5.07813-8.61426a0.99988,0.99988,0,1,1,1.72266,1.01563l-5.07812,8.61426A0.99872,0.99872,0,0,1,33.67188,68.5Z"/><path d="M33.67383,68.5a1,1,0,0,1-.50879-1.86133l8.61426-5.07861a0.99988,0.99988,0,0,1,1.01563,1.72266l-8.61426,5.07861A0.99134,0.99134,0,0,1,33.67383,68.5Z"/><path d="M42.28711,63.42139a0.99676,0.99676,0,0,1-.707-0.293l-3.53613-3.53564a0.99964,0.99964,0,0,1,0-1.41406L63.25781,32.96582a0.99964,0.99964,0,0,1,1.41406,0L68.207,36.501a0.99964,0.99964,0,0,1,0,1.41406L42.99414,63.12842A0.99676,0.99676,0,0,1,42.28711,63.42139ZM40.165,58.88574l2.12207,2.12158L66.08594,37.208l-2.12109-2.12109Z"/><path d="M40.13672,58.5H7.5a0.99974,0.99974,0,0,1-1-1V7.5a0.99974,0.99974,0,0,1,1-1h40a0.99974,0.99974,0,0,1,1,1V50.13721a1,1,0,0,1-2,0V8.5H8.5v48H40.13672A1,1,0,0,1,40.13672,58.5Z"/><path d="M63.5,42.208a0.99676,0.99676,0,0,1-.707-0.293l-3.53516-3.53516a0.99989,0.99989,0,0,1,1.41406-1.41406L64.207,40.501A1,1,0,0,1,63.5,42.208Z"/></svg>