<svg id="Elements" xmlns="http://www.w3.org/2000/svg" viewBox="0 0 75 75"><title>alo_activities</title><path d="M52.5,68.5a16,16,0,1,1,16-16A16.01833,16.01833,0,0,1,52.5,68.5Zm0-30a14,14,0,1,0,14,14A14.01573,14.01573,0,0,0,52.5,38.5Z"/><path d="M64.10742,45.6416A1.00111,1.00111,0,0,1,63.1875,44.248c0.12012-.28027.25586-0.55176,0.3916-0.82275l0.11133-.22363a0.99991,0.99991,0,1,1,1.793.88574l-0.11621.2334c-0.11816.23535-.23633,0.47021-0.33984,0.71338A1.00148,1.00148,0,0,1,64.10742,45.6416Z"/><path d="M64.58789,62.35547a0.99845,0.99845,0,0,1-.89746-0.55713l-0.11133-.22363c-0.13574-.271-0.27148-0.54248-0.3916-0.82275a1.00038,1.00038,0,0,1,1.83984-.78613c0.10352,0.24316.22168,0.478,0.33984,0.71338l0.11621,0.2334A0.99972,0.99972,0,0,1,64.58789,62.35547Z"/><path d="M64.10742,61.35938a0.99913,0.99913,0,0,1-.91895-0.60742,21.01,21.01,0,0,1,0-16.50439,0.99967,0.99967,0,1,1,1.83789.78711,19.02053,19.02053,0,0,0,0,14.93115A1.00036,1.00036,0,0,1,64.10742,61.35938Z"/><path d="M58.14941,47.85107a1.00063,1.00063,0,0,1-.97559-1.2251,25.93261,25.93261,0,0,1,2.29883-6.19824,1.00031,1.00031,0,0,1,1.77148.92969A23.8474,23.8474,0,0,0,59.123,47.07617,1.00089,1.00089,0,0,1,58.14941,47.85107Z"/><path d="M60.35742,41.89258a1.00026,1.00026,0,0,1-.88379-1.46631q0.23877-.45337.49609-0.896a0.99956,0.99956,0,1,1,1.73047,1.001q-0.23584.40869-.457,0.82764A0.99936,0.99936,0,0,1,60.35742,41.89258Z"/><path d="M60.35938,65.10742a0.99927,0.99927,0,0,1-.88672-0.53516A25.93261,25.93261,0,0,1,57.17383,58.374a1.00027,1.00027,0,0,1,1.94922-.4502,23.8474,23.8474,0,0,0,2.12109,5.71875A1.00044,1.00044,0,0,1,60.35938,65.10742Z"/><path d="M58.14746,59.14893a1.00089,1.00089,0,0,1-.97363-0.7749,25.94,25.94,0,0,1,0-11.748,1.00027,1.00027,0,0,1,1.94922.4502,23.91963,23.91963,0,0,0,0,10.84766A1.00063,1.00063,0,0,1,58.14746,59.14893Z"/><path d="M60.83594,65.96924a1.0001,1.0001,0,0,1-.86719-0.5c-0.16992-.29541-0.33594-0.59326-0.49512-0.89551a1.00013,1.00013,0,0,1,1.76953-.93262q0.22119,0.41968.458,0.82813A0.99991,0.99991,0,0,1,60.83594,65.96924Z"/><path d="M40.89258,45.6416a1.00148,1.00148,0,0,1-.91992-0.60742c-0.10547-.24854-0.22754-0.48926-0.34863-0.73l-0.10742-.21436a1.00012,1.00012,0,0,1,1.791-.89062l0.10352,0.20654c0.13965,0.27783.27832,0.55518,0.40137,0.84229A1.00111,1.00111,0,0,1,40.89258,45.6416Z"/><path d="M40.89258,61.35938a1.00036,1.00036,0,0,1-.91895-1.39355,19.02053,19.02053,0,0,0,0-14.93115,0.99967,0.99967,0,1,1,1.83789-.78711,21.01,21.01,0,0,1,0,16.50439A0.99913,0.99913,0,0,1,40.89258,61.35938Z"/><path d="M40.41113,62.35547a0.9999,0.9999,0,0,1-.89453-1.44531L39.624,60.6958c0.12109-.24072.24316-0.48145,0.34863-0.73a1.00038,1.00038,0,0,1,1.83984.78613c-0.123.28711-.26172,0.56445-0.40137,0.84229l-0.10352.20654A0.99948,0.99948,0,0,1,40.41113,62.35547Z"/><path d="M46.85156,59.14893a1.00063,1.00063,0,0,1-.97559-1.2251,23.88317,23.88317,0,0,0,0-10.84766,1.00027,1.00027,0,0,1,1.94922-.4502,25.90343,25.90343,0,0,1,0,11.748A1.00089,1.00089,0,0,1,46.85156,59.14893Z"/><path d="M44.63965,65.10742a0.99993,0.99993,0,0,1-.88379-1.46533A23.7886,23.7886,0,0,0,45.876,57.92432a1.00016,1.00016,0,0,1,1.94922.44922,25.81,25.81,0,0,1-2.2998,6.19922A0.99937,0.99937,0,0,1,44.63965,65.10742Z"/><path d="M46.84961,47.85107a1,1,0,0,1-.97363-0.77539,23.7886,23.7886,0,0,0-2.12012-5.71777,0.99967,0.99967,0,1,1,1.76953-.93066,25.81,25.81,0,0,1,2.2998,6.19922,1.00062,1.00062,0,0,1-.75,1.19922A1.02112,1.02112,0,0,1,46.84961,47.85107Z"/><path d="M44.16309,65.96924a0.99991,0.99991,0,0,1-.86523-1.5c0.15723-.27246.31055-0.54687,0.457-0.82568a0.99986,0.99986,0,0,1,1.77148.92773c-0.1582.30322-.3252,0.60205-0.49609,0.89795A1.0001,1.0001,0,0,1,44.16309,65.96924Z"/><path d="M44.6416,41.89258a0.99928,0.99928,0,0,1-.88672-0.53613c-0.14648-.27881-0.2998-0.55371-0.45605-0.8252a0.99956,0.99956,0,1,1,1.73047-1.001c0.17188,0.2959.33887,0.59521,0.49707,0.89844A1.00011,1.00011,0,0,1,44.6416,41.89258Z"/><path d="M43.64551,65.5874a1,1,0,0,1-.44531-1.896l0.2168-.1084c0.27344-.13721.54785-0.27393,0.83008-0.395a1.00012,1.00012,0,0,1,.78711,1.83887c-0.24512.105-.48242,0.22461-0.71973,0.34375l-0.22559.11279A0.99667,0.99667,0,0,1,43.64551,65.5874Z"/><path d="M44.64063,65.10791a1.00048,1.00048,0,0,1-.39355-1.91992,21.10242,21.10242,0,0,1,16.50488,0,1.00012,1.00012,0,0,1-.78711,1.83887,19.09522,19.09522,0,0,0-14.93066,0A1.00021,1.00021,0,0,1,44.64063,65.10791Z"/><path d="M61.35449,65.5874a0.99365,0.99365,0,0,1-.44336-0.104l-0.22266-.11133c-0.23828-.11963-0.47656-0.23975-0.72266-0.34473A1.00019,1.00019,0,0,1,60.751,63.1875c0.28418,0.12158.55957,0.25928,0.835,0.397l0.21387,0.10693A1,1,0,0,1,61.35449,65.5874Z"/><path d="M40.03125,61.83545a1,1,0,0,1-.501-1.86621c0.2959-.17041.59473-0.33643,0.89746-0.49561a0.99988,0.99988,0,1,1,.92969,1.77051c-0.2793.14648-.55469,0.2998-0.82715,0.45752A0.99445,0.99445,0,0,1,40.03125,61.83545Z"/><path d="M64.10645,61.35889a0.99367,0.99367,0,0,1-.46387-0.11475A23.86045,23.86045,0,0,0,57.92383,59.123,0.99968,0.99968,0,1,1,58.373,57.1748a25.84114,25.84114,0,0,1,6.19922,2.29883A0.99982,0.99982,0,0,1,64.10645,61.35889Z"/><path d="M58.14941,59.14893a1.00832,1.00832,0,0,1-.22656-0.02588,24.01622,24.01622,0,0,0-10.84668,0A0.9999,0.9999,0,1,1,46.625,57.1748a26.02693,26.02693,0,0,1,11.749,0A0.99991,0.99991,0,0,1,58.14941,59.14893Z"/><path d="M40.89355,61.35889a0.99982,0.99982,0,0,1-.46582-1.88525A25.808,25.808,0,0,1,46.626,57.1748,0.99968,0.99968,0,1,1,47.0752,59.123a23.848,23.848,0,0,0-5.71777,2.12109A0.99367,0.99367,0,0,1,40.89355,61.35889Z"/><path d="M64.96777,61.83545a0.99416,0.99416,0,0,1-.5-0.13477q-0.40723-.23584-0.8252-0.45654a0.99988,0.99988,0,1,1,.92969-1.77051c0.30371,0.15918.60254,0.32568,0.89746,0.49658A0.99986,0.99986,0,0,1,64.96777,61.83545Z"/><path d="M60.3584,41.89307a1.00038,1.00038,0,0,1-.39258-1.92041c0.24609-.105.48438-0.2251,0.72266-0.34473l0.22266-.11133a1.00012,1.00012,0,1,1,.88867,1.792l-0.21387.10693c-0.27539.1377-.55078,0.27539-0.835,0.397A1.00359,1.00359,0,0,1,60.3584,41.89307Z"/><path d="M52.5,43.5a20.87,20.87,0,0,1-8.25293-1.688,1.00012,1.00012,0,0,1,.78711-1.83887,19.09522,19.09522,0,0,0,14.93066,0A1.00012,1.00012,0,0,1,60.752,41.812,20.85487,20.85487,0,0,1,52.5,43.5Z"/><path d="M44.64063,41.89307a1.00021,1.00021,0,0,1-.39355-0.08105c-0.28223-.12109-0.55664-0.25781-0.83008-0.395l-0.2168-.1084a1.00012,1.00012,0,1,1,.88867-1.792l0.22559,0.11279c0.2373,0.11914.47461,0.23877,0.71973,0.34375A1.00048,1.00048,0,0,1,44.64063,41.89307Z"/><path d="M64.1084,45.64111a0.9999,0.9999,0,0,1-.4668-1.88477q0.41895-.22046.82617-0.457a0.9998,0.9998,0,1,1,1.002,1.73047q-0.44238.25635-.89648,0.49609A0.99523,0.99523,0,0,1,64.1084,45.64111Z"/><path d="M58.14746,47.85107a0.99991,0.99991,0,0,1-.22461-1.97412,23.86826,23.86826,0,0,0,5.71973-2.12109,0.99988,0.99988,0,1,1,.92969,1.77051A25.8708,25.8708,0,0,1,58.374,47.8252,1.00832,1.00832,0,0,1,58.14746,47.85107Z"/><path d="M46.85156,47.85107A1.00832,1.00832,0,0,1,46.625,47.8252a25.85294,25.85294,0,0,1-6.19727-2.29883,0.99988,0.99988,0,1,1,.92969-1.77051A23.87116,23.87116,0,0,0,47.07617,45.877,0.99991,0.99991,0,0,1,46.85156,47.85107Z"/><path d="M40.8916,45.64111a0.99523,0.99523,0,0,1-.46484-0.11523q-0.4541-.23877-0.89648-0.49512a1.00016,1.00016,0,1,1,1-1.73242q0.41016,0.23657.82813,0.458A0.9999,0.9999,0,0,1,40.8916,45.64111Z"/><path d="M52.5,48.5a26.11964,26.11964,0,0,1-5.875-.6748,0.9999,0.9999,0,1,1,.45117-1.94824,24.03,24.03,0,0,0,10.84668,0A0.9999,0.9999,0,1,1,58.374,47.8252,26.11757,26.11757,0,0,1,52.5,48.5Z"/><path d="M17.5,53.5a11,11,0,1,1,11-11A11.01245,11.01245,0,0,1,17.5,53.5Zm0-20a9,9,0,1,0,9,9A9.01015,9.01015,0,0,0,17.5,33.5Z"/><path d="M17.5,43.5a0.99974,0.99974,0,0,1-1-1,11.03823,11.03823,0,0,1,5.499-9.5166,0.9998,0.9998,0,1,1,1.002,1.73047A9.03171,9.03171,0,0,0,18.5,42.5,0.99974,0.99974,0,0,1,17.5,43.5Z"/><path d="M22.499,52.15137a0.99416,0.99416,0,0,1-.5-0.13477A11.03823,11.03823,0,0,1,16.5,42.5a1,1,0,0,1,2,0,9.03171,9.03171,0,0,0,4.501,7.78613A0.99986,0.99986,0,0,1,22.499,52.15137Z"/><path d="M17.5,43.5a0.99974,0.99974,0,0,1-1-1,9.03171,9.03171,0,0,0-4.501-7.78613,0.9998,0.9998,0,1,1,1.002-1.73047A11.03823,11.03823,0,0,1,18.5,42.5,0.99974,0.99974,0,0,1,17.5,43.5Z"/><path d="M12.501,52.15137a0.99986,0.99986,0,0,1-.502-1.86523A9.03171,9.03171,0,0,0,16.5,42.5a1,1,0,0,1,2,0,11.03823,11.03823,0,0,1-5.499,9.5166A0.99416,0.99416,0,0,1,12.501,52.15137Z"/><path d="M8.84766,48.5a1.00011,1.00011,0,0,1-.86426-1.501A11.0348,11.0348,0,0,1,17.5,41.5a1,1,0,0,1,0,2,9.03171,9.03171,0,0,0-7.78613,4.501A0.99979,0.99979,0,0,1,8.84766,48.5Z"/><path d="M26.15234,48.5a1.00035,1.00035,0,0,1-.86621-0.49854A9.03353,9.03353,0,0,0,17.5,43.5a1,1,0,0,1,0-2,11.04016,11.04016,0,0,1,9.5166,5.49854A1.00031,1.00031,0,0,1,26.15234,48.5Z"/><path d="M17.5,43.5a1,1,0,0,1,0-2,9.03353,9.03353,0,0,0,7.78613-4.50146,1,1,0,0,1,1.73047,1.00293A11.04016,11.04016,0,0,1,17.5,43.5Z"/><path d="M17.5,43.5a11.03719,11.03719,0,0,1-9.5166-5.499,0.9998,0.9998,0,1,1,1.73047-1.002A9.03171,9.03171,0,0,0,17.5,41.5,1,1,0,0,1,17.5,43.5Z"/><path d="M37.5,28.49463a10.99463,10.99463,0,1,1,7.77832-3.21631h0A10.96465,10.96465,0,0,1,37.5,28.49463Zm0-19.99023a8.99843,8.99843,0,1,0,6.36426,15.35986h0A8.99561,8.99561,0,0,0,37.5,8.50439Zm7.07129,16.06689h0Z"/><path d="M37.5,18.5a1,1,0,0,1-.707-1.707,11.03647,11.03647,0,0,1,10.61719-2.84131,1.00011,1.00011,0,0,1-.51562,1.93262A9.0264,9.0264,0,0,0,38.207,18.207,0.99676,0.99676,0,0,1,37.5,18.5Z"/><path d="M34.917,28.15332a1,1,0,0,1-.96484-0.74316A11.03446,11.03446,0,0,1,36.793,16.793,0.99989,0.99989,0,0,1,38.207,18.207a9.03133,9.03133,0,0,0-2.32324,8.68848A1.00088,1.00088,0,0,1,34.917,28.15332Z"/><path d="M37.5,18.5a1,1,0,0,1-.707-1.707,9.03426,9.03426,0,0,0,2.32324-8.68848,0.99951,0.99951,0,1,1,1.93164-.51465A11.0357,11.0357,0,0,1,38.207,18.207,0.99676,0.99676,0,0,1,37.5,18.5Z"/><path d="M30.41895,21.41846a10.98726,10.98726,0,0,1-2.83008-.37012,1.00011,1.00011,0,1,1,.51563-1.93262A9.034,9.034,0,0,0,36.793,16.793,0.99989,0.99989,0,0,1,38.207,18.207,11.027,11.027,0,0,1,30.41895,21.41846Z"/><path d="M37.5,18.5a0.99676,0.99676,0,0,1-.707-0.293,9.03473,9.03473,0,0,0-8.68848-2.32275,1.00011,1.00011,0,1,1-.51562-1.93262A11.04331,11.04331,0,0,1,38.207,16.793,1,1,0,0,1,37.5,18.5Z"/><path d="M40.083,28.15332a1.00256,1.00256,0,0,1-.96777-1.25781A9.03317,9.03317,0,0,0,36.793,18.207,0.99989,0.99989,0,0,1,38.207,16.793a11.04186,11.04186,0,0,1,2.8418,10.61719A1.00166,1.00166,0,0,1,40.083,28.15332Z"/><path d="M44.58008,21.41846A11.0227,11.0227,0,0,1,36.793,18.207,0.99989,0.99989,0,0,1,38.207,16.793a9.03118,9.03118,0,0,0,8.68848,2.32275,1.00011,1.00011,0,1,1,.51563,1.93262A10.99464,10.99464,0,0,1,44.58008,21.41846Z"/><path d="M37.5,18.5a0.99676,0.99676,0,0,1-.707-0.293,11.04062,11.04062,0,0,1-2.8418-10.61719,1.00046,1.00046,0,0,1,1.93359.51465A9.02993,9.02993,0,0,0,38.207,16.793,1,1,0,0,1,37.5,18.5Z"/></svg>