<svg xmlns="http://www.w3.org/2000/svg" viewBox="0 0 159.99857 159.99857"><title>alo_icon_activity_games-large</title><path d="M114.41312,159.99857a6.71288,6.71288,0,0,1-4.76123-1.96875h0L70.79642,119.17435a6.74166,6.74166,0,0,1,0-9.52246l38.85547-38.85547a6.74166,6.74166,0,0,1,9.52246,0l38.85547,38.85547a6.74166,6.74166,0,0,1,0,9.52246l-38.85547,38.85547A6.71288,6.71288,0,0,1,114.41312,159.99857Zm-2.64014-4.08984a3.73922,3.73922,0,0,0,5.28027,0l38.85547-38.85547a3.73922,3.73922,0,0,0,0-5.28027L117.05326,72.91752a3.73922,3.73922,0,0,0-5.28027,0L72.91752,111.773a3.73922,3.73922,0,0,0,0,5.28027Z"/><path d="M114.41312,122.45072a8.0376,8.0376,0,1,1,5.686-2.35156A8.01516,8.01516,0,0,1,114.41312,122.45072Zm0-13.07666a5.03906,5.03906,0,1,0,3.56494,1.47412A5.02565,5.02565,0,0,0,114.41312,109.37406Z"/><path d="M114.41312,100.2476a8.0376,8.0376,0,1,1,5.686-2.35156A8.01516,8.01516,0,0,1,114.41312,100.2476Zm0-13.07666a5.03906,5.03906,0,1,0,3.56494,1.47412A5.02565,5.02565,0,0,0,114.41312,87.17094Z"/><path d="M136.61625,122.45072a8.0376,8.0376,0,1,1,5.686-2.35156A8.01516,8.01516,0,0,1,136.61625,122.45072Zm0-13.07666a5.03906,5.03906,0,1,0,3.56494,1.47412A5.02565,5.02565,0,0,0,136.61625,109.37406Z"/><path d="M92.21,122.45072a8.0376,8.0376,0,1,1,5.686-2.35156A8.01516,8.01516,0,0,1,92.21,122.45072Zm0-13.07666a5.03906,5.03906,0,1,0,3.56494,1.47412A5.02565,5.02565,0,0,0,92.21,109.37406Z"/><path d="M114.41312,144.65385a8.0376,8.0376,0,1,1,5.686-2.35156A8.01516,8.01516,0,0,1,114.41312,144.65385Zm0-13.07666a5.03906,5.03906,0,1,0,3.56494,1.47412A5.02565,5.02565,0,0,0,114.41312,131.57719Z"/><path d="M34.2222,88.53129a6.73719,6.73719,0,0,1-5.84229-3.36523L.90531,37.57767a6.73286,6.73286,0,0,1,2.46436-9.19775L50.95756.90531a6.73286,6.73286,0,0,1,9.19775,2.46436l27.4751,47.58789a6.74113,6.74113,0,0,1-2.46436,9.19775h0L37.57767,87.63041A6.69038,6.69038,0,0,1,34.2222,88.53129ZM54.3184,3.001a3.71317,3.71317,0,0,0-1.86084.502L4.86967,30.97806A3.73258,3.73258,0,0,0,3.503,36.07767l27.4751,47.58838a3.733,3.733,0,0,0,5.09961,1.36621L83.66605,57.55765a3.73784,3.73784,0,0,0,1.36621-5.1001L57.55765,4.86967a3.71193,3.71193,0,0,0-2.26709-1.73975A3.76473,3.76473,0,0,0,54.3184,3.001ZM84.41605,58.85648h0Z"/><path d="M44.28129,52.30765A8.0408,8.0408,0,1,1,51.232,40.24711h0a8.03884,8.03884,0,0,1-6.95068,12.06055Zm-.022-13.084a5.061,5.061,0,1,0,1.313.17432A5.01376,5.01376,0,0,0,44.25931,39.22367Z"/><path d="M22.835,46.56107a8.03729,8.03729,0,1,1,4.00684-1.07568A8.04508,8.04508,0,0,1,22.835,46.56107Zm-.022-13.084a5.04417,5.04417,0,1,0,4.37451,2.52344H27.187a5.05875,5.05875,0,0,0-4.374-2.52344Z"/><path d="M65.72806,58.05424a8.03884,8.03884,0,1,1,4.00732-1.07568A8.0461,8.0461,0,0,1,65.72806,58.05424Zm-.022-13.084a5.04345,5.04345,0,1,0,4.37451,2.52344h-.00049a5.05875,5.05875,0,0,0-4.374-2.52344Z"/></svg>