<svg id="Elements" xmlns="http://www.w3.org/2000/svg" viewBox="0 0 75 75"><title>alo_activities</title><path d="M50.126,58.5H10A3.50425,3.50425,0,0,1,6.5,55V30A3.50425,3.50425,0,0,1,10,26.5H50.126a3.50425,3.50425,0,0,1,3.5,3.5V55A3.50425,3.50425,0,0,1,50.126,58.5ZM10,28.5A1.50164,1.50164,0,0,0,8.5,30V55A1.50164,1.50164,0,0,0,10,56.5H50.126a1.50164,1.50164,0,0,0,1.5-1.5V30a1.50164,1.50164,0,0,0-1.5-1.5H10Z"/><path d="M17.5,28.5a11,11,0,1,1,11-11A11.01245,11.01245,0,0,1,17.5,28.5Zm0-20a9,9,0,1,0,9,9A9.01047,9.01047,0,0,0,17.5,8.5Z"/><path d="M42.626,28.5a11,11,0,1,1,11-11A11.01245,11.01245,0,0,1,42.626,28.5Zm0-20a9,9,0,1,0,9,9A9.01047,9.01047,0,0,0,42.626,8.5Z"/><path d="M42.626,21a3.5,3.5,0,1,1,3.5-3.5A3.50425,3.50425,0,0,1,42.626,21Zm0-5a1.5,1.5,0,1,0,1.5,1.5A1.50164,1.50164,0,0,0,42.626,16Z"/><path d="M17.5,21A3.5,3.5,0,1,1,21,17.5,3.50425,3.50425,0,0,1,17.5,21Zm0-5A1.5,1.5,0,1,0,19,17.5,1.50164,1.50164,0,0,0,17.5,16Z"/><path d="M65.73242,56.60645a3.47739,3.47739,0,0,1-2.4751-1.02539L52.65088,44.97461a3.50448,3.50448,0,0,1-.00049-4.94922L63.25781,29.41846a3.504,3.504,0,0,1,4.94922,0,1.00013,1.00013,0,0,1,.293.707V54.874a1.00257,1.00257,0,0,1-.29248.707A3.47739,3.47739,0,0,1,65.73242,56.60645ZM67.5,54.874h0Zm-1.76758-24.48a1.4945,1.4945,0,0,0-1.06055.43848L54.06494,41.43945a1.50167,1.50167,0,0,0,.00049,2.12109L64.67188,54.167A1.53472,1.53472,0,0,0,66.5,54.39551v-23.791A1.50049,1.50049,0,0,0,65.73242,30.394Z"/><path d="M32.563,68.5h-5a0.99974,0.99974,0,0,1-1-1v-10a0.99974,0.99974,0,0,1,1-1h5a0.99974,0.99974,0,0,1,1,1v10A0.99974,0.99974,0,0,1,32.563,68.5Zm-4-2h3v-8h-3v8Z"/><path d="M32.563,48.5h-15a3.50425,3.50425,0,0,1-3.5-3.5V40a3.50425,3.50425,0,0,1,3.5-3.5h15a3.50425,3.50425,0,0,1,3.5,3.5v5A3.50425,3.50425,0,0,1,32.563,48.5Zm-15-10a1.50164,1.50164,0,0,0-1.5,1.5v5a1.50164,1.50164,0,0,0,1.5,1.5h15a1.50164,1.50164,0,0,0,1.5-1.5V40a1.50164,1.50164,0,0,0-1.5-1.5h-15Z"/><path d="M35.063,43.5h-20a1,1,0,1,1,0-2h20A1,1,0,0,1,35.063,43.5Z"/><path d="M52.626,43.5h-10a1,1,0,0,1,0-2h10A1,1,0,0,1,52.626,43.5Z"/><path d="M52.626,38.5h-10a1,1,0,0,1,0-2h10A1,1,0,0,1,52.626,38.5Z"/><path d="M52.626,48.5h-10a1,1,0,0,1,0-2h10A1,1,0,0,1,52.626,48.5Z"/></svg>