<svg xmlns="http://www.w3.org/2000/svg" viewBox="0 0 160 160.00113"><title>alo_icon_activity_exhibition-large</title><path d="M158.5,160.00113H1.5a1.5,1.5,0,0,1,0-3h157a1.5,1.5,0,0,1,0,3Z"/><path d="M158.5,146.91763H1.5a1.5,1.5,0,0,1,0-3h157a1.5,1.5,0,0,1,0,3Z"/><path d="M144.78955,68.41763H15.95459a1.5,1.5,0,1,1,0-3h128.835a1.5,1.5,0,0,1,0,3Z"/><path d="M154.01074,55.33414H5.98926a1.5,1.5,0,1,1,0-3H154.01074a1.5,1.5,0,0,1,0,3Z"/><path d="M154.00928,55.33414a1.4934,1.4934,0,0,1-.86475-.27539L79.13379,2.72476A1.5,1.5,0,1,1,80.86621.27554l74.01074,52.334a1.5,1.5,0,0,1-.86768,2.72461Z"/><path d="M5.99072,55.33414A1.5,1.5,0,0,1,5.123,52.60953L79.13379.27554a1.5,1.5,0,1,1,1.73242,2.44922L6.85547,55.05875A1.4934,1.4934,0,0,1,5.99072,55.33414Z"/><path d="M80,146.91763a1.49976,1.49976,0,0,1-1.5-1.5v-78.5a1.5,1.5,0,0,1,3,0v78.5A1.49976,1.49976,0,0,1,80,146.91763Z"/><path d="M56.4502,146.91763a1.49976,1.49976,0,0,1-1.5-1.5v-78.5a1.5,1.5,0,0,1,3,0v78.5A1.49976,1.49976,0,0,1,56.4502,146.91763Z"/><path d="M32.8999,146.91763a1.49976,1.49976,0,0,1-1.5-1.5v-78.5a1.5,1.5,0,0,1,3,0v78.5A1.49976,1.49976,0,0,1,32.8999,146.91763Z"/><path d="M103.5498,146.91763a1.49976,1.49976,0,0,1-1.5-1.5v-78.5a1.5,1.5,0,0,1,3,0v78.5A1.49976,1.49976,0,0,1,103.5498,146.91763Z"/><path d="M127.1001,146.91763a1.49976,1.49976,0,0,1-1.5-1.5v-78.5a1.5,1.5,0,1,1,3,0v78.5A1.49976,1.49976,0,0,1,127.1001,146.91763Z"/><path d="M158.5,160.00113a1.49976,1.49976,0,0,1-1.5-1.5v-13.0835a1.5,1.5,0,0,1,3,0v13.0835A1.49976,1.49976,0,0,1,158.5,160.00113Z"/><path d="M1.5,160.00113a1.49976,1.49976,0,0,1-1.5-1.5v-13.0835a1.5,1.5,0,0,1,3,0v13.0835A1.49976,1.49976,0,0,1,1.5,160.00113Z"/><path d="M147.46875,92.53287a10.08533,10.08533,0,0,1-10.07422-10.07422,8.36884,8.36884,0,0,1,8.35938-8.35937,6.99536,6.99536,0,0,1,6.98779,6.9873,1.5,1.5,0,1,1-3,0,3.99208,3.99208,0,0,0-3.98779-3.9873,5.36556,5.36556,0,0,0-5.35937,5.35938,7.082,7.082,0,0,0,7.07422,7.07422,9.22844,9.22844,0,0,0,9.21777-9.21777,11.91081,11.91081,0,0,0-11.897-11.89746,1.5,1.5,0,0,1,0-3,14.91409,14.91409,0,0,1,14.897,14.89746A12.23172,12.23172,0,0,1,147.46875,92.53287Z"/><path d="M13.2749,92.53287A12.23172,12.23172,0,0,1,1.05713,80.3151,14.9145,14.9145,0,0,1,15.95459,65.41763a1.5,1.5,0,0,1,0,3A11.91122,11.91122,0,0,0,4.05713,80.3151a9.22844,9.22844,0,0,0,9.21777,9.21777,7.082,7.082,0,0,0,7.07422-7.07422,5.36556,5.36556,0,0,0-5.35937-5.35937,3.99166,3.99166,0,0,0-3.9873,3.9873,1.5,1.5,0,0,1-3,0,6.99494,6.99494,0,0,1,6.9873-6.9873,8.36884,8.36884,0,0,1,8.35938,8.35938A10.08533,10.08533,0,0,1,13.2749,92.53287Z"/></svg>