<svg id="Elements" xmlns="http://www.w3.org/2000/svg" viewBox="0 0 75 75"><title>alo_activities</title><g id="_Group_" data-name="&lt;Group&gt;"><path d="M67.5,64.5h-25a0.99974,0.99974,0,0,1-1-1,13.5,13.5,0,0,1,27,0A0.99974,0.99974,0,0,1,67.5,64.5Zm-23.957-2H66.457A11.50065,11.50065,0,0,0,43.543,62.5Z"/><path d="M67.5,68.5H39.47949a0.99928,0.99928,0,0,1-.707-0.293L6.793,36.22705a0.99964,0.99964,0,0,1,0-1.41406l3.82813-3.82861a0.86041,0.86041,0,0,1,.71191-0.293,0.99762,0.99762,0,0,1,.709.30029L42.91992,62.5H67.5a0.99974,0.99974,0,0,1,1,1v4A0.99974,0.99974,0,0,1,67.5,68.5Zm-27.60645-2H66.5v-2h-24a0.99683,0.99683,0,0,1-.71387-0.30029L11.32129,33.11279,8.91406,35.52Z"/><path d="M11.32813,32.69141a1,1,0,0,1-.707-1.707L30.54492,11.06055A0.99989,0.99989,0,0,1,31.959,12.47461L12.03516,32.39844A0.99676,0.99676,0,0,1,11.32813,32.69141Z"/><path d="M47.16211,27.64209A3.47542,3.47542,0,0,1,44.6875,26.6167L30.54492,12.47461a3.50032,3.50032,0,0,1,4.9502-4.9502L49.63672,21.667A3.5,3.5,0,0,1,47.16211,27.64209ZM33.02051,8.50049A1.49915,1.49915,0,0,0,31.959,11.06006L46.10156,25.20264v0.00049a1.53626,1.53626,0,0,0,2.12109-.00049,1.5,1.5,0,0,0,0-2.12158L34.08105,8.939A1.49821,1.49821,0,0,0,33.02051,8.50049Z"/><path d="M55,52.00049a0.99953,0.99953,0,0,1-.93359-0.64307L44.46094,26.26709a0.99967,0.99967,0,1,1,1.86719-.71484l9.60547,25.09033A1.00059,1.00059,0,0,1,55,52.00049Z"/><path d="M39.95508,36.16943a3.50011,3.50011,0,1,1,3.26465-4.752V31.418A3.50047,3.50047,0,0,1,39.95508,36.16943Zm-0.00586-5.00049a1.49989,1.49989,0,1,0,1.40332.96387A1.49,1.49,0,0,0,39.94922,31.16895Z"/><path d="M42.63672,43.17383a3.50014,3.50014,0,1,1,3.26465-4.75244v0.00049A3.50061,3.50061,0,0,1,42.63672,43.17383Zm-0.00586-5.00049a1.49985,1.49985,0,1,0,1.40332.96338A1.5051,1.5051,0,0,0,42.63086,38.17334Z"/><path d="M45.31836,50.17773a3.50011,3.50011,0,1,1,3.26465-4.752v0.00049A3.50047,3.50047,0,0,1,45.31836,50.17773ZM45.3125,45.17725a1.49989,1.49989,0,1,0,1.40332.96387A1.49,1.49,0,0,0,45.3125,45.17725Z"/><path d="M42.28613,32.77588a1.00046,1.00046,0,0,1-.35742-1.93457l4.66895-1.7876a1.00013,1.00013,0,0,1,.71484,1.86816l-4.66895,1.7876A0.99764,0.99764,0,0,1,42.28613,32.77588Z"/><path d="M44.96777,39.77979a1.00046,1.00046,0,0,1-.35742-1.93457l4.66895-1.7876a1.00013,1.00013,0,0,1,.71484,1.86816l-4.66895,1.7876A0.99764,0.99764,0,0,1,44.96777,39.77979Z"/><path d="M47.64941,46.78418a1.00046,1.00046,0,0,1-.35742-1.93457l4.66895-1.7876a1.00013,1.00013,0,0,1,.71484,1.86816l-4.66895,1.7876A0.99764,0.99764,0,0,1,47.64941,46.78418Z"/></g></svg>