<svg id="Elements" xmlns="http://www.w3.org/2000/svg" viewBox="0 0 75 75"><title>alo_activities</title><path d="M37.5,25.14209a3.5,3.5,0,1,1,3.5-3.5A3.50425,3.50425,0,0,1,37.5,25.14209Zm0-5a1.5,1.5,0,1,0,1.5,1.5A1.50164,1.50164,0,0,0,37.5,20.14209Z"/><path d="M44.5708,29.71338a1,1,0,0,1-.707-1.707,9.00025,9.00025,0,0,0,0-12.72852,0.99989,0.99989,0,0,1,1.41406-1.41406,10.99952,10.99952,0,0,1,0,15.55664A0.99676,0.99676,0,0,1,44.5708,29.71338Z"/><path d="M30.42871,29.71338a0.99676,0.99676,0,0,1-.707-0.293,11.0007,11.0007,0,0,1,0-15.55664,0.99989,0.99989,0,0,1,1.41406,1.41406,9.00143,9.00143,0,0,0,0,12.72852A1,1,0,0,1,30.42871,29.71338Z"/><path d="M48.10645,33.24854a1,1,0,0,1-.707-1.707,13.99961,13.99961,0,0,0,0-19.79883,0.99989,0.99989,0,0,1,1.41406-1.41406,15.99888,15.99888,0,0,1,0,22.627A0.99676,0.99676,0,0,1,48.10645,33.24854Z"/><path d="M26.89355,33.24854a0.99676,0.99676,0,0,1-.707-0.293,15.99888,15.99888,0,0,1,0-22.627,0.99989,0.99989,0,0,1,1.41406,1.41406,13.99961,13.99961,0,0,0,0,19.79883A1,1,0,0,1,26.89355,33.24854Z"/><path d="M51.64209,36.78418a1,1,0,0,1-.707-1.707,19.00014,19.00014,0,0,0,0-26.87012A0.99989,0.99989,0,0,1,52.34912,6.793a20.99941,20.99941,0,0,1,0,29.69824A0.99676,0.99676,0,0,1,51.64209,36.78418Z"/><path d="M23.35791,36.78418a0.99676,0.99676,0,0,1-.707-0.293,20.99941,20.99941,0,0,1,0-29.69824A0.99989,0.99989,0,0,1,24.06494,8.207a19.00014,19.00014,0,0,0,0,26.87012A1,1,0,0,1,23.35791,36.78418Z"/><path d="M37.5,30.14209a1,1,0,0,1-1-1v-5a1,1,0,1,1,2,0v5A1,1,0,0,1,37.5,30.14209Z"/><path d="M57.5,68.5h-5a1,1,0,0,1,0-2h5A1,1,0,0,1,57.5,68.5Z"/><path d="M22.5,68.5h-5a1,1,0,0,1,0-2h5A1,1,0,0,1,22.5,68.5Z"/><path d="M22.49951,68.50049a1.00131,1.00131,0,0,1-.93066-1.36475l15-38.35791a0.99986,0.99986,0,1,1,1.8623.72852l-15,38.35791A1.00063,1.00063,0,0,1,22.49951,68.50049Z"/><path d="M52.50049,68.50049a1.00063,1.00063,0,0,1-.93164-0.63623l-15-38.35791a0.99986,0.99986,0,1,1,1.8623-.72852l15,38.35791A1.00131,1.00131,0,0,1,52.50049,68.50049Z"/><path d="M52.49951,68.5a0.9966,0.9966,0,0,1-.63965-0.23193L29.2334,49.4126a0.99985,0.99985,0,1,1,1.28027-1.53613L53.14014,66.73193A1,1,0,0,1,52.49951,68.5Z"/><path d="M22.50049,68.5a1,1,0,0,1-.64062-1.76807L44.48633,47.87646A0.99985,0.99985,0,1,1,45.7666,49.4126L23.14014,68.26807A0.9966,0.9966,0,0,1,22.50049,68.5Z"/></svg>