<svg xmlns="http://www.w3.org/2000/svg" viewBox="0 0 160 160"><title>alo_icon_activity_story-large</title><path d="M27.667,146.9165a1.50007,1.50007,0,0,1-1.5-1.5V14.5835a1.5,1.5,0,0,1,3,0v130.833A1.50007,1.50007,0,0,1,27.667,146.9165Z"/><path d="M145.417,3H40.75a1.5,1.5,0,0,1,0-3H145.417a1.5,1.5,0,0,1,0,3Z"/><path d="M93.083,29.1665H40.75a1.5,1.5,0,0,1,0-3H93.083a1.5,1.5,0,0,1,0,3Z"/><path d="M93.083,81.5H40.75a1.5,1.5,0,0,1,0-3H93.083a1.5,1.5,0,0,1,0,3Z"/><path d="M119.25,55.3335H40.75a1.5,1.5,0,0,1,0-3h78.5a1.5,1.5,0,0,1,0,3Z"/><path d="M119.25,68.4165H40.75a1.5,1.5,0,0,1,0-3h78.5a1.5,1.5,0,0,1,0,3Z"/><path d="M119.25,94.5835H40.75a1.5,1.5,0,1,1,0-3h78.5a1.5,1.5,0,0,1,0,3Z"/><path d="M119.25,107.6665H40.75a1.5,1.5,0,0,1,0-3h78.5a1.5,1.5,0,0,1,0,3Z"/><path d="M119.25,120.75H40.75a1.5,1.5,0,0,1,0-3h78.5a1.5,1.5,0,0,1,0,3Z"/><path d="M119.25,133.8335H40.75a1.5,1.5,0,0,1,0-3h78.5a1.5,1.5,0,0,1,0,3Z"/><path d="M158.5,16.0835H132.333a1.5,1.5,0,0,1,0-3H158.5a1.5,1.5,0,0,1,0,3Z"/><path d="M27.667,146.9165H1.5a1.5,1.5,0,0,1,0-3H27.667a1.5,1.5,0,1,1,0,3Z"/><path d="M119.25,160H14.583a1.5,1.5,0,1,1,0-3H119.25a1.5,1.5,0,0,1,0,3Z"/><path d="M132.333,146.9165a1.50007,1.50007,0,0,1-1.5-1.5V14.5835a1.5,1.5,0,0,1,3,0v130.833A1.50007,1.50007,0,0,1,132.333,146.9165Z"/><path d="M14.583,160A14.59973,14.59973,0,0,1,0,145.4165a1.5,1.5,0,0,1,3,0,11.5835,11.5835,0,1,0,23.167,0,1.5,1.5,0,0,1,3,0A14.59994,14.59994,0,0,1,14.583,160Z"/><path d="M119.25,160a1.5,1.5,0,0,1,0-3,11.59645,11.59645,0,0,0,11.583-11.5835,1.5,1.5,0,0,1,3,0A14.59973,14.59973,0,0,1,119.25,160Z"/><path d="M158.5,16.0835a1.50007,1.50007,0,0,1-1.5-1.5,11.5835,11.5835,0,1,0-23.167,0,1.5,1.5,0,1,1-3,0,14.5835,14.5835,0,0,1,29.167,0A1.50007,1.50007,0,0,1,158.5,16.0835Z"/><path d="M27.667,16.0835a1.50007,1.50007,0,0,1-1.5-1.5A14.59973,14.59973,0,0,1,40.75,0a1.5,1.5,0,0,1,0,3A11.59645,11.59645,0,0,0,29.167,14.5835,1.50007,1.50007,0,0,1,27.667,16.0835Z"/></svg>