<svg xmlns="http://www.w3.org/2000/svg" viewBox="0 0 159.99463 140.54406"><title>alo_icon_activity_community-large</title><path d="M92.925,140.54406a7.38484,7.38484,0,0,1-7.376-7.377V111.16222H74.44653V133.1671a7.377,7.377,0,1,1-14.75391,0V94.21886a42.708,42.708,0,0,1-12.11133-9.8125,1.38076,1.38076,0,0,1-.24414-.22754,7.377,7.377,0,0,1,10.918-9.90723,1.47189,1.47189,0,0,1,.23438.22754,28.11263,28.11263,0,0,0,12.52344,8.666,11.3126,11.3126,0,1,1,17.96582.00391,28.14771,28.14771,0,0,0,12.36914-8.48047,1.45786,1.45786,0,0,1,.13672-.14258,7.37707,7.37707,0,0,1,11.17383,9.63281,1.53479,1.53479,0,0,1-.25977.24414,42.71871,42.71871,0,0,1-12.09668,9.7959V133.1671A7.38567,7.38567,0,0,1,92.925,140.54406ZM72.94653,108.16222H87.04907a1.50039,1.50039,0,0,1,1.5,1.5V133.1671a4.37646,4.37646,0,1,0,8.75293,0V93.31652a1.50034,1.50034,0,0,1,.81152-1.333,39.76908,39.76908,0,0,0,12.21777-9.76074,1.47667,1.47667,0,0,1,.21289-.208,4.3768,4.3768,0,0,0-6.88965-5.3916,1.50531,1.50531,0,0,1-.127.13379,31.09176,31.09176,0,0,1-16.6543,10.127,1.499,1.499,0,0,1-1.834-1.46191V83.61046a1.50064,1.50064,0,0,1,.49609-1.11426,8.203,8.203,0,0,0,2.77441-6.15137,8.3125,8.3125,0,1,0-16.625,0,8.19387,8.19387,0,0,0,2.77539,6.15039,1.50432,1.50432,0,0,1,.49609,1.11523v1.80762a1.50025,1.50025,0,0,1-1.834,1.46289A31.07744,31.07744,0,0,1,56.46313,76.753a1.7076,1.7076,0,0,1-.12207-.12891,4.37672,4.37672,0,0,0-6.88086,5.40332,1.42033,1.42033,0,0,1,.20313.19531A39.76321,39.76321,0,0,0,61.8811,91.98351a1.50217,1.50217,0,0,1,.81152,1.333V133.1671a4.377,4.377,0,1,0,8.75391,0V109.66222A1.50039,1.50039,0,0,1,72.94653,108.16222Z"/><path d="M113.13306,76.213a7.38782,7.38782,0,0,1-7.11035-9.35937,1.46658,1.46658,0,0,1,.08008-.31543,28.13338,28.13338,0,0,0,1.24316-15.17969,11.31324,11.31324,0,1,1-8.97949-15.561,28.15111,28.15111,0,0,0-13.5293-6.47119,1.53733,1.53733,0,0,1-.19238-.04736,7.37684,7.37684,0,0,1,2.75586-14.49268,1.4929,1.4929,0,0,1,.33887.10205,42.71921,42.71921,0,0,1,14.5332,5.57764L136.00415.9923a7.37632,7.37632,0,0,1,7.376,12.77637L124.32349,24.77111l5.55078,9.61572,19.05762-11.00244a7.37636,7.37636,0,0,1,7.377,12.77588L122.57739,55.63488A42.72167,42.72167,0,0,1,120.136,71.02843a1.34617,1.34617,0,0,1-.0752.32617,7.39222,7.39222,0,0,1-6.92773,4.8584Zm-4.06543-9.04883a1.56638,1.56638,0,0,1-.05176.17139,4.377,4.377,0,0,0,8.12012,3.2583,1.28712,1.28712,0,0,1,.06836-.2749A39.77967,39.77967,0,0,0,119.54809,54.857a1.49792,1.49792,0,0,1,.748-1.36865l34.5127-19.92578a4.37672,4.37672,0,0,0-4.377-7.58057L130.07544,37.73448a1.49947,1.49947,0,0,1-2.04883-.54883l-7.05078-12.21338a1.49953,1.49953,0,0,1,.54883-2.04883L141.88013,11.171a4.37669,4.37669,0,0,0-4.376-7.58105l-34.5127,19.92529a1.49719,1.49719,0,0,1-1.55957-.03613,39.76225,39.76225,0,0,0-14.5625-5.7002,1.46756,1.46756,0,0,1-.28516-.08008,4.37693,4.37693,0,0,0-1.22461,8.6626,1.45926,1.45926,0,0,1,.17969.043A31.09146,31.09146,0,0,1,102.636,35.76329a1.49975,1.49975,0,0,1-.34961,2.31934l-1.56836.90576a1.50234,1.50234,0,0,1-1.21289.12793,8.2096,8.2096,0,0,0-6.71484.67236,8.31262,8.31262,0,1,0,8.3125,14.39795,8.20361,8.20361,0,0,0,3.94043-5.47852,1.49633,1.49633,0,0,1,.7168-.98682l1.56543-.90381a1.49979,1.49979,0,0,1,2.18359.85693A31.08421,31.08421,0,0,1,109.06763,67.16417Z"/><path d="M46.87427,76.20909a7.38944,7.38944,0,0,1-6.94043-4.85449,1.46647,1.46647,0,0,1-.08105-.34521,42.69246,42.69246,0,0,1-2.43555-15.37451L3.68579,36.16027a7.37636,7.37636,0,0,1,7.377-12.77588L30.12036,34.38683l5.55078-9.61572L16.6145,13.76866A7.37632,7.37632,0,1,1,23.99048.9923L57.72192,20.46593a42.70971,42.70971,0,0,1,14.55273-5.58154,1.3669,1.3669,0,0,1,.31934-.09814,7.37685,7.37685,0,0,1,3.12012,14.40869,1.46431,1.46431,0,0,1-.3125.08789A28.11923,28.11923,0,0,0,61.634,35.7965,11.31271,11.31271,0,1,1,52.6477,51.35363a28.15414,28.15414,0,0,0,1.16016,14.95215,1.413,1.413,0,0,1,.05566.19287,7.37754,7.37754,0,0,1-6.98926,9.71045ZM42.8645,70.60656a4.377,4.377,0,0,0,8.11426-3.271,1.53893,1.53893,0,0,1-.05371-.17969,31.10726,31.10726,0,0,1-.44238-19.4834,1.49979,1.49979,0,0,1,2.18359-.85693l1.56836.90576a1.49675,1.49675,0,0,1,.7168.98584,8.21022,8.21022,0,0,0,3.94043,5.47949,8.31241,8.31241,0,1,0,8.3125-14.39746,8.19393,8.19393,0,0,0-6.71484-.67285,1.49747,1.49747,0,0,1-1.21289-.12793l-1.56543-.90381a1.49931,1.49931,0,0,1-.34961-2.31885A31.07082,31.07082,0,0,1,74.46411,26.402a1.50187,1.50187,0,0,1,.1709-.04053,4.377,4.377,0,0,0-1.23145-8.66211,1.43367,1.43367,0,0,1-.27832.0791,39.762,39.762,0,0,0-14.5625,5.70068,1.49709,1.49709,0,0,1-1.55957.03613L22.49048,3.59a4.37669,4.37669,0,0,0-4.376,7.58105L38.47,22.92345a1.49953,1.49953,0,0,1,.54883,2.04883L31.968,37.18566a1.49947,1.49947,0,0,1-2.04883.54883L9.56274,25.982a4.37672,4.37672,0,0,0-4.377,7.58057l34.5127,19.92578a1.49792,1.49792,0,0,1,.748,1.36865A39.75121,39.75121,0,0,0,42.79126,70.319,1.48866,1.48866,0,0,1,42.8645,70.60656Z"/></svg>