<svg xmlns="http://www.w3.org/2000/svg" viewBox="0 0 160 160"><title>alo_activities-groceries-large</title><path d="M129.83594,160H30.16406A30.19785,30.19785,0,0,1,0,129.83594V53.834a1.50039,1.50039,0,0,1,1.5-1.5h157a1.50039,1.50039,0,0,1,1.5,1.5v76.002A30.19785,30.19785,0,0,1,129.83594,160ZM3,55.334v74.502A27.19457,27.19457,0,0,0,30.16406,157h99.67188A27.19457,27.19457,0,0,0,157,129.83594V55.334Z"/><path d="M21.126,55.334a1.50039,1.50039,0,0,1-1.5-1.5A14.59984,14.59984,0,0,1,34.209,39.25a1.5,1.5,0,1,1,0,3A11.59656,11.59656,0,0,0,22.626,53.834,1.50039,1.50039,0,0,1,21.126,55.334Z"/><path d="M47.292,55.334a1.50039,1.50039,0,0,1-1.5-1.5A11.59656,11.59656,0,0,0,34.209,42.25a1.5,1.5,0,0,1,0-3A14.59984,14.59984,0,0,1,48.792,53.834,1.50039,1.50039,0,0,1,47.292,55.334Z"/><path d="M34.209,42.25H34.2041A14.47654,14.47654,0,0,1,21.6377,20.4873a1.50021,1.50021,0,0,1,1.30176-.75488h.00488a14.477,14.477,0,0,1,12.56641,21.7627A1.50139,1.50139,0,0,1,34.209,42.25ZM23.82617,22.76758a11.46311,11.46311,0,0,0,9.49609,16.44727,11.46373,11.46373,0,0,0-9.49609-16.44727Z"/><path d="M89.8125,55.334a1.50039,1.50039,0,0,1-1.5-1.5V29.82715a1.5,1.5,0,0,1,3,0V53.834A1.50039,1.50039,0,0,1,89.8125,55.334Z"/><path d="M57.10449,55.334a1.50039,1.50039,0,0,1-1.5-1.5V29.82715a1.5,1.5,0,0,1,3,0V53.834A1.50039,1.50039,0,0,1,57.10449,55.334Z"/><path d="M57.10352,31.32715a1.49995,1.49995,0,0,1-1.16406-2.44531L72.29395,8.73145A1.50031,1.50031,0,1,1,74.624,10.62207L58.26953,30.77246A1.4984,1.4984,0,0,1,57.10352,31.32715Z"/><path d="M89.81348,31.32715a1.4984,1.4984,0,0,1-1.166-.55469L72.29395,10.62207A1.50031,1.50031,0,0,1,74.624,8.73145L90.97754,28.88184a1.49995,1.49995,0,0,1-1.16406,2.44531Z"/><path d="M89.8125,31.32715h-32.708a1.5,1.5,0,0,1,0-3h32.708a1.5,1.5,0,0,1,0,3Z"/><path d="M73.459,11.17676a1.50039,1.50039,0,0,1-1.5-1.5V1.5a1.5,1.5,0,0,1,3,0V9.67676A1.50039,1.50039,0,0,1,73.459,11.17676Z"/><path d="M80,133.833c-29.68359,0-53.833-35.8877-53.833-79.999a1.5,1.5,0,0,1,3,0c0,42.457,22.80371,76.999,50.833,76.999s50.833-34.542,50.833-76.999a1.5,1.5,0,0,1,3,0C133.833,97.94531,109.68359,133.833,80,133.833Z"/><path d="M80,133.833c-11.082,0-21.415-8.46-29.0957-23.82129C43.38867,94.98145,39.25,75.03027,39.25,53.834a1.5,1.5,0,0,1,3,0c0,42.457,16.93457,76.999,37.75,76.999s37.75-34.542,37.75-76.999a1.5,1.5,0,0,1,3,0c0,21.19629-4.13867,41.14746-11.6543,56.17773C101.415,125.373,91.082,133.833,80,133.833Z"/><path d="M84.043,24.21582a1.49994,1.49994,0,0,1-.94629-2.66406l4.92871-4.002-3.05566-3.76562L80.04,17.78516A1.49955,1.49955,0,0,1,78.14941,15.457l6.09375-4.94727a1.52141,1.52141,0,0,1,1.10059-.32812,1.50241,1.50241,0,0,1,1.00977.54688l4.94727,6.09473a1.4995,1.4995,0,0,1-.21973,2.10938L84.9873,23.87988A1.4897,1.4897,0,0,1,84.043,24.21582Z"/><path d="M98.63379,55.334a1.49974,1.49974,0,0,1-1.34961-2.15332c2.1416-4.42969,4.49023-8.8623,6.98047-13.1748,7.0498-12.209,14.877-23.01465,22.042-30.42383C131.68848,4.01465,139.09277-2.0459,143.81055.67676c8.20117,4.73437-1.23828,31.30762-14.2832,53.90723a1.49982,1.49982,0,0,1-2.59766-1.5c6.92773-12.002,12.26758-23.94238,15.03711-33.623,2.96484-10.36816,2.12207-15.16016.34375-16.18652-1.77441-1.02637-6.34766.63672-13.84766,8.39258-6.999,7.23926-14.66992,17.83594-21.60059,29.83887-2.45312,4.249-4.7666,8.61719-6.877,12.98145A1.49957,1.49957,0,0,1,98.63379,55.334Z"/><path d="M118.09082,53.26563a1.50011,1.50011,0,0,1-1.29785-2.25,1.77086,1.77086,0,0,0-.64844-2.41895,4.76981,4.76981,0,0,1-1.74609-6.51855,1.50031,1.50031,0,0,1,2.59766,1.502,1.7692,1.7692,0,0,0,.64844,2.41895,4.76753,4.76753,0,0,1,1.74609,6.5166A1.49808,1.49808,0,0,1,118.09082,53.26563Z"/><path d="M124.63184,41.93457a1.49982,1.49982,0,0,1-1.29785-2.251,1.76836,1.76836,0,0,0-.64844-2.418,4.76753,4.76753,0,0,1-1.74609-6.5166,1.49982,1.49982,0,0,1,2.59766,1.5,1.77086,1.77086,0,0,0,.64844,2.41895,4.769,4.769,0,0,1,1.74609,6.51758A1.50036,1.50036,0,0,1,124.63184,41.93457Z"/><path d="M131.17383,30.60449a1.50011,1.50011,0,0,1-1.29785-2.25,1.76859,1.76859,0,0,0-.64844-2.41895,4.77658,4.77658,0,0,1-1.74609-6.51758,1.49982,1.49982,0,0,1,2.59766,1.5,1.77387,1.77387,0,0,0,.64844,2.41992,4.76814,4.76814,0,0,1,1.74609,6.5166A1.49808,1.49808,0,0,1,131.17383,30.60449Z"/></svg>