<svg id="Elements" xmlns="http://www.w3.org/2000/svg" viewBox="0 0 75 75"><title>alo_activities</title><path d="M20,68.5A11.01279,11.01279,0,0,1,9,57.53418L6.50244,20.06641A13.49886,13.49886,0,1,1,33.5,20L30.99756,57.56641A10.9949,10.9949,0,0,1,20,68.5Zm0-60A11.5131,11.5131,0,0,0,8.5,20l2.49756,37.43359C10.999,57.45605,11,57.47754,11,57.5a9,9,0,0,0,18,0l2.50244-37.56641A11.5029,11.5029,0,0,0,20,8.5Z"/><path d="M20,48.5a6.00656,6.00656,0,0,1-6-6v-10a6,6,0,0,1,12,0v10A6.00656,6.00656,0,0,1,20,48.5Zm0-20a4.00427,4.00427,0,0,0-4,4v10a4,4,0,0,0,8,0v-10A4.00427,4.00427,0,0,0,20,28.5Z"/><path d="M20,13.5a6.0161,6.0161,0,0,1-5.87939-4.80176,1,1,0,1,1,1.96-.39844,4.00026,4.00026,0,0,0,7.83887,0,1,1,0,1,1,1.96.39844A6.0161,6.0161,0,0,1,20,13.5Z"/><path d="M32.16992,25.9668c-0.02246,0-.04492-0.001-0.06738-0.002a5.98778,5.98778,0,0,1-.7998-11.84473,1.00041,1.00041,0,0,1,.39746,1.96094,3.987,3.987,0,0,0,.53516,7.8877A1.00014,1.00014,0,0,1,32.16992,25.9668Z"/><path d="M24.8252,67.25684a1.00023,1.00023,0,0,1-.96777-0.751,3.97773,3.97773,0,0,0-7.71436,0,0.99977,0.99977,0,1,1-1.93652-.498,5.97711,5.97711,0,0,1,11.5874,0A0.99854,0.99854,0,0,1,24.8252,67.25684Z"/><path d="M28.75781,63.3252a1.00106,1.00106,0,0,1-.24951-0.03125A5.99006,5.99006,0,0,1,30,51.5a2.27638,2.27638,0,0,1,.32813.02734,1.02872,1.02872,0,0,1,.96875,1.06348,0.982,0.982,0,0,1-1.02734.94043c-0.07275-.00488-0.14453-0.01367-0.21582-0.02344H30.03857a3.98558,3.98558,0,0,0-1.03223,7.84863A1.00017,1.00017,0,0,1,28.75781,63.3252Z"/><path d="M11.24219,63.3252a1.00017,1.00017,0,0,1-.24854-1.96875A3.98978,3.98978,0,0,0,10,53.5c-0.125.01758-.19678,0.02637-0.26953,0.03125a0.99995,0.99995,0,0,1-.123-1.99609l0.06445-.00781A2.27638,2.27638,0,0,1,10,51.5a5.99006,5.99006,0,0,1,1.4917,11.79395A1.00106,1.00106,0,0,1,11.24219,63.3252Z"/><path d="M7.83008,25.9668a1.00014,1.00014,0,0,1-.06543-1.998,3.987,3.987,0,0,0,.53516-7.8877,1.00041,1.00041,0,0,1,.39746-1.96094,5.98778,5.98778,0,0,1-.7998,11.84473C7.875,25.96582,7.85254,25.9668,7.83008,25.9668Z"/><path d="M55,68.5A11.01279,11.01279,0,0,1,44,57.53418L41.50244,20.06641A13.49886,13.49886,0,1,1,68.5,20L65.99756,57.56641A10.9949,10.9949,0,0,1,55,68.5Zm0-60A11.5131,11.5131,0,0,0,43.5,20l2.49756,37.43359C45.999,57.45605,46,57.47754,46,57.5a9,9,0,0,0,18,0l2.50244-37.56641A11.5029,11.5029,0,0,0,55,8.5Z"/><path d="M55,48.5a6.00656,6.00656,0,0,1-6-6v-10a6,6,0,0,1,12,0v10A6.00656,6.00656,0,0,1,55,48.5Zm0-20a4.00427,4.00427,0,0,0-4,4v10a4,4,0,0,0,8,0v-10A4.00427,4.00427,0,0,0,55,28.5Z"/><path d="M55,13.5a6.0161,6.0161,0,0,1-5.87939-4.80176,1,1,0,1,1,1.96-.39844,4.00026,4.00026,0,0,0,7.83887,0,1,1,0,1,1,1.96.39844A6.0161,6.0161,0,0,1,55,13.5Z"/><path d="M67.16992,25.9668c-0.02246,0-.04492-0.001-0.06738-0.002a5.98778,5.98778,0,0,1-.7998-11.84473,1.00041,1.00041,0,0,1,.39746,1.96094,3.987,3.987,0,0,0,.53516,7.8877A1.00014,1.00014,0,0,1,67.16992,25.9668Z"/><path d="M59.8252,67.25684a1.00023,1.00023,0,0,1-.96777-0.751,3.97773,3.97773,0,0,0-7.71436,0,0.99977,0.99977,0,1,1-1.93652-.498,5.97711,5.97711,0,0,1,11.5874,0A0.99854,0.99854,0,0,1,59.8252,67.25684Z"/><path d="M63.75781,63.3252a1.00106,1.00106,0,0,1-.24951-0.03125A5.99006,5.99006,0,0,1,65,51.5a2.27638,2.27638,0,0,1,.32813.02734,1.02872,1.02872,0,0,1,.96875,1.06348,0.98028,0.98028,0,0,1-1.02734.94043c-0.07275-.00488-0.14453-0.01367-0.21582-0.02344H65.03857a3.98558,3.98558,0,0,0-1.03223,7.84863A1.00017,1.00017,0,0,1,63.75781,63.3252Z"/><path d="M46.24219,63.3252a1.00017,1.00017,0,0,1-.24854-1.96875A3.98978,3.98978,0,0,0,45,53.5c-0.125.01758-.19678,0.02637-0.26953,0.03125a0.99995,0.99995,0,0,1-.123-1.99609l0.06445-.00781A2.27638,2.27638,0,0,1,45,51.5a5.99006,5.99006,0,0,1,1.4917,11.79395A1.00106,1.00106,0,0,1,46.24219,63.3252Z"/><path d="M42.83008,25.9668a1.00014,1.00014,0,0,1-.06543-1.998,3.987,3.987,0,0,0,.53516-7.8877,1.00041,1.00041,0,0,1,.39746-1.96094,5.98778,5.98778,0,0,1-.7998,11.84473C42.875,25.96582,42.85254,25.9668,42.83008,25.9668Z"/><path d="M31.665,33.52637H8.335a1,1,0,0,1,0-2H31.665A1,1,0,0,1,31.665,33.52637Z"/><path d="M31.002,38.5H8.99854a1,1,0,0,1,0-2H31.002A1,1,0,1,1,31.002,38.5Z"/><path d="M66.665,33.52637H43.335a1,1,0,0,1,0-2H66.665A1,1,0,0,1,66.665,33.52637Z"/><path d="M66.00146,38.5H43.998a1,1,0,0,1,0-2H66.00146A1,1,0,0,1,66.00146,38.5Z"/></svg>