<svg xmlns="http://www.w3.org/2000/svg" viewBox="0 0 160 160"><title>alo_icon_activity_computer-large</title><path d="M132.333,160a27.69772,27.69772,0,0,1-27.666-27.6665V80A27.6665,27.6665,0,1,1,160,80v52.3335A27.69793,27.69793,0,0,1,132.333,160Zm0-104.6665A24.69444,24.69444,0,0,0,107.667,80v52.3335a24.6665,24.6665,0,1,0,49.333,0V80A24.69465,24.69465,0,0,0,132.333,55.3335Z"/><path d="M132.333,94.5835a1.50007,1.50007,0,0,1-1.5-1.5V37.479a1.5,1.5,0,1,1,3,0V93.0835A1.50007,1.50007,0,0,1,132.333,94.5835Z"/><path d="M158.5,94.5835H106.167a1.5,1.5,0,0,1,0-3H158.5a1.5,1.5,0,0,1,0,3Z"/><path d="M14.583,55.3335H1.5a1.50007,1.50007,0,0,1-1.5-1.5V34.2085a1.50007,1.50007,0,0,1,1.5-1.5H14.583a1.50007,1.50007,0,0,1,1.5,1.5v19.625A1.50007,1.50007,0,0,1,14.583,55.3335ZM3,52.3335H13.083V35.7085H3Z"/><path d="M11.9668,35.7085H4.11621a1.50007,1.50007,0,0,1-1.5-1.5V26.3584a1.50007,1.50007,0,0,1,1.5-1.5H11.9668a1.50007,1.50007,0,0,1,1.5,1.5v7.8501A1.50007,1.50007,0,0,1,11.9668,35.7085Zm-6.35059-3H10.4668V27.8584H5.61621Z"/><path d="M34.208,107.6665A27.69772,27.69772,0,0,1,6.542,80V53.8335a1.5,1.5,0,0,1,3,0V80a24.6665,24.6665,0,0,0,49.333,0V37.479a1.5,1.5,0,0,1,3,0V80A27.69793,27.69793,0,0,1,34.208,107.6665Z"/><path d="M132.333,38.979a1.50007,1.50007,0,0,1-1.5-1.5,34.479,34.479,0,1,0-68.958,0,1.5,1.5,0,0,1-3,0,37.479,37.479,0,1,1,74.958,0A1.50007,1.50007,0,0,1,132.333,38.979Z"/></svg>