<svg id="Elements" xmlns="http://www.w3.org/2000/svg" viewBox="0 0 75 75"><title>alo_activities</title><path d="M20,24.46777a3.5,3.5,0,1,1,3.5-3.5A3.50425,3.50425,0,0,1,20,24.46777Zm0-5a1.5,1.5,0,1,0,1.5,1.5A1.50164,1.50164,0,0,0,20,19.46777Z"/><path d="M30,24.46777a3.5,3.5,0,1,1,3.5-3.5A3.50425,3.50425,0,0,1,30,24.46777Zm0-5a1.5,1.5,0,1,0,1.5,1.5A1.50164,1.50164,0,0,0,30,19.46777Z"/><path d="M25,39.46777a11.01245,11.01245,0,0,1-11-11,1,1,0,0,1,2,0,9,9,0,1,0,18,0,1,1,0,0,1,2,0A11.01245,11.01245,0,0,1,25,39.46777Z"/><path d="M25,50.43555a1.00134,1.00134,0,0,1-.22168-0.02441A23.36644,23.36644,0,0,1,6.5,27.5V10A3.50425,3.50425,0,0,1,10,6.5H40A3.50425,3.50425,0,0,1,43.5,10V27.5A23.36644,23.36644,0,0,1,25.22168,50.41113,1.00134,1.00134,0,0,1,25,50.43555ZM10,8.5A1.50164,1.50164,0,0,0,8.5,10V27.5A21.37465,21.37465,0,0,0,25,48.40918,21.37465,21.37465,0,0,0,41.5,27.5V10A1.50164,1.50164,0,0,0,40,8.5H10Z"/><path d="M45,42.53223a3.5,3.5,0,1,1,3.5-3.5A3.50425,3.50425,0,0,1,45,42.53223Zm0-5a1.5,1.5,0,1,0,1.5,1.5A1.50164,1.50164,0,0,0,45,37.53223Z"/><path d="M55,42.53223a3.5,3.5,0,1,1,3.5-3.5A3.50425,3.50425,0,0,1,55,42.53223Zm0-5a1.5,1.5,0,1,0,1.5,1.5A1.50164,1.50164,0,0,0,55,37.53223Z"/><path d="M60,57.53223a0.99942,0.99942,0,0,1-1-1,9,9,0,0,0-18,0,1,1,0,0,1-2,0,11,11,0,0,1,22,0A0.99942,0.99942,0,0,1,60,57.53223Z"/><path d="M50,68.5a1.00134,1.00134,0,0,1-.22168-0.02441,23.459,23.459,0,0,1-18.252-22.28418A1.001,1.001,0,0,1,32.5,45.165a1.02541,1.02541,0,0,1,1.02637.97363A21.45962,21.45962,0,0,0,50,66.47363,21.37465,21.37465,0,0,0,66.5,45.56445v-17.5a1.50164,1.50164,0,0,0-1.5-1.5H42.5a1,1,0,0,1,0-2H65a3.50425,3.50425,0,0,1,3.5,3.5v17.5A23.36644,23.36644,0,0,1,50.22168,68.47559,1.00134,1.00134,0,0,1,50,68.5Z"/></svg>