<svg id="Elements" xmlns="http://www.w3.org/2000/svg" viewBox="0 0 75 75"><title>alo_activities</title><path d="M65,68.5H10A3.50425,3.50425,0,0,1,6.5,65V35A3.50425,3.50425,0,0,1,10,31.5H65A3.50425,3.50425,0,0,1,68.5,35V65A3.50425,3.50425,0,0,1,65,68.5Zm-55-35A1.50164,1.50164,0,0,0,8.5,35V65A1.50164,1.50164,0,0,0,10,66.5H65A1.50164,1.50164,0,0,0,66.5,65V35A1.50164,1.50164,0,0,0,65,33.5H10Z"/><path d="M15,61H7.5a1,1,0,0,1-1-1V45a1,1,0,0,1,1-1H15a3.50425,3.50425,0,0,1,3.5,3.5v10A3.50425,3.50425,0,0,1,15,61ZM8.5,59H15a1.50164,1.50164,0,0,0,1.5-1.5v-10A1.50164,1.50164,0,0,0,15,46H8.5V59Z"/><path d="M32.5,33.5h-15a1,1,0,0,1-1-1V30A3.50425,3.50425,0,0,1,20,26.5H30A3.50425,3.50425,0,0,1,33.5,30v2.5A1,1,0,0,1,32.5,33.5Zm-14-2h13V30A1.50164,1.50164,0,0,0,30,28.5H20A1.50164,1.50164,0,0,0,18.5,30v1.5Z"/><path d="M42.5,61a11,11,0,1,1,11-11A11.01245,11.01245,0,0,1,42.5,61Zm0-20a9,9,0,1,0,9,9A9.01047,9.01047,0,0,0,42.5,41Z"/><path d="M42.5,56a6,6,0,1,1,6-6A6.00656,6.00656,0,0,1,42.5,56Zm0-10a4,4,0,1,0,4,4A4.00458,4.00458,0,0,0,42.5,46Z"/><path d="M27.5,43.5A3.5,3.5,0,1,1,31,40,3.50425,3.50425,0,0,1,27.5,43.5Zm0-5A1.5,1.5,0,1,0,29,40,1.50164,1.50164,0,0,0,27.5,38.5Z"/><path d="M12.5,51h-5a1,1,0,0,1,0-2h5A1,1,0,0,1,12.5,51Z"/><path d="M12.5,56h-5a1,1,0,0,1,0-2h5A1,1,0,0,1,12.5,56Z"/><path d="M30,28.5H20a1,1,0,0,1-1-1v-5a1,1,0,0,1,1-1H30a1,1,0,0,1,1,1v5A1,1,0,0,1,30,28.5Zm-9-2h8v-3H21v3Z"/><path d="M35,23.5H15a1,1,0,0,1-1-1V7.5a1,1,0,0,1,1-1H35a1,1,0,0,1,1,1v15A1,1,0,0,1,35,23.5Zm-19-2H34V8.5H16v13Z"/><path d="M35,18.5H15a1,1,0,0,1,0-2H35A1,1,0,0,1,35,18.5Z"/></svg>