<svg id="Elements" xmlns="http://www.w3.org/2000/svg" viewBox="0 0 75 75"><title>alo_activities</title><path d="M52.5,38.5a1.00013,1.00013,0,0,1-.707-0.293l-15-15A1.00013,1.00013,0,0,1,36.5,22.5,15.99967,15.99967,0,1,1,52.5,38.5ZM38.50586,22.0918L52.9082,36.49414A13.99989,13.99989,0,1,0,38.50586,22.0918Z"/><path d="M52.56641,38.56641a0.99974,0.99974,0,0,1-1-1V7.57959a1,1,0,1,1,2,0V37.56641A0.99974,0.99974,0,0,1,52.56641,38.56641Z"/><path d="M45.06641,30.93408a1,1,0,0,1-1-1V9.51709a1,1,0,0,1,1-1h0a1,1,0,0,1,1,1l-0.00049,5.4165,0.00049,15.00049A1,1,0,0,1,45.06641,30.93408Z"/><path d="M60.06592,36.46436h0a1,1,0,0,1-1-1l0.00049-25.7832a1,1,0,1,1,2,0l-0.00049,25.7832A1,1,0,0,1,60.06592,36.46436Z"/><path d="M60.06641,23.43408l-22.63281-.00049a1,1,0,0,1,0-2h0l22.63281,0.00049,7.354-.00049a1,1,0,0,1,0,2Z"/><path d="M65.4834,30.93408h-20.417a1,1,0,0,1,0-2h20.417A1,1,0,0,1,65.4834,30.93408Z"/><path d="M60.06641,15.93408H39.53564a1,1,0,0,1,0-2l5.53027-.00049,15.00049,0.00049,5.25244-.00049a1,1,0,0,1,0,2Z"/><path d="M18.4834,68.123a0.99752,0.99752,0,0,1-.707-0.293L7.16992,57.22363a1.00051,1.00051,0,0,1-.05273-1.35742l26.0874-30.481a1.0002,1.0002,0,0,1,.72119-0.34863,1.01608,1.01608,0,0,1,.74561.292l15,14.99951a1.00048,1.00048,0,0,1-.05664,1.4668l-30.481,26.08789A0.996,0.996,0,0,1,18.4834,68.123ZM9.23828,56.46387l9.29785,9.29785,28.957-24.7832L34.02148,27.50684Z"/><path d="M48.96436,42.03516a0.99676,0.99676,0,0,1-.707-0.293l-15-14.99951a0.99964,0.99964,0,0,1,0-1.41406L36.793,21.793A0.99989,0.99989,0,0,1,38.207,23.207l-2.82861,2.82861L48.96436,39.62109,51.793,36.793A0.99989,0.99989,0,0,1,53.207,38.207l-3.53564,3.53516A0.99676,0.99676,0,0,1,48.96436,42.03516Z"/><path d="M7.5,68.5a1,1,0,0,1-.707-1.707l5.68018-5.68066a0.99989,0.99989,0,0,1,1.41406,1.41406L8.207,68.207A0.99676,0.99676,0,0,1,7.5,68.5Z"/><path d="M32.62549,46.91016h0a1.00013,1.00013,0,0,1-.707-0.293L28.3833,43.08105a0.99964,0.99964,0,0,1,0-1.41406l7.0708-7.0708a0.99964,0.99964,0,0,1,1.41406,0l3.53564,3.53564a0.99964,0.99964,0,0,1,0,1.41406l-7.07129,7.07129A1.00013,1.00013,0,0,1,32.62549,46.91016ZM30.50439,42.374l2.12109,2.12207,5.65723-5.65723-2.12158-2.12158Z"/><path d="M35.4541,44.08105a0.99676,0.99676,0,0,1-.707-0.293l-3.53564-3.53516a0.99989,0.99989,0,0,1,1.41406-1.41406L36.16113,42.374A1,1,0,0,1,35.4541,44.08105Z"/></svg>