<svg xmlns="http://www.w3.org/2000/svg" viewBox="0 0 160 160.00099"><title>alo_icon_activity_crafts-large</title><path d="M14.583,160.001a1.49819,1.49819,0,0,1-.752-.20215,27.52933,27.52933,0,0,1-6.915-42.12646,1.49978,1.49978,0,1,1,2.252,1.98145,24.52511,24.52511,0,0,0,5.415,37.0957,24.75471,24.75471,0,0,0,11.584-20.88623,24.56171,24.56171,0,0,0-6.168-16.209,1.49978,1.49978,0,1,1,2.252-1.98145,27.55888,27.55888,0,0,1,6.916,18.19043,27.76169,27.76169,0,0,1-13.832,23.93555A1.49819,1.49819,0,0,1,14.583,160.001Z"/><path d="M14.583,160.001a1.50007,1.50007,0,0,1-1.5-1.5v-26.1665a1.5,1.5,0,0,1,3,0V158.501A1.50007,1.50007,0,0,1,14.583,160.001Z"/><path d="M21.125,120.16358h0l-13.083-.00146A1.49946,1.49946,0,0,1,6.57227,118.96a133.31359,133.31359,0,0,1-.02148-52.76611,1.33067,1.33067,0,0,1,.02148-.16162A130.40212,130.40212,0,0,0,9.1582,40.19093,130.30593,130.30593,0,0,0,6.57227,14.35157,1.5,1.5,0,0,1,8.042,12.55323h0l13.083.00049a1.49989,1.49989,0,0,1,1.46973,1.79785,130.3946,130.3946,0,0,0,0,51.67969,1.45062,1.45062,0,0,1,.02637.18311,133.36208,133.36208,0,0,1,2.62012,26.31006,133.38732,133.38732,0,0,1-2.64648,26.437A1.49946,1.49946,0,0,1,21.125,120.16358ZM9.27441,117.16212l10.61816.00146a130.466,130.466,0,0,0,2.34863-24.63916,130.31445,130.31445,0,0,0-2.58594-25.83984,1.30681,1.30681,0,0,1-.02539-.18359,133.37567,133.37567,0,0,1-.32617-50.94727l-9.44043-.00049a133.37074,133.37074,0,0,1,2.29492,24.6377,133.35959,133.35959,0,0,1-2.625,26.33252,1.33067,1.33067,0,0,1-.02148.16162,130.345,130.345,0,0,0-.2373,50.47705Z"/><path d="M149.248,134.0586a1.50061,1.50061,0,0,1-1.06055-.43945L64.33789,49.76808a1.49945,1.49945,0,0,1,0-2.12109l9.251-9.25a1.49945,1.49945,0,0,1,2.12109,0l83.85059,83.84912a1.49945,1.49945,0,0,1,0,2.12109l-9.252,9.252A1.50061,1.50061,0,0,1,149.248,134.0586ZM67.51953,48.70753l81.72852,81.73,7.13086-7.13086-81.72949-81.728Z"/><path d="M132.333,55.33351A27.66675,27.66675,0,1,1,160,27.66651,27.69783,27.69783,0,0,1,132.333,55.33351ZM132.333,3A24.66675,24.66675,0,1,0,157,27.66651,24.69444,24.69444,0,0,0,132.333,3Z"/><path d="M137.56641,50.10011a27.69772,27.69772,0,0,1-27.666-27.6665A27.41448,27.41448,0,0,1,115.45508,5.853a1.4999,1.4999,0,0,1,2.39844,1.80176,24.43782,24.43782,0,0,0-4.95312,14.77881,24.69444,24.69444,0,0,0,24.666,24.6665A24.4424,24.4424,0,0,0,152.3457,42.147a1.5,1.5,0,0,1,1.80078,2.39941A27.41948,27.41948,0,0,1,137.56641,50.10011Z"/><path d="M142.7998,42.2505A27.60681,27.60681,0,0,1,116.82324,5.13429a1.49972,1.49972,0,1,1,2.81836,1.02637,24.63134,24.63134,0,0,0,36.4502,29.17969,1.49993,1.49993,0,1,1,1.61914,2.52539A27.56533,27.56533,0,0,1,142.7998,42.2505Z"/><path d="M145.417,31.7837a27.53624,27.53624,0,0,1-27.62109-26.731,1.49987,1.49987,0,0,1,2.998-.10059A24.5486,24.5486,0,0,0,145.417,28.7837a24.65313,24.65313,0,0,0,12.28906-3.30176,1.50018,1.50018,0,0,1,1.498,2.59961A27.66142,27.66142,0,0,1,145.417,31.7837Z"/><path d="M148.0332,18.70021a27.51444,27.51444,0,0,1-24.75879-15.373A1.49974,1.49974,0,1,1,125.96,1.99122a24.53337,24.53337,0,0,0,22.07324,13.709,24.6354,24.6354,0,0,0,7.27344-1.09326,1.49983,1.49983,0,1,1,.88477,2.86621A27.62546,27.62546,0,0,1,148.0332,18.70021Z"/><path d="M65.39746,50.208h0a53.32968,53.32968,0,0,1-39.0459-16.84326,1.49975,1.49975,0,0,1,.02832-2.09229l30.833-30.833a1.49916,1.49916,0,0,1,2.0918-.02832A53.3199,53.3199,0,0,1,76.14941,39.457a1.5,1.5,0,0,1-3,0A50.30224,50.30224,0,0,0,58.28711,3.60743L29.54785,32.34669A50.31154,50.31154,0,0,0,65.39746,47.208a1.5,1.5,0,0,1,0,3Z"/><path d="M70.02344,45.58253a1.49514,1.49514,0,0,1-1.06055-.43945l-27.166-27.166A1.49984,1.49984,0,0,1,43.918,15.856L71.084,43.022a1.5,1.5,0,0,1-1.06055,2.56055Z"/><path d="M59.498,49.85939a1.49514,1.49514,0,0,1-1.06055-.43945l-24.042-24.042a1.49984,1.49984,0,0,1,2.12109-2.12109l24.042,24.042A1.5,1.5,0,0,1,59.498,49.85939Z"/><path d="M74.30078,35.05763a1.49514,1.49514,0,0,1-1.06055-.43945l-24.042-24.042a1.49984,1.49984,0,0,1,2.12109-2.12109l24.042,24.042a1.5,1.5,0,0,1-1.06055,2.56055Z"/><path d="M80,107.66651a1.50007,1.50007,0,0,1-1.5-1.5,14.59963,14.59963,0,0,1,14.583-14.583A11.59666,11.59666,0,0,0,104.667,80a27.69772,27.69772,0,0,1,27.666-27.6665,1.5,1.5,0,0,1,0,3A24.69444,24.69444,0,0,0,107.667,80a14.59994,14.59994,0,0,1-14.584,14.5835,11.59635,11.59635,0,0,0-11.583,11.583A1.50007,1.50007,0,0,1,80,107.66651Z"/><path d="M93.083,120.75A14.59973,14.59973,0,0,1,78.5,106.16651a1.5,1.5,0,1,1,3,0A11.59645,11.59645,0,0,0,93.083,117.75a1.5,1.5,0,0,1,0,3Z"/><path d="M106.167,133.83351a1.50007,1.50007,0,0,1-1.5-1.5A11.59666,11.59666,0,0,0,93.083,120.75a1.5,1.5,0,0,1,0-3,14.59994,14.59994,0,0,1,14.584,14.5835A1.50007,1.50007,0,0,1,106.167,133.83351Z"/><path d="M93.083,146.91651a1.5,1.5,0,0,1,0-3,11.59656,11.59656,0,0,0,11.584-11.583,1.5,1.5,0,0,1,3,0A14.59984,14.59984,0,0,1,93.083,146.91651Z"/><path d="M88.457,158.08009a8.03784,8.03784,0,1,1,5.68652-2.35156A8.01488,8.01488,0,0,1,88.457,158.08009Zm0-13.07715a5.03931,5.03931,0,1,0,3.56543,1.47412A5.027,5.027,0,0,0,88.457,145.00294Z"/><path d="M83.832,146.91651a1.49514,1.49514,0,0,1-1.06055-.43945L44.73242,108.438a1.49984,1.49984,0,0,1,2.12109-2.12109L84.89258,144.356a1.5,1.5,0,0,1-1.06055,2.56055Z"/></svg>