<svg xmlns="http://www.w3.org/2000/svg" viewBox="0 0 160 160"><title>alo_icon_activity_dance-large</title><path d="M84.61914,133.60059a1.55982,1.55982,0,0,1-.29834-.0293,1.50056,1.50056,0,0,1-1.17334-1.76758A262.126,262.126,0,0,0,88.313,80a262.126,262.126,0,0,0-5.16553-51.80371,1.49989,1.49989,0,1,1,2.94043-.59375A265.12,265.12,0,0,1,91.313,80a265.12,265.12,0,0,1-5.2251,52.39746A1.50009,1.50009,0,0,1,84.61914,133.60059Z"/><path d="M94.87939,131.65625a1.50062,1.50062,0,0,1-1.38477-2.0752A128.55918,128.55918,0,0,0,103.35889,80a128.55918,128.55918,0,0,0-9.86426-49.58105,1.49993,1.49993,0,0,1,2.77051-1.15039A131.53783,131.53783,0,0,1,106.35889,80a131.53783,131.53783,0,0,1-10.09375,50.73145A1.50009,1.50009,0,0,1,94.87939,131.65625Z"/><path d="M107.3501,126.05566a1.5003,1.5003,0,0,1-1.30859-2.23047,90.06429,90.06429,0,0,0,0-87.65039,1.49995,1.49995,0,0,1,2.62012-1.46094,93.06343,93.06343,0,0,1,0,90.57227A1.5,1.5,0,0,1,107.3501,126.05566Z"/><path d="M75.38086,133.60059a1.50009,1.50009,0,0,1-1.46875-1.20312,265.33433,265.33433,0,0,1,0-104.79492,1.49989,1.49989,0,1,1,2.94043.59375,262.34564,262.34564,0,0,0,0,103.60742,1.50056,1.50056,0,0,1-1.17334,1.76758A1.55982,1.55982,0,0,1,75.38086,133.60059Z"/><path d="M65.12061,131.65625a1.50009,1.50009,0,0,1-1.38574-.9248,132.53564,132.53564,0,0,1,0-101.46289,1.49993,1.49993,0,0,1,2.77051,1.15039,129.5376,129.5376,0,0,0,0,99.16211,1.50062,1.50062,0,0,1-1.38477,2.0752Z"/><path d="M52.6499,126.05566a1.5,1.5,0,0,1-1.31152-.76953,93.06343,93.06343,0,0,1,0-90.57227A1.49995,1.49995,0,0,1,53.9585,36.1748a90.06429,90.06429,0,0,0,0,87.65039,1.5003,1.5003,0,0,1-1.30859,2.23047Z"/><path d="M80,91.3125a265.16163,265.16163,0,0,1-52.397-5.22363,1.50037,1.50037,0,0,1,.59375-2.94141,263.53753,263.53753,0,0,0,103.60645,0,1.50037,1.50037,0,0,1,.59375,2.94141A265.16163,265.16163,0,0,1,80,91.3125Z"/><path d="M80,106.3584A131.52522,131.52522,0,0,1,29.26855,96.26465a1.49966,1.49966,0,1,1,1.15137-2.76953A128.55346,128.55346,0,0,0,80,103.3584a128.55346,128.55346,0,0,0,49.58008-9.86328,1.49966,1.49966,0,1,1,1.15137,2.76953A131.52522,131.52522,0,0,1,80,106.3584Z"/><path d="M80,120.42285a93.13894,93.13894,0,0,1-45.28613-11.76172,1.49976,1.49976,0,1,1,1.46191-2.61914,90.06728,90.06728,0,0,0,87.64844,0,1.49976,1.49976,0,1,1,1.46191,2.61914A93.13894,93.13894,0,0,1,80,120.42285Z"/><path d="M80,133.833A53.833,53.833,0,1,1,133.8335,80,53.89412,53.89412,0,0,1,80,133.833ZM80,29.167A50.833,50.833,0,1,0,130.8335,80,50.89084,50.89084,0,0,0,80,29.167Z"/><path d="M132.10156,76.88184a1.55982,1.55982,0,0,1-.29834-.0293,263.53753,263.53753,0,0,0-103.60645,0,1.50037,1.50037,0,0,1-.59375-2.94141,266.64871,266.64871,0,0,1,104.79395,0,1.50022,1.50022,0,0,1-.29541,2.9707Z"/><path d="M130.15527,66.62012a1.49859,1.49859,0,0,1-.5752-.11523,129.54454,129.54454,0,0,0-99.16016,0,1.49966,1.49966,0,1,1-1.15137-2.76953,132.53564,132.53564,0,0,1,101.46289,0,1.49982,1.49982,0,0,1-.57617,2.88477Z"/><path d="M124.55371,54.14844a1.48565,1.48565,0,0,1-.72949-.19043,90.06728,90.06728,0,0,0-87.64844,0,1.49976,1.49976,0,1,1-1.46191-2.61914,93.06343,93.06343,0,0,1,90.57227,0,1.49987,1.49987,0,0,1-.73242,2.80957Z"/><path d="M80,29.167a1.50007,1.50007,0,0,1-1.5-1.5V1.5a1.5,1.5,0,0,1,3,0V27.667A1.50007,1.50007,0,0,1,80,29.167Z"/><path d="M80,160a1.50007,1.50007,0,0,1-1.5-1.5v-6.542a1.5,1.5,0,0,1,3,0V158.5A1.50007,1.50007,0,0,1,80,160Z"/><path d="M130.88232,30.61816a1.5,1.5,0,0,1-1.06055-2.56055l4.62549-4.626a1.49984,1.49984,0,0,1,2.12109,2.12109l-4.62549,4.626A1.49431,1.49431,0,0,1,130.88232,30.61816Z"/><path d="M24.49219,137.00781a1.5,1.5,0,0,1-1.06055-2.56055l4.62549-4.626a1.49984,1.49984,0,1,1,2.12109,2.12109l-4.62549,4.626A1.49431,1.49431,0,0,1,24.49219,137.00781Z"/><path d="M158.5,81.5h-6.5415a1.5,1.5,0,0,1,0-3H158.5a1.5,1.5,0,0,1,0,3Z"/><path d="M8.0415,81.5H1.5a1.5,1.5,0,0,1,0-3H8.0415a1.5,1.5,0,1,1,0,3Z"/><path d="M135.50781,137.00781a1.49514,1.49514,0,0,1-1.06055-.43945l-4.62549-4.626a1.49984,1.49984,0,1,1,2.12109-2.12109l4.62549,4.626a1.5,1.5,0,0,1-1.06055,2.56055Z"/><path d="M29.11768,30.61816a1.49514,1.49514,0,0,1-1.06055-.43945l-4.62549-4.626a1.49984,1.49984,0,0,1,2.12109-2.12109l4.62549,4.626a1.5,1.5,0,0,1-1.06055,2.56055Z"/></svg>