<svg xmlns="http://www.w3.org/2000/svg" viewBox="0 0 160 160.00049"><title>alo_icon_activity_language-large</title><path d="M1.5,160.00049a1.5,1.5,0,0,1-1.5-1.5V53.8335A53.89412,53.89412,0,0,1,53.833,0h52.334A53.89412,53.89412,0,0,1,160,53.8335V80a53.89412,53.89412,0,0,1-53.833,53.8335H28.28906L2.56055,159.561A1.49967,1.49967,0,0,1,1.5,160.00049ZM53.833,3A50.89084,50.89084,0,0,0,3,53.8335v101.0459l23.60742-23.60645a1.50061,1.50061,0,0,1,1.06055-.43945h78.499A50.89084,50.89084,0,0,0,157,80V53.8335A50.89084,50.89084,0,0,0,106.167,3Z"/><path d="M93.083,81.50049a27.33121,27.33121,0,0,1-10.74609-2.18457A27.93108,27.93108,0,0,1,67.60059,64.58057a1.50041,1.50041,0,0,1,2.76172-1.17383A24.92885,24.92885,0,0,0,83.50977,76.55518,24.35094,24.35094,0,0,0,93.083,78.5a1.50024,1.50024,0,0,1,0,3.00049Z"/><path d="M66.917,81.50049a1.50024,1.50024,0,0,1,0-3.00049A24.69444,24.69444,0,0,0,91.583,53.8335a1.5,1.5,0,0,1,3,0A27.69814,27.69814,0,0,1,66.917,81.50049Z"/><path d="M93.083,55.3335H80a1.5,1.5,0,0,1,0-3H93.083a1.5,1.5,0,0,1,0,3Z"/><path d="M132.333,81.50049H106.167a1.50026,1.50026,0,0,1-1.06055-2.561L117.12891,66.917,105.10645,54.894A1.49987,1.49987,0,0,1,106.167,52.3335h26.166a1.5,1.5,0,0,1,0,3H109.78809l10.52246,10.52295a1.49945,1.49945,0,0,1,0,2.12109L109.78809,78.5H132.333a1.50024,1.50024,0,0,1,0,3.00049Z"/><path d="M50.56348,74.9585h-19.625a1.5,1.5,0,1,1,0-3h19.625a1.5,1.5,0,0,1,0,3Z"/><path d="M53.834,81.50049a1.4999,1.4999,0,0,1-1.34277-.82959L40.75,57.1875,29.00879,80.6709a1.50017,1.50017,0,0,1-2.68359-1.3418l13.083-26.1665a1.50032,1.50032,0,0,1,2.68359,0l13.083,26.1665A1.50145,1.50145,0,0,1,53.834,81.50049Z"/></svg>