<svg id="Elements" xmlns="http://www.w3.org/2000/svg" viewBox="0 0 75 75"><title>alo_activities</title><path d="M40,28.5a6,6,0,0,1,0-12,4,4,0,0,0,0-8,1,1,0,0,1,0-2,6,6,0,0,1,0,12,4,4,0,0,0,0,8A1,1,0,0,1,40,28.5Z"/><path d="M30,28.5a6,6,0,0,1,0-12,4,4,0,0,0,0-8,1,1,0,0,1,0-2,6,6,0,0,1,0,12,4,4,0,0,0,0,8A1,1,0,0,1,30,28.5Z"/><path d="M62.5,51a5.98172,5.98172,0,0,1-2.10449-.39648,0.99988,0.99988,0,1,1,.70313-1.87207A3.99385,3.99385,0,1,0,62.5,41a1,1,0,0,1,0-2A6,6,0,0,1,62.5,51Z"/><path d="M35,68.5A28.53242,28.53242,0,0,1,6.5,40a0.99974,0.99974,0,0,1,1-1h55a0.99974,0.99974,0,0,1,1,1A28.53242,28.53242,0,0,1,35,68.5ZM8.51855,41a26.50033,26.50033,0,0,0,52.96289,0H8.51855Z"/></svg>