<svg xmlns="http://www.w3.org/2000/svg" viewBox="0 0 107.66602 160.00049"><title>alo_icon_activity_communication-large</title><path d="M53.833,46.54688a8.04175,8.04175,0,1,1,8.0415-8.0415A8.05063,8.05063,0,0,1,53.833,46.54688Zm0-13.0835a5.04175,5.04175,0,1,0,5.0415,5.042A5.04746,5.04746,0,0,0,53.833,33.46338Z"/><path d="M72.33545,58.50781a1.5,1.5,0,0,1-1.06055-2.56055,24.6673,24.6673,0,0,0,0-34.88428A1.49984,1.49984,0,0,1,73.396,18.94189a27.6662,27.6662,0,0,1,0,39.12646A1.49514,1.49514,0,0,1,72.33545,58.50781Z"/><path d="M35.33057,58.50781A1.49514,1.49514,0,0,1,34.27,58.06836a27.6662,27.6662,0,0,1,0-39.12646A1.49984,1.49984,0,0,1,36.39111,21.063a24.6673,24.6673,0,0,0,0,34.88428,1.5,1.5,0,0,1-1.06055,2.56055Z"/><path d="M81.58691,67.75928a1.5,1.5,0,0,1-1.06055-2.56055,37.75038,37.75038,0,0,0,0-53.38672,1.49984,1.49984,0,1,1,2.12109-2.12109,40.74928,40.74928,0,0,1,0,57.62891A1.49514,1.49514,0,0,1,81.58691,67.75928Z"/><path d="M26.0791,67.75928a1.49514,1.49514,0,0,1-1.06055-.43945,40.74928,40.74928,0,0,1,0-57.62891A1.49984,1.49984,0,0,1,27.13965,11.812a37.75038,37.75038,0,0,0,0,53.38672,1.5,1.5,0,0,1-1.06055,2.56055Z"/><path d="M90.83838,77.01025a1.5,1.5,0,0,1-1.06055-2.56055,50.83464,50.83464,0,0,0,0-71.88916A1.49984,1.49984,0,0,1,91.89893.43945a53.83354,53.83354,0,0,1,0,76.13135A1.49514,1.49514,0,0,1,90.83838,77.01025Z"/><path d="M16.82764,77.01025a1.49514,1.49514,0,0,1-1.06055-.43945,53.83354,53.83354,0,0,1,0-76.13135,1.49984,1.49984,0,0,1,2.12109,2.12109,50.83464,50.83464,0,0,0,0,71.88916,1.5,1.5,0,0,1-1.06055,2.56055Z"/><path d="M53.833,59.62988a1.49976,1.49976,0,0,1-1.5-1.5v-13.083a1.5,1.5,0,0,1,3,0v13.083A1.49976,1.49976,0,0,1,53.833,59.62988Z"/><path d="M106.166,160H93.083a1.5,1.5,0,0,1,0-3h13.083a1.5,1.5,0,0,1,0,3Z"/><path d="M14.583,160H1.5a1.5,1.5,0,0,1,0-3H14.583a1.5,1.5,0,1,1,0,3Z"/><path d="M14.58252,160.00049a1.5011,1.5011,0,0,1-1.39648-2.04687L52.436,57.5835A1.5,1.5,0,0,1,55.23,58.67627L15.98,159.04639A1.501,1.501,0,0,1,14.58252,160.00049Z"/><path d="M93.0835,160.00049a1.501,1.501,0,0,1-1.39746-.9541L52.436,58.67627A1.5,1.5,0,0,1,55.23,57.5835L94.48,157.95361a1.5011,1.5011,0,0,1-1.39648,2.04688Z"/><path d="M93.082,160a1.49376,1.49376,0,0,1-.95947-.34766L32.9165,110.314a1.50012,1.50012,0,0,1,1.9209-2.30469l59.20605,49.33838A1.5,1.5,0,0,1,93.082,160Z"/><path d="M14.584,160a1.5,1.5,0,0,1-.96143-2.65234l59.20605-49.33838a1.50012,1.50012,0,0,1,1.9209,2.30469L15.54346,159.65234A1.49376,1.49376,0,0,1,14.584,160Z"/></svg>