<svg id="Elements" xmlns="http://www.w3.org/2000/svg" viewBox="0 0 75 75"><title>alo_activities</title><path d="M39.26563,58.41113a0.9989,0.9989,0,0,1-.98145-1.19824A99.67767,99.67767,0,0,0,40.25,37.5a99.67767,99.67767,0,0,0-1.96582-19.71289,1.00031,1.00031,0,0,1,1.96094-.39648A101.7578,101.7578,0,0,1,42.25,37.5a101.7578,101.7578,0,0,1-2.00488,20.10938A1.00038,1.00038,0,0,1,39.26563,58.41113Z"/><path d="M43.18652,57.668a0.99956,0.99956,0,0,1-.92383-1.38379A48.69179,48.69179,0,0,0,46,37.5a48.69179,48.69179,0,0,0-3.7373-18.78418,1.00038,1.00038,0,1,1,1.84766-.76758A50.703,50.703,0,0,1,48,37.5a50.703,50.703,0,0,1-3.88965,19.55176A1.00042,1.00042,0,0,1,43.18652,57.668Z"/><path d="M47.95215,55.52734a1.0001,1.0001,0,0,1-.87207-1.4873,33.99587,33.99587,0,0,0,0-33.08008,0.99984,0.99984,0,0,1,1.74609-.97461,35.99331,35.99331,0,0,1,0,35.0293A0.99882,0.99882,0,0,1,47.95215,55.52734Z"/><path d="M35.73438,58.41113a1.00117,1.00117,0,0,1-.97949-0.80176,101.853,101.853,0,0,1,0-40.21875,1.00031,1.00031,0,1,1,1.96094.39648,99.82156,99.82156,0,0,0,0,39.42578A0.9989,0.9989,0,0,1,35.73438,58.41113Z"/><path d="M31.81348,57.668a1.00042,1.00042,0,0,1-.92383-0.61621,51.08439,51.08439,0,0,1,0-39.10352,1.00038,1.00038,0,1,1,1.84766.76758,49.07452,49.07452,0,0,0,0,37.56836A0.99956,0.99956,0,0,1,31.81348,57.668Z"/><path d="M27.04785,55.52734a0.99882,0.99882,0,0,1-.874-0.5127,35.99331,35.99331,0,0,1,0-35.0293,0.99984,0.99984,0,0,1,1.74609.97461,33.99587,33.99587,0,0,0,0,33.08008A1.0001,1.0001,0,0,1,27.04785,55.52734Z"/><path d="M37.5,42.25a101.7578,101.7578,0,0,1-20.10937-2.00488,1.00031,1.00031,0,0,1,.39648-1.96094,100.26105,100.26105,0,0,0,39.42578,0,1.00031,1.00031,0,0,1,.39648,1.96094A101.7578,101.7578,0,0,1,37.5,42.25Z"/><path d="M37.5,48a50.703,50.703,0,0,1-19.55176-3.88965,1.00038,1.00038,0,1,1,.76758-1.84766A48.69179,48.69179,0,0,0,37.5,46a48.69179,48.69179,0,0,0,18.78418-3.7373,1.00038,1.00038,0,1,1,.76758,1.84766A50.703,50.703,0,0,1,37.5,48Z"/><path d="M37.5,53.375a36.029,36.029,0,0,1-17.51465-4.54883A0.99984,0.99984,0,0,1,20.96,47.08008a33.99587,33.99587,0,0,0,33.08008,0,0.99984,0.99984,0,0,1,.97461,1.74609A36.029,36.029,0,0,1,37.5,53.375Z"/><path d="M37.5,58.5a21,21,0,1,1,21-21A21.02422,21.02422,0,0,1,37.5,58.5Zm0-40a19,19,0,1,0,19,19A19.02161,19.02161,0,0,0,37.5,18.5Z"/><path d="M57.41211,36.73535a0.99793,0.99793,0,0,1-.19922-0.01953,100.26105,100.26105,0,0,0-39.42578,0,1.00031,1.00031,0,0,1-.39648-1.96094,102.34172,102.34172,0,0,1,40.21875,0A1.00014,1.00014,0,0,1,57.41211,36.73535Z"/><path d="M56.668,32.81348a1.00709,1.00709,0,0,1-.38379-0.07617,49.07452,49.07452,0,0,0-37.56836,0,1.00038,1.00038,0,1,1-.76758-1.84766,51.08439,51.08439,0,0,1,39.10352,0A1.00013,1.00013,0,0,1,56.668,32.81348Z"/><path d="M54.52637,28.04688a0.99657,0.99657,0,0,1-.48633-0.127,33.99587,33.99587,0,0,0-33.08008,0,0.99984,0.99984,0,0,1-.97461-1.74609,35.99331,35.99331,0,0,1,35.0293,0A1,1,0,0,1,54.52637,28.04688Z"/><path d="M37.5,18.5a0.99942,0.99942,0,0,1-1-1V7.5a1,1,0,0,1,2,0v10A0.99942,0.99942,0,0,1,37.5,18.5Z"/><path d="M37.5,68.5a0.99942,0.99942,0,0,1-1-1V65a1,1,0,0,1,2,0v2.5A0.99942,0.99942,0,0,1,37.5,68.5Z"/><path d="M56.94531,19.05469a1,1,0,0,1-.707-1.707l1.76758-1.76758a0.99989,0.99989,0,0,1,1.41406,1.41406l-1.76758,1.76758A0.99676,0.99676,0,0,1,56.94531,19.05469Z"/><path d="M16.28711,59.71289a1,1,0,0,1-.707-1.707l1.76758-1.76758a0.99989,0.99989,0,0,1,1.41406,1.41406l-1.76758,1.76758A0.99676,0.99676,0,0,1,16.28711,59.71289Z"/><path d="M67.5,38.5H65a1,1,0,0,1,0-2h2.5A1,1,0,0,1,67.5,38.5Z"/><path d="M10,38.5H7.5a1,1,0,0,1,0-2H10A1,1,0,0,1,10,38.5Z"/><path d="M58.71289,59.71289a0.99676,0.99676,0,0,1-.707-0.293l-1.76758-1.76758a0.99989,0.99989,0,0,1,1.41406-1.41406l1.76758,1.76758A1,1,0,0,1,58.71289,59.71289Z"/><path d="M18.05469,19.05469a0.99676,0.99676,0,0,1-.707-0.293l-1.76758-1.76758a0.99989,0.99989,0,0,1,1.41406-1.41406l1.76758,1.76758A1,1,0,0,1,18.05469,19.05469Z"/></svg>