<svg id="Elements" xmlns="http://www.w3.org/2000/svg" viewBox="0 0 75 75"><title>alo_activities</title><path d="M50.65088,68.49854a2.99062,2.99062,0,0,1-2.12158-.87744L33.68018,52.772a3.003,3.003,0,0,1,0-4.24268L48.5293,33.68018a3.00392,3.00392,0,0,1,4.24268-.00049L67.62109,48.5293a3.003,3.003,0,0,1,0,4.24268L52.772,67.62109A2.99034,2.99034,0,0,1,50.65088,68.49854Zm0-33.69629a0.9957,0.9957,0,0,0-.70752.29248L35.09424,49.94336a1.002,1.002,0,0,0,0,1.41455L49.94336,66.207a1.002,1.002,0,0,0,1.41455,0L66.207,51.35791a1.002,1.002,0,0,0,0-1.41455L51.35791,35.09424A0.997,0.997,0,0,0,50.65088,34.80225Z"/><path d="M50.65088,54.15088a3.50007,3.50007,0,1,1,2.4751-1.02539H53.12549V53.126A3.47866,3.47866,0,0,1,50.65088,54.15088Zm0-4.99951a1.49951,1.49951,0,0,0-1.061,2.56006,1.53626,1.53626,0,0,0,2.12109,0l0.00049-.00049A1.499,1.499,0,0,0,50.65088,49.15137Z"/><path d="M50.65088,45.66553a3.5,3.5,0,0,1-2.4751-5.97461,3.58454,3.58454,0,0,1,4.9502,0,3.4999,3.4999,0,0,1,0,4.94922H53.12549v0.00049A3.47866,3.47866,0,0,1,50.65088,45.66553Zm0-5a1.5,1.5,0,0,0-1.061,2.56055,1.53626,1.53626,0,0,0,2.12109,0l0.00049-.00049A1.5,1.5,0,0,0,50.65088,40.66553Z"/><path d="M59.13623,54.14893a3.49854,3.49854,0,1,1,2.47461-1.02344A3.48766,3.48766,0,0,1,59.13623,54.14893Zm0-4.99756a1.49951,1.49951,0,1,0,1.06006.43848A1.49612,1.49612,0,0,0,59.13623,49.15137Z"/><path d="M42.16553,54.15088a3.50007,3.50007,0,1,1,2.4751-1.02539H44.64014V53.126A3.47866,3.47866,0,0,1,42.16553,54.15088Zm0-4.99951a1.49951,1.49951,0,0,0-1.061,2.56006,1.53626,1.53626,0,0,0,2.12109,0l0.00049-.00049A1.499,1.499,0,0,0,42.16553,49.15137Z"/><path d="M50.65088,62.63428a3.49674,3.49674,0,1,1,2.47461-1.02295A3.49207,3.49207,0,0,1,50.65088,62.63428Zm0-4.99756a1.49981,1.49981,0,1,0,1.06055,2.56006V60.19629A1.499,1.499,0,0,0,50.65088,57.63672Z"/><path d="M20.00537,41.186a3.00162,3.00162,0,0,1-2.60352-1.499l-10.5-18.18652a3.004,3.004,0,0,1,1.09863-4.09814L26.187,6.90186a3.00316,3.00316,0,0,1,4.09814,1.09863l10.5,18.18652A3.00386,3.00386,0,0,1,39.687,30.28516l-18.18652,10.5A2.98335,2.98335,0,0,1,20.00537,41.186ZM27.68506,8.50049a0.99094,0.99094,0,0,0-.498.13379l-18.18652,10.5a1.00128,1.00128,0,0,0-.36621,1.36621l10.5,18.18652a0.9993,0.9993,0,0,0,1.36621.36572l18.18652-10.5h0a0.99937,0.99937,0,0,0,.36572-1.36572l-10.5-18.18652A1.0003,1.0003,0,0,0,27.68506,8.50049Z"/><path d="M23.84912,27.34521a3.53261,3.53261,0,0,1-.91162-0.12061,3.50015,3.50015,0,1,1,3.9375-5.13086v0.00049A3.50263,3.50263,0,0,1,23.84912,27.34521Zm-0.00781-5.002a1.50031,1.50031,0,1,0,1.30127.75049h0a1.48741,1.48741,0,0,0-.91064-0.69873A1.5095,1.5095,0,0,0,23.84131,22.34326Z"/><path d="M15.65332,25.147a3.49915,3.49915,0,1,1,1.74414-.46826A3.50324,3.50324,0,0,1,15.65332,25.147Zm-0.0083-4.999a1.4996,1.4996,0,1,0,1.30127.74951A1.48948,1.48948,0,0,0,15.645,20.14795Z"/><path d="M32.04541,29.53906a3.49979,3.49979,0,1,1,3.0249-5.24951H35.0708A3.49949,3.49949,0,0,1,32.04541,29.53906ZM32.03662,24.54a1.49949,1.49949,0,1,0,1.30176.74951A1.48948,1.48948,0,0,0,32.03662,24.54Z"/></svg>