<svg id="Elements" xmlns="http://www.w3.org/2000/svg" viewBox="0 0 75 75"><title>alo_activities</title><path d="M12.5,63.5h-5a0.99974,0.99974,0,0,1-1-1V17.18213a0.99974,0.99974,0,0,1,1-1h5a0.99974,0.99974,0,0,1,1,1V62.5A0.99974,0.99974,0,0,1,12.5,63.5Zm-4-2h3V18.18213h-3V61.5Z"/><path d="M12.5,68.5h-5a0.99974,0.99974,0,0,1-1-1v-5a0.99974,0.99974,0,0,1,1-1h5a0.99974,0.99974,0,0,1,1,1v5A0.99974,0.99974,0,0,1,12.5,68.5Zm-4-2h3v-3h-3v3Z"/><path d="M12.499,18.18213a0.99949,0.99949,0,0,1-.9668-0.75L9.03223,7.75a0.99954,0.99954,0,1,1,1.93555-.5l2.5,9.68213A0.999,0.999,0,0,1,12.75,18.15039,1.01047,1.01047,0,0,1,12.499,18.18213Z"/><path d="M7.501,18.18213a1.01047,1.01047,0,0,1-.251-0.03174,0.999,0.999,0,0,1-.71777-1.21826l2.5-9.68213a0.99954,0.99954,0,1,1,1.93555.5l-2.5,9.68213A1,1,0,0,1,7.501,18.18213Z"/><path d="M29.27148,68.49756a10.9953,10.9953,0,0,1-2.83105-.37061,0.99928,0.99928,0,0,1-.708-0.709,10.94665,10.94665,0,0,1,9.89844-13.78857,0.98925,0.98925,0,0,1,1.0625.93408,1.00026,1.00026,0,0,1-.93359,1.062,8.94272,8.94272,0,0,0-8.22852,10.70215,8.94469,8.94469,0,0,0,10.70215-8.229,0.98965,0.98965,0,0,1,1.0625-.93359,1.00071,1.00071,0,0,1,.93359,1.0625A10.93221,10.93221,0,0,1,29.27148,68.49756Z"/><path d="M26.69824,68.16064a1,1,0,0,1-.707-1.707l7.07031-7.0708a0.99989,0.99989,0,0,1,1.41406,1.41406l-7.07031,7.0708A0.99676,0.99676,0,0,1,26.69824,68.16064Z"/><path d="M39.23145,59.1626a0.99828,0.99828,0,0,1-.707-0.293l-3.53613-3.53516a0.99838,0.99838,0,0,1-.126-1.25977,51.39307,51.39307,0,0,1,14.3584-14.375,0.77848,0.77848,0,0,1,.06445-0.04785,49.37765,49.37765,0,0,0,7.61621-6.23,49.37358,49.37358,0,0,0,6.22852-7.61523,1,1,0,0,1,1.541-.15479L68.207,29.187a0.99986,0.99986,0,0,1-.1543,1.54053A49.39713,49.39713,0,0,0,54.20605,44.57373a0.73354,0.73354,0,0,1-.05566.07568A51.37207,51.37207,0,0,1,39.78418,58.99609,0.99941,0.99941,0,0,1,39.23145,59.1626Zm-2.24609-4.65918,2.37012,2.36914a49.36483,49.36483,0,0,0,13.168-13.38867,0.92472,0.92472,0,0,1,.05664-0.07568,51.4038,51.4038,0,0,1,13.3584-13.66113l-1.82715-1.82715a51.46616,51.46616,0,0,1-5.7959,6.916,51.36723,51.36723,0,0,1-7.876,6.45068C50.417,41.3042,50.39551,41.3208,50.375,41.334A49.40134,49.40134,0,0,0,36.98535,54.50342Z"/><path d="M41.1377,48.81885a1.0001,1.0001,0,0,1-.86719-0.5L28.97461,28.75342a1.00081,1.00081,0,0,1,.36621-1.36621L33.6709,24.8877a1.00037,1.00037,0,0,1,1.36621.36621L45.72852,43.772a1.00016,1.00016,0,0,1-1.73242,1L33.80469,27.11963l-2.59766,1.5,10.7959,18.69922A0.99991,0.99991,0,0,1,41.1377,48.81885Z"/><path d="M52.501,68.5a1.0001,1.0001,0,0,1-.86719-0.5L43.81934,54.46582a1.00016,1.00016,0,0,1,1.73242-1l7.31445,12.668,2.59766-1.5L47.51172,50.85986a1.00016,1.00016,0,1,1,1.73242-1L57.69629,64.5a0.99988,0.99988,0,0,1-.36621,1.36621L53,68.36621A0.99445,0.99445,0,0,1,52.501,68.5Z"/><path d="M50,28.5a11,11,0,1,1,11-11A11.01245,11.01245,0,0,1,50,28.5Zm0-20a9,9,0,1,0,9,9A9.01015,9.01015,0,0,0,50,8.5Z"/><path d="M52,26.5a11.01245,11.01245,0,0,1-11-11,10.90283,10.90283,0,0,1,2.208-6.59277,1.0002,1.0002,0,0,1,1.59961,1.20117A8.91448,8.91448,0,0,0,43,15.5a9.01015,9.01015,0,0,0,9,9,8.91764,8.91764,0,0,0,5.3916-1.80762A1.0002,1.0002,0,0,1,58.59277,24.292,10.907,10.907,0,0,1,52,26.5Z"/><path d="M54,23.5A10.97605,10.97605,0,0,1,43.67188,8.74268a0.99987,0.99987,0,1,1,1.87891.68457,8.986,8.986,0,0,0,13.29785,10.646,0.99993,0.99993,0,1,1,1.08008,1.68311A10.95559,10.95559,0,0,1,54,23.5Z"/><path d="M55,19.5A10.94909,10.94909,0,0,1,44.01758,8.87207a0.99946,0.99946,0,0,1,.96582-1.0332,1.02154,1.02154,0,0,1,1.03223.96582A8.97975,8.97975,0,0,0,59.4834,16.29541a0.99967,0.99967,0,1,1,.998,1.73242A10.98645,10.98645,0,0,1,55,19.5Z"/><path d="M56,14.5a10.94211,10.94211,0,0,1-9.84473-6.11133,1.00034,1.00034,0,0,1,1.791-.8916,8.99157,8.99157,0,0,0,10.707,4.604,1,1,0,0,1,.58984,1.91113A10.9837,10.9837,0,0,1,56,14.5Z"/><path d="M29.8418,29.25391a0.99515,0.99515,0,0,1-.25977-0.03467A20.79962,20.79962,0,0,1,16.57031,18.93115a0.99926,0.99926,0,0,1,.37891-1.34277l14.43164-8.332a0.9996,0.9996,0,0,1,1.35254.34326,20.79579,20.79579,0,0,1,2.40332,16.4126,0.99989,0.99989,0,0,1-1.93164-.51758A18.78533,18.78533,0,0,0,31.5166,11.4873L18.81348,18.82178A18.79411,18.79411,0,0,0,30.09961,27.2876,1.00024,1.00024,0,0,1,29.8418,29.25391Z"/><path d="M32.00684,28.00342a1.0001,1.0001,0,0,1-.86719-0.5L23.79883,14.78857a1.00016,1.00016,0,1,1,1.73242-1l7.34082,12.71484A0.99991,0.99991,0,0,1,32.00684,28.00342Z"/><path d="M27.69824,28.541a1.0001,1.0001,0,0,1-.86719-0.5L20.335,16.78857a1.00016,1.00016,0,1,1,1.73242-1L28.56348,27.041A0.99991,0.99991,0,0,1,27.69824,28.541Z"/><path d="M34.627,24.5415a1.0001,1.0001,0,0,1-.86719-0.5L27.2627,12.78857a1.00016,1.00016,0,1,1,1.73242-1L35.49219,23.0415A0.99991,0.99991,0,0,1,34.627,24.5415Z"/><path d="M30,48.5a0.99974,0.99974,0,0,1-1-1,6.00656,6.00656,0,0,1,6-6,4.00427,4.00427,0,0,0,4-4,11.01245,11.01245,0,0,1,11-11,1,1,0,0,1,0,2,9.01015,9.01015,0,0,0-9,9,6.00656,6.00656,0,0,1-6,6,4.00427,4.00427,0,0,0-4,4A0.99974,0.99974,0,0,1,30,48.5Z"/><path d="M28.23242,52.76758a3.5,3.5,0,0,1-2.47461-5.9751,3.5862,3.5862,0,0,1,4.94922,0h0A3.5,3.5,0,0,1,28.23242,52.76758Zm0-5a1.49949,1.49949,0,0,0-1.06055,2.56006,1.53435,1.53435,0,0,0,2.12109.00049,1.49886,1.49886,0,0,0,0-2.12061V48.207A1.49076,1.49076,0,0,0,28.23242,47.76758Z"/><path d="M26.46484,48.5a0.99676,0.99676,0,0,1-.707-0.293L15.15039,37.6001A0.99989,0.99989,0,0,1,16.56445,36.186L27.17188,46.793A1,1,0,0,1,26.46484,48.5Z"/></svg>