<svg xmlns="http://www.w3.org/2000/svg" viewBox="0 0 160 160"><title>alo_icon_activity_meals-large</title><path d="M53.833,146.917H40.75a1.50007,1.50007,0,0,1-1.5-1.5V99.625a1.50007,1.50007,0,0,1,1.5-1.5H53.833a1.50007,1.50007,0,0,1,1.5,1.5v45.792A1.50007,1.50007,0,0,1,53.833,146.917Zm-11.583-3H52.333V101.125H42.25Z"/><path d="M14.583,146.917H1.5a1.50007,1.50007,0,0,1-1.5-1.5V99.625a1.50007,1.50007,0,0,1,1.5-1.5H14.583a1.50007,1.50007,0,0,1,1.5,1.5v45.792A1.50007,1.50007,0,0,1,14.583,146.917ZM3,143.917H13.083V101.125H3Z"/><path d="M53.833,101.125H40.75a1.50007,1.50007,0,0,1-1.5-1.5V68.27637A8.05447,8.05447,0,0,1,32.708,60.375c0-.0498.00293-.09961.00781-.14941l3.27148-32.7085a1.49939,1.49939,0,0,1,1.49219-1.35059h19.625a1.49939,1.49939,0,0,1,1.49219,1.35059l3.27051,32.7085c.00488.0498.00781.09961.00781.14941a8.05447,8.05447,0,0,1-6.542,7.90137V99.625A1.50007,1.50007,0,0,1,53.833,101.125Zm-11.583-3H52.333V66.9165a1.50007,1.50007,0,0,1,1.5-1.5,5.04829,5.04829,0,0,0,5.042-4.97168L55.74707,29.1665H38.83691L35.708,60.44531A5.04819,5.04819,0,0,0,40.75,65.4165a1.50007,1.50007,0,0,1,1.5,1.5Z"/><path d="M14.583,101.125H1.5a1.50007,1.50007,0,0,1-1.5-1.5V27.6665a1.50007,1.50007,0,0,1,1.5-1.5H8.042a1.49945,1.49945,0,0,1,1.44238,1.08789l13.083,45.792a1.51046,1.51046,0,0,1,.05762.41211,8.05447,8.05447,0,0,1-6.542,7.90137V99.625A1.50007,1.50007,0,0,1,14.583,101.125ZM3,98.125H13.083V80a1.50007,1.50007,0,0,1,1.5-1.5,5.048,5.048,0,0,0,5.03809-4.84473L6.91016,29.1665H3Z"/><path d="M80,160a79.89143,79.89143,0,0,1-66.666-35.78418,1.4997,1.4997,0,1,1,2.498-1.66016,77.0066,77.0066,0,1,0-2.667-80.77148A1.50017,1.50017,0,0,1,10.56152,40.293,79.99564,79.99564,0,1,1,80,160Z"/><path d="M50.5625,55.3335a1.50007,1.50007,0,0,1-1.5-1.5V27.6665a1.5,1.5,0,0,1,3,0v26.167A1.50007,1.50007,0,0,1,50.5625,55.3335Z"/><path d="M44.02051,55.3335a1.50007,1.50007,0,0,1-1.5-1.5V27.6665a1.5,1.5,0,0,1,3,0v26.167A1.50007,1.50007,0,0,1,44.02051,55.3335Z"/><path d="M96.30176,124.021a27.69783,27.69783,0,0,1-27.666-27.667V70.1875a14.48713,14.48713,0,0,1,4.21973-10.25879L89.66992,39.47412a8.05729,8.05729,0,0,1,.93359-1.12744l.02832-.02783a8.04866,8.04866,0,0,1,8.80078-1.70752l31.291,14.12549a21.11152,21.11152,0,0,1,9.26074,31.26367c-.01074.01611-20.5752,29.58447-20.749,29.83545A27.65207,27.65207,0,0,1,96.30176,124.021ZM92.02832,41.32861,75.12793,61.88867c-.03125.0376-.06445.07373-.09863.10791a11.50862,11.50862,0,0,0-3.39355,8.19092V96.354a24.669,24.669,0,0,0,45.12207,13.79053l.07324.04932c.44336-.792,1.38086-2.14111,3.17871-4.72607l17.501-25.16406a18.02512,18.02512,0,0,0,2.71484-6.46094,18.1531,18.1531,0,0,0-10.70312-20.35742l-31.291-14.125a5.05065,5.05065,0,0,0-5.44531,1.04736l-.75586.91846Z"/><path d="M124.6416,91.95459a1.49856,1.49856,0,0,1-1.2998-.75049l-19.625-33.9917a1.49982,1.49982,0,1,1,2.59766-1.5l19.625,33.9917a1.50088,1.50088,0,0,1-1.29785,2.25049Z"/><path d="M113.31152,98.49609a1.49856,1.49856,0,0,1-1.2998-.75049l-19.625-33.99121a1.49982,1.49982,0,0,1,2.59766-1.5l19.625,33.99121a1.50088,1.50088,0,0,1-1.29785,2.25049Z"/><path d="M101.98047,105.03809a1.49856,1.49856,0,0,1-1.2998-.75049l-19.625-33.9917a1.49982,1.49982,0,1,1,2.59766-1.5l19.625,33.9917a1.50088,1.50088,0,0,1-1.29785,2.25049Z"/></svg>