<svg xmlns="http://www.w3.org/2000/svg" viewBox="0 0 160 91.58738"><title>alo_icon_activity_biking-large</title><path d="M132.3335,65.42088a1.50079,1.50079,0,0,1-1.40967-.9873L108.2041,2.01365A1.50017,1.50017,0,1,1,111.02344.98729l22.71973,62.41992a1.501,1.501,0,0,1-1.40967,2.01367Z"/><path d="M132.3335,91.58738A27.66675,27.66675,0,1,1,160,63.92039,27.698,27.698,0,0,1,132.3335,91.58738Zm0-52.3335A24.66675,24.66675,0,1,0,157,63.92039,24.69465,24.69465,0,0,0,132.3335,39.25389Z"/><path d="M27.6665,91.58738a27.66675,27.66675,0,1,1,27.667-27.667A27.69793,27.69793,0,0,1,27.6665,91.58738Zm0-52.3335a24.66675,24.66675,0,1,0,24.667,24.6665A24.69455,24.69455,0,0,0,27.6665,39.25389Z"/><path d="M66.9165,65.42039h-39.25a1.5,1.5,0,0,1,0-3h39.25a1.5,1.5,0,0,1,0,3Z"/><path d="M66.91846,65.42039a1.5,1.5,0,0,1-.80762-2.76514l53.10254-33.83008a1.50015,1.50015,0,1,1,1.6123,2.53027L67.72314,65.18553A1.493,1.493,0,0,1,66.91846,65.42039Z"/><path d="M66.917,65.42088a1.50079,1.50079,0,0,1-1.40967-.9873L47.6084,15.25633A1.50017,1.50017,0,0,1,50.42773,14.23L68.32666,63.40721A1.501,1.501,0,0,1,66.917,65.42088Z"/><path d="M58.44238,42.14207a1.50022,1.50022,0,0,1-.38721-2.94922l59.60449-15.97119a1.49984,1.49984,0,0,1,.77637,2.89746L58.83154,42.09031A1.48871,1.48871,0,0,1,58.44238,42.14207Z"/><path d="M27.66553,65.42039A1.50006,1.50006,0,0,1,26.43848,63.06L52.26416,26.17723a1.49982,1.49982,0,1,1,2.457,1.7207L28.89551,64.78074A1.4979,1.4979,0,0,1,27.66553,65.42039Z"/><path d="M62.10107,16.24315h-26.167a1.5,1.5,0,0,1,0-3h26.167a1.5,1.5,0,0,1,0,3Z"/><path d="M122.69727,16.084a1.5,1.5,0,0,1,0-3,5.04175,5.04175,0,0,0,0-10.0835h-13.0835a1.5,1.5,0,0,1,0-3h13.0835a8.04175,8.04175,0,0,1,0,16.0835Z"/></svg>