<svg id="Elements" xmlns="http://www.w3.org/2000/svg" viewBox="0 0 75 75"><title>alo_activities</title><path d="M42.5,58.5c-11.21143,0-19.75-21.49365-19.75-32.25a19.75,19.75,0,0,1,39.5,0C62.25,37.00635,53.71143,58.5,42.5,58.5Zm0-50A17.76983,17.76983,0,0,0,24.75,26.25c0,9.96094,8.21631,30.25,17.75,30.25S60.25,36.21094,60.25,26.25A17.76983,17.76983,0,0,0,42.5,8.5Z"/><path d="M42.5,68.5a3.5,3.5,0,0,1,0-7,1.5,1.5,0,0,0,0-3,1,1,0,0,1,0-2,3.5,3.5,0,0,1,0,7,1.5,1.5,0,0,0,0,3A1,1,0,0,1,42.5,68.5Z"/><path d="M17.5,53.5a3.5,3.5,0,0,1,0-7,1.5,1.5,0,0,0,0-3,1,1,0,0,1,0-2,3.5,3.5,0,0,1,0,7,1.5,1.5,0,0,0,0,3A1,1,0,0,1,17.5,53.5Z"/><path d="M57.5,63.397a3.5,3.5,0,0,1,0-7,1.5,1.5,0,0,0,0-3,1,1,0,0,1,0-2,3.5,3.5,0,0,1,0,7,1.5,1.5,0,0,0,0,3A1,1,0,0,1,57.5,63.397Z"/><path d="M57.5,53.397a7.5379,7.5379,0,0,1-5.17041-2.38135,0.99987,0.99987,0,0,1,1.37793-1.44922A5.63893,5.63893,0,0,0,57.5,51.397c4.64063,0,9-8.73389,9-14a8.94977,8.94977,0,0,0-5.69971-8.36621,1,1,0,1,1,.73438-1.86035A10.93825,10.93825,0,0,1,68.5,37.397C68.5,43.01709,63.96387,53.397,57.5,53.397Z"/><path d="M17.5,43.5c-6.46387,0-11-10.37988-11-16a10.99519,10.99519,0,0,1,18.86621-7.68213,1,1,0,1,1-1.43066,1.39746A8.99526,8.99526,0,0,0,8.5,27.5c0,5.26611,4.35938,14,9,14,2.37988,0,4.958-2.32178,6.89648-6.21143a1.00012,1.00012,0,0,1,1.79.89258C23.86816,40.83252,20.70215,43.5,17.5,43.5Z"/></svg>