<svg xmlns="http://www.w3.org/2000/svg" viewBox="0 0 160 160"><title>alo_icon_area_england-large</title><path d="M80,160a80,80,0,1,1,80-80A80.09041,80.09041,0,0,1,80,160ZM80,3a77,77,0,1,0,77,77A77.08713,77.08713,0,0,0,80,3Z"/><path d="M73.458,159.708a1.50039,1.50039,0,0,1-1.5-1.5V88.042H1.793a1.5,1.5,0,0,1,0-3H73.458a1.50039,1.50039,0,0,1,1.5,1.5v71.666A1.50039,1.50039,0,0,1,73.458,159.708Z"/><path d="M73.458,74.9585H1.793a1.5,1.5,0,0,1,0-3H71.958V1.79248a1.5,1.5,0,1,1,3,0v71.666A1.50007,1.50007,0,0,1,73.458,74.9585Z"/><path d="M158.207,74.9585H86.542a1.50007,1.50007,0,0,1-1.5-1.5V1.79248a1.5,1.5,0,1,1,3,0v70.166h70.165a1.5,1.5,0,0,1,0,3Z"/><path d="M86.542,159.708a1.50039,1.50039,0,0,1-1.5-1.5V86.542a1.50039,1.50039,0,0,1,1.5-1.5h71.665a1.5,1.5,0,0,1,0,3H88.042v70.166A1.50039,1.50039,0,0,1,86.542,159.708Z"/></svg>