<svg xmlns="http://www.w3.org/2000/svg" viewBox="0 0 160 160"><title>alo_icon_area_switzerland-large</title><path d="M80,160a80,80,0,1,1,80-80A80.09041,80.09041,0,0,1,80,160ZM80,3a77,77,0,1,0,77,77A77.08713,77.08713,0,0,0,80,3Z"/><path d="M93.0835,120.75H66.9165a1.50007,1.50007,0,0,1-1.5-1.5V94.583H40.75a1.50007,1.50007,0,0,1-1.5-1.5V66.9165a1.49976,1.49976,0,0,1,1.5-1.5H65.4165V40.75a1.49976,1.49976,0,0,1,1.5-1.5h26.167a1.49976,1.49976,0,0,1,1.5,1.5V65.4165H119.25a1.49976,1.49976,0,0,1,1.5,1.5V93.083a1.50007,1.50007,0,0,1-1.5,1.5H94.5835V119.25A1.50007,1.50007,0,0,1,93.0835,120.75Zm-24.667-3h23.167V93.083a1.50007,1.50007,0,0,1,1.5-1.5H117.75V68.4165H93.0835a1.49976,1.49976,0,0,1-1.5-1.5V42.25H68.4165V66.9165a1.49976,1.49976,0,0,1-1.5,1.5H42.25V91.583H66.9165a1.50007,1.50007,0,0,1,1.5,1.5Z"/></svg>